<?xml version="1.0" encoding="utf-8"?>
<!-- Generator: Adobe Illustrator 25.2.3, SVG Export Plug-In . SVG Version: 6.00 Build 0)  -->
<svg width="24px" height="24px" version="1.1" id="Layer_1" xmlns="http://www.w3.org/2000/svg" xmlns:xlink="http://www.w3.org/1999/xlink" x="0px" y="0px"
	 viewBox="0 0 24 24" style="enable-background:new 0 0 24 24;" xml:space="preserve">
<path d="M3.4,17.5c0,1.6,1.1,2.5,2,2.5c1.1-0.1,2-1,2-2.5c0-1.4-1.9-3.4-2-3.5C5.3,14.1,3.4,16,3.4,17.5z M21.4,14.4
	C21.8,14,22,13.5,22,13s-0.2-1-0.6-1.4L15.8,6l2.3-2.3l-1.4-1.4l-2.3,2.3l-7.7,7.7L6,13l7,7c0.4,0.4,0.9,0.6,1.4,0.6s1-0.2,1.4-0.6
	L21.4,14.4z M20,13H8.8l5.6-5.6L20,13z"/>
</svg>
