<?xml version="1.0" encoding="utf-8"?>
<!-- Generator: Adobe Illustrator 26.0.2, SVG Export Plug-In . SVG Version: 6.00 Build 0)  -->
<svg version="1.1" id="Layer_1" xmlns="http://www.w3.org/2000/svg" xmlns:xlink="http://www.w3.org/1999/xlink" x="0px" y="0px"
	 viewBox="0 0 24 24" style="enable-background:new 0 0 24 24;" xml:space="preserve">
<g>
	<g>
		<path d="M12.4,11.6l2.4,0.8l8.4-8.5c0.3-0.3,0.3-0.8,0-1.1l-2.1-2.1c-0.1-0.1-0.3-0.2-0.5-0.2c-0.2,0-0.4,0.1-0.5,0.2l-8.4,8.5
			L12.4,11.6z"/>
	</g>
</g>
<g>
	<g>
		<path d="M0.8,13.1l2.7,3.7L2,21.1c-0.1,0.3,0,0.6,0.2,0.8c0.2,0.2,0.5,0.3,0.8,0.2l4.3-1.5l3.6,2.7c0.2,0.2,0.5,0.2,0.8,0.1
			c0.3-0.1,0.4-0.4,0.4-0.7L12,18.2l3.7-2.7c0.2-0.2,0.3-0.4,0.3-0.7c0-0.3-0.2-0.5-0.5-0.6l-4.3-1.4L9.8,8.4C9.8,8.2,9.5,8,9.2,7.9
			c0,0-0.1,0-0.1,0C8.9,7.9,8.7,8,8.5,8.2L5.9,12l-4.5-0.1c0,0,0,0,0,0c-0.3,0-0.5,0.2-0.7,0.4C0.6,12.6,0.6,12.9,0.8,13.1z"/>
	</g>
</g>
</svg>
