<?xml version="1.0" encoding="iso-8859-1"?>
<!-- Generator: Adobe Illustrator 19.0.0, SVG Export Plug-In . SVG Version: 6.00 Build 0)  -->
<svg width="24px" height="24px" version="1.1" id="Layer_1" xmlns="http://www.w3.org/2000/svg" xmlns:xlink="http://www.w3.org/1999/xlink" x="0px" y="0px"
	 viewBox="0 0 512 512" style="enable-background:new 0 0 512 512;" xml:space="preserve">
<g>
	<g>
		<path d="M402.332,47.712v-13.96C402.332,15.111,387.221,0,368.581,0H93.249C74.608,0,59.497,15.111,59.497,33.752v13.83H44.167
			c-15.797,0-28.604,12.806-28.604,28.604s12.807,28.604,28.604,28.604h15.33v13.83c0,18.641,15.111,33.752,33.752,33.752h275.331
			c18.641,0,33.752-15.111,33.752-33.752v-13.508c20.76,2.53,36.898,20.253,36.898,41.686c0,23.163-18.845,42.008-42.008,42.008
			H242.993c-15.797,0-28.604,12.806-28.604,28.604v88.547c-12.797,9.006-21.166,23.879-21.166,40.718V462.23
			c0,27.488,22.282,49.77,49.77,49.77s49.77-22.282,49.77-49.77V346.673c0-16.837-8.369-31.711-21.166-40.718v-59.944h125.626
			c54.707,0,99.215-44.508,99.215-99.214C496.436,93.803,454.674,50.381,402.332,47.712z"/>
	</g>
</g>
<g>
</g>
<g>
</g>
<g>
</g>
<g>
</g>
<g>
</g>
<g>
</g>
<g>
</g>
<g>
</g>
<g>
</g>
<g>
</g>
<g>
</g>
<g>
</g>
<g>
</g>
<g>
</g>
<g>
</g>
</svg>
