<svg xmlns="http://www.w3.org/2000/svg" xmlnsXlink="http://www.w3.org/1999/xlink" xmlnsSvgjs="http://svgjs.com/svgjs" id="main-canvas" version="1.1" viewBox="59.76 22.86 446.73 379.28"><defs id="SvgjsDefs1002"/><filter id="paper"><feTurbulence id="SvgjsFeTurbulence1129" baseFrequency="0.04" filterName="feTurbulence" in="SourceGraphic" numOctaves="5" result="noise" seed="1" type="fractalNoise"/><feDiffuseLighting id="SvgjsFeDiffuseLighting1130" filterName="feDiffuseLighting" in="noise" lighting-color="white" result="paper" surfaceScale="2"><feDistantLight id="SvgjsFeDistantLight1131" azimuth="45" elevation="60" filterName="feDistantLight"/></feDiffuseLighting></filter><filter id="pencil2"><feTurbulence id="SvgjsFeTurbulence1134" baseFrequency="1.2" filterName="feTurbulence" in="SourceGraphic" numOctaves="1" result="f1" seed="0" stitchTiles="noStitch" type="fractalNoise"/><feColorMatrix id="SvgjsFeColorMatrix1135" filterName="feColorMatrix" in="SourceGraphic" result="f2" type="matrix" values="0 0 0 0 0, 0 0 0 0 0, 0 0 0 0 0, 0 0 0 -1.5 2.8"/><feComposite id="SvgjsFeComposite1136" filterName="feComposite" in="SourceGraphic" in2="f2" operator="in" result="f3"/><feTurbulence id="SvgjsFeTurbulence1137" baseFrequency="1.8" filterName="feTurbulence" in="SourceGraphic" numOctaves="3" result="noise" seed="0" stitchTiles="noStitch" type="fractalNoise"/><feDisplacementMap id="SvgjsFeDisplacementMap1138" filterName="feDisplacementMap" in="SourceGraphic" result="f4" scale="10"><animate id="SvgjsAnimate1139" attributeName="scale" dur="1" values="10;100;10" attributeType="XML" repeatCount="indefinite"/></feDisplacementMap></filter><filter id="watercolour"><feTurbulence id="SvgjsFeTurbulence1142" baseFrequency=".0025" filterName="feTurbulence" numOctaves="5" result="cloudbase" seed="24" type="fractalNoise"/><feColorMatrix id="SvgjsFeColorMatrix1143" filterName="feColorMatrix" in="cloudbase" result="cloud" type="hueRotate" values="0"/><feColorMatrix id="SvgjsFeColorMatrix1144" filterName="feColorMatrix" in="cloud" result="wispy" type="matrix" values="4 0 0 0 -1 4 0 0 0 -1 4 0 0 0 -1 1 0 0 0 0"/><feFlood id="SvgjsFeFlood1145" filterName="feFlood" flood-color="#000000" result="color"/><feBlend id="SvgjsFeBlend1146" filterName="feBlend" in="wispy" in2="color" mode="screen" result="fill"/><feGaussianBlur id="SvgjsFeGaussianBlur1147" filterName="feGaussianBlur" stdDeviation="4"/><feComposite id="SvgjsFeComposite1148" filterName="feComposite" in2="SourceGraphic" operator="in"/></filter><g id="sketchGroup" transform="matrix(0.6677524429967426,0,0,0.6677524429967426,512.5,413.5)"><polyline id="SvgjsPolyline1362" points="-611,-501 -623,-443 -630,-387 -633,-338 -633,-219 -632,-171 -627,-142 -626,-113 -615,-65 -605,-34 -341,-26 -139,-26 -120,-28 -36,-28 -33,-29 -25,-64 -22,-89 -19,-124 -16,-206 -16,-288 -19,-311 -21,-356 -21,-469 -24,-477 -27,-513 -31,-523 -180,-531 -313,-531 -382,-534 -421,-534 -458,-537 -521,-537 -554,-529 -584,-519 -608,-513 -614,-513 -614,-511" fill-opacity="1" fill="#66625f" stroke="#66625f"/><polyline id="SvgjsPolyline1370" points="-626,-137 -617,-145 -585,-156 -500,-183 -398,-210 -299,-210 -256,-207 -218,-203 -178,-194 -106,-185 -82,-180 -70,-176 -46,-164 -43,-159 -39,-158 -28,-151 -28,-149 -19,-146 -16,-140 -15,-127 -15,-98 -22,-68 -25,-41 -33,-37 -39,-35 -145,-34 -180,-29 -268,-29 -275,-28 -298,-28 -334,-23 -539,-23 -593,-32 -611,-58 -626,-85 -632,-98 -632,-107 -635,-122" fill-opacity="1" fill="#6d6056"/><polyline id="SvgjsPolyline1386" points="-611,-82 -606,-83 -581,-106 -555,-133 -537,-143 -499,-156 -439,-165 -386,-167 -340,-171 -313,-177 -187,-177 -154,-170 -120,-158 -115,-155 -93,-151 -76,-145 -45,-118 -42,-118 -30,-110 -27,-110 -25,-107 -19,-107 -19,-91 -24,-68 -24,-46 -28,-43 -43,-40 -187,-40 -195,-38 -215,-38 -248,-34 -259,-29 -271,-28 -421,-28 -455,-22 -537,-22 -555,-26 -584,-29 -591,-34 -599,-35 -608,-50 -614,-56 -620,-79 -621,-79 -623,-82" fill-opacity="1" fill="#6d6056" filter="url(#moss)"/><polyline id="SvgjsPolyline1388" points="-419,-453 -412,-456 -382,-462 -338,-466 -314,-471 -281,-472 -271,-468 -265,-460 -265,-447 -260,-426 -257,-422 -256,-411 -236,-411 -221,-408 -180,-399 -115,-383 -88,-372 -55,-354 -39,-344 -28,-335 -25,-323 -18,-312 -13,-285 -13,-273 -16,-263 -16,-225 -13,-201 -9,-186 -9,-148 -12,-140 -18,-140 -24,-145 -30,-146 -33,-153 -40,-164 -51,-171 -55,-173 -60,-177 -69,-180 -81,-182 -99,-182 -150,-188" fill-opacity="1" fill="#504945"/><polyline id="SvgjsPolyline1390" points="-413,-455 -415,-455 -418,-449 -422,-446 -424,-438 -440,-423 -449,-405 -463,-389 -470,-384 -524,-363 -537,-348 -537,-344 -540,-336 -545,-329 -557,-315 -569,-311 -654,-302 -662,-285 -666,-257 -666,-219 -650,-161 -638,-145 -629,-125 -623,-125 -612,-128 -561,-161 -505,-186 -482,-201 -469,-204 -430,-206 -413,-203 -392,-203 -377,-206 -364,-206 -310,-213 -256,-213 -242,-210 -233,-210 -204,-206 -151,-206 -145,-197 -130,-189" fill-opacity="1" fill="#504945"/><polyline id="SvgjsPolyline1392" points="-388,-429 -386,-435 -371,-462 -359,-490 -347,-505 -340,-511 -308,-511 -301,-508 -299,-505 -298,-489 -281,-462 -271,-425 -266,-420 -266,-371 -256,-354 -254,-348 -254,-338 -257,-327 -257,-332 -262,-339 -284,-353 -295,-357 -307,-360 -346,-359 -364,-324 -368,-323 -380,-323 -380,-312 -386,-309 -400,-308 -409,-350 -418,-374 -422,-381 -422,-389 -394,-420 -380,-428 -377,-432 -368,-440" fill-opacity="1" fill="#363230"/><polyline id="SvgjsPolyline1394" points="-187,-366 -189,-369 -208,-359 -214,-332 -214,-296 -212,-293 -209,-294 -205,-305 -202,-329 -199,-335 -193,-339 -186,-342 -162,-344 -162,-345 -166,-345 -175,-342 -190,-342 -190,-356 -189,-362 -183,-368 -169,-368 -165,-365 -151,-362 -151,-365 -160,-374 -174,-375 -175,-371" fill-opacity="1" fill="#363230"/><polyline id="SvgjsPolyline1396" points="-94,-300 -106,-305 -127,-309 -189,-311 -201,-303 -206,-287 -206,-279 -168,-285 -141,-285 -105,-279 -97,-275 -84,-257 -72,-246 -64,-242 -63,-245 -64,-270 -69,-285 -76,-299 -87,-311 -111,-332 -117,-335 -123,-335" fill-opacity="1" fill="#363230"/><polyline id="SvgjsPolyline1398" points="-150,-279 -150,-281 -156,-285 -212,-291 -256,-291 -262,-285 -266,-285 -275,-281 -247,-276 -232,-270 -224,-258 -217,-234 -214,-215 -214,-201 -205,-197 -150,-185 -142,-182 -120,-180 -117,-179 -102,-179 -100,-194 -124,-212 -148,-234 -171,-246 -189,-267 -189,-272 -181,-278 -159,-281 -138,-281 -124,-278 -112,-266 -108,-254 -100,-246 -94,-245 -88,-245 -88,-246" fill-opacity="1" fill="#363230"/><polyline id="SvgjsPolyline1400" points="-519,-354 -484,-374 -472,-377 -460,-377 -445,-374 -433,-365 -425,-356 -422,-347 -422,-327 -413,-303 -413,-299 -415,-306 -434,-344 -445,-356 -457,-366 -464,-369 -475,-371 -494,-371 -502,-369 -505,-362" fill-opacity="1" fill="#363230"/><polyline id="SvgjsPolyline1402" points="-575,-305 -534,-306 -509,-305 -500,-302 -494,-293 -484,-287 -484,-282 -479,-272 -476,-269 -482,-281 -488,-288 -503,-299 -530,-309 -576,-308 -603,-303 -621,-303" fill-opacity="1" fill="#363230"/><polyline id="SvgjsPolyline1404" points="-623,-285 -461,-287 -449,-281 -445,-275 -437,-260 -439,-255 -442,-255 -455,-267 -461,-269 -496,-270 -502,-273 -484,-272 -461,-260 -454,-243 -449,-237 -446,-237 -434,-246 -434,-252 -452,-260 -466,-260 -475,-255 -482,-248 -502,-213 -505,-198 -505,-189 -534,-188 -542,-183 -548,-182 -549,-179 -558,-176 -560,-173 -591,-158 -606,-142 -614,-140 -620,-136 -633,-130 -633,-133 -647,-153 -663,-174 -666,-182 -674,-216 -671,-242 -671,-257 -659,-275 -654,-275" fill-opacity="1" fill="#363230"/><polyline id="SvgjsPolyline1406" points="-280,-344 -301,-356 -323,-360 -335,-359 -329,-365 -317,-368 -308,-368 -298,-362 -292,-357 -281,-345 -278,-345 -278,-344 -275,-342 -269,-342 -268,-339 -268,-314 -275,-297 -278,-296 -278,-291 -286,-273 -292,-267 -299,-255 -299,-245 -301,-242 -325,-240 -337,-243 -347,-251 -367,-272 -374,-297 -380,-308 -380,-315 -377,-321 -376,-338 -365,-351 -338,-371 -325,-371 -325,-368" fill-opacity="1" fill="#eeded3"/><polyline id="SvgjsPolyline1420" points="-469,-266 -422,-239 -421,-230 -428,-224 -436,-224 -446,-228 -449,-228 -449,-224 -412,-206 -403,-195 -394,-173 -394,-164 -406,-164 -410,-183 -415,-192 -418,-195 -422,-197 -422,-189 -413,-173 -412,-167 -410,-142 -407,-131 -401,-119 -401,-118 -416,-118 -430,-164 -436,-171 -445,-177 -454,-177 -454,-159 -442,-137 -440,-137 -445,-136 -445,-127 -440,-122 -440,-101 -461,-115 -466,-134 -466,-146 -469,-151 -469,-156 -472,-156 -473,-148 -472,-139 -464,-127 -464,-121 -473,-127 -479,-139 -479,-167 -476,-176 -481,-174 -481,-140 -484,-140 -491,-149 -496,-161 -496,-192 -502,-201 -502,-210 -499,-219 -485,-231 -482,-243 -482,-252 -481,-252" fill-opacity="1" fill="#eeded3"/><polyline id="SvgjsPolyline1422" points="-254,-278 -253,-278 -254,-270 -260,-264 -275,-258 -284,-251 -289,-243 -293,-228 -299,-218 -299,-215 -292,-213 -289,-222 -283,-233 -272,-240 -265,-240 -265,-231 -293,-188 -298,-173 -298,-149 -295,-148 -280,-161 -272,-179 -272,-194 -271,-200 -262,-204 -272,-173 -278,-164 -278,-143 -274,-125 -272,-125 -268,-133 -259,-162 -250,-179 -245,-197 -245,-180 -257,-156 -257,-139 -251,-139 -247,-142 -241,-152 -239,-156 -239,-185 -238,-191 -241,-167 -241,-152 -230,-155 -227,-164 -227,-174 -223,-185 -206,-198 -206,-213 -208,-215 -208,-219 -212,-227 -214,-243 -218,-251 -221,-261 -221,-273 -223,-276 -238,-281 -248,-281 -250,-278" fill-opacity="1" fill="#eeded3"/><polyline id="SvgjsPolyline1436" points="-567,-285 -572,-269 -570,-261 -566,-254 -557,-249 -539,-249 -533,-255 -528,-267 -527,-281 -530,-288 -533,-291 -545,-296 -560,-296 -567,-290 -570,-284 -570,-276 -566,-267" fill-opacity="1" fill="#363230" filter="url(#moss)"/><polyline id="SvgjsPolyline1444" points="-434,-347 -436,-348 -451,-351 -454,-357 -454,-369 -452,-374 -448,-381 -442,-387 -427,-392 -418,-392 -407,-383 -397,-368 -394,-356 -394,-333 -395,-327 -400,-321 -404,-318 -434,-318 -443,-321 -466,-339 -470,-347 -472,-369 -460,-383 -451,-387 -445,-387" fill-opacity="1" fill="#363230" filter="url(#moss)"/><polyline id="SvgjsPolyline1452" points="-376,-197 -376,-204 -370,-215 -368,-216 -361,-216 -359,-213 -361,-207 -368,-203 -374,-203 -377,-207 -377,-212 -374,-213 -364,-207 -362,-203 -362,-191 -364,-189 -374,-189 -380,-200 -380,-206 -376,-209 -362,-210 -358,-207 -355,-200 -355,-195 -358,-191 -362,-189 -371,-189 -374,-194" fill-opacity="1" fill="#363230" filter="url(#moss)"/><polyline id="SvgjsPolyline1460" points="-214,-443 -223,-459 -224,-466 -224,-472 -215,-480 -196,-484 -186,-484 -177,-478 -168,-465 -168,-447 -180,-437 -193,-431 -204,-429 -211,-437 -215,-446 -215,-449" fill-opacity="1" fill="#363230" filter="url(#moss)"/><polyline id="SvgjsPolyline1468" points="-302,-540 -313,-543 -317,-547 -319,-558 -317,-562 -308,-571 -295,-579 -284,-580 -268,-577 -262,-570 -257,-558 -257,-544 -260,-540 -268,-534 -272,-532 -298,-532 -301,-534 -307,-541 -308,-546 -308,-559 -305,-565" fill-opacity="1" fill="#363230" filter="url(#moss)"/><polyline id="SvgjsPolyline1474" points="-380,-317 -379,-317 -392,-290 -391,-270 -382,-252 -382,-248 -389,-231 -392,-219 -392,-209 -388,-200 -386,-192 -386,-173 -389,-171 -392,-161 -380,-161 -385,-188 -391,-203 -392,-219 -391,-224 -380,-237 -376,-246 -374,-254 -374,-263 -395,-285 -395,-300 -389,-312 -389,-318 -391,-318" fill-opacity="1" fill="#221e1d" filter="url(#squiggly-animated)"/><polyline id="SvgjsPolyline1480" points="-265,-342 -265,-330 -262,-323 -257,-317 -253,-303 -253,-294 -257,-285 -266,-282 -268,-279 -268,-270 -274,-263 -277,-269 -277,-279 -266,-291 -257,-293 -251,-296 -251,-306 -256,-312 -271,-326 -271,-338" fill-opacity="1" fill="#221e1d" filter="url(#squiggly-animated)"/><polyline id="SvgjsPolyline1486" points="-271,-338 -269,-302 -272,-299 -275,-290 -283,-276 -281,-255 -298,-251 -301,-249 -305,-243 -305,-231 -302,-225 -302,-213 -311,-197 -311,-188 -310,-185 -305,-182 -305,-180 -307,-180 -307,-212 -302,-228 -302,-251 -295,-257 -272,-266 -266,-276 -266,-287" fill-opacity="1" fill="#221e1d" filter="url(#squiggly-animated)"/><polyline id="SvgjsPolyline1498" points="-275,-338 -262,-339 -248,-335 -239,-327 -227,-308 -218,-303 -215,-303 -212,-297 -208,-293 -204,-293 -218,-294 -242,-294 -251,-293 -244,-299 -239,-305 -238,-311 -242,-312 -250,-320 -256,-332 -260,-332 -265,-333 -265,-335" fill-opacity="1" fill="#221e1d" filter="url(#squiggly-animated)"/><polyline id="SvgjsPolyline1504" points="-391,-315 -397,-315 -403,-311 -407,-302 -409,-294 -404,-282 -389,-263 -389,-258 -412,-245 -413,-242 -413,-236 -395,-227 -398,-222 -406,-219 -407,-215 -404,-210 -398,-207 -398,-204 -398,-207 -395,-212 -395,-216 -389,-225 -388,-231 -389,-236 -394,-240 -406,-243 -406,-248 -398,-254 -385,-258 -379,-263 -377,-267 -377,-273 -386,-279 -400,-284 -406,-293 -406,-303 -397,-309 -397,-311" fill-opacity="1" fill="#221e1d" filter="url(#squiggly-animated)"/><polyline id="SvgjsPolyline1510" points="-395,-314 -389,-303 -389,-264 -380,-257 -371,-254 -370,-251 -367,-249 -367,-237 -368,-234 -365,-234 -359,-228 -347,-230 -338,-230 -337,-228 -337,-219 -347,-215 -350,-212 -350,-209 -346,-207 -346,-212 -341,-218 -326,-218 -323,-219 -323,-222 -332,-228 -358,-237 -362,-240 -365,-248 -365,-260 -364,-264 -362,-264 -364,-272 -367,-272 -377,-278 -385,-278 -388,-281 -388,-290 -383,-296 -382,-296 -379,-303 -379,-309 -380,-311 -379,-297" fill-opacity="1" fill="#221e1d" filter="url(#squiggly-animated)"/><polyline id="SvgjsPolyline1516" points="-383,-305 -376,-288 -365,-272 -365,-269 -370,-261 -371,-255" fill-opacity="1" fill="#221e1d" filter="url(#squiggly-animated)"/><polyline id="SvgjsPolyline1522" points="-395,-305 -391,-305 -389,-302 -389,-291 -397,-272 -401,-269 -401,-263 -386,-255 -386,-249 -392,-249 -394,-254 -398,-255 -400,-258" fill-opacity="1" fill="#221e1d" filter="url(#squiggly-animated)"/><polyline id="SvgjsPolyline1528" points="-398,-306 -400,-299 -404,-291 -416,-284 -424,-275 -425,-264 -421,-257 -407,-246 -407,-239 -413,-236 -415,-233 -418,-233 -418,-230 -410,-230 -407,-233 -406,-237 -406,-249 -419,-269 -422,-279 -422,-285 -409,-305 -404,-308 -398,-318 -398,-323" fill-opacity="1" fill="#221e1d" filter="url(#squiggly-animated)"/><polyline id="SvgjsPolyline1532" points="-334,-351 -343,-347 -349,-341 -355,-339 -358,-335 -370,-327 -370,-306 -365,-294 -367,-287 -377,-296 -379,-314 -376,-329 -376,-344 -373,-348 -362,-357 -347,-365 -337,-368 -305,-368 -284,-362 -283,-354 -277,-345 -278,-350 -316,-368 -319,-371 -329,-372" fill-opacity="1" fill="#b8a79c"/><polyline id="SvgjsPolyline1534" points="-283,-350 -278,-345 -277,-339 -271,-332 -269,-324 -269,-315 -277,-293 -278,-297 -278,-324" fill-opacity="1" fill="#b8a79c"/><polyline id="SvgjsPolyline1536" points="-457,-252 -469,-234 -473,-219 -476,-218 -475,-228 -464,-242 -466,-251 -469,-254 -469,-264 -466,-270 -464,-270 -469,-269 -475,-260 -482,-243 -482,-237 -485,-227 -485,-219 -482,-213 -478,-209 -476,-209 -469,-230 -460,-245 -442,-248 -442,-252 -449,-258 -461,-264 -481,-264 -481,-257" fill-opacity="1" fill="#b8a79c"/><polyline id="SvgjsPolyline1538" points="-235,-279 -244,-279 -254,-276 -256,-273 -256,-264 -230,-261 -229,-258 -229,-227 -230,-216 -224,-207 -218,-206 -212,-213 -209,-221 -209,-245 -214,-261 -214,-270 -217,-275 -223,-279 -230,-282 -235,-282" fill-opacity="1" fill="#b8a79c"/><polyline id="SvgjsPolyline1540" points="-346,-341 -344,-335 -340,-329 -331,-321 -325,-312 -320,-300 -320,-296 -322,-296 -323,-291 -328,-288 -335,-290 -340,-296 -338,-327 -335,-326 -332,-317" fill-opacity="1" fill="#b8a79c"/><polyline id="SvgjsPolyline1562" points="-352,-279 -337,-267 -332,-266 -317,-266 -308,-272 -307,-275 -302,-278 -301,-282 -299,-282 -298,-285 -298,-282 -305,-266 -316,-261 -337,-261 -337,-263 -340,-263 -344,-269 -347,-269 -353,-273 -350,-272" fill-opacity="1" fill="#ac2913"/><polyline id="SvgjsPolyline1606" points="-326,-393 -325,-393 -355,-393 -368,-389 -377,-384 -397,-366 -367,-368 -340,-374 -302,-374 -295,-372 -295,-380 -299,-384 -313,-389 -332,-390 -347,-393" fill-opacity="0.2" fill="#fffcdd"/><polyline id="SvgjsPolyline1608" points="-319,-410 -320,-414 -346,-423 -346,-428 -337,-434 -329,-434 -320,-423 -331,-423 -331,-428" fill-opacity="0.2" fill="#fffcdd"/><polyline id="SvgjsPolyline1610" points="-326,-466 -356,-466 -353,-469 -326,-472 -317,-468 -325,-463 -352,-453" fill-opacity="0.2" fill="#fffcdd"/><polyline id="SvgjsPolyline1612" points="-319,-354 -325,-359 -338,-360 -344,-359 -350,-351 -356,-348 -356,-347 -350,-344 -337,-341 -332,-338 -332,-321 -331,-321 -319,-333 -317,-351 -337,-363 -337,-351" fill-opacity="0.2" fill="#fffcdd"/><polyline id="SvgjsPolyline1614" points="-332,-320 -334,-291 -329,-300 -328,-308 -328,-330 -329,-290" fill-opacity="0.2" fill="#fffcdd"/><polyline id="SvgjsPolyline1616" points="-322,-281 -337,-281 -335,-272 -323,-269 -313,-269 -325,-264 -328,-261 -328,-254 -326,-251" fill-opacity="0.2" fill="#fffcdd"/><polyline id="SvgjsPolyline1683" points="-256,-79 -290,-77 -278,-82 -248,-83 -227,-83 -227,-82 -247,-82 -274,-85 -286,-91 -283,-98 -262,-107 -212,-119 -206,-125 -205,-133 -220,-161 -220,-170 -201,-179 -165,-182 -150,-195 -148,-209 -156,-227 -183,-278 -190,-300 -192,-317 -190,-329 -177,-342 -156,-354 -154,-371 -175,-422 -175,-434 -178,-449 -189,-480 -192,-526 -190,-537 -172,-552 -121,-553 -96,-544 -81,-535 -46,-487 -27,-452 -25,-438 -27,-425 -34,-407 -43,-390 -57,-371 -69,-359 -84,-350 -102,-336 -105,-332 -105,-323 -85,-297 -84,-291 -90,-287 -106,-279 -132,-273 -145,-266 -147,-258 -145,-251 -124,-213 -117,-197 -108,-183 -105,-162 -105,-153 -108,-145 -121,-133 -151,-118 -163,-109 -166,-104 -168,-89 -177,-89 -184,-92 -199,-94 -211,-79 -218,-73 -248,-65 -320,-67" fill-opacity="0.4" fill="#fffae1" filter="url(#water)"/><polyline id="SvgjsPolyline1688" points="-376,-104 -379,-109 -395,-118 -431,-122 -469,-119 -487,-115 -479,-116 -473,-122 -472,-128 -493,-140 -522,-149 -546,-158 -549,-161 -539,-174 -521,-189 -522,-194 -546,-201 -575,-213 -585,-219 -582,-227 -566,-236 -542,-254 -528,-270 -525,-293 -533,-312 -534,-326 -533,-339 -522,-365 -496,-398 -490,-408 -502,-425 -534,-452 -549,-468 -534,-468 -506,-471 -418,-486 -395,-495 -385,-504 -382,-508 -382,-514 -395,-523 -416,-529 -446,-535 -472,-535 -491,-534 -508,-529 -542,-517 -576,-502 -596,-490 -614,-477 -642,-444 -653,-428 -665,-401 -669,-378 -669,-359 -663,-345 -651,-333 -602,-305 -587,-294 -585,-288 -585,-281 -591,-272 -624,-252 -635,-240 -636,-234 -635,-219 -627,-212 -626,-207 -627,-198 -633,-189 -635,-183 -635,-170 -624,-161 -590,-148 -570,-143 -573,-134 -585,-121 -587,-113 -576,-112 -481,-112 -457,-104 -452,-101 -449,-97 -449,-92 -454,-79 -454,-74 -434,-68 -424,-67" fill-opacity="0.4" fill="#fffae1" filter="url(#water)"/><polyline id="SvgjsPolyline1703" points="-461,-56 -455,-62 -460,-65 -488,-76 -575,-103 -579,-109 -576,-116 -564,-127 -548,-134 -536,-142 -545,-146 -603,-165 -596,-170 -582,-174 -554,-182 -564,-194 -563,-261 -561,-273 -539,-290 -536,-302 -543,-312 -557,-324 -591,-347 -599,-354 -605,-362 -606,-366 -606,-383 -611,-387 -630,-387 -678,-381 -678,-378 -662,-363 -660,-335 -657,-321 -638,-305 -612,-293 -590,-278 -582,-267 -584,-257 -599,-230 -627,-188 -635,-173 -636,-156 -633,-151 -623,-142 -605,-136 -588,-133 -566,-131 -530,-133 -524,-130 -519,-122 -519,-115 -524,-107 -545,-88 -546,-74 -531,-65 -509,-62 -481,-61 -436,-52 -434,-49 -427,-44 -424,-40 -433,-31 -446,-26 -448,-17 -436,-17 -430,-22 -436,-22" fill-opacity="1" fill="#fffefa" filter="url(#water2)"/><polyline id="SvgjsPolyline1708" points="-205,-55 -198,-65 -187,-76 -186,-86 -195,-94 -215,-104 -226,-113 -217,-121 -201,-127 -196,-133 -196,-139 -214,-159 -244,-182 -254,-188 -260,-213 -251,-236 -250,-255 -271,-264 -275,-269 -275,-276 -266,-285 -245,-294 -221,-299 -180,-302 -160,-308 -156,-311 -154,-323 -174,-362 -177,-377 -177,-395 -174,-401 -165,-407 -124,-417 -78,-417 -63,-414 -39,-401 -31,-393 -31,-380 -39,-371 -67,-359 -109,-345 -136,-335 -144,-329 -145,-321 -142,-312 -117,-279 -103,-270 -93,-260 -85,-249 -76,-225 -75,-213 -78,-204 -85,-195 -103,-191 -121,-188 -214,-188 -230,-186 -241,-183 -245,-180 -248,-176 -248,-170 -245,-165 -236,-158 -226,-152 -181,-133 -175,-128 -168,-119 -166,-116 -166,-97 -174,-94 -180,-89 -189,-76 -189,-68 -169,-52 -169,-44 -171,-41 -178,-41 -186,-44 -190,-44 -190,-43 -184,-40 -178,-40" fill-opacity="1" fill="#fffefa" filter="url(#water2)"/><polyline id="SvgjsPolyline1713" points="-505,-410 -521,-410 -531,-414 -542,-416 -540,-420 -511,-438 -503,-446 -505,-455 -512,-465 -513,-475 -508,-480 -434,-481 -437,-475 -448,-466 -484,-460 -499,-455 -505,-447 -511,-443 -511,-425 -503,-414 -499,-404 -499,-383 -500,-374 -499,-366 -490,-359 -494,-350 -496,-338" fill-opacity="1" fill="#fffefa" filter="url(#water2)"/><polyline id="SvgjsPolyline1718" points="-445,-47 -446,-41 -442,-38 -419,-34 -427,-34" fill-opacity="1" fill="#fffefa" filter="url(#water2)"/><polyline id="SvgjsPolyline1723" points="-594,-336 -597,-336 -597,-347 -593,-380 -593,-390 -596,-396 -621,-429 -626,-440 -630,-469 -642,-484 -651,-492 -656,-493 -659,-490 -665,-477 -669,-459 -669,-417 -666,-377 -657,-348 -645,-324 -632,-324 -632,-321" fill-opacity="1" fill="#fffefa" filter="url(#water2)"/><polyline id="SvgjsPolyline1728" points="-227,-549 -230,-540 -227,-531 -205,-520 -135,-501 -121,-499 -79,-460 -73,-449 -76,-423 -58,-402 -57,-398 -58,-389 -64,-380 -66,-413 -70,-423 -72,-434 -78,-452 -109,-486 -120,-507 -127,-514 -153,-526 -153,-528 -129,-541 -121,-549 -120,-567 -124,-570 -162,-574 -208,-585 -235,-585 -257,-580 -263,-577 -269,-567 -269,-561 -272,-559 -278,-552 -296,-546" fill-opacity="1" fill="#fffefa" filter="url(#water2)"/><polyline id="SvgjsPolyline1806" points="-373,-315 -358,-317 -343,-311 -340,-308 -337,-308 -334,-309 -332,-312 -331,-329 -326,-332 -313,-332 -307,-327 -299,-314 -295,-314 -281,-324 -278,-330 -277,-344 -283,-353 -292,-359 -313,-363 -331,-363 -332,-366 -340,-366 -352,-360 -359,-354 -361,-351 -373,-344 -374,-339" fill-opacity="1" fill="#b8a79c"/><polyline id="SvgjsPolyline1812" points="-314,-365 -328,-368 -352,-368 -356,-363 -364,-360 -370,-354 -371,-350 -376,-348 -377,-344 -377,-318 -379,-318 -379,-314 -380,-314 -379,-299 -377,-299 -377,-297 -373,-299 -364,-320 -346,-320 -340,-317 -340,-315 -337,-315 -325,-327 -311,-336 -286,-335 -277,-342 -277,-350 -281,-354 -290,-359 -289,-366 -292,-369 -319,-375 -335,-375 -346,-369 -356,-369 -359,-368 -359,-365" fill-opacity="1" fill="#706a65"/><polyline id="SvgjsPolyline1814" points="-392,-309 -388,-306 -388,-294 -385,-293 -377,-302 -374,-318 -365,-332 -362,-344 -358,-348 -341,-353 -326,-360 -308,-363 -292,-363 -274,-350 -274,-360 -280,-369 -287,-371 -292,-374 -296,-374 -299,-375 -304,-381 -313,-384 -326,-384 -346,-378 -352,-375 -358,-366 -364,-363 -373,-363 -382,-357 -379,-357 -367,-365 -364,-365 -350,-371 -383,-371 -361,-377 -359,-380 -356,-377 -356,-368 -355,-366 -377,-366" fill-opacity="1" fill="#363230"/><polyline id="SvgjsPolyline1816" points="-337,-380 -359,-380 -376,-368 -376,-360 -367,-360 -355,-363 -352,-366" fill-opacity="1" fill="#363230"/></g><filter id="moss"><feTurbulence id="SvgjsFeTurbulence1462" baseFrequency=".02" filterName="feTurbulence" numOctaves="4" type="fractalNoise"/><feMorphology id="SvgjsFeMorphology1463" filterName="feMorphology" operator="dilate" radius="1"><animate id="SvgjsAnimate1464" attributeName="radius" dur="1" values="1;8;1" attributeType="XML" repeatCount="indefinite"/></feMorphology><feConvolveMatrix id="SvgjsFeConvolveMatrix1465" filterName="feConvolveMatrix" kernelMatrix="1 1 1 1 2 1 1 -9 1" preserveAlpha="true"/><feColorMatrix id="SvgjsFeColorMatrix1466" filterName="feColorMatrix" values=".6 .8 .6 0 0 1 1 1 0 0 .1 .2 .3 0 0 0 0 0 1 1"/><feComposite id="SvgjsFeComposite1467" filterName="feComposite" in2="SourceGraphic" operator="in"/></filter><filter id="water"><feTurbulence id="SvgjsFeTurbulence1695" baseFrequency="0.01 0.05" filterName="feTurbulence" numOctaves="1" result="turbulence" stitchTiles="noStitch"/><feDisplacementMap id="SvgjsFeDisplacementMap1696" filterName="feDisplacementMap" in="SourceGraphic" in2="turbulence" result="displacementMap" scale="200"><animate id="SvgjsAnimate1697" attributeName="scale" dur="3" values="200;100;50;100;200" attributeType="XML" repeatCount="indefinite"/></feDisplacementMap></filter><filter id="water2"><feTurbulence id="SvgjsFeTurbulence1725" baseFrequency="0.01 0.05" filterName="feTurbulence" numOctaves="1" result="turbulence" stitchTiles="noStitch"/><feDisplacementMap id="SvgjsFeDisplacementMap1726" filterName="feDisplacementMap" in="SourceGraphic" in2="turbulence" result="displacementMap" scale="200"><animate id="SvgjsAnimate1727" attributeName="scale" dur="2" values="100;40;80;100" attributeType="XML" repeatCount="indefinite"/></feDisplacementMap></filter><filter id="squiggly-animated"><feTurbulence id="SvgjsFeTurbulence1778" baseFrequency="0.02" filterName="feTurbulence" numOctaves="3" result="noise" seed="0"><animate id="SvgjsAnimate1779" attributeName="seed" dur="0.25" values="1;2;1" attributeType="XML" repeatCount="indefinite"/></feTurbulence><feDisplacementMap id="SvgjsFeDisplacementMap1780" filterName="feDisplacementMap" in="SourceGraphic" in2="noise" scale="6"><animate id="SvgjsAnimate1781" attributeName="scale" dur="0.25" values="6;9;12;9;6" attributeType="XML" repeatCount="indefinite"/></feDisplacementMap></filter><filter id="glow"><feTurbulence id="SvgjsFeTurbulence1890" baseFrequency="1.2" filterName="feTurbulence" in="SourceGraphic" numOctaves="1" result="f1" seed="0" stitchTiles="noStitch" type="fractalNoise"/><feColorMatrix id="SvgjsFeColorMatrix1891" filterName="feColorMatrix" in="SourceGraphic" result="f2" type="matrix" values="0 0 0 0 0, 0 0 0 0 0, 0 0 0 0 0, 0 0 0 -1.5 2.8"/><feComposite id="SvgjsFeComposite1892" filterName="feComposite" in="SourceGraphic" in2="f2" operator="in" result="f3"/><feTurbulence id="SvgjsFeTurbulence1893" baseFrequency="1.8" filterName="feTurbulence" in="SourceGraphic" numOctaves="3" result="noise" seed="0" stitchTiles="noStitch" type="fractalNoise"/><feDisplacementMap id="SvgjsFeDisplacementMap1894" filterName="feDisplacementMap" in="SourceGraphic" result="f4" scale="10"><animate id="SvgjsAnimate1895" attributeName="scale" dur="1" values="10;100;10" attributeType="XML" repeatCount="indefinite"/></feDisplacementMap></filter></svg>