<svg xmlns="http://www.w3.org/2000/svg" xmlnsXlink="http://www.w3.org/1999/xlink" xmlnsSvgjs="http://svgjs.com/svgjs" id="main-canvas" version="1.1" viewBox="-69.95 -98.68 669.12 569.54"><defs id="SvgjsDefs1106"><script xmlns="http://www.w3.org/1999/xhtml">function $(id) { return document.getElementById(id) }</script></defs><g id="sketchGroup" transform="matrix(1,0,0,1,607.5,487)"><g id="layer1"><path id="SvgjsPolyline1109" d="M-539.50 -532.51 C -549.95 -529.86,-563.90 -525.83,-570.50 -523.56 C -585.66 -518.35,-604.66 -513.50,-609.94 -513.50 C -614.57 -513.50,-614.68 -513.16,-612.50 -505.82 C -611.02 -500.84,-611.09 -500.35,-617.03 -471.88 C -630.58 -406.89,-633.41 -367.51,-632.72 -253.50 C -632.22 -171.00,-632.22 -171.00,-629.73 -157.00 C -628.31 -149.06,-626.91 -136.29,-626.50 -127.50 C -625.64 -109.35,-618.83 -77.04,-610.04 -49.48 C -605.09 -33.96,-605.09 -33.96,-459.79 -29.64 C -314.50 -25.32,-314.50 -25.32,-223.00 -25.91 C -116.14 -26.61,-34.41 -27.76,-33.59 -28.58 C -22.38 -39.80,-10.28 -243.29,-17.46 -299.54 C -20.00 -319.38,-21.00 -351.02,-21.00 -411.24 C -21.00 -459.98,-21.24 -470.14,-22.45 -473.04 C -23.25 -474.95,-24.61 -484.72,-25.47 -494.76 C -28.16 -526.16,-18.04 -522.34,-111.77 -527.31 C -191.19 -531.51,-193.61 -531.58,-260.50 -531.57 C -305.31 -531.56,-338.90 -532.05,-359.00 -533.00 C -375.77 -533.80,-398.27 -534.46,-409.00 -534.49 C -419.73 -534.51,-436.15 -535.19,-445.50 -535.99 C -483.37 -539.26,-517.93 -537.98,-539.50 -532.51 " opacity="1" transform="matrix(1,0,0,1,0,0)" fill="#66625f" fill-opacity="1" potraced="yes"/><path id="SvgjsPolyline1110" d="M-451.00 -196.05 C -535.98 -173.34,-615.09 -147.56,-622.19 -140.25 C -632.18 -129.96,-635.31 -122.81,-633.55 -114.29 C -632.70 -110.16,-632.00 -104.87,-632.00 -102.53 C -632.00 -95.11,-617.75 -67.73,-602.16 -45.20 C -591.82 -30.26,-596.74 -32.65,-565.72 -27.44 C -532.03 -21.77,-350.58 -20.42,-315.84 -25.57 C -299.13 -28.05,-296.36 -28.16,-239.50 -28.64 C -184.58 -29.10,-179.29 -29.30,-163.00 -31.51 C -147.16 -33.66,-140.43 -33.95,-92.00 -34.56 C -22.15 -35.44,-25.78 -34.38,-23.48 -54.50 C -22.66 -61.65,-20.37 -74.64,-18.38 -83.36 C -14.77 -99.23,-14.77 -99.23,-15.19 -119.36 C -15.66 -142.44,-16.34 -144.97,-22.65 -147.05 C -24.67 -147.72,-27.74 -149.67,-29.46 -151.38 C -31.18 -153.10,-35.04 -155.70,-38.04 -157.18 C -41.04 -158.65,-44.07 -160.79,-44.76 -161.92 C -46.12 -164.17,-68.44 -175.72,-76.50 -178.34 C -86.54 -181.61,-107.21 -185.13,-142.46 -189.56 C -168.53 -192.83,-183.89 -195.30,-198.00 -198.49 C -234.90 -206.83,-277.29 -210.04,-348.73 -209.91 C -399.50 -209.81,-399.50 -209.81,-451.00 -196.05 " opacity="1" transform="matrix(1,0,0,1,0,0)" fill="#6d6056" fill-opacity="1" potraced="yes"/><path id="SvgjsPolyline1111" d="M-327.00 -173.97 C -342.24 -170.49,-374.13 -167.50,-412.50 -165.98 C -453.92 -164.33,-490.94 -158.58,-517.52 -149.68 C -546.41 -139.99,-548.43 -138.65,-579.00 -108.73 C -606.94 -81.38,-606.08 -82.00,-616.22 -82.00 C -623.08 -82.00,-623.25 -81.94,-621.62 -80.13 C -620.69 -79.11,-618.57 -73.14,-616.89 -66.88 C -614.46 -57.77,-613.22 -54.84,-610.68 -52.19 C -608.93 -50.38,-605.66 -45.88,-603.42 -42.20 C -599.65 -36.00,-599.00 -35.42,-594.75 -34.50 C -592.22 -33.95,-588.81 -32.51,-587.18 -31.30 C -584.75 -29.50,-581.49 -28.80,-569.36 -27.48 C -561.18 -26.59,-550.57 -25.00,-545.76 -23.93 C -530.42 -20.54,-459.32 -21.07,-441.00 -24.71 C -427.50 -27.39,-427.50 -27.39,-343.50 -27.95 C -259.50 -28.50,-259.50 -28.50,-253.62 -31.25 C -240.66 -37.32,-213.92 -38.98,-114.00 -39.92 C -17.39 -40.82,-24.00 -39.56,-24.00 -57.17 C -24.00 -65.01,-23.30 -71.25,-21.50 -79.60 C -17.84 -96.55,-17.98 -107.00,-21.88 -107.00 C -23.46 -107.00,-25.32 -107.67,-26.00 -108.50 C -26.68 -109.32,-27.89 -110.00,-28.68 -110.00 C -29.47 -110.00,-32.76 -111.80,-36.00 -114.00 C -39.24 -116.20,-42.62 -118.00,-43.50 -118.00 C -44.39 -118.00,-52.09 -124.11,-60.61 -131.58 C -78.18 -146.98,-81.96 -148.84,-104.30 -153.06 C -110.33 -154.19,-116.22 -155.75,-117.38 -156.51 C -122.36 -159.77,-155.39 -170.30,-170.84 -173.55 C -194.38 -178.52,-305.80 -178.81,-327.00 -173.97 " opacity="1" transform="matrix(1,0,0,1,0,0)" filter="url(#moss)" fill="#6d6056" fill-opacity="1" potraced="yes"/><path id="SvgjsPolyline1112" d="M-298.50 -471.43 C -311.86 -471.00,-318.96 -470.25,-328.50 -468.25 C -335.38 -466.80,-349.78 -464.89,-360.50 -464.00 C -380.27 -462.35,-407.68 -457.71,-415.03 -454.77 C -419.06 -453.16,-419.06 -453.16,-284.53 -320.55 C -150.00 -187.93,-150.00 -187.93,-122.00 -184.67 C -106.60 -182.88,-90.40 -181.46,-86.00 -181.53 C -73.38 -181.71,-62.22 -179.06,-56.85 -174.61 C -55.12 -173.17,-50.61 -170.25,-46.82 -168.11 C -39.82 -164.16,-34.67 -157.72,-31.23 -148.60 C -30.27 -146.05,-29.51 -145.50,-26.97 -145.50 C -24.84 -145.50,-22.98 -144.57,-21.00 -142.50 C -16.28 -137.57,-12.41 -138.25,-10.24 -144.38 C -7.55 -151.96,-7.74 -181.84,-10.55 -191.76 C -15.43 -209.03,-17.65 -259.15,-14.00 -269.50 C -10.70 -278.85,-15.09 -306.54,-21.61 -317.55 C -23.74 -321.15,-25.99 -326.55,-26.61 -329.55 C -28.61 -339.19,-65.77 -363.07,-101.00 -377.34 C -125.05 -387.09,-224.35 -410.53,-244.75 -411.28 C -256.50 -411.71,-256.50 -411.71,-256.50 -416.78 C -256.50 -420.00,-257.08 -422.48,-258.09 -423.59 C -260.67 -426.45,-264.46 -443.10,-264.48 -451.73 C -264.52 -468.16,-271.67 -472.30,-298.50 -471.43 " opacity="1" transform="matrix(1,0,0,1,0,0)" fill="#504945" fill-opacity="1" potraced="yes"/><path id="SvgjsPolyline1113" d="M-416.11 -452.75 C -416.76 -451.51,-418.58 -449.02,-420.15 -447.21 C -421.72 -445.41,-423.00 -442.98,-423.00 -441.83 C -423.00 -440.54,-426.42 -436.23,-431.89 -430.61 C -439.03 -423.30,-441.69 -419.68,-445.37 -412.32 C -455.04 -392.93,-463.87 -386.21,-495.50 -374.13 C -525.31 -362.75,-535.89 -355.34,-537.29 -344.84 C -538.11 -338.73,-541.41 -333.10,-549.79 -323.49 C -560.00 -311.78,-558.92 -312.09,-607.00 -307.02 C -628.18 -304.79,-647.47 -302.69,-649.88 -302.35 C -659.66 -300.98,-666.00 -275.67,-666.00 -237.97 C -666.00 -211.82,-654.26 -166.48,-644.00 -153.00 C -640.59 -148.51,-636.22 -141.02,-633.71 -135.35 C -626.89 -119.90,-623.61 -120.54,-586.31 -144.62 C -562.23 -160.15,-559.24 -161.77,-533.00 -173.50 C -512.83 -182.51,-502.03 -187.98,-493.64 -193.43 C -479.41 -202.67,-476.37 -203.47,-449.50 -204.98 C -432.30 -205.95,-428.38 -205.89,-421.50 -204.55 C -411.47 -202.61,-392.49 -202.59,-384.50 -204.52 C -381.20 -205.32,-375.13 -205.98,-371.00 -205.98 C -366.88 -205.99,-351.58 -207.58,-337.00 -209.50 C -306.41 -213.54,-262.78 -214.53,-249.00 -211.50 C -245.43 -210.71,-240.03 -210.04,-237.00 -210.01 C -233.98 -209.98,-225.65 -209.08,-218.50 -208.00 C -208.09 -206.44,-200.10 -206.04,-178.34 -206.02 C -151.19 -206.00,-151.19 -206.00,-147.71 -201.25 C -144.79 -197.26,-132.00 -188.41,-132.00 -190.38 C -132.00 -191.47,-412.77 -455.00,-413.93 -455.00 C -414.48 -455.00,-415.46 -453.99,-416.11 -452.75 " opacity="1" transform="matrix(1,0,0,1,0,0)" fill="#504945" fill-opacity="1" potraced="yes"/><path id="SvgjsPolyline1114" d="M-343.68 -507.97 C -352.41 -499.97,-358.76 -490.55,-364.51 -477.05 C -367.63 -469.73,-373.74 -457.28,-378.09 -449.37 C -388.62 -430.22,-389.44 -427.89,-384.61 -430.89 C -382.62 -432.12,-377.85 -434.84,-374.00 -436.95 C -367.00 -440.77,-367.00 -440.77,-371.45 -436.88 C -373.90 -434.75,-377.15 -431.64,-378.66 -429.97 C -380.18 -428.30,-384.25 -425.40,-387.71 -423.52 C -392.80 -420.76,-396.72 -417.11,-408.25 -404.35 C -424.21 -386.69,-424.51 -386.01,-420.01 -377.63 C -414.61 -367.57,-409.17 -350.56,-404.63 -329.50 C -400.00 -308.00,-400.00 -308.00,-393.00 -308.54 C -381.74 -309.42,-379.50 -310.84,-379.50 -317.09 C -379.50 -322.24,-379.50 -322.24,-371.80 -322.73 C -367.56 -323.00,-363.94 -323.63,-363.75 -324.11 C -363.56 -324.60,-359.49 -332.65,-354.70 -342.00 C -346.00 -359.00,-346.00 -359.00,-323.50 -359.00 C -296.11 -359.00,-291.12 -357.74,-273.72 -346.41 C -267.94 -342.65,-262.93 -339.44,-262.57 -339.29 C -260.86 -338.52,-257.49 -332.37,-257.41 -329.85 C -257.34 -327.69,-256.86 -328.46,-255.42 -333.00 C -251.98 -343.90,-253.03 -349.13,-261.55 -363.48 C -265.63 -370.34,-265.63 -370.34,-265.53 -395.09 C -265.43 -419.84,-265.43 -419.84,-268.38 -422.92 C -270.82 -425.47,-272.15 -429.08,-276.13 -443.92 C -280.93 -461.82,-280.95 -461.88,-289.72 -475.79 C -298.50 -489.73,-298.50 -489.73,-298.53 -497.37 C -298.58 -509.91,-301.83 -511.64,-324.90 -511.40 C -340.11 -511.24,-340.11 -511.24,-343.68 -507.97 " opacity="1" transform="matrix(1,0,0,1,0,0)" fill="#363230" fill-opacity="1" potraced="yes"/><path id="SvgjsPolyline1115" d="M-174.48 -372.57 C -174.83 -371.46,-176.89 -370.00,-179.30 -369.15 C -183.50 -367.66,-183.50 -367.66,-175.97 -367.58 C -171.34 -367.53,-167.69 -366.97,-166.47 -366.13 C -164.61 -364.83,-155.59 -362.50,-152.45 -362.50 C -149.79 -362.50,-150.95 -365.03,-155.78 -369.79 C -161.35 -375.27,-173.07 -377.01,-174.48 -372.57 M-198.50 -363.99 C -202.90 -361.54,-206.82 -359.41,-207.22 -359.27 C -211.29 -357.76,-216.53 -303.26,-213.39 -295.08 C -210.75 -288.20,-205.78 -299.16,-203.43 -317.05 C -201.32 -333.12,-200.17 -335.16,-190.50 -339.95 C -186.67 -341.85,-186.05 -342.44,-187.87 -342.46 C -191.75 -342.52,-190.72 -360.10,-186.58 -364.42 C -184.04 -367.07,-183.96 -367.32,-185.87 -366.82 C -187.10 -366.50,-188.00 -366.74,-188.00 -367.38 C -188.00 -369.31,-190.25 -368.58,-198.50 -363.99 M-167.50 -344.50 C -169.10 -343.81,-168.76 -343.63,-165.75 -343.57 C -163.69 -343.53,-162.00 -343.95,-162.00 -344.50 C -162.00 -345.69,-164.72 -345.69,-167.50 -344.50 M-179.75 -341.81 C -178.79 -341.56,-177.21 -341.56,-176.25 -341.81 C -175.29 -342.06,-176.08 -342.27,-178.00 -342.27 C -179.92 -342.27,-180.71 -342.06,-179.75 -341.81 " opacity="1" transform="matrix(1,0,0,1,0,0)" fill="#363230" fill-opacity="1" potraced="yes"/><path id="SvgjsPolyline1116" d="M-121.87 -333.75 C -121.12 -332.79,-115.08 -325.47,-108.44 -317.50 C -93.39 -299.39,-93.73 -300.02,-100.18 -302.63 C -120.06 -310.67,-184.58 -313.56,-194.98 -306.88 C -201.44 -302.72,-206.00 -292.89,-206.00 -283.11 C -206.00 -278.76,-207.33 -278.85,-187.33 -281.99 C -165.11 -285.49,-143.81 -285.47,-122.17 -281.95 C -100.65 -278.45,-98.80 -277.50,-90.17 -265.59 C -80.78 -252.64,-67.20 -241.02,-63.86 -243.09 C -61.89 -244.30,-63.86 -269.75,-66.51 -277.40 C -73.10 -296.38,-78.67 -303.94,-99.23 -321.74 C -112.07 -332.86,-115.98 -335.39,-120.37 -335.46 C -122.97 -335.50,-123.11 -335.33,-121.87 -333.75 " opacity="1" transform="matrix(1,0,0,1,0,0)" fill="#363230" fill-opacity="1" potraced="yes"/><path id="SvgjsPolyline1117" d="M-259.50 -288.00 C -261.08 -286.35,-263.30 -284.97,-264.44 -284.93 C -265.57 -284.89,-268.30 -284.05,-270.50 -283.08 C -275.31 -280.95,-275.35 -280.96,-258.76 -278.05 C -232.94 -273.51,-227.14 -268.72,-220.62 -246.50 C -216.50 -232.46,-214.00 -217.89,-214.00 -207.96 C -214.00 -198.89,-214.19 -198.98,-177.90 -191.07 C -162.83 -187.78,-148.48 -184.41,-146.00 -183.57 C -141.16 -181.94,-127.36 -180.22,-111.86 -179.31 C -102.22 -178.74,-102.22 -178.74,-101.54 -183.12 C -101.17 -185.53,-100.63 -188.92,-100.34 -190.65 C -99.83 -193.69,-100.26 -194.13,-112.16 -203.07 C -118.95 -208.18,-129.67 -217.15,-136.00 -223.01 C -145.58 -231.88,-149.46 -234.71,-159.23 -239.89 C -172.22 -246.78,-189.00 -263.38,-189.00 -269.34 C -189.00 -275.65,-176.83 -279.85,-154.53 -281.25 C -143.01 -281.97,-155.77 -284.92,-183.62 -287.96 C -224.28 -292.40,-255.26 -292.42,-259.50 -288.00 M-149.78 -279.84 C -149.57 -279.20,-140.64 -274.05,-129.95 -268.38 C -114.87 -260.40,-110.02 -257.35,-108.36 -254.79 C -103.94 -247.98,-100.74 -245.88,-93.86 -245.28 C -86.10 -244.61,-86.42 -245.01,-99.20 -252.00 C -108.88 -257.29,-109.33 -257.69,-111.12 -262.52 C -114.27 -271.06,-121.85 -277.58,-130.82 -279.46 C -139.67 -281.32,-150.35 -281.54,-149.78 -279.84 " opacity="1" transform="matrix(1,0,0,1,0,0)" fill="#363230" fill-opacity="1" potraced="yes"/><path id="SvgjsPolyline1118" d="M-478.06 -375.61 C -490.76 -372.23,-490.48 -370.86,-476.97 -370.28 C -460.61 -369.57,-458.25 -368.40,-442.66 -353.17 C -435.81 -346.47,-434.68 -344.71,-425.36 -326.14 C -414.60 -304.73,-412.41 -301.84,-417.98 -316.44 C -421.18 -324.82,-421.50 -326.61,-421.50 -335.91 C -421.50 -364.92,-448.09 -383.59,-478.06 -375.61 M-498.03 -370.20 C -501.33 -369.39,-502.35 -368.53,-503.64 -365.51 C -505.22 -361.82,-505.22 -361.82,-497.88 -365.91 C -488.14 -371.34,-488.18 -372.64,-498.03 -370.20 M-414.38 -304.50 C -414.19 -301.07,-412.71 -297.72,-412.62 -300.50 C -412.57 -301.88,-412.97 -303.68,-413.50 -304.50 C -414.36 -305.83,-414.46 -305.83,-414.38 -304.50 " opacity="1" transform="matrix(1,0,0,1,0,0)" fill="#363230" fill-opacity="1" potraced="yes"/><path id="SvgjsPolyline1119" d="M-555.00 -308.35 C -571.03 -307.93,-582.33 -307.18,-586.50 -306.24 C -592.51 -304.88,-590.34 -304.81,-558.00 -305.27 C -538.75 -305.54,-522.88 -305.86,-522.74 -305.98 C -520.18 -308.04,-532.37 -308.94,-555.00 -308.35 M-511.29 -302.08 C -502.92 -298.88,-489.71 -290.36,-486.62 -286.17 C -485.53 -284.69,-485.07 -284.57,-484.42 -285.62 C -483.84 -286.57,-485.05 -287.79,-488.63 -289.85 C -491.69 -291.62,-494.85 -294.56,-496.72 -297.39 C -500.19 -302.63,-507.07 -305.59,-515.50 -305.47 C -520.00 -305.41,-520.00 -305.41,-511.29 -302.08 M-610.25 -302.78 C -608.74 -302.56,-606.26 -302.56,-604.75 -302.78 C -603.24 -303.01,-604.48 -303.20,-607.50 -303.20 C -610.52 -303.20,-611.76 -303.01,-610.25 -302.78 M-481.54 -276.57 C -478.91 -271.37,-476.50 -268.21,-476.50 -269.97 C -476.50 -271.53,-482.65 -282.50,-483.53 -282.50 C -484.08 -282.50,-483.18 -279.83,-481.54 -276.57 " opacity="1" transform="matrix(1,0,0,1,0,0)" fill="#363230" fill-opacity="1" potraced="yes"/><path id="SvgjsPolyline1120" d="M-583.00 -285.48 C -624.50 -284.91,-624.50 -284.91,-638.50 -280.21 C -646.20 -277.63,-653.90 -275.51,-655.62 -275.51 C -661.49 -275.49,-671.00 -259.20,-671.00 -249.16 C -671.00 -244.90,-671.70 -235.70,-672.55 -228.71 C -674.10 -216.00,-674.10 -216.00,-669.57 -197.22 C -664.22 -175.05,-665.44 -177.69,-652.05 -159.50 C -637.76 -140.10,-633.00 -133.15,-633.00 -131.71 C -633.00 -129.90,-621.86 -134.33,-616.12 -138.42 C -614.64 -139.47,-611.75 -140.64,-609.69 -141.03 C -606.67 -141.60,-604.56 -143.28,-598.73 -149.77 C -591.65 -157.64,-591.17 -157.97,-575.41 -165.53 C -566.55 -169.77,-559.06 -173.91,-558.75 -174.72 C -558.44 -175.53,-556.13 -176.76,-553.62 -177.47 C -550.78 -178.26,-548.83 -179.45,-548.46 -180.62 C -548.07 -181.84,-546.93 -182.50,-545.18 -182.50 C -543.71 -182.51,-540.48 -183.86,-538.00 -185.50 C -533.53 -188.47,-533.40 -188.49,-519.25 -188.50 C -505.00 -188.50,-505.00 -188.50,-505.00 -193.43 C -505.00 -204.73,-502.45 -212.10,-492.33 -230.00 C -480.13 -251.59,-474.29 -257.89,-465.00 -259.47 C -461.50 -260.07,-461.50 -260.07,-470.00 -264.76 C -478.50 -269.46,-478.50 -269.46,-470.62 -269.48 C -460.00 -269.51,-456.56 -268.27,-449.50 -261.89 C -443.50 -256.47,-443.50 -256.47,-448.28 -258.46 C -451.93 -259.98,-461.00 -260.96,-461.00 -259.84 C -461.01 -258.38,-453.34 -242.50,-451.40 -239.96 C -448.06 -235.58,-448.03 -235.58,-440.39 -241.19 C -432.30 -247.13,-431.45 -251.23,-437.75 -253.84 C -439.81 -254.70,-440.95 -255.42,-440.29 -255.45 C -435.69 -255.64,-437.60 -262.81,-445.86 -276.33 C -452.61 -287.39,-451.22 -287.30,-583.00 -285.48 " opacity="1" transform="matrix(1,0,0,1,0,0)" fill="#363230" fill-opacity="1" potraced="yes"/><path id="SvgjsPolyline1121" d="M-352.59 -360.10 C -372.57 -344.99,-376.50 -339.97,-376.50 -329.58 C -376.50 -323.89,-377.01 -320.91,-378.50 -318.00 C -381.25 -312.61,-381.02 -309.58,-377.36 -303.09 C -375.63 -300.03,-372.59 -291.80,-370.59 -284.81 C -366.97 -272.10,-366.97 -272.10,-357.38 -261.78 C -338.68 -241.67,-333.27 -239.12,-313.09 -240.94 C -299.14 -242.20,-298.50 -242.63,-298.50 -250.65 C -298.50 -256.52,-295.01 -263.64,-289.03 -270.00 C -285.71 -273.52,-277.50 -290.67,-277.50 -294.08 C -277.50 -295.08,-276.87 -296.26,-276.10 -296.70 C -272.12 -298.97,-267.50 -314.97,-267.51 -326.44 C -267.53 -340.90,-267.85 -342.00,-272.04 -342.00 C -273.87 -342.00,-276.08 -342.72,-276.95 -343.60 C -277.83 -344.48,-279.22 -344.94,-280.03 -344.63 C -280.84 -344.32,-281.50 -344.52,-281.50 -345.09 C -281.50 -345.66,-282.02 -345.80,-282.65 -345.40 C -283.37 -344.96,-283.54 -345.13,-283.10 -345.84 C -282.05 -347.54,-295.98 -361.00,-302.86 -364.93 C -308.46 -368.12,-309.06 -368.25,-316.22 -367.70 C -323.05 -367.19,-323.77 -367.31,-324.23 -369.07 C -324.66 -370.74,-325.65 -371.00,-331.46 -371.00 C -338.18 -371.00,-338.18 -371.00,-352.59 -360.10 M-293.50 -351.45 C -293.50 -351.17,-294.85 -351.65,-296.50 -352.50 C -298.15 -353.35,-299.50 -354.28,-299.50 -354.55 C -299.50 -354.83,-298.15 -354.35,-296.50 -353.50 C -294.85 -352.65,-293.50 -351.72,-293.50 -351.45 M-287.00 -348.00 C -286.66 -347.45,-286.61 -347.00,-286.88 -347.00 C -287.16 -347.00,-287.66 -347.45,-288.00 -348.00 C -288.34 -348.55,-288.39 -349.00,-288.12 -349.00 C -287.84 -349.00,-287.34 -348.55,-287.00 -348.00 " opacity="1" transform="matrix(1,0,0,1,0,0)" fill="#eeded3" fill-opacity="1" potraced="yes"/><path id="SvgjsPolyline1122" d="M-474.97 -259.03 C -477.95 -255.44,-480.74 -252.50,-481.19 -252.50 C -481.63 -252.50,-482.00 -250.45,-482.00 -247.96 C -482.00 -237.05,-484.60 -231.09,-492.08 -224.87 C -502.53 -216.16,-505.09 -205.66,-499.00 -196.50 C -496.01 -192.00,-496.01 -192.00,-496.00 -176.37 C -496.00 -158.91,-494.79 -154.43,-487.32 -144.25 C -481.42 -136.23,-481.00 -137.08,-481.00 -157.00 C -481.00 -166.96,-480.60 -174.50,-480.08 -174.50 C -479.58 -174.50,-478.46 -174.77,-477.59 -175.10 C -476.17 -175.65,-476.16 -175.30,-477.51 -171.48 C -480.53 -162.92,-479.59 -140.72,-475.88 -133.21 C -472.30 -125.95,-465.07 -119.97,-463.89 -123.29 C -463.48 -124.44,-463.05 -123.68,-462.59 -120.98 C -461.66 -115.52,-461.81 -115.69,-450.50 -108.15 C -440.50 -101.48,-440.50 -101.48,-440.21 -111.65 C -439.94 -121.36,-440.04 -121.93,-442.46 -124.46 C -446.02 -128.17,-446.22 -136.49,-442.75 -136.51 C -441.45 -136.52,-440.97 -136.84,-441.61 -137.26 C -442.23 -137.67,-445.26 -142.76,-448.36 -148.58 C -459.68 -169.84,-455.13 -183.21,-439.91 -173.45 C -432.50 -168.68,-430.20 -164.81,-425.49 -149.14 C -414.99 -114.22,-416.94 -117.85,-408.49 -117.69 C -404.37 -117.62,-401.00 -117.78,-401.00 -118.06 C -401.00 -118.33,-402.32 -121.17,-403.93 -124.36 C -407.95 -132.32,-409.70 -139.82,-410.97 -154.50 C -412.42 -171.21,-412.56 -171.77,-417.61 -181.10 C -423.79 -192.51,-423.79 -199.27,-417.60 -194.40 C -413.19 -190.93,-406.00 -172.10,-406.00 -164.01 C -406.00 -163.73,-403.30 -163.50,-400.00 -163.50 C -392.00 -163.50,-391.72 -167.53,-398.56 -184.06 C -406.04 -202.17,-408.45 -204.50,-430.58 -215.08 C -444.44 -221.70,-449.00 -224.33,-449.00 -225.69 C -449.00 -228.12,-445.44 -228.06,-439.86 -225.52 C -429.98 -221.04,-420.18 -225.87,-421.49 -234.57 C -422.15 -239.00,-422.15 -239.00,-444.74 -252.00 C -472.00 -267.69,-468.49 -266.87,-474.97 -259.03 M-469.00 -153.45 C -469.00 -152.32,-468.38 -150.19,-467.63 -148.70 C -466.52 -146.54,-464.69 -129.50,-465.56 -129.50 C -468.75 -129.50,-473.61 -144.92,-472.50 -151.50 C -471.79 -155.68,-469.00 -157.24,-469.00 -153.45 " opacity="1" transform="matrix(1,0,0,1,0,0)" fill="#eeded3" fill-opacity="1" potraced="yes"/><path id="SvgjsPolyline1123" d="M-249.00 -279.50 C -249.69 -278.67,-250.83 -278.00,-251.54 -278.00 C -252.25 -278.00,-253.11 -276.29,-253.48 -274.14 C -254.37 -268.87,-259.77 -263.97,-268.40 -260.59 C -281.19 -255.58,-287.25 -248.87,-290.98 -235.56 C -292.19 -231.26,-294.49 -225.61,-296.09 -223.01 C -299.80 -216.98,-299.75 -215.46,-295.81 -214.08 C -292.11 -212.79,-291.67 -213.13,-290.00 -218.50 C -286.34 -230.31,-276.65 -240.00,-268.48 -240.00 C -260.94 -240.00,-262.94 -234.16,-278.84 -209.75 C -296.03 -183.34,-298.00 -178.32,-298.00 -160.85 C -298.00 -146.18,-297.39 -145.73,-288.33 -153.68 C -284.77 -156.82,-280.98 -160.48,-279.92 -161.82 C -278.00 -164.27,-278.00 -164.27,-277.99 -153.38 C -277.98 -147.39,-277.30 -139.58,-276.49 -136.00 C -275.67 -132.42,-274.77 -128.49,-274.48 -127.25 C -273.09 -121.22,-270.00 -126.94,-263.51 -147.50 C -260.91 -155.75,-256.65 -166.55,-254.05 -171.50 C -251.45 -176.45,-248.47 -183.88,-247.41 -188.00 C -245.50 -195.50,-245.50 -195.50,-245.21 -187.82 C -244.92 -180.19,-244.96 -180.05,-250.96 -168.08 C -263.06 -143.95,-256.81 -126.47,-243.66 -147.67 C -241.49 -151.17,-240.21 -152.09,-235.63 -153.42 C -229.47 -155.21,-227.00 -159.62,-227.00 -168.84 C -227.00 -178.88,-224.40 -183.64,-214.77 -191.24 C -206.00 -198.15,-206.00 -198.15,-206.00 -206.02 C -206.00 -210.34,-206.45 -214.16,-207.00 -214.50 C -207.55 -214.84,-208.00 -216.01,-208.00 -217.10 C -208.00 -218.19,-208.87 -220.78,-209.93 -222.86 C -210.99 -224.94,-212.37 -230.40,-213.00 -235.01 C -213.63 -239.62,-214.84 -244.72,-215.68 -246.36 C -219.02 -252.81,-221.00 -260.50,-221.00 -267.00 C -221.00 -274.97,-221.69 -275.79,-230.94 -278.86 C -238.58 -281.39,-247.18 -281.70,-249.00 -279.50 M-267.18 -187.93 C -271.63 -174.58,-276.47 -164.14,-277.66 -165.32 C -277.86 -165.52,-276.66 -168.67,-275.01 -172.32 C -272.43 -178.01,-271.99 -180.20,-271.93 -187.73 C -271.84 -198.57,-271.40 -199.71,-266.46 -201.93 C -261.36 -204.23,-261.29 -205.60,-267.18 -187.93 " opacity="1" transform="matrix(1,0,0,1,0,0)" fill="#eeded3" fill-opacity="1" potraced="yes"/><path id="SvgjsPolyline1124" d="M-563.67 -292.73 C -568.52 -288.46,-570.52 -284.17,-570.63 -277.76 C -570.68 -274.87,-570.75 -270.23,-570.79 -267.45 C -571.09 -245.19,-538.60 -240.78,-530.09 -261.92 C -526.89 -269.85,-526.52 -280.54,-529.25 -286.00 C -533.89 -295.29,-555.89 -299.59,-563.67 -292.73 " opacity="1" transform="matrix(1,0,0,1,0,0)" filter="url(#moss)" fill="#363230" fill-opacity="1" potraced="yes"/><path id="SvgjsPolyline1125" d="M-434.87 -389.45 C -438.64 -388.13,-442.35 -386.54,-443.12 -385.90 C -444.12 -385.07,-444.50 -385.06,-444.50 -385.88 C -444.50 -391.10,-458.86 -384.51,-466.18 -375.93 C -471.67 -369.50,-471.67 -369.50,-470.99 -358.52 C -470.03 -343.24,-468.86 -341.22,-454.46 -329.97 C -439.85 -318.55,-438.19 -318.00,-418.66 -318.00 C -396.78 -318.00,-393.50 -321.55,-393.50 -345.18 C -393.50 -358.28,-395.72 -365.85,-402.55 -376.00 C -413.17 -391.78,-420.03 -394.64,-434.87 -389.45 " opacity="1" transform="matrix(1,0,0,1,0,0)" filter="url(#moss)" fill="#363230" fill-opacity="1" potraced="yes"/><path id="SvgjsPolyline1126" d="M-370.19 -214.14 C -370.93 -213.10,-372.60 -212.33,-374.00 -212.39 C -375.85 -212.47,-376.58 -211.93,-376.81 -210.32 C -376.98 -209.13,-377.77 -207.61,-378.56 -206.95 C -380.86 -205.04,-380.22 -199.92,-376.97 -194.25 C -373.96 -189.00,-373.96 -189.00,-367.56 -189.00 C -355.87 -189.00,-351.30 -197.15,-357.95 -206.14 C -359.34 -208.02,-359.88 -209.79,-359.47 -211.08 C -358.02 -215.67,-367.27 -218.30,-370.19 -214.14 " opacity="1" transform="matrix(1,0,0,1,0,0)" filter="url(#moss)" fill="#363230" fill-opacity="1" potraced="yes"/><path id="SvgjsPolyline1127" d="M-205.63 -482.14 C -226.43 -477.51,-228.87 -470.06,-216.79 -448.00 C -207.05 -430.22,-205.46 -428.71,-197.98 -430.12 C -171.98 -435.01,-160.26 -453.68,-172.19 -471.20 C -180.86 -483.94,-187.61 -486.15,-205.63 -482.14 " opacity="1" transform="matrix(1,0,0,1,0,0)" filter="url(#moss)" fill="#363230" fill-opacity="1" potraced="yes"/><path id="SvgjsPolyline1128" d="M-292.36 -579.27 C -298.83 -578.31,-314.40 -566.86,-317.64 -560.69 C -320.70 -554.86,-316.68 -543.75,-311.07 -542.51 C -309.57 -542.19,-306.14 -539.68,-303.46 -536.96 C -294.43 -527.79,-271.51 -529.56,-260.25 -540.30 C -254.00 -546.25,-257.00 -565.76,-265.42 -573.92 C -269.95 -578.31,-282.33 -580.77,-292.36 -579.27 " opacity="1" transform="matrix(1,0,0,1,0,0)" filter="url(#moss)" fill="#363230" fill-opacity="1" potraced="yes"/><path id="SvgjsPolyline1129" d="M-389.00 -315.09 C -389.00 -313.36,-390.35 -309.27,-392.00 -306.00 C -395.52 -299.03,-396.41 -285.41,-393.50 -283.00 C -392.21 -281.93,-392.00 -282.32,-392.00 -285.79 C -392.00 -288.68,-390.17 -293.68,-385.56 -303.41 C -379.12 -317.00,-379.12 -317.00,-381.81 -317.01 C -383.29 -317.02,-385.51 -317.30,-386.75 -317.63 C -388.73 -318.16,-389.00 -317.86,-389.00 -315.09 M-391.21 -275.32 C -390.87 -271.09,-389.54 -267.12,-386.37 -260.77 C -381.05 -250.13,-381.05 -250.57,-386.07 -238.07 C -391.09 -225.57,-390.82 -224.33,-384.65 -231.48 C -378.49 -238.61,-374.85 -247.39,-374.28 -256.50 C -373.83 -263.50,-373.83 -263.50,-382.75 -272.32 C -391.68 -281.14,-391.68 -281.14,-391.21 -275.32 M-391.77 -211.00 C -391.77 -209.08,-391.56 -208.29,-391.31 -209.25 C -391.06 -210.21,-391.06 -211.79,-391.31 -212.75 C -391.56 -213.71,-391.77 -212.92,-391.77 -211.00 M-390.61 -203.50 C -390.35 -201.85,-389.22 -198.48,-388.10 -196.00 C -385.47 -190.19,-386.40 -195.39,-389.18 -202.00 C -390.67 -205.55,-390.97 -205.87,-390.61 -203.50 M-386.00 -181.23 C -386.00 -176.40,-386.45 -172.84,-387.10 -172.44 C -388.18 -171.77,-390.06 -167.79,-391.45 -163.25 C -392.11 -161.09,-391.90 -161.00,-385.96 -161.00 C -380.06 -161.00,-379.81 -161.10,-380.33 -163.25 C -380.63 -164.49,-381.84 -170.68,-383.02 -177.00 C -385.65 -191.05,-386.00 -191.56,-386.00 -181.23 " opacity="1" transform="matrix(1,0,0,1,0,0)" filter="url(#squiggly-animated)" fill="#221e1d" fill-opacity="1" potraced="yes"/><path id="SvgjsPolyline1130" d="M-268.25 -339.87 C -271.29 -337.93,-271.50 -337.44,-271.50 -332.11 C -271.50 -325.98,-271.52 -326.01,-258.81 -314.60 C -254.71 -310.92,-255.13 -314.31,-259.49 -320.00 C -263.73 -325.54,-263.91 -326.08,-264.47 -334.22 C -265.00 -341.93,-265.00 -341.93,-268.25 -339.87 M-255.05 -310.25 C -250.11 -301.01,-253.30 -293.69,-263.18 -291.56 C -272.68 -289.51,-280.06 -274.46,-275.64 -266.17 C -273.15 -261.50,-268.28 -267.38,-267.50 -275.99 C -267.00 -281.49,-267.00 -281.49,-261.79 -283.35 C -257.16 -285.01,-256.39 -285.71,-254.91 -289.60 C -253.99 -292.00,-252.62 -294.48,-251.87 -295.11 C -249.45 -297.12,-250.21 -305.07,-253.15 -308.50 C -254.56 -310.15,-255.42 -310.94,-255.05 -310.25 " opacity="1" transform="matrix(1,0,0,1,0,0)" filter="url(#squiggly-animated)" fill="#221e1d" fill-opacity="1" potraced="yes"/><path id="SvgjsPolyline1131" d="M-269.41 -313.14 C -269.01 -305.17,-269.21 -302.40,-270.28 -301.14 C -271.04 -300.24,-272.48 -297.25,-273.47 -294.50 C -274.47 -291.75,-277.03 -286.49,-279.16 -282.81 C -282.91 -276.30,-283.01 -275.91,-282.38 -269.21 C -281.74 -262.32,-281.74 -262.32,-288.62 -259.58 C -295.59 -256.81,-302.00 -251.81,-302.00 -249.15 C -302.00 -247.93,-301.70 -247.96,-300.21 -249.31 C -299.22 -250.20,-295.29 -251.64,-291.46 -252.51 C -280.36 -255.03,-280.83 -254.75,-281.17 -258.72 C -281.46 -262.07,-281.24 -262.34,-276.99 -263.98 C -265.99 -268.21,-264.54 -275.10,-268.04 -306.50 C -269.62 -320.76,-269.85 -321.83,-269.41 -313.14 M-303.76 -245.01 C -305.52 -242.20,-305.36 -230.86,-303.53 -228.44 C -302.21 -226.69,-302.06 -227.52,-302.03 -236.75 C -302.00 -247.97,-301.98 -247.87,-303.76 -245.01 M-304.84 -219.00 C -306.13 -214.88,-307.03 -209.97,-306.84 -208.11 C -306.13 -200.97,-301.85 -211.67,-302.20 -219.72 C -302.50 -226.50,-302.50 -226.50,-304.84 -219.00 M-309.25 -200.30 C -311.69 -195.84,-311.56 -187.98,-309.00 -184.73 C -307.90 -183.33,-307.00 -181.69,-307.00 -181.09 C -307.00 -180.49,-306.55 -180.00,-306.00 -180.00 C -304.73 -180.00,-304.71 -181.31,-305.96 -182.56 C -306.49 -183.09,-307.05 -188.02,-307.21 -193.51 C -307.50 -203.50,-307.50 -203.50,-309.25 -200.30 " opacity="1" transform="matrix(1,0,0,1,0,0)" filter="url(#squiggly-animated)" fill="#221e1d" fill-opacity="1" potraced="yes"/><path id="SvgjsPolyline1132" d="M-270.25 -336.79 C -267.36 -335.94,-265.00 -334.68,-265.00 -333.98 C -265.00 -333.26,-263.09 -332.44,-260.49 -332.05 C -256.26 -331.42,-255.80 -331.03,-253.38 -326.19 C -250.37 -320.14,-242.37 -311.50,-239.79 -311.50 C -235.84 -311.50,-238.41 -305.00,-244.94 -298.46 C -249.90 -293.50,-249.90 -293.50,-229.36 -293.50 C -208.82 -293.50,-208.82 -293.50,-211.34 -296.50 C -212.73 -298.14,-214.15 -300.39,-214.50 -301.50 C -214.85 -302.61,-216.01 -303.50,-217.12 -303.50 C -222.07 -303.50,-227.01 -307.89,-233.11 -317.71 C -242.98 -333.61,-251.39 -338.60,-268.07 -338.42 C -275.50 -338.34,-275.50 -338.34,-270.25 -336.79 M-207.67 -292.83 C -207.30 -292.47,-206.70 -292.47,-206.33 -292.83 C -205.97 -293.20,-206.27 -293.50,-207.00 -293.50 C -207.73 -293.50,-208.03 -293.20,-207.67 -292.83 " opacity="1" transform="matrix(1,0,0,1,0,0)" filter="url(#squiggly-animated)" fill="#221e1d" fill-opacity="1" potraced="yes"/><path id="SvgjsPolyline1133" d="M-401.43 -311.63 C -403.39 -309.78,-405.00 -307.79,-405.00 -307.21 C -405.00 -306.64,-405.31 -305.36,-405.68 -304.38 C -406.59 -302.02,-401.07 -305.81,-395.75 -311.20 C -390.48 -316.54,-395.79 -316.95,-401.43 -311.63 M-407.81 -298.29 C -409.56 -292.39,-406.16 -284.66,-396.45 -272.47 C -388.74 -262.79,-387.39 -259.11,-390.75 -257.00 C -392.21 -256.09,-392.08 -256.02,-390.00 -256.59 C -384.81 -258.00,-383.29 -258.91,-380.19 -262.44 C -373.42 -270.14,-378.12 -276.95,-393.44 -281.66 C -400.96 -283.97,-405.21 -289.25,-406.03 -297.31 C -406.56 -302.50,-406.56 -302.50,-407.81 -298.29 M-400.13 -252.25 C -401.40 -250.63,-401.35 -250.61,-399.50 -251.97 C -398.40 -252.77,-397.31 -253.56,-397.08 -253.72 C -396.85 -253.87,-397.14 -254.00,-397.71 -254.00 C -398.28 -254.00,-399.37 -253.21,-400.13 -252.25 M-408.03 -247.35 C -416.50 -241.72,-415.34 -237.19,-403.96 -231.48 C -394.25 -226.60,-393.53 -222.36,-402.08 -220.48 C -408.40 -219.10,-407.73 -211.98,-400.95 -208.47 C -397.87 -206.88,-395.00 -209.56,-395.00 -214.03 C -395.00 -215.19,-393.57 -218.22,-391.82 -220.76 C -386.09 -229.08,-388.03 -238.59,-395.85 -240.47 C -406.32 -243.00,-406.23 -242.95,-405.78 -246.07 C -405.54 -247.68,-405.39 -249.00,-405.45 -249.00 C -405.51 -249.00,-406.67 -248.26,-408.03 -247.35 " opacity="1" transform="matrix(1,0,0,1,0,0)" filter="url(#squiggly-animated)" fill="#221e1d" fill-opacity="1" potraced="yes"/><path id="SvgjsPolyline1134" d="M-391.57 -308.00 C -389.08 -303.60,-389.02 -303.06,-389.01 -283.87 C -389.00 -262.31,-387.67 -259.38,-376.37 -255.99 C -369.55 -253.95,-366.77 -249.40,-367.17 -240.95 C -367.36 -236.98,-367.09 -234.00,-366.55 -234.00 C -366.02 -234.00,-364.17 -232.62,-362.42 -230.93 C -359.29 -227.89,-359.19 -227.86,-353.44 -228.93 C -350.25 -229.52,-345.58 -230.03,-343.07 -230.08 C -338.63 -230.15,-338.77 -230.25,-348.42 -233.56 C -359.52 -237.38,-362.18 -239.34,-363.85 -244.90 C -365.52 -250.46,-365.34 -261.52,-363.55 -263.31 C -361.75 -265.11,-363.29 -272.00,-365.50 -272.00 C -366.28 -272.00,-369.20 -273.35,-372.00 -275.00 C -375.25 -276.92,-378.46 -278.00,-380.89 -278.00 C -388.83 -278.00,-391.02 -287.68,-384.50 -294.00 C -379.91 -298.45,-379.93 -298.50,-387.56 -306.03 C -394.13 -312.50,-394.13 -312.50,-391.57 -308.00 M-379.77 -307.00 C -379.77 -305.08,-379.56 -304.29,-379.31 -305.25 C -379.06 -306.21,-379.06 -307.79,-379.31 -308.75 C -379.56 -309.71,-379.77 -308.93,-379.77 -307.00 M-379.84 -300.00 C -379.84 -298.63,-379.62 -298.06,-379.34 -298.75 C -379.06 -299.44,-379.06 -300.56,-379.34 -301.25 C -379.62 -301.94,-379.84 -301.38,-379.84 -300.00 M-337.50 -223.99 C -337.50 -218.00,-337.50 -218.00,-331.83 -218.00 C -321.33 -218.00,-320.27 -220.20,-328.25 -225.40 C -337.00 -231.09,-337.50 -231.01,-337.50 -223.99 M-345.50 -215.67 C -350.13 -213.15,-351.27 -209.75,-348.06 -208.03 C -346.21 -207.04,-346.00 -207.21,-346.00 -209.66 C -346.00 -211.26,-344.89 -213.55,-343.31 -215.20 C -340.15 -218.49,-340.26 -218.51,-345.50 -215.67 " opacity="1" transform="matrix(1,0,0,1,0,0)" filter="url(#squiggly-animated)" fill="#221e1d" fill-opacity="1" potraced="yes"/><path id="SvgjsPolyline1135" d="M-382.50 -301.50 C -382.50 -300.77,-382.20 -300.47,-381.83 -300.83 C -381.47 -301.20,-381.47 -301.80,-381.83 -302.17 C -382.20 -302.53,-382.50 -302.23,-382.50 -301.50 M-381.50 -299.20 C -381.50 -296.85,-370.60 -254.87,-370.56 -257.05 C -370.53 -258.73,-369.15 -262.24,-367.50 -264.84 C -363.68 -270.87,-363.52 -270.02,-370.29 -279.71 C -373.47 -284.27,-377.13 -290.59,-378.41 -293.75 C -380.36 -298.59,-381.50 -300.59,-381.50 -299.20 " opacity="1" transform="matrix(1,0,0,1,0,0)" filter="url(#squiggly-animated)" fill="#221e1d" fill-opacity="1" potraced="yes"/><path id="SvgjsPolyline1136" d="M-395.06 -303.75 C -395.09 -303.06,-395.90 -295.41,-396.85 -286.74 C -398.81 -269.01,-398.39 -268.56,-392.66 -282.17 C -388.79 -291.34,-387.67 -301.26,-390.20 -303.80 C -391.78 -305.37,-394.98 -305.34,-395.06 -303.75 M-400.33 -269.33 C -401.39 -268.28,-401.11 -263.00,-400.00 -263.00 C -399.45 -263.00,-399.00 -264.57,-399.00 -266.50 C -399.00 -270.10,-399.18 -270.48,-400.33 -269.33 M-400.00 -259.47 C -400.00 -257.65,-399.05 -256.37,-396.61 -254.93 C -394.74 -253.83,-392.98 -252.04,-392.70 -250.97 C -391.78 -247.44,-386.00 -248.26,-386.00 -251.91 C -386.00 -254.46,-386.82 -255.29,-392.41 -258.41 C -400.05 -262.69,-400.00 -262.68,-400.00 -259.47 " opacity="1" transform="matrix(1,0,0,1,0,0)" filter="url(#squiggly-animated)" fill="#221e1d" fill-opacity="1" potraced="yes"/><path id="SvgjsPolyline1137" d="M-401.27 -312.61 C -403.07 -309.59,-405.38 -306.86,-406.40 -306.53 C -409.00 -305.71,-422.50 -285.03,-422.50 -281.87 C -422.50 -278.03,-421.53 -277.81,-418.80 -281.06 C -417.43 -282.68,-413.51 -285.57,-410.09 -287.49 C -401.83 -292.11,-396.93 -302.28,-397.68 -313.30 C -398.00 -318.09,-398.00 -318.09,-401.27 -312.61 M-423.34 -275.76 C -428.21 -270.89,-423.50 -258.64,-414.02 -251.48 C -406.18 -245.55,-404.84 -240.43,-410.38 -237.56 C -411.96 -236.74,-413.52 -235.38,-413.85 -234.54 C -414.17 -233.69,-415.35 -233.00,-416.47 -233.00 C -417.61 -233.00,-418.50 -232.34,-418.50 -231.50 C -418.50 -229.12,-410.28 -229.48,-408.04 -231.95 C -403.16 -237.35,-404.75 -247.27,-412.35 -258.86 C -416.18 -264.71,-419.62 -270.96,-419.99 -272.74 C -420.76 -276.51,-421.72 -277.38,-423.34 -275.76 " opacity="1" transform="matrix(1,0,0,1,0,0)" filter="url(#squiggly-animated)" fill="#221e1d" fill-opacity="1" potraced="yes"/><path id="SvgjsPolyline1138" d="M-329.47 -370.08 C -329.99 -368.46,-330.96 -368.00,-333.91 -368.00 C -342.49 -368.00,-359.72 -359.57,-369.82 -350.42 C -376.00 -344.83,-376.00 -344.83,-376.00 -336.48 C -376.00 -331.88,-376.71 -325.06,-377.58 -321.31 C -380.42 -309.07,-378.37 -297.90,-372.14 -291.66 C -365.53 -285.06,-363.05 -289.42,-367.45 -299.88 C -372.30 -311.41,-371.24 -326.07,-365.25 -330.10 C -362.64 -331.85,-358.92 -334.75,-357.00 -336.53 C -355.08 -338.32,-352.48 -340.09,-351.23 -340.46 C -349.98 -340.84,-347.51 -342.49,-345.73 -344.12 C -343.95 -345.76,-340.62 -347.94,-338.31 -348.96 C -333.89 -350.94,-334.05 -350.63,-330.93 -363.25 C -329.76 -368.00,-329.76 -368.00,-322.81 -368.00 C -314.46 -368.00,-315.05 -370.27,-323.72 -371.46 C -328.32 -372.09,-328.88 -371.96,-329.47 -370.08 M-305.00 -362.81 C -280.86 -351.24,-282.21 -351.60,-283.30 -357.11 C -284.26 -361.99,-284.26 -361.99,-291.38 -364.05 C -295.30 -365.18,-299.80 -366.53,-301.40 -367.05 C -302.99 -367.57,-306.82 -367.96,-309.90 -367.92 C -315.50 -367.85,-315.50 -367.85,-305.00 -362.81 M-279.39 -348.47 C -278.48 -347.08,-277.53 -346.14,-277.28 -346.38 C -276.59 -347.08,-278.95 -351.00,-280.06 -351.00 C -280.60 -351.00,-280.30 -349.86,-279.39 -348.47 " opacity="1" transform="matrix(1,0,0,1,0,0)" fill="#b8a79c" fill-opacity="1" potraced="yes"/><path id="SvgjsPolyline1139" d="M-282.50 -348.42 C -282.50 -347.91,-281.60 -342.77,-280.50 -337.00 C -279.11 -329.71,-278.50 -322.34,-278.50 -312.88 C -278.50 -291.10,-278.03 -290.41,-272.85 -304.53 C -267.08 -320.23,-267.37 -327.25,-274.14 -335.67 C -275.99 -337.96,-277.50 -340.92,-277.50 -342.24 C -277.50 -343.57,-278.63 -345.71,-280.00 -347.00 C -281.38 -348.29,-282.50 -348.93,-282.50 -348.42 " opacity="1" transform="matrix(1,0,0,1,0,0)" fill="#b8a79c" fill-opacity="1" potraced="yes"/><path id="SvgjsPolyline1140" d="M-470.59 -266.50 C -471.93 -264.46,-473.04 -264.00,-476.62 -264.00 C -480.96 -264.00,-481.00 -263.97,-481.00 -260.50 C -481.00 -258.57,-480.66 -256.99,-480.25 -256.99 C -477.24 -256.92,-477.07 -255.17,-479.49 -249.21 C -480.87 -245.81,-482.00 -241.51,-482.00 -239.65 C -482.00 -237.78,-482.67 -234.34,-483.50 -232.00 C -486.26 -224.17,-485.04 -216.24,-480.22 -210.75 C -477.70 -207.88,-476.39 -208.70,-474.14 -214.59 C -471.63 -221.15,-471.49 -222.08,-473.42 -219.44 C -475.48 -216.62,-476.19 -218.09,-475.45 -223.65 C -474.95 -227.44,-473.90 -229.55,-470.77 -233.02 C -468.56 -235.48,-467.20 -236.82,-467.75 -236.00 C -469.00 -234.14,-472.26 -222.93,-471.72 -222.39 C -471.50 -222.17,-470.75 -223.90,-470.05 -226.24 C -468.79 -230.46,-461.54 -243.55,-459.90 -244.56 C -459.26 -244.95,-443.68 -247.99,-442.25 -248.00 C -442.11 -248.00,-442.00 -248.81,-442.00 -249.80 C -442.00 -254.43,-457.50 -264.00,-465.01 -264.00 C -468.71 -264.00,-468.98 -264.17,-468.03 -265.93 C -465.93 -269.86,-468.08 -270.34,-470.59 -266.50 M-458.78 -252.39 C -457.28 -251.95,-457.46 -251.28,-460.27 -247.03 C -463.46 -242.22,-464.94 -242.05,-464.99 -246.50 C -465.00 -247.60,-465.68 -249.79,-466.50 -251.36 C -468.05 -254.33,-466.24 -254.58,-458.78 -252.39 M-465.00 -239.56 C -465.00 -239.32,-465.52 -238.80,-466.15 -238.40 C -466.87 -237.96,-467.04 -238.13,-466.60 -238.85 C -465.88 -240.00,-465.00 -240.39,-465.00 -239.56 " opacity="1" transform="matrix(1,0,0,1,0,0)" fill="#b8a79c" fill-opacity="1" potraced="yes"/><path id="SvgjsPolyline1141" d="M-235.00 -281.11 C -235.00 -279.38,-237.18 -278.47,-239.74 -279.14 C -242.42 -279.84,-253.23 -276.65,-254.75 -274.71 C -255.44 -273.83,-256.00 -271.03,-256.00 -268.48 C -256.00 -263.85,-256.00 -263.85,-243.25 -262.53 C -236.24 -261.80,-230.15 -260.71,-229.71 -260.10 C -229.28 -259.50,-229.04 -249.10,-229.17 -237.00 C -229.41 -215.00,-229.41 -215.00,-226.57 -210.75 C -215.08 -193.54,-203.28 -226.58,-211.49 -253.00 C -212.85 -257.40,-213.98 -263.02,-213.99 -265.50 C -214.02 -272.16,-216.71 -275.78,-224.33 -279.42 C -231.29 -282.74,-235.00 -283.33,-235.00 -281.11 " opacity="1" transform="matrix(1,0,0,1,0,0)" fill="#b8a79c" fill-opacity="1" potraced="yes"/><path id="SvgjsPolyline1142" d="M-344.47 -336.70 C -344.49 -335.98,-343.38 -333.74,-342.00 -331.71 C -340.63 -329.69,-339.50 -328.48,-339.50 -329.02 C -339.51 -330.55,-344.43 -338.16,-344.47 -336.70 M-337.57 -325.25 C -337.62 -324.56,-338.18 -317.62,-338.83 -309.82 C -340.02 -295.64,-340.02 -295.64,-337.45 -292.77 C -332.32 -287.03,-322.52 -287.34,-322.51 -293.25 C -322.50 -294.58,-321.89 -295.50,-321.00 -295.50 C -317.30 -295.50,-325.45 -315.45,-331.46 -321.12 C -333.13 -322.70,-334.50 -324.56,-334.50 -325.25 C -334.50 -326.88,-337.48 -326.88,-337.57 -325.25 " opacity="1" transform="matrix(1,0,0,1,0,0)" fill="#b8a79c" fill-opacity="1" potraced="yes"/><path id="SvgjsPolyline1143" d="M-298.50 -283.67 C -298.50 -282.75,-299.17 -282.00,-300.00 -282.00 C -300.83 -282.00,-301.50 -281.11,-301.50 -280.03 C -301.50 -278.84,-302.70 -277.43,-304.50 -276.50 C -306.15 -275.65,-307.50 -274.33,-307.50 -273.58 C -307.50 -269.97,-316.81 -266.00,-325.27 -266.00 C -335.15 -266.00,-336.47 -266.47,-344.48 -272.91 C -351.56 -278.59,-351.98 -278.65,-350.76 -273.86 C -350.11 -271.30,-349.17 -270.28,-346.81 -269.57 C -345.12 -269.07,-342.97 -267.38,-342.06 -265.82 C -341.14 -264.27,-339.74 -263.00,-338.94 -263.00 C -338.15 -263.00,-337.50 -262.55,-337.50 -262.00 C -337.50 -259.52,-315.86 -260.85,-310.09 -263.68 C -304.76 -266.29,-295.45 -282.28,-297.85 -284.69 C -298.21 -285.04,-298.50 -284.58,-298.50 -283.67 " opacity="1" transform="matrix(1,0,0,1,0,0)" fill="#ac2913" fill-opacity="1" potraced="yes"/><path id="SvgjsPolyline1144" d="M-361.64 -391.07 C -372.17 -387.72,-374.89 -385.86,-392.85 -369.71 C -397.78 -365.28,-376.76 -365.81,-355.34 -370.66 C -342.44 -373.58,-341.71 -373.63,-318.59 -373.32 C -295.00 -373.00,-295.00 -373.00,-295.00 -376.58 C -295.00 -383.46,-307.59 -389.50,-321.95 -389.50 C -326.25 -389.50,-334.15 -390.40,-339.50 -391.50 C -351.38 -393.94,-352.67 -393.92,-361.64 -391.07 " opacity="1" transform="matrix(1,0,0,1,0,0)" fill="#fffcdd" fill-opacity="0.2" potraced="yes"/><path id="SvgjsPolyline1145" d="M-341.53 -431.17 C -349.58 -425.93,-348.33 -423.80,-334.39 -419.02 C -326.46 -416.30,-322.18 -414.28,-320.89 -412.64 C -319.85 -411.31,-319.00 -410.72,-319.00 -411.32 C -319.00 -411.93,-320.05 -413.45,-321.34 -414.71 C -327.49 -420.72,-328.18 -423.07,-323.67 -422.64 C -319.03 -422.20,-318.83 -421.51,-325.91 -430.19 C -330.17 -435.42,-334.57 -435.70,-341.53 -431.17 " opacity="1" transform="matrix(1,0,0,1,0,0)" fill="#fffcdd" fill-opacity="0.2" potraced="yes"/><path id="SvgjsPolyline1146" d="M-341.47 -470.37 C -359.84 -468.15,-359.83 -466.01,-341.46 -465.95 C -327.00 -465.90,-327.00 -465.90,-337.50 -460.43 C -349.08 -454.39,-348.03 -454.32,-333.00 -460.13 C -317.72 -466.03,-316.20 -467.30,-321.32 -469.91 C -325.95 -472.27,-325.81 -472.26,-341.47 -470.37 " opacity="1" transform="matrix(1,0,0,1,0,0)" fill="#fffcdd" fill-opacity="0.2" potraced="yes"/><path id="SvgjsPolyline1147" d="M-337.36 -361.00 C -337.69 -360.15,-339.18 -359.50,-340.80 -359.50 C -343.03 -359.50,-344.35 -358.54,-346.79 -355.14 C -348.52 -352.74,-351.29 -350.21,-352.96 -349.52 C -358.13 -347.38,-354.63 -344.80,-343.45 -342.50 C -332.63 -340.28,-332.00 -339.55,-332.00 -329.04 C -332.00 -320.02,-332.00 -320.02,-325.54 -326.51 C -318.47 -333.62,-314.08 -349.29,-318.47 -351.74 C -319.34 -352.23,-319.81 -353.00,-319.53 -353.45 C -318.66 -354.87,-325.71 -359.50,-328.74 -359.50 C -330.32 -359.50,-332.49 -360.16,-333.56 -360.97 C -336.04 -362.84,-336.65 -362.85,-337.36 -361.00 " opacity="1" transform="matrix(1,0,0,1,0,0)" fill="#fffcdd" fill-opacity="0.2" potraced="yes"/><path id="SvgjsPolyline1148" d="M-328.66 -312.00 C -328.66 -307.88,-328.49 -306.19,-328.27 -308.25 C -328.06 -310.31,-328.06 -313.69,-328.27 -315.75 C -328.49 -317.81,-328.66 -316.13,-328.66 -312.00 M-332.25 -313.00 C -334.16 -305.29,-334.04 -291.43,-332.10 -294.38 C -330.41 -296.93,-330.13 -297.04,-329.64 -295.38 C -329.33 -294.34,-329.35 -295.75,-329.68 -298.50 C -330.01 -301.25,-330.58 -306.20,-330.96 -309.50 C -331.46 -313.95,-331.80 -314.85,-332.25 -313.00 " opacity="1" transform="matrix(1,0,0,1,0,0)" fill="#fffcdd" fill-opacity="0.2" potraced="yes"/><path id="SvgjsPolyline1149" d="M-336.66 -279.25 C -336.40 -278.29,-335.91 -276.28,-335.58 -274.79 C -335.10 -272.61,-334.14 -271.86,-330.74 -270.99 C -324.20 -269.31,-324.00 -269.20,-324.00 -267.03 C -324.00 -264.51,-323.31 -264.50,-317.86 -266.98 C -313.50 -268.96,-313.50 -268.96,-318.59 -268.98 C -323.68 -269.00,-323.68 -269.00,-322.90 -273.75 C -322.47 -276.36,-322.09 -279.06,-322.06 -279.75 C -322.02 -280.64,-324.15 -281.00,-329.57 -281.00 C -336.29 -281.00,-337.08 -280.80,-336.66 -279.25 M-326.80 -262.80 C -328.22 -261.38,-328.42 -253.38,-327.05 -252.53 C -326.53 -252.21,-325.83 -253.64,-325.49 -255.72 C -325.16 -257.80,-324.68 -260.51,-324.42 -261.75 C -323.92 -264.22,-324.93 -264.67,-326.80 -262.80 " opacity="1" transform="matrix(1,0,0,1,0,0)" fill="#fffcdd" fill-opacity="0.2" potraced="yes"/><path id="SvgjsPolyline1150" d="M-159.18 -552.04 C -176.36 -551.33,-189.79 -542.18,-191.06 -530.31 C -192.99 -512.22,-189.55 -481.46,-183.79 -465.50 C -177.50 -448.04,-175.50 -439.50,-175.50 -430.07 C -175.50 -423.73,-174.80 -421.56,-164.91 -397.48 C -150.27 -361.84,-150.41 -357.05,-166.35 -348.07 C -199.42 -329.46,-200.12 -310.39,-169.79 -253.13 C -142.59 -201.77,-142.44 -200.17,-163.05 -183.80 C -164.68 -182.50,-169.53 -181.72,-183.42 -180.51 C -201.64 -178.92,-201.64 -178.92,-211.07 -174.23 C -223.51 -168.05,-223.56 -167.37,-213.00 -147.87 C -199.63 -123.20,-200.57 -121.84,-237.01 -113.02 C -268.41 -105.43,-282.76 -99.78,-284.56 -94.32 C -285.19 -92.42,-285.54 -90.73,-285.35 -90.55 C -282.29 -87.82,-273.44 -84.99,-264.99 -84.05 C -251.58 -82.55,-251.91 -82.00,-266.21 -82.00 C -276.99 -82.00,-278.80 -81.74,-283.62 -79.48 C -289.00 -76.95,-289.00 -76.95,-284.50 -77.44 C -282.02 -77.70,-274.83 -78.15,-268.50 -78.43 C -254.65 -79.05,-255.68 -78.77,-290.68 -72.39 C -305.36 -69.72,-317.24 -67.41,-317.09 -67.26 C -316.93 -67.10,-301.33 -66.52,-282.40 -65.96 C -229.16 -64.40,-218.85 -67.75,-200.00 -92.72 C -198.77 -94.35,-184.77 -92.71,-180.34 -90.42 C -172.51 -86.37,-167.78 -88.48,-167.05 -96.33 C -165.93 -108.26,-161.60 -112.35,-137.01 -124.72 C -118.20 -134.17,-108.89 -141.87,-106.01 -150.33 C -102.79 -159.80,-106.10 -179.92,-112.52 -190.00 C -115.15 -194.12,-118.76 -200.87,-120.53 -205.00 C -122.30 -209.12,-128.59 -221.27,-134.50 -232.00 C -152.60 -264.83,-151.29 -268.39,-118.22 -276.16 C -105.52 -279.14,-97.87 -282.18,-88.75 -287.85 C -82.10 -292.00,-82.64 -294.03,-94.52 -309.38 C -104.87 -322.74,-106.44 -326.78,-103.89 -333.43 C -103.09 -335.51,-84.81 -349.54,-76.50 -354.45 C -59.71 -364.37,-41.46 -388.73,-30.40 -416.00 C -19.86 -442.01,-25.81 -459.06,-63.58 -511.00 C -84.10 -539.23,-84.82 -539.83,-108.45 -548.52 C -121.95 -553.49,-122.81 -553.55,-159.18 -552.04 " opacity="1" transform="matrix(1,0,0,1,0,0)" filter="url(#water)" fill="#fffae1" fill-opacity="0.4" potraced="yes"/><path id="SvgjsPolyline1151" d="M-487.50 -534.01 C -504.99 -532.10,-562.37 -509.99,-585.79 -496.13 C -626.16 -472.23,-659.97 -427.69,-667.11 -389.00 C -673.91 -352.12,-668.59 -342.97,-626.33 -318.90 C -589.88 -298.14,-585.70 -294.73,-585.57 -285.61 C -585.44 -276.69,-588.47 -273.45,-607.77 -261.79 C -631.89 -247.24,-635.50 -242.98,-635.50 -229.16 C -635.50 -219.13,-635.50 -219.13,-631.00 -215.45 C -625.00 -210.53,-624.40 -201.92,-629.54 -194.44 C -639.37 -180.15,-637.85 -170.31,-624.50 -161.75 C -620.42 -159.13,-588.63 -147.42,-580.27 -145.46 C -568.05 -142.59,-567.88 -140.01,-579.06 -127.49 C -593.25 -111.59,-594.64 -112.03,-529.95 -112.01 C -480.91 -112.00,-480.91 -112.00,-469.44 -108.15 C -448.11 -100.98,-446.23 -98.40,-452.00 -84.19 C -454.95 -76.93,-455.14 -74.32,-452.75 -73.63 C -451.79 -73.35,-447.18 -71.99,-442.50 -70.60 C -424.61 -65.31,-427.27 -64.39,-400.50 -85.06 C -387.58 -95.03,-376.81 -103.38,-376.58 -103.60 C -375.09 -105.04,-379.97 -109.69,-387.01 -113.53 C -401.15 -121.24,-449.85 -124.07,-471.75 -118.45 C -472.71 -118.20,-474.51 -117.72,-475.75 -117.38 C -477.89 -116.79,-477.86 -116.91,-475.25 -119.69 C -468.11 -127.28,-480.00 -136.21,-509.00 -145.03 C -532.76 -152.26,-548.50 -158.58,-548.50 -160.89 C -548.50 -163.16,-537.62 -175.27,-530.03 -181.44 C -521.16 -188.65,-518.83 -193.09,-523.25 -194.37 C -541.64 -199.68,-549.25 -202.27,-560.97 -207.20 C -572.51 -212.05,-582.24 -216.80,-584.41 -218.64 C -586.81 -220.67,-581.61 -227.31,-574.59 -231.16 C -562.29 -237.91,-540.83 -254.77,-533.90 -263.14 C -524.66 -274.29,-523.08 -288.10,-529.32 -303.30 C -539.36 -327.76,-533.47 -350.56,-509.20 -381.27 C -497.41 -396.18,-490.50 -405.96,-490.50 -407.74 C -490.50 -411.93,-503.21 -426.11,-518.42 -438.91 C -527.54 -446.58,-538.07 -456.26,-541.81 -460.43 C -548.63 -468.00,-548.63 -468.00,-541.02 -468.00 C -517.16 -468.00,-424.51 -483.49,-406.52 -490.49 C -392.64 -495.89,-381.50 -504.90,-381.50 -510.71 C -381.50 -524.90,-444.34 -538.71,-487.50 -534.01 " opacity="1" transform="matrix(1,0,0,1,0,0)" filter="url(#water)" fill="#fffae1" fill-opacity="0.4" potraced="yes"/><path id="SvgjsPolyline1152" d="M-653.75 -384.17 C -682.25 -380.54,-681.46 -381.20,-670.05 -370.50 C -662.05 -363.00,-662.05 -363.00,-661.01 -349.00 C -658.80 -319.27,-653.83 -312.34,-625.27 -299.14 C -612.07 -293.03,-593.14 -281.22,-589.24 -276.65 C -582.60 -268.88,-581.85 -267.12,-583.01 -261.89 C -584.61 -254.70,-596.36 -233.99,-613.09 -208.89 C -639.64 -169.06,-642.13 -158.50,-627.82 -146.34 C -618.26 -138.22,-597.17 -132.91,-570.00 -131.79 C -554.50 -131.15,-554.50 -131.15,-559.10 -129.08 C -565.28 -126.29,-574.69 -118.03,-577.12 -113.26 C -579.80 -108.01,-577.35 -103.50,-570.77 -101.58 C -544.30 -93.86,-540.74 -92.40,-542.84 -90.16 C -544.26 -88.63,-545.04 -85.96,-545.51 -81.00 C -546.69 -68.50,-528.37 -61.50,-494.43 -61.50 C -482.74 -61.50,-461.40 -57.99,-460.62 -55.94 C -460.37 -55.31,-455.78 -48.83,-450.42 -41.55 C -440.78 -28.46,-440.06 -26.58,-444.63 -26.52 C -445.53 -26.50,-448.00 -19.57,-448.00 -17.06 C -448.00 -14.95,-436.24 -16.77,-433.12 -19.36 C -429.73 -22.17,-429.73 -22.17,-432.99 -22.17 C -435.25 -22.17,-436.81 -22.90,-438.10 -24.58 C -440.61 -27.86,-440.54 -28.06,-436.25 -29.81 C -428.16 -33.09,-423.29 -39.98,-426.80 -43.18 C -428.49 -44.73,-431.38 -47.38,-433.22 -49.06 C -436.04 -51.64,-438.39 -52.49,-448.28 -54.50 C -460.01 -56.88,-460.01 -56.88,-457.53 -59.47 C -455.07 -62.04,-455.06 -62.06,-457.10 -63.33 C -462.14 -66.48,-493.62 -77.92,-515.74 -84.64 C -529.07 -88.69,-539.95 -92.23,-539.92 -92.50 C -539.89 -92.78,-536.28 -96.14,-531.89 -99.98 C -519.15 -111.14,-516.55 -117.64,-521.46 -126.02 C -524.88 -131.86,-527.76 -132.80,-540.77 -132.35 C -551.58 -131.98,-551.58 -131.98,-546.54 -135.04 C -534.81 -142.14,-535.16 -141.66,-540.12 -143.84 C -542.53 -144.90,-557.73 -150.10,-573.90 -155.40 C -608.92 -166.87,-608.91 -166.41,-574.71 -176.15 C -554.01 -182.05,-554.01 -182.05,-559.06 -188.03 C -564.10 -194.00,-564.10 -194.00,-563.51 -227.00 C -562.68 -273.86,-563.31 -271.31,-550.02 -281.48 C -527.78 -298.50,-531.81 -307.32,-575.00 -336.20 C -602.10 -354.32,-606.00 -359.11,-606.00 -374.28 C -606.00 -389.24,-609.01 -389.86,-653.75 -384.17 " opacity="1" transform="matrix(1,0,0,1,0,0)" filter="url(#water2)" fill="#fffefa" fill-opacity="1" potraced="yes"/><path id="SvgjsPolyline1153" d="M-144.50 -412.08 C -173.89 -404.59,-177.50 -401.78,-177.50 -386.37 C -177.50 -372.83,-174.79 -364.00,-164.06 -342.60 C -147.38 -309.30,-152.41 -303.48,-200.50 -300.48 C -233.96 -298.40,-259.84 -291.08,-270.75 -280.63 C -279.72 -272.03,-277.02 -266.46,-260.46 -259.43 C -250.00 -255.00,-250.00 -255.00,-250.56 -245.00 C -251.05 -236.14,-251.63 -233.75,-255.62 -224.00 C -261.57 -209.47,-258.30 -191.02,-248.69 -184.85 C -243.44 -181.48,-243.44 -181.48,-245.97 -178.75 C -254.13 -169.94,-243.58 -159.74,-212.50 -146.38 C -191.19 -137.22,-190.29 -130.72,-209.39 -123.88 C -214.42 -122.07,-218.53 -119.77,-221.50 -117.07 C -226.00 -113.00,-226.00 -113.00,-220.27 -108.23 C -217.11 -105.60,-209.91 -101.20,-204.27 -98.43 C -192.32 -92.59,-186.53 -87.59,-186.45 -83.05 C -186.39 -80.00,-186.39 -80.00,-184.70 -82.50 C -180.49 -88.70,-175.01 -93.59,-170.48 -95.20 C -165.73 -96.89,-165.73 -96.89,-165.58 -106.30 C -165.35 -119.89,-171.61 -128.21,-188.00 -136.03 C -196.07 -139.88,-197.91 -141.31,-205.82 -149.91 C -211.24 -155.81,-220.00 -163.59,-228.57 -170.12 C -244.47 -182.25,-244.25 -181.90,-237.25 -183.99 C -227.14 -187.01,-218.63 -187.46,-171.08 -187.48 C -120.49 -187.50,-120.88 -187.47,-95.48 -192.69 C -83.81 -195.08,-79.88 -198.29,-76.68 -208.00 C -70.62 -226.43,-87.50 -260.49,-109.46 -274.16 C -117.64 -279.26,-138.67 -305.00,-142.70 -314.85 C -148.99 -330.26,-145.38 -332.75,-89.67 -351.53 C -40.35 -368.14,-31.56 -373.32,-30.81 -386.19 C -30.30 -395.06,-33.15 -398.07,-51.00 -407.46 C -74.90 -420.04,-107.00 -421.62,-144.50 -412.08 M-188.32 -77.44 C -189.04 -76.26,-189.38 -75.04,-189.05 -74.72 C -188.09 -73.75,-186.29 -76.16,-186.66 -77.93 C -186.94 -79.30,-187.21 -79.22,-188.32 -77.44 M-194.12 -69.25 C -205.94 -56.81,-206.09 -55.38,-196.10 -49.98 C -190.43 -46.92,-187.66 -44.93,-188.75 -44.71 C -195.33 -43.37,-184.47 -39.11,-176.89 -40.06 C -164.15 -41.65,-164.77 -48.99,-178.55 -59.84 C -187.08 -66.55,-188.50 -68.09,-188.50 -70.59 C -188.50 -74.48,-189.35 -74.27,-194.12 -69.25 " opacity="1" transform="matrix(1,0,0,1,0,0)" filter="url(#water2)" fill="#fffefa" fill-opacity="1" potraced="yes"/><path id="SvgjsPolyline1154" d="M-510.52 -477.98 C -514.27 -473.99,-513.46 -466.96,-508.42 -459.77 C -506.26 -456.69,-504.50 -453.42,-504.50 -452.50 C -504.50 -449.53,-503.33 -449.55,-500.80 -452.55 C -497.49 -456.49,-486.86 -459.63,-465.00 -463.14 C -445.91 -466.21,-434.50 -472.54,-434.50 -480.05 C -434.50 -482.29,-508.35 -480.29,-510.52 -477.98 M-507.71 -445.59 C -510.09 -443.93,-511.44 -442.19,-511.46 -440.75 C -511.51 -437.62,-510.47 -437.92,-506.24 -442.25 C -501.60 -447.01,-502.55 -449.18,-507.71 -445.59 M-526.16 -428.72 C -542.91 -418.41,-544.82 -416.07,-537.31 -415.07 C -534.54 -414.70,-529.43 -413.26,-525.95 -411.87 C -520.75 -409.79,-518.32 -409.40,-512.26 -409.67 C -504.89 -410.00,-504.89 -410.00,-502.45 -389.50 C -500.03 -369.24,-499.99 -369.09,-499.38 -376.50 C -497.38 -400.67,-498.71 -408.21,-506.93 -419.40 C -510.60 -424.40,-510.81 -425.08,-510.59 -431.11 C -510.31 -438.99,-509.21 -439.16,-526.16 -428.72 M-499.22 -362.75 C -498.93 -361.24,-498.11 -354.85,-497.40 -348.56 C -496.11 -337.13,-496.11 -337.13,-494.94 -344.11 C -494.29 -347.94,-492.86 -352.84,-491.75 -355.00 C -489.75 -358.91,-489.75 -358.91,-494.06 -362.20 C -499.31 -366.21,-499.90 -366.27,-499.22 -362.75 " opacity="1" transform="matrix(1,0,0,1,0,0)" filter="url(#water2)" fill="#fffefa" fill-opacity="1" potraced="yes"/><path id="SvgjsPolyline1155" d="M-445.68 -43.75 C -446.11 -40.04,-443.30 -37.93,-436.75 -37.03 C -430.10 -36.12,-430.15 -36.36,-437.93 -41.91 C -445.50 -47.31,-445.28 -47.26,-445.68 -43.75 M-428.00 -34.50 C -427.66 -33.95,-425.95 -33.53,-424.19 -33.57 C -421.50 -33.63,-421.31 -33.78,-423.00 -34.50 C -425.79 -35.70,-428.74 -35.70,-428.00 -34.50 " opacity="1" transform="matrix(1,0,0,1,0,0)" filter="url(#water2)" fill="#fffefa" fill-opacity="1" potraced="yes"/><path id="SvgjsPolyline1156" d="M-657.60 -491.88 C -676.69 -468.87,-673.14 -381.73,-651.26 -336.25 C -645.12 -323.50,-645.12 -323.50,-638.81 -323.50 C -634.06 -323.50,-632.50 -323.15,-632.50 -322.10 C -632.50 -321.11,-627.21 -322.80,-614.51 -327.85 C -596.52 -335.00,-596.52 -335.00,-596.51 -343.50 C -596.50 -348.17,-595.60 -358.98,-594.50 -367.50 C -591.33 -392.08,-590.19 -388.38,-608.24 -412.16 C -623.97 -432.90,-625.70 -436.64,-628.09 -455.00 C -629.92 -469.00,-629.92 -469.00,-635.96 -476.43 C -647.10 -490.12,-654.61 -495.48,-657.60 -491.88 " opacity="1" transform="matrix(1,0,0,1,0,0)" filter="url(#water2)" fill="#fffefa" fill-opacity="1" potraced="yes"/><path id="SvgjsPolyline1157" d="M-246.50 -582.51 C -252.82 -580.99,-259.13 -579.21,-260.50 -578.54 C -263.66 -577.02,-269.79 -566.72,-269.10 -564.08 C -268.11 -560.27,-277.53 -552.16,-286.06 -549.48 C -296.64 -546.16,-296.02 -546.12,-260.56 -547.56 C -224.91 -549.01,-226.97 -549.25,-228.87 -543.88 C -233.47 -530.83,-223.34 -525.07,-170.33 -510.59 C -150.32 -505.12,-131.06 -500.32,-127.52 -499.92 C -121.70 -499.26,-120.62 -498.76,-116.14 -494.60 C -111.19 -490.00,-111.19 -490.00,-115.84 -499.05 C -121.84 -510.70,-124.35 -512.90,-139.75 -519.95 C -155.23 -527.04,-155.23 -527.02,-141.32 -534.21 C -123.44 -543.47,-120.64 -546.62,-120.29 -557.85 C -119.90 -570.12,-119.22 -569.68,-142.50 -571.96 C -157.46 -573.42,-165.67 -574.89,-185.41 -579.64 C -215.41 -586.84,-226.29 -587.35,-246.50 -582.51 M-109.51 -487.00 C -108.69 -485.90,-101.20 -477.54,-92.87 -468.43 C -74.62 -448.47,-73.55 -446.26,-75.07 -431.63 C -76.00 -422.73,-76.00 -422.73,-70.75 -416.86 C -64.87 -410.29,-64.63 -410.32,-67.59 -417.17 C -70.31 -423.48,-72.86 -435.45,-73.10 -443.08 C -73.41 -452.88,-76.26 -457.18,-92.68 -472.60 C -108.05 -487.03,-112.14 -490.53,-109.51 -487.00 M-65.39 -404.88 C -64.98 -383.45,-64.20 -380.03,-60.83 -384.82 C -58.59 -388.01,-57.61 -390.60,-57.49 -393.66 C -57.19 -401.02,-57.46 -401.87,-61.54 -406.38 C -65.50 -410.76,-65.50 -410.76,-65.39 -404.88 " opacity="1" transform="matrix(1,0,0,1,0,0)" filter="url(#water2)" fill="#fffefa" fill-opacity="1" potraced="yes"/><path id="SvgjsPolyline1158" d="M-346.20 -363.20 C -349.60 -361.44,-355.00 -357.52,-358.20 -354.50 C -361.39 -351.47,-366.12 -347.88,-368.71 -346.52 C -374.20 -343.63,-374.13 -343.94,-373.70 -326.94 C -373.39 -314.89,-373.39 -314.89,-365.70 -315.99 C -357.59 -317.15,-347.44 -314.47,-342.29 -309.81 C -336.30 -304.39,-331.58 -308.96,-331.53 -320.19 C -331.49 -330.59,-330.51 -331.50,-319.39 -331.50 C -310.67 -331.50,-308.02 -329.56,-301.90 -318.66 C -298.27 -312.20,-297.38 -312.21,-288.13 -318.75 C -279.36 -324.95,-277.72 -327.78,-277.41 -337.30 C -276.88 -353.74,-294.22 -363.54,-323.75 -363.51 C -329.98 -363.50,-331.50 -363.79,-331.50 -365.00 C -331.50 -367.71,-339.32 -366.76,-346.20 -363.20 " opacity="1" transform="matrix(1,0,0,1,0,0)" fill="#b8a79c" fill-opacity="1" potraced="yes"/><path id="SvgjsPolyline1159" d="M-340.50 -372.00 C -344.29 -369.75,-346.75 -369.03,-350.67 -369.02 C -353.51 -369.01,-356.55 -368.73,-357.42 -368.39 C -359.74 -367.50,-359.35 -365.00,-356.88 -365.00 C -353.79 -365.00,-356.24 -362.33,-360.09 -361.48 C -364.08 -360.60,-368.76 -356.50,-370.49 -352.38 C -371.26 -350.52,-372.58 -349.00,-373.41 -349.00 C -376.22 -349.00,-377.00 -345.20,-377.00 -331.65 C -377.00 -321.75,-377.33 -318.05,-378.25 -317.75 C -379.14 -317.45,-379.45 -314.84,-379.33 -308.67 C -379.02 -293.27,-374.98 -293.75,-368.16 -310.00 C -364.17 -319.50,-364.17 -319.50,-355.11 -319.79 C -346.13 -320.07,-340.00 -318.52,-340.00 -315.97 C -340.00 -313.37,-335.85 -315.61,-330.47 -321.11 C -318.09 -333.78,-312.49 -336.29,-298.35 -335.47 C -276.09 -334.19,-268.27 -346.68,-285.25 -356.38 C -289.87 -359.01,-289.99 -359.20,-289.41 -362.84 C -288.59 -367.98,-289.32 -368.40,-305.29 -371.95 C -324.02 -376.12,-333.53 -376.13,-340.50 -372.00 " opacity="1" transform="matrix(1,0,0,1,0,0)" fill="#706a65" fill-opacity="1" potraced="yes"/><path id="SvgjsPolyline1160" d="M-338.80 -380.14 C -351.02 -376.11,-356.75 -371.97,-355.70 -367.94 C -355.36 -366.67,-355.69 -366.00,-356.65 -366.00 C -357.46 -366.00,-357.84 -366.44,-357.51 -366.99 C -357.16 -367.55,-357.56 -367.72,-358.44 -367.38 C -359.29 -367.06,-359.78 -366.45,-359.53 -366.04 C -358.87 -364.98,-363.58 -363.00,-366.75 -363.00 C -369.92 -363.00,-368.68 -364.62,-365.00 -365.28 C -363.63 -365.53,-365.77 -365.79,-369.77 -365.86 C -377.05 -366.00,-377.05 -366.00,-377.65 -363.02 C -377.97 -361.38,-378.82 -359.57,-379.52 -358.99 C -380.22 -358.40,-380.61 -357.16,-380.38 -356.21 C -380.15 -355.27,-382.65 -344.38,-385.94 -332.02 C -391.89 -309.63,-391.91 -309.53,-389.96 -307.45 C -388.49 -305.90,-388.00 -303.95,-388.00 -299.75 C -388.00 -287.74,-378.38 -295.42,-375.55 -309.69 C -374.23 -316.32,-372.89 -319.72,-369.48 -325.04 C -367.07 -328.79,-364.43 -334.43,-363.61 -337.55 C -361.57 -345.37,-359.14 -347.59,-349.27 -350.60 C -344.70 -351.99,-337.60 -354.66,-333.51 -356.53 C -324.79 -360.50,-311.97 -362.99,-300.24 -363.00 C -291.98 -363.00,-291.98 -363.00,-282.99 -356.49 C -274.00 -349.99,-274.00 -349.99,-274.00 -355.06 C -274.00 -361.75,-278.24 -368.27,-283.74 -370.06 C -285.81 -370.73,-288.39 -371.90,-289.47 -372.64 C -290.56 -373.39,-292.69 -374.00,-294.22 -374.00 C -295.99 -374.00,-298.40 -375.27,-300.87 -377.50 C -309.43 -385.23,-320.93 -386.03,-338.80 -380.14 M-360.15 -378.42 C -360.99 -377.58,-365.68 -375.80,-370.59 -374.45 C -375.49 -373.10,-379.95 -371.81,-380.50 -371.58 C -381.05 -371.35,-375.76 -371.12,-368.75 -371.08 C -356.00 -371.00,-356.00 -371.00,-356.00 -374.38 C -356.00 -378.62,-358.00 -380.57,-360.15 -378.42 " opacity="1" transform="matrix(1,0,0,1,0,0)" fill="#363230" fill-opacity="1" potraced="yes"/><path id="SvgjsPolyline1161" d="M-367.50 -374.00 C -378.18 -366.46,-379.96 -360.00,-371.35 -360.00 C -361.34 -360.00,-355.59 -362.63,-346.00 -371.59 C -337.00 -380.00,-337.00 -380.00,-348.00 -380.00 C -359.00 -380.00,-359.00 -380.00,-367.50 -374.00 " opacity="1" transform="matrix(1,0,0,1,0,0)" fill="#363230" fill-opacity="1" potraced="yes"/></g></g><filter xmlns="http://www.w3.org/2000/svg" id="pencil2"><feTurbulence id="SvgjsFeTurbulence1134" baseFrequency="1.2" filtername="feTurbulence" in="SourceGraphic" numOctaves="1" result="f1" seed="0" stitchTiles="noStitch" type="fractalNoise"/><feColorMatrix id="SvgjsFeColorMatrix1135" filtername="feColorMatrix" in="SourceGraphic" result="f2" type="matrix" values="0 0 0 0 0, 0 0 0 0 0, 0 0 0 0 0, 0 0 0 -1.5 2.8"/><feComposite id="SvgjsFeComposite1136" filtername="feComposite" in="SourceGraphic" in2="f2" operator="in" result="f3"/><feTurbulence id="SvgjsFeTurbulence1137" baseFrequency="1.8" filtername="feTurbulence" in="SourceGraphic" numOctaves="3" result="noise" seed="0" stitchTiles="noStitch" type="fractalNoise"/><feDisplacementMap id="SvgjsFeDisplacementMap1138" filtername="feDisplacementMap" in="SourceGraphic" result="f4" scale="10"><animate id="SvgjsAnimate1139" attributeName="scale" dur="1" values="10;100;10" attributeType="XML" repeatCount="indefinite"/></feDisplacementMap></filter><filter xmlns="http://www.w3.org/2000/svg" id="moss"><feTurbulence id="SvgjsFeTurbulence1462" baseFrequency=".02" filtername="feTurbulence" numOctaves="4" type="fractalNoise"/><feMorphology id="SvgjsFeMorphology1463" filtername="feMorphology" operator="dilate" radius="1"><animate id="SvgjsAnimate1464" attributeName="radius" dur="1" values="1;8;1" attributeType="XML" repeatCount="indefinite"/></feMorphology><feConvolveMatrix id="SvgjsFeConvolveMatrix1465" filtername="feConvolveMatrix" kernelMatrix="1 1 1 1 2 1 1 -9 1" preserveAlpha="true"/><feColorMatrix id="SvgjsFeColorMatrix1466" filtername="feColorMatrix" values=".6 .8 .6 0 0 1 1 1 0 0 .1 .2 .3 0 0 0 0 0 1 1"/><feComposite id="SvgjsFeComposite1467" filtername="feComposite" in2="SourceGraphic" operator="in"/></filter><filter xmlns="http://www.w3.org/2000/svg" id="water"><feTurbulence id="SvgjsFeTurbulence1695" baseFrequency="0.01 0.05" filtername="feTurbulence" numOctaves="1" result="turbulence" stitchTiles="noStitch"/><feDisplacementMap id="SvgjsFeDisplacementMap1696" filtername="feDisplacementMap" in="SourceGraphic" in2="turbulence" result="displacementMap" scale="200"><animate id="SvgjsAnimate1697" attributeName="scale" dur="3" values="200;100;50;100;200" attributeType="XML" repeatCount="indefinite"/></feDisplacementMap></filter><filter xmlns="http://www.w3.org/2000/svg" id="water2"><feTurbulence id="SvgjsFeTurbulence1725" baseFrequency="0.01 0.05" filtername="feTurbulence" numOctaves="1" result="turbulence" stitchTiles="noStitch"/><feDisplacementMap id="SvgjsFeDisplacementMap1726" filtername="feDisplacementMap" in="SourceGraphic" in2="turbulence" result="displacementMap" scale="200"><animate id="SvgjsAnimate1727" attributeName="scale" dur="2" values="100;40;80;100" attributeType="XML" repeatCount="indefinite"/></feDisplacementMap></filter><filter xmlns="http://www.w3.org/2000/svg" id="squiggly-animated"><feTurbulence id="SvgjsFeTurbulence1778" baseFrequency="0.02" filtername="feTurbulence" numOctaves="3" result="noise" seed="0"><animate id="SvgjsAnimate1779" attributeName="seed" dur="0.25" values="1;2;1" attributeType="XML" repeatCount="indefinite"/></feTurbulence><feDisplacementMap id="SvgjsFeDisplacementMap1780" filtername="feDisplacementMap" in="SourceGraphic" in2="noise" scale="6"><animate id="SvgjsAnimate1781" attributeName="scale" dur="0.25" values="6;9;12;9;6" attributeType="XML" repeatCount="indefinite"/></feDisplacementMap></filter></svg>