<svg xmlns="http://www.w3.org/2000/svg" xmlnsXlink="http://www.w3.org/1999/xlink" xmlnsSvgjs="http://svgjs.com/svgjs" id="main-canvas" version="1.1" viewBox="34.47 39.78 654.57 441.71"><defs id="SvgjsDefs1002"/><filter id="moss"><feTurbulence id="SvgjsFeTurbulence1100" baseFrequency=".02 .02" filterName="feTurbulence" in="" numOctaves="4" result="noise" type="fractalNoise"/><feMorphology id="SvgjsFeMorphology1101" filterName="feMorphology" in="noise" operator="dilate" radius="1" result="dilated"/><feConvolveMatrix id="SvgjsFeConvolveMatrix1102" filterName="feConvolveMatrix" in="dilated" kernelMatrix="1 1 1 1 2 1 1 -9 1" preserveAlpha="true" result="m1"/><feColorMatrix id="SvgjsFeColorMatrix1103" filterName="feColorMatrix" in="m1" result="m2" values=".4 .8 .6 0 0 1 1 1 0 0 .1 .2 .3 0 0 0 0 0 0 1"/><feComposite id="SvgjsFeComposite1104" filterName="feComposite" in="m2" in2="SourceGraphic" operator="in" result="done"/></filter><g id="sketchGroup" transform="matrix(0.9993346640053227,0,0,0.9993346640053227,751,459.5)"><polyline id="SvgjsPolyline1226" points="-655,-384 -654,-378 -642,-363 -620,-340 -574,-300 -529,-267 -479,-239 -382,-192 -360,-176 -328,-149 -304,-133 -263,-113 -237,-88 -217,-73 -198,-53 -186,-45 -174,-42 -164,-42 -147,-35" fill="none" stroke-linejoin="round" stroke-linecap="round" stroke-opacity="0.5" stroke="#f5f0f0" stroke-width="30" filter="url(#acidrain)"/><polyline id="SvgjsPolyline1229" points="-699,-91 -678,-91 -596,-85 -513,-85 -441,-90 -367,-91 -292,-105 -260,-107 -247,-107 -191,-101 -146,-93 -104,-93 -98,-91 -99,-68 -96,-36 -93,-24 -93,-3 -98,-1 -197,-2 -218,1 -255,1 -279,5 -338,5 -386,-2 -447,-3 -588,-1 -646,-9 -663,-9 -704,-3 -702,-23 -698,-36 -698,-55 -706,-70 -706,-80 -703,-88" fill-opacity="1" fill="#8c9e79"/><polyline id="SvgjsPolyline1234" points="-670,-74 -635,-75 -603,-73 -486,-62 -378,-47 -385,-44 -403,-42 -537,-41 -547,-39 -553,-36 -561,-25 -560,-20 -553,-17 -542,-15 -498,-9 -419,-4 -358,-4 -299,-14" fill-opacity="1" fill="#5b6651" filter="url(#water)"/><polyline id="SvgjsPolyline1239" points="-187,-112 -247,-117 -285,-117 -316,-115 -340,-109 -401,-82 -433,-72 -444,-64 -451,-61 -477,-54 -472,-53 -472,-51 -514,-46 -495,-45 -502,-44 -576,-43" fill-opacity="1" fill="#b49e84" filter="url(#water)" stroke="#b49e84"/><polyline id="SvgjsPolyline1244" points="-576,-83 -582,-80 -624,-68 -666,-62 -675,-54 -691,-28 -696,-25 -710,-23 -710,-21 -694,-15 -674,-13 -610,-15 -587,-11" fill="none" stroke-linejoin="round" stroke-linecap="round" stroke-opacity="1" stroke="#5b6651" stroke-width="12" filter="url(#water)"/><polyline id="SvgjsPolyline1249" points="-385,-78 -399,-80 -545,-79 -588,-76 -597,-73 -605,-63 -601,-56 -574,-45 -538,-36 -485,-26 -487,-26" fill="none" stroke-linejoin="round" stroke-linecap="round" stroke-opacity="1" stroke="#744d67" stroke-width="12" filter="url(#water)"/><polyline id="SvgjsPolyline1254" points="-330,-109 -475,-89 -505,-76 -437,-77 -407,-75 -388,-71 -390,-69 -400,-66 -424,-61 -506,-48 -394,-59 -348,-60 -259,-60 -352,-59 -161,-49" fill="none" stroke-linejoin="round" stroke-linecap="round" stroke-opacity="1" stroke="#744d67" stroke-width="12" filter="url(#water)"/><polyline id="SvgjsPolyline1264" points="-225,-137 -294,-145 -364,-145 -378,-144 -412,-134 -439,-128 -482,-121 -542,-117 -655,-117 -672,-114 -700,-114 -711,-110 -705,-104 -675,-91 -649,-84 -620,-79 -579,-75 -525,-75 -463,-71 -389,-62 -361,-60" fill="none" stroke-linejoin="round" stroke-linecap="round" stroke-opacity="1" stroke="#64455a" stroke-width="12" filter="url(#water)"/><polyline id="SvgjsPolyline1269" points="-177,-46 -209,-28 -125,-29 -109,-26 -85,-25 -98,-22 -127,-19 -195,-18 -148,-8 -112,-7 -127,-5 -198,-5 -154,-1 -148,-1 -146,-3 -144,-8 -143,-29 -146,-44 -156,-74 -156,-87 -149,-115 -144,-96 -139,-88 -135,-86" fill="none" stroke-linejoin="round" stroke-linecap="round" stroke-opacity="1" stroke="#64455a" stroke-width="12" filter="url(#water)"/><polyline id="SvgjsPolyline1274" points="-173,-118 -204,-111 -254,-94 -314,-72 -348,-57 -395,-30 -415,-7 -431,17 -433,18" fill="none" stroke-linejoin="round" stroke-linecap="round" stroke-opacity="1" stroke="#64455a" stroke-width="8" filter="url(#water)"/><polyline id="SvgjsPolyline1279" points="-252,-111 -291,-120 -327,-123 -364,-124 -359,-127 -341,-133 -311,-138 -276,-139 -223,-136 -227,-134 -266,-129 -334,-128 -307,-121 -282,-117 -237,-113 -322,-72 -387,-46" fill="none" stroke-linejoin="round" stroke-linecap="round" stroke-opacity="1" stroke="#57374d" stroke-width="8" filter="url(#water)"/><polyline id="SvgjsPolyline1284" points="-248,-76 -246,-77 -215,-76 -197,-73 -164,-71 -147,-65 -147,-56 -159,-52 -178,-50 -216,-50 -255,-53 -261,-52 -268,-46 -261,-41 -245,-36 -226,-32 -188,-28 -189,-28" fill="none" stroke-linejoin="round" stroke-linecap="round" stroke-opacity="1" stroke="#57374d" stroke-width="8" filter="url(#water)"/><polyline id="SvgjsPolyline1289" points="-440,-38 -604,-35 -678,-27" fill="none" stroke-linejoin="round" stroke-linecap="round" stroke-opacity="1" stroke="#57374d" stroke-width="8" filter="url(#water)"/><polyline id="SvgjsPolyline1294" points="-665,-99 -664,-80 -661,-69 -653,-90 -650,-86 -644,-65 -641,-68 -627,-93 -620,-67 -618,-67 -615,-72 -608,-84 -607,-89 -606,-63 -603,-69 -601,-79" fill="none" stroke-linejoin="round" stroke-linecap="round" stroke-opacity="1" stroke="#57374d" stroke-width="8" filter="url(#empty)"/><polyline id="SvgjsPolyline1299" points="-510,-76 -508,-76 -498,-68 -494,-68 -485,-90 -480,-70 -477,-67 -463,-107 -456,-77 -453,-73 -444,-85 -433,-109 -427,-65 -416,-91 -414,-101 -417,-90" fill="none" stroke-linejoin="round" stroke-linecap="round" stroke-opacity="1" stroke="#57374d" stroke-width="8" filter="url(#heartbeat)"/><polyline id="SvgjsPolyline1342" points="-348,-64 -360,-66 -379,-66 -321,-70 -371,-68 -396,-65 -291,-66 -347,-60 -356,-57 -322,-55 -384,-46 -401,-40 -408,-35 -407,-31 -380,-26 -314,-22 -412,-24 -391,-22 -372,-23 -344,-40 -335,-48" fill="none" stroke-linejoin="round" stroke-linecap="round" stroke-opacity="0.9" stroke="#57374d" stroke-width="4" filter="url(#heartbeat)"/><polyline id="SvgjsPolyline1347" points="-200,-102 -213,-102 -237,-95 -249,-89 -194,-89 -174,-91 -215,-90 -248,-86 -160,-87 -291,-97 -211,-90 -191,-86 -192,-84 -202,-79 -256,-62 -259,-59 -165,-51 -171,-49 -218,-45 -237,-42 -242,-39 -175,-40 -184,-40" fill="none" stroke-linejoin="round" stroke-linecap="round" stroke-opacity="0.9" stroke="#57374d" stroke-width="4" filter="url(#heartbeat)"/><polyline id="SvgjsPolyline1353" points="-517,-85 -499,-78 -465,-70 -422,-69 -391,-63 -365,-62 -363,-64 -358,-65 -363,-53 -377,-48 -438,-48 -476,-60 -493,-63 -511,-64 -533,-69 -549,-69 -549,-76 -545,-80 -531,-84 -517,-84 -513,-82" fill="none" stroke-linejoin="round" stroke-linecap="round" stroke-opacity="0.7" stroke="#57374d" stroke-width="4" filter="url(#squiggly-animated)"/><polyline id="SvgjsPolyline1359" points="-363,-62 -306,-63 -280,-65 -279,-61 -284,-58 -324,-57 -332,-55 -367,-56 -373,-53 -372,-50 -367,-47 -343,-40 -330,-38 -300,-38 -298,-36 -297,-30 -298,-28 -302,-27 -344,-26 -343,-19 -336,-19" fill="none" stroke-linejoin="round" stroke-linecap="round" stroke-opacity="0.7" stroke="#57374d" stroke-width="4" filter="url(#squiggly-animated)"/><polyline id="SvgjsPolyline1371" points="-553,-50 -557,-53 -595,-60 -601,-48 -613,-38 -618,-38 -625,-42 -634,-50 -641,-50 -663,-39 -669,-39 -677,-46" fill="none" stroke-linejoin="round" stroke-linecap="round" stroke-opacity="0.7" stroke="#57374d" stroke-width="4" filter="url(#squiggly-animated)"/><polyline id="SvgjsPolyline1389" points="-328,-15 -310,-14 -286,-10 -306,-7 -331,-7 -348,-15 -347,-17 -320,-22 -278,-23 -366,-36 -312,-26 -292,-20 -309,-18 -320,-15 -299,-6 -290,-6 -272,1 -270,1 -261,-9 -253,-13 -233,-12 -208,-5 -185,-4 -176,-16 -161,-19" fill="none" stroke-linejoin="round" stroke-linecap="round" stroke-opacity="0.7" stroke="#57374d" stroke-width="4" filter="url(#squiggly-animated)"/><polyline id="SvgjsPolyline1405" points="-361,-282 -377,-254 -374,-246" fill-opacity="0.7" fill="#a8df83"/><polyline id="SvgjsPolyline1407" points="-372,-252 -393,-222 -404,-199 -409,-182 -408,-154 -411,-151 -407,-160" fill-opacity="0.7" fill="#a8df83"/><polyline id="SvgjsPolyline1406" points="-363,-259 -357,-257 -351,-250 -343,-226 -337,-213 -336,-207 -333,-202 -329,-186 -329,-157 -332,-154 -334,-147 -336,-147" fill-opacity="0.7" fill="#a8df83"/><polyline id="SvgjsPolyline1403" points="-398,-286 -397,-270 -392,-264 -392,-262 -388,-258 -385,-258 -378,-251 -371,-253 -360,-261 -358,-273 -367,-274" fill-opacity="0.7" fill="#a8df83"/><polyline id="SvgjsPolyline1404" points="-393,-286 -396,-279 -396,-275 -401,-271 -401,-265 -398,-262 -397,-256 -389,-249 -379,-253 -378,-255 -368,-261 -360,-272 -359,-284" fill-opacity="0.7" fill="#a8df83"/><polyline id="SvgjsPolyline1402" points="-365,-282 -362,-298 -362,-311 -363,-313 -373,-317 -394,-315 -402,-304 -404,-297 -424,-298 -417,-297 -405,-290 -396,-287 -369,-285 -347,-279 -346,-288 -359,-298 -366,-299 -367,-301" fill-opacity="0.7" fill="#a8df83"/><polyline id="SvgjsPolyline1409" points="-363,-241 -356,-242 -350,-231 -350,-228 -359,-214 -372,-183 -383,-173 -399,-176 -427,-188 -431,-188 -432,-190 -440,-191 -452,-197 -449,-199 -452,-202 -441,-201 -433,-197 -461,-209 -461,-211 -458,-213 -444,-213 -437,-206 -428,-203 -427,-201 -418,-198 -404,-196 -386,-187 -386,-214 -382,-223 -381,-231 -369,-240 -351,-246 -350,-234 -354,-224 -384,-175 -391,-175 -404,-180 -426,-195 -442,-201 -442,-203 -446,-207 -435,-206 -402,-195 -398,-195 -398,-200 -401,-203 -387,-201 -383,-197 -395,-198 -421,-212 -435,-216 -442,-216 -448,-209 -451,-209 -434,-198 -408,-193 -393,-185 -393,-186" fill-opacity="0.7" fill="#a8df83"/><polyline id="SvgjsPolyline1416" points="-106.00332889480671,-172.0126498002663 -106.00332889480671,-173.0126498002663 -208.0033288948067,-174.0126498002663 -313.0033288948067,-173.0126498002663 -372.0033288948067,-168.0126498002663 -387.0033288948067,-165.0126498002663 -415.0033288948067,-165.0126498002663 -446.0033288948067,-160.0126498002663 -495.0033288948067,-159.0126498002663 -523.0033288948067,-155.0126498002663 -526.0033288948067,-153.0126498002663 -553.0033288948067,-151.0126498002663 -551.0033288948067,-149.0126498002663 -537.0033288948067,-104.0126498002663 -535.0033288948067,-102.0126498002663 -533.0033288948067,-95.0126498002663 -527.0033288948067,-90.0126498002663 -525.0033288948067,-81.0126498002663 -478.0033288948067,-82.0126498002663 -463.0033288948067,-80.0126498002663 -433.0033288948067,-80.0126498002663 -395.0033288948067,-77.0126498002663 -327.0033288948067,-75.0126498002663 -295.0033288948067,-84.0126498002663 -268.0033288948067,-89.0126498002663 -246.0033288948067,-91.0126498002663 -147.0033288948067,-91.0126498002663 -102.00332889480671,-93.0126498002663" fill-opacity="1" fill="#b49e84"/><polyline id="SvgjsPolyline1417" points="-513.9940079893476,-98.01664447403462 -493.99400798934755,-93.01664447403462 -504.99400798934755,-93.01664447403462 -499.99400798934755,-75.01664447403462 -505.99400798934755,-107.01664447403462 -506.99400798934755,-81.01664447403462 -530.9940079893476,-105.01664447403462 -526.9940079893476,-93.01664447403462 -523.9940079893476,-90.01664447403462 -519.9940079893476,-89.01664447403462 -517.9940079893476,-89.01664447403462 -508.99400798934755,-96.01664447403462 -502.99400798934755,-98.01664447403462 -464.99400798934755,-98.01664447403462 -453.99400798934755,-96.01664447403462 -491.99400798934755,-98.01664447403462 -559.9940079893476,-112.01664447403462 -475.99400798934755,-91.01664447403462 -448.99400798934755,-87.01664447403462" fill="none" stroke-linejoin="round" stroke-linecap="round" stroke-opacity="0.5" stroke="#57374d" stroke-width="4" filter="url(#heartbeat)"/><polyline id="SvgjsPolyline1418" points="-471.97270306258326,-94.01198402130494 -488.97270306258326,-94.01198402130494 -508.97270306258326,-89.01198402130494 -514.9727030625833,-85.01198402130494 -518.9727030625833,-78.01198402130494 -523.9727030625833,-75.01198402130494 -533.9727030625833,-76.01198402130494 -544.9727030625833,-85.01198402130494 -563.9727030625833,-78.01198402130494 -567.9727030625833,-78.01198402130494 -567.9727030625833,-80.01198402130494 -569.9727030625833,-80.01198402130494 -577.9727030625833,-77.01198402130494 -579.9727030625833,-73.01198402130494 -595.9727030625833,-77.01198402130494" fill="none" stroke-linejoin="round" stroke-linecap="round" stroke-opacity="0.7" stroke="#57374d" stroke-width="4" filter="url(#squiggly-animated)"/><polyline id="SvgjsPolyline1419" points="-329.03928095872175,-94.00932090545939 -339.03928095872175,-90.00932090545939 -376.03928095872175,-86.00932090545939 -421.03928095872175,-77.00932090545939 -433.03928095872175,-76.00932090545939 -442.03928095872175,-73.00932090545939 -432.03928095872175,-68.00932090545939 -411.03928095872175,-63.00932090545939 -394.03928095872175,-66.00932090545939 -366.03928095872175,-76.00932090545939 -309.03928095872175,-77.00932090545939 -323.03928095872175,-89.00932090545939 -330.03928095872175,-92.00932090545939 -361.03928095872175,-93.00932090545939 -367.03928095872175,-86.00932090545939 -368.03928095872175,-82.00932090545939" fill="none" stroke-linejoin="round" stroke-linecap="round" stroke-opacity="0.7" stroke="#57374d" stroke-width="4" filter="url(#squiggly-animated)"/><polyline id="SvgjsPolyline1420" points="-130.01131824234352,-97.01264980026632 -138.01131824234352,-97.01264980026632 -160.01131824234352,-91.01264980026632 -175.01131824234352,-89.01264980026632 -208.01131824234352,-89.01264980026632 -181.01131824234352,-86.01264980026632 -159.01131824234352,-86.01264980026632 -144.01131824234352,-93.01264980026632 -141.01131824234352,-96.01264980026632 -106.01131824234352,-97.01264980026632 -118.01131824234352,-95.01264980026632 -132.01131824234352,-95.01264980026632 -132.01131824234352,-102.01264980026632 -191.01131824234352,-102.01264980026632 -218.01131824234352,-100.01264980026632 -226.01131824234352,-98.01264980026632 -244.01131824234352,-98.01264980026632 -261.0113182423435,-100.01264980026632 -263.0113182423435,-83.01264980026632 -254.01131824234352,-83.01264980026632" fill="none" stroke-linejoin="round" stroke-linecap="round" stroke-opacity="0.7" stroke="#57374d" stroke-width="4" filter="url(#squiggly-animated)"/><polyline id="SvgjsPolyline1259" points="-320,-124 -326,-120 -349,-98 -367,-87 -319,-83 -353,-73 -399,-64 -487,-51 -442,-54 -374,-54 -341,-56 -407,-42 -432,-39 -392,-39 -276,-52 -248,-57 -241,-61 -297,-61 -262,-70 -247,-76 -244,-79 -264,-76 -238,-87" fill="none" stroke-linejoin="round" stroke-linecap="round" stroke-opacity="1" stroke="#64455a" stroke-width="12" filter="url(#water)"/><polyline id="SvgjsPolyline1422" points="-294.9973368841545,-109.00599201065248 -293.9973368841545,-87.00599201065248 -290.9973368841545,-96.00599201065248 -285.9973368841545,-104.00599201065248 -272.9973368841545,-112.00599201065248 -315.9973368841545,-111.00599201065248 -275.9973368841545,-108.00599201065248 -301.9973368841545,-99.00599201065248 -312.9973368841545,-94.00599201065248 -313.9973368841545,-92.00599201065248 -303.9973368841545,-90.00599201065248 -268.9973368841545,-90.00599201065248 -282.9973368841545,-90.00599201065248 -270.9973368841545,-88.00599201065248" fill="none" stroke-linejoin="round" stroke-linecap="round" stroke-opacity="1" stroke="#57374d" stroke-width="8" filter="url(#heartbeat)"/><polyline id="SvgjsPolyline1444" points="-426,-268 -425,-267" fill="none" stroke-linejoin="round" stroke-linecap="round" stroke-opacity="0.5" stroke="#f1eee8" stroke-width="8" filter="url(#blocky)"/><polyline id="SvgjsPolyline1479" points="-412,-252 -409,-254 -410,-255 -409,-253 -405,-252 -409,-251 -409,-255 -407,-255 -406,-253" fill="none" stroke-linejoin="round" stroke-linecap="round" stroke-opacity="0.2" stroke="#f1eee8" stroke-width="8" filter="url(#blocky)"/><polyline id="SvgjsPolyline1486" points="-408,-276 -409,-274 -414,-274 -416,-275 -416,-278 -410,-277 -408,-274 -408,-268 -410,-265 -419,-267 -420,-279 -417,-283 -414,-283 -405,-274" fill="none" stroke-linejoin="round" stroke-linecap="round" stroke-opacity="0.2" stroke="#f1eee8" stroke-width="8" filter="url(#blocky)"/><polyline id="SvgjsPolyline1493" points="-455,-324 -457,-324 -458,-317 -456,-316 -454,-319 -454,-323 -456,-324 -459,-315 -456,-307 -449,-301 -446,-302 -444,-316 -445,-322 -447,-324 -451,-324 -455,-321 -456,-310 -449,-303 -441,-299 -438,-307 -438,-315 -444,-329" fill="none" stroke-linejoin="round" stroke-linecap="round" stroke-opacity="0.2" stroke="#f1eee8" stroke-width="8" filter="url(#blocky)"/><polyline id="SvgjsPolyline1500" points="-415,-361 -413,-361 -412,-351 -416,-345 -423,-345 -435,-353 -437,-356 -436,-364 -430,-368 -421,-371" fill="none" stroke-linejoin="round" stroke-linecap="round" stroke-opacity="0.2" stroke="#f1eee8" stroke-width="8" filter="url(#blocky)"/><polyline id="SvgjsPolyline1507" points="-402,-407 -411,-406 -416,-398 -416,-390 -407,-374 -407,-360 -412,-352 -425,-339" fill="none" stroke-linejoin="round" stroke-linecap="round" stroke-opacity="0.2" stroke="#f1eee8" stroke-width="8" filter="url(#blocky)"/><polyline id="SvgjsPolyline1514" points="-385,-414 -384,-400 -394,-392 -396,-392 -398,-383" fill="none" stroke-linejoin="round" stroke-linecap="round" stroke-opacity="0.2" stroke="#f1eee8" stroke-width="8" filter="url(#blocky)"/><polyline id="SvgjsPolyline1521" points="-404,-332 -404,-326 -408,-316 -411,-313 -411,-309 -428,-309" fill="none" stroke-linejoin="round" stroke-linecap="round" stroke-opacity="0.2" stroke="#f1eee8" stroke-width="8" filter="url(#blocky)"/><polyline id="SvgjsPolyline1528" points="-412,-283 -409,-279" fill="none" stroke-linejoin="round" stroke-linecap="round" stroke-opacity="0.2" stroke="#f1eee8" stroke-width="8" filter="url(#blocky)"/><polyline id="SvgjsPolyline1543" points="-508,-159 -512,-187 -507,-190 -493,-190 -489,-188 -488,-184 -487,-161 -503,-160" fill-opacity="0.2" fill="#ffc64f"/><polyline id="SvgjsPolyline1545" points="-505,-158 -504,-179 -506,-180 -507,-183 -501,-186 -489,-186 -486,-185 -486,-165 -484,-163 -482,-155 -490,-156 -490,-158" fill-opacity="1" fill="#ffc64f"/><polyline id="SvgjsPolyline1547" points="-508,-191 -511,-194 -510,-200 -500,-198 -500,-189 -504,-181" fill="none" stroke-linejoin="round" stroke-linecap="round" stroke-opacity="1" stroke="#332b16" stroke-width="4"/><polyline id="SvgjsPolyline1548" points="-517,-188 -522,-182 -524,-169 -523,-166 -519,-163 -519,-161 -516,-159 -514,-153 -512,-151 -509,-151 -505,-162 -505,-168 -510,-180 -504,-185 -496,-187 -507,-189" fill-opacity="1" fill="#332b16"/><polyline id="SvgjsPolyline1549" points="-488,-178 -488,-159 -480,-159 -480,-180 -478,-184 -494,-189" fill-opacity="1" fill="#332b16"/><polyline id="SvgjsPolyline1581" points="-502,-173 -502,-174" fill="none" stroke-linejoin="round" stroke-linecap="round" stroke-opacity="0.2" stroke="#ffc64f" stroke-width="10" filter="url(#glow)"/><polyline id="SvgjsPolyline1589" points="-512,-179 -498,-197 -493,-198 -485,-198 -480,-196 -471,-197 -465,-204 -460,-214 -459,-218 -460,-222 -492,-245 -507,-250 -528,-254 -553,-253 -564,-248 -574,-238 -593,-190 -593,-179 -590,-169 -581,-166 -572,-166 -567,-169 -553,-167" fill-opacity="0.2" fill="#ffc64f" filter="url(#glow)"/><polyline id="SvgjsPolyline1597" points="-485,-207 -480,-200 -477,-189 -477,-172 -473,-161 -469,-156 -464,-155 -438,-159 -430,-167 -426,-176 -425,-186 -428,-186 -436,-190 -446,-190 -446,-196" fill-opacity="0.2" fill="#ffc64f" filter="url(#glow)"/><polyline id="SvgjsPolyline1605" points="-434,-217 -428,-228 -428,-236 -434,-245 -446,-258 -460,-277 -471,-284 -479,-286 -497,-295 -512,-296 -548,-290 -584,-274 -591,-270 -614,-242 -630,-214 -633,-203 -633,-180 -629,-162 -618,-139 -604,-123 -588,-115 -574,-115 -556,-127 -541,-142 -516,-156 -505,-167 -490,-172 -478,-173 -436,-154 -426,-154 -418,-156 -402,-163 -397,-167 -392,-173 -389,-183 -390,-205 -397,-229 -415,-279 -419,-287 -437,-305 -451,-316 -467,-322 -487,-327 -536,-328 -555,-321 -566,-315 -571,-310 -577,-299" fill-opacity="0.2" fill="#ffc64f" filter="url(#glow)"/><polyline id="SvgjsPolyline1613" points="-537,-143 -537,-156 -533,-166 -529,-184 -522,-199 -514,-210 -506,-216 -489,-223 -465,-224 -451,-219 -446,-215 -437,-195 -437,-175 -442,-165 -447,-161 -465,-160 -487,-166 -529,-174 -551,-181 -550,-189 -546,-200 -542,-209 -536,-215 -523,-222 -517,-223 -505,-223 -499,-221 -492,-204 -487,-185" fill-opacity="0.2" fill="#ffc64f" filter="url(#glow)"/><polyline id="SvgjsPolyline1621" points="-431,-171 -424,-181 -420,-195 -420,-203 -423,-215 -431,-230 -443,-244 -457,-254 -472,-262 -497,-266 -514,-267 -548,-257 -557,-252 -566,-241 -571,-229 -583,-189 -582,-174 -572,-160 -564,-156 -518,-154" fill-opacity="0.2" fill="#ffc64f" filter="url(#glow)"/><polyline id="SvgjsPolyline1629" points="-536,-212 -536,-213 -532,-212" fill-opacity="0.1" fill="#ffc64f" filter="url(#glow)"/><polyline id="SvgjsPolyline1637" points="-540,-104 -541,-102 -565,-102 -590,-106 -633,-118 -656,-127 -664,-146 -668,-164 -688,-198 -689,-207 -688,-220 -679,-248 -668,-272 -652,-298 -635,-319 -605,-347 -591,-356 -577,-362 -538,-372 -481,-375 -450,-374 -412,-365 -394,-356 -379,-340 -377,-334 -342,-290 -328,-275 -318,-261 -310,-239 -310,-201 -313,-187 -317,-181 -322,-177 -326,-170 -401,-165 -424,-151 -433,-148" fill-opacity="0.1" fill="#ffc64f" filter="url(#glow)"/><polyline id="SvgjsPolyline1645" points="-537,-153 -536,-159 -538,-193 -536,-201 -530,-207 -520,-211 -488,-214 -474,-211 -450,-198 -444,-193 -440,-189 -436,-170 -437,-165 -450,-153 -458,-151 -475,-150 -480,-145" fill-opacity="0.1" fill="#ffc64f" filter="url(#glow)"/><polyline id="SvgjsPolyline1653" points="-552,-175 -556,-160 -555,-149 -548,-142 -536,-138 -525,-137 -504,-139 -496,-143 -487,-151 -480,-162 -478,-178 -480,-184 -489,-195 -494,-198 -504,-198 -514,-196 -528,-188 -536,-177 -540,-149 -537,-140 -525,-127 -515,-121 -496,-114 -484,-114 -475,-118 -466,-126 -459,-136 -455,-146 -454,-171 -457,-181 -461,-187 -468,-190" fill-opacity="0.1" fill="#ffc64f" filter="url(#glow)"/><polyline id="SvgjsPolyline1661" points="-506,-230 -536,-197 -544,-177 -546,-167 -546,-149 -541,-139 -533,-130 -521,-125 -504,-119 -491,-117 -483,-118 -476,-123 -461,-145 -457,-161 -457,-170 -460,-180 -468,-193 -476,-199 -488,-204 -502,-209 -513,-210 -522,-210 -535,-206 -542,-199" fill-opacity="0.1" fill="#ffc64f" filter="url(#glow)"/><polyline id="SvgjsPolyline1669" points="-548,-194 -554,-185 -558,-173 -559,-160 -555,-147 -541,-135 -518,-123 -488,-117 -461,-117 -445,-125 -438,-133 -435,-143 -434,-156 -438,-172 -445,-187 -456,-199 -470,-208 -488,-211 -507,-210 -523,-206 -534,-202 -539,-198" fill-opacity="0.1" fill="#ffc64f" filter="url(#glow)"/><polyline id="SvgjsPolyline1677" points="-564,-187 -582,-174 -588,-163 -590,-151 -589,-142 -580,-131 -554,-121 -517,-117 -483,-117 -460,-121 -443,-129 -437,-138 -436,-151 -441,-166 -454,-184" fill-opacity="0.1" fill="#ffc64f" filter="url(#glow)"/><polyline id="SvgjsPolyline1685" points="-491,-188 -498,-181 -501,-166 -499,-149 -493,-141 -487,-141 -478,-146 -475,-151 -474,-156 -475,-174 -482,-181 -499,-190 -505,-190 -518,-184" fill-opacity="0.2" fill="#fff3db" filter="url(#glow)"/><polyline id="SvgjsPolyline1693" points="-489,-189 -501,-187 -512,-181 -523,-170 -525,-165 -524,-161 -519,-155 -492,-147 -485,-148 -471,-154 -462,-169 -462,-179 -465,-185 -478,-196 -492,-198 -507,-198 -513,-197 -530,-189 -539,-178 -541,-172 -541,-155 -538,-149 -533,-145 -525,-142 -459,-141 -452,-143 -444,-159 -442,-167 -442,-186 -447,-211 -451,-219 -455,-226 -467,-236 -487,-241 -519,-241 -547,-236 -562,-230 -586,-206 -590,-199 -592,-185 -591,-163 -588,-156 -570,-137 -552,-126 -534,-120 -515,-120 -504,-122 -496,-125 -472,-139 -451,-160 -450,-175 -452,-182 -462,-194 -467,-195 -468,-191" fill-opacity="0.2" fill="#fff3db" filter="url(#glow)"/><polyline id="SvgjsPolyline1695" points="-455,-206 -478,-224 -491,-239 -520,-260 -560,-275 -591,-291 -637,-295 -632,-296 -623,-292 -591,-283 -547,-262 -509,-250 -488,-235 -475,-214 -464,-202 -433,-186 -421,-183" fill-opacity="0.8" fill="#776e5d"/><polyline id="SvgjsPolyline1698" points="-637,-281 -645,-266 -655,-237 -666,-185 -668,-166 -671,-106 -664,-59 -659,-46 -659,-44 -661,-44 -663,-46 -666,-62 -668,-64 -671,-74 -676,-101 -676,-117 -674,-137 -671,-147 -669,-180 -667,-184 -667,-195 -665,-203 -633,-263 -633,-278 -631,-288" fill-opacity="0.8" fill="#181107"/><polyline id="SvgjsPolyline1704" points="-650,-54 -670,-48 -689,-47 -667,-53 -654,-54 -653,-50 -660,-43 -672,-40 -616,-42 -675,-30 -700,-28 -696,-30 -689,-49 -690,-63 -695,-75 -701,-83 -701,-80 -697,-72 -679,-52 -667,-42 -650,-43 -623,-48 -661,-48 -679,-50 -656,-53 -600,-56 -693,-50 -617,-55 -586,-55 -607,-47 -616,-40 -620,-34 -619,-31 -617,-31" fill="none" stroke-linejoin="round" stroke-linecap="round" stroke-opacity="0.8" stroke="#64455a" stroke-width="4" filter="url(#water)"/><polyline id="SvgjsPolyline1709" points="-697,-67 -695,-67 -672,-31 -663,-24 -658,-22 -646,-23 -635,-28 -625,-35 -619,-40 -617,-45 -617,-55 -628,-73 -636,-80" fill="none" stroke-linejoin="round" stroke-linecap="round" stroke-opacity="0.8" stroke="#64455a" stroke-width="4" filter="url(#water)"/><polyline id="SvgjsPolyline1720" points="-688,-59 -681,-58 -670,-50 -661,-46 -640,-48 -627,-47 -620,-49 -623,-48" fill-opacity="0.8" fill="#64455a" filter="url(#squiggly-animated)"/><polyline id="SvgjsPolyline1738" points="-692,-70 -690,-70 -687,-66 -676,-46 -673,-45 -652,-42 -640,-43 -631,-49 -631,-55 -629,-57" fill="none" stroke-linejoin="round" stroke-linecap="round" stroke-opacity="0.8" stroke="#64455a" stroke-width="4" filter="url(#squiggly-animated)"/><polyline id="SvgjsPolyline1744" points="-686,-48 -683,-41 -681,-40 -675,-38 -662,-37 -662,-32 -654,-29 -637,-27" fill="none" stroke-linejoin="round" stroke-linecap="round" stroke-opacity="0.8" stroke="#64455a" stroke-width="4" filter="url(#squiggly-animated)"/><polyline id="SvgjsPolyline1750" points="-648,-61 -657,-57 -664,-56 -666,-62 -662,-59 -661,-56 -657,-57" fill="none" stroke-linejoin="round" stroke-linecap="round" stroke-opacity="0.8" stroke="#64455a" stroke-width="4" filter="url(#squiggly-animated)"/><polyline id="SvgjsPolyline1751" points="-673,-46 -662,-43 -652,-46" fill="none" stroke-linejoin="round" stroke-linecap="round" stroke-opacity="0.8" stroke="#181107" stroke-width="4"/><polyline id="SvgjsPolyline1757" points="-627,-39 -630,-30 -634,-26 -638,-25 -646,-26 -654,-34 -660,-24 -667,-21" fill="none" stroke-linejoin="round" stroke-linecap="round" stroke-opacity="0.5" stroke="#181107" stroke-width="4" filter="url(#water)"/><polyline id="SvgjsPolyline1762" points="-617,-72 -615,-69 -615,-63 -620,-53 -633,-45 -644,-41 -661,-40 -668,-35 -676,-33 -686,-33 -687,-43" fill="none" stroke-linejoin="round" stroke-linecap="round" stroke-opacity="0.5" stroke="#181107" stroke-width="4" filter="url(#water)"/><polyline id="SvgjsPolyline1767" points="-691,-65 -669,-58 -657,-61 -650,-58 -643,-58 -634,-64 -628,-72 -635,-62 -650,-54 -668,-53 -683,-65 -688,-82 -689,-78" fill="none" stroke-linejoin="round" stroke-linecap="round" stroke-opacity="0.5" stroke="#181107" stroke-width="4" filter="url(#water)"/><polyline id="SvgjsPolyline1772" points="-683,-35 -683,-30 -680,-24 -666,-5 -660,-2 -636,1 -625,-4 -604,-20 -593,-35 -591,-40 -584,-46" fill="none" stroke-linejoin="round" stroke-linecap="round" stroke-opacity="0.5" stroke="#181107" stroke-width="4" filter="url(#water)"/><polyline id="SvgjsPolyline1778" points="-685,-56 -656,-49 -653,-49 -644,-55 -640,-55" fill="none" stroke-linejoin="round" stroke-linecap="round" stroke-opacity="0.5" stroke="#181107" stroke-width="4" filter="url(#squiggly-animated)"/><polyline id="SvgjsPolyline1784" points="-640,-53 -640,-51 -660,-40 -668,-38 -679,-38 -702,-42 -704,-47 -710,-54 -685,-34" fill="none" stroke-linejoin="round" stroke-linecap="round" stroke-opacity="0.5" stroke="#181107" stroke-width="4" filter="url(#squiggly-animated)"/><polyline id="SvgjsPolyline1796" points="-625,-56 -625,-42 -627,-34 -632,-27 -639,-21 -653,-17 -676,-16 -677,-22" fill="none" stroke-linejoin="round" stroke-linecap="round" stroke-opacity="0.5" stroke="#181107" stroke-width="4" filter="url(#squiggly-animated)"/><polyline id="SvgjsPolyline1802" points="-686,-23 -664,-8 -653,-4 -642,-3 -636,-5 -621,-14 -607,-27" fill="none" stroke-linejoin="round" stroke-linecap="round" stroke-opacity="0.5" stroke="#181107" stroke-width="4" filter="url(#squiggly-animated)"/><polyline id="SvgjsPolyline1809" points="-384,-314 -387,-314 -397,-309 -405,-301 -405,-299 -419,-299 -416,-296 -391,-282 -384,-301 -381,-304 -371,-310 -361,-310" fill-opacity="0.5" fill="#ffc64f"/><polyline id="SvgjsPolyline1810" points="-383,-282 -390,-287 -394,-288 -394,-272 -396,-272 -396,-270 -392,-264 -390,-271 -383,-283 -381,-285 -376,-286" fill-opacity="0.5" fill="#ffc64f"/><polyline id="SvgjsPolyline1811" points="-400,-265 -396,-264 -394,-255 -389,-250 -384,-248 -385,-277 -384,-279 -381,-280" fill-opacity="0.5" fill="#ffc64f"/><polyline id="SvgjsPolyline1812" points="-370,-247 -375,-247 -384,-240 -395,-221 -399,-208 -398,-189 -390,-189 -384,-196 -383,-214 -380,-226 -372,-231" fill-opacity="0.5" fill="#ffc64f"/><polyline id="SvgjsPolyline1813" points="-378,-184 -380,-183 -411,-198 -419,-200 -432,-211 -444,-216 -431,-215 -407,-207 -400,-203 -392,-195 -389,-188 -386,-186" fill-opacity="0.5" fill="#ffc64f"/><polyline id="SvgjsPolyline1814" points="-386,-186 -423,-198 -443,-209 -442,-202 -434,-195 -413,-194 -402,-192 -395,-189 -369,-185" fill-opacity="0.5" fill="#ffc64f"/><polyline id="SvgjsPolyline1815" points="-399,-184 -412,-172 -413,-165 -415,-163 -376,-163 -379,-166 -381,-172 -383,-173 -384,-184" fill-opacity="0.5" fill="#ffc64f"/><polyline id="SvgjsPolyline1816" points="-361,-248 -388,-226 -392,-215 -399,-182 -392,-185 -378,-197 -372,-205 -366,-215 -358,-236 -347,-252 -347,-259" fill-opacity="0.5" fill="#ffc64f"/><polyline id="SvgjsPolyline1817" points="-364,-307 -365,-291 -359,-288 -354,-279 -352,-278 -374,-288 -376,-292 -375,-299 -369,-304 -362,-304 -346,-295 -342,-291 -338,-285 -337,-276 -334,-270" fill-opacity="0.5" fill="#744783"/><polyline id="SvgjsPolyline1818" points="-355,-302 -351,-292 -346,-285 -340,-280 -339,-274 -348,-275 -357,-293 -363,-300" fill-opacity="0.5" fill="#744783"/><polyline id="SvgjsPolyline1819" points="-360,-286 -365,-272 -368,-256 -370,-254 -370,-245 -367,-245 -367,-249 -372,-263 -378,-271 -378,-274 -377,-283 -372,-287 -366,-288" fill-opacity="0.5" fill="#744783"/><polyline id="SvgjsPolyline1820" points="-353,-256 -355,-242 -362,-233 -369,-231 -370,-218 -372,-213 -369,-213 -360,-224 -353,-239 -352,-245" fill-opacity="0.5" fill="#744783"/><polyline id="SvgjsPolyline1821" points="-355,-231 -355,-223 -358,-213 -375,-185 -383,-176 -388,-166 -390,-176 -391,-200 -358,-215 -350,-232" fill-opacity="0.5" fill="#744783"/><polyline id="SvgjsPolyline1822" points="-350,-249 -343,-240 -333,-184 -329,-175 -320,-164 -335,-172 -339,-176 -344,-202 -353,-226 -354,-250" fill-opacity="0.5" fill="#744783"/><polyline id="SvgjsPolyline1823" points="-359,-179 -379,-159 -373,-159 -356,-163 -346,-170 -343,-174 -342,-191 -349,-207 -350,-221 -356,-221 -365,-214 -373,-205 -376,-196 -376,-175 -347,-173" fill-opacity="0.5" fill="#744783"/><polyline id="SvgjsPolyline1824" points="-95,-148 -136,-141 -226,-133 -318,-132 -336,-134 -326,-134 -289,-128 -183,-124 -170,-135 -163,-138 -155,-139 -105,-139 -105,-138" fill-opacity="0.5" fill="#744783"/><polyline id="SvgjsPolyline1825" points="-492,-142 -453,-142 -420,-137 -342,-135 -327,-133 -303,-134 -287,-139 -337,-139 -369,-143 -375,-145 -402,-145" fill-opacity="0.5" fill="#744783"/><polyline id="SvgjsPolyline1826" points="-547,-114 -516,-111 -432,-113 -359,-108 -344,-106 -342,-104 -374,-97 -406,-96 -421,-97 -469,-106 -480,-106 -479,-110 -482,-111 -514,-111 -506,-112" fill-opacity="0.5" fill="#744783"/><polyline id="SvgjsPolyline1827" points="-335,-122 -358,-118 -390,-118 -369,-118 -288,-113 -305,-114" fill-opacity="0.5" fill="#744783"/><polyline id="SvgjsPolyline1828" points="-112,-116 -166,-116 -228,-110 -296,-109 -268,-108 -228,-104 -146,-101 -141,-103 -123,-116" fill-opacity="0.5" fill="#744783"/><polyline id="SvgjsPolyline1829" points="-543,-131 -515,-129 -443,-129 -445,-127 -452,-125 -472,-122 -482,-125 -499,-126 -490,-127" fill-opacity="0.5" fill="#804018"/><polyline id="SvgjsPolyline1830" points="-380,-124 -363,-125 -312,-124 -293,-128 -280,-128 -311,-121 -365,-121 -414,-108 -432,-106" fill-opacity="0.5" fill="#804018"/><polyline id="SvgjsPolyline1831" points="-465,-108 -444,-108 -414,-105 -388,-106 -437,-99 -494,-99" fill-opacity="0.5" fill="#804018"/><polyline id="SvgjsPolyline1832" points="-432,-94 -351,-95 -399,-89" fill-opacity="0.5" fill="#804018"/><polyline id="SvgjsPolyline1833" points="-191,-146 -218,-141 -299,-140 -236,-141 -204,-150" fill-opacity="0.5" fill="#804018"/><polyline id="SvgjsPolyline1834" points="-109,-158 -129,-155 -187,-155 -256,-160 -198,-156 -139,-156 -114,-154" fill-opacity="0.5" fill="#804018"/><polyline id="SvgjsPolyline1835" points="-109,-135 -113,-131 -146,-123 -157,-122 -185,-123 -136,-113 -106,-112 -104,-114 -104,-123 -115,-120 -136,-120 -136,-123 -135,-125 -124,-131 -104,-132" fill-opacity="0.5" fill="#804018"/><polyline id="SvgjsPolyline1836" points="-233,-120 -258,-120 -283,-117 -244,-114 -205,-116 -233,-121" fill-opacity="0.5" fill="#804018"/><polyline id="SvgjsPolyline1837" points="-272,-98 -295,-93 -303,-89 -242,-88 -243,-88" fill-opacity="0.5" fill="#804018"/><polyline id="SvgjsPolyline1838" points="-272,-77 -281,-74 -328,-72 -284,-73" fill-opacity="0.5" fill="#804018"/><polyline id="SvgjsPolyline1839" points="-121,-92 -140,-89 -127,-89 -119,-92" fill-opacity="0.5" fill="#804018"/><polyline id="SvgjsPolyline1840" points="-370,-160 -392,-151 -442,-144 -467,-137 -467,-117 -465,-108 -474,-104 -492,-102 -511,-96 -515,-106 -513,-127 -519,-131 -529,-132 -538,-137 -542,-137 -548,-142 -551,-151 -553,-151 -550,-151" fill-opacity="0.3" fill="#f6db4e"/><polyline id="SvgjsPolyline1841" points="-266,-178 -290,-169 -301,-168 -330,-161" fill-opacity="0.3" fill="#f6db4e"/><polyline id="SvgjsPolyline1842" points="-105,-149 -127,-148 -136,-144 -179,-119 -194,-115 -195,-107 -200,-103 -212,-99 -290,-93 -338,-79 -380,-74 -369,-71 -337,-67 -296,-66 -254,-77 -213,-81 -154,-91 -131,-93 -119,-97 -114,-103" fill-opacity="0.3" fill="#634c75"/><polyline id="SvgjsPolyline1843" points="-118,-158 -188,-144 -296,-141 -292,-134 -282,-127 -264,-122 -223,-120 -198,-125 -169,-126 -127,-120" fill-opacity="0.3" fill="#634c75"/><polyline id="SvgjsPolyline1844" points="-113,-101 -123,-97 -147,-93 -180,-90 -222,-89 -267,-91 -302,-95 -363,-106 -425,-111 -497,-112 -515,-105 -523,-100 -520,-96 -499,-83 -492,-80 -474,-78 -312,-78 -266,-82 -199,-81 -184,-82" fill-opacity="0.3" fill="#634c75"/><polyline id="SvgjsPolyline1851" points="-358,-261 -350,-261 -335,-252 -326,-243 -326,-237 -332,-235 -345,-235 -355,-238 -366,-238 -373,-240 -374,-244 -373,-249 -369,-256 -361,-264 -357,-266 -350,-265 -346,-259 -342,-251 -341,-241" fill-opacity="0.3" fill="#fff6e6" filter="url(#blocky)"/><polyline id="SvgjsPolyline1858" points="-340,-209 -344,-203 -359,-199 -372,-200 -375,-204 -374,-216 -370,-222 -346,-247 -330,-256 -315,-267 -300,-275 -294,-276 -284,-258 -273,-227 -273,-215 -278,-182 -281,-177 -287,-176 -292,-173 -279,-176" fill-opacity="0.3" fill="#fff6e6" filter="url(#blocky)"/><polyline id="SvgjsPolyline1865" points="-233,-217 -249,-248 -251,-257 -251,-267 -248,-274 -222,-289 -211,-298 -208,-307 -207,-317 -212,-344 -203,-356 -194,-362 -182,-366 -153,-369 -132,-368 -108,-357 -97,-341 -97,-331 -101,-319 -103,-301 -97,-274 -99,-257 -93,-241 -92,-231 -95,-224 -106,-211 -107,-200 -110,-195 -121,-187 -160,-186 -172,-189 -231,-211 -258,-234 -273,-239 -308,-240 -320,-232 -338,-226 -346,-220 -351,-219" fill-opacity="0.3" fill="#fff6e6" filter="url(#blocky)"/><polyline id="SvgjsPolyline1872" points="-392,-218 -400,-215 -413,-217 -413,-227 -404,-237 -400,-238" fill-opacity="0.3" fill="#fff6e6" filter="url(#blocky)"/><polyline id="SvgjsPolyline1879" points="-409,-192 -423,-183 -415,-199 -411,-211 -397,-232" fill-opacity="0.1" fill="#fff6e6" filter="url(#blocky)"/><polyline id="SvgjsPolyline1900" points="-266,-322 -259,-331 -250,-337 -239,-340 -232,-340 -227,-338 -216,-319 -217,-305 -227,-300 -198,-300 -160,-291 -154,-287 -154,-285" fill-opacity="0.1" fill="#fff6e6" filter="url(#blocky)"/><polyline id="SvgjsPolyline1907" points="-158,-258 -170,-261 -178,-268 -185,-278 -187,-288 -181,-316 -174,-330 -152,-356 -151,-359 -144,-347 -134,-315 -131,-292 -131,-267 -139,-251 -153,-247 -184,-244 -207,-256 -215,-266 -224,-287 -226,-307 -224,-318 -220,-328 -214,-338 -205,-344 -176,-356 -169,-357 -159,-356 -154,-352" fill-opacity="0.1" fill="#fff6e6" filter="url(#blocky)"/><polyline id="SvgjsPolyline1914" points="-118,-349 -130,-360 -136,-363 -154,-363 -167,-351 -171,-343 -177,-322 -176,-315 -169,-310 -146,-309 -123,-317 -119,-320 -118,-338 -119,-341 -125,-346" fill-opacity="0.1" fill="#fff6e6" filter="url(#blocky)"/><polyline id="SvgjsPolyline1921" points="-104,-383 -187,-391 -214,-388 -221,-384 -224,-377 -224,-371 -208,-347 -201,-324 -195,-318 -178,-318 -168,-321 -161,-327 -153,-338 -150,-348 -152,-386 -169,-410 -171,-410 -181,-420 -183,-420" fill-opacity="0.1" fill="#fff6e6" filter="url(#blocky)"/><polyline id="SvgjsPolyline1922" points="-642,-296 -585,-296 -563,-293 -555,-288 -552,-284 -540,-277 -534,-268" fill-opacity="0.1" fill="#181107"/><polyline id="SvgjsPolyline1923" points="-627,-290 -607,-288 -575,-280 -570,-280 -594,-291 -610,-295 -618,-300 -630,-301" fill-opacity="0.8" fill="#181107"/><polyline id="SvgjsPolyline1924" points="-495,-231 -484,-227 -466,-216 -435,-201 -432,-198 -442,-204 -453,-215 -477,-230 -483,-231 -486,-234 -487,-239" fill-opacity="0.8" fill="#181107"/><polyline id="SvgjsPolyline1925" points="-447,-213 -441,-214 -415,-204 -397,-199 -404,-199 -432,-205 -455,-212 -462,-217" fill-opacity="0.8" fill="#181107"/><polyline id="SvgjsPolyline1926" points="-135,-144 -158,-135 -184,-132 -222,-129 -349,-127 -384,-120 -404,-99 -428,-90 -476,-77 -496,-68 -505,-60 -512,-51 -528,-38 -536,-34 -552,-30 -623,-18 -647,-12 -649,-11 -649,-9 -634,-4 -599,-3 -457,-30 -429,-32 -375,-29 -352,-31 -284,-50 -272,-50 -261,-48 -249,-43 -199,-30 -153,-25 -103,-24 -89,-25 -73,-30 -62,-31 -71,-33 -76,-37 -79,-42 -85,-79 -83,-106 -78,-120 -77,-155 -72,-166 -104,-166 -105,-164 -117,-156 -123,-154 -127,-150" fill-opacity="0.3" fill="#181107"/></g><filter id="acidrain"><feTurbulence id="SvgjsFeTurbulence1215" baseFrequency="0.138 0.007" filterName="feTurbulence" in="SourceGraphic" numOctaves="3" result="noise" seed="1" type="fractalNoise"><animate id="SvgjsAnimate1216" attributeName="seed" dur="2.6" values="0;26" attributeType="XML" repeatCount="indefinite"/></feTurbulence><feColorMatrix id="SvgjsFeColorMatrix1217" filterName="feColorMatrix" in="noise" result="mat" values="0 0 0 0 0 0 0 0 0.45 0 0 0 0 1 1 0 0 0 0 1"/><feComponentTransfer id="SvgjsFeComponentTransfer1218" filterName="feComponentTransfer" in="mat" result="f1"><feFuncR id="SvgjsFeFuncR1219" filterName="feFuncR" tableValues="0 0.15 0.26" type="discrete"/><feFuncG id="SvgjsFeFuncG1220" filterName="feFuncG" tableValues="0 0.25 0.54" type="discrete"/><feFuncB id="SvgjsFeFuncB1221" filterName="feFuncB" tableValues="0.59 0.61 0.73" type="discrete"/></feComponentTransfer><feComponentTransfer id="SvgjsFeComponentTransfer1222" color-interpolation-filters="sRGB" filterName="feComponentTransfer" in="f1" result="f2"><feFuncR id="SvgjsFeFuncR1223" filterName="feFuncR" tableValues="0.35213715796377143 0.602949613683364 0.7930470784505208 " type="table"/><feFuncG id="SvgjsFeFuncG1224" filterName="feFuncG" tableValues="0.20873899272843904 0.42382276946423103 0.6167555865119485 " type="table"/><feFuncB id="SvgjsFeFuncB1225" filterName="feFuncB" tableValues="0.04722455716600605 0.18970957737342983 0.37167959774241727 " type="table"/></feComponentTransfer></filter><filter id="heartbeat"><feTurbulence id="SvgjsFeTurbulence1344" baseFrequency="0.1 0.005" filterName="feTurbulence" numOctaves="1" result="turbulence" seed="6" stitchTiles="stitch"><animate id="SvgjsAnimate1345" attributeName="seed" dur="1" values="6;2;4;1" attributeType="XML" repeatCount="indefinite"/></feTurbulence><feDisplacementMap id="SvgjsFeDisplacementMap1346" filterName="feDisplacementMap" in="SourceGraphic" in2="turbulence" result="displacementMap" scale="100"/></filter><filter id="glow"><feTurbulence id="SvgjsFeTurbulence1687" baseFrequency="1.2 1.2" filterName="feTurbulence" in="SourceGraphic" numOctaves="1" result="f1" seed="0" stitchTiles="noStitch" type="fractalNoise"/><feColorMatrix id="SvgjsFeColorMatrix1688" filterName="feColorMatrix" in="SourceGraphic" result="f2" type="matrix" values="0 0 0 0 0, 0 0 0 0 0, 0 0 0 0 0, 0 0 0 -1.5 2.8"/><feComposite id="SvgjsFeComposite1689" filterName="feComposite" in="SourceGraphic" in2="f2" operator="in" result="f3"/><feTurbulence id="SvgjsFeTurbulence1690" baseFrequency="1.8 1.8" filterName="feTurbulence" in="SourceGraphic" numOctaves="3" result="noise" seed="0" stitchTiles="noStitch" type="fractalNoise"/><feDisplacementMap id="SvgjsFeDisplacementMap1691" filterName="feDisplacementMap" in="SourceGraphic" result="f4" scale="10"><animate id="SvgjsAnimate1692" attributeName="scale" dur="1" values="10;100;10" attributeType="XML" repeatCount="indefinite"/></feDisplacementMap></filter><filter id="water"><feTurbulence id="SvgjsFeTurbulence1769" baseFrequency="0.01 0.05" filterName="feTurbulence" numOctaves="1" result="turbulence" seed="0" stitchTiles="noStitch"/><feDisplacementMap id="SvgjsFeDisplacementMap1770" filterName="feDisplacementMap" in="SourceGraphic" in2="turbulence" result="displacementMap" scale="200"><animate id="SvgjsAnimate1771" attributeName="scale" dur="3" values="200;100;50;100;200" attributeType="XML" repeatCount="indefinite"/></feDisplacementMap></filter><filter id="squiggly-animated"><feTurbulence id="SvgjsFeTurbulence1804" baseFrequency="0.02 0.02" filterName="feTurbulence" numOctaves="3" result="noise" seed="0"><animate id="SvgjsAnimate1805" attributeName="seed" dur="0.25" values="0;1;2;4" attributeType="XML" repeatCount="indefinite"/></feTurbulence><feDisplacementMap id="SvgjsFeDisplacementMap1806" filterName="feDisplacementMap" in="SourceGraphic" in2="noise" result="done" scale="6"><animate id="SvgjsAnimate1807" attributeName="scale" dur="0.25" values="6;9;12;15" attributeType="XML" repeatCount="indefinite"/></feDisplacementMap></filter><filter id="blocky"><feTurbulence id="SvgjsFeTurbulence1916" baseFrequency="0.0500 0.0530" filterName="feTurbulence" in="" numOctaves="1" result="VmZuCt" seed="58" stitchTiles="noStitch" type="fractalNoise"/><feDisplacementMap id="SvgjsFeDisplacementMap1917" filterName="feDisplacementMap" in="SourceGraphic" in2="VmZuCt" result="qDi37C" scale="92" xChannelSelector="R" yChannelSelector="G"><animate id="SvgjsAnimate1918" attributeName="scale" dur="1" values="92;16;92" attributeType="XML" repeatCount="indefinite"/></feDisplacementMap><feConvolveMatrix id="SvgjsFeConvolveMatrix1919" filterName="feConvolveMatrix" in="qDi37C" kernelMatrix="0 0 0 0 -1 1 0 1 0" result="VDSqni"/><feMorphology id="SvgjsFeMorphology1920" filterName="feMorphology" in="VDSqni" operator="dilate" radius="8" result="YGcF3q"/></filter></svg>