<svg xmlns="http://www.w3.org/2000/svg" xmlnsXlink="http://www.w3.org/1999/xlink" xmlnsSvgjs="http://svgjs.com/svgjs" id="main-canvas" version="1.1" viewBox="36.5 55 619 470"><defs id="SvgjsDefs1002"/><g id="sketchGroup" transform="matrix(1,0,0,1,585.5,335)"><polyline id="SvgjsPolyline1096" points="-483,-223 -476,-218 -471,-210 -415,-161 -364,-110 -316,-70 -266,-33 -228,-10 -208,4 -198,8 -139,40 -118,48 -99,52 -88,77 -75,95 -62,97 -44,97 -44,100 -54,109 -52,117 -43,121 -23,119 -36,119 -36,117" fill="none" stroke-linejoin="round" stroke-linecap="round" stroke-opacity="1" stroke="#000000" stroke-width="4" filter="url(#canvas)"/><polyline id="SvgjsPolyline1136" points="-504,-158 -475,-182 -440,-202 -416,-209 -390,-212 -339,-211 -324,-207 -296,-203 -286,-199 -282,-199 -275,-195 -269,-195 -258,-191 -236,-187 -180,-187 -130,-192 -74,-192 -64,-191 -52,-187 -44,-182 -24,-165 -9,-148 0,-135 6,-122 7,-90 4,-71 2,-39 -6,12 -10,24 -18,39 -29,53 -67,93 -81,112" fill="none" stroke-linejoin="round" stroke-linecap="round" stroke-opacity="1" stroke="#4a90e2" stroke-width="82" filter="url(#glow)"/><polyline id="SvgjsPolyline1144" points="-257,-239 -247,-235 -210,-230 -161,-230 -132,-233 -74,-235 -22,-234 -5,-228 0,-219 5,-204 8,-201 9,-195 12,-190 12,-184" fill="none" stroke-linejoin="round" stroke-linecap="round" stroke-opacity="1" stroke="#4a90e2" stroke-width="82" filter="url(#glow)"/><polyline id="SvgjsPolyline1160" points="-470,-144 -480,-137 -484,-130 -488,-127 -503,-102 -506,-95 -508,-80 -507,-63 -497,-11 -496,13 -492,38 -492,60 -487,81 -488,109 -481,121 -469,133 -460,137 -457,141 -445,145 -420,145 -404,141" fill="none" stroke-linejoin="round" stroke-linecap="round" stroke-opacity="1" stroke="#4a90e2" stroke-width="82" filter="url(#glow)"/><polyline id="SvgjsPolyline1168" points="-28,129 -21,125 -18,121 -7,113 4,101 27,81 29,69" fill="none" stroke-linejoin="round" stroke-linecap="round" stroke-opacity="1" stroke="#4a90e2" stroke-width="82" filter="url(#glow)"/><polyline id="SvgjsPolyline1176" points="-474,-50 -466,-52 -459,-59 -438,-87 -375,-153 -353,-167 -316,-171 -303,-169 -276,-156 -260,-153 -245,-151 -205,-152" fill="none" stroke-linejoin="round" stroke-linecap="round" stroke-opacity="1" stroke="#4a90e2" stroke-width="82" filter="url(#glow)"/><polyline id="SvgjsPolyline1184" points="-438,-178 -438,-178" fill="none" stroke-linejoin="round" stroke-linecap="round" stroke-opacity="1" stroke="#4a90e2" stroke-width="82" filter="url(#glow)"/><polyline id="SvgjsPolyline1192" points="-434,-159 -392,-159" fill="none" stroke-linejoin="round" stroke-linecap="round" stroke-opacity="1" stroke="#4a90e2" stroke-width="82" filter="url(#glow)"/><polyline id="SvgjsPolyline1208" points="-201,-159 -182,-154 -177,-151 -131,-143 -81,-130 -65,-121 -56,-107 -52,-94 -52,-70 -56,-52 -60,-42 -73,-19 -100,14 -106,30 -106,40 -104,45 -104,70 -106,76 -116,88 -171,117" fill="none" stroke-linejoin="round" stroke-linecap="round" stroke-opacity="1" stroke="#4ac9e2" stroke-width="82" filter="url(#glow)"/><polyline id="SvgjsPolyline1216" points="-236,-155 -251,-151 -304,-144 -345,-145 -371,-149 -384,-149 -415,-142 -428,-136 -432,-132 -432,-128 -436,-121 -440,-107 -441,-95 -441,-79 -437,-55 -440,-43 -444,-38 -450,-22 -452,-8 -454,-3 -458,1 -462,17 -456,42 -448,57 -438,71 -405,110 -397,117 -372,132 -360,138 -355,138 -343,142" fill="none" stroke-linejoin="round" stroke-linecap="round" stroke-opacity="1" stroke="#4ac9e2" stroke-width="82" filter="url(#glow)"/><polyline id="SvgjsPolyline1224" points="-400,-93 -363,-100 -340,-109" fill="none" stroke-linejoin="round" stroke-linecap="round" stroke-opacity="1" stroke="#4ac9e2" stroke-width="82" filter="url(#glow)"/><polyline id="SvgjsPolyline1232" points="-219,-124 -200,-120 -181,-119" fill="none" stroke-linejoin="round" stroke-linecap="round" stroke-opacity="1" stroke="#4ac9e2" stroke-width="82" filter="url(#glow)"/><polyline id="SvgjsPolyline1256" points="-406,149 -425,127 -438,117 -456,107 -473,93 -476,92 -477,89 -482,85 -488,74 -496,65 -496,61 -498,59 -500,50 -500,24 -498,15 -487,-17 -482,-27 -476,-47 -469,-62 -456,-110 -454,-134 -462,-159 -462,-165 -456,-175 -448,-181 -428,-191 -404,-199 -394,-200 -355,-199 -334,-195 -327,-192 -271,-183 -236,-183 -186,-195 -165,-198 -152,-198 -134,-195 -108,-187 -100,-183 -80,-178 -39,-152 -15,-143 -5,-137 0,-128 3,-107 5,-75 9,-57 8,-41 -8,-13 -33,10 -56,27 -62,36 -63,57 -53,97 -53,108 -60,120 -73,131 -88,141 -112,150 -116,153 -146,161" fill="none" stroke-linejoin="round" stroke-linecap="round" stroke-opacity="1" stroke="#4aa9e2" stroke-width="50" filter="url(#glow)"/><polyline id="SvgjsPolyline1272" points="-368,-58 -350,-68 -328,-71 -313,-76 -302,-83 -297,-90 -291,-95 -291,-97 -278,-103 -267,-106 -256,-105 -225,-87 -203,-81 -187,-81 -156,-87 -148,-90 -134,-91 -132,-93 -120,-95 -114,-95 -112,-92 -108,-91 -100,-76 -100,-57 -107,-45 -144,-10 -148,-4 -151,6 -151,24 -146,41 -146,52 -158,63 -168,69 -187,93 -192,103 -197,109 -202,121 -202,143 -207,147 -228,156 -257,165 -265,165 -279,161 -289,153 -295,145 -306,121 -308,113 -317,98 -322,93 -332,87 -348,81 -367,77 -373,73 -376,73 -383,69 -390,62 -405,45 -420,21 -423,14 -425,1 -425,-6 -423,-12 -407,-30 -385,-47 -366,-59 -360,-61 -359,-63 -356,-63 -347,-68 -355,-61 -363,-57 -388,-35 -401,-7 -404,5 -403,36 -392,49 -372,57 -352,56 -344,50 -337,41 -333,27 -328,-1 -328,-49 -326,-53 -322,-55 -313,-29 -311,5 -308,17 -306,37 -301,53 -296,62 -298,63 -330,45 -351,37 -366,26 -377,15 -388,-2 -388,-15 -378,-30 -379,-34 -368,-31 -352,-20 -348,-15 -345,5 -340,19 -328,33 -321,37 -306,51 -292,70 -276,105 -260,129 -255,144 -252,136 -252,90 -254,69 -260,44 -267,28 -275,-1 -283,-43 -283,-73 -278,-107 -272,-132 -268,-127 -257,-103 -220,-16 -204,44 -201,85 -205,105 -214,120 -218,123 -224,123 -236,111 -251,80 -256,61 -257,41 -248,-2 -240,-20 -229,-37 -225,-48 -224,-59 -220,-67 -205,-73 -202,-73 -200,-71 -196,-61 -193,-47 -192,-27 -195,1 -202,25 -217,57 -222,64 -223,61 -208,28 -197,-1 -192,-25 -188,-36 -180,-46 -173,-50 -152,-59 -130,-63 -114,-72 -113,-67 -147,-3 -152,24 -170,45 -187,57 -191,57 -198,61 -204,62 -212,67" fill="none" stroke-linejoin="round" stroke-linecap="round" stroke-opacity="1" stroke="#4ad3e2" stroke-width="50" filter="url(#glow)"/><polyline id="SvgjsPolyline1280" points="-365,-85 -365,-83 -347,-91 -337,-92 -320,-100 -297,-114 -292,-115 -163,-115 -132,-106 -121,-99 -112,-89 -108,-67" fill="none" stroke-linejoin="round" stroke-linecap="round" stroke-opacity="1" stroke="#4ad3e2" stroke-width="50" filter="url(#glow)"/><polyline id="SvgjsPolyline1288" points="-362,-43 -365,-55 -365,-62 -371,-82 -371,-96 -368,-113 -368,-123 -364,-127 -350,-128 -330,-123 -316,-118 -304,-111 -301,-111 -277,-99 -256,-97" fill="none" stroke-linejoin="round" stroke-linecap="round" stroke-opacity="1" stroke="#4ad3e2" stroke-width="50" filter="url(#glow)"/><polyline id="SvgjsPolyline1318" points="-265,-91 -279,-90 -282,-87 -284,-87 -291,-82 -292,-79 -297,-74 -300,-67 -302,-44 -296,-34 -296,-30 -292,-22 -292,-17 -288,-9 -288,-5 -285,0 -280,4 -253,4 -251,1 -246,0 -231,-10 -220,-21 -220,-23 -217,-24 -216,-28 -209,-38 -204,-54 -204,-77 -208,-83 -214,-87 -219,-87 -227,-91 -234,-91 -252,-95 -284,-95 -292,-91 -296,-87 -296,-72 -292,-68 -292,-66 -286,-61 -283,-55 -280,-18 -275,-9 -272,-7 -269,-7 -260,-23 -259,-43 -260,-49 -266,-63 -276,-75 -281,-77 -276,-62 -272,-57 -271,-52 -264,-44 -262,-36 -260,-35 -260,-28 -256,-17 -256,-12 -251,-4 -247,-4 -244,-6 -237,-15 -229,-35 -227,-53 -228,-57 -234,-63 -256,-67 -266,-72 -275,-84 -276,-89 -265,-90 -256,-86 -248,-78 -245,-71 -243,-56 -239,-42 -238,-27 -240,-23 -240,-30 -232,-48 -231,-71 -228,-79 -225,-81 -214,-81 -209,-78 -207,-72 -209,-60 -215,-54 -220,-53 -220,-58 -223,-61" fill="none" stroke-linejoin="round" stroke-linecap="round" stroke-opacity="1" stroke="#ffc28f" stroke-width="20" filter="url(#pencil)"/><polyline id="SvgjsPolyline1325" points="-194,-44 -196,-44 -198,-47 -199,-57 -194,-62 -180,-61 -178,-59 -178,-55 -181,-48 -184,-47 -186,-43 -195,-36 -202,-34 -215,-34" fill="none" stroke-linejoin="round" stroke-linecap="round" stroke-opacity="1" stroke="#ffc28f" stroke-width="20" filter="url(#pencil)"/><polyline id="SvgjsPolyline1332" points="-254,-4 -248,11 -246,37 -251,38 -253,41 -258,42 -260,44 -268,45 -274,49 -292,54 -293,56 -299,58 -303,62 -306,72 -306,80 -304,81 -304,85 -300,90 -300,95 -296,105 -296,117 -294,125 -295,160" fill="none" stroke-linejoin="round" stroke-linecap="round" stroke-opacity="1" stroke="#ffc28f" stroke-width="20" filter="url(#pencil)"/><polyline id="SvgjsPolyline1339" points="-277,-21 -276,-20 -264,-24 -263,-26 -248,-35" fill="none" stroke-linejoin="round" stroke-linecap="round" stroke-opacity="1" stroke="#ffc28f" stroke-width="20" filter="url(#pencil)"/><polyline id="SvgjsPolyline1346" points="-280,161 -280,146 -276,126 -276,79 -284,75 -291,69 -289,67 -256,60 -252,57 -243,56 -231,49 -222,48 -243,66 -244,69 -248,71 -248,73 -252,77 -253,91 -249,100 -248,107 -246,156 -248,159 -252,161 -272,160 -271,154 -256,140 -247,128 -247,126 -244,124 -239,112 -229,95 -225,87 -221,71 -220,57 -233,85 -234,96 -229,106 -224,122 -224,132 -220,144 -217,145 -210,156 -196,163 -199,155 -201,127 -203,122 -204,111 -206,107 -208,91 -211,84 -212,60 -216,50 -216,45 -221,34 -228,24 -230,17 -232,16 -233,-10 -231,-22 -228,-2 -220,25 -204,57 -191,77 -184,92 -172,111 -172,114 -168,119 -168,123 -164,129 -160,149 -176,153 -196,153 -204,150 -230,150 -236,152 -221,153 -207,149 -204,146 -200,145 -192,133 -188,125 -188,122 -180,113 -176,113 -175,116 -175,131 -178,135 -202,141 -238,143 -248,146 -249,149 -238,157 -213,157 -180,150 -169,150 -171,153 -197,159 -266,163 -262,163" fill="none" stroke-linejoin="round" stroke-linecap="round" stroke-opacity="1" stroke="#ffc28f" stroke-width="30" filter="url(#pencil)"/><polyline id="SvgjsPolyline1362" points="-195,65 -196,71 -207,93 -211,96 -218,97 -230,104 -236,114 -238,120 -238,131 -232,164 -220,167 -192,167 -176,165 -152,153 -152,146 -156,134 -162,117 -169,103 -176,93 -202,69 -212,57 -219,45 -220,37 -216,37 -216,39 -208,41 -206,49 -207,57 -216,74 -224,84 -232,89 -238,95 -240,99 -240,108 -242,115 -241,119 -226,134 -225,153 -230,158 -236,161 -236,163 -249,166 -258,165 -258,161 -251,146 -242,136 -184,94 -180,107 -180,125 -185,140 -189,149 -197,154 -206,157 -207,156 -204,145 -188,124 -188,121 -177,121 -172,126 -172,130 -173,133 -185,133 -201,127" fill="none" stroke-linejoin="round" stroke-linecap="round" stroke-opacity="1" stroke="#e29c60" stroke-width="30" filter="url(#glow)"/><polyline id="SvgjsPolyline1399" points="-255,-119 -252,-123 -240,-131 -235,-131 -206,-138 -196,-137 -163,-94 -152,-71 -152,-68 -148,-63 -148,-59" fill-opacity="1" fill="#141414" filter="url(#pencil)"/><polyline id="SvgjsPolyline1406" points="-252,-117 -261,-124 -274,-128 -276,-130 -287,-131 -295,-126 -297,-123 -299,-123 -308,-113 -309,-101 -307,-93 -305,-91" fill-opacity="1" fill="#141414" filter="url(#pencil)"/><polyline id="SvgjsPolyline1431" points="-304,-103 -322,-80 -341,-63 -344,-63 -355,-55 -371,-47 -379,-45 -381,-43 -437,-34 -460,-27 -464,-27 -479,-21 -489,-15 -497,-7 -502,8 -502,12 -498,21 -496,21 -480,36 -472,40 -432,52" fill="none" stroke-linejoin="round" stroke-linecap="round" stroke-opacity="1" stroke="#141414" stroke-width="12" filter="url(#slow-wave)"/><polyline id="SvgjsPolyline1441" points="-341,-51 -355,-47 -407,-37 -424,-37 -431,-40 -439,-46 -444,-54 -444,-64 -441,-67 -428,-67" fill="none" stroke-linejoin="round" stroke-linecap="round" stroke-opacity="1" stroke="#141414" stroke-width="12" filter="url(#slow-wave)"/><polyline id="SvgjsPolyline1446" points="-320,-58 -325,-51 -329,-36 -332,-31 -350,-15 -360,-8 -382,3 -410,11 -416,19 -416,25 -391,49 -372,49 -360,47 -352,48 -352,52 -349,57 -349,65 -353,72 -373,81 -382,82 -386,84 -433,85 -471,89 -492,96 -500,97 -516,103 -517,105 -524,109 -528,113 -528,116 -531,121 -531,123 -528,124" fill="none" stroke-linejoin="round" stroke-linecap="round" stroke-opacity="1" stroke="#141414" stroke-width="12" filter="url(#slow-wave)"/><polyline id="SvgjsPolyline1451" points="-283,14 -300,37 -310,47 -326,57 -339,61 -343,65 -345,69 -342,71 -340,75 -339,85 -340,89 -344,93 -374,113 -379,114 -393,121 -398,121 -408,125 -448,134 -459,138 -478,150 -484,156 -488,168 -488,173 -484,172 -483,170 -473,165 -471,162 -456,157 -415,157 -389,164 -366,168 -308,165 -309,162 -311,162 -312,160 -315,150 -316,125 -312,109 -308,102 -308,97 -306,96 -303,81 -303,77 -308,76 -309,62 -303,46 -300,44 -300,42 -296,41" fill="none" stroke-linejoin="round" stroke-linecap="round" stroke-opacity="1" stroke="#141414" stroke-width="12" filter="url(#slow-wave)"/><polyline id="SvgjsPolyline1456" points="-256,-111 -248,-115 -238,-115 -239,-104 -254,-81 -256,-75 -256,-67 -239,-51 -229,-48" fill="none" stroke-linejoin="round" stroke-linecap="round" stroke-opacity="1" stroke="#141414" stroke-width="12" filter="url(#slow-wave)"/><polyline id="SvgjsPolyline1461" points="-263,-124 -263,-126 -258,-130 -250,-134 -245,-135 -239,-139 -235,-139 -224,-143 -208,-146 -193,-146 -184,-143 -170,-127 -165,-117 -164,-111 -162,-110 -153,-77 -152,-55 -144,-32 -122,-27 -110,-26 -106,-24 -68,-24 -59,-27 -49,-26 -37,-2 -35,9 -35,31 -42,46 -46,51 -50,53 -52,57 -58,61" fill="none" stroke-linejoin="round" stroke-linecap="round" stroke-opacity="1" stroke="#141414" stroke-width="12" filter="url(#slow-wave)"/><polyline id="SvgjsPolyline1466" points="-107,-15 -103,-15 -98,-12 -92,-11 -88,-8 -78,-7 -74,-5 -72,-3 -71,4 -68,9 -68,25 -80,33 -80,35 -86,41 -88,41 -93,47 -101,51" fill="none" stroke-linejoin="round" stroke-linecap="round" stroke-opacity="1" stroke="#141414" stroke-width="12" filter="url(#slow-wave)"/><polyline id="SvgjsPolyline1471" points="-148,-58 -148,-23 -154,-3 -153,7 -138,33 -128,45 -91,69 -70,75 -42,79 -31,79 2,71 18,72 29,84 35,99 36,121 40,138 -4,145 -82,145 -99,142 -142,139 -143,138 -140,137 -138,134 -138,125 -142,113 -144,112 -154,97 -164,87 -164,85 -172,79 -172,77 -184,62 -188,53 -193,52 -197,49" fill="none" stroke-linejoin="round" stroke-linecap="round" stroke-opacity="1" stroke="#141414" stroke-width="12" filter="url(#slow-wave)"/><polyline id="SvgjsPolyline1476" points="-209,-19 -213,-10 -217,-7 -220,-7 -221,-5 -232,1 -236,5 -238,5 -242,10 -242,19 -240,27 -224,43" fill="none" stroke-linejoin="round" stroke-linecap="round" stroke-opacity="1" stroke="#141414" stroke-width="12" filter="url(#slow-wave)"/><polyline id="SvgjsPolyline1481" points="-206,-2 -206,13 -200,25 -186,39 -175,57" fill="none" stroke-linejoin="round" stroke-linecap="round" stroke-opacity="1" stroke="#141414" stroke-width="12" filter="url(#slow-wave)"/><polyline id="SvgjsPolyline1488" points="-104,126 -104,128 -101,129 -85,132 -60,132 -5,125 16,125 16,119 13,110 0,96 -20,96 -36,98 -56,104 -66,105 -92,105 -106,100 -117,92 -126,81 -144,65 -155,45 -160,31 -164,26 -166,26 -174,18 -176,18 -188,5 -188,-5 -184,-14 -164,-29 -164,-31 -161,-32 -161,-16 -155,3 -153,5 -147,36 -144,45 -140,50 -140,53 -137,55 -128,72 -100,88 -72,100 -48,108 -88,117 -109,120 -129,120 -136,105 -152,85 -154,85 -159,80 -163,73 -172,48 -176,29 -190,23 -196,16 -197,1 -196,-6 -193,-10 -196,-16 -195,-18 -186,-19 -180,-22 -173,-23 -171,-25 -165,-32 -160,-58 -160,-67 -176,-75 -184,-90 -184,-102 -178,-111 -178,-113 -183,-114" fill="none" stroke-linejoin="round" stroke-linecap="round" stroke-opacity="1" stroke="#141414" stroke-width="32" filter="url(#pencil)"/><polyline id="SvgjsPolyline1495" points="-431,154 -396,149 -381,149 -370,150 -362,153 -329,154 -333,157 -354,161 -384,162 -400,160 -406,157 -413,156 -408,153 -399,152 -348,152 -340,150 -339,137 -341,132 -341,123 -339,117 -330,106 -322,104 -320,106 -320,121 -316,121 -314,118 -314,106 -316,98 -320,96 -324,89 -322,85 -308,77 -310,77 -316,82 -324,97 -331,117 -336,141 -338,142 -340,148 -338,155 -328,155 -320,157 -324,147 -327,125 -326,140 -324,147 -324,171 -320,171 -320,165 -323,156 -334,133 -368,133 -382,137 -383,139 -380,139" fill="none" stroke-linejoin="round" stroke-linecap="round" stroke-opacity="1" stroke="#141414" stroke-width="32" filter="url(#pencil)"/><polyline id="SvgjsPolyline1502" points="-448,142 -451,143 -452,145 -475,153 -483,161 -475,161 -454,157 -444,153 -440,153 -436,150 -430,150" fill="none" stroke-linejoin="round" stroke-linecap="round" stroke-opacity="1" stroke="#141414" stroke-width="14" filter="url(#pencil)"/><polyline id="SvgjsPolyline1509" points="-412,157 -428,161 -432,164 -444,168 -466,171 -479,171 -465,169 -405,154 -388,148 -384,142 -380,140 -356,117 -331,81 -321,73 -314,60 -312,53 -312,49 -314,49" fill="none" stroke-linejoin="round" stroke-linecap="round" stroke-opacity="1" stroke="#141414" stroke-width="14" filter="url(#pencil)"/><polyline id="SvgjsPolyline1516" points="-134,141 -143,137 -143,126 -145,117 -155,104 -156,93 -160,82 -160,78 -167,69 -172,58 -178,53 -179,50 -186,45" fill="none" stroke-linejoin="round" stroke-linecap="round" stroke-opacity="1" stroke="#141414" stroke-width="14" filter="url(#pencil)"/><polyline id="SvgjsPolyline1523" points="-266,-109 -267,-122 -264,-130 -254,-140 -207,-154 -197,-154 -184,-151 -180,-147 -180,-143 -176,-135 -175,-115 -173,-107 -155,-91 -153,-91 -149,-77 -153,-77 -174,-103 -177,-104 -199,-123 -209,-129 -215,-135 -217,-140 -223,-141 -234,-135 -238,-131 -232,-131 -202,-140 -176,-141 -172,-139 -168,-130 -168,-123 -176,-123 -180,-126 -182,-131 -186,-132 -192,-137 -209,-138 -223,-134 -225,-132 -232,-131 -248,-123 -252,-123 -265,-117" fill="none" stroke-linejoin="round" stroke-linecap="round" stroke-opacity="1" stroke="#141414" stroke-width="14" filter="url(#pencil)"/><polyline id="SvgjsPolyline1530" points="-275,-121 -279,-121 -285,-128 -292,-128 -303,-123 -308,-119 -312,-108 -312,-97 -310,-93 -308,-67 -309,-63 -316,-57 -316,-55 -324,-50" fill="none" stroke-linejoin="round" stroke-linecap="round" stroke-opacity="1" stroke="#141414" stroke-width="14" filter="url(#pencil)"/><polyline id="SvgjsPolyline1544" points="-509,149 -509,141 -504,133 -496,125 -484,118 -467,112 -387,113 -360,107 -339,100 -325,91 -310,78 -304,71 -302,65 -314,66 -357,83 -372,88 -384,90 -387,92 -399,93 -416,99 -462,105 -472,107 -475,109 -480,109 -485,112 -496,123 -505,135 -517,147 -511,141 -495,131 -459,113 -417,104 -376,93 -318,96 -359,96 -369,93 -392,93 -365,97 -353,97 -333,91 -328,88 -328,85 -325,84" fill="none" stroke-linejoin="round" stroke-linecap="round" stroke-opacity="1" stroke="#141414" stroke-width="14" filter="url(#pencil)"/><polyline id="SvgjsPolyline1551" points="-370,13 -364,13 -328,1 -311,-3 -317,-14 -324,-22 -325,-27" fill="none" stroke-linejoin="round" stroke-linecap="round" stroke-opacity="1" stroke="#141414" stroke-width="14" filter="url(#pencil)"/><polyline id="SvgjsPolyline1558" points="-336,-7 -346,-7 -333,-8 -330,-10 -320,-12 -317,-14 -319,-14 -306,-19 -297,-20 -301,-20 -308,-25 -310,-48 -313,-51 -318,-52 -321,-51 -323,-41 -323,-32 -321,-28 -319,-25 -304,-14 -293,-1 -286,2 -301,3 -313,0 -367,1 -392,7 -396,11 -398,21 -399,23 -400,22 -400,20 -365,6 -357,5 -348,0 -343,0" fill="none" stroke-linejoin="round" stroke-linecap="round" stroke-opacity="1" stroke="#141414" stroke-width="14" filter="url(#pencil)"/><polyline id="SvgjsPolyline1565" points="-279,13 -275,13 -272,15 -271,24 -275,30 -280,30 -267,29 -260,25 -257,25 -257,17 -267,16 -269,21 -274,22 -278,25 -288,25 -305,30 -320,42 -336,67 -352,85 -366,91 -377,92 -364,92 -344,85 -338,80 -320,57 -306,45 -274,27 -268,27 -277,33 -296,38 -300,41 -307,43 -320,51 -324,56 -329,58 -351,77 -355,78 -356,80 -358,80 -368,87 -378,92 -388,94 -392,97 -403,99 -382,103 -379,105 -356,105 -356,101 -353,100" fill="none" stroke-linejoin="round" stroke-linecap="round" stroke-opacity="1" stroke="#141414" stroke-width="14" filter="url(#pencil)"/><polyline id="SvgjsPolyline1567" points="-281,50 -290,54 -294,58 -294,72 -289,88 -288,122 -284,102 -281,95 -281,68 -289,63 -293,63 -292,78 -285,101 -285,124 -283,109 -276,93 -272,80 -271,67 -269,64 -278,59 -285,58 -279,55 -269,53" fill="none" stroke-linejoin="round" stroke-linecap="round" stroke-opacity="1" stroke="#ffc28f" stroke-width="14"/><polyline id="SvgjsPolyline1568" points="-294,57 -295,74 -292,80 -290,93 -290,137 -292,149 -292,178 -291,134 -292,130 -296,126 -298,119 -296,63 -293,61 -276,59 -289,60 -297,63 -297,141 -294,174" fill="none" stroke-linejoin="round" stroke-linecap="round" stroke-opacity="1" stroke="#ffc28f" stroke-width="14"/><polyline id="SvgjsPolyline1573" points="-276,-89 -291,-89 -293,-83 -293,-56 -286,-20" fill="none" stroke-linejoin="round" stroke-linecap="round" stroke-opacity="1" stroke="#ffc28f" stroke-width="14"/><polyline id="SvgjsPolyline1574" points="-284,-83 -284,-61" fill="none" stroke-linejoin="round" stroke-linecap="round" stroke-opacity="1" stroke="#ffc28f" stroke-width="14"/><polyline id="SvgjsPolyline1575" points="-292,-54 -293,-16 -291,-9 -278,6 -273,8 -264,1 -251,-4 -240,-11" fill="none" stroke-linejoin="round" stroke-linecap="round" stroke-opacity="1" stroke="#ffc28f" stroke-width="14"/><polyline id="SvgjsPolyline1577" points="-269,7 -261,7 -252,4 -251,1" fill="none" stroke-linejoin="round" stroke-linecap="round" stroke-opacity="1" stroke="#ffc28f" stroke-width="14"/><polyline id="SvgjsPolyline1578" points="-200,-36 -190,-35 -187,-42 -187,-48 -190,-49" fill="none" stroke-linejoin="round" stroke-linecap="round" stroke-opacity="1" stroke="#ffc28f" stroke-width="14"/><polyline id="SvgjsPolyline1593" points="-207,6 -207,29 -189,49 -170,66 -164,74 -163,83 -166,88 -181,94 -206,95 -216,93 -245,93 -264,102 -271,108 -279,117 -283,129 -283,135 -274,148 -247,168 -242,169" fill="none" stroke-linejoin="round" stroke-linecap="round" stroke-opacity="1" stroke="#000000" stroke-width="14" filter="url(#slow-wave)"/><polyline id="SvgjsPolyline1598" points="-153,49 -134,66 -132,72 -133,92 -136,103 -140,111 -148,120 -155,124 -176,129 -195,131 -216,138 -220,148 -220,153 -212,165 -209,166 -207,169 -200,173 -193,174 -200,173 -209,165 -30,165 -19,161 -12,153 -19,152 -20,149" fill="none" stroke-linejoin="round" stroke-linecap="round" stroke-opacity="1" stroke="#000000" stroke-width="14" filter="url(#slow-wave)"/><polyline id="SvgjsPolyline1605" points="-201,154 -160,149 -134,149 -151,157 -171,161 -185,162 -108,161 -100,159 -76,159 -28,165 -30,168 -50,176 -76,180 -107,182 -131,177 -141,174 -145,171 -161,167 -216,165 -225,161 -226,154 -217,147 -212,145 -184,141 -149,140 -195,149 -173,148 -148,143 -110,140 -99,140 -90,144 -76,145 -40,143 -77,148 -122,158 -112,162 -111,164 -113,168 -119,169 -134,170 -101,165 -75,159 -62,149 -60,145 -43,126 -26,116 -13,117 -5,123 7,123 15,125 15,128 -12,139 -24,141 -44,149 -65,155 -112,165 -156,167 -139,157 -131,150 -121,146 -95,152 -97,165 -82,165 -14,153 30,141 15,141 2,137 3,133 22,123" fill="none" stroke-linejoin="round" stroke-linecap="round" stroke-opacity="1" stroke="#000000" stroke-width="14" filter="url(#pencil)"/><polyline id="SvgjsPolyline1633" points="-185,-79 -188,-78 -195,-65 -203,-55 -212,-47 -222,-43 -224,-39 -229,-37 -235,-29 -235,-23 -232,-35 -230,-36 -224,-50 -214,-64 -206,-72 -206,-79 -209,-85 -212,-103 -219,-119" fill="none" stroke-linejoin="round" stroke-linecap="round" stroke-opacity="1" stroke="#000000" stroke-width="4" filter="url(#pencil)"/><polyline id="SvgjsPolyline1640" points="-208,-82 -206,-82 -203,-79 -201,-69 -202,-67 -216,-59" fill="none" stroke-linejoin="round" stroke-linecap="round" stroke-opacity="1" stroke="#000000" stroke-width="4" filter="url(#pencil)"/><polyline id="SvgjsPolyline1654" points="-208,-91 -207,-88 -204,-86 -203,-77 -216,-51 -212,-56 -212,-59 -208,-65 -205,-74 -185,-94 -184,-84 -188,-76 -200,-67 -219,-45 -225,-43" fill="none" stroke-linejoin="round" stroke-linecap="round" stroke-opacity="1" stroke="#141414" stroke-width="10" filter="url(#pencil)"/><polyline id="SvgjsPolyline1661" points="-156,1 -154,5 -140,13 -132,22 -132,24 -129,25 -124,37 -88,61 -72,69 -55,73 -14,77 3,82 8,86 12,92 13,102 9,105 7,113 0,113 -52,99 -70,88 -87,81 -64,81 -47,85 -41,85" fill="none" stroke-linejoin="round" stroke-linecap="round" stroke-opacity="1" stroke="#141414" stroke-width="19" filter="url(#pencil)"/><polyline id="SvgjsPolyline1675" points="-184,-134 -180,-133 -165,-121 -152,-105 -143,-71 -141,-25 -139,-11 -135,4 -127,19 -116,31 -93,45 -84,53 -81,53 -78,56 -45,74 -12,86 0,92 7,98 -4,108 -30,120 -88,121 -138,128 -146,125 -152,119 -154,106 -150,96 -136,77 -133,70 -116,53 -116,50 -128,46 -133,47 -133,71 -126,106 -115,117 -108,131 -122,99 -128,61 -135,56 -141,45 -146,42 -165,41 -159,53 -148,68 -140,75 -140,77 -152,72 -156,67 -160,57 -158,59" fill="none" stroke-linejoin="round" stroke-linecap="round" stroke-opacity="1" stroke="#141414" stroke-width="19" filter="url(#pencil)"/><polyline id="SvgjsPolyline1682" points="-480,168 -480,166 -448,153 -444,151 -444,149 -440,149 -434,145 -406,137 -393,137 -356,132 -328,121 -323,117 -320,117 -316,113 -329,113 -352,124 -359,125 -368,129 -424,141 -438,146 -446,150 -456,160 -467,177 -447,177 -410,173 -343,173 -313,170 -313,161" fill="none" stroke-linejoin="round" stroke-linecap="round" stroke-opacity="1" stroke="#141414" stroke-width="19" filter="url(#pencil)"/><polyline id="SvgjsPolyline1689" points="-278,-111 -289,-100 -303,-92 -308,-87 -308,-81 -300,-89" fill="none" stroke-linejoin="round" stroke-linecap="round" stroke-opacity="1" stroke="#141414" stroke-width="8" filter="url(#pencil)"/><polyline id="SvgjsPolyline1696" points="-291,-116 -292,-101 -304,-84 -304,-63 -308,-48 -308,-40 -304,-22 -304,-11" fill="none" stroke-linejoin="round" stroke-linecap="round" stroke-opacity="1" stroke="#141414" stroke-width="8" filter="url(#pencil)"/><polyline id="SvgjsPolyline1703" points="-282,14 -259,13" fill="none" stroke-linejoin="round" stroke-linecap="round" stroke-opacity="1" stroke="#141414" stroke-width="8" filter="url(#pencil)"/><polyline id="SvgjsPolyline1710" points="-255,-120 -253,-120 -250,-124 -247,-130 -247,-137 -244,-139 -205,-150 -184,-150 -199,-142" fill="none" stroke-linejoin="round" stroke-linecap="round" stroke-opacity="1" stroke="#141414" stroke-width="16" filter="url(#pencil)"/><polyline id="SvgjsPolyline1717" points="-248,-111 -228,-107 -228,-105 -212,-99 -196,-85 -192,-76 -192,-72" fill="none" stroke-linejoin="round" stroke-linecap="round" stroke-opacity="1" stroke="#141414" stroke-width="16" filter="url(#pencil)"/><polyline id="SvgjsPolyline1731" points="-223,-95 -220,-94 -220,-67 -222,-51 -226,-40 -213,-58 -201,-79 -197,-87 -197,-90 -208,-98 -207,-60 -211,-60 -214,-63 -215,-67 -215,-85 -211,-95 -238,-105" fill="none" stroke-linejoin="round" stroke-linecap="round" stroke-opacity="1" stroke="#141414" stroke-width="8" filter="url(#pencil)"/><polyline id="SvgjsPolyline1752" points="-176,-72 -173,-65 -172,-47 -174,-48 -176,-58 -184,-70" fill="none" stroke-linejoin="round" stroke-linecap="round" stroke-opacity="1" stroke="#141414" stroke-width="8" filter="url(#pencil)"/><polyline id="SvgjsPolyline1779" points="-74,-134 -68,-130 -61,-122 -50,-109 -48,-104 -44,-101 -44,-99 -29,-107 -20,-114 -16,-115 -13,-119 -19,-120 -21,-123 -35,-132 -53,-154 -56,-155 -56,-157 -59,-159 -67,-155 -86,-137 -86,-135 -82,-133 -65,-129" fill="none" stroke-linejoin="round" stroke-linecap="round" stroke-opacity="1" stroke="#ffddaa" stroke-width="4" filter="url(#squiggly-animated)"/><polyline id="SvgjsPolyline1791" points="-393,-56 -395,-46 -408,-27 -413,-22 -415,-22 -395,-22 -388,-20 -374,-36 -373,-39 -368,-44 -365,-51 -363,-52 -363,-54 -390,-55 -400,-57" fill="none" stroke-linejoin="round" stroke-linecap="round" stroke-opacity="1" stroke="#ffddaa" stroke-width="4" filter="url(#squiggly-animated)"/><polyline id="SvgjsPolyline1797" points="-455,-159 -453,-159 -449,-149 -435,-127 -433,-127 -432,-125 -415,-115 -411,-115 -402,-119 -377,-132 -375,-135 -386,-135 -392,-138 -394,-142 -398,-143 -416,-165 -421,-175 -427,-175 -452,-158 -459,-155" fill="none" stroke-linejoin="round" stroke-linecap="round" stroke-opacity="1" stroke="#ffddaa" stroke-width="4" filter="url(#squiggly-animated)"/><polyline id="SvgjsPolyline1803" points="-320,-207 -328,-203 -335,-202 -343,-197 -349,-191 -362,-183 -368,-176 -368,-173 -355,-170 -340,-170 -333,-168 -335,-169 -335,-173 -332,-179 -318,-191 -305,-199 -292,-203 -286,-203 -292,-203 -305,-207 -344,-209" fill="none" stroke-linejoin="round" stroke-linecap="round" stroke-opacity="1" stroke="#ffddaa" stroke-width="4" filter="url(#squiggly-animated)"/><polyline id="SvgjsPolyline1809" points="-338,-205 -340,-203 -342,-189" fill="none" stroke-linejoin="round" stroke-linecap="round" stroke-opacity="1" stroke="#ffddaa" stroke-width="4" filter="url(#squiggly-animated)"/><polyline id="SvgjsPolyline1815" points="-86,-69 -86,-55 -84,-54 -82,-49 -74,-45 -70,-45 -70,-47 -63,-54 -54,-57 -61,-57 -64,-55 -83,-55 -80,-62 -80,-67 -70,-69 -85,-69 -68,-69 -70,-67 -71,-60 -68,-58 -68,-55 -63,-51" fill="none" stroke-linejoin="round" stroke-linecap="round" stroke-opacity="1" stroke="#ffddaa" stroke-width="4" filter="url(#squiggly-animated)"/><polyline id="SvgjsPolyline1821" points="-149,-163 -141,-161 -140,-159 -128,-159 -124,-163 -122,-163 -118,-170 -112,-176 -112,-178 -120,-178 -128,-182 -128,-179 -133,-171 -144,-163 -154,-161" fill="none" stroke-linejoin="round" stroke-linecap="round" stroke-opacity="1" stroke="#ffddaa" stroke-width="4" filter="url(#squiggly-animated)"/><polyline id="SvgjsPolyline1827" points="-433,-156 -434,-155 -431,-144 -426,-137 -418,-131 -409,-127 -403,-127 -401,-135 -406,-143 -408,-143 -416,-149 -421,-159 -423,-160 -424,-166 -427,-167 -427,-155 -436,-151 -443,-151 -439,-150 -432,-145 -428,-139 -428,-135 -419,-127 -409,-124 -403,-124 -398,-125 -395,-129 -391,-131 -388,-131" fill="none" stroke-linejoin="round" stroke-linecap="round" stroke-opacity="1" stroke="#ffddaa" stroke-width="18" filter="url(#squiggly-animated)"/><polyline id="SvgjsPolyline1845" points="-72,-136 -65,-135 -62,-133 -54,-127 -52,-123 -42,-115 -40,-115 -37,-111" fill="none" stroke-linejoin="round" stroke-linecap="round" stroke-opacity="1" stroke="#ffddaa" stroke-width="18" filter="url(#squiggly-animated)"/><polyline id="SvgjsPolyline1863" points="-61,-144 -57,-142 -55,-135 -41,-129 -36,-119 -28,-116" fill="none" stroke-linejoin="round" stroke-linecap="round" stroke-opacity="1" stroke="#ffddaa" stroke-width="18" filter="url(#squiggly-animated)"/><polyline id="SvgjsPolyline1869" points="-60,-147 -60,-147" fill="none" stroke-linejoin="round" stroke-linecap="round" stroke-opacity="1" stroke="#ffddaa" stroke-width="18" filter="url(#squiggly-animated)"/><polyline id="SvgjsPolyline1875" points="-60,-147 -53,-146 -54,-140 -58,-140" fill="none" stroke-linejoin="round" stroke-linecap="round" stroke-opacity="1" stroke="#ffddaa" stroke-width="18" filter="url(#squiggly-animated)"/><polyline id="SvgjsPolyline1881" points="-378,-47 -381,-37 -387,-30 -395,-31 -389,-39 -388,-47" fill="none" stroke-linejoin="round" stroke-linecap="round" stroke-opacity="1" stroke="#ffddaa" stroke-width="18" filter="url(#squiggly-animated)"/><polyline id="SvgjsPolyline1887" points="-400,-28 -400,-28" fill="none" stroke-linejoin="round" stroke-linecap="round" stroke-opacity="1" stroke="#ffddaa" stroke-width="18" filter="url(#squiggly-animated)"/><polyline id="SvgjsPolyline1893" points="-349,-179 -338,-181 -338,-183 -336,-184 -334,-196 -315,-198" fill="none" stroke-linejoin="round" stroke-linecap="round" stroke-opacity="1" stroke="#ffddaa" stroke-width="18" filter="url(#squiggly-animated)"/><polyline id="SvgjsPolyline1899" points="-359,-179 -349,-179 -350,-175 -359,-176 -352,-182 -348,-183 -343,-189 -337,-198 -335,-207 -320,-207 -309,-203 -289,-199 -300,-194 -313,-183 -323,-177 -330,-170 -332,-165 -332,-169 -324,-184 -314,-195 -305,-200 -303,-199 -303,-193 -310,-185" fill="none" stroke-linejoin="round" stroke-linecap="round" stroke-opacity="1" stroke="#ffddaa" stroke-width="8" filter="url(#squiggly-animated)"/><polyline id="SvgjsPolyline1905" points="-120,-175 -139,-163 -123,-163 -128,-159 -129,-155 -137,-155 -146,-158 -139,-158 -128,-164 -124,-168 -118,-180 -122,-180 -122,-167" fill="none" stroke-linejoin="round" stroke-linecap="round" stroke-opacity="1" stroke="#ffddaa" stroke-width="8" filter="url(#squiggly-animated)"/><polyline id="SvgjsPolyline1911" points="-80,-61 -80,-51 -78,-48 -76,-48 -73,-51 -72,-55 -82,-64 -82,-66 -74,-67 -73,-63 -70,-60 -59,-58" fill="none" stroke-linejoin="round" stroke-linecap="round" stroke-opacity="1" stroke="#ffddaa" stroke-width="8" filter="url(#squiggly-animated)"/><polyline id="SvgjsPolyline1923" points="-405,-23 -402,-27 -398,-29" fill="none" stroke-linejoin="round" stroke-linecap="round" stroke-opacity="1" stroke="#ffddaa" stroke-width="8" filter="url(#squiggly-animated)"/><polyline id="SvgjsPolyline1929" points="-435,-166 -437,-160 -450,-157 -440,-151 -436,-144 -430,-139 -424,-127 -424,-123 -431,-126 -431,-134 -433,-139 -440,-146 -450,-152 -452,-155 -452,-160 -430,-163 -424,-167 -419,-167" fill="none" stroke-linejoin="round" stroke-linecap="round" stroke-opacity="1" stroke="#ffddaa" stroke-width="8" filter="url(#squiggly-animated)"/><polyline id="SvgjsPolyline1935" points="-363,-171 -354,-171 -353,-169 -346,-167 -340,-163 -332,-161 -332,-164 -314,-179 -300,-198" fill="none" stroke-linejoin="round" stroke-linecap="round" stroke-opacity="1" stroke="#ffddaa" stroke-width="8" filter="url(#squiggly-animated)"/></g><filter id="canvas"><feTurbulence id="SvgjsFeTurbulence1057" filterName="feTurbulence" baseFrequency="0.06 0.7" filtername="feTurbulence" numOctaves="3" result="n" seed="20"/><feTurbulence id="SvgjsFeTurbulence1058" filterName="feTurbulence" baseFrequency="0.7 0.06" filtername="feTurbulence" in="n" numOctaves="3" result="n2" seed="20"/><feBlend id="SvgjsFeBlend1059" filterName="feBlend" filtername="feBlend" in="n" in2="n2" mode="normal" result="blendedNoise"/><feDiffuseLighting id="SvgjsFeDiffuseLighting1060" filterName="feDiffuseLighting" filtername="feDiffuseLighting" in="blendedNoise" lighting-color="white" result="done" surfaceScale="2"><feDistantLight id="SvgjsFeDistantLight1061" filterName="feDistantLight" azimuth="45" elevation="60" filtername="feDistantLight"/></feDiffuseLighting></filter><filter id="glow" width="15" height="15" x="-5" y="-5"><feTurbulence id="SvgjsFeTurbulence1372" baseFrequency="1.2 1.2" filterName="feTurbulence" in="SourceGraphic" numOctaves="1" result="f1" seed="0" stitchTiles="noStitch" type="fractalNoise"/><feColorMatrix id="SvgjsFeColorMatrix1373" filterName="feColorMatrix" in="SourceGraphic" result="f2" type="matrix" values="0 0 0 0 0, 0 0 0 0 0, 0 0 0 0 0, 0 0 0 -1.5 2.8"/><feComposite id="SvgjsFeComposite1374" filterName="feComposite" in="SourceGraphic" in2="f2" operator="in" result="f3"/><feTurbulence id="SvgjsFeTurbulence1375" baseFrequency="1.8 1.8" filterName="feTurbulence" in="SourceGraphic" numOctaves="3" result="noise" seed="0" stitchTiles="noStitch" type="fractalNoise"/><feDisplacementMap id="SvgjsFeDisplacementMap1376" filterName="feDisplacementMap" in="SourceGraphic" result="f4" scale="10"><animate id="SvgjsAnimate1377" attributeName="scale" dur="1" values="10;100;10" attributeType="XML" repeatCount="indefinite"/></feDisplacementMap></filter><filter id="slow-wave" width="15" height="15" x="-5" y="-5"><feTurbulence id="SvgjsFeTurbulence1038" filterName="feTurbulence" baseFrequency="0.01 0.05" filtername="feTurbulence" numOctaves="1" result="turbulence" seed="0" stitchTiles="noStitch"/><feDisplacementMap id="SvgjsFeDisplacementMap1039" filterName="feDisplacementMap" filtername="feDisplacementMap" in="SourceGraphic" in2="turbulence" result="displacementMap" scale="44"><animate id="SvgjsAnimate1597" attributeName="scale" dur="3" values="44;1" attributeType="XML" repeatCount="indefinite"/></feDisplacementMap></filter><filter id="pencil" width="15" height="15" x="-5" y="-5"><feTurbulence id="SvgjsFeTurbulence2293" filterName="feTurbulence" filtername="feTurbulence" baseFrequency="1.2" in="SourceGraphic" numOctaves="1" result="f1" seed="0" stitchTiles="noStitch" type="fractalNoise"/><feColorMatrix id="SvgjsFeColorMatrix2294" filterName="feColorMatrix" filtername="feColorMatrix" in="SourceGraphic" result="f2" type="matrix" values="0 0 0 0 0, 0 0 0 0 0, 0 0 0 0 0, 0 0 0 -1.5 2.8"/><feComposite id="SvgjsFeComposite2295" filterName="feComposite" filtername="feComposite" in="SourceGraphic" in2="f2" operator="in" result="f3"/><feTurbulence id="SvgjsFeTurbulence2296" filterName="feTurbulence" filtername="feTurbulence" baseFrequency="1.8" in="SourceGraphic" numOctaves="3" result="noise" seed="0" stitchTiles="noStitch" type="fractalNoise"/><feDisplacementMap id="SvgjsFeDisplacementMap2297" filterName="feDisplacementMap" filtername="feDisplacementMap" in="SourceGraphic" result="f4" scale="4"/></filter><filter id="squiggly-animated" width="15" height="15" x="-5" y="-5"><feTurbulence id="SvgjsFeTurbulence1022" filterName="feTurbulence" baseFrequency="0.02 0.02" filtername="feTurbulence" numOctaves="3" result="noise" seed="0"><animate id="SvgjsAnimate1938" attributeName="seed" dur="0.25" values="0;1;2;4" attributeType="XML" repeatCount="indefinite"/></feTurbulence><feDisplacementMap id="SvgjsFeDisplacementMap1024" filterName="feDisplacementMap" filtername="feDisplacementMap" in="SourceGraphic" in2="noise" result="done" scale="6"><animate id="SvgjsAnimate1940" attributeName="scale" dur="0.25" values="6;9;12;15" attributeType="XML" repeatCount="indefinite"/></feDisplacementMap></filter></svg>