<svg id="main-canvas" width="1023" height="536" xmlns="http://www.w3.org/2000/svg" version="1.1" xmlnsXlink="http://www.w3.org/1999/xlink" xmlnsSvgjs="http://svgjs.com/svgjs" viewBox="0 0 1023 536"><defs id="SvgjsDefs1002"><pattern width="0.009676925646736721" height="0.009676925646736721" id="7PXUQNVd_0" viewBox="0 0 14 14"><ellipse cx="7" cy="7" rx="3.5" transform-origin="7 7" transform="scale(0.7142857142857143 0.7142857142857143) rotate(0)" fill="black"><animateTransform attributeName="transform" attributeType="XML" type="scale" additive="sum" values="0.42857142857142855 0.42857142857142855 ;1.4285714285714286 1.4285714285714286 ;0.42857142857142855 0.42857142857142855 " dur="1" repeatCount="indefinite"/></ellipse></pattern><g width="1446.7404743076763" height="1446.7404743076763" id="7PXUQNVd" transform="rotate(15 511.5 268)"><path d="M 0 0,l 1446.7404743076763 0,l 0 1446.7404743076763,l -1446.7404743076763 0,l 0 -1446.7404743076763" fill="url(#7PXUQNVd_0)" transform="translate(-211.87023715383816 -455.37023715383816)"/></g><pattern width="0.009676925646736721" height="0.009676925646736721" id="rhyFH3x0_0" viewBox="0 0 14 14"><ellipse cx="7" cy="7" rx="3.5" transform-origin="7 7" transform="scale(0.7142857142857143 0.7142857142857143) rotate(0)" fill="black"><animateTransform attributeName="transform" attributeType="XML" type="scale" additive="sum" values="0.42857142857142855 0.42857142857142855 ;1 1 ;0.42857142857142855 0.42857142857142855 " dur="1" repeatCount="indefinite"/></ellipse></pattern><g width="1446.7404743076763" height="1446.7404743076763" id="rhyFH3x0" transform="rotate(15 511.5 268)"><path d="M 0 0,l 1446.7404743076763 0,l 0 1446.7404743076763,l -1446.7404743076763 0,l 0 -1446.7404743076763" fill="url(#rhyFH3x0_0)" transform="translate(-204.87023715383816 -448.37023715383816)"/></g><pattern width="0.015206597444871989" height="0.015897806419638897" id="nw48K58R_0" viewBox="0 0 22 23"><path d="&#10;            M7.824573519457059 5.75,&#10;            L14.175426480542942 5.75,&#10;            L17.350852961085884 11.5,&#10;            L14.175426480542942 17.25,&#10;            L7.824573519457059 17.25,&#10;            L4.649147038914117 11.5,&#10;            L7.824573519457059 5.75,&#10;        " transform-origin="11 11.5" transform="scale(1.9090909090909092 2.782608695652174) rotate(60)" fill="black"/></pattern><g width="1446.7404743076763" height="1446.7404743076763" id="nw48K58R" transform="rotate(10 511.5 268)"><path d="M 0 0,l 1446.7404743076763 0,l 0 1446.7404743076763,l -1446.7404743076763 0,l 0 -1446.7404743076763" fill="url(#nw48K58R_0)" transform="translate(-199.87023715383816 -455.37023715383816)"/></g><pattern width="0.017280224369172714" height="0.015897806419638897" id="cCVvu47H_0" viewBox="0 0 25 23"><path d="&#10;            M8.891560817564839 5.75,&#10;            L16.108439182435163 5.75,&#10;            L19.716878364870322 11.5,&#10;            L16.108439182435163 17.25,&#10;            L8.891560817564839 17.25,&#10;            L5.283121635129678 11.5,&#10;            L8.891560817564839 5.75,&#10;        " transform-origin="12.5 11.5" transform="scale(2.16 2.347826086956522) rotate(0)" fill="black"/></pattern><g width="1446.7404743076763" height="1446.7404743076763" id="cCVvu47H" transform="rotate(120 511.5 268)"><path d="M 0 0,l 1446.7404743076763 0,l 0 1446.7404743076763,l -1446.7404743076763 0,l 0 -1446.7404743076763" fill="url(#cCVvu47H_0)" transform="translate(-218.87023715383816 -445.37023715383816)"/></g><pattern width="0.01451538847010508" height="0.01451538847010508" id="1r5hsgwH_0" viewBox="0 0 21 21"><path d="&#10;            M10.5 5.25,&#10;             L11.8125 9.1875,&#10;            L15.75 10.5,&#10;             L11.8125 11.8125,&#10;            L10.5 15.75,&#10;             L9.1875 11.8125,&#10;            L5.25 10.5,&#10;             L9.1875 9.1875,&#10;            L10.5 5.25,&#10;        " transform-origin="10.5 10.5" transform="scale(1.619047619047619 2.0952380952380953) rotate(0)" fill="black"><animateTransform attributeName="transform" attributeType="XML" type="scale" additive="sum" values="2 2.0952380952380953;1.3333333333333333 2.0952380952380953;2 2.0952380952380953" dur="1.7" repeatCount="indefinite"/></path></pattern><g width="1446.7404743076763" height="1446.7404743076763" id="1r5hsgwH" transform="rotate(30 511.5 268)"><path d="M 0 0,l 1446.7404743076763 0,l 0 1446.7404743076763,l -1446.7404743076763 0,l 0 -1446.7404743076763" fill="url(#1r5hsgwH_0)" transform="translate(-211.87023715383816 -455.37023715383816)"/></g><pattern width="0.018662642318706534" height="0.015897806419638897" id="c9PpVFH6_0" viewBox="0 0 27 23"><path d="&#10;            M9.602885682970026 5.75,&#10;            L17.397114317029974 5.75,&#10;            L21.294228634059948 11.5,&#10;            L17.397114317029974 17.25,&#10;            L9.602885682970026 17.25,&#10;            L5.705771365940053 11.5,&#10;            L9.602885682970026 5.75,&#10;        " transform-origin="13.5 11.5" transform="scale(2 2.347826086956522) rotate(0)" fill="black"/></pattern><g width="1446.7404743076763" height="1446.7404743076763" id="c9PpVFH6" transform="rotate(245 511.5 268)"><path d="M 0 0,l 1446.7404743076763 0,l 0 1446.7404743076763,l -1446.7404743076763 0,l 0 -1446.7404743076763" fill="url(#c9PpVFH6_0)" transform="translate(-218.87023715383816 -445.37023715383816)"/></g><pattern width="0.0027648358990676344" height="0.03456044873834543" id="tGLVnRYU_0" viewBox="0 0 4 50"><rect x="1" y="12.5" width="2" height="25" transform-origin="2 25" transform="scale(1 2) rotate(0)" fill="black"/></pattern><g width="1446.7404743076763" height="1446.7404743076763" id="tGLVnRYU" transform="rotate(305 511.5 268)"><path d="M 0 0,l 1446.7404743076763 0,l 0 1446.7404743076763,l -1446.7404743076763 0,l 0 -1446.7404743076763" fill="url(#tGLVnRYU_0)" transform="translate(-211.87023715383816 -455.37023715383816)"><animateTransform attributeName="transform" attributeType="XML" type="translate" values="-205.87023715383816 -455.37023715383816;-210.87023715383816 -455.37023715383816" dur="0.6" repeatCount="indefinite"/></path></g><pattern width="0.027648358990676344" height="0.027648358990676344" id="o91clmhn_0" viewBox="0 0 40 40"><path d="&#10;            M20 10,&#10;             L22.5 17.5,&#10;            L30 20,&#10;             L22.5 22.5,&#10;            L20 30,&#10;             L17.5 22.5,&#10;            L10 20,&#10;             L17.5 17.5,&#10;            L20 10,&#10;        " transform-origin="20 20" transform="scale(1 1) rotate(0)" fill="black"><animateTransform attributeName="transform" attributeType="XML" type="scale" additive="sum" values="1 1 ;0.5 0.5 ;1 1 " dur="1" repeatCount="indefinite"/></path></pattern><g width="1446.7404743076763" height="1446.7404743076763" id="o91clmhn" transform="rotate(10 511.5 268)"><path d="M 0 0,l 1446.7404743076763 0,l 0 1446.7404743076763,l -1446.7404743076763 0,l 0 -1446.7404743076763" fill="url(#o91clmhn_0)" transform="translate(-211.87023715383816 -455.37023715383816)"/></g><pattern width="0.027648358990676344" height="0.027648358990676344" id="T16LrZN6_0" viewBox="0 0 40 40"><path d="&#10;            M20 10,&#10;             L22.5 17.5,&#10;            L30 20,&#10;             L22.5 22.5,&#10;            L20 30,&#10;             L17.5 22.5,&#10;            L10 20,&#10;             L17.5 17.5,&#10;            L20 10,&#10;        " transform-origin="20 20" transform="scale(1 1) rotate(0)" fill="black"><animateTransform attributeName="transform" attributeType="XML" type="scale" additive="sum" values="0.5 0.5 ;1 1 ;0.5 0.5 " dur="1" repeatCount="indefinite"/></path></pattern><g width="1446.7404743076763" height="1446.7404743076763" id="T16LrZN6" transform="rotate(10 511.5 268)"><path d="M 0 0,l 1446.7404743076763 0,l 0 1446.7404743076763,l -1446.7404743076763 0,l 0 -1446.7404743076763" fill="url(#T16LrZN6_0)" transform="translate(-191.87023715383816 -435.37023715383816)"/></g><pattern width="0.027648358990676344" height="0.027648358990676344" id="f94NN7Fc_0" viewBox="0 0 40 40"><ellipse cx="20" cy="20" rx="10" transform-origin="20 20" transform="scale(0.5 0.5) rotate(0)" fill="black"><animateTransform attributeName="transform" attributeType="XML" type="scale" additive="sum" values="0.75 0.75 ;0.25 0.25 ;0.75 0.75 " dur="1.6" repeatCount="indefinite"/></ellipse></pattern><g width="1446.7404743076763" height="1446.7404743076763" id="f94NN7Fc" transform="rotate(0 511.5 268)"><path d="M 0 0,l 1446.7404743076763 0,l 0 1446.7404743076763,l -1446.7404743076763 0,l 0 -1446.7404743076763" fill="url(#f94NN7Fc_0)" transform="translate(-211.87023715383816 -455.37023715383816)"/></g><pattern width="0.027648358990676344" height="0.027648358990676344" id="5H2k6ipU_0" viewBox="0 0 40 40"><ellipse cx="20" cy="20" rx="10" transform-origin="20 20" transform="scale(0.5 0.5) rotate(0)" fill="black"><animateTransform attributeName="transform" attributeType="XML" type="scale" additive="sum" values="0.25 0.25 ;0.75 0.75 ;0.25 0.25 " dur="1.6" repeatCount="indefinite"/></ellipse></pattern><g width="1446.7404743076763" height="1446.7404743076763" id="5H2k6ipU" transform="rotate(0 511.5 268)"><path d="M 0 0,l 1446.7404743076763 0,l 0 1446.7404743076763,l -1446.7404743076763 0,l 0 -1446.7404743076763" fill="url(#5H2k6ipU_0)" transform="translate(-191.87023715383816 -435.37023715383816)"/></g><pattern width="0.011059343596270537" height="0.011059343596270537" id="DUWYH09k_0" viewBox="0 0 16 16"><ellipse cx="8" cy="8" rx="4" transform-origin="8 8" transform="scale(1 1) rotate(0)" fill="black"/></pattern><g width="1446.7404743076763" height="1446.7404743076763" id="DUWYH09k" transform="rotate(105 511.5 268)"><path d="M 0 0,l 1446.7404743076763 0,l 0 1446.7404743076763,l -1446.7404743076763 0,l 0 -1446.7404743076763" fill="url(#DUWYH09k_0)" transform="translate(-211.87023715383816 -455.37023715383816)"/></g><pattern width="0.011059343596270537" height="0.011059343596270537" id="pkCS5vvO_0" viewBox="0 0 16 16"><ellipse cx="8" cy="8" rx="4" transform-origin="8 8" transform="scale(1 1) rotate(0)" fill="black"/></pattern><g width="1446.7404743076763" height="1446.7404743076763" id="pkCS5vvO" transform="rotate(105 511.5 268)"><path d="M 0 0,l 1446.7404743076763 0,l 0 1446.7404743076763,l -1446.7404743076763 0,l 0 -1446.7404743076763" fill="url(#pkCS5vvO_0)" transform="translate(-203.87023715383816 -447.37023715383816)"/></g><pattern width="0.015206597444871989" height="0.015897806419638897" id="nw48K58R_0" viewBox="0 0 22 23"><path d="&#10;            M7.824573519457059 5.75,&#10;            L14.175426480542942 5.75,&#10;            L17.350852961085884 11.5,&#10;            L14.175426480542942 17.25,&#10;            L7.824573519457059 17.25,&#10;            L4.649147038914117 11.5,&#10;            L7.824573519457059 5.75,&#10;        " transform-origin="11 11.5" transform="scale(1.9090909090909092 2.782608695652174) rotate(60)" fill="black"/></pattern><g width="1446.7404743076763" height="1446.7404743076763" id="nw48K58R" transform="rotate(10 511.5 268)"><path d="M 0 0,l 1446.7404743076763 0,l 0 1446.7404743076763,l -1446.7404743076763 0,l 0 -1446.7404743076763" fill="url(#nw48K58R_0)" transform="translate(-199.87023715383816 -455.37023715383816)"/></g><pattern width="0.017280224369172714" height="0.015897806419638897" id="cCVvu47H_0" viewBox="0 0 25 23"><path d="&#10;            M8.891560817564839 5.75,&#10;            L16.108439182435163 5.75,&#10;            L19.716878364870322 11.5,&#10;            L16.108439182435163 17.25,&#10;            L8.891560817564839 17.25,&#10;            L5.283121635129678 11.5,&#10;            L8.891560817564839 5.75,&#10;        " transform-origin="12.5 11.5" transform="scale(2.16 2.347826086956522) rotate(0)" fill="black"/></pattern><g width="1446.7404743076763" height="1446.7404743076763" id="cCVvu47H" transform="rotate(120 511.5 268)"><path d="M 0 0,l 1446.7404743076763 0,l 0 1446.7404743076763,l -1446.7404743076763 0,l 0 -1446.7404743076763" fill="url(#cCVvu47H_0)" transform="translate(-218.87023715383816 -445.37023715383816)"/></g><pattern width="0.01451538847010508" height="0.01451538847010508" id="1r5hsgwH_0" viewBox="0 0 21 21"><path d="&#10;            M10.5 5.25,&#10;             L11.8125 9.1875,&#10;            L15.75 10.5,&#10;             L11.8125 11.8125,&#10;            L10.5 15.75,&#10;             L9.1875 11.8125,&#10;            L5.25 10.5,&#10;             L9.1875 9.1875,&#10;            L10.5 5.25,&#10;        " transform-origin="10.5 10.5" transform="scale(1.619047619047619 2.0952380952380953) rotate(0)" fill="black"><animateTransform attributeName="transform" attributeType="XML" type="scale" additive="sum" values="2 2.0952380952380953;1.3333333333333333 2.0952380952380953;2 2.0952380952380953" dur="1.7" repeatCount="indefinite"/></path></pattern><g width="1446.7404743076763" height="1446.7404743076763" id="1r5hsgwH" transform="rotate(30 511.5 268)"><path d="M 0 0,l 1446.7404743076763 0,l 0 1446.7404743076763,l -1446.7404743076763 0,l 0 -1446.7404743076763" fill="url(#1r5hsgwH_0)" transform="translate(-211.87023715383816 -455.37023715383816)"/></g><pattern width="0.018662642318706534" height="0.015897806419638897" id="c9PpVFH6_0" viewBox="0 0 27 23"><path d="&#10;            M9.602885682970026 5.75,&#10;            L17.397114317029974 5.75,&#10;            L21.294228634059948 11.5,&#10;            L17.397114317029974 17.25,&#10;            L9.602885682970026 17.25,&#10;            L5.705771365940053 11.5,&#10;            L9.602885682970026 5.75,&#10;        " transform-origin="13.5 11.5" transform="scale(2 2.347826086956522) rotate(0)" fill="black"/></pattern><g width="1446.7404743076763" height="1446.7404743076763" id="c9PpVFH6" transform="rotate(245 511.5 268)"><path d="M 0 0,l 1446.7404743076763 0,l 0 1446.7404743076763,l -1446.7404743076763 0,l 0 -1446.7404743076763" fill="url(#c9PpVFH6_0)" transform="translate(-218.87023715383816 -445.37023715383816)"/></g><pattern width="0.012441761545804354" height="0.013132970520571264" id="vhGSOiZu_0" viewBox="0 0 18 19"><path d="&#10;            M9 7.125,&#10;            L12.897114317029974 14.25,&#10;            L5.102885682970026 14.25,&#10;            L9 7.125,&#10;        " transform-origin="9 9.5" transform="scale(2.6666666666666665 2.6315789473684212) rotate(undefined)" fill="black"><animateTransform attributeName="transform" attributeType="XML" type="scale" additive="sum" values="0.1111111111111111 2.6315789473684212;3.2222222222222223 2.6315789473684212;0.1111111111111111 2.6315789473684212" dur="7.9" repeatCount="indefinite"/></path></pattern><g width="1446.7404743076763" height="1446.7404743076763" id="vhGSOiZu" transform="rotate(200 511.5 268)"><path d="M 0 0,l 1446.7404743076763 0,l 0 1446.7404743076763,l -1446.7404743076763 0,l 0 -1446.7404743076763" fill="url(#vhGSOiZu_0)" transform="translate(-211.87023715383816 -455.37023715383816)"/></g><pattern width="0.02004506026824035" height="0.026265941041142528" id="lkPaHDQX_0" viewBox="0 0 29 38"><path d="&#10;            M14.5 14.25,&#10;            L20.778684177437178 28.5,&#10;            L8.22131582256282 28.5,&#10;            L14.5 14.25,&#10;        " transform-origin="14.5 19" transform="scale(1.6551724137931034 1.3157894736842106) rotate(undefined)" fill="black"/></pattern><g width="1446.7404743076763" height="1446.7404743076763" id="lkPaHDQX" transform="rotate(240 511.5 268)"><path d="M 0 0,l 1446.7404743076763 0,l 0 1446.7404743076763,l -1446.7404743076763 0,l 0 -1446.7404743076763" fill="url(#lkPaHDQX_0)" transform="translate(-195.87023715383816 -435.37023715383816)"/></g><pattern width="0.004147253848601451" height="0.03456044873834543" id="2iGG0rQs_0" viewBox="0 0 6 50"><rect x="1.5" y="12.5" width="3" height="25" transform-origin="3 25" transform="scale(0.6666666666666666 2) rotate(0)" fill="black"/></pattern><g width="1446.7404743076763" height="1446.7404743076763" id="2iGG0rQs" transform="rotate(55 511.5 268)"><path d="M 0 0,l 1446.7404743076763 0,l 0 1446.7404743076763,l -1446.7404743076763 0,l 0 -1446.7404743076763" fill="url(#2iGG0rQs_0)" transform="translate(-211.87023715383816 -455.37023715383816)"/></g><pattern width="0.004147253848601451" height="0.03456044873834543" id="ImoSa3My_0" viewBox="0 0 6 50"><rect x="1.5" y="12.5" width="3" height="25" transform-origin="3 25" transform="scale(1 2) rotate(0)" fill="black"/></pattern><g width="1446.7404743076763" height="1446.7404743076763" id="ImoSa3My" transform="rotate(105 511.5 268)"><path d="M 0 0,l 1446.7404743076763 0,l 0 1446.7404743076763,l -1446.7404743076763 0,l 0 -1446.7404743076763" fill="url(#ImoSa3My_0)" transform="translate(-211.87023715383816 -455.37023715383816)"/></g><pattern width="0.0027648358990676344" height="0.03456044873834543" id="tGLVnRYU_0" viewBox="0 0 4 50"><rect x="1" y="12.5" width="2" height="25" transform-origin="2 25" transform="scale(1 2) rotate(0)" fill="black"/></pattern><g width="1446.7404743076763" height="1446.7404743076763" id="tGLVnRYU" transform="rotate(305 511.5 268)"><path d="M 0 0,l 1446.7404743076763 0,l 0 1446.7404743076763,l -1446.7404743076763 0,l 0 -1446.7404743076763" fill="url(#tGLVnRYU_0)" transform="translate(-211.87023715383816 -455.37023715383816)"><animateTransform attributeName="transform" attributeType="XML" type="translate" values="-205.87023715383816 -455.37023715383816;-210.87023715383816 -455.37023715383816" dur="0.6" repeatCount="indefinite"/></path></g><pattern width="0.005529671798135269" height="0.03456044873834543" id="oz3ZL4Pw_0" viewBox="0 0 8 50"><rect x="2" y="12.5" width="4" height="25" transform-origin="4 25" transform="scale(0.5 2) rotate(0)" fill="black"/></pattern><g width="1446.7404743076763" height="1446.7404743076763" id="oz3ZL4Pw" transform="rotate(65 511.5 268)"><path d="M 0 0,l 1446.7404743076763 0,l 0 1446.7404743076763,l -1446.7404743076763 0,l 0 -1446.7404743076763" fill="url(#oz3ZL4Pw_0)" transform="translate(-211.87023715383816 -455.37023715383816)"><animateTransform attributeName="transform" attributeType="XML" type="translate" values="-194.87023715383816 -455.37023715383816;-210.87023715383816 -455.37023715383816" dur="1" repeatCount="indefinite"/></path></g><pattern width="0.0027648358990676344" height="0.03456044873834543" id="tGLVnRYU_0" viewBox="0 0 4 50"><rect x="1" y="12.5" width="2" height="25" transform-origin="2 25" transform="scale(1 2) rotate(0)" fill="black"/></pattern><g width="1446.7404743076763" height="1446.7404743076763" id="tGLVnRYU" transform="rotate(305 511.5 268)"><path d="M 0 0,l 1446.7404743076763 0,l 0 1446.7404743076763,l -1446.7404743076763 0,l 0 -1446.7404743076763" fill="url(#tGLVnRYU_0)" transform="translate(-211.87023715383816 -455.37023715383816)"><animateTransform attributeName="transform" attributeType="XML" type="translate" values="-205.87023715383816 -455.37023715383816;-210.87023715383816 -455.37023715383816" dur="0.6" repeatCount="indefinite"/></path></g><pattern width="0.005529671798135269" height="0.005529671798135269" id="hD7iAXQv_0" viewBox="0 0 8 8"><path d="&#10;            M4 2,&#10;             L4.5 3.5,&#10;            L6 4,&#10;             L4.5 4.5,&#10;            L4 6,&#10;             L3.5 4.5,&#10;            L2 4,&#10;             L3.5 3.5,&#10;            L4 2,&#10;        " transform-origin="4 4" transform="scale(2.5 2.5) rotate(32)" fill="black"/></pattern><g width="1446.7404743076763" height="1446.7404743076763" id="hD7iAXQv" transform="rotate(30 511.5 268)"><path d="M 0 0,l 1446.7404743076763 0,l 0 1446.7404743076763,l -1446.7404743076763 0,l 0 -1446.7404743076763" fill="url(#hD7iAXQv_0)" transform="translate(-230.87023715383816 -466.37023715383816)"/></g><pattern width="0.005529671798135269" height="0.005529671798135269" id="pfXcEMD9_0" viewBox="0 0 8 8"><path d="&#10;            M4 2,&#10;             L4.5 3.5,&#10;            L6 4,&#10;             L4.5 4.5,&#10;            L4 6,&#10;             L3.5 4.5,&#10;            L2 4,&#10;             L3.5 3.5,&#10;            L4 2,&#10;        " transform-origin="4 4" transform="scale(2.5 2.5) rotate(145)" fill="black"/></pattern><g width="1446.7404743076763" height="1446.7404743076763" id="pfXcEMD9" transform="rotate(30 511.5 268)"><path d="M 0 0,l 1446.7404743076763 0,l 0 1446.7404743076763,l -1446.7404743076763 0,l 0 -1446.7404743076763" fill="url(#pfXcEMD9_0)" transform="translate(-186.87023715383816 -430.37023715383816)"/></g><pattern width="0.006912089747669086" height="0.006912089747669086" id="1bGD2van_0" viewBox="0 0 10 10"><ellipse cx="5" cy="5" rx="2.5" transform-origin="5 5" transform="scale(0.8 0.8) rotate(0)" fill="black"><animateTransform attributeName="transform" attributeType="XML" type="scale" additive="sum" values="1 1 ;0.2 0.2 ;1 1 " dur="1" repeatCount="indefinite"/></ellipse></pattern><g width="1446.7404743076763" height="1446.7404743076763" id="1bGD2van" transform="rotate(0 511.5 268)"><path d="M 0 0,l 1446.7404743076763 0,l 0 1446.7404743076763,l -1446.7404743076763 0,l 0 -1446.7404743076763" fill="url(#1bGD2van_0)" transform="translate(-191.87023715383816 -435.37023715383816)"/></g><pattern width="0.006912089747669086" height="0.006912089747669086" id="mEb90HXk_0" viewBox="0 0 10 10"><ellipse cx="5" cy="5" rx="2.5" transform-origin="5 5" transform="scale(0.8 0.8) rotate(0)" fill="black"><animateTransform attributeName="transform" attributeType="XML" type="scale" additive="sum" values="0.2 0.2 ;1 1 ;0.2 0.2 " dur="1" repeatCount="indefinite"/></ellipse></pattern><g width="1446.7404743076763" height="1446.7404743076763" id="mEb90HXk" transform="rotate(0 511.5 268)"><path d="M 0 0,l 1446.7404743076763 0,l 0 1446.7404743076763,l -1446.7404743076763 0,l 0 -1446.7404743076763" fill="url(#mEb90HXk_0)" transform="translate(-206.87023715383816 -450.37023715383816)"/></g><pattern width="0.0027648358990676344" height="0.03456044873834543" id="tGLVnRYU_0" viewBox="0 0 4 50"><rect x="1" y="12.5" width="2" height="25" transform-origin="2 25" transform="scale(1 2) rotate(0)" fill="black"/></pattern><g width="1446.7404743076763" height="1446.7404743076763" id="tGLVnRYU" transform="rotate(305 511.5 268)"><path d="M 0 0,l 1446.7404743076763 0,l 0 1446.7404743076763,l -1446.7404743076763 0,l 0 -1446.7404743076763" fill="url(#tGLVnRYU_0)" transform="translate(-211.87023715383816 -455.37023715383816)"><animateTransform attributeName="transform" attributeType="XML" type="translate" values="-205.87023715383816 -455.37023715383816;-210.87023715383816 -455.37023715383816" dur="0.6" repeatCount="indefinite"/></path></g><pattern width="0.009676925646736721" height="0.009676925646736721" id="7PXUQNVd-preview_0" viewBox="0 0 14 14"><ellipse cx="7" cy="7" rx="3.5" transform-origin="7 7" transform="scale(0.7142857142857143 0.7142857142857143) rotate(0)" fill="black"><animateTransform attributeName="transform" attributeType="XML" type="scale" additive="sum" values="0.42857142857142855 0.42857142857142855 ;1.4285714285714286 1.4285714285714286 ;0.42857142857142855 0.42857142857142855 " dur="1" repeatCount="indefinite"/></ellipse></pattern><g width="1446.7404743076763" height="1446.7404743076763" id="7PXUQNVd-preview" transform="rotate(15 511.5 268)"><path d="M 0 0,l 1446.7404743076763 0,l 0 1446.7404743076763,l -1446.7404743076763 0,l 0 -1446.7404743076763" fill="url(#7PXUQNVd-preview_0)" transform="translate(-211.87023715383816 -455.37023715383816)"/></g><pattern width="0.009676925646736721" height="0.009676925646736721" id="rhyFH3x0-preview_0" viewBox="0 0 14 14"><ellipse cx="7" cy="7" rx="3.5" transform-origin="7 7" transform="scale(0.7142857142857143 0.7142857142857143) rotate(0)" fill="black"><animateTransform attributeName="transform" attributeType="XML" type="scale" additive="sum" values="0.42857142857142855 0.42857142857142855 ;1 1 ;0.42857142857142855 0.42857142857142855 " dur="1" repeatCount="indefinite"/></ellipse></pattern><g width="1446.7404743076763" height="1446.7404743076763" id="rhyFH3x0-preview" transform="rotate(15 511.5 268)"><path d="M 0 0,l 1446.7404743076763 0,l 0 1446.7404743076763,l -1446.7404743076763 0,l 0 -1446.7404743076763" fill="url(#rhyFH3x0-preview_0)" transform="translate(-204.87023715383816 -448.37023715383816)"/></g><pattern width="0.009676925646736721" height="0.009676925646736721" id="7PXUQNVd_0" viewBox="0 0 14 14"><ellipse cx="7" cy="7" rx="3.5" transform-origin="7 7" transform="scale(0.7142857142857143 0.7142857142857143) rotate(0)" fill="black"><animateTransform attributeName="transform" attributeType="XML" type="scale" additive="sum" values="0.42857142857142855 0.42857142857142855 ;1.4285714285714286 1.4285714285714286 ;0.42857142857142855 0.42857142857142855 " dur="1" repeatCount="indefinite"/></ellipse></pattern><g width="1446.7404743076763" height="1446.7404743076763" id="7PXUQNVd" transform="rotate(15 511.5 268)"><path d="M 0 0,l 1446.7404743076763 0,l 0 1446.7404743076763,l -1446.7404743076763 0,l 0 -1446.7404743076763" fill="url(#7PXUQNVd_0)" transform="translate(-211.87023715383816 -455.37023715383816)"/></g><pattern width="0.009676925646736721" height="0.009676925646736721" id="rhyFH3x0_0" viewBox="0 0 14 14"><ellipse cx="7" cy="7" rx="3.5" transform-origin="7 7" transform="scale(0.7142857142857143 0.7142857142857143) rotate(0)" fill="black"><animateTransform attributeName="transform" attributeType="XML" type="scale" additive="sum" values="0.42857142857142855 0.42857142857142855 ;1 1 ;0.42857142857142855 0.42857142857142855 " dur="1" repeatCount="indefinite"/></ellipse></pattern><g width="1446.7404743076763" height="1446.7404743076763" id="rhyFH3x0" transform="rotate(15 511.5 268)"><path d="M 0 0,l 1446.7404743076763 0,l 0 1446.7404743076763,l -1446.7404743076763 0,l 0 -1446.7404743076763" fill="url(#rhyFH3x0_0)" transform="translate(-204.87023715383816 -448.37023715383816)"/></g></defs><g id="sketchGroup" transform="matrix(1,0,0,1,511.5,268)"><polyline id="SvgjsPolyline5504" points="-47.8,-58.3 -50.3,-70.1 -52.3,-75.5 -63.7,-98 -75.1,-114.9 -81.5,-122.9 -88.3,-130.4 -96.5,-137.5 -105.4,-143.9 -115.1,-149.4 -125.8,-154.1 -137.2,-157.7 -149.2,-160.1 -161.7,-161.1 -174.2,-160.8 -186.7,-159.1 -210.6,-152.8 -221.5,-148.1 -231.7,-142.3 -241.1,-135.2 -249.5,-126.8 -256.8,-117.5 -263,-107.2 -268,-96.2 -271.7,-84.8 -274.2,-73 -275.6,-60.9 -275.7,-48.5 -274.5,-36 -272.2,-23.7 -268.5,-11.9 -263.3,-0.8 -264.6,-1.2 -263.2,-0.3 -263.8,0.5 -264.7,0.4 -264.6,-1.2 -265,0 -270.3,-11.2 -274,-23.2 -276.4,-35.7 -277.6,-48.4 -277.5,-61 -276.1,-73.3 -273.5,-85.2 -269.7,-96.9 -264.6,-108 -258.2,-118.4 -250.7,-127.9 -242.1,-136.3 -232.5,-143.5 -222.2,-149.4 -211.1,-154.1 -199.2,-157.7 -186.9,-160.4 -174.3,-162 -161.7,-161.3 -149.1,-161.2 -137,-158.7 -125.5,-155 -114.8,-150.2 -105,-144.5 -96.1,-138 -87.9,-130.8 -81.1,-123.2 -74.7,-115.1 -63.4,-98.1 -52.1,-75.5 -47.8,-58.3" fill-opacity="1" fill="#ed6ba5"/><polyline id="SvgjsPolyline5505" points="-51.8,-75.7 -49.3,-73.6 -51.8,-75.7" fill-opacity="1" fill="#ed6ba5"/><polyline id="SvgjsPolyline5506" points="-62.5,-73 -53.7,-61.3 -62.5,-73" fill-opacity="1" fill="#ed6ba5"/><polyline id="SvgjsPolyline5507" points="-49.8,-75.7 -44.9,-65 -42.2,-51.1 -41.8,-40.8 -43.4,-27.8 -47.1,-14 -54.5,0.8 -65.3,14.9 -77.9,27.2 -92.9,37.3 -109.2,44.8 -125.5,49.9 -142.8,52.5 -158.3,53.4 -156.9,51.9 -157.5,53.1 -159,53.2 -159.6,51.3 -158.4,50.5 -156.9,51.9 -158.4,50.5 -143.1,49.6 -126.2,46.9 -110.3,41.9 -94.4,34.6 -79.9,24.7 -67.7,12.8 -57.2,-0.9 -49.9,-15.1 -46.1,-28.4 -44.4,-41 -44.5,-50.9 -46.5,-64.6 -49.8,-75.7" fill-opacity="1" fill="#ed6ba5"/><polyline id="SvgjsPolyline5508" points="-175.2,55 -181.5,56.4 -193.9,54 -203.4,51.6 -215.1,47.4 -229.1,40.4 -243.7,31.7 -242.5,31.4 -244,31.4 -243,30.5 -242.5,30.5 -242.5,31.4 -242.8,30.2 -228.3,38.8 -214.4,45.8 -202.9,50 -193.5,52.4 -175.2,55" fill-opacity="1" fill="#ed6ba5"/><polyline id="SvgjsPolyline5509" points="-89.2,-96.3 -92.7,-103.9 -97.1,-110.8 -103.3,-118.5 -110.1,-124.6 -117.1,-128.4 -120.1,-129.1 -122.7,-128.9 -126.9,-126.4 -131.5,-117.2 -133.5,-108.7 -134.3,-99.8 -132.4,-85.7 -129.1,-76 -124.4,-67.5 -125.7,-67.8 -124.3,-67.1 -125.6,-66.3 -125.7,-67.8 -126,-66.6 -130.8,-75.3 -132.7,-80.1 -135.7,-94.9 -135.1,-108.9 -132.9,-117.7 -129.8,-124.7 -125.6,-129 -120,-130.2 -116.8,-129.4 -109.6,-125.3 -102.8,-118.9 -96.8,-111.1 -92.5,-104 -89.2,-96.3" fill-opacity="1" fill="#ed6ba5"/><polyline id="SvgjsPolyline5510" points="-86.5,-93.7 -84.3,-82.7 -84.4,-76.7 -86,-70.3 -88.8,-64.6 -93.1,-59.9 -93.8,-60.6 -92.9,-60.8 -93.7,-60.8 -89.6,-65.2 -86.8,-70.6 -85,-76.8 -83.6,-82.7 -86.5,-93.7" fill-opacity="1" fill="#ed6ba5"/><polyline id="SvgjsPolyline5511" points="-187.2,-71.7 -191.4,-80.3 -196.8,-88.3 -204.3,-97.6 -212.4,-104.9 -220.2,-108.4 -223.7,-108.6 -226.9,-107.5 -232.4,-102.3 -236.7,-93.3 -238.1,-87.6 -239,-81.2 -238,-67.7 -237.3,-61.1 -235.1,-48 -229.8,-36.2 -223.5,-26.9 -224.7,-27.1 -223.3,-26.4 -224.5,-25.5 -224.7,-27.1 -224.9,-25.8 -231.4,-35.3 -234.4,-41.1 -236.8,-47.4 -240,-60.8 -240.8,-74.4 -239.6,-87.9 -238.1,-93.8 -233.5,-103.1 -230.6,-106.3 -227.4,-108.6 -223.8,-109.6 -220,-109.3 -212,-105.5 -203.9,-98 -196.5,-88.5 -191.3,-80.3 -187.2,-71.7" fill-opacity="1" fill="#ed6ba5"/><polyline id="SvgjsPolyline5512" points="-184.3,-42.4 -183.9,-41.1 -185.3,-41.5 -184.3,-42.4 -183.8,-40.9 -185.8,-35.8 -189.3,-31.7 -194.6,-27.9 -206,-22.7 -211.4,-21.7 -215.9,-21.8 -214.3,-23.4 -215.1,-22 -217.3,-22.6 -216.7,-24.8 -215.1,-24.8 -214.3,-23.4 -215.9,-25 -206.8,-25.8 -196.1,-30.4 -191,-33.7 -187.8,-37.1 -185.3,-41.9" fill-opacity="1" fill="#ed6ba5"/><polyline id="SvgjsPolyline5513" points="-120.5,-123.7 -114.2,-108.8 -112.8,-95.8 -113.7,-89.5 -116,-84.7 -119.1,-81.7 -122.7,-80.8 -126.1,-82.6 -128.9,-86 -131.2,-90.6 -130.2,-90.3 -131.2,-91 -130.1,-91.5 -130.2,-90.3 -129.9,-91.3 -127.7,-86.8 -125.2,-83.7 -122.5,-82.1 -119.7,-82.7 -116.8,-85.3 -114.6,-89.8 -113.5,-95.8 -114.4,-108.8 -115.6,-113.4 -120.5,-123.7" fill-opacity="1" fill="#ed6ba5"/><polyline id="SvgjsPolyline5514" points="-223.8,-103 -220.5,-101.3 -217.9,-98.4 -213.1,-90.3 -211.1,-83.9 -210.1,-76.1 -210.5,-68.4 -212.8,-61.7 -216.4,-56.6 -221,-53.6 -226,-53 -230.5,-54.9 -233.8,-58.4 -236.5,-68.2 -235.2,-67.2 -236.3,-67.7 -236.5,-68.8 -235.6,-69.6 -234.4,-69.2 -234.2,-68 -235.2,-67.2 -234.2,-68.6 -231.7,-59.8 -229,-57 -225.7,-55.5 -221.8,-56 -218,-58.4 -214.7,-62.7 -212.4,-68.8 -211.9,-76 -212.6,-83.6 -214.3,-89.9 -218.5,-97.9 -220.9,-100.9 -223.8,-103" fill-opacity="1" fill="#ed6ba5"/><polyline id="SvgjsPolyline5515" points="-206.1,-76.6 -203.1,-72.9 -199.5,-61 -199.8,-57.1 -201.2,-54.1 -203.5,-52.6 -205.7,-52.3 -204.9,-53.2 -206.1,-52.4 -206.2,-53.8 -204.9,-53.2 -205.8,-54 -202.5,-55.2 -201,-61 -202.7,-69 -206.1,-76.1" fill-opacity="1" fill="#ed6ba5"/><polyline id="SvgjsPolyline5516" points="-111.8,-97.7 -107.3,-91.9 -104.1,-83.9 -104.4,-81.2 -106,-79.2 -108.5,-78.6 -111.4,-79.5 -106.7,-80.4 -105.6,-81.7 -105.3,-83.9 -106.7,-89.1 -111.8,-97.7" fill-opacity="1" fill="#ed6ba5"/><polyline id="SvgjsPolyline5517" points="-129.2,-47.7 -129,-44.5 -133.4,-38.2 -141.5,-33.3 -145.4,-31.8 -144.5,-33.7 -145.4,-31.8 -146.9,-32.1 -147.1,-34.1 -145.7,-34.7 -144.5,-33.7 -146.5,-34.6 -135.1,-40.2 -130.3,-45.2 -129.2,-47.7" fill-opacity="1" fill="#ed6ba5"/><polyline id="SvgjsPolyline5518" points="-129.2,-43.7 -128.5,-38.9 -130.3,-25.5 -133.1,-22.7 -138.4,-22.6 -136.4,-24.2 -137.5,-22.7 -139.3,-22.9 -140,-24.6 -138.9,-26.1 -137.1,-25.9 -136.4,-24.2 -138,-26.2 -133.9,-26.1 -133.3,-26.9 -129.2,-43.7" fill-opacity="1" fill="#ed6ba5"/><polyline id="SvgjsPolyline5519" points="-72.5,-89 -57.1,-81.1 -56.5,-74.9 -57.4,-67.3 -60.2,-58.9 -65.1,-50.6 -71.7,-43.5 -79.5,-38.5 -86.7,-35.7 -92.7,-34.9 -97.2,-36.1 -100,-39.1 -101.5,-43.7 -101.1,-49.9 -99.5,-56.7 -96.7,-63.7 -88.4,-76.9 -87.6,-76.4 -95.9,-63.3 -100.4,-49.7 -100.8,-43.7 -99.6,-39.3 -97,-36.5 -92.7,-35.2 -86.8,-36 -79.6,-38.7 -71.9,-43.7 -65.3,-50.8 -60.4,-59 -57.6,-67.3 -56.6,-74.9 -57.2,-81.1 -72.5,-89" fill-opacity="1" fill="#ed6ba5"/><polyline id="SvgjsPolyline5520" points="-231.6,-15.2 -231.3,-16.3 -230.5,-15.5 -231.6,-15.2 -231.7,-16.2 -227.8,-19.9 -221.5,-24 -210.6,-27.1 -204.5,-27.3 -198.4,-26.4 -192.8,-24.1 -188.2,-20.6 -185.1,-16 -184.1,-10.3 -186,-4.1 -191.1,1.9 -198.8,7.2 -208.6,11.1 -218.9,13.5 -228.3,14.5 -236.2,14.1 -242.3,12.3 -246.7,9.5 -249.6,6 -251.2,2.2 -251.7,-1.5 -251,-5 -250.3,1.9 -248.7,5.4 -246,8.7 -241.9,11.3 -236,12.9 -228.3,13.2 -219.1,12.2 -209,9.8 -199.4,5.9 -192,0.9 -187.3,-4.8 -185.5,-10.4 -186.5,-15.4 -189.4,-19.5 -193.7,-22.7 -198.9,-24.6 -204.6,-25.4 -210.4,-25.1 -220.6,-22.2 -230.7,-15.2" fill-opacity="1" fill="#ed6ba5"/><polyline id="SvgjsPolyline5521" points="-52.7,5.1 -51.4,4.1 -49.6,5.4 -50.2,6.9 -51.8,7.2 -52.7,5.1 -50,4.3 -15.9,17 -7.8,20.9 6.5,30.9 11.6,36.6 15.2,42.6 16.5,49.5 15.8,56.4 12.2,63.4 6.4,69.6 -1.6,75 -12.3,79.3 -24.4,81.9 -38.5,82.3 -54.4,80.9 -84.8,75.2 -82.7,73.9 -83.9,75.2 -85.6,74.8 -85.7,72.3 -84.1,71.8 -82.7,73.9 -84.1,71.8 -54,77.3 -38.4,78.7 -24.9,78.3 -13.4,75.8 -3.3,71.8 4,66.9 9.2,61.2 12.2,55.3 12.7,49.7 11.7,43.9 8.5,38.9 3.8,33.7 -2.3,28.8 -17.4,20.5 -51.8,7.2" fill-opacity="1" fill="#ed6ba5"/><polyline id="SvgjsPolyline5522" points="-140.5,59.7 -121,76.1 -117.2,82.4 -115.2,89.4 -115.5,96.2 -119.1,102.3 -124.6,107 -132.7,109.7 -143.5,110.3 -155.3,109.1 -168,106 -180.9,101.5 -193.3,95.7 -204.2,89 -212.9,82.3 -212,82.2 -213.1,82.1 -212.4,81.2 -212,82.2 -211.1,81.4 -203.5,88 -192.7,94.6 -180.5,100.4 -167.7,105 -155.2,108.1 -143.4,109.4 -132.8,109 -124.9,106.5 -119.5,102 -115.8,96.1 -115.4,89.4 -117.3,82.5 -121,76.1 -140.5,59.7" fill-opacity="1" fill="#ed6ba5"/><polyline id="SvgjsPolyline5523" points="-143.8,53.7 -139.9,54.3 -135.8,56.5 -124.1,65 -117.5,70.8 -111.4,77.4 -106.5,84.7 -103.6,92.4 -103.4,100.5 -106.5,108.5 -111.7,115.4 -118.9,121 -127.8,124.8 -138,127 -149.4,128.2 -161.5,125.6 -173.8,122.2 -185.8,117.3 -196.9,110.8 -206.6,102.8 -214.4,93.6 -219.8,83.9 -223.3,74.7 -221.1,75.7 -223.3,74.7 -223,73.1 -220.6,72.8 -220.1,74.4 -221.1,75.7 -220.1,73.5 -216.8,82.5 -211.5,91.6 -204.1,100.3 -194.8,107.9 -184.2,114.1 -172.7,118.9 -160.8,122.2 -149.2,123.7 -138.4,123.6 -128.7,121.7 -120.6,118.2 -114,113.2 -109.2,106.9 -106.4,99.9 -106.6,93 -109.2,86 -113.6,79.2 -119.4,72.8 -131.9,62.1 -143.8,53.7" fill-opacity="1" fill="#ed6ba5"/><polyline id="SvgjsPolyline5524" points="-90.1,45.4 -88.8,45.1 -87.9,46 -88.2,47.3 -90.1,47.3 -90.1,45.4 -88.2,45.4 -79,53.1 -72.7,56.3 -63.6,59.1 -51.9,61 -38.4,62.4 -24.2,60.1 -10.9,57.4 -11.7,58.6 -10.9,57.4 -9.8,58.7 -10.5,59.4 -11.7,58.6 -10.5,59.4 -23.9,62.1 -38.3,63.6 -52.1,63.4 -64.2,61.7 -73.8,59 -80.5,55.6 -90.1,47.3" fill-opacity="1" fill="#ed6ba5"/><polyline id="SvgjsPolyline5525" points="-105.2,50.8 -99.6,59.7 -91.9,68.5 -93,68.5 -92.2,68.3 -91.9,69.5 -92.6,69.7 -93,68.5 -92,69.5 -100.9,60.6 -104.8,53.7 -105.4,51.1" fill-opacity="1" fill="#ed6ba5"/><polyline id="SvgjsPolyline5526" points="-65.7,-106.9 -64.6,-107.7 -63.4,-107.1 -63.8,-105.2 -65.1,-105.1 -65.7,-106.9 -63.9,-107.5 -55.8,-103.9 -23.5,-87.3 -14.9,-81.2 -12.4,-78 -11.2,-74.4 -11.1,-70.6 -13.6,-62.4 -16.1,-58.5 -19.8,-55.2 -24.4,-52.8 -28.7,-51.2 -27.6,-53.7 -27.9,-51.8 -30.6,-51.6 -30.8,-54.2 -29,-54.9 -27.6,-53.7 -30,-54.8 -21.9,-58.3 -19,-61 -17,-64.1 -14.9,-71 -15.7,-76.2 -17.6,-78.6 -25.3,-84.1 -65.1,-105.1" fill-opacity="1" fill="#ed6ba5"/><polyline id="SvgjsPolyline5527" points="-287,-35.6 -285.7,-34.6 -287.8,-34.8 -287,-35.6 -285.6,-33.4 -291.5,-4.7 -291.7,9.3 -290.5,15.2 -287.7,20.6 -283.5,25.3 -277.5,29.2 -261.9,34.7 -248.1,36.7 -249.9,38.1 -248.9,36.8 -247.3,36.9 -246.7,38.4 -247.6,39.7 -249.2,39.6 -249.9,38.1 -248.4,39.9 -262.7,37.9 -270.8,35.5 -279,32.2 -285.7,27.9 -290.4,22.5 -293.7,16.3 -294.9,9.7 -295.1,2.6 -292.4,-18.8 -287.8,-35.2" fill-opacity="1" fill="#ed6ba5"/><polyline id="SvgjsPolyline5528" points="-247.2,11 -245.2,14.8 -244.5,18.5 -244.7,26.4 -246.4,30.5 -249.5,34.1 -253.8,36.7 -258.7,38.1 -264.1,38.1 -269.4,36.8 -274.5,34.3 -278.8,30.8 -285,22 -283.6,23.3 -285.1,21.5 -283.7,20.6 -283.6,22.3 -283.3,21 -277.3,29.3 -273.3,32.4 -268.6,34.4 -263.8,35.4 -259.1,35.2 -254.9,34.1 -251.3,32 -248.6,29.1 -247,25.7 -246.3,18.6 -247.2,11" fill-opacity="1" fill="#ed6ba5"/><polyline id="SvgjsPolyline5529" points="-281.2,-39.7 -285.8,-23.8 -287,-16.5 -287.8,0.8 -286.1,17.9 -287.4,17 -286.1,17.9 -287.1,19.2 -288.3,18.2 -287.4,17 -288.3,18.2 -290.3,0.9 -289.2,-16.7 -286,-29.8 -281.2,-39.7" fill-opacity="1" fill="#ed6ba5"/><polyline id="SvgjsPolyline5536" points="-221.2,42.3 -220.2,42.6 -219.2,44.3 -220.2,46.1 -222.2,46.1 -223.2,44.3 -222.2,42.6 -221.2,42.3 -218.8,45.3 -219.6,62.7 -215,83.3 -212,90.1 -205.7,99.9 -197.6,108.9 -187.4,115.8 -176.1,119.6 -165.2,120.2 -155.2,117.4 -146,116.5 -141.5,115.1 -142.3,117.2 -141.4,119.3 -152,115.3 -169.7,106.5 -186.8,100.4 -204.3,96.8 -211.7,94.4 -216.8,90.7 -221.1,85 -219.9,86.4 -217.2,84 -216.9,82.5 -209.1,92.2 -200.5,100.1 -189.8,108.2 -176.8,115.3 -178.3,115.8 -179.8,119.6 -207.9,96.4 -208.9,91.9 -204.5,91.2 -161,117.8 -163.9,119.2 -164.4,122.3 -196.1,97.9 -197.2,93.5 -192.5,92.9 -177,102.2 -147.3,118.1 -145,120.2 -145.9,124.1 -150.3,123.7 -162.8,116.7 -187.1,100.8 -203.6,88.5 -199.7,87.9 -202.3,89 -204.5,87.4 -204.2,84.7 -201.6,83.6 -199.4,85.2 -199.7,87.9 -200.3,84.1 -171.7,104.6 -147.8,118.4 -149.2,119.3 -150.1,123 -179.8,107.4 -195.4,98.1 -192.3,96.8 -192.3,93.4 -160.4,117.8 -159.1,122.7 -163.9,123.1 -207.2,96.5 -204,95.3 -202.9,92 -176,114.9 -173.9,117.2 -175.4,121 -178.8,122 -190.7,114.7 -201.4,107 -210.4,99.2 -220.1,88.4 -222.5,84.4 -222.4,81.2 -219.1,79.6 -216.8,81 -211.6,87.6 -207.7,89.7 -187.6,93.9 -162.5,103.1 -149.4,109.9 -137.7,114.5 -136.3,117.2 -137.6,119.9 -143.3,122.2 -152.8,123.2 -164.1,126.4 -172.4,126.5 -180,125.2 -186.5,123.1 -192.3,120.2 -201.8,113.4 -208.9,105.9 -214.4,97.8 -218.1,91.4 -221.2,83.6 -225.3,61.6 -224.9,52.5 -223.2,44.3" fill-opacity="1" fill="#ed6ba5" filter="url(#parallel-hatches-fine)"/><polyline id="SvgjsPolyline5543" points="-218.5,44.8 -217.2,45.6 -217.2,47.1 -218.5,47.9 -219.8,47.1 -219.8,45.6 -218.5,44.8 -216.4,47.1 -213.8,61.3 -208.4,74.2 -199.2,86.5 -184.7,98.2 -189.1,99 -186.3,97.6 -183.7,99.4 -183.9,102.5 -185.2,103.5 -188.3,103.3 -189.3,102.1 -189.1,99 -188.3,103.3 -199.3,95 -205.9,88.4 -211.9,80.2 -216.7,71 -219.3,62.6 -220.9,50.8 -220,46.3" fill-opacity="1" fill="#ed6ba5" filter="url(#parallel-hatches-fine)"/><polyline id="SvgjsPolyline5550" points="-219.2,68.3 -211.3,81.3 -201.8,90.9 -204.9,91.1 -202.8,90.4 -201.1,91.9 -201.1,93 -202.5,94.7 -203.7,94.7 -205.3,93.3 -204.9,91.1 -204.7,94.2 -212.1,87.4 -214.8,83.8 -220.2,72.5 -220.2,69.8 -219.2,68.3" fill-opacity="1" fill="#ed6ba5" filter="url(#parallel-hatches-fine)"/><polyline id="SvgjsPolyline5557" points="-95.8,39 -94.4,40.1 -93.6,40.2 -88,50.1 -83.6,55.4 -66.5,70.4 -64.3,75 -65.5,77.9 -67.9,79.2 -73.2,79.5 -86.1,77 -96.4,71.6 -106.4,62.4 -111.1,55.3 -112.9,49.4 -111.8,43.9 -108.2,41.5 -103.3,42.8 -98.3,46.8 -79.2,67.4 -78,69.3 -78.5,73 -82.1,74.3 -84.6,73.4 -103.9,57.9 -101.1,57.3 -99.9,53.9 -92.4,62.6 -96.6,65 -97.1,66.4 -101.6,58.2 -104.3,49.7 -104.2,45.3 -101.6,39.5 -100.2,38.2 -96.6,38 -94.4,39.6 -93.1,41.9 -91.4,47.3 -95.6,45.3 -93.9,45.2 -91.4,47.3 -91.9,50.5 -93.3,51.5 -96.5,51 -97.7,47.9 -95.6,45.3 -97.5,49.6 -99.4,44 -98.1,45.4 -96.4,43.7 -97.7,46.7 -97.4,50.6 -94.2,58.3 -91.4,62.9 -90.2,67 -94.2,69.4 -97.2,67.3 -104.9,58.2 -106.1,56.1 -104.9,51.9 -100.7,52.1 -81.3,67.6 -83.7,68.9 -84.2,71.4 -102.9,51.2 -107.3,47.8 -106.5,47.3 -106,51.5 -102.6,57.2 -92.8,66.7 -86.5,70.4 -81.4,72.2 -69.5,73.6 -70.1,75 -85.1,61.7 -90,56 -95.7,46.1 -97.1,41.4 -97,39.9 -95.8,39" fill-opacity="1" fill="#ed6ba5" filter="url(#parallel-hatches-fine)"/><polyline id="SvgjsPolyline5564" points="-91.6,48.5 -89.7,47.5 -87.9,48.7 -88,50.9 -88.9,51.6 -91,51.5 -91.8,50.6 -91.6,48.5 -88.6,47.9 -75.4,56.7 -61.4,62.5 -34.4,71 -32.4,72 -30.9,75.1 -32.9,77.8 -35.5,78.5 -51.3,78.5 -73,75 -82.5,72.1 -94.4,66.1 -90.6,64.9 -91.6,65.9 -94.4,66.1 -95.5,65.1 -95.6,62.2 -94.6,61.1 -91.8,61 -90.7,62 -90.6,64.9 -91.8,61 -76.1,68.3 -62.5,71.2 -50.8,72.8 -35.6,72.9 -36.5,74.6 -35.9,76.4 -67.2,66.1 -80.7,59.8 -91,51.5" fill-opacity="1" fill="#ed6ba5" filter="url(#parallel-hatches-fine)"/><polyline id="SvgjsPolyline5571" points="-278.5,-39.7 -278.4,-38.5 -286.3,-25.3 -289.1,-16.3 -289.3,-3.1 -286.8,9.4 -284.6,14.4 -281.8,18.3 -275.7,22.9 -270.7,25.1 -260.1,27.8 -244.9,26.5 -242.7,28.2 -242,31.2 -244.8,35.3 -249.2,37.5 -259.2,38.8 -267.6,35.9 -278.7,26.7 -283.6,20.9 -287.5,14.2 -290.2,2.3 -289.8,-11.8 -288,-20.5 -283.9,-32.9 -281.7,-28.4 -283.2,-29.5 -283.9,-32.9 -282.8,-34.4 -279.4,-35.1 -277.9,-34 -277.2,-30.6 -279.9,-28.3 -281.7,-28.4 -277.2,-30.6 -281.2,-18.7 -283.2,-6.7 -283.1,1.7 -281,11.5 -278,16.9 -273.8,22 -264.2,30 -260.3,31.8 -256.9,32.1 -251.3,31.1 -248.5,29.6 -248.2,31.9 -247.1,32.8 -260.4,34.3 -266.9,33.3 -273.2,31.1 -278.9,28.4 -284.1,24.7 -288.3,20 -291.4,14.5 -293.4,8 -295.1,-2.5 -295.2,-9.9 -294.4,-17.3 -290.8,-27.3 -286,-35 -281,-40.1 -278.9,-40.5 -278.5,-39.7" fill-opacity="1" fill="#ed6ba5" filter="url(#parallel-hatches-fine)"/><polyline id="SvgjsPolyline5578" points="-55.3,-85.4 -53.6,-86.2 -52.1,-85.1 -52.3,-83.2 -54.9,-82.8 -55.3,-85.4 -52.1,-85.6 -39.3,-75.6 -33.6,-72 -27.6,-69.8 -17,-67.8 -13.4,-66.4 -12.1,-64.6 -11.8,-62.3 -12.6,-60.2 -17.9,-56.3 -34.5,-50.8 -38.8,-50.4 -44.2,-51.7 -46.6,-53.6 -48.1,-56.4 -52,-73 -56,-82.2 -53.9,-85.8 -50.1,-84.5 -31.4,-62.3 -31,-57 -36.4,-57.7 -44.8,-65.1 -43.1,-65.2 -41.2,-67.7 -37.2,-61.1 -37.8,-56.7 -42.3,-56.6 -44.8,-58.9 -43.9,-58.7 -40.4,-61.4 -41.3,-64.1 -23.8,-66.7 -24.5,-65.9 -25.2,-61.3 -31.8,-64 -28.8,-65.7 -29.5,-69.7 -24.4,-66.6 -28.8,-66.2 -27.5,-67.2 -24.4,-66.6 -23.3,-63.7 -24,-62.2 -25.3,-61.3 -28.4,-61.8 -29.3,-63.1 -28.8,-66.2 -28.4,-61.8 -33.1,-64.5 -34.2,-69 -29.5,-69.9 -22.6,-67.2 -19.7,-65.1 -20.5,-61 -39,-57.5 -41.2,-57.5 -44.9,-58.8 -46.8,-62.3 -43,-65.1 -38.8,-62 -42.1,-61.5 -43.2,-58.7 -47.6,-67.9 -45.3,-71.2 -41.6,-70.5 -32.4,-62.7 -35.4,-61.6 -36.5,-58.6 -54.6,-80.2 -51.9,-80 -49.9,-83 -46.2,-75 -41.8,-57.2 -36.8,-56.3 -22.1,-60.8 -17.3,-63.2 -16.8,-62.1 -28.9,-64.7 -35.9,-67.4 -42.3,-71.5 -54.9,-82.8" fill-opacity="1" fill="#ed6ba5" filter="url(#parallel-hatches-fine)"/><polyline id="SvgjsPolyline5585" points="-248.1,-131 -247.8,-128.9 -249.5,-127.5 -251.6,-128.3 -251.9,-130.5 -250.2,-131.9 -248.1,-131 -248.5,-127.9 -254,-121 -257.4,-114.9 -262.4,-103.1 -267.4,-88.5 -272.4,-67.6 -273.3,-53 -271.8,-37.3 -268,-22.1 -256.7,-2.3 -251.6,4.9 -244.2,12.7 -248.9,12.7 -245.7,11.8 -243.3,14.2 -243.3,15.9 -245.6,18.3 -248.8,17.4 -249.7,14.2 -248.9,12.7 -248.8,17.4 -256.9,9.1 -263.6,-0.6 -272.9,-17.1 -277.1,-30.4 -279.6,-50.1 -278.6,-68.5 -275.4,-83.1 -271.9,-94.1 -262.4,-117.5 -256.6,-126.5 -251.2,-131.4" fill-opacity="1" fill="#ed6ba5" filter="url(#parallel-hatches-fine)"/><polyline id="SvgjsPolyline5592" points="-245.1,20.7 -242.7,19.9 -240.8,21.5 -241.3,24 -243.6,24.8 -245.5,23.2 -245.6,21.9 -245.1,20.7 -241.5,20.4 -233,26.1 -226.9,29.1 -213.8,34.8 -205.3,37.3 -187.6,41 -167.8,44 -141,45.5 -138.2,46 -135.4,48.7 -137,52.4 -146,55.9 -171.8,60.6 -181.5,61.2 -190.5,60.2 -207,55.4 -228.5,46.2 -237.3,41.1 -249.3,31.1 -245.6,29.9 -246.1,26.1 -221.7,38.5 -191,51.8 -187.7,56.6 -192.4,58.4 -214.9,46.7 -233.5,35.7 -231,34.1 -230.4,30.2 -218.2,36.5 -194.1,45.3 -166.8,50.3 -169.8,53 -168.9,55.9 -187.9,53.4 -186.8,51.6 -187.5,48.4 -175.3,50.1 -160.1,49.3 -133.5,43.1 -117.3,38.3 -119.3,41.8 -119.3,40.3 -117.3,38.3 -114.6,39 -113.8,41.7 -115.8,43.8 -118.5,43.1 -119.3,41.8 -115.8,43.8 -132,48.7 -153.5,53.9 -164.9,55.7 -180.2,55.5 -190.6,53.4 -192.2,49.3 -187.6,47.5 -168,50.1 -163.8,53.6 -167.3,56.3 -195.7,51 -212,45.4 -232.2,36.6 -234.8,35.1 -235.9,30.7 -230.6,30.5 -212,41.4 -190.6,52.5 -193.4,54.6 -193.8,57.2 -224.3,44.1 -241.8,35.4 -249.5,31.1 -250.8,26.7 -246.3,25.8 -233.7,36.1 -225.8,40.7 -204.8,49.7 -193.2,53.4 -181.3,55.2 -172.5,54.7 -147.4,50.1 -140.9,48 -141.2,49.9 -140.2,51.6 -168.5,49.9 -188.6,46.8 -206.8,42.9 -215.7,40.3 -229.4,34.2 -235.7,31 -244.8,24.2" fill-opacity="1" fill="#ed6ba5" filter="url(#parallel-hatches-fine)"/><polyline id="SvgjsPolyline5606" points="-195.2,-63.7 -190.9,-64.8 -188.7,-64.3 -185.4,-60.9 -183.1,-55.3 -182.1,-50 -182.6,-43.8 -184.8,-37.8 -188.2,-33 -196,-27.1 -204.1,-23.4 -208.6,-22.4 -212,-22.3 -217.8,-23.9 -227.7,-31.2 -233.4,-38.7 -236.3,-45.4 -236.4,-55 -230,-61.8 -235.9,-44.7 -237.1,-51.2 -235,-57.5 -230,-61.8 -223.5,-63.1 -217.2,-60.9 -212.9,-55.9 -211.6,-49.4 -213.8,-43.2 -218.8,-38.8 -225.3,-37.6 -231.6,-39.7 -235.9,-44.7 -218.8,-38.8 -212.6,-45.6 -212.6,-54.8 -210.5,-50 -206.6,-46.1 -211.3,-46.7 -203.1,-49.8 -200.4,-59.9 -195.2,-63.7" fill-opacity="1" fill="#48d1e1" filter="url(#parallel-hatches-fine)"/><polyline id="SvgjsPolyline5613" points="-101.8,-97 -96.6,-98 -94,-96.9 -90.1,-91.6 -87.9,-85.6 -87.6,-81.8 -88.8,-74.8 -91.7,-69.3 -95.1,-65.1 -101.2,-60.9 -106.4,-59.4 -109.7,-59.3 -115.3,-60.7 -120.5,-63.2 -128.5,-68.9 -121.6,-66.8 -109.5,-75.6 -109.7,-84.1 -126.3,-91.3 -119.7,-92.1 -113.7,-89.4 -109.7,-84.1 -109,-77.5 -111.6,-71.4 -117,-67.5 -123.6,-66.7 -129.7,-69.4 -133.6,-74.7 -134.3,-81.3 -131.7,-87.4 -126.3,-91.3 -133.6,-74.7 -133.9,-83.4 -121.6,-92.4 -114.3,-90.2 -105.6,-83 -110.2,-82.4 -107.7,-83.8 -105.7,-93.4 -101.8,-97" fill-opacity="1" fill="#48d1e1" filter="url(#parallel-hatches-fine)"/><polyline id="SvgjsPolyline5620" points="-105.3,-122.3 -103,-122.9 -100.8,-122.2 -99.2,-120.5 -98.6,-118.2 -99.3,-115.9 -101,-114.3 -103.3,-113.8 -105.6,-114.5 -107.2,-116.2 -107.7,-118.5 -107,-120.7 -105.3,-122.3 -97,-119.3 -88.1,-105.7 -86.4,-101.5 -85.8,-96.4 -87.6,-91.3 -91.3,-87.8 -99.8,-83.9 -104.9,-82.8 -111,-84.2 -114.3,-87.3 -116.1,-93 -115.3,-110 -105.1,-104.2 -109.4,-104.2 -113.1,-106.3 -115.3,-110 -115.3,-114.3 -113.2,-118 -109.5,-120.2 -105.2,-120.2 -101.5,-118.1 -99.3,-114.4 -99.2,-110.1 -101.4,-106.4 -105.1,-104.2 -99.3,-114.4 -98.2,-108.2 -99.3,-94.5 -102.5,-98.6 -105.5,-99.4 -99.1,-101.6 -100.9,-98.2 -106.2,-110.4 -107.4,-113.8 -107.2,-116.2" fill-opacity="1" fill="#4a1533" filter="url(#parallel-hatches-fine)"/><polyline id="SvgjsPolyline5627" points="-200.4,-90.8 -196.7,-91.5 -193.2,-90.3 -190.7,-87.6 -190,-83.9 -191.2,-80.4 -193.9,-77.9 -197.6,-77.1 -201.1,-78.3 -203.6,-81.1 -204.4,-84.8 -203.2,-88.3 -200.4,-90.8 -190.7,-87.6 -187.9,-81.5 -187.1,-75.5 -187.5,-69.9 -188.6,-64.9 -192.6,-57.3 -197.3,-53.2 -203.1,-50.1 -209.7,-50.7 -214.3,-55.6 -215.3,-59.3 -216.5,-85.3 -206.6,-78 -211.1,-78.5 -214.7,-81.2 -216.5,-85.3 -215.9,-89.8 -213.2,-93.4 -209.1,-95.2 -204.6,-94.6 -201,-91.9 -199.3,-87.8 -199.8,-83.3 -202.5,-79.7 -206.6,-78 -199.3,-87.8 -198,-77.1 -196.9,-61.4 -201.9,-66.3 -207.1,-66.9 -208.5,-66.4 -205.7,-68 -204.1,-70.3 -202.9,-75.6 -203.6,-81.1" fill-opacity="1" fill="#4a1533" filter="url(#parallel-hatches-fine)"/><polyline id="SvgjsPolyline5634" points="-124.5,-121 -121.1,-118 -118.3,-112.9 -116.3,-105.6 -116,-96.1 -118.6,-90.9 -121.9,-88.5 -126.7,-88.5 -130,-90.5 -131.9,-92.7 -134.2,-97.4 -136.1,-104.5 -137.1,-116.4 -135.6,-123.7 -132.8,-127.8 -130.5,-129.7 -124.4,-131.1 -118.6,-127.2 -113.9,-115.8 -112.2,-107.9 -111.5,-98.9 -113,-90.4 -117.6,-85.2 -125.1,-84.3 -129.9,-86.9 -132.5,-89.8 -136.6,-99 -137.4,-105.9 -137,-112.3 -134.8,-121.6 -127.5,-126.8 -118,-123.6 -114.7,-118.3 -113.2,-113 -111.9,-102 -112.9,-95.3 -120.6,-88.1 -131.1,-90.9 -134.8,-96.5 -137.5,-109.4 -126.4,-100.1 -131.6,-101 -135.7,-104.4 -137.5,-109.4 -136.6,-114.6 -133.2,-118.6 -128.2,-120.5 -123,-119.5 -118.9,-116.1 -117.1,-111.2 -118,-106 -121.4,-101.9 -126.4,-100.1 -117.1,-111.2 -115.9,-104.3 -117.5,-105.9 -125.8,-107.8 -132.1,-102.5 -133.5,-111 -132.3,-109.9 -124.5,-107.6 -118.2,-112.2 -119.7,-105.8 -118.4,-100 -120.7,-101 -125.8,-100.3 -128.7,-97.5 -128.9,-105.5 -132.2,-117.9 -127.2,-115 -121.9,-115.9 -121.5,-116.7 -121.9,-109 -120.6,-99.6 -122.5,-100.4 -125.3,-100.3 -126.8,-99.4 -125.9,-100.3 -125.1,-105.2 -124.5,-121" fill-opacity="1" fill="#f7de8c" filter="url(#parallel-hatches-fine)"/><polyline id="SvgjsPolyline5641" points="-226.1,-102.1 -221.1,-102.7 -216.4,-100.7 -213.4,-96.6 -212.8,-91.6 -214.8,-86.9 -218.9,-83.9 -223.9,-83.3 -228.6,-85.3 -231.6,-89.4 -232.2,-94.4 -230.2,-99.1 -226.1,-102.1 -213.4,-96.6 -211.1,-91.4 -211.4,-77.4 -212.5,-71.2 -215.4,-64.5 -225.9,-59.4 -235.4,-65.2 -238.6,-71 -240.4,-77.2 -241.3,-92.9 -240.7,-97.1 -238.6,-102.5 -231.2,-107.6 -222.8,-106.4 -218.3,-102.8 -215.3,-98.5 -211.9,-87.9 -211.2,-82.1 -211.6,-71.6 -213.3,-66.2 -218.5,-60.4 -229.2,-59.6 -235.8,-66 -239.5,-75 -241.1,-84.3 -240.6,-90 -236.4,-97.2 -226.2,-99.7 -219,-95.1 -216,-89.8 -213.8,-78 -214.4,-72 -215.7,-68.1 -222.1,-81.5 -217.6,-78.4 -215.2,-73.5 -215.7,-68.1 -218.8,-63.6 -223.7,-61.3 -229.2,-61.7 -233.6,-64.8 -236,-69.7 -234.5,-75.2 -232.4,-79.6 -227.5,-82 -222.1,-80.5 -235.5,-75.2 -234.9,-77.7 -235.7,-82 -230.6,-79 -222.6,-80.9 -220,-84.8 -217.6,-77 -221,-79.2 -229.2,-78.7 -232.3,-75.7 -232.7,-84.1 -234.1,-88.7 -232.4,-87.7 -226.6,-87.1 -221.2,-90.6 -220.3,-92.3 -220.4,-85.1 -218.9,-77.9 -224.4,-80.1 -232.3,-76.8 -231,-87.6 -231.6,-89.4" fill-opacity="1" fill="#f7de8c" filter="url(#parallel-hatches-fine)"/><polyline id="SvgjsPolyline5653" points="-233.8,-145 -232.8,-141.3 -233.7,-138.9 -251.1,-114.8 -256.5,-104.7 -262.6,-84.3 -264.6,-72.3 -263.6,-61.9 -256.4,-36.9 -249.3,-17.3 -243.6,-4.9 -237.3,3.4 -226.3,13.7 -215.8,19 -189.1,28.4 -174.6,31.9 -160.1,33.5 -145.4,33.3 -125.9,31.8 -135.8,43.2 -134.7,37.8 -131.1,33.6 -125.9,31.8 -120.4,32.9 -116.2,36.5 -114.4,41.8 -115.5,47.2 -119.1,51.4 -124.4,53.2 -129.8,52.1 -134,48.5 -135.8,43.2 -124.4,53.2 -149.9,55.1 -166.3,54.7 -184.9,51.8 -195.6,48.9 -223.7,38.7 -234.3,33.1 -241.4,27.9 -250,19.8 -261.1,5.5 -266.5,-5.6 -274.4,-27.2 -281.3,-51.7 -283.8,-67.2 -282.9,-79.7 -280.7,-89 -274.8,-106.5 -266.6,-121.2 -255,-134.5 -242.9,-145.7 -239.7,-147.2 -237,-147.3 -233.8,-145" fill-opacity="1" fill="#f78cd3" filter="url(#splotchy-flickering)"/><polyline id="SvgjsPolyline5665" points="-275.2,-43.7 -274.4,-41.2 -272.3,-40.1 -279,-17.5 -280,-6.8 -279.5,-1.4 -278.1,3.2 -275.8,7.3 -269.2,13.8 -260.3,18.1 -251.1,20.4 -257.8,23.9 -259.4,31.2 -266.5,15.8 -278.8,-17.3 -275.3,-15.4 -266.9,-16.9 -265.4,-18.8 -263.5,-8.9 -255.2,9.1 -267.6,5.2 -263,4.1 -258.4,5.6 -255.2,9.1 -254.2,13.8 -255.7,18.3 -259.2,21.5 -263.9,22.5 -268.4,21.1 -271.6,17.5 -272.6,12.9 -271.1,8.3 -267.6,5.2 -271.6,17.5 -278.6,3 -282.8,-9.7 -283.8,-17 -283.1,-23.2 -279.7,-29.9 -268.8,-32.4 -262.3,-24.9 -249.9,9.1 -243,24.5 -243.7,34.4 -252.9,37.9 -266.3,34.2 -278.9,27.6 -284.9,22.5 -289.7,16.3 -293.2,9.1 -295.2,1.2 -295.6,-6.8 -294.8,-14.2 -291.7,-26.1 -288,-34.7 -282.1,-43.8 -278,-46.8 -276.2,-46.3 -275.2,-43.7" fill-opacity="1" fill="#f78cd3" filter="url(#splotchy-flickering)"/><polyline id="SvgjsPolyline5677" points="-215.2,51 -210.6,55.1 -204.2,74.5 -199.7,83.3 -194.1,91.3 -189.9,95.9 -180.3,103.9 -170.8,108.3 -158.1,110.8 -147.3,109.6 -140.2,106.8 -133,101.7 -129.1,98.8 -127.8,92.4 -129.7,87.8 -134.5,80.9 -147.9,66.8 -154.1,63.9 -163.4,63 -172.8,64.8 -190.9,64.2 -202.7,62 -210,59.7 -207.2,59.3 -201.9,54.4 -201.1,52.5 -196.5,63.5 -192.3,70.4 -187.5,76.7 -182.1,82.3 -168.9,91.4 -151.5,99.8 -156.7,102.8 -158.8,114.4 -159.8,114.5 -172.6,103.4 -192.7,83 -196.8,78.1 -200.6,70.4 -193.6,60.7 -183.3,63.7 -161.6,79.6 -140.1,94 -149.1,97 -150,107.3 -164.4,93.1 -182.8,71.9 -185.5,61.8 -175.8,55.5 -169.6,57.6 -153.2,67.5 -139,77.9 -124.8,89.5 -126.7,89.1 -135.4,93 -136.5,99.8 -147.3,84.3 -151.5,79.7 -160.7,71.6 -147.9,70.3 -151.7,73 -156.4,73.5 -160.7,71.6 -163.5,67.8 -164,63.1 -162,58.8 -158.2,56 -153.5,56.5 -149.2,57.5 -146.4,61.3 -146,66 -147.9,70.3 -149.2,57.5 -138.4,66.9 -129,78.3 -119.5,93.6 -120.1,102.7 -130,106.9 -135.7,103.9 -163.4,82.3 -177.6,73.6 -168.5,67.4 -168.4,61.3 -151.4,80.9 -136.2,96 -135.5,108.8 -148.9,109.7 -172,94.4 -193.4,78.7 -189,78.2 -182.5,69.4 -182.5,66.9 -160.1,90.1 -143.3,104.6 -145.2,117.1 -158.6,116.7 -164.6,114.2 -178.2,107.3 -194.3,96.2 -201.6,88.8 -212.9,72.3 -219.2,56.8 -219.3,47.8 -212.1,41.3 -205.3,41.6 -193.6,44.9 -183.2,46.3 -174.3,46.5 -162.1,44.5 -153.6,44.9 -144,47.7 -139.8,49.8 -133.5,54.7 -124.2,64.4 -116.2,73.9 -113.2,78.9 -109.3,89.2 -109,93.8 -110.1,101 -112.3,107.2 -117.2,113.1 -127.6,120.6 -134.7,124.7 -143.6,127.5 -152.9,128.8 -164.7,128.3 -176.9,125.2 -183.3,122.5 -190,118.6 -202.2,108.1 -211.4,96.5 -216.7,86 -220.7,75 -223.1,59.4 -222.7,54.4 -221.2,50.9 -219,49.6 -215.2,51" fill-opacity="1" fill="#f78cd3" filter="url(#splotchy-flickering)"/><polyline id="SvgjsPolyline5689" points="-105.2,41 -90.8,51.7 -76.7,58.9 -62.4,64.5 -51.2,66.9 -43.4,66.9 -37.8,65.4 -22.8,58.5 -2.5,47.7 -3.4,50.6 -7.1,44.8 -11.8,39.2 -22.8,29.5 -33.7,23.9 -50,18.5 -46.4,15.5 -45.5,8.4 -47.1,5.3 -11.3,25.8 -3.1,32.1 4.8,40.4 9.1,49.7 9.5,56.2 8.8,59.3 6.2,64.5 -0.9,71.7 -9.6,77.3 -17.1,80.2 -26.3,82 -34.7,83.4 -45.7,80 -51.5,77.5 -57.5,74.1 -63.2,68.9 -71,57 -76,43.6 -76.8,35.8 -76,28.9 -72.6,21 -64.1,16.3 -55.9,16 -48.1,18.1 -40.2,22.2 -33,27.5 -21.5,38.3 -17.3,43.9 -14.2,51.8 -16.5,60.9 -23.3,66.6 -31.8,67.8 -39.3,66.6 -46.3,64.4 -58.8,58.6 -67.7,52.3 -73.3,46.5 -75.8,39.7 -72.7,31.5 -66.1,27.8 -59.5,27.5 -47.3,30.4 -40.9,33.5 -29.7,40.8 -21.5,48.8 -18.8,56.8 -24.2,66 -33.2,67.5 -41.5,64.9 -57,57.2 -64,52.1 -69.8,46.6 -74.2,41 -77.4,35.5 -79.7,29.4 -79.9,22.9 -77.7,14.7 -77.9,17.6 -68.8,27 -61,23.9 -71.2,34.7 -86.3,46.3 -85.7,44 -86.1,41.1 -87.4,39 -61.7,52.8 -70.2,55.1 -71.9,67.5 -70.2,69.5 -74.5,67.1 -80.3,57.4 -71,48.3 -63.1,50 -74.8,57 -72.4,52.6 -68.1,50.1 -63.1,50 -58.7,52.4 -56.2,56.7 -56.1,61.7 -58.5,66.1 -62.8,68.6 -67.8,68.7 -72.2,66.3 -74.8,62 -74.8,57 -67.8,68.7 -71.8,67.7 -69.7,67.7 -60.8,58.8 -64.6,50.3 -60.1,52.7 -55.6,56.6 -57.1,69.7 -69,71 -90.3,59.8 -101.1,52.9 -104.5,47.8 -105.1,42.2 -103.8,37.6 -101.7,34.2 -83.9,20 -76.5,12.2 -67.7,7.5 -58.4,17.1 -60.7,25.4 -55.4,33.5 -46.6,40.8 -30.7,48.3 -34.4,49.5 -38.2,56 -37.6,59.6 -41.5,56 -50.1,50.4 -54.5,48.2 -61.5,46.4 -58.6,44.5 -56.7,39.1 -57.5,35.7 -52.8,39.9 -44.9,44.4 -30.6,49.1 -32.4,50.6 -33.4,53.7 -39.7,46.5 -44.6,42.1 -55,35.5 -59.8,34.4 -58.7,33.3 -57.8,32.9 -57.8,39.9 -54.4,48.8 -49.4,56.6 -46.6,59.2 -39.5,62.6 -30.9,64.1 -20.4,62 -10.8,56.3 -8.9,54 -9.5,52.3 -18.1,43.7 -31.3,35.2 -58,20.4 -63.2,14.2 -62,5.3 -57.6,1.5 -54,0.2 -48.4,-0.2 -36.7,3.3 -19.6,11.8 -9.9,18.1 0.4,27.9 8.5,38 11.8,44.3 12.8,48 12.9,52.2 11.3,56.4 9,59.1 0.1,64.6 -30.2,77 -37.7,79 -47.5,79.5 -59.1,77.3 -66.1,74.9 -81.1,67.7 -88.8,63.1 -95.7,58.2 -102.6,50 -105,46 -104.2,41" fill-opacity="1" fill="#f78cd3" filter="url(#splotchy-flickering)"/><polyline id="SvgjsPolyline5701" points="-56.5,-86.3 -59.6,-91 -57.6,-94.2 -53.4,-92.8 -49.9,-90.1 -34.3,-75.5 -28.1,-72.6 -21.7,-71.4 -25.1,-68.7 -25.9,-65.9 -29.9,-74.5 -34.7,-79.2 -45.3,-85.5 -60.3,-91.5 -52.4,-94.1 -50.9,-102.7 -51.5,-103.8 -30.7,-89.4 -21.3,-81.7 -19.9,-80.1 -31.8,-81 -27.9,-82.9 -23.5,-82.6 -19.9,-80.1 -18,-76.2 -17.3,-71.8 -20.8,-68.2 -24.7,-66.3 -29.1,-66.6 -32.7,-69 -34.6,-73 -34.3,-77.4 -31.8,-81 -32.7,-69 -40.6,-75.6 -61.8,-90.5 -66,-95.5 -64.8,-105.2 -55.8,-107.7 -35,-98.4 -21.9,-89.3 -16.7,-83.2 -13.6,-76.7 -10.9,-66.5 -12,-61.7 -15.5,-58.3 -21,-57.1 -26.7,-57.9 -37.3,-62.7 -45.6,-69.8 -56.5,-84.2 -58.4,-87.2 -56.3,-90.2 -57,-88.7 -56.5,-86.3" fill-opacity="1" fill="#f78cd3" filter="url(#splotchy-flickering)"/><polyline id="SvgjsPolyline5713" points="-245.8,-130.3 -245.7,-134.3 -239.6,-145 -234.1,-149.6 -226.7,-153.5 -218.8,-156.3 -206.4,-158.9 -176.3,-161.1 -181.2,-154.4 -176,-146.6 -181.9,-147 -188.7,-146.1 -197.3,-143.5 -202.2,-141.1 -217,-131.2 -229.8,-117.2 -234.3,-110.2 -242,-93.3 -246.9,-79.7 -249.6,-65.7 -254.9,-57.5 -266.5,-60.5 -268.9,-69 -268.4,-76.6 -266.6,-85.1 -259.6,-106.5 -253.4,-98.1 -241.9,-102.9 -242.7,-88 -241,-69.3 -237.9,-49.3 -229.4,-7 -237,4.6 -249,-4 -252.8,-16.3 -259.7,-44.4 -264,-63.6 -262.8,-64.9 -253.1,-64.3 -249.9,-65.5 -247.9,-55.1 -244.1,-42.7 -238.2,-30.6 -230.5,-19 -221.9,-8.8 -213.2,-0.5 -201.2,9.2 -193,13.8 -202.2,18.9 -201.9,27.2 -207.6,23 -218.8,12.3 -235.4,-9.8 -235.3,-22.2 -223.8,-24.7 -219,-22.8 -206.4,-16.6 -187,-4.7 -179.7,-3.4 -155.4,10.2 -147.8,18.1 -150.9,29.5 -161.9,31.5 -199.5,21.9 -190.4,18.5 -190.2,8.9 -187.5,12 -179.2,17.2 -172.2,20.1 -182.8,25.4 -180.4,21.8 -176.5,19.8 -172.2,20.1 -168.5,22.5 -166.6,26.4 -166.9,30.7 -169.3,34.4 -173.2,36.3 -177.5,36 -181.1,33.6 -183.1,29.7 -182.8,25.4 -177.5,36 -187.2,32.1 -198,25.6 -204,19 -203.3,8.7 -195,5.4 -160.3,14.6 -161.7,16.4 -163.9,23.7 -165,24.3 -186.7,12.2 -186.3,12.4 -189.6,12.3 -194.8,10.6 -221.6,-5.8 -226.4,-7.6 -222.1,-11.1 -220,-17.6 -205.9,0.6 -200.6,6 -190.5,14 -186.2,25.8 -197.5,30.7 -206.5,26.5 -218,18.4 -234.8,3.2 -244.5,-8.4 -253.5,-21.8 -260.5,-36.2 -265.1,-50.9 -267.5,-64.5 -263.5,-78.7 -250.1,-77.2 -246.7,-67.7 -239.1,-34.9 -232.6,-11.2 -240.6,-13 -247.5,-6.8 -255.7,-46 -259,-67 -260.9,-87.4 -260.5,-102.2 -259.1,-108.9 -246.8,-115.1 -242.1,-101.1 -248.9,-80.5 -250.7,-69.6 -252.1,-71.2 -262.4,-73.5 -266.6,-69.4 -261.3,-89.3 -251.2,-113.5 -243,-127.1 -232.4,-139.1 -222.1,-147.8 -209.9,-155.5 -203.4,-158.4 -191.8,-161.9 -182.2,-162.9 -170.8,-161.4 -165.6,-153.5 -171.5,-146.4 -178.6,-145.6 -204.9,-145.4 -219.4,-143.1 -231.2,-139 -242.1,-131.3 -245.8,-130.3" fill-opacity="1" fill="#f78cd3" filter="url(#splotchy-flickering)"/><polyline id="SvgjsPolyline5749" points="-223.8,-23 -202.2,-7.6 -195.9,-4.1 -178.5,3.7 -169.1,6.7 -157.8,9.1 -130.6,11.6 -120.4,11.5 -110.4,9.4 -97.1,1.5 -69.3,-10.5 -49.5,-17.8 -45.8,-18.3 -42.5,-17.1 -42.9,-12 -45.9,-4.7 -50.8,3.8 -57,11.1 -65.2,18 -77,26 -88.1,32.4 -96.7,36.3 -112.3,40.5 -131.7,47.4 -140.1,48.5 -147.1,48.5 -159.1,46.9 -168.3,44.4 -175.2,38.5 -175.9,36.7 -175.3,31.6" fill-opacity="1" fill="#f78cd3" filter="url(#splotchy-flickering)"/><polyline id="SvgjsPolyline5761" points="-139.8,-161.7 -123.1,-155.5 -108.4,-147.9 -95.5,-139.1 -85.4,-130.5 -76.4,-121.4 -69.2,-111.1 -64.3,-100.5 -63.9,-97.6 -64.7,-94.7 -70.5,-93.4 -73,-93.9 -75,-99.2 -78,-102.7 -99.1,-115 -105.5,-119.9 -113.2,-128.1 -116.2,-130.3 -125.1,-133.8 -133.9,-135.6 -143.7,-135.3 -149.1,-134.5 -156,-132.1 -168.8,-125.7 -173.6,-125.9 -179.2,-127.9 -181.5,-130.7 -182.8,-140.4 -181.9,-141.9 -173.2,-147.2 -171.5,-150.9 -170.7,-156.1 -172.4,-159 -175,-160.6 -178.6,-160.7 -180.9,-159.7" fill-opacity="1" fill="#f78cd3" filter="url(#splotchy-flickering)"/><polyline id="SvgjsPolyline5773" points="-169.2,-143.7 -179.5,-146.7 -186.3,-146.3 -197,-143.8 -207.9,-139.4 -220.4,-131.5 -230,-122.9 -236.5,-114.9 -238.2,-108.5 -236.7,-103.4 -235.9,-102.4 -233.6,-101.7 -231,-102.1 -217.7,-107.6 -211.8,-108.1 -207.7,-107 -200,-101.7 -186.2,-87.6 -183.9,-78.9 -184.6,-70.7 -182.9,-61.8 -182.1,-43.4 -183.6,-36.7 -189.3,-25.9 -189.3,-23.4 -186.3,-18.8 -179.4,-11.9 -154.9,8.5 -153.2,10.8 -153,12.9 -152.3,13.6 -156.2,12.4 -167.7,3.6 -173.4,-3.3 -183.7,-18.9 -186.1,-20.8 -189.4,-8 -189.3,2.4 -186.3,7.7 -182,10.2 -170.8,14.4 -162.2,16 -154.6,16.6 -139.2,11.6 -131.5,10.5 -125.3,10.7 -112.2,12.7 -101.9,12 -97.7,10 -95.4,7.9 -91.4,-0.1 -87.4,-3.1 -84.7,-6.4 -84,-8.7 -85.5,-10.7 -94.7,-18.3 -110.5,-36 -120.5,-45.8 -135.7,-58.8 -139.7,-65.1 -142.4,-72.1 -143.1,-77.9 -142.8,-89.7 -140.4,-97.1 -136.6,-102.9 -135.3,-115.6 -131.6,-128.2 -123.1,-139.6 -115.6,-140.9 -108.1,-140.6" fill-opacity="1" fill="#f78cd3" filter="url(#splotchy-flickering)"/><polyline id="SvgjsPolyline5785" points="-183.2,-15.7 -173.4,-5 -166.3,1 -156.5,6.9 -152.7,7.6 -149.6,7.2 -155.3,9.2 -160.3,9.7 -165.3,8.2 -164.9,7.3 -162.1,6.1 -158.8,5.8 -156.2,6.3 -153.3,8.1 -154.9,10.4 -162,16.3" fill-opacity="1" fill="#f78cd3" filter="url(#splotchy-flickering)"/><polyline id="SvgjsPolyline5797" points="-138.5,-107.7 -129.8,-77.6 -124.6,-68.8 -112.5,-59.3 -113.7,-58.3 -116.3,-58 -129.6,-58.7 -144.5,-51.6 -148,-51.2 -150.8,-52.3 -150.9,-54.1 -145.2,-65.2 -144.1,-70.7 -144.3,-72.8 -146.4,-76.8 -144.9,-83.7 -145.5,-85.4" fill-opacity="1" fill="#f78cd3" filter="url(#splotchy-flickering)"/><polyline id="SvgjsPolyline5809" points="-123.8,-64.3 -112.2,-58.6 -105.4,-57.5 -90.8,-63 -90.6,-61.2 -94,-53.4 -95,-48.4 -92.9,-38.7 -93.5,-29.7 -94.2,-27.1 -96.8,-24.3 -100.8,-22.5 -103.9,-23.2 -110.7,-27.1 -122.7,-38.7 -140.4,-61.1" fill-opacity="1" fill="#f78cd3" filter="url(#splotchy-flickering)"/><polyline id="SvgjsPolyline5821" points="-95.2,-117 -87.6,-90.2 -85.9,-79.4 -85.2,-66.4 -69.9,-67.4 -61,-66 -46.8,-61.9 -42,-63.4 -52.8,-85.2 -67,-108.9" fill-opacity="1" fill="#f78cd3" filter="url(#splotchy-flickering)"/><polyline id="SvgjsPolyline5833" points="-51.2,-74.3 -45.2,-46.2 -46.8,-30.2 -50.7,-10.1 -55,-6.3 -61.8,-4.4 -81.4,-5.9 -91.2,-9.2 -95.3,-11.6 -99.7,-15.6 -105.2,-24.7 -107.6,-35.7 -106.7,-42.7 -104.7,-48.3 -96.2,-63.7 -89.3,-69.2 -85.5,-70.5" fill-opacity="1" fill="#f78cd3" filter="url(#splotchy-flickering)"/><polyline id="SvgjsPolyline5845" points="-109.8,45.7 -70.1,21.5 -65.7,20 -56.7,49.2 -53.4,54.7 -43.5,64.6 -42.1,67.8 -42.5,70.6 -45.8,73.3 -67.6,74.3 -71,73.7 -86.7,67.6 -92.2,68.4 -92.8,69.1 -92.3,70.9" fill-opacity="1" fill="#911c3c" filter="url(#splotchy-flickering)"/><polyline id="SvgjsPolyline5857" points="-175.8,57.7 -174.2,59.6 -174.6,62.2 -180.5,83.7 -184.1,104.6 -184.6,114 -186.2,114.7 -196.4,110.4 -208.1,102.9 -216.3,95.1 -221,87.6 -224.4,77.8 -226.3,63.6 -224.6,54.1 -220.7,48.1 -219.1,42" fill-opacity="1" fill="#911c3c" filter="url(#splotchy-flickering)"/><polyline id="SvgjsPolyline5869" points="-190.5,73 -172.8,94.1 -167.3,98.4 -159.4,102.1 -151.6,104.8 -138.9,107.6 -127,108.1 -115.8,106.6 -129.8,119.7 -135.2,123.6 -142.7,127.5 -153,129.4 -164,129.1 -172.8,126.8 -184.5,121 -196,112.9" fill-opacity="1" fill="#911c3c" filter="url(#splotchy-flickering)"/><polyline id="SvgjsPolyline5881" points="-65.8,51.7 -43.9,58.2 -1,57.3 3.4,57.6 5.4,59 1.5,66 -5.2,71.7 -17.1,77.3 -24.2,79 -46.5,80.9 -55.5,80.7 -68.8,78 -81.2,74.2" fill-opacity="1" fill="#911c3c" filter="url(#splotchy-flickering)"/><polyline id="SvgjsPolyline5893" points="-138.5,109.7 -123.1,105.7 -115.1,102 -112.3,102.7 -109.4,102.6 -115.5,113.1 -119.9,118.8 -125.1,123.6 -133.8,126.8 -143.8,127.3 -151.1,126.6" fill-opacity="1" fill="#911c3c" filter="url(#splotchy-flickering)"/><polyline id="SvgjsPolyline5905" points="-53.8,3 -62.2,14.5 -74.9,27.3 -75.1,28.4 -64.3,36.3 -46.7,52.9 -38.9,57.2 -23.4,63.6 -15.9,66 -10.4,67.4 -1,64.1 5.9,61 8.9,58.5 10.5,55.6 12,47 11.2,44.6 2.6,33.4 -4.8,25.7 -11,21.1 -24.2,14.8" fill-opacity="1" fill="#ae1e46" filter="url(#splotchy-flickering)"/><polyline id="SvgjsPolyline5917" points="-139.8,57 -137.9,57.7 -125.8,66.2 -113.6,78.3 -111.3,82.5 -109.6,91 -110.2,97.1 -112.6,102.7 -116,105.9 -123.2,107.8 -133.6,108.1 -157.1,104.3 -169.2,100.7 -178,97.1 -188,90.7 -190.3,88.5 -193.5,82 -193.2,74.6 -190.3,69.1 -180.9,60.5 -177.1,58.3 -171.9,57.8 -165.6,58.2" fill-opacity="1" fill="#ae1e46" filter="url(#splotchy-flickering)"/><polyline id="SvgjsPolyline5929" points="-185.8,-18.3 -206.4,-23.8 -211.2,-23.6 -219.1,-21.3 -229,-16 -237.4,-9.8 -242.3,-2.5 -242.6,4.5 -241.6,6.4 -234.9,12.3 -229.4,14.8 -223.4,15.1 -207.2,12.3 -202.1,9.9 -193.8,4.1 -191.2,1.1 -185.7,-9.9" fill-opacity="1" fill="#f96bbf" filter="url(#splotchy-flickering)"/><polyline id="SvgjsPolyline5941" points="-65.8,-77.7 -81.8,-72.8 -89.8,-67.6 -96.5,-60.3 -98.7,-56.8 -100.7,-49.3 -100.2,-42.4 -97.3,-37.8 -94.6,-36.4 -90.9,-36 -80.9,-38.5 -66.4,-45.1 -62.1,-48.3 -58.7,-52.3 -55.5,-59.7 -54.6,-66.9 -54.9,-71.2 -57.6,-77.5 -59.1,-79.3 -62.9,-81.7" fill-opacity="1" fill="#f96bbf" filter="url(#splotchy-flickering)"/><polyline id="SvgjsPolyline5953" points="-60.5,-75 -83.4,-68.5 -91.9,-64.9 -97.9,-61.3 -103.4,-55.8 -104.1,-48.1 -103.1,-44 -98.2,-40.1 -88.6,-36.9 -82.8,-36.9 -75.1,-39.9 -61.7,-51.8 -56.6,-58.6 -55.2,-63 -55,-68.2 -55.7,-73.2 -56.7,-75.6" fill-opacity="1" fill="#eb4f7f" filter="url(#splotchy-flickering)"/><polyline id="SvgjsPolyline5965" points="-187.8,-21 -200.3,-23.7 -211.9,-22.2 -221.4,-19.4 -229.4,-15.6 -238.7,-9.4 -241.1,-6 -242.2,1.3 -240.4,4.6 -235.9,7.7 -228.9,9.6 -220.4,9.6 -212.4,7.7 -205.4,4.9 -189.6,-3.5 -186.9,-7.2" fill-opacity="1" fill="#eb4f7f" filter="url(#splotchy-flickering)"/><polyline id="SvgjsPolyline5977" points="-127.2,-41 -142.9,-35.9 -146.9,-33.6 -148.1,-31.6 -147.3,-28.9 -145.6,-27.8 -135.5,-23.2 -130.6,-22.5" fill-opacity="1" fill="#eb4f7f" filter="url(#splotchy-flickering)"/><polyline id="SvgjsPolyline5989" points="-131.2,-42.3 -132.4,-20.5 -138.2,-22.1 -145.7,-26.2 -150.5,-32.1" fill-opacity="1" fill="#eb4f7f" filter="url(#splotchy-flickering)"/><polyline id="SvgjsPolyline5996" points="-48.5,-230.3 -46.3,-225.3 -43.2,-206.6 -40,-202 -42.4,-204.9 -37.1,-205.1 -42.2,-199.5 -41.6,-202.2 -39.7,-204.3 -37.1,-205.1 -34.4,-204.5 -32.4,-202.6 -31.5,-200 -32.1,-197.3 -34,-195.3 -36.6,-194.4 -39.3,-195 -41.3,-196.9 -42.2,-199.5 -36.6,-194.4 -47.1,-195.1 -50.6,-200.4 -52.1,-206.4 -51.9,-216 -50,-227.4 -48.5,-230.3" fill-opacity="1" fill="#f4f068" filter="url(#pen-wiggly)"/><polyline id="SvgjsPolyline6001" points="-47.2,-227.2 -44.6,-225.8 -44.6,-222.9 -47.2,-221.4 -49.7,-222.9 -49.7,-225.8 -47.2,-227.2 -43.5,-223.9 -42.4,-219.5 -42.3,-209.4 -43.8,-203 -46.6,-197.2 -50.5,-192.4 -59.2,-186.3 -55.8,-194.9 -55.4,-191.5 -56.6,-188.4 -59.2,-186.3 -62.6,-185.8 -65.7,-187 -67.8,-189.7 -68.3,-193 -67.1,-196.1 -64.4,-198.2 -61.1,-198.7 -58,-197.5 -55.8,-194.9 -64.4,-198.2 -59.2,-201.6 -55.3,-206.3 -53.3,-211.3 -51.3,-222.9 -50.1,-224.3" fill-opacity="1" fill="#f4f068" filter="url(#pen-wiggly)"/><polyline id="SvgjsPolyline6006" points="-29.1,-194.9 -30.4,-194.2 -33.2,-194.9 -34,-196.2 -33.2,-199.1 -31.9,-199.8 -29.1,-199.1 -28.3,-196.2 -29.1,-194.9 -33.2,-194.9 -32.8,-194.1 -33.8,-194.8 -30.1,-196.4 -30.3,-200 -28.8,-197.7 -29.4,-194.8 -33,-188.2 -35.5,-180 -37,-151.8 -38.3,-148.4 -44.6,-147 -47.9,-151.8 -50.3,-171.1 -52.1,-178 -53.8,-180.5 -58.7,-183.2 -61.4,-186.5 -59.7,-190.7 -50.3,-194.8 -48.3,-195.2 -45.4,-194.6 -43.3,-192.6 -41.7,-188.2 -41,-182.1 -45.6,-184.6 -43.6,-184.5 -41.9,-183.5 -40.9,-181.8 -41,-179.8 -42,-178.1 -43.7,-177.1 -45.7,-177.2 -47.4,-178.2 -48.4,-179.9 -48.3,-181.9 -47.3,-183.6 -45.6,-184.6 -48.4,-179.9 -49.7,-187.9 -48,-187.3 -54.8,-183.8 -53.1,-188 -55.1,-190.9 -49.7,-188.6 -44.2,-182 -41.6,-174.8 -38,-154.3 -40.4,-156.4 -46.3,-155.1 -47.5,-153.1 -45.8,-182 -41.9,-192.6 -37.2,-199.2 -36.5,-199.8 -37,-196.9 -36.2,-195 -36.6,-199.2 -32.8,-201 -30.1,-199.5 -29.1,-199.1" fill-opacity="1" fill="#f4f068" filter="url(#pen-wiggly)"/><polyline id="SvgjsPolyline6011" points="-43.2,-199 -41.8,-198 -42.2,-197.4 -43.2,-197.6 -43.2,-199 -41.8,-198 -40.7,-200.8 -39.1,-201.3 -22.8,-200.2 -19.9,-198.4 -18.2,-193.6 -19.7,-189.8 -23,-187.2 -35.2,-182.5 -42.5,-182.2 -45.3,-183.6 -47.3,-186 -48.4,-189.4 -47.5,-188 -43.7,-186 -41.2,-185.3 -42.2,-185.9 -38.8,-193.7 -38.5,-190.6 -39.7,-187.7 -42.2,-185.9 -45.3,-185.5 -48.2,-186.8 -50,-189.3 -49.4,-192.4 -49.1,-195.2 -46.6,-197.1 -43.5,-197.4 -40.7,-196.2 -38.8,-193.7 -46.6,-197.1 -45.7,-197.5 -42.4,-198.1 -38.1,-195.8 -36.5,-191.9 -39.1,-194.1 -28.8,-197.8 -30.1,-194.5 -28.7,-190.3 -26.6,-189 -40,-192 -43.1,-194.4 -43.2,-197.6" fill-opacity="1" fill="#f4f068" filter="url(#pen-wiggly)"/><polyline id="SvgjsPolyline6016" points="-52.5,-189.7 -53.5,-187.7 -55,-186.9 -64.3,-186.2 -66.3,-186.6 -61.8,-189.7 -62.6,-187.9 -64.3,-186.7 -66.3,-186.6 -68.2,-187.5 -69.3,-189.1 -69.5,-191.2 -68.6,-193 -66.9,-194.2 -64.9,-194.3 -63.1,-193.5 -61.9,-191.8 -61.8,-189.7 -64.9,-194.3 -63.2,-194.4 -54.8,-192.4 -53.5,-191.6 -52.5,-189.7" fill-opacity="1" fill="#f4f068" filter="url(#pen-wiggly)"/><polyline id="SvgjsPolyline6021" points="-60.5,-191 -62,-188.7 -70.5,-186.5 -71.8,-186.4 -68.6,-189.9 -68.9,-188.2 -71.8,-186.4 -73.4,-186.8 -75.2,-189.6 -74.8,-191.3 -72,-193 -70.4,-191.7 -68.6,-189.9 -72,-193 -63.8,-192 -61.3,-191.2 -60.5,-191" fill-opacity="1" fill="#f4f068" filter="url(#pen-wiggly)"/><polyline id="SvgjsPolyline6026" points="0.5,-161.1 3.6,-159.6 3.9,-156.2 1.2,-154.3 -2,-155.7 -2.6,-157.3 -2.3,-159.1 0.5,-161.1 4.2,-158 6.6,-141.9 8.1,-137.5 9,-136 15.4,-134.4 10.3,-130.8 11.3,-132.9 13.1,-134.2 15.4,-134.4 17.5,-133.4 18.8,-131.6 19,-129.3 18,-127.2 16.1,-125.9 13.9,-125.7 11.8,-126.7 10.5,-128.6 10.3,-130.8 13.9,-125.7 7.4,-127.6 2.6,-130.7 0.6,-134.4 -1.1,-140.3 -2.6,-157.3" fill-opacity="1" fill="#f4f068" filter="url(#pen-wiggly)"/><polyline id="SvgjsPolyline6031" points="1.5,-155.7 3.7,-154.8 5.7,-150.5 6.1,-148 5,-138.5 0.8,-129.6 -3.4,-124.1 -7,-120.6 -11.9,-118.9 -16.4,-122.5 -16.7,-124.1 -10.7,-119.1 -13.5,-119.6 -15.7,-121.5 -16.7,-124.1 -16.2,-127 -14.4,-129.2 -11.7,-130.2 -8.9,-129.7 -6.7,-127.9 -5.7,-125.2 -6.2,-122.4 -8,-120.1 -10.7,-119.1 -5.7,-125.2 -6,-126.3 -10.4,-129.8 -14.7,-128.3 -9.3,-132.8 -5.7,-138 -4,-141.4 -1.5,-153.5 -0.7,-154.8 1.5,-155.7" fill-opacity="1" fill="#f4f068" filter="url(#pen-wiggly)"/><polyline id="SvgjsPolyline6036" points="18.2,-122.8 15.1,-124.5 14.6,-126.3 16.4,-129.4 18.2,-129.9 20,-129.4 21.7,-126.3 21.3,-124.5 18.2,-122.8 14.6,-126.3 14.5,-124.2 16.9,-121.9 13.8,-118.5 11.9,-113.7 10.5,-105.9 10.3,-94.6 8.7,-90.4 1,-88.9 -2.2,-93.4 -4.5,-113.8 -5,-114.8 -12.6,-120.1 -6.8,-127 -3.6,-128.1 2.4,-132.1 8.1,-130.4 10.6,-125.3 5.5,-129.4 2.3,-129.2 9.3,-128.1 11.3,-124.7 3.5,-128.5 6.7,-128.8 9.5,-127.4 11.3,-124.7 11.6,-121.5 10.2,-118.7 7.5,-116.9 4.4,-116.6 1.5,-118 -0.3,-120.7 -0.6,-123.9 0.8,-126.7 3.5,-128.5 -0.3,-120.7 1.1,-118.9 7.5,-118 3.9,-117.1 -1.5,-122.5 -0.2,-121.1 4.3,-119.8 6.8,-120.8 1.2,-116.5 -5.5,-114.6 -0.3,-121.3 -7.4,-126.9 -3.3,-127 -0.1,-126.2 3.4,-124 5.7,-121.1 8.1,-114.3 9.8,-96.3 6.8,-99.8 -0.6,-98.5 -2,-95.6 -1.4,-107.2 1.1,-118.6 5.6,-126.4 8.5,-128.9 13.6,-131.5 17.7,-131.6 19.6,-130.9 21.8,-128.7 21.7,-126.3" fill-opacity="1" fill="#f4f068" filter="url(#pen-wiggly)"/><polyline id="SvgjsPolyline6041" points="1.7,-131 4.8,-129.8 5.3,-126.4 2.6,-124.3 -0.5,-125.6 -1,-128.9 1.7,-131 6.6,-127.5 7.9,-121.2 7.1,-117.1 2.6,-113.8 -1.5,-116.5 -1.5,-122.3 3.5,-124.9 6.9,-121.3 1.5,-123.9 3.7,-124.1 5.6,-123.1 6.9,-121.3 7,-119.1 6,-117.1 4.2,-115.9 2,-115.7 0,-116.7 -1.2,-118.6 -1.3,-120.8 -0.4,-122.7 1.5,-123.9 -1.2,-118.6 1.6,-116.6 6.1,-118.6 6,-121.4 7.3,-120.6 2.4,-122.9 -1.7,-120.2 -2,-126.2 -1.2,-127.2" fill-opacity="1" fill="#f4f068" filter="url(#pen-wiggly)"/><polyline id="SvgjsPolyline6051" points="-113.2,43.9 -111.3,44.4 -109.9,45.8 -109.4,47.7 -109.9,49.5 -111.3,50.9 -113.2,51.4 -115,50.9 -116.4,49.5 -116.9,47.7 -116.4,45.8 -115,44.4 -113.2,43.9 -107.3,49.1 -107.6,48 -90.8,69.3 -82.5,72.1 -79.4,78.3 -83.2,83.4 -90.1,86.1 -102.5,88.3 -110.6,87.2 -114.5,85.7 -123.7,78.1 -141.6,58.9 -144,54.1 -142.1,49 -137.9,47.1 -135.4,47.1 -129.9,48.2 -113.9,54.3 -104,60.7 -112.8,61.9 -113.3,69.5 -120.1,61 -124.5,59 -116.9,53.9 -118.4,56.9 -121.2,58.8 -124.5,59 -127.5,57.5 -129.4,54.7 -129.6,51.3 -128.1,48.3 -125.3,46.5 -121.9,46.2 -118.9,47.7 -117.1,50.5 -116.9,53.9 -121.9,46.2 -115.7,48.4 -111.2,51.6 -103.7,60.7 -102.6,69.9 -111.7,71 -119.4,65.8 -136.5,59.4 -133.3,57.8 -131.6,53.2 -132.9,50 -114.8,69.6 -108.8,74.8 -102.8,76.1 -89.4,73.1 -91.4,76.9 -88.6,82.6 -95.4,80.3 -100.1,76.3 -117.3,52.7 -117.7,49.6 -116.9,47.7" fill-opacity="1" fill="#7c90cd" filter="url(#screentone-medium-pulsing)"/><polyline id="SvgjsPolyline6061" points="-228.5,42.4 -226.2,43 -224.5,44.7 -223.9,47 -224.5,49.3 -226.2,51 -228.5,51.6 -230.8,51 -232.5,49.3 -233.1,47 -232.5,44.7 -230.8,43 -228.5,42.4 -223.9,47 -223.9,49.4 -231.4,66.1 -235.6,79.3 -236.9,87 -237.2,94.3 -235.3,99.1 -228.7,106 -213.7,115.7 -215.9,118.2 -216.5,122.1 -228,107.2 -231.3,101.5 -233.8,94.8 -235.3,80.7 -234.3,65.3 -231.2,70.7 -222.8,69.8 -221.9,68.6 -221.2,78 -217.6,91.4 -214.2,98.2 -209.8,103.6 -204.7,107.3 -195.8,111.7 -171.8,120.1 -167.3,122.6 -165.9,131.5 -173.1,135.5 -177.7,135.7 -189.3,134.2 -202.8,131 -218.8,124.9 -227.9,118.7 -232.2,114.3 -235.6,110 -225.7,111.1 -229.1,112.5 -232.7,112.1 -235.6,110 -237,106.6 -235.6,103 -234.4,100.1 -231.1,98.7 -227.5,99.1 -224.6,101.3 -223.2,104.6 -223.6,108.2 -225.7,111.1 -224.6,101.3 -218.5,108.2 -208.5,114.3 -199,117.5 -186.7,120.4 -174.9,121.6 -178.3,124.8 -177.4,132.3 -176.7,133.2 -197.9,126.1 -208.7,121 -219.3,113.7 -225.9,105.8 -228.6,101.1 -232.3,91.2 -234.9,80.4 -235.9,69.8 -235.3,65.3 -233.1,60.7 -223.7,59.2 -220.7,66.8 -221.7,80.5 -220.7,91.4 -216.7,99.8 -205.9,114 -203.6,118.3 -204.2,125 -208.8,128.5 -214.5,129.2 -217.3,128.8 -223,125.9 -234.4,118.4 -239.4,114.5 -244.2,109.3 -248,103.8 -250.2,97.4 -249.5,83.1 -245.8,69.4 -241.5,58.7 -233.6,45.7 -233.1,47" fill-opacity="1" fill="#7c90cd" filter="url(#screentone-medium-pulsing)"/><polyline id="SvgjsPolyline6071" points="-250.5,38.3 -263.3,43.7 -267.1,48 -267.6,51.4 -266.3,61 -262.5,70.8 -256.9,79 -247.5,87.5 -239.1,92.4 -241.8,93.1 -244.1,95.5 -248.1,86.3 -259.5,67.7 -266.1,54.6 -260.9,56 -257.5,53 -255,61.1 -248.6,73 -251.3,81.7 -260.4,77.8 -264.6,67.9 -266.8,56.6 -266.9,51.2 -265.4,45.7 -261.7,40.9 -254.6,38.8 -247.4,42.7 -242.6,47.8 -238.9,53.4 -236.4,59.8 -240.1,68.2 -248.8,67 -252.4,63.3 -257.2,55.3 -258.4,50.2 -258.2,44.8 -255.7,40 -251.5,36.7 -246.5,35.7 -241.8,36.4 -237.4,38.4 -233.6,41.4 -228.6,48.3 -227.3,55.8 -234.6,60.7 -240.3,58.8 -243.9,56 -247,52.7 -249.7,47.5 -245.2,38.8 -237.2,40.7 -246.6,42.5 -243.9,40.2 -240.5,39.5 -237.2,40.7 -234.9,43.3 -234.2,46.8 -235.4,50.1 -238,52.4 -241.5,53.1 -244.8,51.9 -247.1,49.3 -247.8,45.8 -246.6,42.5 -244.8,51.9 -240.2,51.5 -236.3,44.4 -233.2,47.2 -234.8,47.1 -240.1,51.1 -240.6,54.6 -243.1,51.2 -246.3,49.3 -245.3,48.6 -241.1,56.3 -246.1,56.7 -249,61.1 -252.3,55.5 -256.1,51.1 -254.4,50.9 -253.9,59.7 -250,71.4 -256.7,70.7 -259.8,77.7 -266,65.9 -268.2,59.9 -269.1,54.7 -268.7,49.3 -264.1,44.6 -258,46 -235.2,86.9 -233.4,92.4 -233.1,97.1 -236.6,102.7 -242.4,102.8 -245,101.6 -253.8,95.7 -260.9,89.3 -267.9,80.4 -270.9,75 -274.9,63 -275.6,50.6 -273.9,44.6 -270.3,40.7 -266.5,38.1 -259.4,36.7 -252.6,37.2 -250.5,38.3" fill-opacity="1" fill="#7c90cd" filter="url(#screentone-medium-pulsing)"/><polyline id="SvgjsPolyline6081" points="-293.8,20.3 -290.8,22.1 -283.4,29.4 -275.4,35 -268.7,38.6 -262.3,40.8 -263.1,40.3 -259,46.6 -264.6,50 -275.2,49.4 -278.5,48.5 -284.6,45 -293.2,36.5 -290.3,36.8 -287.6,34.7 -287.5,46.6 -286,55.8 -281.2,67 -276.1,75.4 -269.3,84 -258.4,94 -241.4,104.2 -219.1,114.8 -221.5,117.6 -222.6,125.7 -236.6,116.3 -247.6,106.8 -259,95.5 -287.2,63.7 -280.5,60.2 -279.8,57.6 -272.7,67.1 -266.6,73.6 -275.9,73.3 -272.9,71.7 -269.5,71.8 -266.6,73.6 -265,76.6 -264.1,80 -266.9,82.9 -269.9,84.5 -273.3,84.4 -276.2,82.6 -277.8,79.6 -277.7,76.2 -275.9,73.3 -276.2,82.6 -288.7,68.5 -292.2,62.4 -292.6,54.6 -285,50.1 -278.5,53.6 -273.8,58.3 -259.3,75.3 -238.5,96.9 -228.3,105.7 -211.5,118 -212.3,127.4 -223.7,127.4 -241.5,119.3 -253.6,112.7 -269.8,100.7 -282.4,87.2 -291.7,72.4 -297.4,58.9 -299.3,44.1 -298.5,31.2 -296.8,28.1 -293.2,25.8 -288.8,26.1 -285.7,28.1 -276,37.7 -273.2,38.8 -262.9,40 -268.3,43.5 -264.4,49.8 -275.8,43.6 -287.6,33.7 -292.9,26.2 -293.8,20.3" fill-opacity="1" fill="#7c90cd" filter="url(#screentone-medium-pulsing)"/><polyline id="SvgjsPolyline6091" points="-78.5,81 -79.9,86.7 -83,93.2 -89.1,100.6 -93.5,103.4 -95.7,104 -99.4,104.7 -103.1,100.9 -106.2,94.4 -107,88.1 -105.5,85 -103,83.2 -99.3,82.1 -91.2,77.1 -91.3,79.7 -93,75.4 -88.5,70.1 -84,70.7 -77.2,73.2 -71.5,76.5 -79.5,77.5 -77.2,75.7 -74.2,75.4 -71.5,76.5 -69.7,78.9 -69.4,81.8 -70.5,84.5 -72.9,86.3 -75.8,86.6 -78.5,85.5 -80.3,83.1 -80.7,80.2 -79.5,77.5 -78.5,85.5 -87.7,81.3 -86,81.1 -81.8,76.1 -82.3,73.2 -80.4,78.9 -81.6,82.9 -84.3,85.7 -89.6,89 -94.9,91.9 -98.8,93 -96.9,90.4 -95.4,95.5 -96.1,95.8 -93.3,95.2 -86.8,90.1 -78.5,81" fill-opacity="1" fill="#7c90cd" filter="url(#screentone-medium-pulsing)"/></g><filter id="splotchy-flickering"><feTurbulence id="SvgjsFeTurbulence5979" baseFrequency="0.25 0.209" filterName="feTurbulence" numOctaves="8" result="nTLuQM" seed="0" stitchTiles="noStitch" type="fractalNoise"/><feComponentTransfer id="SvgjsFeComponentTransfer5980" filterName="feComponentTransfer" in="nTLuQM" result="irk8Sm"><feFuncR id="SvgjsFeFuncR5981" filterName="feFuncR" intercept="0.1" slope="0.1" type="linear"/><feFuncG id="SvgjsFeFuncG5982" filterName="feFuncG" intercept="0.1" slope="0.1" type="linear"/><feFuncB id="SvgjsFeFuncB5983" filterName="feFuncB" intercept="0.1" slope="0.1" type="linear"/></feComponentTransfer><feMorphology id="SvgjsFeMorphology5984" filterName="feMorphology" in="irk8Sm" operator="erode" radius="6" result="HyN6vt"><animate id="SvgjsAnimate5985" attributeName="radius" dur="0.5" values="4;5;4" attributeType="XML" repeatCount="indefinite"/></feMorphology><feConvolveMatrix id="SvgjsFeConvolveMatrix5986" filterName="feConvolveMatrix" in="HyN6vt" kernelMatrix="0 -1 0 -1 5 -1 0 -1 0" result="tTZHfY"/><feComposite id="SvgjsFeComposite5987" filterName="feComposite" in="SourceGraphic" in2="tTZHfY" operator="in" result="gAuK3e"/><feComposite id="SvgjsFeComposite5988" filterName="feComposite" in="gAuK3e" in2="gAuK3e" operator="over" result="CvTrwW"/></filter><filter id="pen-wiggly"><feTurbulence id="SvgjsFeTurbulence6038" baseFrequency="0.1 0.1" filterName="feTurbulence" numOctaves="1" result="2clDB1" seed="0" stitchTiles="noStitch" type="turbulence"><animate id="SvgjsAnimate6039" attributeName="baseFrequency" dur="9" values="0.108 0.092;0.048 0.053;0.1 0.1" attributeType="XML" repeatCount="indefinite"/></feTurbulence><feDisplacementMap id="SvgjsFeDisplacementMap6040" filterName="feDisplacementMap" in="SourceGraphic" in2="2clDB1" result="1Pf3G7" scale="6" xChannelSelector="R" yChannelSelector="G"/></filter><filter id="screentone-medium-pulsing"><feImage id="SvgjsFeImage6083" cellheight="5" cellwidth="5" dx="14" dy="14" filterName="feImage" href="#7PXUQNVd" patterntype="grid" result="8eDNxN" rotation="15" sx="0" sy="0" type="turbulence" unitrot="0" unittype="circle"><animate id="SvgjsAnimate6084" attributeName="cellwidth" dur="1" values="3;10;3" attributeType="XML" repeatCount="indefinite"/><animate id="SvgjsAnimate6085" attributeName="cellheight" dur="1" values="3;10;3" attributeType="XML" repeatCount="indefinite"/></feImage><feImage id="SvgjsFeImage6086" cellheight="5" cellwidth="5" dx="14" dy="14" filterName="feImage" href="#rhyFH3x0" patterntype="grid" result="jDMl2y" rotation="15" sx="7" sy="7" type="turbulence" unitrot="0" unittype="circle"><animate id="SvgjsAnimate6087" attributeName="cellwidth" dur="1" values="3;7;3" attributeType="XML" repeatCount="indefinite"/><animate id="SvgjsAnimate6088" attributeName="cellheight" dur="1" values="3;7;3" attributeType="XML" repeatCount="indefinite"/></feImage><feComposite id="SvgjsFeComposite6089" filterName="feComposite" in="8eDNxN" in2="jDMl2y" operator="over" result="Qm0OEx"/><feComposite id="SvgjsFeComposite6090" filterName="feComposite" in="SourceGraphic" in2="Qm0OEx" operator="in" result="jrnUN1"/></filter><filter id="parallel-hatches-fine"><feImage id="SvgjsFeImage6093" cellheight="50" cellwidth="2" dx="4" dy="50" filterName="feImage" href="#tGLVnRYU" patterntype="grid" result="KhM0O3" rotation="305" sx="0" sy="0" type="turbulence" unitrot="0" unittype="square"><animate id="SvgjsAnimate6094" attributeName="sx" dur="0.6" values="6;1" attributeType="XML" repeatCount="indefinite"/></feImage><feTurbulence id="SvgjsFeTurbulence6095" baseFrequency="0.082 0.084" filterName="feTurbulence" numOctaves="1" result="wBA2q5" seed="0" stitchTiles="noStitch" type="fractalNoise"/><feDisplacementMap id="SvgjsFeDisplacementMap6096" filterName="feDisplacementMap" in="KhM0O3" in2="wBA2q5" result="5B25BU" scale="2" xChannelSelector="R" yChannelSelector="G"/><feComposite id="SvgjsFeComposite6097" filterName="feComposite" in="SourceGraphic" in2="5B25BU" operator="in" result="gbkoT2"/></filter></svg>