<svg id="main-canvas" width="674" height="699" xmlns="http://www.w3.org/2000/svg" version="1.1" xmlnsXlink="http://www.w3.org/1999/xlink" xmlnsSvgjs="http://svgjs.com/svgjs" style="background-color: white" viewBox="-51.313693912724766 75.4424968909475 478.48197224848224 496.22981988381173"><defs id="SvgjsDefs1002"><script xmlns="http://www.w3.org/1999/xhtml">function $(id) { return document.getElementById(id) }</script><pattern width="0.014162367577412968" height="0.014162367577412968" id="7PXUQNVd_0" viewBox="0 0 14 14"><ellipse cx="7" cy="7" rx="3.5" transform-origin="7 7" transform="scale(0.7142857142857143 0.7142857142857143) rotate(0)" fill="black"><animateTransform attributeName="transform" attributeType="XML" type="scale" additive="sum" values="0.42857142857142855 0.42857142857142855 ;1.4285714285714286 1.4285714285714286 ;0.42857142857142855 0.42857142857142855 " dur="1" repeatCount="indefinite"/></ellipse></pattern><g width="988.5352800987935" height="988.5352800987935" id="7PXUQNVd" transform="rotate(15 337 349.5)"><path d="M 0 0,l 988.5352800987935 0,l 0 988.5352800987935,l -988.5352800987935 0,l 0 -988.5352800987935" fill="url(#7PXUQNVd_0)" transform="translate(-157.26764004939673 -144.76764004939673)"/></g><pattern width="0.014162367577412968" height="0.014162367577412968" id="rhyFH3x0_0" viewBox="0 0 14 14"><ellipse cx="7" cy="7" rx="3.5" transform-origin="7 7" transform="scale(0.7142857142857143 0.7142857142857143) rotate(0)" fill="black"><animateTransform attributeName="transform" attributeType="XML" type="scale" additive="sum" values="0.42857142857142855 0.42857142857142855 ;1 1 ;0.42857142857142855 0.42857142857142855 " dur="1" repeatCount="indefinite"/></ellipse></pattern><g width="988.5352800987935" height="988.5352800987935" id="rhyFH3x0" transform="rotate(15 337 349.5)"><path d="M 0 0,l 988.5352800987935 0,l 0 988.5352800987935,l -988.5352800987935 0,l 0 -988.5352800987935" fill="url(#rhyFH3x0_0)" transform="translate(-150.26764004939673 -137.76764004939673)"/></g><pattern width="0.004046390736403705" height="0.05057988420504632" id="tGLVnRYU_0" viewBox="0 0 4 50"><rect x="1" y="12.5" width="2" height="25" transform-origin="2 25" transform="scale(1 2) rotate(0)" fill="black"/></pattern><g width="988.5352800987935" height="988.5352800987935" id="tGLVnRYU" transform="rotate(305 337 349.5)"><path d="M 0 0,l 988.5352800987935 0,l 0 988.5352800987935,l -988.5352800987935 0,l 0 -988.5352800987935" fill="url(#tGLVnRYU_0)" transform="translate(-157.26764004939673 -144.76764004939673)"><animateTransform attributeName="transform" attributeType="XML" type="translate" values="-151.26764004939673 -144.76764004939673;-156.26764004939673 -144.76764004939673" dur="0.6" repeatCount="indefinite"/></path></g></defs><g id="sketchGroup" transform="matrix(1,0,0,1,337,349.5)"><g id="layer1"><path id="SvgjsPolyline1197" d="M-183.55 -160.94 C -247.72 -152.11,-287.05 -96.99,-275.60 -31.95 C -273.27 -18.68,-264.27 5.57,-264.10 -0.93 C -264.07 -1.91,-265.17 -4.93,-266.54 -7.63 C -273.73 -21.82,-277.46 -49.78,-274.71 -68.85 C -267.02 -122.10,-231.28 -155.23,-175.84 -160.50 C -166.69 -161.37,-166.65 -161.38,-173.55 -161.36 C -177.40 -161.36,-181.90 -161.17,-183.55 -160.94 M-154.78 -160.96 C -153.81 -160.70,-152.46 -160.72,-151.78 -160.99 C -151.10 -161.27,-151.90 -161.48,-153.55 -161.46 C -155.20 -161.44,-155.75 -161.21,-154.78 -160.96 M-146.55 -159.65 C -142.32 -158.57,-138.69 -158.57,-142.05 -159.65 C -143.43 -160.09,-145.68 -160.44,-147.05 -160.43 C -149.30 -160.42,-149.25 -160.34,-146.55 -159.65 M-138.24 -157.97 C -137.52 -157.68,-136.65 -157.71,-136.32 -158.05 C -135.99 -158.38,-136.58 -158.61,-137.63 -158.57 C -138.80 -158.52,-139.04 -158.29,-138.24 -157.97 M-128.05 -154.76 C -123.93 -153.22,-118.19 -150.76,-115.30 -149.29 C -112.41 -147.82,-110.05 -146.84,-110.05 -147.12 C -110.05 -148.47,-131.45 -157.72,-134.32 -157.60 C -135.00 -157.58,-132.18 -156.29,-128.05 -154.76 M-109.05 -146.22 C -109.05 -145.95,-108.15 -145.24,-107.05 -144.65 C -105.95 -144.06,-105.05 -143.81,-105.05 -144.08 C -105.05 -144.36,-105.95 -145.06,-107.05 -145.65 C -108.15 -146.24,-109.05 -146.50,-109.05 -146.22 M-103.55 -142.65 C -103.21 -142.10,-102.71 -141.65,-102.43 -141.65 C -102.16 -141.65,-102.21 -142.10,-102.55 -142.65 C -102.89 -143.20,-103.39 -143.65,-103.67 -143.65 C -103.94 -143.65,-103.89 -143.20,-103.55 -142.65 M-99.55 -139.65 C -99.21 -139.10,-98.71 -138.65,-98.43 -138.65 C -98.16 -138.65,-98.21 -139.10,-98.55 -139.65 C -98.89 -140.20,-99.39 -140.65,-99.67 -140.65 C -99.94 -140.65,-99.89 -140.20,-99.55 -139.65 M-96.05 -137.27 C -96.05 -137.07,-95.26 -136.28,-94.30 -135.52 C -92.71 -134.28,-92.68 -134.31,-93.92 -135.90 C -95.23 -137.57,-96.05 -138.10,-96.05 -137.27 " opacity="1" transform="matrix(1,0,0,1,0,0)" fill="#ed6ba5" fill-opacity="1" potraced="yes"/><path id="SvgjsPolyline1198" d="M0 0 " opacity="1" transform="matrix(1,0,0,1,0,0)" fill="#ed6ba5" fill-opacity="1" potraced="yes"/><path id="SvgjsPolyline1199" d="M0 0 " opacity="1" transform="matrix(1,0,0,1,0,0)" fill="#ed6ba5" fill-opacity="1" potraced="yes"/><path id="SvgjsPolyline1200" d="M-47.38 -68.25 C -32.36 -7.33,-81.12 47.08,-153.80 50.49 C -162.65 50.91,-159.72 52.77,-150.52 52.58 C -92.88 51.36,-46.04 11.51,-42.21 -39.58 C -41.51 -48.84,-43.61 -62.79,-46.44 -67.75 C -47.51 -69.61,-47.75 -69.74,-47.38 -68.25 " opacity="1" transform="matrix(1,0,0,1,0,0)" fill="#ed6ba5" fill-opacity="1" potraced="yes"/><path id="SvgjsPolyline1201" d="M-243.60 31.13 C -243.60 31.79,-227.92 41.07,-221.10 44.45 C -208.58 50.65,-184.92 56.95,-179.10 55.62 C -177.45 55.25,-176.44 54.88,-176.86 54.82 C -177.27 54.75,-182.18 54.01,-187.76 53.18 C -203.29 50.84,-218.63 44.86,-236.15 34.29 C -241.76 30.91,-243.60 30.13,-243.60 31.13 " opacity="1" transform="matrix(1,0,0,1,0,0)" fill="#ed6ba5" fill-opacity="1" potraced="yes"/><path id="SvgjsPolyline1202" d="M-120.65 -129.49 C -119.82 -129.19,-117.69 -128.35,-115.90 -127.62 C -114.11 -126.90,-112.65 -126.49,-112.65 -126.73 C -112.65 -127.57,-118.60 -130.20,-120.35 -130.12 C -121.75 -130.06,-121.81 -129.92,-120.65 -129.49 M-127.88 -126.45 C -137.29 -116.53,-137.65 -87.28,-128.55 -71.35 C -124.42 -64.12,-123.71 -65.54,-127.54 -73.38 C -136.69 -92.16,-135.57 -119.16,-125.30 -127.43 C -124.12 -128.38,-123.63 -129.17,-124.21 -129.18 C -124.80 -129.19,-126.45 -127.96,-127.88 -126.45 M-106.15 -121.20 C -104.00 -119.00,-102.02 -117.20,-101.74 -117.20 C -101.47 -117.20,-103.00 -119.00,-105.15 -121.20 C -107.30 -123.40,-109.28 -125.20,-109.56 -125.20 C -109.83 -125.20,-108.30 -123.40,-106.15 -121.20 " opacity="1" transform="matrix(1,0,0,1,0,0)" fill="#ed6ba5" fill-opacity="1" potraced="yes"/><path id="SvgjsPolyline1203" d="M-90.83 -63.95 C -93.00 -61.19,-93.17 -60.72,-91.49 -62.19 C -89.49 -63.94,-86.84 -67.70,-87.62 -67.70 C -87.77 -67.70,-89.22 -66.01,-90.83 -63.95 " opacity="1" transform="matrix(1,0,0,1,0,0)" fill="#ed6ba5" fill-opacity="1" potraced="yes"/><path id="SvgjsPolyline1204" d="M-230.41 -106.23 C -241.56 -95.82,-243.86 -63.90,-234.99 -42.76 C -232.74 -37.41,-225.53 -26.15,-224.35 -26.15 C -223.28 -26.15,-223.60 -26.79,-227.52 -32.65 C -247.81 -62.92,-238.77 -118.02,-215.46 -106.13 C -213.28 -105.02,-211.50 -104.33,-211.50 -104.61 C -211.50 -108.93,-226.17 -110.19,-230.41 -106.23 M-206.50 -99.77 C -206.50 -99.56,-205.71 -98.78,-204.75 -98.02 C -203.16 -96.78,-203.13 -96.81,-204.37 -98.40 C -205.68 -100.07,-206.50 -100.59,-206.50 -99.77 " opacity="1" transform="matrix(1,0,0,1,0,0)" fill="#ed6ba5" fill-opacity="1" potraced="yes"/><path id="SvgjsPolyline1205" d="M-186.44 -39.36 C -189.76 -32.94,-201.06 -26.46,-210.97 -25.29 C -218.93 -24.35,-219.34 -21.73,-211.43 -22.36 C -200.76 -23.22,-186.27 -32.15,-184.57 -38.92 C -183.66 -42.54,-184.67 -42.78,-186.44 -39.36 " opacity="1" transform="matrix(1,0,0,1,0,0)" fill="#ed6ba5" fill-opacity="1" potraced="yes"/><path id="SvgjsPolyline1206" d="M-113.46 -96.75 C -113.44 -95.10,-113.21 -94.55,-112.96 -95.52 C -112.70 -96.49,-112.72 -97.84,-112.99 -98.52 C -113.27 -99.20,-113.48 -98.40,-113.46 -96.75 M-130.64 -90.04 C -130.66 -87.44,-124.76 -81.25,-122.27 -81.25 C -119.73 -81.25,-115.65 -83.86,-115.65 -85.48 C -115.65 -86.10,-116.75 -85.56,-118.10 -84.30 C -121.53 -81.08,-124.88 -82.15,-128.09 -87.51 C -129.52 -89.90,-130.64 -91.00,-130.64 -90.04 M-114.65 -90.25 C -114.65 -89.52,-114.35 -89.22,-113.98 -89.58 C -113.62 -89.95,-113.62 -90.55,-113.98 -90.92 C -114.35 -91.28,-114.65 -90.98,-114.65 -90.25 " opacity="1" transform="matrix(1,0,0,1,0,0)" fill="#ed6ba5" fill-opacity="1" potraced="yes"/><path id="SvgjsPolyline1207" d="M-220.95 -100.67 C -220.95 -100.47,-220.16 -99.68,-219.20 -98.92 C -217.61 -97.68,-217.58 -97.71,-218.82 -99.30 C -220.13 -100.97,-220.95 -101.50,-220.95 -100.67 M-215.29 -91.49 C -210.08 -80.09,-211.30 -64.57,-217.88 -58.62 C -223.88 -53.19,-230.95 -55.69,-232.93 -63.96 C -234.09 -68.79,-235.95 -70.92,-235.95 -67.42 C -235.95 -57.00,-226.82 -50.22,-219.19 -54.99 C -209.86 -60.83,-207.43 -78.28,-214.09 -91.62 C -217.40 -98.24,-218.34 -98.13,-215.29 -91.49 " opacity="1" transform="matrix(1,0,0,1,0,0)" fill="#ed6ba5" fill-opacity="1" potraced="yes"/><path id="SvgjsPolyline1208" d="M-204.55 -72.80 C -203.74 -71.15,-202.79 -69.13,-202.43 -68.30 C -202.08 -67.48,-202.05 -68.15,-202.36 -69.80 C -202.67 -71.45,-203.63 -73.48,-204.48 -74.30 C -205.86 -75.65,-205.87 -75.50,-204.55 -72.80 M-201.40 -63.80 C -200.74 -59.26,-201.80 -55.43,-203.91 -54.77 C -206.13 -54.06,-206.45 -52.30,-204.36 -52.30 C -200.76 -52.30,-198.62 -60.02,-200.89 -64.80 C -201.67 -66.45,-201.76 -66.27,-201.40 -63.80 " opacity="1" transform="matrix(1,0,0,1,0,0)" fill="#ed6ba5" fill-opacity="1" potraced="yes"/><path id="SvgjsPolyline1209" d="M-105.50 -85.29 C -104.93 -82.22,-105.82 -80.65,-108.45 -80.14 C -109.73 -79.89,-110.04 -79.49,-109.30 -79.03 C -106.81 -77.46,-103.56 -81.69,-104.81 -84.87 C -105.79 -87.36,-105.89 -87.43,-105.50 -85.29 " opacity="1" transform="matrix(1,0,0,1,0,0)" fill="#ed6ba5" fill-opacity="1" potraced="yes"/><path id="SvgjsPolyline1210" d="M-131.99 -43.37 C -133.31 -41.76,-137.25 -39.03,-140.75 -37.30 C -144.25 -35.57,-146.96 -33.70,-146.76 -33.13 C -145.83 -30.49,-135.45 -35.96,-131.47 -41.19 C -128.27 -45.38,-128.74 -47.35,-131.99 -43.37 " opacity="1" transform="matrix(1,0,0,1,0,0)" fill="#ed6ba5" fill-opacity="1" potraced="yes"/><path id="SvgjsPolyline1211" d="M-131.38 -34.05 C -133.30 -26.51,-133.44 -26.29,-136.60 -25.99 C -141.10 -25.55,-141.02 -22.80,-136.50 -22.80 C -131.63 -22.80,-130.15 -25.11,-129.33 -34.05 C -128.94 -38.31,-128.80 -41.80,-129.01 -41.80 C -129.23 -41.80,-130.30 -38.31,-131.38 -34.05 " opacity="1" transform="matrix(1,0,0,1,0,0)" fill="#ed6ba5" fill-opacity="1" potraced="yes"/><path id="SvgjsPolyline1212" d="M-90.27 -73.70 C -92.86 -69.96,-93.70 -68.45,-93.19 -68.45 C -92.96 -68.45,-91.58 -70.25,-90.12 -72.45 C -87.16 -76.92,-87.29 -78.00,-90.27 -73.70 M-95.50 -65.45 C -96.09 -64.35,-96.35 -63.45,-96.07 -63.45 C -95.80 -63.45,-95.09 -64.35,-94.50 -65.45 C -93.91 -66.55,-93.66 -67.45,-93.93 -67.45 C -94.21 -67.45,-94.91 -66.55,-95.50 -65.45 M-99.43 -55.94 C -100.57 -52.26,-101.44 -47.60,-101.38 -45.60 C -101.26 -42.31,-101.17 -42.44,-100.46 -46.95 C -100.03 -49.70,-98.97 -54.18,-98.12 -56.90 C -97.27 -59.63,-96.75 -62.03,-96.97 -62.25 C -97.18 -62.47,-98.29 -59.63,-99.43 -55.94 " opacity="1" transform="matrix(1,0,0,1,0,0)" fill="#ed6ba5" fill-opacity="1" potraced="yes"/><path id="SvgjsPolyline1213" d="M-217.61 -24.94 C -223.28 -23.10,-233.12 -16.67,-231.23 -16.03 C -230.59 -15.81,-227.85 -17.23,-225.14 -19.17 C -205.45 -33.32,-176.45 -20.23,-188.86 -2.80 C -196.85 8.41,-225.84 16.71,-239.81 11.78 C -242.11 10.97,-243.72 10.73,-243.40 11.24 C -240.49 15.96,-218.16 14.74,-203.90 9.08 C -186.45 2.16,-179.40 -11.19,-188.43 -20.22 C -195.06 -26.85,-206.17 -28.65,-217.61 -24.94 M-251.82 -1.17 C -251.77 -0.00,-251.54 0.24,-251.22 -0.56 C -250.93 -1.28,-250.96 -2.15,-251.30 -2.48 C -251.63 -2.81,-251.86 -2.22,-251.82 -1.17 M-250.84 2.48 C -250.87 3.44,-249.66 5.49,-248.15 7.03 C -246.64 8.58,-246.16 8.92,-247.09 7.80 C -248.02 6.67,-249.23 4.62,-249.78 3.25 C -250.46 1.53,-250.79 1.29,-250.84 2.48 " opacity="1" transform="matrix(1,0,0,1,0,0)" fill="#ed6ba5" fill-opacity="1" potraced="yes"/><path id="SvgjsPolyline1214" d="M-51.85 6.04 C -51.63 6.72,-43.79 10.26,-34.44 13.89 C 4.38 29.00,17.86 41.79,11.10 57.09 C 2.43 76.68,-24.73 82.77,-68.05 74.82 C -83.18 72.05,-88.21 71.94,-84.89 74.47 C -82.13 76.57,-53.57 81.07,-39.84 81.56 C 11.04 83.39,34.52 50.80,-0.10 26.40 C -13.62 16.86,-53.47 1.19,-51.85 6.04 " opacity="1" transform="matrix(1,0,0,1,0,0)" fill="#ed6ba5" fill-opacity="1" potraced="yes"/><path id="SvgjsPolyline1215" d="M-210.87 83.53 C -200.79 95.68,-161.74 110.27,-140.35 109.89 C -132.77 109.76,-132.96 109.71,-143.85 109.01 C -165.36 107.62,-188.12 99.31,-204.65 86.81 C -211.11 81.93,-213.04 80.92,-210.87 83.53 M-123.98 105.80 C -125.22 107.39,-125.19 107.42,-123.60 106.18 C -121.93 104.87,-121.41 104.05,-122.23 104.05 C -122.44 104.05,-123.22 104.84,-123.98 105.80 " opacity="1" transform="matrix(1,0,0,1,0,0)" fill="#ed6ba5" fill-opacity="1" potraced="yes"/><path id="SvgjsPolyline1216" d="M-142.60 54.04 C -142.60 54.25,-140.24 56.13,-137.35 58.22 C -106.60 80.40,-99.09 98.02,-114.01 112.94 C -140.23 139.16,-209.53 114.21,-219.83 74.84 C -220.15 73.61,-220.91 72.60,-221.51 72.60 C -223.61 72.60,-222.57 77.27,-218.71 85.15 C -199.94 123.50,-137.20 140.92,-111.83 114.83 C -99.11 101.74,-101.50 86.23,-118.73 70.06 C -127.08 62.22,-142.60 51.81,-142.60 54.04 " opacity="1" transform="matrix(1,0,0,1,0,0)" fill="#ed6ba5" fill-opacity="1" potraced="yes"/><path id="SvgjsPolyline1217" d="M-90.20 45.92 C -90.20 50.04,-74.67 59.20,-63.90 61.43 C -49.78 64.34,-14.70 62.68,-10.75 58.91 C -9.38 57.60,-10.80 57.73,-24.00 60.11 C -47.14 64.30,-71.21 59.86,-84.03 49.05 C -88.91 44.93,-90.20 44.28,-90.20 45.92 " opacity="1" transform="matrix(1,0,0,1,0,0)" fill="#ed6ba5" fill-opacity="1" potraced="yes"/><path id="SvgjsPolyline1218" d="M-104.55 53.67 C -104.55 55.07,-99.34 62.05,-95.97 65.15 C -92.17 68.65,-92.17 68.65,-96.46 63.65 C -98.82 60.90,-101.39 57.41,-102.18 55.90 C -103.48 53.38,-104.55 52.38,-104.55 53.67 " opacity="1" transform="matrix(1,0,0,1,0,0)" fill="#ed6ba5" fill-opacity="1" potraced="yes"/><path id="SvgjsPolyline1219" d="M-65.40 -106.32 C -65.40 -105.80,-58.31 -101.68,-49.65 -97.17 C -18.23 -80.77,-15.40 -78.72,-15.40 -72.36 C -15.40 -64.60,-18.80 -59.50,-26.12 -56.25 C -30.47 -54.33,-32.17 -51.02,-28.44 -51.74 C -16.70 -54.00,-8.13 -67.97,-12.54 -77.65 C -15.25 -83.61,-65.40 -110.80,-65.40 -106.32 " opacity="1" transform="matrix(1,0,0,1,0,0)" fill="#ed6ba5" fill-opacity="1" potraced="yes"/><path id="SvgjsPolyline1220" d="M-288.89 -30.85 C -289.50 -28.51,-290.61 -24.35,-291.36 -21.60 C -297.95 2.67,-295.19 20.14,-283.37 29.08 C -275.73 34.86,-250.33 41.78,-247.43 38.88 C -246.00 37.45,-246.65 37.21,-255.85 35.61 C -288.99 29.87,-296.57 17.59,-288.94 -18.01 C -285.56 -33.79,-285.39 -35.10,-286.81 -35.10 C -287.34 -35.10,-288.27 -33.19,-288.89 -30.85 " opacity="1" transform="matrix(1,0,0,1,0,0)" fill="#ed6ba5" fill-opacity="1" potraced="yes"/><path id="SvgjsPolyline1221" d="M-246.66 18.65 C -246.77 36.78,-267.55 41.96,-279.05 26.74 C -283.39 21.00,-286.01 19.45,-283.23 24.26 C -274.76 38.94,-255.06 42.57,-247.10 30.92 C -244.73 27.45,-243.87 16.34,-245.75 13.37 C -246.30 12.51,-246.64 14.47,-246.66 18.65 " opacity="1" transform="matrix(1,0,0,1,0,0)" fill="#ed6ba5" fill-opacity="1" potraced="yes"/><path id="SvgjsPolyline1222" d="M-285.03 -31.48 C -289.10 -21.13,-291.02 1.55,-288.89 14.05 C -287.55 21.86,-285.88 19.86,-286.79 11.55 C -288.08 -0.24,-287.33 -17.36,-285.15 -25.89 C -283.14 -33.74,-283.08 -36.41,-285.03 -31.48 " opacity="1" transform="matrix(1,0,0,1,0,0)" fill="#ed6ba5" fill-opacity="1" potraced="yes"/><path id="SvgjsPolyline1223" d="M-222.99 44.42 C -225.03 49.71,-225.45 60.99,-223.92 68.96 C -223.05 73.49,-222.27 79.02,-222.18 81.25 C -221.99 86.31,-211.09 103.88,-203.86 110.80 C -190.12 123.94,-173.82 129.28,-159.97 125.19 C -156.71 124.23,-152.25 123.48,-150.05 123.53 C -142.02 123.70,-133.67 117.23,-138.55 114.61 C -144.96 111.18,-167.88 101.14,-175.90 98.25 C -182.20 95.99,-188.15 92.98,-192.40 89.90 C -201.11 83.59,-201.11 83.59,-202.96 84.30 C -205.00 85.09,-204.98 86.57,-202.89 88.87 C -200.71 91.28,-202.81 91.39,-208.28 89.16 C -215.10 86.37,-219.99 71.23,-219.52 54.32 C -219.39 49.85,-219.35 45.41,-219.42 44.45 C -219.59 42.20,-222.13 42.18,-222.99 44.42 M-171.05 118.70 C -170.71 119.25,-171.36 119.70,-172.49 119.70 C -173.62 119.70,-174.55 119.25,-174.55 118.70 C -174.55 118.15,-173.90 117.70,-173.11 117.70 C -172.32 117.70,-171.39 118.15,-171.05 118.70 " opacity="1" transform="matrix(1,0,0,1,0,0)" filter="url(#parallel-hatches-fine)" fill="#ed6ba5" fill-opacity="1" potraced="yes"/><path id="SvgjsPolyline1224" d="M-219.59 45.99 C -219.87 46.87,-220.31 48.28,-220.58 49.12 C -224.14 60.51,-210.12 86.72,-194.10 98.60 C -182.05 107.54,-179.57 102.37,-191.40 92.96 C -204.30 82.70,-212.72 68.83,-215.22 53.73 C -216.40 46.56,-218.56 42.74,-219.59 45.99 " opacity="1" transform="matrix(1,0,0,1,0,0)" filter="url(#parallel-hatches-fine)" fill="#ed6ba5" fill-opacity="1" potraced="yes"/><path id="SvgjsPolyline1225" d="M-220.15 70.62 C -220.15 76.48,-207.24 94.60,-203.07 94.60 C -200.58 94.60,-201.56 91.94,-205.73 87.33 C -208.34 84.45,-212.44 79.06,-214.86 75.35 C -219.61 68.04,-220.15 67.56,-220.15 70.62 " opacity="1" transform="matrix(1,0,0,1,0,0)" filter="url(#parallel-hatches-fine)" fill="#ed6ba5" fill-opacity="1" potraced="yes"/><path id="SvgjsPolyline1226" d="M-101.69 40.32 C -102.87 42.00,-104.07 42.48,-106.58 42.26 C -120.03 41.10,-109.74 63.78,-92.27 73.77 C -84.05 78.48,-68.92 80.63,-65.82 77.53 C -62.98 74.68,-64.31 72.65,-75.75 62.42 C -86.50 52.80,-87.05 52.18,-91.11 44.95 C -95.24 37.60,-98.72 36.08,-101.69 40.32 M-104.25 51.16 C -104.25 51.68,-104.70 52.10,-105.25 52.10 C -105.80 52.10,-106.25 51.40,-106.25 50.54 C -106.25 49.68,-105.80 49.26,-105.25 49.60 C -104.70 49.94,-104.25 50.64,-104.25 51.16 M-91.87 52.65 C -91.53 53.54,-91.69 53.94,-92.26 53.59 C -92.81 53.26,-93.25 52.56,-93.25 52.04 C -93.25 50.60,-92.53 50.92,-91.87 52.65 M-72.34 72.85 C -72.11 72.99,-73.29 73.10,-74.97 73.10 C -77.60 73.10,-78.08 72.68,-78.47 70.07 C -78.91 67.05,-78.91 67.05,-75.83 69.82 C -74.14 71.35,-72.57 72.71,-72.34 72.85 " opacity="1" transform="matrix(1,0,0,1,0,0)" filter="url(#parallel-hatches-fine)" fill="#ed6ba5" fill-opacity="1" potraced="yes"/><path id="SvgjsPolyline1227" d="M-90.92 48.89 C -92.52 53.05,-73.50 64.51,-56.96 69.34 C -48.25 71.88,-45.83 73.68,-52.43 72.71 C -66.45 70.65,-76.59 68.11,-83.63 64.90 C -92.60 60.80,-95.25 60.41,-95.25 63.21 C -95.25 71.64,-38.12 83.88,-32.18 76.72 C -29.64 73.66,-32.63 71.90,-50.84 65.75 C -72.26 58.51,-74.46 57.58,-81.95 52.55 C -90.30 46.93,-90.19 46.98,-90.92 48.89 " opacity="1" transform="matrix(1,0,0,1,0,0)" filter="url(#parallel-hatches-fine)" fill="#ed6ba5" fill-opacity="1" potraced="yes"/><path id="SvgjsPolyline1228" d="M-284.54 -36.25 C -301.69 -16.72,-297.32 19.00,-276.49 29.55 C -273.95 30.84,-271.30 32.59,-270.60 33.43 C -264.68 40.56,-244.84 39.24,-242.92 31.59 C -241.86 27.35,-243.08 26.76,-251.88 27.33 C -278.76 29.05,-290.38 7.16,-279.45 -24.59 C -277.12 -31.38,-277.00 -33.82,-278.98 -34.58 C -280.08 -35.00,-280.21 -35.62,-279.48 -36.98 C -277.08 -41.47,-280.38 -40.99,-284.54 -36.25 " opacity="1" transform="matrix(1,0,0,1,0,0)" filter="url(#parallel-hatches-fine)" fill="#ed6ba5" fill-opacity="1" potraced="yes"/><path id="SvgjsPolyline1229" d="M-55.23 -84.75 C -55.58 -83.82,-55.08 -80.99,-54.10 -78.46 C -53.12 -75.92,-51.31 -69.68,-50.08 -64.58 C -46.45 -49.65,-43.06 -48.02,-26.82 -53.43 C -8.56 -59.51,-6.84 -65.51,-22.44 -68.76 C -31.63 -70.68,-36.42 -72.98,-44.05 -79.16 C -52.34 -85.88,-54.40 -86.91,-55.23 -84.75 M-28.88 -58.68 C -29.25 -58.32,-29.85 -58.32,-30.22 -58.68 C -30.58 -59.05,-30.28 -59.35,-29.55 -59.35 C -28.82 -59.35,-28.52 -59.05,-28.88 -58.68 M-34.55 -56.74 C -34.55 -56.53,-35.23 -56.35,-36.05 -56.35 C -36.88 -56.35,-37.55 -56.79,-37.55 -57.32 C -37.55 -57.85,-36.88 -58.03,-36.05 -57.71 C -35.23 -57.40,-34.55 -56.96,-34.55 -56.74 " opacity="1" transform="matrix(1,0,0,1,0,0)" filter="url(#parallel-hatches-fine)" fill="#ed6ba5" fill-opacity="1" potraced="yes"/><path id="SvgjsPolyline1230" d="M-254.90 -127.60 C -265.27 -116.11,-276.82 -84.20,-278.76 -61.67 C -281.17 -33.65,-270.68 -4.05,-251.96 14.00 C -244.43 21.25,-240.88 16.68,-248.02 8.93 C -260.46 -4.58,-268.94 -21.99,-272.25 -40.85 C -276.14 -62.98,-265.49 -105.80,-251.55 -124.06 C -245.76 -131.64,-248.57 -134.62,-254.90 -127.60 " opacity="1" transform="matrix(1,0,0,1,0,0)" filter="url(#parallel-hatches-fine)" fill="#ed6ba5" fill-opacity="1" potraced="yes"/><path id="SvgjsPolyline1231" d="M-244.58 20.87 C -246.05 22.33,-245.06 24.06,-241.23 26.71 C -236.23 30.18,-236.71 31.02,-242.11 28.27 C -251.36 23.55,-253.18 27.46,-244.99 34.45 C -228.77 48.31,-198.58 60.61,-180.75 60.62 C -165.62 60.63,-138.97 54.75,-135.82 50.72 C -135.23 49.96,-130.70 48.14,-125.75 46.66 C -116.29 43.83,-114.25 42.77,-114.25 40.68 C -114.25 38.19,-117.12 38.42,-128.85 41.88 C -155.50 49.73,-213.64 39.78,-237.64 23.27 C -242.23 20.12,-243.42 19.71,-244.58 20.87 " opacity="1" transform="matrix(1,0,0,1,0,0)" filter="url(#parallel-hatches-fine)" fill="#ed6ba5" fill-opacity="1" potraced="yes"/><path id="SvgjsPolyline1232" d="M-197.36 -62.10 C -199.65 -60.48,-200.73 -58.77,-201.20 -55.99 C -202.62 -47.72,-208.63 -45.78,-211.65 -52.63 C -219.88 -71.23,-242.92 -61.61,-235.08 -42.84 C -226.69 -22.76,-208.15 -17.40,-191.81 -30.32 C -179.74 -39.86,-179.58 -64.35,-191.59 -64.35 C -193.01 -64.35,-195.61 -63.34,-197.36 -62.10 " opacity="1" transform="matrix(1,0,0,1,0,0)" filter="url(#parallel-hatches-fine)" fill="#48d1e1" fill-opacity="1" potraced="yes"/><path id="SvgjsPolyline1233" d="M-101.24 -96.95 C -104.06 -95.80,-105.35 -93.98,-106.20 -89.90 C -107.28 -84.76,-107.39 -84.72,-111.99 -87.97 C -117.99 -92.20,-123.05 -92.86,-125.77 -89.78 C -127.28 -88.06,-127.71 -87.89,-127.31 -89.15 C -126.44 -91.93,-131.09 -88.54,-132.55 -85.34 C -139.44 -70.20,-113.01 -53.04,-98.17 -63.01 C -83.56 -72.84,-86.28 -103.01,-101.24 -96.95 " opacity="1" transform="matrix(1,0,0,1,0,0)" filter="url(#parallel-hatches-fine)" fill="#48d1e1" fill-opacity="1" potraced="yes"/><path id="SvgjsPolyline1234" d="M-106.55 -121.35 C -107.24 -120.53,-108.44 -119.85,-109.22 -119.85 C -114.88 -119.85,-118.57 -96.40,-114.26 -87.85 C -110.70 -80.79,-93.31 -83.19,-87.86 -91.50 C -81.99 -100.46,-100.01 -129.23,-106.55 -121.35 " opacity="1" transform="matrix(1,0,0,1,0,0)" filter="url(#parallel-hatches-fine)" fill="#4a1533" fill-opacity="1" potraced="yes"/><path id="SvgjsPolyline1235" d="M-213.70 -92.30 C -217.84 -87.84,-216.76 -58.36,-212.28 -53.59 C -204.03 -44.81,-189.19 -55.66,-187.52 -71.69 C -186.45 -81.96,-191.15 -90.95,-197.58 -90.95 C -199.57 -90.95,-201.55 -91.73,-202.65 -92.95 C -205.33 -95.91,-210.64 -95.60,-213.70 -92.30 " opacity="1" transform="matrix(1,0,0,1,0,0)" filter="url(#parallel-hatches-fine)" fill="#4a1533" fill-opacity="1" potraced="yes"/><path id="SvgjsPolyline1236" d="M-131.66 -128.48 C -140.99 -121.14,-138.15 -91.36,-127.57 -85.70 C -117.42 -80.26,-110.09 -90.69,-112.40 -107.30 C -114.96 -125.73,-123.38 -134.99,-131.66 -128.48 " opacity="1" transform="matrix(1,0,0,1,0,0)" filter="url(#parallel-hatches-fine)" fill="#f7de8c" fill-opacity="1" potraced="yes"/><path id="SvgjsPolyline1237" d="M-235.01 -104.99 C -248.85 -95.59,-239.30 -58.14,-223.54 -60.04 C -205.79 -62.18,-206.73 -101.44,-224.65 -106.41 C -229.94 -107.88,-230.96 -107.74,-235.01 -104.99 " opacity="1" transform="matrix(1,0,0,1,0,0)" filter="url(#parallel-hatches-fine)" fill="#f7de8c" fill-opacity="1" potraced="yes"/><path id="SvgjsPolyline1238" d="M-247.02 -141.74 C -279.25 -114.81,-289.38 -80.80,-277.62 -39.03 C -263.13 12.42,-248.84 29.64,-208.70 44.04 C -187.71 51.58,-182.08 52.88,-162.00 54.82 C -154.64 55.54,-125.14 53.55,-121.26 52.08 C -116.34 50.22,-113.56 43.72,-115.59 38.85 C -118.16 32.72,-118.00 32.75,-146.61 32.75 C -175.84 32.75,-178.58 32.29,-203.94 23.29 C -236.93 11.57,-245.72 0.11,-260.36 -50.25 C -268.16 -77.10,-263.15 -98.18,-242.00 -127.43 C -232.87 -140.06,-231.48 -143.76,-235.13 -145.72 C -238.63 -147.59,-240.95 -146.81,-247.02 -141.74 " opacity="1" transform="matrix(1,0,0,1,0,0)" filter="url(#splotchy-flickering)" fill="#f78cd3" fill-opacity="1" potraced="yes"/><path id="SvgjsPolyline1239" d="M-280.06 -45.37 C -288.29 -38.33,-296.40 -15.16,-295.31 -1.78 C -294.20 11.80,-285.70 24.23,-273.21 30.52 C -247.99 43.23,-237.51 37.45,-246.91 16.01 C -248.76 11.80,-252.88 1.15,-256.06 -7.65 C -262.90 -26.54,-266.89 -32.67,-271.66 -31.63 C -274.88 -30.92,-275.30 -32.04,-273.56 -36.62 C -272.72 -38.82,-276.18 -47.35,-277.81 -47.12 C -277.94 -47.10,-278.95 -46.31,-280.06 -45.37 " opacity="1" transform="matrix(1,0,0,1,0,0)" filter="url(#splotchy-flickering)" fill="#f78cd3" fill-opacity="1" potraced="yes"/><path id="SvgjsPolyline1240" d="M-216.25 45.00 C -218.01 46.81,-219.45 48.80,-219.45 49.41 C -219.45 50.03,-219.94 50.70,-220.54 50.90 C -224.34 52.16,-222.67 70.01,-217.50 83.41 C -211.46 99.07,-197.47 115.12,-183.85 122.00 C -146.99 140.64,-99.03 115.21,-111.48 83.62 C -116.26 71.51,-134.76 51.61,-144.95 47.62 C -151.25 45.16,-150.46 45.20,-178.45 45.81 C -187.76 46.01,-191.43 45.64,-197.71 43.88 C -208.88 40.75,-212.33 40.95,-216.25 45.00 " opacity="1" transform="matrix(1,0,0,1,0,0)" filter="url(#splotchy-flickering)" fill="#f78cd3" fill-opacity="1" potraced="yes"/><path id="SvgjsPolyline1241" d="M-57.01 1.69 C -60.76 3.70,-61.62 4.87,-62.54 9.23 C -63.15 12.10,-63.15 12.10,-65.50 9.90 C -68.32 7.25,-73.88 9.39,-78.82 15.03 C -80.32 16.75,-86.05 21.73,-91.55 26.11 C -107.81 39.04,-108.94 44.86,-97.38 56.00 C -87.47 65.55,-69.53 74.61,-53.05 78.41 C -47.28 79.74,-40.66 81.37,-38.36 82.03 C -21.25 86.93,9.20 68.83,12.62 51.75 C 16.41 32.80,-39.75 -7.57,-57.01 1.69 M-76.05 41.83 C -76.05 44.67,-76.17 44.75,-78.65 43.62 C -81.26 42.43,-81.26 42.43,-79.04 40.64 C -76.15 38.30,-76.05 38.33,-76.05 41.83 M-11.70 52.58 C -14.01 54.27,-14.60 54.18,-14.74 52.10 C -14.80 51.14,-15.19 49.22,-15.60 47.85 C -16.33 45.36,-16.32 45.37,-13.15 48.33 C -10.21 51.08,-10.10 51.41,-11.70 52.58 " opacity="1" transform="matrix(1,0,0,1,0,0)" filter="url(#splotchy-flickering)" fill="#f78cd3" fill-opacity="1" potraced="yes"/><path id="SvgjsPolyline1242" d="M-60.95 -106.27 C -66.79 -104.19,-67.41 -97.06,-62.24 -91.47 C -60.48 -89.56,-55.83 -83.71,-51.91 -78.46 C -30.59 -49.94,-1.16 -50.17,-14.81 -78.75 C -19.29 -88.12,-28.79 -95.66,-45.36 -103.01 C -56.26 -107.84,-56.44 -107.88,-60.95 -106.27 " opacity="1" transform="matrix(1,0,0,1,0,0)" filter="url(#splotchy-flickering)" fill="#f78cd3" fill-opacity="1" potraced="yes"/><path id="SvgjsPolyline1243" d="M-194.30 -161.13 C -197.05 -160.39,-203.58 -159.05,-208.80 -158.16 C -227.33 -155.00,-236.70 -149.82,-242.60 -139.48 C -247.73 -130.48,-246.61 -128.33,-239.34 -133.26 C -235.42 -135.93,-235.42 -135.93,-239.86 -130.43 C -242.30 -127.41,-245.88 -122.18,-247.80 -118.81 C -250.36 -114.34,-252.28 -112.24,-254.92 -111.05 C -260.00 -108.75,-269.91 -78.53,-268.54 -69.50 C -266.24 -54.26,-262.05 -39.10,-257.80 -30.60 C -256.29 -27.58,-253.76 -20.45,-252.19 -14.77 C -249.27 -4.21,-239.77 6.77,-236.44 3.44 C -235.82 2.82,-232.66 5.05,-227.57 9.69 C -211.54 24.30,-199.28 31.80,-195.08 29.55 C -193.62 28.77,-192.43 28.94,-190.22 30.26 C -179.87 36.46,-172.77 37.43,-168.81 33.18 C -167.21 31.46,-165.52 30.95,-161.01 30.83 C -152.07 30.59,-151.28 30.10,-149.44 23.65 C -147.82 17.96,-147.82 17.96,-151.56 14.12 C -156.08 9.49,-177.53 -2.68,-183.80 -4.17 C -186.28 -4.75,-192.10 -7.62,-196.74 -10.54 C -215.71 -22.48,-224.39 -25.61,-231.22 -22.99 C -233.31 -22.19,-240.53 -61.39,-242.32 -83.25 C -243.94 -102.92,-224.43 -129.53,-198.80 -142.61 C -195.27 -144.41,-191.85 -145.06,-182.99 -145.61 C -176.77 -146.00,-171.36 -146.72,-170.98 -147.21 C -170.59 -147.70,-169.23 -149.29,-167.96 -150.75 C -160.84 -158.90,-177.77 -165.57,-194.30 -161.13 " opacity="1" transform="matrix(1,0,0,1,0,0)" filter="url(#splotchy-flickering)" fill="#f78cd3" fill-opacity="1" potraced="yes"/><path id="SvgjsPolyline1244" d="M-219.91 -18.88 C -191.56 12.05,-175.50 31.29,-175.50 34.34 C -175.50 47.18,-146.70 52.26,-122.00 43.77 C -114.85 41.31,-106.53 38.73,-103.50 38.04 C -91.18 35.23,-67.74 21.27,-56.82 10.24 C -45.81 -0.87,-39.31 -17.07,-45.57 -17.80 C -50.46 -18.37,-89.52 -2.66,-103.50 5.50 C -126.95 19.18,-178.33 9.71,-212.24 -14.55 C -219.70 -19.89,-222.05 -21.22,-219.91 -18.88 " opacity="1" transform="matrix(1,0,0,1,0,0)" filter="url(#splotchy-flickering)" fill="#f78cd3" fill-opacity="1" potraced="yes"/><path id="SvgjsPolyline1245" d="M-166.07 -160.22 C -171.73 -159.74,-172.64 -159.41,-171.84 -158.15 C -169.09 -153.84,-171.66 -148.05,-178.08 -144.11 C -182.97 -141.10,-182.97 -141.10,-182.28 -136.37 C -180.61 -124.84,-174.23 -123.18,-159.24 -130.37 C -140.69 -139.27,-122.73 -136.74,-108.33 -123.19 C -103.05 -118.22,-96.23 -113.26,-88.34 -108.64 C -79.01 -103.17,-76.01 -100.89,-74.79 -98.31 C -72.84 -94.18,-71.58 -93.39,-67.82 -93.94 C -55.87 -95.70,-75.66 -124.94,-100.71 -142.54 C -123.94 -158.85,-137.89 -162.63,-166.07 -160.22 " opacity="1" transform="matrix(1,0,0,1,0,0)" filter="url(#splotchy-flickering)" fill="#f78cd3" fill-opacity="1" potraced="yes"/><path id="SvgjsPolyline1246" d="M-186.14 -145.96 C -212.11 -142.17,-241.99 -117.95,-236.98 -104.75 C -235.63 -101.21,-233.19 -101.26,-224.37 -105.02 C -212.06 -110.27,-207.68 -109.00,-194.84 -96.44 C -185.31 -87.11,-183.60 -83.58,-183.96 -73.99 C -184.05 -71.55,-183.60 -64.38,-182.96 -58.05 C -181.57 -44.33,-182.13 -39.52,-185.99 -31.87 C -189.19 -25.52,-189.46 -23.92,-187.75 -21.18 C -186.88 -19.78,-186.88 -18.21,-187.75 -14.75 C -191.61 0.60,-188.90 7.26,-176.91 11.89 C -164.42 16.70,-157.34 17.11,-146.40 13.65 C -137.90 10.96,-136.76 10.84,-125.90 11.48 C -101.88 12.89,-97.47 11.96,-93.77 4.68 C -92.58 2.35,-89.88 -1.24,-87.76 -3.30 C -82.86 -8.06,-82.85 -8.03,-89.37 -13.66 C -92.38 -16.25,-99.74 -23.82,-105.72 -30.47 C -111.71 -37.11,-120.96 -46.15,-126.29 -50.55 C -143.46 -64.74,-147.88 -81.45,-139.15 -99.13 C -137.15 -103.18,-135.90 -107.22,-135.90 -109.63 C -135.91 -121.19,-126.24 -139.87,-120.09 -140.19 C -114.57 -140.47,-131.00 -141.85,-147.90 -142.52 C -162.79 -143.12,-171.65 -144.21,-178.90 -146.36 C -179.72 -146.60,-182.98 -146.42,-186.14 -145.96 M-164.84 0.00 C -153.82 9.28,-150.82 12.95,-154.25 12.95 C -156.75 12.95,-168.36 3.24,-172.34 -2.18 C -174.51 -5.13,-176.71 -8.11,-177.22 -8.80 C -179.50 -11.87,-175.93 -9.34,-164.84 0.00 " opacity="1" transform="matrix(1,0,0,1,0,0)" filter="url(#splotchy-flickering)" fill="#f78cd3" fill-opacity="1" potraced="yes"/><path id="SvgjsPolyline1247" d="M-171.86 1.17 C -161.15 17.36,-162.22 16.60,-156.93 11.81 C -152.91 8.18,-152.91 8.18,-159.98 4.66 C -164.76 2.28,-169.35 -1.15,-174.16 -5.95 C -181.27 -13.05,-181.27 -13.05,-171.86 1.17 " opacity="1" transform="matrix(1,0,0,1,0,0)" filter="url(#splotchy-flickering)" fill="#f78cd3" fill-opacity="1" potraced="yes"/><path id="SvgjsPolyline1248" d="M-142.01 -96.75 C -145.78 -84.38,-146.26 -80.20,-144.94 -71.40 C -144.43 -68.05,-144.88 -66.19,-147.41 -61.18 C -153.15 -49.81,-150.32 -48.52,-135.76 -55.87 C -129.97 -58.79,-129.03 -58.97,-122.59 -58.37 C -111.85 -57.37,-111.22 -58.19,-118.44 -63.80 C -126.39 -69.98,-129.24 -75.16,-134.10 -92.24 C -138.73 -108.57,-138.46 -108.41,-142.01 -96.75 " opacity="1" transform="matrix(1,0,0,1,0,0)" filter="url(#splotchy-flickering)" fill="#f78cd3" fill-opacity="1" potraced="yes"/><path id="SvgjsPolyline1249" d="M-132.35 -62.79 C -140.33 -61.37,-140.32 -61.12,-131.83 -50.34 C -113.23 -26.72,-103.00 -19.41,-96.21 -24.91 C -93.78 -26.88,-93.32 -32.46,-94.30 -48.00 C -94.49 -50.94,-93.84 -54.20,-92.44 -57.39 C -89.75 -63.53,-89.71 -63.51,-97.43 -60.40 C -105.59 -57.11,-109.90 -57.24,-117.34 -60.99 C -123.74 -64.22,-124.04 -64.26,-132.35 -62.79 " opacity="1" transform="matrix(1,0,0,1,0,0)" filter="url(#splotchy-flickering)" fill="#f78cd3" fill-opacity="1" potraced="yes"/><path id="SvgjsPolyline1250" d="M-94.66 -115.35 C -88.28 -93.94,-85.16 -78.69,-85.02 -68.20 C -85.00 -67.28,-82.35 -66.95,-75.11 -66.95 C -67.95 -66.95,-62.71 -66.30,-56.12 -64.59 C -48.36 -62.57,-42.00 -62.12,-42.00 -63.59 C -42.00 -64.95,-52.45 -84.50,-59.16 -95.67 C -67.99 -110.39,-65.22 -108.48,-86.50 -114.52 C -89.80 -115.45,-93.11 -116.45,-93.87 -116.74 C -94.82 -117.10,-95.06 -116.68,-94.66 -115.35 " opacity="1" transform="matrix(1,0,0,1,0,0)" filter="url(#splotchy-flickering)" fill="#f78cd3" fill-opacity="1" potraced="yes"/><path id="SvgjsPolyline1251" d="M-71.19 -72.20 C -77.51 -71.48,-84.05 -70.63,-85.72 -70.31 C -95.79 -68.42,-108.10 -47.25,-106.85 -33.96 C -105.06 -14.79,-92.55 -5.52,-68.19 -5.34 C -52.82 -5.22,-51.46 -6.16,-49.01 -18.58 C -44.65 -40.68,-45.07 -53.31,-50.80 -72.00 C -51.44 -74.10,-54.40 -74.12,-71.19 -72.20 " opacity="1" transform="matrix(1,0,0,1,0,0)" filter="url(#splotchy-flickering)" fill="#f78cd3" fill-opacity="1" potraced="yes"/><path id="SvgjsPolyline1252" d="M-69.45 21.69 C -71.10 22.40,-80.82 28.11,-91.05 34.39 C -109.65 45.80,-109.65 45.80,-101.60 57.40 C -93.63 68.89,-93.52 68.99,-90.50 68.12 C -88.03 67.41,-85.66 67.93,-78.11 70.86 C -68.76 74.48,-68.76 74.48,-57.11 73.76 C -39.86 72.71,-38.54 70.87,-47.86 60.84 C -55.25 52.91,-56.12 51.21,-61.09 34.95 C -65.78 19.63,-65.55 20.01,-69.45 21.69 " opacity="1" transform="matrix(1,0,0,1,0,0)" filter="url(#splotchy-flickering)" fill="#911c3c" fill-opacity="1" potraced="yes"/><path id="SvgjsPolyline1253" d="M-219.40 43.45 C -219.40 44.13,-220.82 47.61,-222.56 51.18 C -233.12 72.85,-219.13 100.68,-191.79 112.39 C -184.99 115.31,-184.40 115.09,-184.39 109.60 C -184.36 103.21,-181.09 85.59,-177.32 71.55 C -173.52 57.40,-171.99 59.13,-195.95 50.47 C -220.12 41.74,-219.40 41.95,-219.40 43.45 " opacity="1" transform="matrix(1,0,0,1,0,0)" filter="url(#splotchy-flickering)" fill="#911c3c" fill-opacity="1" potraced="yes"/><path id="SvgjsPolyline1254" d="M-190.75 74.75 C -190.75 75.20,-191.87 83.44,-193.24 93.06 C -194.60 102.68,-195.73 111.10,-195.74 111.76 C -195.74 112.43,-193.02 114.83,-189.69 117.09 C -164.13 134.44,-144.85 133.44,-123.26 113.63 C -116.26 107.21,-116.26 107.21,-126.26 107.73 C -149.89 108.94,-166.08 102.11,-180.65 84.79 C -188.68 75.24,-190.75 73.18,-190.75 74.75 " opacity="1" transform="matrix(1,0,0,1,0,0)" filter="url(#splotchy-flickering)" fill="#911c3c" fill-opacity="1" potraced="yes"/><path id="SvgjsPolyline1255" d="M-73.01 62.28 C -81.76 74.97,-81.77 74.09,-72.95 76.61 C -56.53 81.29,-45.16 81.81,-25.20 78.77 C -10.96 76.60,7.53 64.08,4.28 58.82 C 3.92 58.24,-6.05 57.85,-20.79 57.85 C -45.07 57.85,-45.34 57.83,-55.36 54.85 C -60.92 53.20,-65.54 51.85,-65.64 51.85 C -65.74 51.85,-69.06 56.54,-73.01 62.28 " opacity="1" transform="matrix(1,0,0,1,0,0)" filter="url(#splotchy-flickering)" fill="#911c3c" fill-opacity="1" potraced="yes"/><path id="SvgjsPolyline1256" d="M-119.00 103.90 C -120.93 104.92,-125.65 106.53,-129.50 107.46 C -138.66 109.69,-138.00 109.22,-144.89 118.41 C -150.88 126.40,-150.88 126.40,-142.70 126.69 C -128.99 127.19,-122.88 123.72,-114.27 110.58 C -111.82 106.83,-109.96 103.63,-110.15 103.47 C -111.78 102.11,-116.04 102.32,-119.00 103.90 " opacity="1" transform="matrix(1,0,0,1,0,0)" filter="url(#splotchy-flickering)" fill="#911c3c" fill-opacity="1" potraced="yes"/><path id="SvgjsPolyline1257" d="M-58.45 9.45 C -60.91 12.61,-65.66 17.89,-69.01 21.17 C -76.30 28.31,-76.21 27.57,-70.35 31.77 C -67.74 33.65,-61.10 39.34,-55.60 44.43 C -39.86 58.99,-15.88 69.24,-5.75 65.75 C 11.69 59.72,16.07 51.66,7.88 40.67 C -3.81 24.95,-10.65 20.24,-36.86 9.79 C -55.25 2.46,-53.04 2.49,-58.45 9.45 " opacity="1" transform="matrix(1,0,0,1,0,0)" filter="url(#splotchy-flickering)" fill="#ae1e46" fill-opacity="1" potraced="yes"/><path id="SvgjsPolyline1258" d="M-173.42 58.16 C -173.85 58.25,-175.49 58.61,-177.06 58.96 C -183.49 60.38,-193.70 72.69,-193.70 79.01 C -193.70 99.70,-121.16 118.81,-111.95 100.54 C -105.80 88.35,-112.27 75.65,-131.33 62.48 C -138.73 57.36,-138.73 57.36,-155.69 57.68 C -165.02 57.86,-173.00 58.07,-173.42 58.16 " opacity="1" transform="matrix(1,0,0,1,0,0)" filter="url(#splotchy-flickering)" fill="#ae1e46" fill-opacity="1" potraced="yes"/><path id="SvgjsPolyline1259" d="M-217.26 -21.85 C -236.73 -14.69,-248.32 1.05,-239.50 8.37 C -233.53 13.33,-230.63 14.64,-225.63 14.65 C -208.17 14.66,-194.83 8.11,-189.07 -3.32 C -185.51 -10.36,-184.89 -17.87,-187.80 -18.74 C -203.95 -23.58,-210.62 -24.29,-217.26 -21.85 " opacity="1" transform="matrix(1,0,0,1,0,0)" filter="url(#splotchy-flickering)" fill="#f96bbf" fill-opacity="1" potraced="yes"/><path id="SvgjsPolyline1260" d="M-64.45 -79.50 C -65.45 -78.39,-69.84 -76.36,-74.20 -74.98 C -95.18 -68.36,-108.14 -47.37,-96.89 -38.25 C -89.05 -31.90,-61.34 -44.99,-56.60 -57.27 C -52.29 -68.44,-58.51 -86.06,-64.45 -79.50 " opacity="1" transform="matrix(1,0,0,1,0,0)" filter="url(#splotchy-flickering)" fill="#f96bbf" fill-opacity="1" potraced="yes"/><path id="SvgjsPolyline1261" d="M-73.55 -71.39 C -96.46 -64.59,-103.55 -59.59,-103.55 -50.28 C -103.55 -42.01,-97.09 -37.30,-85.74 -37.30 C -73.03 -37.30,-55.48 -54.67,-55.42 -67.32 C -55.37 -76.86,-55.25 -76.83,-73.55 -71.39 " opacity="1" transform="matrix(1,0,0,1,0,0)" filter="url(#splotchy-flickering)" fill="#eb4f7f" fill-opacity="1" potraced="yes"/><path id="SvgjsPolyline1262" d="M-204.60 -23.30 C -237.94 -18.24,-255.57 3.75,-230.54 9.06 C -220.20 11.26,-194.44 2.54,-188.48 -5.16 C -187.05 -7.02,-186.81 -19.23,-188.18 -20.81 C -188.53 -21.22,-200.82 -23.94,-201.60 -23.78 C -201.88 -23.72,-203.23 -23.51,-204.60 -23.30 " opacity="1" transform="matrix(1,0,0,1,0,0)" filter="url(#splotchy-flickering)" fill="#eb4f7f" fill-opacity="1" potraced="yes"/><path id="SvgjsPolyline1263" d="M-137.56 -37.55 C -150.66 -32.82,-151.18 -29.90,-139.76 -25.21 C -130.60 -21.45,-130.71 -21.40,-129.28 -29.75 C -128.60 -33.74,-127.83 -37.79,-127.56 -38.75 C -126.90 -41.09,-128.20 -40.93,-137.56 -37.55 " opacity="1" transform="matrix(1,0,0,1,0,0)" filter="url(#splotchy-flickering)" fill="#eb4f7f" fill-opacity="1" potraced="yes"/><path id="SvgjsPolyline1264" d="M-140.70 -37.29 C -145.10 -34.84,-149.14 -32.68,-149.67 -32.49 C -151.71 -31.78,-145.46 -25.85,-140.07 -23.38 C -132.73 -20.01,-132.20 -20.09,-132.19 -24.55 C -132.19 -26.61,-131.90 -31.34,-131.55 -35.05 C -130.80 -43.03,-130.51 -42.96,-140.70 -37.29 " opacity="1" transform="matrix(1,0,0,1,0,0)" filter="url(#splotchy-flickering)" fill="#eb4f7f" fill-opacity="1" potraced="yes"/><path id="SvgjsPolyline1265" d="M-49.94 -226.12 C -52.50 -217.28,-52.42 -204.58,-49.77 -199.65 C -45.90 -192.47,-32.00 -192.40,-32.00 -199.57 C -32.00 -203.25,-33.72 -204.65,-38.23 -204.65 C -42.74 -204.65,-43.10 -205.30,-44.96 -217.15 C -46.74 -228.53,-48.38 -231.48,-49.94 -226.12 " opacity="1" transform="matrix(1,0,0,1,0,0)" filter="url(#pen-wiggly)" fill="#f4f068" fill-opacity="1" potraced="yes"/><path id="SvgjsPolyline1266" d="M-50.01 -224.53 C -50.83 -223.28,-51.83 -219.83,-52.24 -216.87 C -52.65 -213.92,-53.58 -210.05,-54.32 -208.29 C -55.51 -205.43,-57.07 -203.83,-65.56 -196.76 C -68.81 -194.06,-68.27 -188.93,-64.52 -186.84 C -59.36 -183.96,-47.80 -192.88,-44.50 -202.30 C -39.96 -215.21,-44.40 -233.09,-50.01 -224.53 " opacity="1" transform="matrix(1,0,0,1,0,0)" filter="url(#pen-wiggly)" fill="#f4f068" fill-opacity="1" potraced="yes"/><path id="SvgjsPolyline1267" d="M-35.77 -199.57 C -36.93 -199.10,-38.88 -197.10,-40.10 -195.13 C -42.32 -191.54,-42.32 -191.54,-44.77 -193.47 C -47.44 -195.57,-49.53 -195.30,-56.39 -191.99 C -62.26 -189.16,-62.06 -183.93,-56.01 -182.01 C -52.91 -181.02,-51.10 -176.01,-49.40 -163.71 C -47.67 -151.21,-46.17 -147.54,-42.79 -147.57 C -37.75 -147.60,-36.43 -151.92,-36.22 -169.05 C -36.11 -178.37,-34.38 -185.65,-30.75 -192.16 C -27.68 -197.65,-27.77 -197.03,-29.72 -198.98 C -31.46 -200.72,-32.63 -200.83,-35.77 -199.57 " opacity="1" transform="matrix(1,0,0,1,0,0)" filter="url(#pen-wiggly)" fill="#f4f068" fill-opacity="1" potraced="yes"/><path id="SvgjsPolyline1268" d="M-41.34 -199.30 C -41.66 -198.48,-42.77 -197.80,-43.81 -197.80 C -49.50 -197.80,-51.28 -190.60,-46.82 -185.61 C -39.35 -177.25,-13.70 -188.39,-19.49 -197.49 C -21.64 -200.88,-40.15 -202.41,-41.34 -199.30 " opacity="1" transform="matrix(1,0,0,1,0,0)" filter="url(#pen-wiggly)" fill="#f4f068" fill-opacity="1" potraced="yes"/><path id="SvgjsPolyline1269" d="M-68.25 -193.39 C -69.88 -191.71,-68.98 -187.89,-66.75 -187.05 C -60.31 -184.60,-50.72 -188.10,-54.23 -191.61 C -55.86 -193.24,-67.02 -194.66,-68.25 -193.39 " opacity="1" transform="matrix(1,0,0,1,0,0)" filter="url(#pen-wiggly)" fill="#f4f068" fill-opacity="1" potraced="yes"/><path id="SvgjsPolyline1270" d="M-74.24 -191.27 C -75.54 -187.89,-73.89 -186.36,-69.69 -187.03 C -59.11 -188.72,-58.26 -191.62,-68.10 -192.44 C -72.55 -192.81,-73.74 -192.58,-74.24 -191.27 " opacity="1" transform="matrix(1,0,0,1,0,0)" filter="url(#pen-wiggly)" fill="#f4f068" fill-opacity="1" potraced="yes"/><path id="SvgjsPolyline1271" d="M-1.14 -159.79 C -3.13 -158.53,-1.77 -140.71,0.75 -134.98 C 4.85 -125.69,20.59 -122.22,18.36 -131.10 C 17.85 -133.14,16.77 -133.92,13.16 -134.83 C 7.82 -136.17,7.19 -137.32,5.66 -148.58 C 4.09 -160.06,2.76 -162.26,-1.14 -159.79 " opacity="1" transform="matrix(1,0,0,1,0,0)" filter="url(#pen-wiggly)" fill="#f4f068" fill-opacity="1" potraced="yes"/><path id="SvgjsPolyline1272" d="M-0.63 -154.47 C -0.93 -153.98,-1.88 -150.49,-2.75 -146.72 C -4.50 -139.11,-7.70 -133.73,-12.81 -129.83 C -18.36 -125.60,-16.94 -119.35,-10.42 -119.35 C -2.41 -119.35,8.60 -143.18,4.81 -152.32 C 3.60 -155.24,0.58 -156.43,-0.63 -154.47 " opacity="1" transform="matrix(1,0,0,1,0,0)" filter="url(#pen-wiggly)" fill="#f4f068" fill-opacity="1" potraced="yes"/><path id="SvgjsPolyline1273" d="M-1.30 -129.45 C -2.68 -128.35,-4.27 -127.43,-4.85 -127.42 C -7.50 -127.37,-12.87 -120.31,-11.04 -119.28 C -5.38 -116.09,-4.44 -114.23,-3.27 -103.90 C -1.87 -91.48,-0.49 -88.95,4.46 -89.75 C 9.64 -90.59,10.00 -91.33,10.75 -102.64 C 11.40 -112.53,13.24 -119.38,15.65 -120.87 C 16.50 -121.39,16.46 -121.98,15.51 -123.13 C 14.39 -124.48,14.50 -124.60,16.32 -124.02 C 19.38 -123.05,21.70 -124.28,21.70 -126.89 C 21.70 -130.28,19.33 -131.72,14.96 -130.99 C 10.37 -130.21,9.16 -130.20,4.70 -130.90 C 2.11 -131.31,0.55 -130.93,-1.30 -129.45 " opacity="1" transform="matrix(1,0,0,1,0,0)" filter="url(#pen-wiggly)" fill="#f4f068" fill-opacity="1" potraced="yes"/><path id="SvgjsPolyline1274" d="M-0.77 -128.13 C -2.90 -124.89,-1.92 -116.53,0.77 -114.85 C 4.14 -112.75,8.20 -117.69,7.37 -122.89 C 6.22 -130.11,2.21 -132.68,-0.77 -128.13 " opacity="1" transform="matrix(1,0,0,1,0,0)" filter="url(#pen-wiggly)" fill="#f4f068" fill-opacity="1" potraced="yes"/><path id="SvgjsPolyline1275" d="M-115.19 45.49 C -116.67 46.97,-118.05 47.27,-121.56 46.87 C -124.31 46.56,-126.31 46.80,-126.73 47.49 C -127.16 48.18,-128.88 48.37,-131.31 47.98 C -148.50 45.23,-147.83 52.75,-129.20 71.71 C -111.93 89.28,-104.47 91.57,-86.80 84.70 C -78.24 81.37,-78.19 73.01,-86.72 70.62 C -90.24 69.64,-91.95 68.05,-98.27 59.94 C -110.43 44.32,-112.37 42.67,-115.19 45.49 M-107.73 70.60 C -104.34 70.60,-101.43 72.54,-101.33 74.85 C -101.22 77.59,-110.34 74.45,-113.80 70.56 C -115.80 68.31,-115.80 68.31,-113.62 69.45 C -112.41 70.08,-109.76 70.60,-107.73 70.60 " opacity="1" transform="matrix(1,0,0,1,0,0)" filter="url(#screentone-medium-pulsing)" fill="#7c90cd" fill-opacity="1" potraced="yes"/><path id="SvgjsPolyline1276" d="M-232.55 45.07 C -243.41 56.79,-252.71 87.43,-249.20 99.96 C -246.19 110.72,-223.32 128.64,-212.20 128.97 C -209.73 129.04,-203.43 130.30,-198.20 131.77 C -176.93 137.75,-165.30 136.02,-166.72 127.08 C -167.57 121.76,-167.94 121.51,-182.46 116.43 C -212.35 105.97,-221.20 95.85,-221.20 72.11 C -221.20 63.26,-222.74 59.13,-225.83 59.72 C -228.72 60.27,-228.77 59.49,-226.20 54.45 C -221.55 45.34,-226.30 38.33,-232.55 45.07 M-233.27 94.92 C -232.23 99.44,-232.76 101.06,-234.73 99.43 C -236.82 97.69,-237.48 92.84,-236.62 85.59 C -235.84 78.95,-235.84 78.95,-235.01 84.95 C -234.55 88.25,-233.77 92.74,-233.27 94.92 " opacity="1" transform="matrix(1,0,0,1,0,0)" filter="url(#screentone-medium-pulsing)" fill="#7c90cd" fill-opacity="1" potraced="yes"/><path id="SvgjsPolyline1277" d="M-247.64 36.07 C -247.99 36.42,-251.86 36.84,-256.23 37.00 C -273.59 37.62,-279.66 48.66,-273.28 68.03 C -264.93 93.38,-233.30 114.28,-233.30 94.45 C -233.30 91.77,-240.48 76.64,-245.06 69.64 C -246.72 67.11,-246.72 67.11,-243.44 67.59 C -240.40 68.04,-240.04 67.79,-238.62 64.24 C -237.77 62.13,-236.45 60.40,-235.68 60.40 C -221.65 60.40,-229.13 39.48,-244.40 36.03 C -245.83 35.70,-247.29 35.72,-247.64 36.07 M-251.38 81.40 C -250.96 81.40,-250.10 82.55,-249.46 83.95 C -248.30 86.51,-248.30 86.51,-251.80 83.83 C -255.55 80.98,-256.28 79.81,-253.72 80.79 C -252.85 81.13,-251.80 81.40,-251.38 81.40 " opacity="1" transform="matrix(1,0,0,1,0,0)" filter="url(#screentone-medium-pulsing)" fill="#7c90cd" fill-opacity="1" potraced="yes"/><path id="SvgjsPolyline1278" d="M-293.26 23.07 C -292.79 24.94,-293.26 25.93,-295.38 27.47 C -297.81 29.25,-298.18 30.27,-298.67 36.81 C -300.57 62.29,-287.28 87.30,-261.65 106.44 C -240.47 122.25,-214.15 132.36,-212.28 125.40 C -210.63 119.26,-211.18 118.43,-222.40 110.15 C -234.14 101.49,-250.96 84.95,-267.27 66.01 C -275.75 56.15,-278.66 53.46,-282.69 51.73 C -287.26 49.76,-287.65 49.32,-287.65 46.16 C -287.65 42.73,-287.65 42.73,-282.58 45.88 C -275.16 50.50,-259.65 50.87,-259.65 46.43 C -259.65 44.59,-263.79 39.65,-265.33 39.65 C -268.44 39.65,-278.70 33.28,-285.61 27.05 C -293.53 19.92,-294.13 19.61,-293.26 23.07 " opacity="1" transform="matrix(1,0,0,1,0,0)" filter="url(#screentone-medium-pulsing)" fill="#7c90cd" fill-opacity="1" potraced="yes"/><path id="SvgjsPolyline1279" d="M-90.80 72.85 C -91.80 74.36,-92.64 76.24,-92.66 77.02 C -92.68 77.81,-95.49 79.82,-98.89 81.49 C -108.24 86.10,-109.14 93.50,-101.42 102.35 C -96.83 107.60,-83.19 97.86,-80.58 87.48 C -80.11 85.61,-79.52 85.38,-76.22 85.82 C -72.90 86.27,-72.17 85.99,-70.66 83.67 C -67.63 79.05,-71.06 75.42,-82.08 71.61 C -87.99 69.57,-88.68 69.67,-90.80 72.85 M-87.14 90.21 C -92.37 94.91,-96.24 96.47,-96.17 93.85 C -96.13 92.53,-83.06 84.13,-82.20 84.88 C -81.93 85.12,-84.15 87.51,-87.14 90.21 " opacity="1" transform="matrix(1,0,0,1,0,0)" filter="url(#screentone-medium-pulsing)" fill="#7c90cd" fill-opacity="1" potraced="yes"/></g></g><filter xmlns="http://www.w3.org/2000/svg" id="splotchy-flickering"><feTurbulence id="SvgjsFeTurbulence5979" baseFrequency="0.25 0.209" filtername="feTurbulence" numOctaves="8" result="nTLuQM" seed="0" stitchTiles="noStitch" type="fractalNoise"/><feComponentTransfer id="SvgjsFeComponentTransfer5980" filtername="feComponentTransfer" in="nTLuQM" result="irk8Sm"><feFuncR id="SvgjsFeFuncR5981" filtername="feFuncR" intercept="0.1" slope="0.1" type="linear"/><feFuncG id="SvgjsFeFuncG5982" filtername="feFuncG" intercept="0.1" slope="0.1" type="linear"/><feFuncB id="SvgjsFeFuncB5983" filtername="feFuncB" intercept="0.1" slope="0.1" type="linear"/></feComponentTransfer><feMorphology id="SvgjsFeMorphology5984" filtername="feMorphology" in="irk8Sm" operator="erode" radius="6" result="HyN6vt"><animate id="SvgjsAnimate5985" attributeName="radius" dur="0.5" values="4;5;4" attributeType="XML" repeatCount="indefinite"/></feMorphology><feConvolveMatrix id="SvgjsFeConvolveMatrix5986" filtername="feConvolveMatrix" in="HyN6vt" kernelMatrix="0 -1 0 -1 5 -1 0 -1 0" result="tTZHfY"/><feComposite id="SvgjsFeComposite5987" filtername="feComposite" in="SourceGraphic" in2="tTZHfY" operator="in" result="gAuK3e"/><feComposite id="SvgjsFeComposite5988" filtername="feComposite" in="gAuK3e" in2="gAuK3e" operator="over" result="CvTrwW"/></filter><filter xmlns="http://www.w3.org/2000/svg" id="pen-wiggly"><feTurbulence id="SvgjsFeTurbulence6038" baseFrequency="0.1 0.1" filtername="feTurbulence" numOctaves="1" result="2clDB1" seed="0" stitchTiles="noStitch" type="turbulence"><animate id="SvgjsAnimate6039" attributeName="baseFrequency" dur="9" values="0.108 0.092;0.048 0.053;0.1 0.1" attributeType="XML" repeatCount="indefinite"/></feTurbulence><feDisplacementMap id="SvgjsFeDisplacementMap6040" filtername="feDisplacementMap" in="SourceGraphic" in2="2clDB1" result="1Pf3G7" scale="6" xChannelSelector="R" yChannelSelector="G"/></filter><filter xmlns="http://www.w3.org/2000/svg" id="screentone-medium-pulsing"><feImage id="SvgjsFeImage6083" cellheight="5" cellwidth="5" dx="14" dy="14" filtername="feImage" href="#7PXUQNVd" patterntype="grid" result="8eDNxN" rotation="15" sx="0" sy="0" type="turbulence" unitrot="0" unittype="circle"><animate id="SvgjsAnimate6084" attributeName="cellwidth" dur="1" values="3;10;3" attributeType="XML" repeatCount="indefinite"/><animate id="SvgjsAnimate6085" attributeName="cellheight" dur="1" values="3;10;3" attributeType="XML" repeatCount="indefinite"/></feImage><feImage id="SvgjsFeImage6086" cellheight="5" cellwidth="5" dx="14" dy="14" filtername="feImage" href="#rhyFH3x0" patterntype="grid" result="jDMl2y" rotation="15" sx="7" sy="7" type="turbulence" unitrot="0" unittype="circle"><animate id="SvgjsAnimate6087" attributeName="cellwidth" dur="1" values="3;7;3" attributeType="XML" repeatCount="indefinite"/><animate id="SvgjsAnimate6088" attributeName="cellheight" dur="1" values="3;7;3" attributeType="XML" repeatCount="indefinite"/></feImage><feComposite id="SvgjsFeComposite6089" filtername="feComposite" in="8eDNxN" in2="jDMl2y" operator="over" result="Qm0OEx"/><feComposite id="SvgjsFeComposite6090" filtername="feComposite" in="SourceGraphic" in2="Qm0OEx" operator="in" result="jrnUN1"/></filter><filter xmlns="http://www.w3.org/2000/svg" id="parallel-hatches-fine"><feImage id="SvgjsFeImage6093" cellheight="50" cellwidth="2" dx="4" dy="50" filtername="feImage" href="#tGLVnRYU" patterntype="grid" result="KhM0O3" rotation="305" sx="0" sy="0" type="turbulence" unitrot="0" unittype="square"><animate id="SvgjsAnimate6094" attributeName="sx" dur="0.6" values="6;1" attributeType="XML" repeatCount="indefinite"/></feImage><feTurbulence id="SvgjsFeTurbulence6095" baseFrequency="0.082 0.084" filtername="feTurbulence" numOctaves="1" result="wBA2q5" seed="0" stitchTiles="noStitch" type="fractalNoise"/><feDisplacementMap id="SvgjsFeDisplacementMap6096" filtername="feDisplacementMap" in="KhM0O3" in2="wBA2q5" result="5B25BU" scale="2" xChannelSelector="R" yChannelSelector="G"/><feComposite id="SvgjsFeComposite6097" filtername="feComposite" in="SourceGraphic" in2="5B25BU" operator="in" result="gbkoT2"/></filter><g id="[[filtered.ink-color-palette-data]]"><g id="0-0-none"/><g id="0-1-none"/><g id="0-2-none"/><g id="1-0-none"/><g id="1-1-none"/><g id="1-2-none"/><g id="2-0-none"/><g id="2-1-none"/><g id="2-2-none"/><g id="3-0-none"/><g id="3-1-none"/><g id="3-2-none"/><g id="4-0-none"/><g id="4-1-none"/><g id="4-2-none"/><g id="5-0-none"/><g id="5-1-none"/><g id="5-2-none"/><g id="6-0-none"/><g id="6-1-none"/><g id="6-2-none"/><g id="7-0-none"/><g id="7-1-none"/><g id="7-2-none"/><g id="8-0-none"/><g id="8-1-none"/><g id="8-2-none"/><g id="9-0-none"/><g id="9-1-none"/><g id="9-2-none"/></g><g id="[[filtered.ink-waypoint-data]]"/></svg>