<svg id="main-canvas" width="1209" height="691" xmlns="http://www.w3.org/2000/svg" version="1.1" xmlnsXlink="http://www.w3.org/1999/xlink" xmlnsSvgjs="http://svgjs.com/svgjs" viewBox="0 0 1209 691"><defs id="SvgjsDefs1002"><pattern width="0.00818816785493107" height="0.00818816785493107" id="7PXUQNVd_0" viewBox="0 0 14 14"><ellipse cx="7" cy="7" rx="3.5" transform-origin="7 7" transform="scale(0.7142857142857143 0.7142857142857143) rotate(0)" fill="black"><animateTransform attributeName="transform" attributeType="XML" type="scale" additive="sum" values="0.42857142857142855 0.42857142857142855 ;1.1428571428571428 1.1428571428571428 ;0.42857142857142855 0.42857142857142855 " dur="1" repeatCount="indefinite"/></ellipse></pattern><g width="1709.784196909072" height="1709.784196909072" id="7PXUQNVd" transform="rotate(15 604.5 345.5)"><path d="M 0 0,l 1709.784196909072 0,l 0 1709.784196909072,l -1709.784196909072 0,l 0 -1709.784196909072" fill="url(#7PXUQNVd_0)" transform="translate(-250.39209845453604 -509.39209845453604)"/></g><pattern width="0.00818816785493107" height="0.00818816785493107" id="rhyFH3x0_0" viewBox="0 0 14 14"><ellipse cx="7" cy="7" rx="3.5" transform-origin="7 7" transform="scale(0.7142857142857143 0.7142857142857143) rotate(0)" fill="black"><animateTransform attributeName="transform" attributeType="XML" type="scale" additive="sum" values="0.42857142857142855 0.42857142857142855 ;0.8571428571428571 0.8571428571428571 ;0.42857142857142855 0.42857142857142855 " dur="1" repeatCount="indefinite"/></ellipse></pattern><g width="1709.784196909072" height="1709.784196909072" id="rhyFH3x0" transform="rotate(15 604.5 345.5)"><path d="M 0 0,l 1709.784196909072 0,l 0 1709.784196909072,l -1709.784196909072 0,l 0 -1709.784196909072" fill="url(#rhyFH3x0_0)" transform="translate(-243.39209845453604 -502.39209845453604)"/></g><pattern width="0.010527644384911376" height="0.011112513517406454" id="vhGSOiZu_0" viewBox="0 0 18 19"><path d="&#10;            M9 7.125,&#10;            L12.897114317029974 14.25,&#10;            L5.102885682970026 14.25,&#10;            L9 7.125,&#10;        " transform-origin="9 9.5" transform="scale(2.6666666666666665 2.6315789473684212) rotate(undefined)" fill="black"><animateTransform attributeName="transform" attributeType="XML" type="scale" additive="sum" values="0.1111111111111111 2.6315789473684212;3.2222222222222223 2.6315789473684212;0.1111111111111111 2.6315789473684212" dur="7.9" repeatCount="indefinite"/></path></pattern><g width="1709.784196909072" height="1709.784196909072" id="vhGSOiZu" transform="rotate(200 604.5 345.5)"><path d="M 0 0,l 1709.784196909072 0,l 0 1709.784196909072,l -1709.784196909072 0,l 0 -1709.784196909072" fill="url(#vhGSOiZu_0)" transform="translate(-250.39209845453604 -509.39209845453604)"/></g><pattern width="0.01696120484235722" height="0.022225027034812907" id="lkPaHDQX_0" viewBox="0 0 29 38"><path d="&#10;            M14.5 14.25,&#10;            L20.778684177437178 28.5,&#10;            L8.22131582256282 28.5,&#10;            L14.5 14.25,&#10;        " transform-origin="14.5 19" transform="scale(1.6551724137931034 1.3157894736842106) rotate(undefined)" fill="black"/></pattern><g width="1709.784196909072" height="1709.784196909072" id="lkPaHDQX" transform="rotate(240 604.5 345.5)"><path d="M 0 0,l 1709.784196909072 0,l 0 1709.784196909072,l -1709.784196909072 0,l 0 -1709.784196909072" fill="url(#lkPaHDQX_0)" transform="translate(-234.39209845453604 -489.39209845453604)"/></g><pattern width="0.003509214794970459" height="0.029243456624753823" id="G79Oyy0V_0" viewBox="0 0 6 50"><rect x="1.5" y="12.5" width="3" height="25" transform-origin="3 25" transform="scale(0.3333333333333333 2) rotate(0)" fill="black"/></pattern><g width="1709.784196909072" height="1709.784196909072" id="G79Oyy0V" transform="rotate(115 604.5 345.5)"><path d="M 0 0,l 1709.784196909072 0,l 0 1709.784196909072,l -1709.784196909072 0,l 0 -1709.784196909072" fill="url(#G79Oyy0V_0)" transform="translate(-250.39209845453604 -509.39209845453604)"><animateTransform attributeName="transform" attributeType="XML" type="translate" values="-249.39209845453604 -509.39209845453604;-246.39209845453604 -509.39209845453604;-249.39209845453604 -509.39209845453604" dur="0.5" repeatCount="indefinite"/></path></g><pattern width="0.003509214794970459" height="0.029243456624753823" id="YgXjnwUC_0" viewBox="0 0 6 50"><rect x="1.5" y="12.5" width="3" height="25" transform-origin="3 25" transform="scale(0.3333333333333333 2) rotate(0)" fill="black"/></pattern><g width="1709.784196909072" height="1709.784196909072" id="YgXjnwUC" transform="rotate(70 604.5 345.5)"><path d="M 0 0,l 1709.784196909072 0,l 0 1709.784196909072,l -1709.784196909072 0,l 0 -1709.784196909072" fill="url(#YgXjnwUC_0)" transform="translate(-250.39209845453604 -509.39209845453604)"/></g><pattern width="0.002339476529980306" height="0.029243456624753823" id="tGLVnRYU_0" viewBox="0 0 4 50"><rect x="1" y="12.5" width="2" height="25" transform-origin="2 25" transform="scale(1 2) rotate(0)" fill="black"/></pattern><g width="1709.784196909072" height="1709.784196909072" id="tGLVnRYU" transform="rotate(305 604.5 345.5)"><path d="M 0 0,l 1709.784196909072 0,l 0 1709.784196909072,l -1709.784196909072 0,l 0 -1709.784196909072" fill="url(#tGLVnRYU_0)" transform="translate(-250.39209845453604 -509.39209845453604)"><animateTransform attributeName="transform" attributeType="XML" type="translate" values="-245.39209845453604 -509.39209845453604;-249.39209845453604 -509.39209845453604" dur="1" repeatCount="indefinite"/></path></g><pattern width="0.005848691324950765" height="0.005848691324950765" id="1bGD2van_0" viewBox="0 0 10 10"><ellipse cx="5" cy="5" rx="2.5" transform-origin="5 5" transform="scale(0.8 0.8) rotate(0)" fill="black"><animateTransform attributeName="transform" attributeType="XML" type="scale" additive="sum" values="0.6 0.6 ;0.2 0.2 ;0.6 0.6 " dur="2.2" repeatCount="indefinite"/></ellipse></pattern><g width="1709.784196909072" height="1709.784196909072" id="1bGD2van" transform="rotate(0 604.5 345.5)"><path d="M 0 0,l 1709.784196909072 0,l 0 1709.784196909072,l -1709.784196909072 0,l 0 -1709.784196909072" fill="url(#1bGD2van_0)" transform="translate(-230.39209845453604 -489.39209845453604)"/></g><pattern width="0.005848691324950765" height="0.005848691324950765" id="mEb90HXk_0" viewBox="0 0 10 10"><ellipse cx="5" cy="5" rx="2.5" transform-origin="5 5" transform="scale(0.8 0.8) rotate(0)" fill="black"><animateTransform attributeName="transform" attributeType="XML" type="scale" additive="sum" values="0.2 0.2 ;0.6 0.6 ;0.2 0.2 " dur="2.2" repeatCount="indefinite"/></ellipse></pattern><g width="1709.784196909072" height="1709.784196909072" id="mEb90HXk" transform="rotate(0 604.5 345.5)"><path d="M 0 0,l 1709.784196909072 0,l 0 1709.784196909072,l -1709.784196909072 0,l 0 -1709.784196909072" fill="url(#mEb90HXk_0)" transform="translate(-245.39209845453604 -504.39209845453604)"/></g><pattern width="0.005848691324950765" height="0.005848691324950765" id="1bGD2van-preview_0" viewBox="0 0 10 10"><ellipse cx="5" cy="5" rx="2.5" transform-origin="5 5" transform="scale(0.8 0.8) rotate(0)" fill="black"><animateTransform attributeName="transform" attributeType="XML" type="scale" additive="sum" values="0.8 0.8 ;0.2 0.2 ;0.8 0.8 " dur="1" repeatCount="indefinite"/></ellipse></pattern><g width="1709.784196909072" height="1709.784196909072" id="1bGD2van-preview" transform="rotate(0 604.5 345.5)"><path d="M 0 0,l 1709.784196909072 0,l 0 1709.784196909072,l -1709.784196909072 0,l 0 -1709.784196909072" fill="url(#1bGD2van-preview_0)" transform="translate(-230.39209845453604 -489.39209845453604)"/></g><pattern width="0.005848691324950765" height="0.005848691324950765" id="mEb90HXk-preview_0" viewBox="0 0 10 10"><ellipse cx="5" cy="5" rx="2.5" transform-origin="5 5" transform="scale(0.8 0.8) rotate(0)" fill="black"><animateTransform attributeName="transform" attributeType="XML" type="scale" additive="sum" values="0.2 0.2 ;0.8 0.8 ;0.2 0.2 " dur="1" repeatCount="indefinite"/></ellipse></pattern><g width="1709.784196909072" height="1709.784196909072" id="mEb90HXk-preview" transform="rotate(0 604.5 345.5)"><path d="M 0 0,l 1709.784196909072 0,l 0 1709.784196909072,l -1709.784196909072 0,l 0 -1709.784196909072" fill="url(#mEb90HXk-preview_0)" transform="translate(-245.39209845453604 -504.39209845453604)"/></g></defs><g id="sketchGroup" transform="matrix(1,0,0,1,604.5,345.5)"><polyline id="SvgjsPolyline1119" points="-498.5,-251.3 -494,-152.2 -483.5,42.5 -480.7,76.6 -479.3,85.1 -478,88.2 -474.4,89.1 -440.7,83.1 -420.9,81.5 -399.2,81.2 -336.9,82.3 -284.2,79 -260.6,75.4 -219.5,66.3 -171.6,57.4 -142.5,53.5 -123.3,53.1 -126,-9.1 -128.7,-45.1 -134,-99 -140.9,-159 -143.9,-211.1 -148.7,-262.9 -149.8,-271 -151,-272.7 -170.7,-270.9 -220.3,-274.3 -241,-274.3 -342,-268.2 -425.9,-267.6 -468.5,-265 -482.8,-262.4 -491.6,-259.9 -494.9,-231.3" fill-opacity="1" fill="#5c9519" filter="url(#pen-wiggly)"/><polyline id="SvgjsPolyline1139" points="-486.9,-119.2 -485.9,-30.6 -482.6,-0.3 -476.2,36.6 -470.9,58.5 -462,81.6 -458,89.2 -456.1,90.9 -450.3,91.2 -442,90.3 -395.4,80.1 -260.1,60.6 -220.5,56.7 -173.1,54.9 -152.3,53.4 -131.7,53.1 -128.2,52.7 -126.3,51 -125.4,40.4 -125.3,23.6 -130.4,-23.1 -133.6,-74.8 -135.1,-86.6 -138.6,-103.5 -139.9,-108.2 -141.4,-109.7 -145.1,-110.1 -151.4,-108.6 -180.6,-98.8 -193.1,-93.7 -240.3,-65.3 -252.3,-59.7 -290.5,-47.6 -301.8,-45.8 -313.3,-45.2 -323.6,-46.7 -338.3,-53.3 -351.3,-62.6 -370.4,-80.5 -380,-88.6 -406.4,-105.1 -414.9,-109 -429.6,-113 -441.7,-114.6 -470.3,-114.6 -483,-112.6 -486.2,-113.5" fill-opacity="1" fill="#2ccad0" filter="url(#pen-wiggly)"/><polyline id="SvgjsPolyline1149" points="-486.4,-131.4 -487.4,-124 -487.2,-108.7 -484.5,-98.9 -482.9,-95.2 -481.1,-93.2 -475.9,-92.4 -453.6,-98.7 -435.5,-100.8 -422.6,-100.2 -409.5,-96.9 -397.1,-91.8 -374.9,-78.3 -366,-71.2 -345.9,-51.3 -337.5,-45.1 -331.1,-41.9 -323.4,-39.5 -309.2,-37.5 -284.2,-37.3 -265,-39.2 -245.8,-42.9 -217.9,-51.4 -206.1,-57 -200.2,-61.2 -177.6,-82.4 -164.3,-93.6 -154.2,-99.3 -148.3,-101.6 -137.8,-101.9 -136,-107 -135.5,-112.7 -138.6,-118.7 -142.3,-124.8 -146.9,-129.8 -152.6,-133.3 -159.5,-135.3 -167.7,-135.8 -172.1,-135.4 -181,-132.4 -190.8,-126.1 -237.6,-87.4 -246.4,-80.7 -255.3,-75.2 -265.5,-71.2 -270.9,-69.8 -282.8,-68.3 -294.6,-68.2 -306.1,-70.6 -316.9,-75.2 -350.5,-95.6 -378.9,-114 -390.7,-119.4 -426.8,-127.2 -442.2,-128.4 -447.6,-127.8 -452.1,-126.3 -460.1,-120.2 -465.5,-117.5 -476.7,-116.9 -482.7,-120.1 -490.1,-129.1 -493.9,-131.8" fill-opacity="1" fill="#8afaff" filter="url(#pen-wiggly)"/><polyline id="SvgjsPolyline1154" points="-485.8,-241.2 -483,-177.7 -477.9,-132.3 -475.6,-121.6 -472.8,-113.8 -471.7,-112.4 -466.3,-112.4 -461.3,-114.4 -458.9,-117 -457.8,-124 -457.8,-133.2 -460.3,-172.9 -464.5,-210 -468.7,-227.7 -473.2,-237.2 -479.4,-240.9 -483,-241.1 -484.4,-240.2 -486.7,-235.3 -491,-219.9" fill-opacity="1" fill="#9ce69a" filter="url(#pen-wiggly)"/><polyline id="SvgjsPolyline1159" points="-191.9,-236.3 -187.9,-217.2 -182.7,-185.1 -174.3,-118.7 -166,-63.6 -163.6,-41.1 -159.9,7 -158.7,45.6 -158.7,69.3 -159.7,70.4 -163.1,71.3 -167.2,71.3 -169.7,69.3 -171.8,64 -173.2,56.3 -185.8,-40 -191.1,-104.4 -197.3,-150.1 -202.3,-195.3 -206.9,-226.1 -207.8,-238.1 -207.3,-241.3 -205.6,-242.3 -201.2,-242.8 -197.5,-241.1 -193.9,-235 -191.8,-228.1" fill-opacity="1" fill="#9ce69a" filter="url(#pen-wiggly)"/><polyline id="SvgjsPolyline1164" points="-274.3,-307.6 -274.3,-308.2 -269.8,-269.9 -267.7,-240.6 -266.4,-190.2 -266.4,-113.4 -264.7,-95.8 -259.2,-61.8 -256.5,-48.1 -255.6,-46.1 -254.4,-45.8 -251.5,-47.5 -249.7,-50.3 -248.8,-54.3 -248.5,-63.4 -249.5,-97.4 -253.2,-153.4 -253.7,-208.8 -256,-265.9 -260.8,-296.3 -264,-305.6 -266.8,-307.4 -268.8,-306.9 -279.9,-299.3" fill-opacity="1" fill="#9ce69a" filter="url(#pen-wiggly)"/><polyline id="SvgjsPolyline1194" points="-487.2,-111 -484.2,-65.2 -480,-32.2 -477,-17.4 -464.7,33 -455.7,92 -453.5,93.6 -449.6,94.4 -420.8,95.6 -405.1,98.2 -404.5,97.7 -404.3,94 -405.4,84.5 -408.2,81.3 -420.6,73 -429,62.8 -439,44.2 -451.8,15.5 -456.9,-0.4 -462.8,-34.6 -468,-59.6 -468.7,-71.5 -468.3,-97.6 -469.9,-116.2 -471.8,-128.5 -479.9,-158.4 -482.3,-172.1 -483.6,-230.3 -481.4,-239.8 -475.1,-246.8 -466.4,-252 -453.8,-255.9 -451.7,-257.7 -451.9,-260.7 -454.1,-262.7 -458.6,-264.6 -463.4,-265.5 -468.7,-265.1 -474.3,-262.9 -482.7,-257.9 -487.4,-253.5 -490.1,-249.6 -493.4,-241.7 -495.7,-228 -496.8,-204 -496.5,-177.2 -493.9,-159.8 -488.5,-132.3 -480.9,-56.2" fill-opacity="1" fill="#f6f222" filter="url(#screentone-medium-pulsing)"/><polyline id="SvgjsPolyline1214" points="-154.9,-269.3 -147,-242.5 -143.3,-224.9 -142,-214.2 -137.2,-127.1 -131.3,-68.7 -124.2,-27.1 -122.7,-13.2 -121.2,50.1 -122,53.8 -125.1,58 -130.7,63.1 -136.9,66.5 -144.6,68.6 -161.5,71.4 -175.6,72.2 -182.5,70.4 -184,68.8 -182.9,67.1 -176.9,62.1 -155.2,52.8 -148.5,48.5 -142.7,41.1 -141.2,36.4 -140.5,30.3 -140.4,20.1 -142.3,3.2 -151.4,-44.5 -159.3,-95.6 -164.3,-166.1 -164.6,-183.4 -158.2,-230.3 -158.1,-236.8 -161.4,-249.1 -166,-261 -170.5,-268 -174.3,-271.3 -182.4,-275.7 -192.7,-278 -199.9,-277.1 -215.8,-276.1 -217.9,-276.6 -220.6,-279.4 -221,-281.2 -220.3,-283.3 -215.9,-287.1 -208.9,-289.7 -187.3,-293.2 -173.2,-294 -165.6,-292.6 -159.8,-292.4 -155,-289.9 -150.5,-284.6 -148.2,-280.1 -142.5,-259.9 -141.9,-241.6 -143,-223.2" fill-opacity="1" fill="#f6f222" filter="url(#screentone-medium-pulsing)"/><polyline id="SvgjsPolyline1247" points="-487.6,-130.6 -486.8,-112.8 -483.2,-93 -478.4,-78.4 -475,-70.8 -467.3,-57.3 -456.5,-45.5 -450.6,-40.4 -439,-32.1 -425.7,-25.9 -410.6,-21.4 -393.8,-18.4 -370.9,-15.8 -332.2,-14.8 -323.8,-15.9 -305,-21.7 -295.1,-23.7 -279.3,-25.3 -262.3,-25.6 -250.7,-24.3 -228.9,-19.3 -207.3,-15.7 -191.6,-14.4 -176.6,-14.3 -161.9,-16.5 -149.1,-21.5 -145.7,-23.9 -140.5,-29.7 -138.7,-32.9 -136.3,-40.8 -134.9,-52.7 -134.8,-67.1 -138,-98.7 -139.5,-106.4 -143.8,-115 -149.5,-122.1 -156.1,-127.3 -163.4,-130.1 -168.6,-130.4 -171.5,-129.7 -179.7,-124.9 -209.3,-90.5 -218.8,-81.1 -228.8,-73.4 -239.7,-67.7 -248.3,-64.3 -262.3,-61.5 -290,-60.7 -303.8,-62.3 -315.6,-65.3 -331.2,-72.2 -367.6,-93.3 -382.1,-100.5 -392.8,-104.6 -416.7,-110.2 -431.2,-111.9 -452,-112.3 -470,-104 -477.7,-101.9" fill-opacity="1" fill="#affffa" filter="url(#sandy-curls-pulsing)"/><polyline id="SvgjsPolyline1271" points="-482.4,-1.3 -482.8,22.6 -480.5,52.2 -477.1,70.1 -469.7,93.3 -464.2,103.8 -456.6,111.2 -446.7,116.5 -436,119.6 -429.8,120.5 -416.1,121.1 -409,120.5 -394.2,117.5 -374.1,111.2 -324.3,92.4 -308.5,88.6 -292.5,86.6 -264.5,86.2 -243.4,88.5 -225.7,92.1 -194.6,100.8 -175.8,104.2 -163.2,104.3 -152.6,102.4 -148.6,100.8 -145.2,98.3 -142.6,95.1 -138.5,86.8 -128.9,56.9 -126.7,46.4 -125.8,37.4 -127.4,6.8 -129.8,-9.4 -132.1,-17.7 -134.6,-23 -136.7,-25.2 -140.1,-26.3 -147.6,-24.7 -154.3,-21.2 -199.2,11.2 -211.4,18.8 -224.7,25.9 -245.7,34.9 -260.7,38.9 -276,41.5 -300.4,43.3 -323.8,43.4 -338.6,42.1 -358.2,37.6 -369.6,33.3 -380.2,27.9 -415.5,6.4 -440.1,-7.1 -455.9,-13.3 -466.9,-15.7 -474.2,-15.5 -480.2,-13.7 -482.3,-11.7 -484.8,-6.9 -485.8,2.2 -483.8,25.1" fill-opacity="1" fill="#5a5dbe" filter="url(#splotchy-flickering)"/><polyline id="SvgjsPolyline1295" points="-492.4,-247.2 -486.4,-250.6 -477.5,-254.3 -459.5,-259.2 -406.9,-269.5 -377.8,-273.1 -307.3,-278.7 -278.1,-279.8 -233.3,-277.8 -202.7,-277.5 -189.7,-275.6 -174.8,-270.4 -163.8,-263.9 -156.2,-255.4 -151.1,-245.8 -146.2,-229.9 -144.8,-220.6 -143.6,-166.2 -144.4,-163.9 -148.2,-159.2 -154.1,-155.3 -165.1,-152.3 -175.5,-151.7 -205.1,-155 -250.5,-154.4 -291.4,-158.6 -336.1,-161 -345.3,-162.6 -377.8,-171.3 -421.9,-177.9 -462.5,-179 -469.6,-178.4 -481.5,-175.5 -485.5,-175.5 -490,-179.1 -493.6,-185.5 -495.8,-192.6 -496.9,-201.9 -496.7,-228.1 -494.9,-239.6 -490.8,-256.5" fill-opacity="1" fill="#f5a623" filter="url(#splotchy-flickering)"/><polyline id="SvgjsPolyline1307" points="-490.8,-194.6 -489.4,-196.3 -483.4,-199 -470.5,-201.8 -367.4,-216.6 -312.9,-223.4 -281.2,-225.9 -267.7,-226 -243.2,-224 -223.3,-220.1 -199.3,-213.2 -183.5,-206.9 -174.8,-201.6 -163.5,-192.8 -149.5,-178.1 -145.3,-172.2 -142.1,-165.4 -139.5,-153.4 -139.1,-140 -141.3,-113 -149.9,-108.6 -194.9,-90.2 -207.5,-84.3 -267.3,-51.3 -278.1,-48.3 -288.9,-46.9 -301.2,-46.5 -309.8,-47.5 -318.8,-50.3 -328.5,-55.1 -340.3,-62.1 -372.9,-83.8 -385.9,-90.7 -393.7,-93.6 -431.1,-101 -445.6,-102.7 -455.2,-102.4 -473.9,-98.8 -476.9,-103.4 -483.1,-132 -490.2,-149.1 -495,-164.5 -498,-170.4 -497.4,-173.3" fill-opacity="1" fill="#d0021b" filter="url(#splotchy-flickering)"/><polyline id="SvgjsPolyline1322" points="15.2,-188.4 14.3,-168 6.6,-127.9 1.2,-105.9 -24.5,-15.4 -32.6,25.7 -35.4,48.9 -35.8,68 -33.7,83.8 -30.2,96 -25.8,105.5 -18.3,116.5 -11,122.2 -1.4,125.7 22.5,127.5 46.7,127 90.7,123.5 112.7,122.5 120.3,121.7 126.9,120 130.1,118.5 136.4,113 142.3,104.2 144.7,99.2 148.7,84 149.5,73 149.2,61.9 147,49.4 141.6,28.7 122.9,-33.5 105.3,-84.8 85.6,-132.3 75.7,-159.6 69.7,-171.5 62.5,-182 54.7,-189.1 46.2,-193.8 41.8,-195.2 37.9,-195.2 25.4,-190.5 18,-188.8 14.8,-187.1 14.6,-187.6" fill-opacity="1" fill="#fbec8f" filter="url(#pen-wiggly)"/><polyline id="SvgjsPolyline1347" points="5.5,-224.9 5.7,-213.9 8.2,-198.8 12.3,-185.6 17,-177.8 30.3,-177.5 47.8,-179.5 61.5,-180.1 63.8,-180.8 67,-191.1 69.1,-205.9 69.1,-216.8 66.3,-238 56.2,-240.8 39.9,-241.9 26.5,-241 9.7,-238.3 6.3,-236 4.9,-231.9 7.5,-219.9" fill-opacity="1" fill="#ed4b4b" filter="url(#pen-wiggly)"/><polyline id="SvgjsPolyline1354" points="45.2,116.7 46.7,117 47.9,115.6 46.5,117.4 47.1,115.9 48.7,115.7 49.6,117.8 48.3,118.8 46.5,117.4 48.3,118.8 47.4,118.8 46.7,117.3 45.3,116.8" fill-opacity="1" fill="#ff9a9a" filter="url(#crosshatching-sideshuffle)"/><polyline id="SvgjsPolyline1368" points="109.5,-71.2 119,-46.7 144.8,8.7 154.3,39.7 156.9,60.3 156.8,87.3 153.4,104.6 148,116.1 141.4,123.8 128.6,131.6 113.9,137.1 97.2,139.2 73.9,139.4 -5.4,134.8 -10.3,133.7 -16.2,131 -20.4,125.9 -21.7,121.6 -21.6,120 -19.5,117 -14.9,115 -2.6,113.7 39.4,112.4 61.6,109.1 74.3,105.4 82.6,100.8 90.9,93.6 98.1,84.8 103.8,75.5 108.3,65.4 112.9,49.9 113.8,43.4 113.9,30 108.2,-34 103.2,-70.5 98.5,-88.6" fill-opacity="1" fill="#ff9a9a" filter="url(#crosshatching-sideshuffle)"/><polyline id="SvgjsPolyline1375" points="23.3,-173.1 -2.8,-93 -12.9,-49.8 -13.7,-41.4 -12.3,-40.2 -7.9,-40.6 -0.6,-44.5 25.1,-64.2 29.8,-67 31.2,-68.7 32.4,-75.2 32.5,-94.4 33.6,-107 39.1,-132 42.1,-140.1 45.9,-142.8 51.2,-144.8 62.3,-145.6 69.2,-142.5 82.8,-132.7 84.1,-133.3 83.6,-145.9 79.1,-162.5 74.1,-172.7 71.5,-176 69.2,-177.2 59.9,-177.5 40.7,-174.9 15.5,-172.8 13.6,-167 10,-146.5" fill-opacity="1" fill="#ff9a9a" filter="url(#crosshatching-sideshuffle)"/><polyline id="SvgjsPolyline1385" points="63.3,20.4 63.3,22.3 61.6,23.2 60,22.2 61.1,20.3 61.7,19.4 63.3,20.4 62.6,23 59.1,24.5 56.2,25.2 44.7,25.6 31.6,23.5 19.3,18.2 9.1,8.5 5.4,3.2 2.6,-1.7 -0.8,-12.8 -2.1,-24.7 -1.8,-36.4 0.1,-47.1 5.2,-61.7 12.7,-74.1 19.7,-81.3 27.2,-87 31.2,-88.9 39.2,-91.2 46.6,-92.1 57.9,-90 67.6,-85.2 77.2,-77.9 89.6,-64.4 96.7,-54.2 100.3,-47.3 104,-33.8 105.3,-20.5 105.2,-4.6 103.4,6 99.7,14 94.7,19.3 85.2,24.2 75,26.7 68.8,26.9 66.9,26.3 67.1,24.2 68.9,24.9 67.4,24.5 67.5,22.2 69,21.8 70.1,23.8 68.9,24.9 70.5,21.5 68.7,20.9 78.5,20.1 86.4,17.4 94,12.3 97.1,6.9 99.6,-5.1 99.5,-24.5 97.8,-37.2 93.7,-48.6 85.4,-61 73.6,-74 61.8,-82.6 53.1,-86.1 43.7,-86.7 33.1,-84.2 26.5,-80.3 16.7,-71 12,-63.9 7.8,-55.1 3.8,-40.9 2.8,-30.7 3.2,-19.5 4,-13.7 7,-3.7 12.8,5.6 16.9,10.1 21.9,14.3 27.1,17 32.9,19.1 45,21.1 55.6,21 60.8,19.7" fill-opacity="1" fill="#fdfff0" filter="url(#pen-wiggly)"/><polyline id="SvgjsPolyline1390" points="34.1,-58.8 33.1,-58.8 31.6,-60.1 31.6,-61.1 33,-62.5 34.9,-62.1 35.4,-60.2 34.1,-58.8 31.6,-60.1 35.2,-60.4 35.6,-61.7 36.8,-58.1 38,-49.8 36,-51 38,-49.8 36.8,-47.9 34.8,-49.1 36,-51 34.8,-49.1 33.4,-52 31.2,-60.2 31.2,-62.6 35.4,-61.8 35.4,-61.2" fill-opacity="1" fill="#fdfff0" filter="url(#pen-wiggly)"/><polyline id="SvgjsPolyline1395" points="45,-67.5 47.1,-66.8 47.6,-64.6 45.9,-63.1 43.8,-63.8 43.3,-66 45,-67.5 47.7,-65.8 48.5,-63 49.7,-53.4 47.9,-54.7 49.7,-53.4 48.4,-51.5 46.6,-52.8 47.9,-54.7 46.6,-52.8 43.2,-64.8" fill-opacity="1" fill="#fdfff0" filter="url(#pen-wiggly)"/><polyline id="SvgjsPolyline1400" points="17.2,-28.6 17.3,-30.8 19.4,-31.8 21.2,-30.5 21.1,-28.3 19,-27.3 17.2,-28.6 18.7,-32 39,-39.7 67.6,-47.6 66.6,-45.6 67.6,-47.6 69.6,-46.6 68.6,-44.6 66.6,-45.6 68.6,-44.6 57.1,-39.9 20.2,-27.5" fill-opacity="1" fill="#fdfff0" filter="url(#pen-wiggly)"/><polyline id="SvgjsPolyline1405" points="19.4,-54.5 21.5,-54 22.2,-52 20.8,-50.3 18.7,-50.8 18,-51.7 19.4,-53.8 19.4,-54.5 22.2,-53.1 29.6,-36.4 37.5,-25.3 45.5,-16.1 52.8,-12.6 58,-13.4 60.7,-21.6 61.4,-34.5 61.2,-47 58.7,-64.2 60.5,-62.9 59,-63.5 59.7,-65 60,-66.1 61.5,-65.5 61.7,-63.9 60.5,-62.9 61.8,-64.7 66,-34.6 66.7,-20.6 61.2,-9.5 52.2,-7.6 42.5,-12.1 33.7,-22.3 25.5,-34 18,-51.7" fill-opacity="1" fill="#fdfff0" filter="url(#pen-wiggly)"/><polyline id="SvgjsPolyline1410" points="36.6,-32.3 38.9,-31 38.5,-29.2 36.7,-28.7 35.3,-29.9 36.6,-32.3 41.5,-29 44.5,-27.7 51.4,-34 56.8,-33.3 59.2,-35.4 62,-40 64.8,-40.6 66.8,-37.9 67.8,-34.7 69.5,-27 69.9,-20.7 68,-22 69.5,-21.5 69.8,-19.9 68.6,-18.9 67.1,-19.4 66.8,-21 68,-22 66.7,-20.2 64.8,-26 62.2,-36.1 65.1,-36.4 62.8,-32.4 59.1,-29.2 56.3,-28.3 52.2,-29.5 46.1,-24.6 42.8,-24 39.6,-25.2 37.2,-26.7 35.3,-29.9" fill-opacity="1" fill="#fdfff0" filter="url(#pen-wiggly)"/><polyline id="SvgjsPolyline1415" points="77.7,-56.1 78.9,-56.1 80.5,-54.6 80,-52.4 77.9,-51.8 76.3,-53.3 76.8,-55.5 77.7,-56.1 80.5,-54.6 80.8,-51.4 78.8,-52.5 80.4,-52.1 80.4,-49.8 78.1,-49.8 77.7,-51.4 78.8,-52.5 77.7,-50.5 76.3,-53.3" fill-opacity="1" fill="#fdfff0" filter="url(#pen-wiggly)"/><polyline id="SvgjsPolyline1420" points="12.5,-28.8 14,-27.3 13.4,-25.3 11.4,-24.7 9.9,-26.2 9.9,-27.3 11.4,-28.8 12.5,-28.8 14,-26.2 15,-19.1 12.3,-20.6 14,-19.1 12.5,-17.4 10.8,-18.9 12.3,-20.6 10.8,-18.9 9.5,-25.8 9.9,-27.3" fill-opacity="1" fill="#fdfff0" filter="url(#pen-wiggly)"/><polyline id="SvgjsPolyline1425" points="55.6,-2.7 56.3,-3.5 58.3,-3.6 59.4,-1.8 58.5,0 56.5,1.1 55.3,-1.6 55.6,-2.7 62.8,-3.9 68,-6.3 77,-11.5 81.4,-15.6 81.4,-13.3 81,-14.8 82.1,-16 84.1,-14.8 83.6,-13.3 81.4,-13.3 83.6,-13.3 81.8,-11.5 75.4,-5.5 70.2,-2 64.2,0.6 58.6,1.3 56.5,0.1" fill-opacity="1" fill="#fdfff0" filter="url(#pen-wiggly)"/><polyline id="SvgjsPolyline1440" points="-12.7,56.3 -12.9,55 -11.9,54.3 -10.7,54.8 -11,56.5 -12.7,56.3 -12.5,54.5 -5.5,50.5 4.6,47.4 4.1,48.4 4.3,47.6 5.6,47.9 5.4,48.7 4.1,48.4 5.1,48.9 -11,56.5" fill-opacity="1" fill="#ff3e3e" filter="url(#pen-wiggly)"/><polyline id="SvgjsPolyline1445" points="-11,64.7 -11.6,66.4 -12.9,66.3 -13.4,65.1 -12.7,64.1 -11.4,64.2 -11.6,66.4 -13.8,65.4 -11.5,63.2 -4.8,59.8 4.9,56 4.5,57.1 5.3,55.9 5.9,56.3 5.9,57.1 4.5,57.1 5.6,57.4 -10.1,65.7 -12.7,64.1" fill-opacity="1" fill="#ff3e3e" filter="url(#pen-wiggly)"/><polyline id="SvgjsPolyline1450" points="-5.9,45.4 -5.3,46.2 -5.8,47.2 -6.8,47.3 -7.4,46.4 -7,45.5 -5.9,45.4 -0.1,65.6 5.2,80.2 3.9,81.1 4.6,82.2 3.9,81 5.3,82 4.3,83.3 2.9,81.5 -1,71.6 -7.1,49.8 -7.3,45.9" fill-opacity="1" fill="#ff3e3e" filter="url(#pen-wiggly)"/><polyline id="SvgjsPolyline1455" points="12.4,53.1 11.5,52.6 11.6,51.6 12.5,51.1 13.3,51.6 13.3,52.7 12.4,53.1 11.4,51.2 12.9,47.6 16.6,44.5 19,44.2 21,46.5 22.8,53.3 23.6,63.3 22.8,65 22.3,64.2 22.3,65.6 21.1,64.9 22.3,64.2 21.2,64.5 20.3,53.7 18.2,46.4 14.7,49 13.4,52.2" fill-opacity="1" fill="#ff3e3e" filter="url(#pen-wiggly)"/><polyline id="SvgjsPolyline1460" points="10.5,69.9 10.4,68.6 11.4,67.9 12.6,68.4 12.3,70.2 10.5,69.9 10.8,68.1 12.6,67.5 30.4,63.2 30,64.2 31.1,63.4 31.4,63.6 30.6,64.7 30,64.2 31,64.6 24,67.6 12.3,70.2" fill-opacity="1" fill="#ff3e3e" filter="url(#pen-wiggly)"/><polyline id="SvgjsPolyline1465" points="35.4,56.5 35.7,55.2 37,54.8 38,56.5 37.1,57.4 35.4,56.5 36.3,54.8 45.8,52 45.4,53.1 45.5,52.3 46.9,52.4 46.8,53.2 45.4,53.1 46.5,53.5 42.2,55.8 37.1,57.4" fill-opacity="1" fill="#ff3e3e" filter="url(#pen-wiggly)"/><polyline id="SvgjsPolyline1470" points="55,39.6 56,40.2 57,41.3 55,41.9 53.9,40.7 55,39.6 56.1,40.7 55.2,57.6 55.4,61.8 56.5,64.4 59,65.5 64.5,66 67.7,65.2 67.1,66.2 68.1,65.2 68.5,66.5 67.1,66.2 68.2,66.7 62,68.4 58.3,68.1 54.6,66.3 52.8,62.4 52.6,57.6 53.9,40.7" fill-opacity="1" fill="#ff3e3e" filter="url(#pen-wiggly)"/><polyline id="SvgjsPolyline1475" points="59.1,55.2 58,56.3 57,55.8 58,54.7 58.5,54.2 59.1,55.2 58,56.3 56.6,55.2 58.2,53.7 68.2,50.1 68,51.2 68.6,50 69.3,51.3 69.4,51.1 68,51.2 69.1,51.4 65.6,54.1 60.7,55.9 59,56.3 60.2,55.2 58,54.1" fill-opacity="1" fill="#ff3e3e" filter="url(#pen-wiggly)"/><polyline id="SvgjsPolyline1485" points="74.2,39.2 73.7,40.1 72.7,40.1 72.3,38.7 73.7,38.3 74.2,39.2 71.4,41.6 70.9,43.5 71.5,45.1 73.3,46.1 74.7,44.8 75,42 72.6,41 73.1,40.2 71.8,40.7 71.5,40 72,39.4 73.1,40.2 72.4,39.3 74.3,39.1 76.1,39.6 77.4,41.1 77.3,44.8 74.8,48.2 72,48.3 69.6,46.6 68.5,43.6 70.2,39.4 73.2,38.2" fill-opacity="1" fill="#ff3e3e" filter="url(#pen-wiggly)"/><polyline id="SvgjsPolyline1490" points="11.3,-201.1 12.1,-200.7 11.3,-199.3 10.6,-200.7 11.3,-201.1 12.2,-200.2 11.7,-201.2 24.9,-202.8 42.2,-207.3 44.2,-206.9 47,-203.9 49.8,-193.5 51.5,-191.4 52.3,-192.4 53,-196.7 51,-206.7 52.4,-208.1 56.7,-210.8 62.3,-212.7 61.9,-211.7 62,-212.5 63.3,-212.4 62.6,-211.2 61.9,-211.7 63,-211.3 54.2,-206.4 55.9,-196.6 55.1,-191.4 52.5,-188.4 49.1,-189.3 48,-190.7 45.1,-200.9 43,-204.3 20.9,-199.5 12.4,-198.8 10.4,-199.4 10.4,-200.2" fill-opacity="1" fill="#c42222" filter="url(#pen-wiggly)"/><polyline id="SvgjsPolyline1502" points="26.7,-171.3 27.7,-170.5 27.5,-169.2 25.6,-169 25.2,-170.3 26.7,-171.3 27.6,-168.9 17.4,-113.8 11.2,-85.7 7.3,-70.9 5,-69.4 4,-71.2 4.7,-76.2 17.4,-124.3 23.2,-151.7 24.2,-161.7 25.7,-160.9 27.4,-161.8 5.6,-70.3 -4.3,-36.3 -7.4,-20.8 -8.3,-17.7 -10.7,-17.7 -11.1,-21.5 -9.7,-29.2 -2,-64.6 8.6,-108.2 14.5,-140 14.9,-145.8 15.7,-145 15,-146.2 16.4,-146.2 15.7,-145 16.5,-145.8 16.3,-134.3 11.7,-107.5 1,-63.9 -7.9,-21.1 -8.4,-20 -10.4,-19 -7.4,-37 2.5,-71.1 21,-149.3 24.2,-162.2 26,-164.1 27.4,-161.5 26.8,-154.1 20.4,-123.6 9,-80.8 7.1,-71.2 6.2,-72.3 4.4,-71.9 13,-107.4 25.2,-170.3" fill-opacity="1" fill="#fcfae6" filter="url(#parallel-hatches-fine)"/><polyline id="SvgjsPolyline1509" points="64.3,-169.2 65.3,-168.6 65.3,-167.4 64.3,-166.8 63.2,-167.4 63.7,-169 65.5,-168 92.2,-96.5 119,-36.5 123.6,-18.9 125.7,-5.1 126.7,10.7 126.8,29.1 126,46.7 123.7,64.4 120.4,79.4 115.7,94 104.9,123.4 102.6,124.4 102,121.8 108.8,101.7 112,87.7 116.4,52.5 117.1,-0.4 114.6,-24.1 112.8,-32.6 113.8,-31.9 112.9,-33 113.5,-33.5 114.4,-32.5 113.8,-31.9 114.4,-32.9 118.1,-17.6 120.3,-0.7 119.8,48.9 117.8,70.3 115.1,88.3 111.8,102.6 105,122.7 103.9,121.6 102.2,121.9 115.5,85.3 119,71.9 121.8,55.6 123.5,37.8 123.8,19.3 123.2,3.1 121.7,-11.4 119.2,-24.5 116.1,-35.5 89.5,-95.4 64.7,-161.6 63.1,-168" fill-opacity="1" fill="#fcfae6" filter="url(#parallel-hatches-fine)"/><polyline id="SvgjsPolyline1551" points="-29.2,113.1 -58.1,122 -87,132 -116.9,145.3 -154.3,165.4 -194.6,191 -212.2,205.9 -219.1,214 -224.4,222.2 -226.4,226.2 -228,235.6 -226.6,243.5 -224.6,247.2 -219.4,253.4 -213.1,258.2 -201.5,262.9 -193.5,263.4 -186.5,260.9 -166,244.7 -159.8,241.2 -146.6,235.7 -129.7,232.4 -113.8,231.4 -105.7,231.8 -42.1,239.7 -8.7,242.5 8.3,242.3 23.4,240.4 31.4,238.6 48.7,232.8 80.5,219.7 90.7,214.2 104.2,204.7 116.4,192.8 129.3,177 144.1,156.2 147.8,147.1 148.7,137.4 147,128.2 144.1,125 137.7,123.7 116,128.9 75.4,142.1 64.7,144.5 54.7,145.9 39.3,146.8 14.6,146.9 1.1,146 -12.4,141.6 -32.1,133.2 -36.4,129.3 -39.5,124.8 -39.7,121.2 -38,116.8 -31.9,107.9" fill-opacity="1" fill="#f1ecc6" filter="url(#parallel-hatches-fine)"/><polyline id="SvgjsPolyline1565" points="-486.7,-114.4 -485.4,-109.9 -482.8,-105.9 -477.4,-101.1 -471.3,-96.8 -455.2,-90.8 -441.4,-90.2 -416.2,-98.1 -402.9,-100.6 -391.3,-100.7 -374.3,-97.6 -361.9,-92.4 -345.3,-82.5 -326,-67.5 -311.9,-54.4 -299.8,-44.9 -286.7,-37.4 -280.2,-34.7 -265.8,-31.1 -251.3,-29.1 -232.6,-28.1 -215.1,-30.1 -198.3,-34.8 -182.4,-42.5 -163.7,-55.5 -153.2,-67.4 -141.6,-85.7 -136.6,-100.4 -135.3,-110.3 -137.8,-115.1 -140.1,-116 -144.1,-114.5 -148.6,-111.6 -175.2,-89.5 -190,-78.4 -212.2,-62.7 -223.7,-55.7 -229,-53.2 -240.7,-49.3 -259,-46.8 -265.9,-46.9 -280.3,-49.1 -294.5,-54.2 -308.2,-61.6 -314.7,-66.2 -327.9,-78.5 -352.5,-107.3 -360.3,-115.3 -372.2,-123.6 -387.7,-129.6 -405.5,-133.3 -409.9,-133.8 -418,-133 -421.9,-131.8 -430.2,-127.6 -448.9,-112.3 -453.3,-110.8 -455.8,-110.9 -461.7,-114.5 -464.6,-117.6 -467.3,-122.4 -471.1,-132.2 -473,-142.6 -472.4,-153.6 -472.1,-198.4 -468.4,-240.2 -468.4,-242.9 -470.9,-246.4 -473.5,-245.8 -476.4,-242.6 -479,-238.2 -481,-231.8 -482.4,-225.4 -483.8,-210.5 -484.2,-185 -483.6,-158.5 -481.3,-133.2 -477.3,-108.2 -471.6,-81.9" fill-opacity="1" fill="#fffce0" filter="url(#parallel-hatches-fine)"/><polyline id="SvgjsPolyline1600" points="-569.9,-299.3 -570.8,-300.3 -569.5,-300.6 -569.9,-299.3 -571.4,-301.5 -570.9,-303.7 -559.7,-296.5 -494.5,-243.9 -407.1,-171.4 -408.2,-171.3 -407.5,-171.6 -407,-170.3 -407.8,-170 -408.2,-171.3 -408.1,-170.2 -570.1,-301.9 -569.3,-300.3" fill-opacity="1" fill="#ffbfa6" filter="url(#parallel-hatches-fine)"/><polyline id="SvgjsPolyline1607" points="-534,-320.8 -533.4,-321.9 -533.2,-321.7 -534,-320.8 -534.5,-321.6 -533.9,-322.7 -472.7,-253.7 -429.4,-203.9 -430.5,-204 -429.7,-203.1 -429.5,-202.7 -430.2,-202.6 -430.5,-204 -430.6,-202.8 -497.5,-278.9 -533.7,-321.1 -533.2,-321.3" fill-opacity="1" fill="#ffbfa6" filter="url(#parallel-hatches-fine)"/><polyline id="SvgjsPolyline1614" points="-508.4,-317.7 -507.2,-317.2 -508.2,-316.4 -508.4,-317.7 -507.4,-317.6 -478,-282.7 -454.3,-253.7 -455.4,-253.8 -454.6,-253.9 -454.4,-252.5 -455.2,-252.4 -455.4,-253.8 -455.5,-252.6 -508.5,-316.7" fill-opacity="1" fill="#ffbfa6" filter="url(#parallel-hatches-fine)"/><polyline id="SvgjsPolyline1621" points="-430,48.8 -429.5,49.8 -430.1,50.8 -431.6,50.3 -431.6,49.1 -430,48.8 -428.7,50.3 -462.2,103.8 -524,209.5 -523.3,208.4 -523.9,209.1 -525.1,209.8 -525.5,209.1 -524.3,208.4 -525.4,208.7 -509.6,181.7 -440.6,63.1 -431.6,49.1" fill-opacity="1" fill="#a6f3ff" filter="url(#parallel-hatches-fine)"/><polyline id="SvgjsPolyline1628" points="-463.7,70.9 -463.6,72.5 -465.2,72.6 -465.3,71 -463.7,71.9 -463.6,72.5 -533.3,150.9 -533.4,149.8 -533.1,150.6 -534.4,151 -534.7,150.2 -533.4,149.8 -534.5,149.9 -465.3,71" fill-opacity="1" fill="#a6f3ff" filter="url(#parallel-hatches-fine)"/><polyline id="SvgjsPolyline1642" points="-189.5,-244.6 -189.2,-246.1 -188,-245.2 -189.5,-244.6 -189.6,-245.8 -181.2,-256.5 -181.1,-255.2 -181.4,-256.1 -179.9,-256.7 -179.6,-255.8 -181.1,-255.2 -179.8,-255.4 -188.2,-244.7" fill-opacity="1" fill="#a6f3ff" filter="url(#parallel-hatches-fine)"/><polyline id="SvgjsPolyline1649" points="-193.6,-244.3 -194,-245.3 -193.4,-246.1 -192,-245.6 -191.1,-244.6 -193.6,-244.3 -193.8,-245.8 -189.1,-252.4 -175.7,-268.1 -175.6,-266.4 -175.7,-268.1 -174.1,-268.2 -174,-266.6 -175.6,-266.4 -174,-266.6 -192.1,-244.6" fill-opacity="1" fill="#a6f3ff" filter="url(#parallel-hatches-fine)"/><polyline id="SvgjsPolyline1656" points="-189.7,-231.9 -189.7,-233.6 -188.7,-233.6 -188.3,-232.3 -189.7,-231.9 -190.1,-233.2 -187.4,-238.4 -175.8,-253.1 -166.6,-263.3 -132.8,-297.3 -118.4,-310.7 -118.5,-308.9 -118.4,-310.7 -116.6,-310.6 -116.7,-308.8 -118.5,-308.9 -116.7,-308.8 -143.6,-283.3 -164.8,-261.7 -180.5,-243.5 -188.3,-232.3" fill-opacity="1" fill="#a6f3ff" filter="url(#parallel-hatches-fine)"/><polyline id="SvgjsPolyline1663" points="-171.2,-233.3 -170.7,-234.9 -169.5,-234.1 -169.8,-233.2 -171.2,-233.3 -171.2,-234.6 -155.8,-248.3 -93.7,-292.9 -93.9,-291.8 -94,-292.6 -92.6,-292.7 -92.5,-291.9 -93.9,-291.8 -92.8,-291.6 -154.4,-246.6 -169.8,-233.2" fill-opacity="1" fill="#a6f3ff" filter="url(#parallel-hatches-fine)"/><polyline id="SvgjsPolyline1670" points="-218.5,-229.5 -219.4,-230.2 -219.3,-231.4 -218.2,-231.9 -217.3,-231.2 -217.4,-230 -218.5,-228.5 -219.4,-231.9 -214.9,-247.7 -191.8,-322 -191.3,-321 -191.8,-321.6 -190.8,-322.6 -190.3,-322 -191.3,-321 -190.3,-321.6 -217.2,-230.6" fill-opacity="1" fill="#a6f3ff" filter="url(#parallel-hatches-fine)"/><polyline id="SvgjsPolyline1677" points="-252.1,-44.1 -251.1,-44.5 -250.2,-43.2 -250.9,-42.4 -251.9,-42.6 -252.1,-44.1 -250.6,-44.2 -237.6,-34.2 -192.2,5.6 -129.8,63 -74.2,115.8 -75.4,115.9 -74.6,115.6 -74.2,117 -75,118.2 -74.4,115.9 -75.3,117 -194,7.6 -251.9,-42.6" fill-opacity="1" fill="#a6f3ff" filter="url(#parallel-hatches-fine)"/><polyline id="SvgjsPolyline1684" points="-217.6,-25.4 -216.8,-26.2 -215.8,-25.9 -215.5,-24.8 -216.3,-24 -217.4,-23.4 -217.6,-25.4 -216.2,-26.2 -215,-25.8 -171.6,-3.7 -106.7,31.4 -107.8,31.7 -107.1,31.3 -106.4,32.5 -107.1,32.9 -107.8,31.7 -107.5,32.8 -216.9,-24" fill-opacity="1" fill="#a6f3ff" filter="url(#parallel-hatches-fine)"/><polyline id="SvgjsPolyline1691" points="-254.4,-16.8 -253,-16.6 -253.9,-15.5 -254.4,-16.8 -253.2,-16.9 -247.8,-12.4 -227.5,11.1 -137.1,119.9 -138.2,119.8 -137.4,119.7 -137.2,121.1 -138,121.2 -137.2,119.8 -138.3,121 -229.2,12.6 -249.3,-11 -254.3,-15.7" fill-opacity="1" fill="#a6f3ff" filter="url(#parallel-hatches-fine)"/><polyline id="SvgjsPolyline1705" points="-274.4,-29.5 -275.2,-30.4 -274.1,-30.6 -274.4,-29.5 -275.7,-31.5 -275.6,-34.4 -269.4,-26.6 -257.7,-9 -185.5,101.4 -150.5,155.6 -151.6,155.4 -150.4,156 -150.8,156.7 -152,156.1 -150.6,155.4 -151.9,156.5 -275.3,-32.8 -274.2,-31.9 -273.9,-30.3" fill-opacity="1" fill="#cf5042" filter="url(#parallel-hatches-fine)"/><polyline id="SvgjsPolyline1712" points="-263.3,6.9 -262.3,7.6 -263.4,8.1 -263.3,6.9 -262.4,7.2 -241.6,44.2 -210.1,97.1 -211.2,96.8 -210.4,96.8 -210.4,98.2 -211.2,98.2 -211.2,96.8 -211.5,97.9 -255.3,23.9 -263.6,7.9" fill-opacity="1" fill="#cf5042" filter="url(#parallel-hatches-fine)"/><polyline id="SvgjsPolyline1719" points="-552.5,-230.6 -551,-231.3 -549.6,-230.4 -551.7,-229.5 -552.5,-230.6 -551.5,-231.5 -544.9,-230.3 -447.4,-192 -448.5,-190.6 -447.9,-192.1 -447,-191 -447.6,-190.5 -448.5,-191.6 -448,-190.5 -545.6,-228.2 -551.7,-229.5" fill-opacity="1" fill="#cf5042" filter="url(#parallel-hatches-fine)"/><polyline id="SvgjsPolyline1726" points="-518.8,-187.1 -518.1,-187.9 -516.8,-187.2 -517,-186.2 -518,-185.9 -518.8,-187.1 -517.6,-187.9 -507.1,-185.7 -464.8,-176.6 -465.7,-176 -465.2,-176.6 -464.2,-175.7 -464.7,-175.1 -465.7,-176 -465.1,-175 -518,-185.9" fill-opacity="1" fill="#cf5042" filter="url(#parallel-hatches-fine)"/><polyline id="SvgjsPolyline1743" points="233.3,-308.9 234.5,-283.4 237.6,-265.6 240.3,-263.2 249.2,-262 266.8,-261.4 272.9,-263.8 274.5,-267.8 274.3,-274.8 270.4,-304.7 268.8,-310.5 266.5,-312 262.9,-312.8 250.8,-312.6 236.3,-310.1 232.2,-306.4" fill-opacity="1" fill="#3c3939" filter="url(#pen-wiggly)"/><polyline id="SvgjsPolyline1793" points="240.7,-254.2 274.5,-253.3 279.8,-252.3 283.2,-249.9 284.5,-242.2 285.5,-226.8 286.5,-148.6 289.2,-116.7 290.4,-113.8 294.4,-108.3 318.2,-88.2 322.5,-83.2 326.6,-76.5 331.6,-65.1 336.7,-47.8 340.3,-27 341.9,-11 343.8,62.4 346.2,87.1 346.8,101.6 346.2,118.1 342.7,132.7 340.1,137.6 335.1,143.6 325.2,153.5 317.9,158.9 309.3,163.3 298.2,167.5 282.9,171.5 272.5,172.8 257.4,172.1 245.3,169.2 237.8,165.9 216.8,150.8 207.2,140.2 204.1,134.9 201.9,124.5 199.5,92.3 196.7,24.4 196.4,-18 196.8,-66.3 197.9,-75 200.3,-84.5 204.3,-91.4 208.8,-95.7 226.6,-106.2 234.9,-112.7 236.7,-116.1 238.2,-122.3 238.9,-138.3 234.6,-168.3 233.7,-187 233.8,-236.9 234.8,-248.5 236.2,-254.7 238.9,-257.2 247.9,-259.1 276.2,-258.5 274.9,-256.2" fill-opacity="1" fill="#c3f7ed" filter="url(#screentone-fine-pulsing)"/><polyline id="SvgjsPolyline1814" points="211.4,-76.1 221.5,-73.6 233.7,-72.6 308.9,-75.7 312.8,-72.7 316.6,-65.5 321,-49.6 323.2,-30.6 324.8,38.7 330.1,99.5 330.5,122.9 328.4,132 326.2,136.2 311.7,154.1 303.8,158.7 293.7,161.5 279.4,162.4 263.8,162.2 237.9,159.2 231.7,156.3 220.8,148.4 212,136.9 208.2,130.4 205.8,121.7 204.9,113.1 203,63 202.2,18.3 202.6,-65.2 204.9,-74.1 207.1,-75.8 211.2,-76" fill-opacity="1" fill="#a6eaa4" filter="url(#parallel-hatches-fine)"/><polyline id="SvgjsPolyline1829" points="239.6,-256.5 245.1,-253.6 252.8,-252.7 271.2,-252.6 276.5,-253.6 279.8,-255.3 280.1,-254.8 283.9,-224.5 285.6,-190.6 290.7,-149.2 290.2,-145.7 285.3,-142 274.8,-138.5 260.4,-136.3 233.9,-135.2 231.4,-135.2 231,-135.9 230.4,-168.2 231.4,-194.1 231.6,-234.7 232.5,-242.6 234.2,-250.5 234.5,-250.1" fill-opacity="1" fill="#f8d41c" filter="url(#pen-wiggly)"/><polyline id="SvgjsPolyline1844" points="233.3,-226.2 233,-226.6 233.9,-189.3 235.6,-174.6 250.4,-172.3 277.4,-161.8 291.8,-157.1 286.2,-187.1 284.8,-199.4 265.6,-199.2 258.3,-201 252,-204 244,-209.5 238.9,-214.4 234,-223 230.9,-231 228.4,-233.4" fill-opacity="1" fill="#fffade" filter="url(#screentone-medium-pulsing)"/><polyline id="SvgjsPolyline1894" points="204.4,-34.1 203.8,-34 206.8,-31.5 217,-25.9 227.1,-22.3 238,-20.3 255.2,-19.3 284.1,-19.3 293.2,-20.9 301.3,-24.9 303.8,-22.4 308.1,-4 311.8,23.9 313.3,49.9 313.9,99.4 312.8,107.6 308.9,117.5 305,122.3 298.1,127.5 287.4,131.8 278.5,133.3 241.7,133.7 233.8,132.6 226.7,130.5 211.4,124.5 208.3,122.1 206,114.3 204.5,100.4 203.1,23.9 199.9,-5.6 198.8,-26.9" fill-opacity="1" fill="#fffdf6" filter="url(#parallel-hatches-fine)"/><polyline id="SvgjsPolyline1901" points="203.5,-25 217.6,-21.1 241.9,-19 270.6,-20 302.7,-25 306.1,-23.9 309.2,-22.7 311.2,-18 312.3,-12.7 315.7,19.7 318,52 319.5,83.9 317.5,98.3 315.5,109.1 313.1,115 308.2,120.1 298.3,125.6 286.6,129.2 252.1,135.5 238.5,136.5 229.9,136.2 223.1,134 214.2,129 207.1,122.3 203.5,112.1 200.7,88.7 199.8,32.9 197.8,-28.6" fill-opacity="1" fill="#fffdf6" filter="url(#parallel-hatches-fine)"/><polyline id="SvgjsPolyline1911" points="241.2,-285.9 242.3,-284.9 241.2,-283.8 240.2,-284.9 241.2,-285.9 242.3,-284.9 241.9,-285.7 253.9,-285.2 254.9,-284.5 258.1,-273.3 259.9,-271.3 262.9,-270.3 264.6,-275 264.5,-285.6 270.7,-288.1 270.7,-287 271.1,-288.3 272.1,-287.4 270.7,-287 271.9,-286 270.5,-285.3 266.7,-283.9 266.9,-272.7 265.4,-268.9 263.7,-267.8 260.1,-268.2 256.9,-270.4 254.9,-274.1 253.1,-282.6 242.7,-283.2 240.7,-283.7 240.2,-284.9" fill-opacity="1" fill="#fffdf6" filter="url(#pen-wiggly)"/><polyline id="SvgjsPolyline1976" points="206.6,16.7 205.4,16 206,14.8 207.2,15.4 206.6,16.7 205.1,15.6 207,15.3 208.5,30.3 209,45.7 207.6,44.8 206.4,45.7 206.9,42.2 207.7,42.5 207,42.1 207.5,40.9 208.3,41.2 207.7,42.5 208.4,41.6 209.1,43.7 209.2,45.8 207.8,47.5 206.3,46.1 204.4,21.6 204.7,14.4 206.2,13.5 207.2,15.4" fill-opacity="1" fill="#3f7cb0" filter="url(#pen-wiggly)"/><polyline id="SvgjsPolyline1981" points="204.5,16.4 203.9,15.4 204.6,14.4 205.8,14.4 206.3,15.5 205.7,16.5 204.5,16.4 204.4,14.3 209.6,11.8 214,11.9 215.6,13.6 215,13.1 215.5,13.6 214.6,14.6 214.2,13.3 215,13.1 213.9,14.4 210,14.3 206.1,16.1" fill-opacity="1" fill="#3f7cb0" filter="url(#pen-wiggly)"/><polyline id="SvgjsPolyline1986" points="206.1,27.5 206.8,26.5 208.4,27.1 208.3,28.3 207.2,28.8 206.1,27.5 207.4,26.4 217.3,24.3 219.9,24.3 219.2,25.2 219.5,24.5 220.8,25 220.6,25.7 219.2,25.2 220.2,25.9 217.7,26.8 207.2,28.8" fill-opacity="1" fill="#3f7cb0" filter="url(#pen-wiggly)"/><polyline id="SvgjsPolyline1991" points="224.1,10.5 225.2,11 225.3,12.2 224.3,12.9 223,11.8 224.1,10.5 225.4,11.6 228.9,45.4 229,47.4 228.1,47.3 229.2,48.1 228.7,48.7 227.9,48.6 228.1,47.3 227.6,48.3 226.5,46 225.5,40.9 223,11.8" fill-opacity="1" fill="#3f7cb0" filter="url(#pen-wiggly)"/><polyline id="SvgjsPolyline1996" points="230,38.2 231.7,38.2 230.9,39.7 230,38.2 235.7,38.3 239,35.4 237.8,34.1 233.7,33.8 231.4,40.4 230.7,39.5 231.2,40.7 230.5,41 229.9,41.6 230.7,39.5 229.8,40.1 230.1,35.4 232.4,31.8 234.4,31.2 238.6,31.9 240.5,32.8 241.4,34.5 239.9,38 236.4,40.4 232.5,40.5 230.4,39.5" fill-opacity="1" fill="#3f7cb0" filter="url(#pen-wiggly)"/><polyline id="SvgjsPolyline2001" points="247.4,30.9 248.4,31.3 248.6,32.3 247.7,33 246.5,32.1 247.4,30.9 248.7,31.8 250.5,45.5 249,44.6 248,45 249.4,38 249.5,35.4 253,32.1 256.4,30.8 256.6,31.7 257.2,30.4 257.9,30.8 257.3,32 256.6,32.7 257.7,31.9 251.8,36.8 249.6,47.1 248,45.8 246.5,32.1" fill-opacity="1" fill="#3f7cb0" filter="url(#pen-wiggly)"/><polyline id="SvgjsPolyline2006" points="266.2,31.8 267.4,31.9 267.6,33.6 266.6,34 265.6,33.4 266.2,31.8 267.7,32.4 269.8,37.3 273.1,47.2 271.7,48.3 273,47.8 273.8,49.2 271,48 265.6,33.4" fill-opacity="1" fill="#3f7cb0" filter="url(#pen-wiggly)"/><polyline id="SvgjsPolyline2011" points="263.1,28.8 263,27.6 263.9,26.8 265.1,27.3 265.2,28.5 264.3,29.2 263.1,28.8 263.3,27.1 265.6,25.5 270.4,23.9 270.5,24.8 271.1,23.5 271.8,23.9 271.2,25.1 270.5,24.8 271.6,25 264.9,29" fill-opacity="1" fill="#3f7cb0" filter="url(#pen-wiggly)"/><polyline id="SvgjsPolyline2016" points="283.9,27.5 283.8,29.1 282.5,28.1 283.9,27.5 284.1,28.8 281.2,37 281.4,41.6 282.8,43.9 284.5,42.9 285.4,41.1 285.8,42.2 285.6,40.8 286.9,41.4 285.8,42.2 286.8,41.8 285.2,45.3 283.6,46.4 281.5,46 280.1,44.4 278.6,39.6 279.6,33.7 282.6,27.7" fill-opacity="1" fill="#3f7cb0" filter="url(#pen-wiggly)"/><polyline id="SvgjsPolyline2021" points="283.4,7.4 284.3,8.1 283.8,9.6 282.7,9.6 282.1,8.5 283.4,7.4 284.5,8.7 286.1,25.3 288.7,37.9 289.3,42.4 288.3,41.7 289.1,42 288.6,43.3 287.9,43.1 288.3,41.7 287.7,42.7 284.4,30.8 282.1,8.5" fill-opacity="1" fill="#3f7cb0" filter="url(#pen-wiggly)"/><polyline id="SvgjsPolyline2026" points="290,29.1 291,28 292,27.5 292.9,28 291.5,29.5 290,29.1 291.4,27.6 293.7,26.5 296.2,26.8 300.8,29.2 303.9,32.6 304.8,35.9 303.6,37.1 299.3,38.2 298,40.3 299,42.4 300,43 301.2,42.5 303.8,40 304.6,38.6 305,39.7 305.5,39 305.7,38.2 306.1,38.9 305,39.7 306,39.3 304.5,42.4 301.3,44.7 299.1,45.5 297.1,45 295.8,43.5 295.4,41.6 296.5,37.7 298,36.2 302.4,35 300.8,32.6 297.5,29.8 293.8,28.7 291.5,29.5" fill-opacity="1" fill="#3f7cb0" filter="url(#pen-wiggly)"/><polyline id="SvgjsPolyline2031" points="215.1,57.3 215.8,58.7 215,59.4 213.9,59 213.7,58 215.1,57.3 221,69 225.1,74.7 226.5,73 229,64.9 231.4,62.6 234.6,64.3 238.7,70.6 237.3,70.6 237.4,63 239.4,56.8 240,57.7 240.6,56.4 240.4,56.2 241,56.8 240,57.7 241,57.2 239.8,70.8 238.9,72.9 237,72.4 231.9,65.2 227.7,76.2 225.9,77.3 223.9,76.8 217.2,67.2 214.5,61.6 213.7,58" fill-opacity="1" fill="#3f7cb0" filter="url(#pen-wiggly)"/><polyline id="SvgjsPolyline2036" points="248.1,59.3 248.5,58.4 249.5,58.3 250.1,59.1 249.7,60.1 248.7,60.2 248.1,59.3 249.9,58.1 253.6,59.5 257.2,62.2 259.3,65.4 258.4,68.4 253.9,71.5 253,73.2 254.4,73.9 255.1,73.4 260.5,68.8 261.1,69.4 261,68 262.2,68.5 261.1,69.4 262.2,68.9 259.8,72.7 254.4,76.3 252.5,76.1 251.1,74.9 250.6,73.2 252,70.1 257.1,65.9 254.2,62.4 250.9,60.4 249.2,60.2" fill-opacity="1" fill="#3f7cb0" filter="url(#pen-wiggly)"/><polyline id="SvgjsPolyline2041" points="264.1,63.9 264.3,62.7 265.5,62.3 266.4,63 266.3,64.2 265.1,64.7 264.1,63.9 265.7,62 276.4,59 276.1,60.1 276.8,58.8 277.5,59.2 276.8,60.4 276.1,60.1 277.2,60.3 274,62.3 265.8,64.6" fill-opacity="1" fill="#3f7cb0" filter="url(#pen-wiggly)"/><polyline id="SvgjsPolyline2046" points="274.1,49.2 274.8,50 274.5,51 273.4,52.3 272.7,50.5 273.5,49.2 274.8,50.6 274.8,63.4 277.8,78.2 278.3,81.5 277.3,80.9 278.1,81.2 277.7,82.5 276.9,82.2 277.3,80.9 276.7,81.9 275.6,78.8 273,68.3 272,59.4 272.7,49.9" fill-opacity="1" fill="#3f7cb0" filter="url(#pen-wiggly)"/><polyline id="SvgjsPolyline2051" points="283.8,77.1 283.4,76.2 284,75.3 285,75.5 286.4,76.4 284.3,77.3 283.5,75.7 286.3,70.8 286.6,69.3 285.9,68.1 284.9,72.6 286.2,77 287.9,78.5 289.7,78 290.5,76.8 290.8,77.9 290.8,76.5 292,77.2 290.8,77.9 291.9,77.6 289.9,80.4 287.9,80.9 285.7,80.3 284.1,78.3 282.5,72.8 282.5,69.9 284.8,66.1 286.7,65.9 288.2,67.3 288.8,69.2 287.4,73.7 285.2,76.9" fill-opacity="1" fill="#3f7cb0" filter="url(#pen-wiggly)"/><polyline id="SvgjsPolyline2056" points="293.5,63.6 294.5,63.6 295,65 294.1,65.6 293.1,65.1 293.5,63.6 294.9,64 296.6,66.8 299.2,75.3 296.9,75.1 297.5,70.3 299.2,67 303.9,62 308.1,59.1 308,60.2 308.8,59.4 309.2,59.2 309.3,60 308,61.2 309.1,60.3 301.3,68.4 298.4,77.2 296.9,75.9 295.4,70 293.1,65.1" fill-opacity="1" fill="#3f7cb0" filter="url(#pen-wiggly)"/><polyline id="SvgjsPolyline2083" points="233.6,171.6 266.5,173.4 291.2,172 304.6,169.2 328.1,161.9 336.1,159 343.5,154.7 346.4,153.8 354.3,154.2 368.7,157.4 388.2,163.7 403.3,169.7 426.6,180.1 448.2,191 493.8,218.4 519.4,231.7 532.8,239.5 537.5,243 541.3,247 543.4,250.3 543.7,253.1 540.6,255.8 534.1,257.8 523,259.6 488.9,263 449,272.6 444.7,272.4 427.2,268.5 410.2,266.8 400.7,264.8 385.1,260.1 318.3,236.6 304,230.6 280.4,218.6 269.8,212.3 259.7,204.1 236,180.2 234.4,178.1 232.7,173.6" fill-opacity="1" fill="#5aab6c" filter="url(#sandy-curls-pulsing)"/></g><filter id="screentone-fine-pulsing"><feImage id="SvgjsFeImage1785" cellheight="4" cellwidth="4" dx="10" dy="10" filterName="feImage" href="#1bGD2van" patterntype="grid" result="BcGV3I" rotation="0" sx="20" sy="20" type="turbulence" unitrot="0" unittype="circle"><animate id="SvgjsAnimate1786" attributeName="cellwidth" dur="2.2" values="3;1;3" attributeType="XML" repeatCount="indefinite"/><animate id="SvgjsAnimate1787" attributeName="cellheight" dur="2.2" values="3;1;3" attributeType="XML" repeatCount="indefinite"/></feImage><feImage id="SvgjsFeImage1788" cellheight="4" cellwidth="4" dx="10" dy="10" filterName="feImage" href="#mEb90HXk" patterntype="grid" result="pe2jcK" rotation="0" sx="5" sy="5" type="turbulence" unitrot="0" unittype="circle"><animate id="SvgjsAnimate1789" attributeName="cellwidth" dur="2.2" values="1;3;1" attributeType="XML" repeatCount="indefinite"/><animate id="SvgjsAnimate1790" attributeName="cellheight" dur="2.2" values="1;3;1" attributeType="XML" repeatCount="indefinite"/></feImage><feComposite id="SvgjsFeComposite1791" filterName="feComposite" in="pe2jcK" in2="BcGV3I" operator="over" result="1iiEfs"/><feComposite id="SvgjsFeComposite1792" filterName="feComposite" in="SourceGraphic" in2="1iiEfs" operator="in" result="yezH8r"/></filter><filter id="screentone-medium-pulsing"><feImage id="SvgjsFeImage1846" cellheight="5" cellwidth="5" dx="14" dy="14" filterName="feImage" href="#7PXUQNVd" patterntype="grid" result="8eDNxN" rotation="15" sx="0" sy="0" type="turbulence" unitrot="0" unittype="circle"><animate id="SvgjsAnimate1847" attributeName="cellwidth" dur="1" values="3;8;3" attributeType="XML" repeatCount="indefinite"/><animate id="SvgjsAnimate1848" attributeName="cellheight" dur="1" values="3;8;3" attributeType="XML" repeatCount="indefinite"/></feImage><feImage id="SvgjsFeImage1849" cellheight="5" cellwidth="5" dx="14" dy="14" filterName="feImage" href="#rhyFH3x0" patterntype="grid" result="jDMl2y" rotation="15" sx="7" sy="7" type="turbulence" unitrot="0" unittype="circle"><animate id="SvgjsAnimate1850" attributeName="cellwidth" dur="1" values="3;6;3" attributeType="XML" repeatCount="indefinite"/><animate id="SvgjsAnimate1851" attributeName="cellheight" dur="1" values="3;6;3" attributeType="XML" repeatCount="indefinite"/></feImage><feComposite id="SvgjsFeComposite1852" filterName="feComposite" in="8eDNxN" in2="jDMl2y" operator="over" result="Qm0OEx"/><feComposite id="SvgjsFeComposite1853" filterName="feComposite" in="SourceGraphic" in2="Qm0OEx" operator="in" result="jrnUN1"/></filter><filter id="splotchy-flickering"><feTurbulence id="SvgjsFeTurbulence1856" baseFrequency="0.25 0.209" filterName="feTurbulence" numOctaves="8" result="nTLuQM" seed="0" stitchTiles="noStitch" type="fractalNoise"/><feComponentTransfer id="SvgjsFeComponentTransfer1857" filterName="feComponentTransfer" in="nTLuQM" result="irk8Sm"><feFuncR id="SvgjsFeFuncR1858" filterName="feFuncR" intercept="0.1" slope="0.1" type="linear"/><feFuncG id="SvgjsFeFuncG1859" filterName="feFuncG" intercept="0.1" slope="0.1" type="linear"/><feFuncB id="SvgjsFeFuncB1860" filterName="feFuncB" intercept="0.1" slope="0.1" type="linear"/></feComponentTransfer><feMorphology id="SvgjsFeMorphology1861" filterName="feMorphology" in="irk8Sm" operator="erode" radius="6" result="HyN6vt"><animate id="SvgjsAnimate1862" attributeName="radius" dur="0.5" values="4;5;4" attributeType="XML" repeatCount="indefinite"/></feMorphology><feConvolveMatrix id="SvgjsFeConvolveMatrix1863" filterName="feConvolveMatrix" in="HyN6vt" kernelMatrix="0 -1 0 -1 5 -1 0 -1 0" result="tTZHfY"/><feComposite id="SvgjsFeComposite1864" filterName="feComposite" in="SourceGraphic" in2="tTZHfY" operator="in" result="gAuK3e"/><feComposite id="SvgjsFeComposite1865" filterName="feComposite" in="gAuK3e" in2="gAuK3e" operator="over" result="CvTrwW"/></filter><filter id="crosshatching-sideshuffle"><feImage id="SvgjsFeImage1868" cellheight="50" cellwidth="1" dx="6" dy="50" filterName="feImage" href="#G79Oyy0V" patterntype="grid" result="4YBZ9R" rotation="115" sx="0" sy="0" type="turbulence" unitrot="0" unittype="square"><animate id="SvgjsAnimate1869" attributeName="sx" dur="0.5" values="1;4;1" attributeType="XML" repeatCount="indefinite"/></feImage><feImage id="SvgjsFeImage1870" cellheight="50" cellwidth="1" dx="6" dy="50" filterName="feImage" href="#YgXjnwUC" patterntype="grid" result="yITyeQ" rotation="70" sx="0" sy="0" type="turbulence" unitrot="0" unittype="square"/><feComposite id="SvgjsFeComposite1871" filterName="feComposite" in="yITyeQ" in2="4YBZ9R" operator="over" result="ppWoID"/><feComposite id="SvgjsFeComposite1872" filterName="feComposite" in="SourceGraphic" in2="ppWoID" operator="in" result="6FzKUP"/></filter><filter id="parallel-hatches-fine"><feImage id="SvgjsFeImage1896" cellheight="50" cellwidth="2" dx="4" dy="50" filterName="feImage" href="#tGLVnRYU" patterntype="grid" result="KhM0O3" rotation="305" sx="0" sy="0" type="turbulence" unitrot="0" unittype="square"><animate id="SvgjsAnimate1897" attributeName="sx" dur="1" values="5;1" attributeType="XML" repeatCount="indefinite"/></feImage><feTurbulence id="SvgjsFeTurbulence1898" baseFrequency="0.082 0.084" filterName="feTurbulence" numOctaves="1" result="wBA2q5" seed="0" stitchTiles="noStitch" type="fractalNoise"/><feDisplacementMap id="SvgjsFeDisplacementMap1899" filterName="feDisplacementMap" in="KhM0O3" in2="wBA2q5" result="5B25BU" scale="2" xChannelSelector="R" yChannelSelector="G"/><feComposite id="SvgjsFeComposite1900" filterName="feComposite" in="SourceGraphic" in2="5B25BU" operator="in" result="gbkoT2"/></filter><filter id="pen-wiggly"><feTurbulence id="SvgjsFeTurbulence2058" baseFrequency="0.1 0.1" filterName="feTurbulence" numOctaves="1" result="2clDB1" seed="0" stitchTiles="noStitch" type="turbulence"><animate id="SvgjsAnimate2059" attributeName="baseFrequency" dur="9" values="0.108 0.092;0.048 0.053;0.1 0.1" attributeType="XML" repeatCount="indefinite"/></feTurbulence><feDisplacementMap id="SvgjsFeDisplacementMap2060" filterName="feDisplacementMap" in="SourceGraphic" in2="2clDB1" result="1Pf3G7" scale="6" xChannelSelector="R" yChannelSelector="G"/></filter><filter id="sandy-curls-pulsing"><feImage id="SvgjsFeImage1239" cellheight="25" cellwidth="24" dx="18" dy="19" filterName="feImage" href="#vhGSOiZu" patterntype="grid" result="ySSog7" rotation="200" sx="0" sy="0" type="turbulence" unittype="triangle"><animate id="SvgjsAnimate2075" attributeName="cellwidth" dur="7.9" values="1;29;1" attributeType="XML" repeatCount="indefinite"/></feImage><feImage id="SvgjsFeImage1241" cellheight="25" cellwidth="24" dx="29" dy="38" filterName="feImage" href="#lkPaHDQX" patterntype="grid" result="paOLZn" rotation="240" sx="16" sy="20" type="turbulence" unittype="triangle"/><feComposite id="SvgjsFeComposite1242" filterName="feComposite" in="ySSog7" in2="paOLZn" operator="over" result="CGlSfo"/><feTurbulence id="SvgjsFeTurbulence1243" baseFrequency="0.076 0.069" filterName="feTurbulence" numOctaves="1" result="N6f5ZC" seed="0" stitchTiles="noStitch" type="fractalNoise"/><feGaussianBlur id="SvgjsFeGaussianBlur1244" filterName="feGaussianBlur" in="CGlSfo" result="PzNRLr" stdDeviation="3"/><feDisplacementMap id="SvgjsFeDisplacementMap1245" filterName="feDisplacementMap" in="PzNRLr" in2="N6f5ZC" result="bypfqk" scale="36" xChannelSelector="R" yChannelSelector="G"/><feConvolveMatrix id="SvgjsFeConvolveMatrix1246" filterName="feConvolveMatrix" in="bypfqk" kernelMatrix="-1 -1 -1 -1 4 -1 -1 1 1" result="gfWMId"/><feComposite id="SvgjsFeComposite2082" filterName="feComposite" in="SourceGraphic" in2="gfWMId" operator="in" result="EfiX6J"/></filter></svg>