<svg id="main-canvas" width="982" height="699" xmlns="http://www.w3.org/2000/svg" version="1.1" xmlnsXlink="http://www.w3.org/1999/xlink" xmlnsSvgjs="http://svgjs.com/svgjs" style="background-color: white" viewBox="-80.03021542740997 -24.227585485649346 1012.4642586762996 720.6848440068568"><defs id="SvgjsDefs1002"><script xmlns="http://www.w3.org/1999/xhtml">function $(id) { return document.getElementById(id) }</script><pattern width="0.007200680052816166" height="0.007200680052816166" id="1bGD2van_0" viewBox="0 0 10 10"><ellipse cx="5" cy="5" rx="2.5" transform-origin="5 5" transform="scale(0.8 0.8) rotate(0)" fill="black"><animateTransform attributeName="transform" attributeType="XML" type="scale" additive="sum" values="0.6 0.6 ;0.2 0.2 ;0.6 0.6 " dur="2.2" repeatCount="indefinite"/></ellipse></pattern><g width="1388.7577182503794" height="1388.7577182503794" id="1bGD2van" transform="rotate(0 491 349.5)"><path d="M 0 0,l 1388.7577182503794 0,l 0 1388.7577182503794,l -1388.7577182503794 0,l 0 -1388.7577182503794" fill="url(#1bGD2van_0)" transform="translate(-183.3788591251897 -324.8788591251897)"/></g><pattern width="0.007200680052816166" height="0.007200680052816166" id="mEb90HXk_0" viewBox="0 0 10 10"><ellipse cx="5" cy="5" rx="2.5" transform-origin="5 5" transform="scale(0.8 0.8) rotate(0)" fill="black"><animateTransform attributeName="transform" attributeType="XML" type="scale" additive="sum" values="0.2 0.2 ;0.6 0.6 ;0.2 0.2 " dur="2.2" repeatCount="indefinite"/></ellipse></pattern><g width="1388.7577182503794" height="1388.7577182503794" id="mEb90HXk" transform="rotate(0 491 349.5)"><path d="M 0 0,l 1388.7577182503794 0,l 0 1388.7577182503794,l -1388.7577182503794 0,l 0 -1388.7577182503794" fill="url(#mEb90HXk_0)" transform="translate(-198.3788591251897 -339.8788591251897)"/></g><pattern width="0.010080952073942632" height="0.010080952073942632" id="7PXUQNVd_0" viewBox="0 0 14 14"><ellipse cx="7" cy="7" rx="3.5" transform-origin="7 7" transform="scale(0.7142857142857143 0.7142857142857143) rotate(0)" fill="black"><animateTransform attributeName="transform" attributeType="XML" type="scale" additive="sum" values="0.42857142857142855 0.42857142857142855 ;1.1428571428571428 1.1428571428571428 ;0.42857142857142855 0.42857142857142855 " dur="1" repeatCount="indefinite"/></ellipse></pattern><g width="1388.7577182503794" height="1388.7577182503794" id="7PXUQNVd" transform="rotate(15 491 349.5)"><path d="M 0 0,l 1388.7577182503794 0,l 0 1388.7577182503794,l -1388.7577182503794 0,l 0 -1388.7577182503794" fill="url(#7PXUQNVd_0)" transform="translate(-203.3788591251897 -344.8788591251897)"/></g><pattern width="0.010080952073942632" height="0.010080952073942632" id="rhyFH3x0_0" viewBox="0 0 14 14"><ellipse cx="7" cy="7" rx="3.5" transform-origin="7 7" transform="scale(0.7142857142857143 0.7142857142857143) rotate(0)" fill="black"><animateTransform attributeName="transform" attributeType="XML" type="scale" additive="sum" values="0.42857142857142855 0.42857142857142855 ;0.8571428571428571 0.8571428571428571 ;0.42857142857142855 0.42857142857142855 " dur="1" repeatCount="indefinite"/></ellipse></pattern><g width="1388.7577182503794" height="1388.7577182503794" id="rhyFH3x0" transform="rotate(15 491 349.5)"><path d="M 0 0,l 1388.7577182503794 0,l 0 1388.7577182503794,l -1388.7577182503794 0,l 0 -1388.7577182503794" fill="url(#rhyFH3x0_0)" transform="translate(-196.3788591251897 -337.8788591251897)"/></g><pattern width="0.0043204080316897" height="0.03600340026408083" id="G79Oyy0V_0" viewBox="0 0 6 50"><rect x="1.5" y="12.5" width="3" height="25" transform-origin="3 25" transform="scale(0.3333333333333333 2) rotate(0)" fill="black"/></pattern><g width="1388.7577182503794" height="1388.7577182503794" id="G79Oyy0V" transform="rotate(115 491 349.5)"><path d="M 0 0,l 1388.7577182503794 0,l 0 1388.7577182503794,l -1388.7577182503794 0,l 0 -1388.7577182503794" fill="url(#G79Oyy0V_0)" transform="translate(-203.3788591251897 -344.8788591251897)"><animateTransform attributeName="transform" attributeType="XML" type="translate" values="-202.3788591251897 -344.8788591251897;-199.3788591251897 -344.8788591251897;-202.3788591251897 -344.8788591251897" dur="0.5" repeatCount="indefinite"/></path></g><pattern width="0.0043204080316897" height="0.03600340026408083" id="YgXjnwUC_0" viewBox="0 0 6 50"><rect x="1.5" y="12.5" width="3" height="25" transform-origin="3 25" transform="scale(0.3333333333333333 2) rotate(0)" fill="black"/></pattern><g width="1388.7577182503794" height="1388.7577182503794" id="YgXjnwUC" transform="rotate(70 491 349.5)"><path d="M 0 0,l 1388.7577182503794 0,l 0 1388.7577182503794,l -1388.7577182503794 0,l 0 -1388.7577182503794" fill="url(#YgXjnwUC_0)" transform="translate(-203.3788591251897 -344.8788591251897)"/></g><pattern width="0.002880272021126466" height="0.03600340026408083" id="tGLVnRYU_0" viewBox="0 0 4 50"><rect x="1" y="12.5" width="2" height="25" transform-origin="2 25" transform="scale(1 2) rotate(0)" fill="black"/></pattern><g width="1388.7577182503794" height="1388.7577182503794" id="tGLVnRYU" transform="rotate(305 491 349.5)"><path d="M 0 0,l 1388.7577182503794 0,l 0 1388.7577182503794,l -1388.7577182503794 0,l 0 -1388.7577182503794" fill="url(#tGLVnRYU_0)" transform="translate(-203.3788591251897 -344.8788591251897)"><animateTransform attributeName="transform" attributeType="XML" type="translate" values="-198.3788591251897 -344.8788591251897;-202.3788591251897 -344.8788591251897" dur="1" repeatCount="indefinite"/></path></g><pattern width="0.012961224095069099" height="0.013681292100350715" id="vhGSOiZu_0" viewBox="0 0 18 19"><path d="&#10;            M9 7.125,&#10;            L12.897114317029974 14.25,&#10;            L5.102885682970026 14.25,&#10;            L9 7.125,&#10;        " transform-origin="9 9.5" transform="scale(2.6666666666666665 2.6315789473684212) rotate(0)" fill="black"><animateTransform attributeName="transform" attributeType="XML" type="scale" additive="sum" values="0.1111111111111111 2.6315789473684212;3.2222222222222223 2.6315789473684212;0.1111111111111111 2.6315789473684212" dur="7.9" repeatCount="indefinite"/></path></pattern><g width="1388.7577182503794" height="1388.7577182503794" id="vhGSOiZu" transform="rotate(200 491 349.5)"><path d="M 0 0,l 1388.7577182503794 0,l 0 1388.7577182503794,l -1388.7577182503794 0,l 0 -1388.7577182503794" fill="url(#vhGSOiZu_0)" transform="translate(-203.3788591251897 -344.8788591251897)"/></g><pattern width="0.02088197215316688" height="0.02736258420070143" id="lkPaHDQX_0" viewBox="0 0 29 38"><path d="&#10;            M14.5 14.25,&#10;            L20.778684177437178 28.5,&#10;            L8.22131582256282 28.5,&#10;            L14.5 14.25,&#10;        " transform-origin="14.5 19" transform="scale(1.6551724137931034 1.3157894736842106) rotate(0)" fill="black"/></pattern><g width="1388.7577182503794" height="1388.7577182503794" id="lkPaHDQX" transform="rotate(240 491 349.5)"><path d="M 0 0,l 1388.7577182503794 0,l 0 1388.7577182503794,l -1388.7577182503794 0,l 0 -1388.7577182503794" fill="url(#lkPaHDQX_0)" transform="translate(-187.3788591251897 -324.8788591251897)"/></g></defs><g id="sketchGroup" transform="matrix(1,0,0,1,491,349.5)"><g id="layer1"><path id="SvgjsPolyline1365" d="M-295.45 -271.04 C -338.52 -268.22,-352.06 -267.72,-387.45 -267.64 C -445.66 -267.50,-486.06 -264.39,-490.79 -259.66 C -491.30 -259.15,-492.43 -252.74,-493.29 -245.41 C -494.85 -232.10,-494.85 -232.10,-496.59 -240.10 C -498.33 -248.10,-498.33 -248.10,-497.87 -239.10 C -497.61 -234.15,-496.73 -214.35,-495.90 -195.10 C -491.31 -89.01,-481.74 73.65,-479.48 83.73 C -478.08 89.98,-478.59 89.95,-452.95 85.23 C -434.95 81.91,-434.95 81.91,-379.45 81.86 C -303.11 81.79,-282.54 80.17,-239.95 70.89 C -190.54 60.12,-149.53 53.40,-133.23 53.40 C -123.45 53.40,-123.45 53.40,-123.46 50.15 C -123.60 15.37,-129.08 -55.07,-137.40 -129.10 C -139.57 -148.35,-141.84 -173.78,-142.46 -185.60 C -143.80 -211.38,-149.24 -270.77,-150.36 -271.90 C -150.79 -272.34,-155.44 -272.26,-160.69 -271.73 C -168.09 -270.97,-176.02 -271.18,-196.09 -272.66 C -229.12 -275.10,-234.70 -275.01,-295.45 -271.04 " opacity="1" transform="matrix(1,0,0,1,0,0)" filter="url(#pen-wiggly)" fill="#5c9519" fill-opacity="1" potraced="yes"/><path id="SvgjsPolyline1366" d="M-477.60 -113.43 C -480.07 -112.90,-483.18 -112.72,-484.50 -113.04 C -486.91 -113.62,-486.91 -113.62,-486.29 -70.31 C -485.26 2.12,-476.56 53.26,-459.62 86.45 C -456.30 92.98,-454.23 92.92,-420.10 85.37 C -404.23 81.86,-379.02 77.74,-329.60 70.57 C -241.08 57.73,-234.01 57.08,-145.87 53.62 C -134.06 53.16,-128.25 52.55,-127.37 51.68 C -124.92 49.23,-125.20 24.76,-127.99 -1.26 C -129.38 -14.31,-131.22 -36.25,-132.08 -50.00 C -133.86 -78.71,-134.03 -80.36,-136.78 -94.46 C -140.32 -112.66,-139.52 -112.41,-165.63 -103.62 C -190.73 -95.18,-190.99 -95.05,-217.22 -79.22 C -245.59 -62.11,-246.84 -61.51,-271.18 -53.69 C -315.08 -39.57,-330.02 -42.63,-361.60 -72.18 C -383.03 -92.23,-404.54 -106.00,-422.55 -111.22 C -432.08 -113.98,-468.29 -115.43,-477.60 -113.43 " opacity="1" transform="matrix(1,0,0,1,0,0)" filter="url(#pen-wiggly)" fill="#2ccad0" fill-opacity="1" potraced="yes"/><path id="SvgjsPolyline1367" d="M-174.05 -134.47 C -182.50 -132.18,-188.07 -128.28,-215.84 -105.29 C -251.88 -75.44,-258.38 -71.50,-275.59 -69.11 C -300.84 -65.60,-310.94 -69.66,-365.92 -105.46 C -383.39 -116.83,-389.08 -119.18,-410.05 -123.67 C -434.03 -128.80,-447.49 -129.07,-453.98 -124.55 C -463.61 -117.83,-465.35 -117.08,-471.35 -117.07 C -477.82 -117.05,-481.85 -118.70,-484.96 -122.66 C -489.28 -128.15,-487.11 -102.36,-482.68 -95.62 C -480.38 -92.10,-477.37 -92.10,-465.22 -95.59 C -424.89 -107.16,-393.27 -97.61,-357.55 -63.05 C -336.70 -42.89,-332.71 -40.66,-312.73 -38.07 C -290.65 -35.20,-262.85 -38.23,-234.44 -46.60 C -209.49 -53.95,-205.12 -56.40,-188.05 -72.60 C -165.50 -94.01,-153.27 -102.05,-143.24 -102.05 C -135.16 -102.05,-133.32 -109.54,-138.99 -119.43 C -146.48 -132.50,-159.97 -138.29,-174.05 -134.47 M-490.52 -129.34 C -487.83 -126.59,-487.52 -126.49,-487.22 -128.26 C -486.81 -130.67,-486.86 -130.71,-490.53 -131.63 C -493.50 -132.38,-493.50 -132.38,-490.52 -129.34 " opacity="1" transform="matrix(1,0,0,1,0,0)" filter="url(#pen-wiggly)" fill="#8afaff" fill-opacity="1" potraced="yes"/><path id="SvgjsPolyline1368" d="M-485.06 -239.25 C -486.02 -238.13,-486.53 -236.75,-486.19 -236.20 C -485.84 -235.64,-484.94 -221.81,-484.18 -205.46 C -482.15 -162.03,-477.93 -126.56,-473.60 -116.45 C -470.01 -108.07,-459.44 -112.08,-458.25 -122.27 C -456.83 -134.53,-462.55 -202.63,-466.26 -217.63 C -470.95 -236.58,-479.21 -246.08,-485.06 -239.25 " opacity="1" transform="matrix(1,0,0,1,0,0)" filter="url(#pen-wiggly)" fill="#9ce69a" fill-opacity="1" potraced="yes"/><path id="SvgjsPolyline1369" d="M-206.00 -242.09 C -207.98 -241.29,-207.52 -229.74,-204.81 -212.11 C -203.48 -203.38,-201.20 -185.68,-199.77 -172.75 C -198.33 -159.82,-195.81 -139.35,-194.17 -127.25 C -192.52 -115.15,-189.85 -89.50,-188.23 -70.25 C -184.65 -27.77,-173.13 61.40,-170.50 67.00 C -168.64 70.96,-166.25 71.97,-161.52 70.78 C -155.24 69.21,-160.44 -26.75,-170.35 -92.25 C -172.51 -106.55,-176.29 -134.23,-178.75 -153.75 C -184.85 -202.06,-190.75 -236.23,-192.32 -232.25 C -192.96 -230.64,-193.12 -230.58,-193.18 -231.94 C -193.45 -238.39,-200.78 -244.19,-206.00 -242.09 " opacity="1" transform="matrix(1,0,0,1,0,0)" filter="url(#pen-wiggly)" fill="#9ce69a" fill-opacity="1" potraced="yes"/><path id="SvgjsPolyline1370" d="M-271.18 -305.47 C -272.98 -304.22,-273.69 -304.13,-274.28 -305.08 C -274.82 -305.96,-275.53 -305.58,-276.72 -303.76 C -278.44 -301.14,-277.69 -300.26,-275.57 -302.38 C -273.78 -304.17,-273.74 -304.03,-271.51 -284.20 C -267.83 -251.59,-267.19 -237.04,-266.40 -167.70 C -265.62 -99.70,-265.62 -99.70,-261.45 -75.42 C -256.25 -45.19,-256.03 -44.52,-251.99 -47.48 C -247.83 -50.52,-247.70 -68.38,-251.43 -124.70 C -252.48 -140.65,-253.36 -164.72,-253.37 -178.20 C -253.41 -215.16,-255.82 -265.17,-258.35 -281.20 C -262.10 -305.08,-264.70 -309.99,-271.18 -305.47 " opacity="1" transform="matrix(1,0,0,1,0,0)" filter="url(#pen-wiggly)" fill="#9ce69a" fill-opacity="1" potraced="yes"/><path id="SvgjsPolyline1371" d="M-476.89 -261.16 C -493.61 -251.89,-496.67 -241.25,-496.00 -194.65 C -495.62 -168.42,-495.51 -167.13,-492.01 -149.65 C -488.39 -131.56,-484.56 -100.08,-485.74 -98.16 C -487.27 -95.69,-482.13 -43.39,-478.62 -25.65 C -477.75 -21.25,-474.20 -5.95,-470.73 8.35 C -466.24 26.83,-463.20 42.59,-460.18 62.85 C -457.82 78.73,-455.38 91.97,-454.67 92.74 C -453.74 93.76,-448.65 94.35,-435.58 94.95 C -425.77 95.41,-415.33 96.25,-412.36 96.82 C -403.64 98.49,-403.88 98.64,-404.57 92.02 C -405.44 83.74,-405.68 83.36,-413.74 77.79 C -432.22 65.02,-452.53 23.85,-459.28 -14.50 C -460.94 -23.93,-463.63 -38.17,-465.25 -46.15 C -467.93 -59.35,-468.23 -62.93,-468.65 -86.15 C -469.16 -114.61,-470.20 -122.93,-475.71 -142.65 C -481.45 -163.20,-482.20 -169.08,-482.90 -199.65 C -483.91 -243.35,-482.31 -247.15,-459.90 -254.03 C -450.94 -256.78,-449.63 -260.74,-456.70 -263.69 C -462.98 -266.32,-468.94 -265.57,-476.89 -261.16 M-484.56 -90.40 C -484.81 -89.44,-485.02 -90.22,-485.02 -92.15 C -485.02 -94.07,-484.81 -94.86,-484.56 -93.90 C -484.31 -92.94,-484.31 -91.36,-484.56 -90.40 " opacity="1" transform="matrix(1,0,0,1,0,0)" filter="url(#screentone-medium-pulsing)" fill="#f6f222" fill-opacity="1" potraced="yes"/><path id="SvgjsPolyline1372" d="M-186.60 -293.07 C -212.56 -290.02,-223.54 -285.48,-220.17 -279.18 C -218.55 -276.15,-216.17 -275.84,-203.63 -277.00 C -177.95 -279.39,-167.73 -271.63,-159.98 -243.81 C -157.52 -234.99,-157.57 -233.34,-161.10 -208.05 C -167.12 -164.94,-162.16 -100.46,-146.62 -19.50 C -135.52 38.35,-137.20 45.12,-165.70 57.32 C -192.74 68.90,-186.61 75.43,-153.76 70.04 C -123.93 65.14,-121.51 61.81,-121.90 26.16 C -122.28 -9.07,-123.27 -21.68,-127.64 -47.05 C -134.86 -88.95,-142.75 -191.73,-142.21 -236.76 C -141.88 -264.33,-146.04 -281.46,-155.00 -289.48 C -158.45 -292.57,-174.96 -294.44,-186.60 -293.07 " opacity="1" transform="matrix(1,0,0,1,0,0)" filter="url(#screentone-medium-pulsing)" fill="#f6f222" fill-opacity="1" potraced="yes"/><path id="SvgjsPolyline1373" d="M-176.35 -126.65 C -179.02 -124.85,-187.04 -116.45,-194.69 -107.45 C -228.95 -67.13,-242.85 -59.97,-284.39 -61.25 C -311.10 -62.06,-317.52 -64.17,-349.31 -82.58 C -398.27 -110.93,-436.20 -119.34,-461.99 -107.57 C -478.42 -100.07,-477.13 -99.60,-482.42 -115.14 C -486.94 -128.45,-486.94 -128.45,-487.02 -121.41 C -487.51 -77.74,-459.86 -37.30,-420.80 -24.55 C -391.93 -15.12,-334.68 -12.25,-313.03 -19.13 C -289.35 -26.65,-264.40 -27.51,-238.60 -21.69 C -179.79 -8.40,-144.85 -13.55,-137.53 -36.56 C -134.17 -47.14,-135.11 -85.60,-139.18 -103.79 C -143.50 -123.10,-163.42 -135.36,-176.35 -126.65 " opacity="1" transform="matrix(1,0,0,1,0,0)" filter="url(#sandy-curls-pulsing)" fill="#affffa" fill-opacity="1" potraced="yes"/><path id="SvgjsPolyline1374" d="M-142.45 -25.76 C -150.37 -23.19,-155.49 -20.11,-174.29 -6.59 C -227.19 31.44,-245.88 39.35,-290.58 42.67 C -335.88 46.04,-358.63 41.06,-392.66 20.36 C -434.34 -5.00,-453.02 -13.99,-466.34 -15.09 C -483.55 -16.50,-486.87 -11.30,-484.69 13.60 C -483.95 22.10,-483.95 22.10,-483.37 15.60 C -482.82 9.38,-482.79 9.50,-482.61 18.60 C -481.83 59.13,-472.67 95.50,-460.28 107.19 C -439.27 127.03,-413.56 125.83,-350.32 102.05 C -297.80 82.31,-264.26 80.98,-209.69 96.48 C -168.13 108.28,-148.68 106.90,-140.99 91.60 C -133.13 75.97,-126.21 48.53,-126.33 33.48 C -126.61 -2.95,-133.05 -29.62,-140.77 -26.32 C -140.87 -26.28,-141.63 -26.02,-142.45 -25.76 " opacity="1" transform="matrix(1,0,0,1,0,0)" filter="url(#splotchy-flickering)" fill="#5a5dbe" fill-opacity="1" potraced="yes"/><path id="SvgjsPolyline1375" d="M-295.00 -279.11 C -394.53 -274.77,-490.26 -257.54,-493.93 -243.31 C -501.72 -213.05,-494.81 -172.86,-482.28 -175.53 C -480.75 -175.86,-476.35 -176.82,-472.50 -177.67 C -453.75 -181.81,-395.60 -176.12,-360.42 -166.71 C -341.90 -161.76,-334.30 -160.68,-311.00 -159.69 C -302.48 -159.32,-284.92 -157.93,-272.00 -156.59 C -251.71 -154.49,-245.70 -154.24,-228.00 -154.80 C -212.13 -155.29,-204.40 -155.07,-193.80 -153.82 C -168.16 -150.79,-156.02 -152.45,-148.00 -160.09 C -144.00 -163.89,-144.00 -163.89,-144.03 -181.30 C -144.15 -244.93,-151.13 -261.45,-182.83 -273.14 C -192.40 -276.67,-192.92 -276.71,-241.00 -278.24 C -259.42 -278.82,-275.40 -279.42,-276.50 -279.57 C -277.60 -279.71,-285.92 -279.51,-295.00 -279.11 " opacity="1" transform="matrix(1,0,0,1,0,0)" filter="url(#splotchy-flickering)" fill="#f5a623" fill-opacity="1" potraced="yes"/><path id="SvgjsPolyline1376" d="M-301.95 -224.31 C -358.38 -219.00,-482.19 -200.49,-488.35 -196.46 C -490.76 -194.88,-497.26 -176.75,-497.19 -171.80 C -497.15 -169.18,-490.11 -148.70,-485.62 -138.15 C -484.19 -134.77,-481.60 -125.51,-479.88 -117.59 C -475.63 -98.05,-476.03 -98.45,-463.45 -100.96 C -450.10 -103.63,-440.23 -102.94,-412.60 -97.39 C -386.15 -92.07,-383.27 -90.81,-354.48 -71.83 C -318.93 -48.40,-313.15 -46.09,-292.69 -47.11 C -274.52 -48.01,-271.31 -49.23,-236.39 -68.47 C -203.58 -86.54,-198.97 -88.78,-172.95 -99.33 C -138.54 -113.29,-141.42 -110.69,-140.00 -129.12 C -137.72 -158.81,-140.04 -167.12,-155.34 -184.09 C -183.41 -215.23,-238.34 -230.30,-301.95 -224.31 " opacity="1" transform="matrix(1,0,0,1,0,0)" filter="url(#splotchy-flickering)" fill="#d0021b" fill-opacity="1" potraced="yes"/><path id="SvgjsPolyline1377" d="M25.85 -191.08 C 15.35 -187.44,15.35 -187.44,14.75 -176.44 C 13.56 -154.66,6.89 -125.31,-11.75 -59.74 C -40.39 40.99,-42.62 79.84,-21.56 111.47 C -11.27 126.93,8.89 129.96,69.85 125.23 C 84.43 124.10,101.62 122.91,108.07 122.58 C 126.90 121.61,132.37 119.03,139.79 107.64 C 150.12 91.79,151.91 67.98,144.81 41.13 C 132.51 -5.33,110.92 -70.87,96.24 -106.27 C 90.95 -119.02,84.20 -136.10,81.24 -144.22 C 72.45 -168.35,65.25 -180.56,55.50 -187.93 C 44.76 -196.03,41.22 -196.41,25.85 -191.08 " opacity="1" transform="matrix(1,0,0,1,0,0)" filter="url(#pen-wiggly)" fill="#fbec8f" fill-opacity="1" potraced="yes"/><path id="SvgjsPolyline1378" d="M34.10 -241.45 C 15.69 -240.39,5.39 -237.20,5.58 -232.62 C 5.63 -231.56,5.66 -227.11,5.64 -222.71 C 5.60 -209.18,9.77 -190.11,14.53 -182.05 C 17.08 -177.71,23.50 -176.49,35.14 -178.12 C 38.97 -178.66,46.71 -179.41,52.35 -179.79 C 57.98 -180.17,63.00 -180.98,63.49 -181.59 C 67.59 -186.62,69.73 -210.47,67.61 -227.59 C 66.33 -237.98,66.33 -237.98,60.22 -239.52 C 53.87 -241.13,42.74 -241.95,34.10 -241.45 " opacity="1" transform="matrix(1,0,0,1,0,0)" filter="url(#pen-wiggly)" fill="#ed4b4b" fill-opacity="1" potraced="yes"/><path id="SvgjsPolyline1379" d="M47.00 116.59 C 46.65 117.15,46.86 117.91,47.45 118.28 C 48.99 119.23,49.98 117.93,48.70 116.65 C 47.98 115.93,47.42 115.91,47.00 116.59 " opacity="1" transform="matrix(1,0,0,1,0,0)" filter="url(#crosshatching-sideshuffle)" fill="#ff9a9a" fill-opacity="1" potraced="yes"/><path id="SvgjsPolyline1380" d="M99.70 -85.07 C 99.70 -84.75,100.56 -81.03,101.62 -76.82 C 106.38 -57.77,114.26 20.08,113.44 39.85 C 112.62 59.38,103.85 80.00,90.70 93.31 C 76.23 107.97,62.81 111.51,14.70 113.32 C -21.24 114.67,-26.15 116.75,-18.72 127.47 C -14.26 133.90,-12.26 134.27,31.70 136.93 C 90.45 140.47,106.27 139.94,122.20 133.87 C 148.00 124.05,156.57 109.13,156.66 73.92 C 156.74 42.15,151.85 23.95,131.30 -20.41 C 123.97 -36.22,116.08 -54.09,113.77 -60.12 C 109.38 -71.58,99.70 -88.74,99.70 -85.07 " opacity="1" transform="matrix(1,0,0,1,0,0)" filter="url(#crosshatching-sideshuffle)" fill="#ff9a9a" fill-opacity="1" potraced="yes"/><path id="SvgjsPolyline1381" d="M45.22 -175.62 C 40.01 -174.91,31.34 -174.02,25.95 -173.63 C 14.43 -172.81,14.79 -173.16,12.60 -160.36 C 11.78 -155.57,10.89 -150.75,10.63 -149.65 C 10.37 -148.55,12.64 -152.49,15.69 -158.40 C 20.57 -167.89,22.98 -171.69,21.72 -167.90 C 1.00 -105.63,-11.93 -60.05,-12.95 -45.65 C -13.58 -36.73,-8.66 -38.25,10.20 -52.83 C 16.53 -57.72,23.81 -63.17,26.39 -64.94 C 31.87 -68.70,31.83 -68.55,32.61 -91.15 C 33.33 -112.07,38.93 -137.10,43.81 -141.26 C 51.54 -147.84,63.29 -146.61,75.44 -137.95 C 84.42 -131.55,84.63 -131.61,83.82 -140.40 C 82.63 -153.35,77.17 -169.18,71.92 -174.90 C 69.46 -177.57,61.21 -177.79,45.22 -175.62 " opacity="1" transform="matrix(1,0,0,1,0,0)" filter="url(#crosshatching-sideshuffle)" fill="#ff9a9a" fill-opacity="1" potraced="yes"/><path id="SvgjsPolyline1382" d="M36.55 -90.38 C -2.11 -79.07,-15.76 -13.96,14.71 13.75 C 25.12 23.21,48.78 28.55,59.80 23.93 C 66.09 21.29,64.44 20.17,55.28 20.87 C 22.31 23.41,3.14 5.52,3.17 -27.75 C 3.21 -65.71,29.57 -94.14,56.11 -84.81 C 79.43 -76.62,98.25 -48.79,99.32 -20.92 C 100.41 7.24,94.70 17.87,77.36 19.94 C 71.59 20.63,67.77 22.31,67.22 24.40 C 65.41 31.33,92.57 23.06,98.63 14.84 C 108.38 1.58,107.21 -36.39,96.48 -54.27 C 80.67 -80.66,55.38 -95.89,36.55 -90.38 " opacity="1" transform="matrix(1,0,0,1,0,0)" filter="url(#pen-wiggly)" fill="#fdfff0" fill-opacity="1" potraced="yes"/><path id="SvgjsPolyline1383" d="M31.60 -60.18 C 31.60 -56.10,34.68 -48.50,36.33 -48.50 C 38.10 -48.50,37.61 -56.75,35.62 -60.47 C 34.13 -63.25,31.60 -63.07,31.60 -60.18 " opacity="1" transform="matrix(1,0,0,1,0,0)" filter="url(#pen-wiggly)" fill="#fdfff0" fill-opacity="1" potraced="yes"/><path id="SvgjsPolyline1384" d="M43.41 -65.20 C 43.53 -61.68,46.91 -52.60,48.27 -52.14 C 49.69 -51.67,49.34 -61.22,47.78 -65.28 C 46.91 -67.53,43.33 -67.47,43.41 -65.20 " opacity="1" transform="matrix(1,0,0,1,0,0)" filter="url(#pen-wiggly)" fill="#fdfff0" fill-opacity="1" potraced="yes"/><path id="SvgjsPolyline1385" d="M49.65 -42.46 C 24.48 -35.12,12.43 -29.48,19.16 -28.19 C 22.39 -27.56,69.15 -44.19,69.15 -45.96 C 69.15 -47.68,65.06 -46.94,49.65 -42.46 " opacity="1" transform="matrix(1,0,0,1,0,0)" filter="url(#pen-wiggly)" fill="#fdfff0" fill-opacity="1" potraced="yes"/><path id="SvgjsPolyline1386" d="M59.67 -60.87 C 62.79 -35.01,61.08 -14.24,55.71 -12.89 C 48.08 -10.97,35.13 -24.84,25.82 -44.90 C 23.37 -50.18,20.89 -54.50,20.30 -54.50 C 14.51 -54.50,25.50 -31.78,38.36 -17.17 C 51.76 -1.94,66.38 -6.68,66.26 -26.22 C 66.20 -36.56,61.96 -64.78,60.39 -65.30 C 59.38 -65.64,59.21 -64.63,59.67 -60.87 " opacity="1" transform="matrix(1,0,0,1,0,0)" filter="url(#pen-wiggly)" fill="#fdfff0" fill-opacity="1" potraced="yes"/><path id="SvgjsPolyline1387" d="M59.70 -36.74 C 58.05 -34.14,57.09 -33.56,54.82 -33.81 C 52.84 -34.02,50.83 -33.19,48.17 -31.06 C 43.65 -27.42,43.30 -27.38,39.81 -30.13 C 35.38 -33.62,33.77 -30.75,38.02 -26.93 C 42.01 -23.35,43.87 -23.27,48.25 -26.50 C 50.42 -28.10,52.96 -29.00,55.32 -29.00 C 57.38 -29.00,59.56 -29.66,60.25 -30.50 C 62.32 -33.00,63.12 -32.25,64.83 -26.25 C 67.83 -15.73,70.48 -16.70,69.01 -27.78 C 67.42 -39.69,63.78 -43.19,59.70 -36.74 " opacity="1" transform="matrix(1,0,0,1,0,0)" filter="url(#pen-wiggly)" fill="#fdfff0" fill-opacity="1" potraced="yes"/><path id="SvgjsPolyline1388" d="M76.78 -55.29 C 75.77 -53.67,77.20 -50.25,78.88 -50.25 C 79.92 -50.25,80.29 -51.07,80.07 -52.92 C 79.73 -55.75,77.88 -57.08,76.78 -55.29 " opacity="1" transform="matrix(1,0,0,1,0,0)" filter="url(#pen-wiggly)" fill="#fdfff0" fill-opacity="1" potraced="yes"/><path id="SvgjsPolyline1389" d="M10.44 -27.80 C 9.43 -26.80,9.60 -22.98,10.79 -19.84 C 12.51 -15.32,15.46 -19.02,14.18 -24.09 C 13.27 -27.72,11.81 -29.17,10.44 -27.80 " opacity="1" transform="matrix(1,0,0,1,0,0)" filter="url(#pen-wiggly)" fill="#fdfff0" fill-opacity="1" potraced="yes"/><path id="SvgjsPolyline1390" d="M78.20 -12.72 C 73.62 -8.81,62.62 -3.55,58.99 -3.55 C 56.63 -3.55,55.90 -3.11,55.90 -1.66 C 55.90 4.47,68.86 0.38,78.58 -8.81 C 85.72 -15.56,85.39 -18.89,78.20 -12.72 " opacity="1" transform="matrix(1,0,0,1,0,0)" filter="url(#pen-wiggly)" fill="#fdfff0" fill-opacity="1" potraced="yes"/><path id="SvgjsPolyline1391" d="M0.05 48.85 C -7.74 51.28,-15.86 56.25,-12.03 56.25 C -10.26 56.25,5.05 48.95,5.05 48.11 C 5.05 47.64,4.94 47.29,4.80 47.35 C 4.66 47.40,2.53 48.08,0.05 48.85 " opacity="1" transform="matrix(1,0,0,1,0,0)" filter="url(#pen-wiggly)" fill="#ff3e3e" fill-opacity="1" potraced="yes"/><path id="SvgjsPolyline1392" d="M-5.15 60.37 C -12.06 63.64,-15.52 66.40,-12.73 66.40 C -11.78 66.40,3.89 58.36,5.05 57.28 C 7.19 55.29,2.67 56.66,-5.15 60.37 " opacity="1" transform="matrix(1,0,0,1,0,0)" filter="url(#pen-wiggly)" fill="#ff3e3e" fill-opacity="1" potraced="yes"/><path id="SvgjsPolyline1393" d="M-7.30 47.06 C -7.30 50.52,-0.73 72.58,2.06 78.47 C 5.57 85.89,5.37 81.55,1.70 70.69 C 0.05 65.81,-2.25 58.41,-3.40 54.26 C -5.61 46.30,-7.30 43.17,-7.30 47.06 " opacity="1" transform="matrix(1,0,0,1,0,0)" filter="url(#pen-wiggly)" fill="#ff3e3e" fill-opacity="1" potraced="yes"/><path id="SvgjsPolyline1394" d="M13.57 47.38 C 11.50 50.01,10.83 52.76,12.25 52.74 C 12.66 52.74,13.77 51.39,14.70 49.74 C 17.62 44.62,20.36 48.36,20.56 57.75 C 20.61 59.68,21.01 62.15,21.46 63.25 C 23.12 67.29,23.82 61.90,22.59 54.48 C 20.90 44.26,17.89 41.89,13.57 47.38 " opacity="1" transform="matrix(1,0,0,1,0,0)" filter="url(#pen-wiggly)" fill="#ff3e3e" fill-opacity="1" potraced="yes"/><path id="SvgjsPolyline1395" d="M18.60 66.13 C 11.15 67.93,7.63 69.96,12.10 69.86 C 14.91 69.81,24.55 67.25,28.35 65.54 C 33.35 63.31,29.26 63.55,18.60 66.13 " opacity="1" transform="matrix(1,0,0,1,0,0)" filter="url(#pen-wiggly)" fill="#ff3e3e" fill-opacity="1" potraced="yes"/><path id="SvgjsPolyline1396" d="M40.75 53.61 C 39.10 54.16,37.11 54.81,36.33 55.06 C 35.33 55.38,35.23 55.83,35.98 56.58 C 36.73 57.33,38.40 57.04,41.64 55.60 C 48.19 52.70,47.58 51.33,40.75 53.61 " opacity="1" transform="matrix(1,0,0,1,0,0)" filter="url(#pen-wiggly)" fill="#ff3e3e" fill-opacity="1" potraced="yes"/><path id="SvgjsPolyline1397" d="M54.40 40.31 C 53.51 41.75,52.47 60.31,53.13 62.94 C 54.00 66.38,58.92 68.89,63.07 68.00 C 68.54 66.82,68.45 66.07,62.76 65.55 C 55.37 64.88,54.64 63.30,55.59 50.22 C 56.23 41.42,55.82 38.01,54.40 40.31 " opacity="1" transform="matrix(1,0,0,1,0,0)" filter="url(#pen-wiggly)" fill="#ff3e3e" fill-opacity="1" potraced="yes"/><path id="SvgjsPolyline1398" d="M61.60 52.46 C 59.26 53.29,57.35 54.37,57.35 54.86 C 57.35 56.24,62.98 55.27,65.82 53.41 C 70.39 50.42,68.54 50.01,61.60 52.46 " opacity="1" transform="matrix(1,0,0,1,0,0)" filter="url(#pen-wiggly)" fill="#ff3e3e" fill-opacity="1" potraced="yes"/><path id="SvgjsPolyline1399" d="M70.57 39.93 C 68.14 42.36,68.01 44.27,70.12 46.38 C 72.40 48.66,75.02 48.31,76.51 45.52 C 79.06 40.76,74.26 36.24,70.57 39.93 M74.21 42.52 C 75.06 44.72,72.77 46.92,71.60 45.03 C 70.62 43.45,71.29 40.95,72.69 40.95 C 73.20 40.95,73.88 41.65,74.21 42.52 " opacity="1" transform="matrix(1,0,0,1,0,0)" filter="url(#pen-wiggly)" fill="#ff3e3e" fill-opacity="1" potraced="yes"/><path id="SvgjsPolyline1400" d="M55.81 -209.92 C 53.38 -208.64,51.42 -207.18,51.45 -206.67 C 51.47 -206.16,51.86 -203.21,52.30 -200.10 C 53.87 -189.09,50.69 -188.90,47.94 -199.84 C 46.07 -207.27,44.71 -207.74,33.27 -204.88 C 27.84 -203.53,20.59 -202.12,17.15 -201.74 C 13.71 -201.36,10.90 -200.65,10.90 -200.15 C 10.90 -198.50,19.26 -199.21,31.26 -201.88 C 44.76 -204.87,43.91 -205.20,46.54 -195.96 C 50.38 -182.45,57.81 -188.94,54.66 -203.06 C 54.00 -206.04,54.22 -206.52,56.99 -208.06 C 65.07 -212.53,63.99 -214.24,55.81 -209.92 " opacity="1" transform="matrix(1,0,0,1,0,0)" filter="url(#pen-wiggly)" fill="#c42222" fill-opacity="1" potraced="yes"/><path id="SvgjsPolyline1401" d="M25.82 -170.60 C 25.55 -170.16,24.18 -164.20,22.78 -157.35 C 21.38 -150.50,19.16 -140.63,17.86 -135.40 C 15.48 -125.90,15.48 -125.90,15.85 -135.90 C 16.32 -148.80,15.95 -147.79,11.72 -124.61 C 9.79 -114.00,6.43 -98.25,4.27 -89.61 C -1.85 -65.19,-10.80 -24.15,-10.80 -20.51 C -10.80 -14.03,-8.31 -18.07,-6.13 -28.08 C -3.26 -41.30,4.00 -65.95,6.35 -70.46 C 7.38 -72.44,10.24 -82.70,12.70 -93.28 C 15.16 -103.85,17.84 -114.84,18.66 -117.70 C 24.71 -138.83,29.90 -177.20,25.82 -170.60 M14.87 -123.73 C 14.50 -123.37,14.20 -123.67,14.20 -124.40 C 14.20 -125.13,14.50 -125.43,14.87 -125.07 C 15.23 -124.70,15.23 -124.10,14.87 -123.73 " opacity="1" transform="matrix(1,0,0,1,0,0)" filter="url(#parallel-hatches-fine)" fill="#fcfae6" fill-opacity="1" potraced="yes"/><path id="SvgjsPolyline1402" d="M63.94 -165.33 C 65.47 -157.70,90.48 -93.54,102.83 -65.55 C 122.21 -21.64,123.07 -17.84,123.00 23.45 C 122.96 47.34,122.66 52.53,120.75 62.95 C 117.44 81.01,114.90 87.04,117.59 70.45 C 119.21 60.43,120.70 1.93,119.56 -6.94 C 118.40 -15.92,114.56 -32.90,113.85 -32.18 C 113.60 -31.93,114.17 -25.95,115.12 -18.89 C 120.20 18.86,115.56 82.38,105.57 111.89 C 103.91 116.80,102.55 121.74,102.55 122.85 C 102.55 127.50,105.58 121.32,112.03 103.54 C 123.03 73.17,125.48 60.53,126.26 29.94 C 127.34 -12.05,125.09 -22.30,104.66 -68.55 C 96.52 -86.97,84.32 -117.01,77.55 -135.30 C 66.56 -164.95,62.01 -175.01,63.94 -165.33 " opacity="1" transform="matrix(1,0,0,1,0,0)" filter="url(#parallel-hatches-fine)" fill="#fcfae6" fill-opacity="1" potraced="yes"/><path id="SvgjsPolyline1403" d="M-35.13 112.64 C -36.92 114.87,-39.04 116.70,-39.84 116.70 C -49.56 116.70,-107.16 140.12,-136.46 155.99 C -216.67 199.44,-242.63 229.42,-219.80 252.25 C -206.01 266.04,-193.42 266.32,-176.80 253.21 C -160.48 240.33,-153.60 236.99,-136.71 233.73 C -121.84 230.86,-110.20 231.16,-78.30 235.21 C 6.24 245.97,17.02 245.35,62.07 227.06 C 99.08 212.03,111.38 202.11,136.17 167.28 C 146.49 152.78,147.97 149.25,148.04 138.96 C 148.17 120.53,144.26 120.29,95.70 135.70 C 63.35 145.96,61.91 146.18,28.70 146.19 C -2.04 146.20,-0.83 146.41,-22.30 137.51 C -39.59 130.35,-45.91 116.97,-33.31 114.20 C -29.62 113.39,-29.00 112.49,-30.61 110.29 C -31.74 108.74,-32.18 108.97,-35.13 112.64 " opacity="1" transform="matrix(1,0,0,1,0,0)" filter="url(#parallel-hatches-fine)" fill="#f1ecc6" fill-opacity="1" potraced="yes"/><path id="SvgjsPolyline1404" d="M-474.94 -243.66 C -486.67 -231.93,-487.25 -150.39,-475.96 -101.75 C -475.38 -99.25,-475.38 -99.25,-478.51 -102.19 C -482.65 -106.06,-482.46 -104.96,-477.12 -94.25 C -474.66 -89.30,-472.85 -86.37,-473.10 -87.75 C -475.19 -99.17,-475.20 -99.08,-471.91 -97.39 C -456.87 -89.61,-446.22 -88.84,-428.39 -94.24 C -385.72 -107.17,-361.98 -99.92,-318.65 -60.71 C -293.13 -37.62,-278.68 -31.30,-245.69 -28.79 C -198.44 -25.21,-152.80 -52.74,-139.01 -93.14 C -130.95 -116.75,-136.45 -121.09,-155.20 -105.91 C -161.08 -101.15,-169.10 -94.65,-173.02 -91.47 C -195.53 -73.24,-223.09 -55.18,-234.19 -51.41 C -270.80 -38.95,-304.96 -51.57,-337.20 -89.45 C -363.86 -120.77,-371.65 -126.15,-398.53 -131.81 C -416.11 -135.51,-422.73 -133.55,-439.90 -119.57 C -454.02 -108.06,-460.08 -108.57,-466.78 -121.83 C -473.25 -134.62,-474.67 -175.59,-470.21 -220.75 C -467.67 -246.43,-468.44 -250.16,-474.94 -243.66 " opacity="1" transform="matrix(1,0,0,1,0,0)" filter="url(#parallel-hatches-fine)" fill="#fffce0" fill-opacity="1" potraced="yes"/><path id="SvgjsPolyline1405" d="M-570.98 -301.73 C -570.76 -300.72,-570.04 -300.01,-569.38 -300.15 C -568.71 -300.29,-532.14 -271.12,-488.11 -235.31 C -444.08 -199.51,-407.83 -170.44,-407.56 -170.70 C -407.00 -171.27,-486.73 -237.53,-528.70 -271.37 C -565.92 -301.39,-571.83 -305.62,-570.98 -301.73 " opacity="1" transform="matrix(1,0,0,1,0,0)" filter="url(#parallel-hatches-fine)" fill="#ffbfa6" fill-opacity="1" potraced="yes"/><path id="SvgjsPolyline1406" d="M-532.89 -320.75 C -526.31 -311.64,-430.90 -202.96,-430.15 -203.71 C -429.85 -204.02,-430.73 -205.50,-432.12 -207.01 C -433.51 -208.52,-444.03 -220.55,-455.51 -233.75 C -494.92 -279.08,-536.82 -326.18,-532.89 -320.75 " opacity="1" transform="matrix(1,0,0,1,0,0)" filter="url(#parallel-hatches-fine)" fill="#ffbfa6" fill-opacity="1" potraced="yes"/><path id="SvgjsPolyline1407" d="M-507.30 -315.65 C -503.14 -309.77,-454.96 -252.26,-454.54 -252.68 C -454.27 -252.94,-456.91 -256.66,-460.41 -260.93 C -488.53 -295.31,-513.65 -324.62,-507.30 -315.65 " opacity="1" transform="matrix(1,0,0,1,0,0)" filter="url(#parallel-hatches-fine)" fill="#ffbfa6" fill-opacity="1" potraced="yes"/><path id="SvgjsPolyline1408" d="M-435.76 55.80 C -443.24 67.36,-525.53 209.21,-525.04 209.69 C -524.46 210.27,-526.17 213.11,-491.08 153.05 C -474.85 125.28,-454.33 90.97,-445.46 76.81 C -436.60 62.65,-429.35 50.62,-429.35 50.06 C -429.35 47.47,-431.77 49.63,-435.76 55.80 " opacity="1" transform="matrix(1,0,0,1,0,0)" filter="url(#parallel-hatches-fine)" fill="#a6f3ff" fill-opacity="1" potraced="yes"/><path id="SvgjsPolyline1409" d="M-499.38 109.95 C -531.88 147.09,-537.30 153.54,-533.32 150.31 C -531.08 148.49,-464.25 73.31,-463.82 72.11 C -462.42 68.30,-469.74 76.08,-499.38 109.95 " opacity="1" transform="matrix(1,0,0,1,0,0)" filter="url(#parallel-hatches-fine)" fill="#a6f3ff" fill-opacity="1" potraced="yes"/><path id="SvgjsPolyline1410" d="M-181.08 -255.93 C -183.31 -254.35,-189.80 -245.61,-189.19 -245.01 C -188.84 -244.65,-188.41 -244.55,-188.24 -244.78 C -188.06 -245.01,-186.33 -247.22,-184.39 -249.70 C -179.45 -255.99,-178.52 -257.76,-181.08 -255.93 " opacity="1" transform="matrix(1,0,0,1,0,0)" filter="url(#parallel-hatches-fine)" fill="#a6f3ff" fill-opacity="1" potraced="yes"/><path id="SvgjsPolyline1411" d="M-183.22 -259.27 C -187.38 -254.30,-191.53 -249.11,-192.43 -247.74 C -194.49 -244.59,-193.25 -243.08,-190.98 -245.98 C -190.06 -247.16,-185.81 -252.39,-181.55 -257.60 C -177.29 -262.80,-173.80 -267.34,-173.80 -267.68 C -173.80 -269.69,-176.50 -267.27,-183.22 -259.27 " opacity="1" transform="matrix(1,0,0,1,0,0)" filter="url(#parallel-hatches-fine)" fill="#a6f3ff" fill-opacity="1" potraced="yes"/><path id="SvgjsPolyline1412" d="M-129.97 -299.88 C -159.78 -272.15,-192.34 -235.16,-189.47 -232.29 C -189.16 -231.97,-188.76 -231.90,-188.59 -232.13 C -188.42 -232.36,-186.52 -235.02,-184.38 -238.05 C -176.83 -248.70,-162.95 -263.78,-139.97 -286.32 C -115.65 -310.16,-108.53 -319.82,-129.97 -299.88 " opacity="1" transform="matrix(1,0,0,1,0,0)" filter="url(#parallel-hatches-fine)" fill="#a6f3ff" fill-opacity="1" potraced="yes"/><path id="SvgjsPolyline1413" d="M-125.75 -269.79 C -156.44 -247.64,-172.68 -234.64,-170.55 -233.93 C -169.98 -233.74,-165.58 -236.94,-160.76 -241.04 C -155.94 -245.14,-138.61 -258.26,-122.25 -270.19 C -105.89 -282.13,-92.50 -292.09,-92.50 -292.32 C -92.50 -293.59,-96.67 -290.77,-125.75 -269.79 " opacity="1" transform="matrix(1,0,0,1,0,0)" filter="url(#parallel-hatches-fine)" fill="#a6f3ff" fill-opacity="1" potraced="yes"/><path id="SvgjsPolyline1414" d="M-193.64 -315.75 C -194.80 -311.96,-200.75 -292.66,-206.87 -272.87 C -217.66 -238.00,-220.37 -227.70,-218.20 -229.85 C -216.90 -231.13,-190.70 -320.10,-191.19 -321.56 C -191.39 -322.16,-192.49 -319.55,-193.64 -315.75 " opacity="1" transform="matrix(1,0,0,1,0,0)" filter="url(#parallel-hatches-fine)" fill="#a6f3ff" fill-opacity="1" potraced="yes"/><path id="SvgjsPolyline1415" d="M-252.15 -43.26 C -252.15 -43.05,-239.23 -31.68,-223.44 -18.01 C -207.65 -4.34,-167.99 31.49,-135.31 61.60 C -102.63 91.71,-75.38 116.34,-74.77 116.32 C -74.15 116.31,-75.23 114.87,-77.15 113.13 C -79.07 111.39,-92.80 98.43,-107.65 84.33 C -183.72 12.09,-252.15 -48.33,-252.15 -43.26 " opacity="1" transform="matrix(1,0,0,1,0,0)" filter="url(#parallel-hatches-fine)" fill="#a6f3ff" fill-opacity="1" potraced="yes"/><path id="SvgjsPolyline1416" d="M-217.00 -25.06 C -217.00 -24.57,-194.61 -12.59,-167.25 1.57 C -139.89 15.72,-115.14 28.63,-112.25 30.25 C -109.36 31.87,-107.00 32.78,-107.00 32.26 C -107.00 30.65,-213.37 -25.95,-216.39 -25.95 C -216.73 -25.95,-217.00 -25.55,-217.00 -25.06 " opacity="1" transform="matrix(1,0,0,1,0,0)" filter="url(#parallel-hatches-fine)" fill="#a6f3ff" fill-opacity="1" potraced="yes"/><path id="SvgjsPolyline1417" d="M-253.75 -16.51 C -253.75 -16.17,-250.09 -11.74,-245.61 -6.67 C -238.92 0.91,-143.07 114.82,-139.03 119.99 C -138.36 120.85,-137.80 121.08,-137.78 120.50 C -137.75 119.47,-218.61 21.62,-238.06 -0.84 C -247.21 -11.42,-253.75 -17.95,-253.75 -16.51 " opacity="1" transform="matrix(1,0,0,1,0,0)" filter="url(#parallel-hatches-fine)" fill="#a6f3ff" fill-opacity="1" potraced="yes"/><path id="SvgjsPolyline1418" d="M-276.05 -32.37 C -276.05 -31.89,-275.22 -30.88,-274.20 -30.12 C -273.18 -29.37,-245.43 12.65,-212.53 63.25 C -150.63 158.47,-151.05 157.83,-151.05 156.11 C -151.05 154.93,-175.14 117.55,-227.97 36.75 C -271.84 -30.35,-276.05 -36.40,-276.05 -32.37 " opacity="1" transform="matrix(1,0,0,1,0,0)" filter="url(#parallel-hatches-fine)" fill="#cf5042" fill-opacity="1" potraced="yes"/><path id="SvgjsPolyline1419" d="M-260.63 13.63 C -257.67 19.51,-247.65 36.71,-222.96 78.31 C -216.65 88.94,-211.28 97.42,-211.03 97.16 C -210.77 96.90,-218.39 83.49,-227.97 67.35 C -237.55 51.21,-249.17 31.14,-253.79 22.77 C -262.04 7.82,-266.72 1.57,-260.63 13.63 " opacity="1" transform="matrix(1,0,0,1,0,0)" filter="url(#parallel-hatches-fine)" fill="#cf5042" fill-opacity="1" potraced="yes"/><path id="SvgjsPolyline1420" d="M-551.75 -230.49 C -551.75 -229.92,-550.29 -229.15,-548.50 -228.78 C -546.71 -228.40,-523.77 -219.81,-497.52 -209.70 C -455.22 -193.39,-443.49 -189.19,-448.75 -192.23 C -458.87 -198.07,-551.75 -232.57,-551.75 -230.49 " opacity="1" transform="matrix(1,0,0,1,0,0)" filter="url(#parallel-hatches-fine)" fill="#cf5042" fill-opacity="1" potraced="yes"/><path id="SvgjsPolyline1421" d="M-518.50 -186.90 C -518.50 -186.35,-518.35 -185.90,-518.17 -185.90 C -517.99 -185.90,-505.96 -183.45,-491.44 -180.46 C -468.01 -175.64,-463.05 -174.87,-464.58 -176.29 C -466.21 -177.79,-518.50 -188.09,-518.50 -186.90 " opacity="1" transform="matrix(1,0,0,1,0,0)" filter="url(#parallel-hatches-fine)" fill="#cf5042" fill-opacity="1" potraced="yes"/><path id="SvgjsPolyline1422" d="M242.76 -311.20 C 239.02 -310.52,235.43 -309.43,234.78 -308.78 C 232.10 -306.10,235.66 -267.64,238.88 -264.42 C 242.87 -260.43,270.67 -260.88,273.26 -264.96 C 274.88 -267.51,273.05 -289.83,269.95 -305.40 C 268.44 -313.02,261.27 -314.55,242.76 -311.20 " opacity="1" transform="matrix(1,0,0,1,0,0)" filter="url(#pen-wiggly)" fill="#3c3939" fill-opacity="1" potraced="yes"/><path id="SvgjsPolyline1423" d="M242.63 -258.05 C 236.77 -256.67,235.67 -254.65,234.40 -243.04 C 232.51 -225.84,233.79 -172.03,236.51 -154.05 C 238.04 -143.92,238.59 -136.39,238.34 -129.05 C 237.81 -113.58,238.12 -113.96,212.31 -97.55 C 197.92 -88.41,197.25 -85.39,196.76 -27.56 C 196.11 48.71,200.26 128.83,205.27 136.95 C 211.83 147.59,233.65 164.97,245.40 168.92 C 283.93 181.87,336.57 158.42,344.62 124.71 C 346.95 114.94,347.13 95.32,345.08 75.31 C 344.29 67.69,343.37 47.50,343.03 30.45 C 341.39 -51.51,335.22 -73.32,306.67 -98.02 C 286.50 -115.46,288.17 -108.15,285.99 -188.55 C 284.05 -260.12,286.87 -252.47,261.87 -253.87 C 249.89 -254.54,247.84 -254.82,253.50 -255.03 C 267.13 -255.52,274.83 -256.50,275.25 -257.80 C 275.73 -259.24,248.56 -259.45,242.63 -258.05 " opacity="1" transform="matrix(1,0,0,1,0,0)" filter="url(#screentone-fine-pulsing)" fill="#c3f7ed" fill-opacity="1" potraced="yes"/><path id="SvgjsPolyline1424" d="M205.22 -73.39 C 200.23 -65.78,202.16 110.39,207.41 127.27 C 210.73 137.93,225.51 154.05,235.55 157.96 C 245.77 161.95,287.79 163.30,298.67 159.99 C 308.75 156.93,321.35 145.31,328.04 132.90 C 330.59 128.17,330.38 103.20,327.53 70.90 C 325.87 52.07,324.57 28.04,323.95 4.48 C 322.87 -35.95,322.06 -45.17,318.44 -58.47 C 313.55 -76.43,314.89 -75.86,281.15 -74.40 C 239.69 -72.61,225.63 -72.63,217.64 -74.51 C 208.48 -76.65,207.29 -76.54,205.22 -73.39 " opacity="1" transform="matrix(1,0,0,1,0,0)" filter="url(#parallel-hatches-fine)" fill="#a6eaa4" fill-opacity="1" potraced="yes"/><path id="SvgjsPolyline1425" d="M236.80 -252.95 C 232.53 -247.36,232.04 -242.90,231.24 -201.85 C 229.86 -131.36,229.03 -134.97,246.55 -135.77 C 269.03 -136.78,281.24 -139.16,287.40 -143.70 C 290.87 -146.25,290.88 -147.30,287.72 -173.60 C 286.39 -184.74,285.01 -200.37,284.66 -208.35 C 284.31 -216.32,283.15 -229.82,282.09 -238.35 C 281.02 -246.87,280.15 -254.13,280.15 -254.48 C 280.15 -254.83,278.24 -254.44,275.90 -253.62 C 270.00 -251.55,246.35 -252.34,242.70 -254.72 C 239.51 -256.81,239.81 -256.90,236.80 -252.95 " opacity="1" transform="matrix(1,0,0,1,0,0)" filter="url(#pen-wiggly)" fill="#f8d41c" fill-opacity="1" potraced="yes"/><path id="SvgjsPolyline1426" d="M233.12 -217.21 C 233.13 -208.69,235.01 -175.50,235.51 -175.01 C 235.70 -174.81,238.95 -174.18,242.73 -173.60 C 246.51 -173.02,256.35 -169.96,264.60 -166.79 C 283.38 -159.58,290.06 -157.38,290.84 -158.16 C 291.17 -158.49,290.24 -165.40,288.76 -173.51 C 287.28 -181.62,285.73 -190.73,285.32 -193.75 C 284.57 -199.25,284.57 -199.25,273.58 -199.28 C 256.74 -199.32,244.00 -205.98,236.35 -218.74 C 233.10 -224.16,233.10 -224.16,233.12 -217.21 " opacity="1" transform="matrix(1,0,0,1,0,0)" filter="url(#screentone-medium-pulsing)" fill="#fffade" fill-opacity="1" potraced="yes"/><path id="SvgjsPolyline1427" d="M201.11 -29.79 C 198.53 -26.17,198.66 -16.02,201.62 10.35 C 202.47 17.92,203.52 42.18,204.07 66.65 C 205.34 123.45,204.95 121.87,218.95 127.45 C 232.89 133.01,236.00 133.40,262.65 132.92 C 299.30 132.27,310.23 125.56,313.53 101.65 C 315.97 83.91,311.09 9.31,306.07 -12.35 C 303.36 -24.03,302.20 -25.43,297.25 -22.90 C 281.88 -15.06,233.09 -18.08,213.24 -28.10 C 208.61 -30.44,204.49 -32.48,204.09 -32.65 C 203.69 -32.81,202.34 -31.53,201.11 -29.79 " opacity="1" transform="matrix(1,0,0,1,0,0)" filter="url(#parallel-hatches-fine)" fill="#fffdf6" fill-opacity="1" potraced="yes"/><path id="SvgjsPolyline1428" d="M197.96 -21.10 C 198.29 -17.39,199.06 8.60,199.67 36.65 C 201.44 117.69,202.74 123.65,220.64 132.46 C 235.65 139.84,288.71 132.64,306.39 120.83 C 320.38 111.48,322.27 80.17,313.62 0.88 C 310.64 -26.45,310.98 -26.16,286.15 -22.49 C 250.18 -17.16,211.96 -18.92,201.30 -26.38 C 197.77 -28.86,197.33 -28.17,197.96 -21.10 " opacity="1" transform="matrix(1,0,0,1,0,0)" filter="url(#parallel-hatches-fine)" fill="#fffdf6" fill-opacity="1" potraced="yes"/><path id="SvgjsPolyline1429" d="M267.05 -286.60 C 264.50 -285.59,264.30 -285.10,264.30 -279.79 C 264.30 -272.85,263.64 -270.90,261.30 -270.90 C 259.35 -270.90,258.74 -271.94,256.35 -279.40 C 254.74 -284.40,254.74 -284.40,248.01 -285.31 C 244.31 -285.81,240.96 -285.90,240.57 -285.50 C 239.23 -284.16,242.79 -282.93,248.04 -282.91 C 253.28 -282.90,253.28 -282.90,253.90 -278.97 C 256.11 -265.18,266.97 -263.82,266.47 -277.40 C 266.24 -283.56,266.37 -283.98,268.76 -284.89 C 270.16 -285.42,271.30 -286.31,271.30 -286.88 C 271.30 -288.09,270.71 -288.05,267.05 -286.60 " opacity="1" transform="matrix(1,0,0,1,0,0)" filter="url(#pen-wiggly)" fill="#fffdf6" fill-opacity="1" potraced="yes"/><path id="SvgjsPolyline1430" d="M205.07 23.15 C 205.23 37.18,206.22 45.87,207.70 46.36 C 209.29 46.88,209.37 38.28,207.88 24.81 C 206.41 11.56,204.92 10.67,205.07 23.15 " opacity="1" transform="matrix(1,0,0,1,0,0)" filter="url(#pen-wiggly)" fill="#3f7cb0" fill-opacity="1" potraced="yes"/><path id="SvgjsPolyline1431" d="M206.90 13.32 C 205.04 14.33,203.93 15.41,204.45 15.74 C 204.97 16.06,206.05 15.90,206.85 15.40 C 207.65 14.89,209.80 14.47,211.63 14.46 C 213.85 14.45,214.83 14.03,214.56 13.20 C 213.92 11.26,210.64 11.31,206.90 13.32 " opacity="1" transform="matrix(1,0,0,1,0,0)" filter="url(#pen-wiggly)" fill="#3f7cb0" fill-opacity="1" potraced="yes"/><path id="SvgjsPolyline1432" d="M210.95 25.63 C 206.62 26.53,204.32 28.40,207.53 28.40 C 210.70 28.40,220.20 26.05,220.20 25.26 C 220.20 24.21,217.21 24.32,210.95 25.63 " opacity="1" transform="matrix(1,0,0,1,0,0)" filter="url(#pen-wiggly)" fill="#3f7cb0" fill-opacity="1" potraced="yes"/><path id="SvgjsPolyline1433" d="M223.54 11.24 C 222.60 12.19,225.74 43.03,227.09 46.12 C 228.49 49.30,228.49 49.30,228.57 46.30 C 228.85 36.11,225.07 9.72,223.54 11.24 " opacity="1" transform="matrix(1,0,0,1,0,0)" filter="url(#pen-wiggly)" fill="#3f7cb0" fill-opacity="1" potraced="yes"/><path id="SvgjsPolyline1434" d="M231.29 33.78 C 229.33 37.44,230.00 40.39,232.82 40.63 C 237.86 41.04,242.66 36.26,240.20 33.29 C 238.40 31.12,232.54 31.45,231.29 33.78 M238.06 35.60 C 237.87 36.66,236.64 37.48,234.99 37.67 C 232.06 38.00,231.92 37.87,232.86 35.43 C 233.73 33.16,238.50 33.31,238.06 35.60 " opacity="1" transform="matrix(1,0,0,1,0,0)" filter="url(#pen-wiggly)" fill="#3f7cb0" fill-opacity="1" potraced="yes"/><path id="SvgjsPolyline1435" d="M247.25 37.70 C 248.00 46.66,249.51 48.80,250.49 42.27 C 251.03 38.70,252.05 36.78,254.82 34.16 C 259.22 29.99,256.83 29.25,252.03 33.29 C 249.12 35.74,248.95 35.77,248.95 33.85 C 248.95 32.73,248.43 31.50,247.79 31.10 C 246.93 30.57,246.79 32.28,247.25 37.70 " opacity="1" transform="matrix(1,0,0,1,0,0)" filter="url(#pen-wiggly)" fill="#3f7cb0" fill-opacity="1" potraced="yes"/><path id="SvgjsPolyline1436" d="M266.00 33.15 C 266.00 34.81,270.16 46.27,271.31 47.77 C 273.44 50.55,273.12 47.70,270.45 40.04 C 267.97 32.90,266.00 29.86,266.00 33.15 " opacity="1" transform="matrix(1,0,0,1,0,0)" filter="url(#pen-wiggly)" fill="#3f7cb0" fill-opacity="1" potraced="yes"/><path id="SvgjsPolyline1437" d="M267.02 25.34 C 263.69 26.79,261.74 28.90,263.72 28.90 C 264.97 28.90,271.65 25.04,271.65 24.32 C 271.65 23.62,270.30 23.92,267.02 25.34 " opacity="1" transform="matrix(1,0,0,1,0,0)" filter="url(#pen-wiggly)" fill="#3f7cb0" fill-opacity="1" potraced="yes"/><path id="SvgjsPolyline1438" d="M281.27 30.56 C 277.05 38.93,280.44 50.87,285.19 44.37 C 287.16 41.68,286.86 40.31,284.72 42.25 C 281.50 45.16,280.25 38.92,282.67 32.00 C 284.11 27.87,283.13 26.86,281.27 30.56 " opacity="1" transform="matrix(1,0,0,1,0,0)" filter="url(#pen-wiggly)" fill="#3f7cb0" fill-opacity="1" potraced="yes"/><path id="SvgjsPolyline1439" d="M282.35 9.94 C 282.35 20.08,286.65 42.40,288.60 42.40 C 289.14 42.40,289.32 41.39,288.99 40.15 C 288.30 37.55,285.58 20.13,284.78 13.15 C 284.28 8.83,282.35 6.28,282.35 9.94 " opacity="1" transform="matrix(1,0,0,1,0,0)" filter="url(#pen-wiggly)" fill="#3f7cb0" fill-opacity="1" potraced="yes"/><path id="SvgjsPolyline1440" d="M291.50 27.90 C 290.36 28.64,290.78 28.87,293.23 28.89 C 295.38 28.90,297.56 29.88,299.73 31.83 C 303.21 34.95,303.25 34.86,297.84 36.43 C 296.47 36.83,295.08 42.41,295.99 43.88 C 297.62 46.52,305.50 43.06,305.50 39.69 C 305.50 39.06,304.41 39.58,303.07 40.83 C 301.74 42.08,300.17 42.81,299.57 42.45 C 297.53 41.18,298.51 38.72,301.50 37.59 C 305.46 36.10,305.30 33.81,300.97 30.00 C 297.38 26.85,294.21 26.15,291.50 27.90 " opacity="1" transform="matrix(1,0,0,1,0,0)" filter="url(#pen-wiggly)" fill="#3f7cb0" fill-opacity="1" potraced="yes"/><path id="SvgjsPolyline1441" d="M214.05 58.01 C 213.25 59.30,218.58 69.76,222.30 74.21 C 225.82 78.42,227.11 77.73,229.82 70.21 C 231.67 65.06,231.67 65.06,234.00 67.90 C 235.28 69.47,236.34 71.09,236.36 71.50 C 236.47 73.72,239.24 71.79,239.77 69.13 C 241.07 62.66,240.45 56.29,238.86 59.75 C 238.11 61.40,237.47 63.84,237.44 65.17 C 237.40 67.60,237.40 67.60,234.95 65.30 C 231.65 62.19,229.93 63.15,227.92 69.18 C 225.50 76.49,224.68 76.05,218.40 64.13 C 216.34 60.22,214.38 57.46,214.05 58.01 " opacity="1" transform="matrix(1,0,0,1,0,0)" filter="url(#pen-wiggly)" fill="#3f7cb0" fill-opacity="1" potraced="yes"/><path id="SvgjsPolyline1442" d="M249.17 58.73 C 248.87 59.22,249.99 60.18,251.65 60.87 C 256.42 62.85,257.45 65.76,254.27 68.30 C 250.84 71.03,250.27 75.22,253.27 75.66 C 255.67 76.00,262.60 70.51,261.34 69.26 C 260.92 68.84,259.24 69.78,257.60 71.35 C 255.96 72.92,254.28 73.86,253.86 73.44 C 253.44 73.02,254.34 71.62,255.85 70.31 C 257.36 69.01,258.60 67.10,258.60 66.07 C 258.60 63.05,250.44 56.69,249.17 58.73 " opacity="1" transform="matrix(1,0,0,1,0,0)" filter="url(#pen-wiggly)" fill="#3f7cb0" fill-opacity="1" potraced="yes"/><path id="SvgjsPolyline1443" d="M268.95 61.15 C 264.90 62.40,262.41 64.55,265.02 64.55 C 267.03 64.55,276.17 61.40,276.72 60.52 C 277.55 59.18,274.59 59.42,268.95 61.15 " opacity="1" transform="matrix(1,0,0,1,0,0)" filter="url(#pen-wiggly)" fill="#3f7cb0" fill-opacity="1" potraced="yes"/><path id="SvgjsPolyline1444" d="M272.87 50.52 C 270.62 52.76,274.72 81.85,277.28 81.85 C 278.49 81.85,278.41 80.61,276.70 72.85 C 275.91 69.27,275.25 62.64,275.24 58.10 C 275.20 50.52,274.65 48.74,272.87 50.52 " opacity="1" transform="matrix(1,0,0,1,0,0)" filter="url(#pen-wiggly)" fill="#3f7cb0" fill-opacity="1" potraced="yes"/><path id="SvgjsPolyline1445" d="M283.36 68.64 C 280.87 74.12,285.21 82.24,289.42 79.98 C 291.88 78.66,291.64 77.43,288.95 77.52 C 287.23 77.58,286.78 77.13,287.06 75.60 C 288.51 67.39,286.05 62.75,283.36 68.64 M285.88 71.29 C 285.56 72.09,285.33 71.85,285.28 70.68 C 285.24 69.63,285.47 69.04,285.80 69.37 C 286.14 69.70,286.17 70.57,285.88 71.29 " opacity="1" transform="matrix(1,0,0,1,0,0)" filter="url(#pen-wiggly)" fill="#3f7cb0" fill-opacity="1" potraced="yes"/><path id="SvgjsPolyline1446" d="M303.98 62.15 C 302.41 63.33,300.33 65.58,299.37 67.16 C 297.63 70.03,297.63 70.03,296.37 66.99 C 295.05 63.80,292.71 62.68,293.68 65.70 C 297.55 77.75,298.19 78.34,300.25 71.88 C 300.88 69.91,302.95 66.79,304.87 64.93 C 310.02 59.94,309.43 58.09,303.98 62.15 " opacity="1" transform="matrix(1,0,0,1,0,0)" filter="url(#pen-wiggly)" fill="#3f7cb0" fill-opacity="1" potraced="yes"/><path id="SvgjsPolyline1447" d="M341.05 156.46 C 333.06 160.71,309.72 168.39,297.26 170.88 C 287.58 172.81,268.19 173.50,250.81 172.54 C 227.45 171.24,227.45 171.45,250.81 194.46 C 267.48 210.88,270.86 213.35,290.83 223.77 C 321.36 239.68,395.94 265.21,419.22 267.72 C 424.76 268.31,433.25 269.74,438.08 270.89 C 446.87 272.98,446.87 272.98,468.01 267.93 C 483.30 264.28,493.58 262.45,505.15 261.32 C 555.06 256.45,555.90 251.30,510.65 227.34 C 501.58 222.54,483.80 212.41,471.15 204.84 C 410.64 168.63,356.22 148.39,341.05 156.46 " opacity="1" transform="matrix(1,0,0,1,0,0)" filter="url(#sandy-curls-pulsing)" fill="#5aab6c" fill-opacity="1" potraced="yes"/></g></g><filter xmlns="http://www.w3.org/2000/svg" id="screentone-fine-pulsing"><feImage id="SvgjsFeImage1785" cellheight="4" cellwidth="4" dx="10" dy="10" filtername="feImage" href="#1bGD2van" patterntype="grid" result="BcGV3I" rotation="0" sx="20" sy="20" type="turbulence" unitrot="0" unittype="circle"><animate id="SvgjsAnimate1786" attributeName="cellwidth" dur="2.2" values="3;1;3" attributeType="XML" repeatCount="indefinite"/><animate id="SvgjsAnimate1787" attributeName="cellheight" dur="2.2" values="3;1;3" attributeType="XML" repeatCount="indefinite"/></feImage><feImage id="SvgjsFeImage1788" cellheight="4" cellwidth="4" dx="10" dy="10" filtername="feImage" href="#mEb90HXk" patterntype="grid" result="pe2jcK" rotation="0" sx="5" sy="5" type="turbulence" unitrot="0" unittype="circle"><animate id="SvgjsAnimate1789" attributeName="cellwidth" dur="2.2" values="1;3;1" attributeType="XML" repeatCount="indefinite"/><animate id="SvgjsAnimate1790" attributeName="cellheight" dur="2.2" values="1;3;1" attributeType="XML" repeatCount="indefinite"/></feImage><feComposite id="SvgjsFeComposite1791" filtername="feComposite" in="pe2jcK" in2="BcGV3I" operator="over" result="1iiEfs"/><feComposite id="SvgjsFeComposite1792" filtername="feComposite" in="SourceGraphic" in2="1iiEfs" operator="in" result="yezH8r"/></filter><filter xmlns="http://www.w3.org/2000/svg" id="screentone-medium-pulsing"><feImage id="SvgjsFeImage1846" cellheight="5" cellwidth="5" dx="14" dy="14" filtername="feImage" href="#7PXUQNVd" patterntype="grid" result="8eDNxN" rotation="15" sx="0" sy="0" type="turbulence" unitrot="0" unittype="circle"><animate id="SvgjsAnimate1847" attributeName="cellwidth" dur="1" values="3;8;3" attributeType="XML" repeatCount="indefinite"/><animate id="SvgjsAnimate1848" attributeName="cellheight" dur="1" values="3;8;3" attributeType="XML" repeatCount="indefinite"/></feImage><feImage id="SvgjsFeImage1849" cellheight="5" cellwidth="5" dx="14" dy="14" filtername="feImage" href="#rhyFH3x0" patterntype="grid" result="jDMl2y" rotation="15" sx="7" sy="7" type="turbulence" unitrot="0" unittype="circle"><animate id="SvgjsAnimate1850" attributeName="cellwidth" dur="1" values="3;6;3" attributeType="XML" repeatCount="indefinite"/><animate id="SvgjsAnimate1851" attributeName="cellheight" dur="1" values="3;6;3" attributeType="XML" repeatCount="indefinite"/></feImage><feComposite id="SvgjsFeComposite1852" filtername="feComposite" in="8eDNxN" in2="jDMl2y" operator="over" result="Qm0OEx"/><feComposite id="SvgjsFeComposite1853" filtername="feComposite" in="SourceGraphic" in2="Qm0OEx" operator="in" result="jrnUN1"/></filter><filter xmlns="http://www.w3.org/2000/svg" id="splotchy-flickering"><feTurbulence id="SvgjsFeTurbulence1856" baseFrequency="0.25 0.209" filtername="feTurbulence" numOctaves="8" result="nTLuQM" seed="0" stitchTiles="noStitch" type="fractalNoise"/><feComponentTransfer id="SvgjsFeComponentTransfer1857" filtername="feComponentTransfer" in="nTLuQM" result="irk8Sm"><feFuncR id="SvgjsFeFuncR1858" filtername="feFuncR" intercept="0.1" slope="0.1" type="linear"/><feFuncG id="SvgjsFeFuncG1859" filtername="feFuncG" intercept="0.1" slope="0.1" type="linear"/><feFuncB id="SvgjsFeFuncB1860" filtername="feFuncB" intercept="0.1" slope="0.1" type="linear"/></feComponentTransfer><feMorphology id="SvgjsFeMorphology1861" filtername="feMorphology" in="irk8Sm" operator="erode" radius="6" result="HyN6vt"><animate id="SvgjsAnimate1862" attributeName="radius" dur="0.5" values="4;5;4" attributeType="XML" repeatCount="indefinite"/></feMorphology><feConvolveMatrix id="SvgjsFeConvolveMatrix1863" filtername="feConvolveMatrix" in="HyN6vt" kernelMatrix="0 -1 0 -1 5 -1 0 -1 0" result="tTZHfY"/><feComposite id="SvgjsFeComposite1864" filtername="feComposite" in="SourceGraphic" in2="tTZHfY" operator="in" result="gAuK3e"/><feComposite id="SvgjsFeComposite1865" filtername="feComposite" in="gAuK3e" in2="gAuK3e" operator="over" result="CvTrwW"/></filter><filter xmlns="http://www.w3.org/2000/svg" id="crosshatching-sideshuffle"><feImage id="SvgjsFeImage1868" cellheight="50" cellwidth="1" dx="6" dy="50" filtername="feImage" href="#G79Oyy0V" patterntype="grid" result="4YBZ9R" rotation="115" sx="0" sy="0" type="turbulence" unitrot="0" unittype="square"><animate id="SvgjsAnimate1869" attributeName="sx" dur="0.5" values="1;4;1" attributeType="XML" repeatCount="indefinite"/></feImage><feImage id="SvgjsFeImage1870" cellheight="50" cellwidth="1" dx="6" dy="50" filtername="feImage" href="#YgXjnwUC" patterntype="grid" result="yITyeQ" rotation="70" sx="0" sy="0" type="turbulence" unitrot="0" unittype="square"/><feComposite id="SvgjsFeComposite1871" filtername="feComposite" in="yITyeQ" in2="4YBZ9R" operator="over" result="ppWoID"/><feComposite id="SvgjsFeComposite1872" filtername="feComposite" in="SourceGraphic" in2="ppWoID" operator="in" result="6FzKUP"/></filter><filter xmlns="http://www.w3.org/2000/svg" id="parallel-hatches-fine"><feImage id="SvgjsFeImage1896" cellheight="50" cellwidth="2" dx="4" dy="50" filtername="feImage" href="#tGLVnRYU" patterntype="grid" result="KhM0O3" rotation="305" sx="0" sy="0" type="turbulence" unitrot="0" unittype="square"><animate id="SvgjsAnimate1897" attributeName="sx" dur="1" values="5;1" attributeType="XML" repeatCount="indefinite"/></feImage><feTurbulence id="SvgjsFeTurbulence1898" baseFrequency="0.082 0.084" filtername="feTurbulence" numOctaves="1" result="wBA2q5" seed="0" stitchTiles="noStitch" type="fractalNoise"/><feDisplacementMap id="SvgjsFeDisplacementMap1899" filtername="feDisplacementMap" in="KhM0O3" in2="wBA2q5" result="5B25BU" scale="2" xChannelSelector="R" yChannelSelector="G"/><feComposite id="SvgjsFeComposite1900" filtername="feComposite" in="SourceGraphic" in2="5B25BU" operator="in" result="gbkoT2"/></filter><filter xmlns="http://www.w3.org/2000/svg" id="pen-wiggly"><feTurbulence id="SvgjsFeTurbulence2058" baseFrequency="0.1 0.1" filtername="feTurbulence" numOctaves="1" result="2clDB1" seed="0" stitchTiles="noStitch" type="turbulence"><animate id="SvgjsAnimate2059" attributeName="baseFrequency" dur="9" values="0.108 0.092;0.048 0.053;0.1 0.1" attributeType="XML" repeatCount="indefinite"/></feTurbulence><feDisplacementMap id="SvgjsFeDisplacementMap2060" filtername="feDisplacementMap" in="SourceGraphic" in2="2clDB1" result="1Pf3G7" scale="6" xChannelSelector="R" yChannelSelector="G"/></filter><filter xmlns="http://www.w3.org/2000/svg" id="sandy-curls-pulsing"><feImage id="SvgjsFeImage1239" cellheight="25" cellwidth="24" dx="18" dy="19" filtername="feImage" href="#vhGSOiZu" patterntype="grid" result="ySSog7" rotation="200" sx="0" sy="0" type="turbulence" unittype="triangle"><animate id="SvgjsAnimate2075" attributeName="cellwidth" dur="7.9" values="1;29;1" attributeType="XML" repeatCount="indefinite"/></feImage><feImage id="SvgjsFeImage1241" cellheight="25" cellwidth="24" dx="29" dy="38" filtername="feImage" href="#lkPaHDQX" patterntype="grid" result="paOLZn" rotation="240" sx="16" sy="20" type="turbulence" unittype="triangle"/><feComposite id="SvgjsFeComposite1242" filtername="feComposite" in="ySSog7" in2="paOLZn" operator="over" result="CGlSfo"/><feTurbulence id="SvgjsFeTurbulence1243" baseFrequency="0.076 0.069" filtername="feTurbulence" numOctaves="1" result="N6f5ZC" seed="0" stitchTiles="noStitch" type="fractalNoise"/><feGaussianBlur id="SvgjsFeGaussianBlur1244" filtername="feGaussianBlur" in="CGlSfo" result="PzNRLr" stdDeviation="3"/><feDisplacementMap id="SvgjsFeDisplacementMap1245" filtername="feDisplacementMap" in="PzNRLr" in2="N6f5ZC" result="bypfqk" scale="36" xChannelSelector="R" yChannelSelector="G"/><feConvolveMatrix id="SvgjsFeConvolveMatrix1246" filtername="feConvolveMatrix" in="bypfqk" kernelMatrix="-1 -1 -1 -1 4 -1 -1 1 1" result="gfWMId"/><feComposite id="SvgjsFeComposite2082" filtername="feComposite" in="SourceGraphic" in2="gfWMId" operator="in" result="EfiX6J"/></filter><g id="[[filtered.ink-color-palette-data]]"><g id="0-0-none"/><g id="0-1-none"/><g id="0-2-none"/><g id="1-0-none"/><g id="1-1-none"/><g id="1-2-none"/><g id="2-0-none"/><g id="2-1-none"/><g id="2-2-none"/><g id="3-0-none"/><g id="3-1-none"/><g id="3-2-none"/><g id="4-0-none"/><g id="4-1-none"/><g id="4-2-none"/><g id="5-0-none"/><g id="5-1-none"/><g id="5-2-none"/><g id="6-0-none"/><g id="6-1-none"/><g id="6-2-none"/><g id="7-0-none"/><g id="7-1-none"/><g id="7-2-none"/><g id="8-0-none"/><g id="8-1-none"/><g id="8-2-none"/><g id="9-0-none"/><g id="9-1-none"/><g id="9-2-none"/></g><g id="[[filtered.ink-waypoint-data]]"/></svg>