<svg id="main-canvas" width="1038" height="784" xmlns="http://www.w3.org/2000/svg" version="1.1" xmlnsXlink="http://www.w3.org/1999/xlink" xmlnsSvgjs="http://svgjs.com/svgjs" style="background-color: white" viewBox="-169.50331934661213 5.617780673758391 608.1193666316652 459.3117374173656"><defs id="SvgjsDefs1898"><script xmlns="http://www.w3.org/1999/xhtml">function $(id) { return document.getElementById(id) }</script></defs><g id="sketchGroup" transform="matrix(1,0,0,1,519,392)"><g id="layer1"><polyline id="SvgjsPolyline1065" points="-677,-376 -585,-303 -500,-247 -404,-193 -322,-149 -233,-93 -177,-45 -146,-21 -101,8 -61,40" fill-opacity="1" fill="#000000" filter="url(#canvas)" transform="matrix(1,0,0,1,0,0)" opacity="1"/><polyline id="SvgjsPolyline1090" points="-727,-48 -708,-49 -669,-43 -621,-30 -592,-20 -542,-10 -519,-7 -448,-8 -384,-19 -277,-31 -232,-41 -185,-57 -144,-75 -107,-82 -76,-93 -62,-95 0,-95 1,-75 -4,-37 -4,76 -20,82 -48,83 -87,79 -257,79 -268,77 -331,76 -360,73 -421,73 -499,84 -521,84 -581,75 -624,65 -674,64 -704,75 -714,77 -741,77 -743,66 -743,44 -738,11 -739,-37 -736,-42 -731,-45 -727,-45" fill-opacity="1" fill="#65729b" filter="url(#pencil)" transform="matrix(1,0,0,1,0,0)" opacity="1"/><polyline id="SvgjsPolyline1097" points="-640,-31 -571,-59 -546,-65 -499,-70 -476,-69 -453,-62 -435,-53 -408,-34 -382,-23 -382,-19 -388,-13 -399,-7 -434,5 -465,13 -521,14 -569,10 -599,6 -607,3" fill-opacity="1" fill="#65729b" filter="url(#pencil)" transform="matrix(1,0,0,1,0,0)" opacity="1"/><polyline id="SvgjsPolyline1104" points="-412,-17 -400,-29 -376,-48 -347,-67 -312,-86 -255,-104 -224,-111 -213,-112 -199,-110 -154,-96 -131,-86 -114,-77 -106,-71 -99,-63 -95,-54 -95,-47 -98,-37 -111,-26 -136,-16 -168,-9 -212,-2 -252,1 -313,1 -393,15 -419,14 -428,10 -429,6" fill-opacity="1" fill="#65729b" filter="url(#pencil)" transform="matrix(1,0,0,1,0,0)" opacity="1"/><polyline id="SvgjsPolyline1111" points="-4,-88 -13,-93 -36,-95 -71,-87 -90,-81 -118,-79 -127,-77 -144,-69 -159,-64" fill="none" stroke-linejoin="round" stroke-linecap="round" stroke="#2c2f3b" stroke-width="6" filter="url(#pencil)" transform="matrix(1,0,0,1,0,0)"/><polyline id="SvgjsPolyline1118" points="-116,-75 -138,-76 -154,-84 -147,-80 -145,-73 -143,-71 -130,-72" fill="none" stroke-linejoin="round" stroke-linecap="round" stroke="#2c2f3b" stroke-width="6" filter="url(#pencil)" transform="matrix(1,0,0,1,0,0)"/><polyline id="SvgjsPolyline1125" points="-358,-52 -392,-22 -405,-13 -422,-10 -440,1 -459,1 -432,-3 -427,-6 -406,-13 -405,-20 -396,-23 -394,-25 -394,-29 -387,-31 -373,-31 -366,-42 -349,-58 -347,-63 -344,-62 -344,-57 -350,-48 -352,-36 -363,-35 -370,-32 -381,-22 -387,-22" fill-opacity="1" fill="#2c2f3b" filter="url(#pencil)" transform="matrix(1,0,0,1,0,0)" opacity="1"/><polyline id="SvgjsPolyline1139" points="-118,-78 -117,-81 -120,-83 -136,-89 -157,-89 -193,-101 -214,-101 -207,-105 -201,-105 -175,-99 -158,-93 -141,-92 -148,-92 -159,-95 -181,-107 -186,-108 -155,-105 -142,-99 -140,-96 -139,-88 -124,-84 -120,-81" fill-opacity="1" fill="#2c2f3b" filter="url(#pencil)" transform="matrix(1,0,0,1,0,0)" opacity="1"/><polyline id="SvgjsPolyline1146" points="-150,-60 -166,-69 -186,-84 -205,-92 -238,-90 -253,-93 -276,-93 -288,-88 -288,-86 -284,-85 -278,-87 -240,-87 -233,-85 -221,-85 -210,-88 -206,-91 -183,-89 -173,-84 -164,-75 -155,-71 -155,-64" fill-opacity="1" fill="#2c2f3b" filter="url(#pencil)" transform="matrix(1,0,0,1,0,0)" opacity="1"/><polyline id="SvgjsPolyline1153" points="-164,-58 -177,-60 -181,-65 -193,-69 -204,-69 -218,-66 -226,-67 -195,-67 -177,-58 -175,-52 -170,-49 -162,-49 -157,-53 -156,-57 -157,-60 -170,-67 -153,-65" fill-opacity="1" fill="#2c2f3b" filter="url(#pencil)" transform="matrix(1,0,0,1,0,0)" opacity="1"/><polyline id="SvgjsPolyline1160" points="-149,-66 -149,-78 -157,-84 -187,-91 -196,-91 -218,-97 -218,-99 -211,-104 -182,-101 -201,-101 -206,-97 -149,-85 -143,-73 -145,-65 -148,-64" fill-opacity="1" fill="#2c2f3b" filter="url(#pencil)" transform="matrix(1,0,0,1,0,0)" opacity="1"/><polyline id="SvgjsPolyline1167" points="-166,-62 -192,-74 -171,-72 -170,-59 -164,-59" fill-opacity="1" fill="#2c2f3b" filter="url(#pencil)" transform="matrix(1,0,0,1,0,0)" opacity="1"/><polyline id="SvgjsPolyline1181" points="-146,-66 -154,-60 -175,-51 -236,-51 -260,-48 -292,-29 -321,-6 -302,-16 -289,-27 -272,-37 -261,-50 -247,-57 -228,-58 -213,-55 -200,-55 -185,-61 -168,-61 -154,-58" fill-opacity="1" fill="#2c2f3b" filter="url(#pencil)" transform="matrix(1,0,0,1,0,0)" opacity="1"/><polyline id="SvgjsPolyline1188" points="-573,-51 -582,-49 -598,-42 -607,-37 -609,-34 -619,-32 -624,-29 -637,-26 -652,-20 -698,8 -710,12 -719,13 -646,-16 -608,-38 -580,-42 -560,-55 -545,-57 -529,-67 -511,-68" fill-opacity="1" fill="#2c2f3b" filter="url(#pencil)" transform="matrix(1,0,0,1,0,0)" opacity="1"/><polyline id="SvgjsPolyline1195" points="-710,-44 -700,-47 -677,-48 -647,-34 -640,-32 -631,-32 -647,-31 -657,-41 -663,-44 -696,-45" fill-opacity="1" fill="#2c2f3b" filter="url(#pencil)" transform="matrix(1,0,0,1,0,0)" opacity="1"/><polyline id="SvgjsPolyline1202" points="-700,-30 -692,-34 -677,-35 -671,-33 -664,-25 -659,-22 -643,-21 -649,-16 -657,-16 -664,-20 -666,-24 -672,-26 -685,-29 -701,-28" fill-opacity="1" fill="#2c2f3b" filter="url(#pencil)" transform="matrix(1,0,0,1,0,0)" opacity="1"/><polyline id="SvgjsPolyline1209" points="-710,-24 -690,-24 -684,-22 -682,-21 -679,-11 -676,-8 -669,-7 -678,-6 -685,-16 -698,-22 -707,-32 -737,-37 -703,-38 -699,-35 -699,-31 -692,-23 -680,-19 -687,-20 -692,-23 -693,-41 -705,-41 -679,-40 -652,-33 -649,-22" fill-opacity="1" fill="#2c2f3b" filter="url(#pencil)" transform="matrix(1,0,0,1,0,0)" opacity="1"/><polyline id="SvgjsPolyline1216" points="-684,0 -692,-2 -723,-17 -738,-21 -746,-21 -727,-20 -719,-18 -718,-16 -715,-15 -711,-9 -710,-4 -714,13 -703,14 -701,11 -701,7" fill-opacity="1" fill="#2c2f3b" filter="url(#pencil)" transform="matrix(1,0,0,1,0,0)" opacity="1"/><polyline id="SvgjsPolyline1223" points="-683,-3 -692,-12 -706,-21 -716,-30 -722,-32 -730,-32 -718,-29 -710,-25 -707,-18 -698,-7 -682,-2" fill-opacity="1" fill="#4f5674" filter="url(#pencil)" transform="matrix(1,0,0,1,0,0)" opacity="1"/><polyline id="SvgjsPolyline1230" points="-664,-21 -657,-20 -666,-25 -670,-25 -663,-22 -661,-19 -662,-11" fill-opacity="1" fill="#4f5674" filter="url(#pencil)" transform="matrix(1,0,0,1,0,0)" opacity="1"/><polyline id="SvgjsPolyline1237" points="-653,-27 -652,-31 -658,-37 -667,-43 -681,-48 -686,-48 -696,-43 -702,-42 -670,-41 -661,-37 -654,-30 -653,-16 -651,-14 -648,-14" fill-opacity="1" fill="#4f5674" filter="url(#pencil)" transform="matrix(1,0,0,1,0,0)" opacity="1"/><polyline id="SvgjsPolyline1244" points="-628,-17 -604,-31 -594,-33 -570,-33 -553,-41 -521,-45 -505,-52 -490,-52 -510,-54 -525,-49 -555,-43 -563,-43 -600,-34" fill-opacity="1" fill="#4f5674" filter="url(#pencil)" transform="matrix(1,0,0,1,0,0)" opacity="1"/><polyline id="SvgjsPolyline1251" points="-405,-23 -419,-24 -429,-28 -431,-32 -439,-40 -453,-48 -474,-50 -461,-50 -452,-46 -445,-39 -442,-33 -440,-21 -435,-16 -425,-12 -412,-11 -407,-15 -405,-18 -406,-19" fill-opacity="1" fill="#4f5674" filter="url(#pencil)" transform="matrix(1,0,0,1,0,0)" opacity="1"/><polyline id="SvgjsPolyline1258" points="-400,-23 -400,-25 -419,-46 -433,-53 -439,-53 -415,-45 -408,-35 -405,-33 -400,-31 -392,-31" fill-opacity="1" fill="#4f5674" filter="url(#pencil)" transform="matrix(1,0,0,1,0,0)" opacity="1"/><polyline id="SvgjsPolyline1265" points="-209,-67 -208,-68 -212,-73 -231,-79 -265,-78 -222,-78 -212,-75 -195,-64 -170,-61 -164,-62 -164,-68 -168,-72 -192,-77 -214,-79 -223,-82" fill-opacity="1" fill="#4f5674" filter="url(#pencil)" transform="matrix(1,0,0,1,0,0)" opacity="1"/><polyline id="SvgjsPolyline1272" points="-9,-92 -35,-78 -41,-72 -55,-34 -74,2 -82,12 -78,1 -59,-28 -48,-54 -37,-64 -22,-69 -10,-77 -7,-85 -8,-90 -11,-90" fill-opacity="1" fill="#4f5674" filter="url(#pencil)" transform="matrix(1,0,0,1,0,0)" opacity="1"/><polyline id="SvgjsPolyline1279" points="-39,-89 -70,-78 -74,-75 -89,-59 -107,-43 -136,-5 -141,-1 -138,-4 -135,-15 -123,-36 -108,-51 -92,-63 -79,-69 -66,-71 -54,-75 -47,-79 -23,-81 -23,-97 -36,-95" fill-opacity="1" fill="#4f5674" filter="url(#pencil)" transform="matrix(1,0,0,1,0,0)" opacity="1"/><polyline id="SvgjsPolyline1286" points="-84,-80 -96,-72 -129,-71 -134,-69 -169,-33 -148,-51 -122,-60 -114,-60 -101,-65 -93,-66 -79,-72 -76,-74 -76,-77 -79,-81 -83,-82" fill-opacity="1" fill="#4f5674" filter="url(#pencil)" transform="matrix(1,0,0,1,0,0)" opacity="1"/><polyline id="SvgjsPolyline1293" points="-189,-50 -227,-22 -241,-8 -257,3 -285,28 -268,16 -259,-1 -250,-13 -237,-21 -219,-29 -187,-29 -174,-32 -167,-38 -166,-41 -173,-47 -194,-49" fill-opacity="1" fill="#4f5674" filter="url(#pencil)" transform="matrix(1,0,0,1,0,0)" opacity="1"/><polyline id="SvgjsPolyline1300" points="-246,-41 -262,-35 -273,-28 -290,-6 -295,9 -297,23 -309,28 -296,13 -284,-12 -277,-18 -269,-21 -264,-25 -254,-37 -231,-37 -227,-39 -219,-47 -219,-49 -228,-52 -237,-52 -254,-48 -259,-42 -259,-37" fill-opacity="1" fill="#4f5674" filter="url(#pencil)" transform="matrix(1,0,0,1,0,0)" opacity="1"/><polyline id="SvgjsPolyline1307" points="-296,-14 -301,-14 -310,-10 -320,-3 -338,18 -347,23 -374,27 -359,26 -354,23 -346,11 -319,-13 -315,-25 -293,-34 -282,-35 -280,-29 -283,-23 -288,-20 -297,-18 -298,-16 -301,-15" fill-opacity="1" fill="#4f5674" filter="url(#pencil)" transform="matrix(1,0,0,1,0,0)" opacity="1"/><polyline id="SvgjsPolyline1340" points="-736,-413 -672,-411 -555,-411 -526,-414 -458,-415 -234,-415 -220,-412 -144,-411 -125,-414 2,-416 2,-401 -3,-376 -3,-349 3,-312 3,-283 1,-272 2,-211 -4,-176 -4,-128 -1,-109 -2,-91 -16,-96 -53,-96 -80,-85 -94,-84 -99,-82 -117,-82 -130,-84 -136,-87 -140,-93 -148,-100 -156,-104 -177,-110 -243,-109 -248,-107 -264,-105 -270,-102 -293,-98 -307,-91 -317,-83 -332,-76 -373,-52 -387,-42 -396,-37 -405,-35 -411,-35 -423,-41 -424,-43 -426,-43 -441,-53 -478,-67 -503,-69 -519,-72 -537,-72 -547,-70 -581,-58 -628,-49 -639,-42 -651,-38 -666,-39 -673,-40 -690,-47 -720,-48 -724,-50 -734,-50 -735,-61 -733,-66 -733,-78 -738,-86 -738,-80" fill-opacity="0.6" fill="#a9b0d3" filter="url(#pencil)" transform="matrix(1,0,0,1,0,0)" opacity="1"/><polyline id="SvgjsPolyline1375" points="-729,-401 -729,-308 -725,-287 -724,-246 -725,-230 -734,-183 -733,-72 -730,-53 -704,-58 -692,-58 -655,-45 -637,-41 -625,-41 -576,-62 -570,-66 -546,-73 -523,-77 -478,-77 -448,-70 -404,-50 -398,-46 -375,-46 -351,-56 -318,-78 -306,-83 -278,-89 -252,-102 -232,-110 -221,-112 -177,-113 -167,-110 -158,-102 -127,-83 -111,-79 -89,-77 -71,-79 -46,-90 -6,-94 4,-101 4,-184 8,-235 8,-327 0,-359 0,-385 4,-409 3,-414 -21,-414 -62,-417 -82,-420 -95,-420 -165,-410 -199,-408 -245,-408 -314,-413 -417,-413 -446,-415 -724,-415 -727,-414 -727,-409" fill-opacity="0.5" fill="#272f5f" filter="url(#pencil)" transform="matrix(1,0,0,1,0,0)" opacity="1"/><polyline id="SvgjsPolyline1396" points="-727,-380 -716,-377 -702,-370 -692,-361 -682,-351 -664,-328 -634,-298 -622,-278 -615,-270 -603,-260 -589,-254 -574,-251 -545,-251 -511,-258 -496,-262 -423,-289 -373,-310 -333,-319 -308,-321 -295,-319 -283,-315 -264,-301 -248,-283 -239,-261 -239,-239 -244,-224 -249,-217 -255,-210 -265,-205 -277,-202 -322,-203 -333,-207 -338,-214 -339,-230 -338,-231 -329,-225 -321,-222 -305,-222 -299,-224 -287,-239 -287,-251 -299,-263 -315,-265 -334,-265 -349,-260 -357,-255 -398,-237 -442,-210 -453,-205 -525,-180 -539,-178 -588,-178 -618,-184 -643,-193 -654,-203 -672,-225 -697,-247 -710,-254 -722,-258 -726,-262 -726,-293 -732,-330 -732,-347 -726,-363 -723,-367 -723,-375" fill-opacity="1" fill="#c2d7e2" filter="url(#pencil)" transform="matrix(1,0,0,1,0,0)" opacity="1"/><polyline id="SvgjsPolyline1403" points="-338,-256 -317,-261 -301,-261 -291,-257 -288,-252 -288,-237 -289,-232 -301,-227 -309,-225 -337,-225 -344,-222 -349,-217 -353,-210 -353,-202 -352,-196 -348,-190 -341,-186 -326,-182 -307,-184 -295,-187 -272,-197 -245,-206 -200,-216 -140,-217 -121,-213 -105,-206 -94,-199 -89,-193 -84,-177 -87,-151 -95,-139 -103,-137 -129,-135 -140,-139 -142,-145 -142,-155 -141,-161 -138,-165 -135,-167 -128,-168 -122,-167 -120,-164 -119,-155 -123,-159 -127,-159 -132,-154 -132,-150 -129,-147 -114,-146 -109,-147 -100,-153 -96,-159 -96,-169 -103,-176 -116,-184 -127,-187 -150,-190 -163,-190 -180,-187 -192,-180 -223,-166 -240,-160 -259,-156 -280,-154 -323,-154 -353,-156 -372,-163 -380,-171 -383,-177 -385,-190 -385,-205 -377,-217 -371,-223 -336,-241 -297,-242 -293,-233 -291,-236 -291,-251 -295,-258 -299,-262 -313,-263 -320,-260 -326,-255 -338,-234 -342,-231 -351,-228 -367,-228 -367,-239 -360,-246 -352,-251 -335,-255 -322,-256" fill-opacity="1" fill="#c2d7e2" filter="url(#pencil)" transform="matrix(1,0,0,1,0,0)" opacity="1"/><polyline id="SvgjsPolyline1410" points="-56,-384 -55,-385 -59,-389 -68,-392 -85,-394 -100,-384 -115,-365 -118,-356 -118,-344 -113,-335 -105,-326 -94,-319 -74,-316 -61,-317 -47,-325 -42,-331 -39,-338 -40,-347 -44,-340 -57,-333 -76,-332 -80,-333 -86,-340 -89,-348 -89,-357 -85,-363 -75,-370 -45,-371 -41,-363 -42,-353 -35,-364 -35,-376 -40,-385 -44,-389 -47,-391 -60,-394 -78,-393" fill-opacity="1" fill="#e9bd00" filter="url(#pencil)" transform="matrix(1,0,0,1,0,0)" opacity="1"/><polyline id="SvgjsPolyline1437" points="-4,-179 -33,-164 -46,-153 -52,-145 -74,-127 -84,-123 -101,-120 -124,-120 -203,-129 -283,-127 -305,-123 -320,-118 -350,-99 -365,-92 -375,-90 -387,-90 -404,-86 -458,-86 -513,-94 -577,-92 -633,-74 -728,-73 -732,-69 -734,-59 -729,-59 -723,-52 -711,-53 -702,-56 -684,-56 -672,-51 -649,-45 -646,-42 -636,-39 -620,-39 -611,-47 -600,-62 -588,-69 -572,-72 -497,-73 -463,-67 -424,-63 -418,-61 -394,-45 -381,-44 -376,-46 -372,-50 -366,-59 -364,-65 -352,-73 -326,-80 -307,-91 -295,-95 -252,-104 -170,-104 -142,-112 -120,-112 -113,-108 -105,-96 -100,-82 -97,-79 -107,-79 -122,-85 -129,-95 -141,-104 -142,-114 -132,-115 -113,-112 -106,-104 -104,-97 -101,-95 -100,-92 -94,-89 -74,-89 -35,-95 -20,-99 -4,-99 1,-109 0,-152 4,-162 2,-176" fill-opacity="1" fill="#dbe2ce" filter="url(#pencil)" transform="matrix(1,0,0,1,0,0)" opacity="1"/><polyline id="SvgjsPolyline1485" points="-451,-81 -448,-81 -445,-77 -444,-56 -468,-19 -469,-11 -468,14 -457,46 -457,64 -463,77 -467,73 -465,46 -468,33 -476,21 -482,7 -484,-2 -484,-19 -482,-29 -478,-34 -456,-54 -451,-67 -447,-73 -447,-87 -451,-88 -440,-77 -439,-67" fill-opacity="1" fill="#43473c" filter="url(#squiggly-animated)" transform="matrix(1,0,0,1,0,0)" opacity="1"/><polyline id="SvgjsPolyline1491" points="-476,-32 -468,-46 -464,-62 -464,-115 -474,-134 -500,-164 -497,-165 -489,-152 -485,-141 -483,-124 -486,-117 -498,-105 -536,-81 -547,-68 -555,-52 -558,-43 -559,-23 -551,14 -551,37 -553,43 -563,59 -565,69 -561,73 -531,78 -490,78 -470,82 -462,82 -462,74" fill-opacity="1" fill="#43473c" filter="url(#squiggly-animated)" transform="matrix(1,0,0,1,0,0)" opacity="1"/><polyline id="SvgjsPolyline1497" points="-526,-50 -532,-56 -536,-64 -538,-80 -537,-89 -523,-120 -517,-141 -514,-161 -515,-182 -517,-192 -537,-241 -540,-258 -540,-284 -543,-293 -549,-303 -565,-316 -575,-332 -578,-374 -578,-389 -576,-399 -582,-393 -585,-385 -584,-357 -581,-351 -576,-329 -574,-311 -557,-271 -558,-257 -573,-218 -573,-204 -553,-155 -551,-148 -551,-140 -560,-115 -578,-87 -593,-68 -597,-52 -598,-16 -593,4 -592,22 -594,67 -593,72 -589,76 -547,75 -540,70 -535,69" fill-opacity="1" fill="#43473c" filter="url(#squiggly-animated)" transform="matrix(1,0,0,1,0,0)" opacity="1"/><polyline id="SvgjsPolyline1503" points="-576,-149 -573,-162 -574,-178 -591,-203 -600,-220 -602,-228 -603,-247 -600,-272 -601,-278 -604,-283 -606,-281 -610,-267 -610,-216 -613,-198 -613,-181 -608,-168 -600,-158 -598,-141 -603,-108 -614,-82 -623,-55 -622,-22 -618,-6 -616,15 -618,69 -617,71 -611,74 -605,75 -593,75 -585,71 -575,52 -575,35 -577,24 -582,12 -585,-18 -584,-31 -569,-68 -568,-121 -565,-131 -564,-145 -565,-152 -569,-159 -570,-167 -573,-171 -576,-169" fill-opacity="1" fill="#43473c" filter="url(#squiggly-animated)" transform="matrix(1,0,0,1,0,0)" opacity="1"/><polyline id="SvgjsPolyline1509" points="-618,-41 -623,-28 -623,13 -617,32 -612,39 -597,55 -591,56 -606,45 -616,35 -624,23 -629,-3 -629,-36 -627,-54 -604,-95 -593,-110 -591,-116" fill-opacity="1" fill="#43473c" filter="url(#squiggly-animated)" transform="matrix(1,0,0,1,0,0)" opacity="1"/><polyline id="SvgjsPolyline1515" points="-429,83 -419,74 -417,69 -416,54 -421,42 -429,32 -437,13 -443,-10 -443,-30 -435,-53 -450,-37 -453,-31 -458,-17 -458,-1 -456,9 -451,20 -439,38 -427,51 -421,64 -420,76 -423,80 -428,82 -459,83" fill-opacity="1" fill="#43473c" filter="url(#squiggly-animated)" transform="matrix(1,0,0,1,0,0)" opacity="1"/><polyline id="SvgjsPolyline1521" points="-514,-178 -508,-150 -498,-122 -492,-99 -492,-83 -501,-61 -507,-54 -516,-51 -522,-51 -525,-52 -531,-58 -541,-62 -543,-65 -543,-82 -541,-97 -539,-99" fill-opacity="1" fill="#43473c" filter="url(#squiggly-animated)" transform="matrix(1,0,0,1,0,0)" opacity="1"/><polyline id="SvgjsPolyline1533" points="-485,-13 -485,13 -489,40 -490,61 -476,81 -476,88 -477,91 -480,93 -477,91 -467,71 -471,64 -477,60 -495,39 -498,33 -498,26 -491,4 -491,-9 -496,-19" fill-opacity="1" fill="#3d3b39" filter="url(#squiggly-animated)" transform="matrix(1,0,0,1,0,0)" opacity="1"/><polyline id="SvgjsPolyline1550" points="-599,64 -600,44 -598,30 -591,9 -589,-4 -589,-16 -596,-37 -598,-58" fill-opacity="1" fill="#3d3b39" filter="url(#squiggly-animated2)" transform="matrix(1,0,0,1,0,0)" opacity="1"/><polyline id="SvgjsPolyline1556" points="-588,-84 -602,-62 -606,-53 -613,-25 -615,-4 -609,19 -612,53" fill-opacity="1" fill="#3d3b39" filter="url(#squiggly-animated2)" transform="matrix(1,0,0,1,0,0)" opacity="1"/><polyline id="SvgjsPolyline1562" points="-548,69 -546,66 -546,54 -549,39 -567,-10 -583,-79 -583,-112 -585,-126 -584,-134 -575,-162 -575,-173 -581,-189 -590,-202 -583,-190 -574,-168 -574,-142 -578,-102 -578,-73 -574,-46 -569,-31 -536,17 -531,30 -531,35 -532,40 -538,50 -551,61 -561,64 -568,64 -581,61 -596,60 -597,66 -595,59 -595,49 -593,43 -588,36 -581,33 -565,32 -560,30 -558,25 -558,21 -581,0 -583,-6 -582,-10 -573,-17 -570,-17 -569,-19" fill-opacity="1" fill="#3d3b39" filter="url(#squiggly-animated2)" transform="matrix(1,0,0,1,0,0)" opacity="1"/><polyline id="SvgjsPolyline1568" points="-520,75 -515,76 -510,68 -507,50 -507,40 -509,38 -508,42 -500,52 -499,59 -501,63 -499,68 -492,71 -483,72 -476,70 -474,67 -474,61 -479,56 -478,47" fill-opacity="1" fill="#3d3b39" filter="url(#squiggly-animated2)" transform="matrix(1,0,0,1,0,0)" opacity="1"/><polyline id="SvgjsPolyline1574" points="-469,75 -466,62 -469,8 -461,-26 -455,-40 -453,-53 -455,-59 -464,-71 -468,-82 -468,-98 -461,-121 -463,-134 -468,-143 -479,-149 -491,-161 -480,-123 -480,-111 -495,-83 -501,-81 -523,-81 -535,-71 -549,-47 -555,-21 -555,14 -553,27 -546,44 -542,48 -512,64 -512,66 -484,60 -466,54 -444,54 -444,42 -447,35 -466,10 -469,-2 -469,-54 -471,-60 -475,-65 -498,-75 -499,-79 -499,-92 -496,-107 -491,-118 -484,-142 -478,-153 -484,-140 -495,-123 -500,-116 -507,-110 -523,-87 -527,-79 -529,-70 -530,-40 -515,35" fill-opacity="1" fill="#3d3b39" filter="url(#squiggly-animated2)" transform="matrix(1,0,0,1,0,0)" opacity="1"/><polyline id="SvgjsPolyline1708" points="-464,-342 -322,-343 -289,-349 -282,-349 -373,-346 -389,-342 -391,-340 -386,-336 -345,-330 -377,-326 -401,-306 -406,-303 -422,-299 -419,-305 -411,-313 -392,-314" fill-opacity="1" fill="#242f61" filter="url(#rain)" transform="matrix(1,0,0,1,0,0)" opacity="1"/><polyline id="SvgjsPolyline1728" points="-131,-268 -118,-268 -103,-265 -95,-261 -94,-256 -120,-244 -143,-240" fill-opacity="1" fill="#242f61" filter="url(#rain)" transform="matrix(1,0,0,1,0,0)" opacity="1"/><polyline id="SvgjsPolyline1733" points="-85,-221 -188,-222 -127,-220 -41,-212 -21,-208 -24,-204 -36,-201 -92,-198 -26,-189 -26,-187 -29,-184 -38,-181" fill-opacity="1" fill="#242f61" filter="url(#rain)" transform="matrix(1,0,0,1,0,0)" opacity="1"/><polyline id="SvgjsPolyline1738" points="-54,-168 -95,-152 -90,-148 -73,-140 -80,-137 -94,-134 -116,-133 -123,-131 -121,-130 -119,-130 -126,-130 -155,-136 -199,-137 -196,-137" fill-opacity="1" fill="#242f61" filter="url(#rain)" transform="matrix(1,0,0,1,0,0)" opacity="1"/><polyline id="SvgjsPolyline1743" points="-159,-167 -184,-169 -235,-170 -150,-172 -176,-183 -213,-188 -210,-189 -139,-189 -149,-188 -166,-181 -187,-171 -210,-157" fill-opacity="1" fill="#242f61" filter="url(#rain)" transform="matrix(1,0,0,1,0,0)" opacity="1"/><polyline id="SvgjsPolyline1748" points="-222,-151 -284,-145 -276,-143 -236,-140 -402,-141 -404,-140 -400,-137 -381,-132 -399,-131 -429,-126 -420,-119 -393,-108 -394,-105 -402,-101 -442,-93 -442,-97 -436,-106" fill-opacity="1" fill="#242f61" filter="url(#rain)" transform="matrix(1,0,0,1,0,0)" opacity="1"/><polyline id="SvgjsPolyline1758" points="-326,-151 -315,-145 -287,-138 -247,-134 -169,-132 -177,-132 -214,-139 -281,-147 -339,-147 -327,-145 -259,-141 -230,-141 -247,-142 -293,-150 -370,-156" fill-opacity="1" fill="#242f61" filter="url(#rain)" transform="matrix(1,0,0,1,0,0)" opacity="1"/><polyline id="SvgjsPolyline1768" points="-692,-231 -690,-220 -689,-155 -686,-132 -687,-101 -692,-91 -689,-87 -668,-87 -646,-95 -641,-98 -634,-106 -634,-111 -639,-114 -647,-116 -751,-116 -632,-116 -689,-114 -674,-117 -672,-119" fill-opacity="1" fill="#242f61" filter="url(#rain)" transform="matrix(1,0,0,1,0,0)" opacity="1"/><polyline id="SvgjsPolyline1793" points="-183,-342 -183,-342" fill-opacity="0.7" fill="#373946" filter="url(#rain)" transform="matrix(1,0,0,1,0,0)" opacity="1"/><polyline id="SvgjsPolyline1819" points="-522,-174 -515,-172 -502,-154 -501,-106 -512,-102 -525,-101 -529,-107 -529,-115" fill-opacity="0.7" fill="#373946" filter="url(#squiggly-animated2)" transform="matrix(1,0,0,1,0,0)" opacity="1"/><polyline id="SvgjsPolyline1824" points="-272,-289 -244,-293 -169,-293 -157,-291 -171,-283" fill="none" stroke-linejoin="round" stroke-linecap="round" stroke="#c2d7e2" stroke-width="4" filter="url(#rain)" transform="matrix(1,0,0,1,0,0)"/><polyline id="SvgjsPolyline1830" points="-448,72 -450,55 -449,44 -453,37 -451,37 -448,41 -447,54 -458,76 -455,82 -447,82 -440,76 -442,72 -447,69 -448,64" fill="none" stroke-linejoin="round" stroke-linecap="round" stroke="#c2d7e2" stroke-width="4" filter="url(#squiggly-animated2)" transform="matrix(1,0,0,1,0,0)"/><polyline id="SvgjsPolyline1836" points="-198,-198 -227,-203 -258,-204 -302,-208 -311,-208 -335,-204 -324,-202 -286,-202 -276,-204 -207,-203" fill="none" stroke-linejoin="round" stroke-linecap="round" stroke="#c2d7e2" stroke-width="4" filter="url(#squiggly-animated2)" transform="matrix(1,0,0,1,0,0)"/><polyline id="SvgjsPolyline1860" points="-680,-355 -678,-355 -666,-345 -643,-331 -641,-328 -641,-323 -646,-325 -648,-332 -656,-340 -671,-346 -677,-351 -681,-352 -682,-357 -678,-366" fill-opacity="1" fill="#242f61" filter="url(#squiggly-animated2)" transform="matrix(1,0,0,1,0,0)" opacity="1"/><polyline id="SvgjsPolyline1866" points="-663,-363 -647,-338 -628,-315 -622,-294 -619,-289 -609,-280 -591,-270 -575,-269 -588,-269 -600,-282 -610,-290 -610,-309 -615,-324 -621,-334 -638,-350 -651,-355 -652,-353 -632,-338 -621,-324 -614,-312 -613,-306" fill-opacity="1" fill="#242f61" filter="url(#squiggly-animated2)" transform="matrix(1,0,0,1,0,0)" opacity="1"/><polyline id="SvgjsPolyline1872" points="-653,-391 -637,-383 -621,-371 -634,-370 -634,-373 -641,-385 -646,-389 -658,-391 -661,-393 -660,-403 -665,-395" fill-opacity="1" fill="#242f61" filter="url(#squiggly-animated2)" transform="matrix(1,0,0,1,0,0)" opacity="1"/><polyline id="SvgjsPolyline1878" points="-619,-345 -597,-327 -593,-322 -587,-300 -583,-294 -570,-284 -568,-284 -579,-283 -590,-286 -594,-290 -594,-293 -589,-302 -590,-308 -606,-317" fill-opacity="1" fill="#242f61" filter="url(#squiggly-animated2)" transform="matrix(1,0,0,1,0,0)" opacity="1"/><polyline id="SvgjsPolyline1884" points="-510,-254 -507,-255 -497,-264 -493,-271 -492,-280 -498,-277 -527,-278 -493,-273 -489,-276 -489,-281" fill-opacity="1" fill="#242f61" filter="url(#squiggly-animated2)" transform="matrix(1,0,0,1,0,0)" opacity="1"/><polyline id="SvgjsPolyline1890" points="-491,-287 -479,-284 -468,-284 -454,-289 -442,-297 -432,-307 -430,-311 -430,-307 -433,-301 -440,-297 -473,-295 -481,-296" fill-opacity="1" fill="#242f61" filter="url(#squiggly-animated2)" transform="matrix(1,0,0,1,0,0)" opacity="1"/><polyline id="SvgjsPolyline1902" points="-453,-301 -450,-303 -430,-305 -421,-308 -417,-314 -443,-310 -461,-310 -473,-312 -478,-315 -485,-323 -464,-309" fill-opacity="1" fill="#242f61" filter="url(#squiggly-animated2)" transform="matrix(1,0,0,1,0,0)" opacity="1"/><polyline id="SvgjsPolyline1908" points="-312,-332 -304,-342 -298,-344 -276,-343 -269,-337 -264,-324 -268,-328 -293,-339 -325,-341 -309,-341 -280,-336 -271,-330 -267,-324 -258,-298" fill-opacity="1" fill="#242f61" filter="url(#squiggly-animated2)" transform="matrix(1,0,0,1,0,0)" opacity="1"/><polyline id="SvgjsPolyline1914" points="-318,-335 -351,-338 -372,-338 -421,-329 -425,-327 -423,-326 -408,-330 -378,-334 -340,-336 -321,-333 -310,-329 -299,-320" fill-opacity="1" fill="#242f61" filter="url(#squiggly-animated2)" transform="matrix(1,0,0,1,0,0)" opacity="1"/><polyline id="SvgjsPolyline1920" points="-249,-310 -239,-300 -228,-279 -224,-262 -226,-248 -222,-252 -222,-259 -225,-268 -234,-279 -238,-282 -241,-282" fill-opacity="1" fill="#242f61" filter="url(#squiggly-animated2)" transform="matrix(1,0,0,1,0,0)" opacity="1"/><polyline id="SvgjsPolyline1926" points="-223,-234 -228,-225 -228,-219 -223,-217 -213,-217 -197,-231 -202,-229 -218,-227 -239,-226 -239,-230 -233,-247" fill-opacity="1" fill="#242f61" filter="url(#squiggly-animated2)" transform="matrix(1,0,0,1,0,0)" opacity="1"/><polyline id="SvgjsPolyline1932" points="-189,-239 -161,-241 -144,-247 -125,-251 -110,-251 -101,-248 -82,-229 -87,-233 -112,-239 -131,-238 -136,-236 -132,-235" fill-opacity="1" fill="#242f61" filter="url(#squiggly-animated2)" transform="matrix(1,0,0,1,0,0)" opacity="1"/><polyline id="SvgjsPolyline1938" points="-476,-189 -485,-179 -500,-173 -503,-170 -490,-169 -479,-171 -456,-192 -439,-193 -456,-192 -462,-190 -472,-181" fill-opacity="1" fill="#242f61" filter="url(#squiggly-animated2)" transform="matrix(1,0,0,1,0,0)" opacity="1"/><polyline id="SvgjsPolyline1944" points="-429,-178 -446,-159 -450,-140 -458,-124 -445,-141 -440,-158 -436,-164 -399,-204 -407,-202 -432,-191 -437,-186 -438,-182" fill-opacity="1" fill="#242f61" filter="url(#squiggly-animated2)" transform="matrix(1,0,0,1,0,0)" opacity="1"/><polyline id="SvgjsPolyline1950" points="-416,-218 -444,-206 -455,-197 -467,-181 -469,-168 -475,-153 -477,-143 -469,-154 -433,-190 -408,-209 -402,-212 -404,-227 -401,-241 -419,-228 -430,-216 -432,-211 -423,-219 -409,-226 -403,-227" fill-opacity="1" fill="#242f61" filter="url(#squiggly-animated2)" transform="matrix(1,0,0,1,0,0)" opacity="1"/><polyline id="SvgjsPolyline1962" points="-288,-138 -268,-143 -241,-145 -234,-141 -233,-133 -242,-128 -266,-128 -282,-133 -293,-146 -299,-146 -321,-141 -340,-141 -303,-145 -256,-146 -199,-141 -190,-135 -185,-134" fill-opacity="1" fill="#242f61" filter="url(#squiggly-animated2)" transform="matrix(1,0,0,1,0,0)" opacity="1"/><polyline id="SvgjsPolyline1968" points="-171,-132 -154,-132 -85,-124 -59,-145 -55,-145 -54,-139 -50,-141 -38,-169 -36,-193 -33,-199 -26,-208 -26,-210 -14,-210 -15,-198 -20,-183 -41,-171 -51,-163 -58,-137 -69,-130 -114,-128 -165,-128 -173,-129 -203,-142 -206,-139" fill-opacity="1" fill="#242f61" filter="url(#squiggly-animated2)" transform="matrix(1,0,0,1,0,0)" opacity="1"/><polyline id="SvgjsPolyline1983" points="-411,-60 -421,-66 -450,-76 -433,-76 -409,-72 -395,-58 -388,-55 -384,-55 -378,-63 -378,-71 -386,-75 -410,-79 -404,-79" fill-opacity="1" fill="#242f61" filter="url(#watercolour)" transform="matrix(1,0,0,1,0,0)" opacity="1"/><polyline id="SvgjsPolyline1992" points="-358,-91 -320,-97 -295,-106 -311,-96 -360,-82 -383,-82 -431,-91 -445,-79 -450,-77 -460,-77 -444,-74 -381,-74 -367,-78 -357,-78 -348,-83 -323,-89 -284,-89 -272,-93 -261,-99 -248,-110 -212,-119 -201,-124 -195,-124" fill-opacity="1" fill="#242f61" filter="url(#watercolour)" transform="matrix(1,0,0,1,0,0)" opacity="1"/><polyline id="SvgjsPolyline2001" points="-13,-148 -21,-137 -29,-130 -35,-127 -47,-122 -60,-121 -82,-116 -107,-104 -119,-102 -135,-102 -176,-106 -177,-103 -177,-99 -161,-96 -82,-97 -75,-96 -49,-85 -34,-84 -27,-87 -20,-96 -14,-109 -7,-118 -1,-124 16,-134 20,-140 22,-147 18,-155 11,-159 -12,-164 -52,-160 -62,-158 -84,-150 -92,-145 -98,-138 -111,-131 -120,-128 -136,-126" fill-opacity="0.4" fill="#242f61" filter="url(#watercolour)" transform="matrix(1,0,0,1,0,0)" opacity="1"/><polyline id="SvgjsPolyline2010" points="-61,-202 -61,-206 -66,-214 -72,-217 -107,-215 -134,-205 -168,-183 -203,-169 -322,-168 -345,-164 -363,-157 -408,-129 -419,-124 -457,-116 -473,-110 -481,-102 -484,-91 -482,-88 -474,-87 -451,-89 -402,-113 -385,-118 -344,-121 -291,-121 -224,-113 -170,-112 -145,-122 -128,-133 -106,-139 -92,-141 -38,-142 -20,-152 -11,-164 -8,-173 -9,-207 -18,-223 -26,-229 -60,-237 -74,-237 -98,-233 -103,-231 -116,-221 -124,-207 -134,-194 -179,-171" fill-opacity="0.4" fill="#242f61" filter="url(#watercolour)" transform="matrix(1,0,0,1,0,0)" opacity="1"/><polyline id="SvgjsPolyline2019" points="-757,-170 -742,-172 -718,-169 -676,-153 -669,-148 -662,-141 -636,-105 -632,-98 -629,-81 -626,-78 -625,-73 -634,-70 -702,-68 -708,-69 -714,-74 -719,-83 -719,-97 -716,-110 -715,-132 -696,-150 -702,-158 -710,-163 -722,-167 -722,-185 -717,-194 -711,-187" fill-opacity="0.4" fill="#242f61" filter="url(#watercolour)" transform="matrix(1,0,0,1,0,0)" opacity="1"/><polyline id="SvgjsPolyline2037" points="-250,59 -250,59" fill-opacity="0.5" fill="#22242c" filter="url(#watercolour)" transform="matrix(1,0,0,1,0,0)" opacity="1"/><polyline id="SvgjsPolyline2062" points="-8,-68 -37,-68 -47,-65 -64,-50 -61,-55 -91,-52 -73,-49 -66,-43 -61,-50 -44,-63 -28,-69 -17,-69" fill="none" stroke-linejoin="round" stroke-linecap="round" stroke="#282a35" stroke-width="8" filter="url(#pencil)" transform="matrix(1,0,0,1,0,0)"/><polyline id="SvgjsPolyline2083" points="-403,59 -397,52 -387,33 -369,39 -351,40 -355,48 -373,67 -385,67 -398,62 -401,58" fill-opacity="0.8" fill="#282a35" filter="url(#pencil)" transform="matrix(1,0,0,1,0,0)" opacity="1"/><polyline id="SvgjsPolyline2090" points="-351,44 -342,52 -348,54 -350,57 -350,54 -358,45 -356,45 -353,48 -351,54 -350,71 -347,81 -372,77 -344,77 -343,74 -352,60 -352,50" fill-opacity="0.8" fill="#282a35" filter="url(#pencil)" transform="matrix(1,0,0,1,0,0)" opacity="1"/><polyline id="SvgjsPolyline2097" points="-355,39 -353,-8 -333,-22 -331,-22 -330,-26 -326,-10 -320,-1 -321,35 -315,72 -328,67 -338,66 -338,50 -341,44" fill-opacity="0.8" fill="#6e7283" filter="url(#pencil)" transform="matrix(1,0,0,1,0,0)" opacity="1"/><polyline id="SvgjsPolyline2104" points="-358,46 -355,43 -352,35 -350,22 -350,-36 -337,-50 -336,-56 -342,-113 -341,-167 -340,-127 -333,-95 -330,-57 -323,-32 -323,-19 -326,-7 -326,1 -315,28 -314,60 -309,84 -309,82 -312,80 -330,81 -328,79" fill="none" stroke-linejoin="round" stroke-linecap="round" stroke="#21263a" stroke-width="4" filter="url(#pencil)" transform="matrix(1,0,0,1,0,0)"/><polyline id="SvgjsPolyline2111" points="-313,29 -304,21 -291,6 -290,3 -283,14 -276,20 -264,26 -257,27 -252,31 -250,60 -248,69 -244,77 -281,74 -313,76" fill="none" stroke-linejoin="round" stroke-linecap="round" stroke="#21263a" stroke-width="4" filter="url(#pencil)" transform="matrix(1,0,0,1,0,0)"/><polyline id="SvgjsPolyline2118" points="-75,-49 -83,-53 -102,-58 -115,-58 -123,-55 -131,-46 -139,-30 -140,-36 -157,-47 -168,-47 -179,-43 -183,-39 -190,-43 -209,-45 -220,-42 -229,-33 -249,-40 -259,-40 -268,-35 -272,-28 -272,-30" fill="none" stroke-linejoin="round" stroke-linecap="round" stroke="#21263a" stroke-width="4" filter="url(#pencil)" transform="matrix(1,0,0,1,0,0)"/><polyline id="SvgjsPolyline2125" points="-262,23 -241,16 -239,14 -173,25 -159,26 -159,41 -165,41 -169,44 -171,53 -171,77 -169,77 -168,74" fill="none" stroke-linejoin="round" stroke-linecap="round" stroke="#21263a" stroke-width="4" filter="url(#pencil)" transform="matrix(1,0,0,1,0,0)"/><polyline id="SvgjsPolyline2132" points="-162,41 -133,45 -119,45 -119,76 -118,79 -116,79" fill="none" stroke-linejoin="round" stroke-linecap="round" stroke="#21263a" stroke-width="4" filter="url(#pencil)" transform="matrix(1,0,0,1,0,0)"/><polyline id="SvgjsPolyline2139" points="3,35 -16,35 -21,37 -26,45 -29,55 -44,46 -58,45 -69,47 -80,57 -86,65 -89,70 -89,78" fill="none" stroke-linejoin="round" stroke-linecap="round" stroke="#21263a" stroke-width="4" filter="url(#pencil)" transform="matrix(1,0,0,1,0,0)"/><polyline id="SvgjsPolyline2146" points="-77,79 -73,72 -65,65" fill="none" stroke-linejoin="round" stroke-linecap="round" stroke="#21263a" stroke-width="4" filter="url(#pencil)" transform="matrix(1,0,0,1,0,0)"/><polyline id="SvgjsPolyline2153" points="-26,65 -38,56 -47,52 -52,52 -64,56" fill="none" stroke-linejoin="round" stroke-linecap="round" stroke="#21263a" stroke-width="4" filter="url(#pencil)" transform="matrix(1,0,0,1,0,0)"/><polyline id="SvgjsPolyline2160" points="-142,18 -126,14 -113,6 -110,10 -95,20 -85,23 -84,31 -81,38 -110,35 -127,31 -134,29 -139,21 -141,21 -140,48" fill="none" stroke-linejoin="round" stroke-linecap="round" stroke="#21263a" stroke-width="4" filter="url(#pencil)" transform="matrix(1,0,0,1,0,0)"/><polyline id="SvgjsPolyline2167" points="-292,5 -303,21 -311,28 -313,28 -316,34 -316,41 -307,74 -298,70 -260,71 -248,74 -248,60 -250,54 -250,32 -265,26 -267,23 -276,18 -284,6 -289,2 -273,5 -263,12 -262,15 -264,26" fill-opacity="0.8" fill="#79402e" filter="url(#pencil)" transform="matrix(1,0,0,1,0,0)" opacity="1"/><polyline id="SvgjsPolyline2174" points="-76,36 -80,34 -85,16 -98,10 -109,2 -120,8 -144,14 -140,40 -84,40 -83,47 -90,67 -90,71 -96,74 -99,79 -116,76 -116,67 -121,48 -116,40 -116,37 -130,36" fill-opacity="0.8" fill="#79402e" filter="url(#pencil)" transform="matrix(1,0,0,1,0,0)" opacity="1"/><polyline id="SvgjsPolyline2181" points="-7,-19 -15,-27 -26,-34 -38,-37 -62,-37 -87,-34 -93,-32 -104,-33 -121,-38 -140,-40 -161,-18 -181,-27 -213,-27 -226,-26 -237,-21 -241,-18 -243,-14 -265,-19 -267,-19 -267,-17 -263,-6 -262,14 -258,16 -258,22 -240,9 -218,5 -208,10 -197,11 -192,14 -192,18 -186,21 -167,23 -153,27 -150,39 -138,41 -140,32 -140,6 -116,5 -113,3 -103,1 -86,1 -73,17 -69,43 -67,47 -68,55 -72,53 -72,50 -64,44 -37,43 -34,44 -31,48 -29,48 -29,38 -26,32 -11,31 -1,34 3,19 3,-8 0,-27" fill-opacity="0.8" fill="#788379" filter="url(#pencil)" transform="matrix(1,0,0,1,0,0)" opacity="1"/><polyline id="SvgjsPolyline2188" points="-303,10 -310,8 -318,-5 -320,-5 -319,2 -312,18 -303,29 -298,19 -302,19" fill-opacity="0.8" fill="#788379" filter="url(#pencil)" transform="matrix(1,0,0,1,0,0)" opacity="1"/><polyline id="SvgjsPolyline2195" points="-348,49 -347,1 -349,-9 -351,-12 -350,-36 -339,-48 -336,-55 -336,-75 -343,-117 -343,-144 -343,-130 -338,-103 -332,-82 -332,-71 -328,-60 -328,-46 -323,-24 -323,5 -320,20 -312,41 -311,78 -341,78 -346,75 -347,66" fill-opacity="0.8" fill="#c2d7e2" filter="url(#pencil)" transform="matrix(1,0,0,1,0,0)" opacity="1"/><polyline id="SvgjsPolyline2202" points="-164,83 -163,78 -166,67 -166,54 -168,54 -169,55 -148,54 -134,58 -130,60 -118,74 -137,73 -141,76 -141,78 -145,80 -174,76" fill-opacity="0.8" fill="#c2d7e2" filter="url(#pencil)" transform="matrix(1,0,0,1,0,0)" opacity="1"/><polyline id="SvgjsPolyline2209" points="-256,27 -233,17 -205,22 -194,20 -192,22 -207,31 -211,36 -235,30 -258,27" fill-opacity="0.8" fill="#c2d7e2" filter="url(#pencil)" transform="matrix(1,0,0,1,0,0)" opacity="1"/><polyline id="SvgjsPolyline2216" points="-44,53 -73,52 -81,59 -88,68 -78,73 -73,63 -69,63 -57,54 -44,47 -41,46 -39,49" fill-opacity="0.8" fill="#c2d7e2" filter="url(#pencil)" transform="matrix(1,0,0,1,0,0)" opacity="1"/><polyline id="SvgjsPolyline2223" points="-351,57 -369,72" fill="none" stroke-linejoin="round" stroke-linecap="round" stroke="#262a2c" stroke-width="4" filter="url(#pencil)" transform="matrix(1,0,0,1,0,0)"/><polyline id="SvgjsPolyline2230" points="-348,66 -353,71" fill="none" stroke-linejoin="round" stroke-linecap="round" stroke="#262a2c" stroke-width="4" filter="url(#pencil)" transform="matrix(1,0,0,1,0,0)"/><polyline id="SvgjsPolyline2237" points="-240,32 -255,47 -255,49 -252,50" fill="none" stroke-linejoin="round" stroke-linecap="round" stroke="#262a2c" stroke-width="4" filter="url(#pencil)" transform="matrix(1,0,0,1,0,0)"/><polyline id="SvgjsPolyline2244" points="-226,33 -247,54" fill="none" stroke-linejoin="round" stroke-linecap="round" stroke="#262a2c" stroke-width="4" filter="url(#pencil)" transform="matrix(1,0,0,1,0,0)"/><polyline id="SvgjsPolyline2251" points="-222,42 -220,42 -220,46 -243,75" fill="none" stroke-linejoin="round" stroke-linecap="round" stroke="#262a2c" stroke-width="4" filter="url(#pencil)" transform="matrix(1,0,0,1,0,0)"/><polyline id="SvgjsPolyline2258" points="-190,30 -212,73 -224,91 -223,90" fill="none" stroke-linejoin="round" stroke-linecap="round" stroke="#262a2c" stroke-width="4" filter="url(#pencil)" transform="matrix(1,0,0,1,0,0)"/><polyline id="SvgjsPolyline2265" points="-162,34 -184,66 -194,78" fill="none" stroke-linejoin="round" stroke-linecap="round" stroke="#262a2c" stroke-width="4" filter="url(#pencil)" transform="matrix(1,0,0,1,0,0)"/><polyline id="SvgjsPolyline2272" points="-176,29 -198,78 -198,82" fill="none" stroke-linejoin="round" stroke-linecap="round" stroke="#262a2c" stroke-width="4" filter="url(#pencil)" transform="matrix(1,0,0,1,0,0)"/><polyline id="SvgjsPolyline2279" points="-207,32 -227,75 -228,84 -226,84" fill="none" stroke-linejoin="round" stroke-linecap="round" stroke="#262a2c" stroke-width="4" filter="url(#pencil)" transform="matrix(1,0,0,1,0,0)"/><polyline id="SvgjsPolyline2286" points="-49,59 -68,80" fill="none" stroke-linejoin="round" stroke-linecap="round" stroke="#262a2c" stroke-width="4" filter="url(#pencil)" transform="matrix(1,0,0,1,0,0)"/><polyline id="SvgjsPolyline2293" points="-39,53 -55,77 -55,74" fill="none" stroke-linejoin="round" stroke-linecap="round" stroke="#262a2c" stroke-width="4" filter="url(#pencil)" transform="matrix(1,0,0,1,0,0)"/><polyline id="SvgjsPolyline2300" points="-318,-36 -320,-57 -314,-65 -310,-69 -298,-76 -288,-80 -282,-80 -296,-80 -311,-65 -323,-60 -326,-53 -326,-47" fill-opacity="0.8" fill="#262a2c" filter="url(#pencil)" transform="matrix(1,0,0,1,0,0)" opacity="1"/><polyline id="SvgjsPolyline2307" points="-312,-18 -310,-25 -303,-38 -293,-50 -274,-65 -267,-75 -259,-77 -239,-76 -246,-80 -260,-80 -270,-77 -274,-73 -276,-66 -283,-56 -291,-49 -300,-46 -307,-38 -313,-26 -322,-23 -322,-38 -312,-44 -293,-61 -281,-62" fill-opacity="0.8" fill="#262a2c" filter="url(#pencil)" transform="matrix(1,0,0,1,0,0)" opacity="1"/><polyline id="SvgjsPolyline2314" points="-287,-27 -255,-67 -243,-70 -225,-70 -228,-71 -238,-68 -266,-54 -271,-50 -284,-34 -300,-21 -311,-7 -317,-3" fill-opacity="0.8" fill="#262a2c" filter="url(#pencil)" transform="matrix(1,0,0,1,0,0)" opacity="1"/><polyline id="SvgjsPolyline2321" points="-435,18 -423,13 -398,6 -388,1 -382,-6 -379,-5 -375,-13 -375,-16 -383,-11 -392,-11 -409,-7 -418,-3 -426,3 -430,7 -434,17 -434,28 -432,34 -427,33" fill-opacity="0.8" fill="#262a2c" filter="url(#pencil)" transform="matrix(1,0,0,1,0,0)" opacity="1"/><polyline id="SvgjsPolyline2328" points="-415,44 -412,29 -406,18 -378,5 -372,-3 -368,-22 -365,-29 -357,-39 -351,-42 -350,-32 -356,-18 -369,-2 -386,30 -398,41 -409,47 -412,51 -415,60 -416,75 -416,71" fill-opacity="0.8" fill="#262a2c" filter="url(#pencil)" transform="matrix(1,0,0,1,0,0)" opacity="1"/><polyline id="SvgjsPolyline2335" points="-636,78 -636,71 -646,55 -658,48 -668,46 -679,46 -687,51 -692,57 -693,65 -691,63 -691,44 -672,44 -651,50 -646,58 -642,70 -643,71 -639,68 -634,57 -634,51 -636,48 -643,44" fill-opacity="0.8" fill="#262a2c" filter="url(#pencil)" transform="matrix(1,0,0,1,0,0)" opacity="1"/><polyline id="SvgjsPolyline2342" points="-644,45 -652,33 -661,29 -682,30 -702,35 -678,28 -666,27 -659,29 -651,35 -633,58 -632,72 -621,72 -618,69 -618,65 -620,55 -626,46 -643,33 -659,25 -667,19 -698,19 -711,22 -727,31 -733,44 -737,66 -738,35 -727,18 -714,11 -684,5 -669,4 -631,14 -618,26 -614,32 -606,50 -602,65 -601,57 -605,50 -630,32 -643,25 -626,24 -657,10 -675,7 -708,8 -723,14 -728,24 -728,27 -696,21 -672,23 -658,28 -650,34 -639,51 -638,57 -640,65 -650,71 -654,71 -650,62 -651,53 -666,48 -686,47 -688,49 -689,55 -689,68 -681,74 -655,75 -657,78 -661,80 -667,79 -671,68 -671,56 -647,56 -640,63 -640,69 -645,63 -659,52 -665,49 -679,49 -685,52 -688,56 -689,62 -689,68 -683,78 -694,41 -694,25 -686,23 -670,23 -650,26 -641,32 -637,45 -637,68 -638,58 -645,47 -654,38 -679,33 -697,33 -706,35 -713,42 -720,70 -720,79 -715,83 -712,88 -716,59 -713,47 -704,37 -687,34 -663,35 -650,42 -640,52 -634,55 -630,60 -627,78 -629,84 -636,88 -647,83 -653,82 -646,82" fill-opacity="0.8" fill="#262a2c" filter="url(#pencil)" transform="matrix(1,0,0,1,0,0)" opacity="1"/><polyline id="SvgjsPolyline2361" points="-730,-69 -716,-78 -709,-81 -696,-85 -672,-87 -658,-85 -616,-74 -613,-72 -611,-68 -612,-62 -616,-60 -629,-60 -644,-63 -682,-63" fill-opacity="1" fill="#dbe2ce" filter="url(#pencil)" transform="matrix(1,0,0,1,0,0)" opacity="1"/><polyline id="SvgjsPolyline2368" points="-456,-74 -457,-83 -450,-84 -435,-84 -428,-79 -419,-79 -406,-76 -402,-88 -377,-90 -367,-93 -347,-93 -344,-96 -342,-104 -339,-105 -345,-100 -366,-88 -369,-81" fill-opacity="1" fill="#dbe2ce" filter="url(#pencil)" transform="matrix(1,0,0,1,0,0)" opacity="1"/><polyline id="SvgjsPolyline2382" points="-292,-127 -309,-122 -329,-111 -330,-102 -325,-93 -325,-75 -321,-86 -312,-96 -305,-108 -301,-112 -291,-116 -279,-116" fill-opacity="0.5" fill="#dbe2ce" filter="url(#pencil)" transform="matrix(1,0,0,1,0,0)" opacity="1"/><polyline id="SvgjsPolyline2389" points="-307,-126 -310,-122 -321,-115 -329,-106 -332,-105 -332,-90 -329,-85 -328,-75 -322,-76 -308,-93 -304,-103 -291,-111 -243,-111 -218,-119 -201,-121 -201,-122 -221,-127 -302,-127 -316,-124 -320,-120" fill-opacity="1" fill="#dbe2ce" filter="url(#pencil)" transform="matrix(1,0,0,1,0,0)" opacity="1"/><polyline id="SvgjsPolyline2396" points="-200,-116 -219,-116 -247,-108 -252,-102 -252,-99 -242,-99 -234,-102 -214,-102 -194,-105 -183,-108 -171,-117 -158,-120 -108,-120 -85,-118 -76,-129 -67,-137 -58,-157 -53,-162 -40,-169 4,-179 2,-166 -2,-159 -17,-149 -27,-138 -35,-127 -38,-120 -50,-107 -58,-103 -79,-102 -92,-106 -116,-109 -119,-112 -125,-115 -126,-117" fill-opacity="1" fill="#dbe2ce" filter="url(#pencil)" transform="matrix(1,0,0,1,0,0)" opacity="1"/><polyline id="SvgjsPolyline2425" points="-724,-367 -718,-366 -690,-350 -680,-337 -679,-331 -667,-310 -674,-314 -679,-320 -686,-332 -688,-337 -697,-356 -704,-362 -715,-364" fill-opacity="1" fill="#dbe2ce" filter="url(#pencil)" transform="matrix(1,0,0,1,0,0)" opacity="1"/><polyline id="SvgjsPolyline2432" points="-693,-334 -679,-320 -668,-293 -661,-286 -636,-269 -631,-264 -620,-246 -631,-251 -639,-257 -646,-270 -652,-275 -673,-285 -678,-290 -685,-312 -707,-342 -720,-352 -723,-352 -723,-350" fill-opacity="1" fill="#dbe2ce" filter="url(#pencil)" transform="matrix(1,0,0,1,0,0)" opacity="1"/><polyline id="SvgjsPolyline2439" points="-724,-326 -696,-308 -683,-295 -674,-271 -665,-264 -672,-265 -681,-271 -685,-291 -691,-299 -697,-304 -708,-309" fill-opacity="1" fill="#dbe2ce" filter="url(#pencil)" transform="matrix(1,0,0,1,0,0)" opacity="1"/><polyline id="SvgjsPolyline2446" points="-615,-263 -620,-270 -632,-280 -635,-285 -632,-277 -620,-265 -619,-244 -612,-242 -612,-248" fill-opacity="1" fill="#dbe2ce" filter="url(#pencil)" transform="matrix(1,0,0,1,0,0)" opacity="1"/><polyline id="SvgjsPolyline2453" points="-611,-195 -616,-201 -666,-226 -680,-237 -690,-253 -704,-269 -708,-280 -714,-286 -699,-280 -694,-274 -690,-269 -682,-253 -676,-244 -667,-238 -648,-228 -630,-225 -623,-221 -614,-208 -613,-198 -609,-197 -602,-199" fill-opacity="1" fill="#dbe2ce" filter="url(#pencil)" transform="matrix(1,0,0,1,0,0)" opacity="1"/><polyline id="SvgjsPolyline2460" points="-567,-208 -566,-207 -577,-209 -579,-211 -595,-211 -595,-212 -585,-210 -579,-207 -576,-201 -571,-201 -570,-207" fill-opacity="1" fill="#dbe2ce" filter="url(#pencil)" transform="matrix(1,0,0,1,0,0)" opacity="1"/><polyline id="SvgjsPolyline2467" points="-524,-231 -526,-237 -525,-252 -514,-260 -504,-264 -495,-265 -471,-265 -486,-263 -502,-255 -527,-254 -528,-236 -526,-227" fill-opacity="1" fill="#dbe2ce" filter="url(#pencil)" transform="matrix(1,0,0,1,0,0)" opacity="1"/><polyline id="SvgjsPolyline2474" points="-521,-224 -478,-254 -470,-258 -456,-261 -448,-266 -433,-277 -398,-289 -389,-289 -385,-287 -382,-282 -381,-277 -400,-283 -411,-283 -427,-277 -454,-253 -481,-238 -496,-223 -496,-220 -501,-210 -510,-209 -514,-220" fill-opacity="1" fill="#dbe2ce" filter="url(#pencil)" transform="matrix(1,0,0,1,0,0)" opacity="1"/><polyline id="SvgjsPolyline2481" points="-698,-225 -675,-219 -652,-197 -634,-186 -630,-182 -620,-182 -619,-184 -624,-186 -640,-186 -650,-190 -662,-200 -663,-227 -676,-248 -679,-249 -671,-238 -651,-219 -643,-207 -641,-202 -627,-186" fill-opacity="1" fill="#dbe2ce" filter="url(#pencil)" transform="matrix(1,0,0,1,0,0)" opacity="1"/><polyline id="SvgjsPolyline2488" points="-616,-175 -615,-174 -631,-204 -640,-217 -659,-234 -665,-242 -681,-254 -689,-263 -700,-270 -716,-271 -724,-266 -730,-257 -728,-255 -710,-255 -708,-253 -692,-247 -684,-246 -682,-230 -683,-226 -688,-224 -688,-221 -688,-225 -694,-238 -694,-246 -699,-258 -704,-263 -711,-265 -713,-267" fill-opacity="1" fill="#dbe2ce" filter="url(#pencil)" transform="matrix(1,0,0,1,0,0)" opacity="1"/><polyline id="SvgjsPolyline2495" points="-711,-370 -705,-370 -695,-367 -691,-363 -685,-353 -682,-335 -675,-330 -676,-338" fill-opacity="1" fill="#dbe2ce" filter="url(#pencil)" transform="matrix(1,0,0,1,0,0)" opacity="1"/><polyline id="SvgjsPolyline2502" points="-652,-306 -625,-302 -623,-300 -622,-291 -614,-281 -614,-274 -618,-271 -623,-271 -624,-287 -628,-292 -650,-305 -659,-313 -666,-317 -671,-317 -673,-322 -673,-329" fill-opacity="1" fill="#dbe2ce" filter="url(#pencil)" transform="matrix(1,0,0,1,0,0)" opacity="1"/><polyline id="SvgjsPolyline2509" points="-673,-335 -651,-320 -643,-305 -637,-288 -630,-277" fill-opacity="1" fill="#dbe2ce" filter="url(#pencil)" transform="matrix(1,0,0,1,0,0)" opacity="1"/><polyline id="SvgjsPolyline2516" points="-564,-249 -570,-254 -578,-256 -597,-254 -588,-244 -579,-251 -568,-252 -562,-252 -558,-246 -555,-247" fill-opacity="1" fill="#dbe2ce" filter="url(#pencil)" transform="matrix(1,0,0,1,0,0)" opacity="1"/><polyline id="SvgjsPolyline2523" points="-493,-194 -479,-193 -451,-197 -444,-201 -438,-230 -433,-236 -429,-237 -428,-239 -431,-218 -436,-209 -439,-207 -446,-206 -449,-203 -453,-187 -476,-187 -489,-178 -498,-177 -504,-174 -493,-181 -465,-191" fill-opacity="1" fill="#dbe2ce" filter="url(#pencil)" transform="matrix(1,0,0,1,0,0)" opacity="1"/><polyline id="SvgjsPolyline2530" points="-452,-170 -434,-185 -418,-204 -404,-227 -391,-255 -378,-264 -359,-270 -349,-271 -374,-268 -385,-259 -390,-253 -396,-244 -398,-237 -408,-181 -411,-177 -427,-168 -444,-160 -478,-160 -445,-160 -420,-173 -408,-181 -403,-186 -395,-190 -390,-194 -388,-200 -393,-209 -395,-232 -364,-253 -352,-257 -371,-252 -378,-249 -384,-242 -385,-231 -388,-222 -388,-214" fill-opacity="1" fill="#dbe2ce" filter="url(#pencil)" transform="matrix(1,0,0,1,0,0)" opacity="1"/><polyline id="SvgjsPolyline2537" points="-350,-302 -345,-313 -337,-320 -332,-323 -319,-322 -341,-319 -361,-308 -374,-295 -411,-264 -416,-251 -416,-239 -411,-274 -399,-284 -391,-287 -382,-288" fill-opacity="1" fill="#dbe2ce" filter="url(#pencil)" transform="matrix(1,0,0,1,0,0)" opacity="1"/><polyline id="SvgjsPolyline2544" points="-316,-307 -337,-302 -349,-288 -352,-282 -367,-271 -351,-274 -344,-279 -322,-305 -316,-310 -304,-315 -285,-315 -277,-313 -277,-314 -287,-316" fill-opacity="1" fill="#dbe2ce" filter="url(#pencil)" transform="matrix(1,0,0,1,0,0)" opacity="1"/><polyline id="SvgjsPolyline2551" points="-329,-310 -337,-312 -370,-310 -396,-303 -403,-299 -421,-277 -422,-274 -412,-284 -403,-288 -362,-301 -355,-304 -335,-304 -316,-301 -313,-293 -309,-290 -333,-291 -338,-295 -367,-304 -372,-304 -369,-304" fill-opacity="1" fill="#dbe2ce" filter="url(#pencil)" transform="matrix(1,0,0,1,0,0)" opacity="1"/><polyline id="SvgjsPolyline2558" points="-317,-315 -298,-316 -287,-313 -276,-305 -268,-296 -263,-283 -263,-272 -266,-268 -274,-266 -268,-279 -268,-285 -270,-292 -279,-300 -299,-309 -307,-310 -309,-305" fill-opacity="1" fill="#dbe2ce" filter="url(#pencil)" transform="matrix(1,0,0,1,0,0)" opacity="1"/><polyline id="SvgjsPolyline2565" points="-306,-285 -266,-284 -260,-280 -257,-269 -260,-254 -271,-237 -277,-220 -281,-217 -287,-215 -301,-214 -290,-214 -268,-221 -263,-231 -261,-261 -263,-268 -275,-289 -283,-291 -291,-291 -291,-289" fill-opacity="1" fill="#dbe2ce" filter="url(#pencil)" transform="matrix(1,0,0,1,0,0)" opacity="1"/><polyline id="SvgjsPolyline2572" points="-252,-277 -238,-267 -233,-256 -232,-246 -233,-233 -235,-224 -240,-217 -267,-193 -280,-192 -313,-195 -320,-195 -320,-193 -305,-191 -285,-193 -273,-202 -258,-223 -253,-234 -253,-244 -257,-250 -263,-250" fill-opacity="1" fill="#dbe2ce" filter="url(#pencil)" transform="matrix(1,0,0,1,0,0)" opacity="1"/><polyline id="SvgjsPolyline2579" points="-307,-254 -306,-254 -304,-238 -305,-230 -317,-227 -356,-240 -364,-239 -373,-233 -382,-224 -385,-223 -387,-194 -380,-190 -379,-188 -379,-198 -374,-212 -367,-221 -350,-232 -328,-233 -308,-225 -296,-225 -291,-226 -286,-236 -285,-247" fill-opacity="1" fill="#dbe2ce" filter="url(#pencil)" transform="matrix(1,0,0,1,0,0)" opacity="1"/><polyline id="SvgjsPolyline2586" points="-350,-212 -354,-212 -361,-207 -362,-198 -358,-190 -346,-183 -337,-179 -312,-177 -303,-181 -293,-188 -290,-188 -290,-187 -329,-186 -339,-176 -348,-173 -356,-173 -369,-182 -372,-187 -373,-195 -372,-209 -364,-210" fill-opacity="1" fill="#dbe2ce" filter="url(#pencil)" transform="matrix(1,0,0,1,0,0)" opacity="1"/><polyline id="SvgjsPolyline2593" points="-176,-199 -185,-201 -228,-204 -250,-202 -254,-199 -268,-195 -270,-178 -267,-169 -282,-167 -271,-166 -263,-170 -257,-182 -256,-195 -254,-200 -248,-203 -227,-207 -220,-207 -192,-203 -173,-202 -167,-204 -165,-210 -166,-209" fill-opacity="1" fill="#dbe2ce" filter="url(#pencil)" transform="matrix(1,0,0,1,0,0)" opacity="1"/><polyline id="SvgjsPolyline2600" points="-158,-205 -123,-205 -104,-201 -93,-194 -84,-177 -83,-158 -89,-142 -94,-136 -96,-134 -107,-132 -139,-132 -145,-142 -148,-151 -148,-160 -144,-163 -130,-166 -142,-165 -145,-161 -146,-146 -141,-143 -111,-142 -102,-143 -93,-146 -81,-161 -77,-182 -77,-191 -86,-202 -97,-210 -115,-217 -141,-218 -151,-215 -159,-209 -161,-201 -166,-195 -193,-195 -210,-199 -160,-199 -113,-207 -92,-207 -94,-207" fill-opacity="1" fill="#dbe2ce" filter="url(#pencil)" transform="matrix(1,0,0,1,0,0)" opacity="1"/><polyline id="SvgjsPolyline2621" points="-508,-187 -496,-203 -483,-214 -468,-219 -454,-232 -448,-235 -435,-234 -457,-232 -464,-230 -469,-226 -476,-216 -490,-203 -492,-183 -502,-177 -484,-181 -480,-185 -477,-189 -476,-203 -469,-215 -459,-220 -447,-223 -430,-224" fill-opacity="0.5" fill="#272f5f" filter="url(#pencil)" transform="matrix(1,0,0,1,0,0)" opacity="1"/><polyline id="SvgjsPolyline2628" points="-407,-248 -390,-268 -382,-274 -372,-280 -351,-284 -345,-291 -347,-296 -351,-296 -381,-271 -390,-266 -421,-263 -445,-258 -455,-258 -480,-239 -473,-242" fill-opacity="0.5" fill="#272f5f" filter="url(#pencil)" transform="matrix(1,0,0,1,0,0)" opacity="1"/><polyline id="SvgjsPolyline2635" points="-298,-284 -292,-289 -285,-290 -270,-272 -260,-251 -260,-241 -265,-232 -276,-214 -297,-195 -307,-193 -326,-200 -304,-189 -290,-190 -275,-206 -267,-235 -265,-243 -265,-253 -266,-264 -269,-272 -280,-280 -290,-284 -315,-285 -331,-284 -340,-277 -346,-271 -346,-267 -324,-268 -320,-267" fill-opacity="0.5" fill="#272f5f" filter="url(#pencil)" transform="matrix(1,0,0,1,0,0)" opacity="1"/><polyline id="SvgjsPolyline2642" points="-298,-235 -274,-233 -269,-228 -269,-215 -279,-202 -295,-198 -306,-198 -325,-205 -338,-205 -348,-203 -358,-194 -362,-188 -354,-188 -321,-214 -302,-222 -286,-224 -271,-222 -252,-211 -239,-212 -234,-218 -233,-231 -236,-237 -244,-240 -244,-239" fill-opacity="0.5" fill="#272f5f" filter="url(#pencil)" transform="matrix(1,0,0,1,0,0)" opacity="1"/><polyline id="SvgjsPolyline2649" points="-190,-185 -190,-190 -201,-192 -223,-192 -233,-188 -258,-168 -258,-166 -255,-162 -253,-162 -248,-173 -242,-179 -224,-191 -204,-201 -181,-201 -171,-198 -166,-198 -165,-202" fill-opacity="0.5" fill="#272f5f" filter="url(#pencil)" transform="matrix(1,0,0,1,0,0)" opacity="1"/><polyline id="SvgjsPolyline2656" points="-150,-221 -150,-222 -171,-221 -226,-207 -253,-197 -242,-199 -202,-202 -199,-204 -192,-205" fill-opacity="0.5" fill="#272f5f" filter="url(#pencil)" transform="matrix(1,0,0,1,0,0)" opacity="1"/><polyline id="SvgjsPolyline2663" points="-148,-210 -194,-210 -216,-208 -239,-197 -244,-195" fill-opacity="0.5" fill="#272f5f" filter="url(#pencil)" transform="matrix(1,0,0,1,0,0)" opacity="1"/><polyline id="SvgjsPolyline2670" points="-368,-156 -368,-165 -371,-174 -371,-185 -371,-181 -364,-171 -358,-168 -342,-163 -342,-161 -353,-161 -366,-166 -370,-168 -377,-176" fill-opacity="0.5" fill="#272f5f" filter="url(#pencil)" transform="matrix(1,0,0,1,0,0)" opacity="1"/><polyline id="SvgjsPolyline2677" points="-722,-295 -722,-297 -718,-298 -704,-298 -691,-290 -680,-268 -676,-264 -663,-258 -673,-261 -674,-276 -680,-282 -694,-287 -712,-310 -725,-319 -728,-323 -730,-337" fill-opacity="0.5" fill="#272f5f" filter="url(#pencil)" transform="matrix(1,0,0,1,0,0)" opacity="1"/><polyline id="SvgjsPolyline2684" points="-726,-359 -682,-291 -686,-301 -702,-322 -704,-339 -701,-351 -701,-362 -702,-362" fill-opacity="0.5" fill="#272f5f" filter="url(#pencil)" transform="matrix(1,0,0,1,0,0)" opacity="1"/><polyline id="SvgjsPolyline2691" points="-713,-389 -701,-381 -685,-362 -673,-317 -664,-300 -646,-281 -626,-271 -622,-271 -619,-273 -618,-277 -627,-276 -642,-277 -647,-280 -657,-288" fill-opacity="0.5" fill="#272f5f" filter="url(#pencil)" transform="matrix(1,0,0,1,0,0)" opacity="1"/><polyline id="SvgjsPolyline2698" points="-627,-244 -616,-228 -609,-223 -609,-220 -611,-219 -615,-230 -634,-241 -656,-253 -681,-264 -673,-269 -662,-268 -649,-258 -636,-236 -632,-216 -622,-208 -604,-206 -602,-202" fill-opacity="0.5" fill="#272f5f" filter="url(#pencil)" transform="matrix(1,0,0,1,0,0)" opacity="1"/><polyline id="SvgjsPolyline2706" points="-504,-372 -515,-365 -518,-361 -520,-353 -517,-339 -512,-333 -504,-332 -497,-332 -488,-335 -485,-338 -477,-353 -475,-362 -476,-370 -482,-380 -487,-383 -495,-386 -511,-388 -516,-387 -525,-382 -536,-370 -541,-362 -543,-345 -538,-330 -512,-312 -503,-308 -489,-306 -475,-308 -466,-312 -456,-318 -453,-324 -450,-337 -449,-363 -451,-370 -460,-381 -478,-391 -487,-394 -499,-394 -511,-391" fill-opacity="0.5" fill="#ffffdb" filter="url(#pencil2)" transform="matrix(1,0,0,1,0,0)" opacity="1"/><polyline id="SvgjsPolyline2714" points="-89,-399 -102,-387 -117,-361 -118,-347 -117,-324 -110,-306 -103,-299 -94,-292 -71,-287 -57,-286 -39,-290 -29,-295 -10,-309 3,-326 7,-336 8,-345 8,-357 4,-369 -10,-387 -28,-402 -36,-407 -57,-415 -96,-415 -111,-413 -124,-408 -142,-395 -157,-378 -163,-367 -168,-353 -168,-339 -162,-319 -157,-306 -142,-289 -127,-281 -97,-270 -77,-268 -59,-268 -50,-270 -40,-273 -29,-281 -9,-300 -1,-314 1,-329" fill-opacity="0.5" fill="#ffffdb" filter="url(#pencil2)" transform="matrix(1,0,0,1,0,0)" opacity="1"/><polyline id="SvgjsPolyline2722" points="-266,-386 -283,-380 -289,-369 -287,-361 -282,-358 -261,-356 -249,-357 -244,-362 -240,-369 -239,-378 -246,-383 -260,-388 -268,-388 -280,-381 -282,-367 -280,-356 -272,-351 -263,-348 -248,-347 -242,-351 -239,-358 -239,-367" fill-opacity="0.7" fill="#ffffdb" filter="url(#pencil2)" transform="matrix(1,0,0,1,0,0)" opacity="1"/><polyline id="SvgjsPolyline2730" points="-443,-152 -445,-142 -443,-137 -433,-133 -430,-134 -427,-137 -426,-159 -433,-165 -435,-165 -440,-160 -446,-144 -446,-137 -443,-133 -437,-129 -423,-130 -412,-139 -407,-148 -406,-165 -408,-169 -417,-176 -433,-177 -439,-173 -444,-167 -446,-162 -446,-143 -438,-134 -432,-129 -432,-132" fill-opacity="0.7" fill="#ffffdb" filter="url(#pencil2)" transform="matrix(1,0,0,1,0,0)" opacity="1"/><polyline id="SvgjsPolyline2738" points="-5,-188 -26,-189 -59,-184 -71,-179 -87,-168 -92,-161 -102,-143 -108,-136 -120,-132 -130,-132 -123,-135 -104,-139 -94,-144 -86,-152 -76,-165 -57,-182 -46,-187 -13,-193 -7,-193 3,-184 11,-183 11,-177 2,-153" fill-opacity="0.7" fill="#ffffdb" filter="url(#pencil2)" transform="matrix(1,0,0,1,0,0)" opacity="1"/><polyline id="SvgjsPolyline2746" points="-6,-138 -14,-134 -45,-124 -57,-119 -73,-106 -79,-105 -60,-115 -31,-133 -27,-133" fill-opacity="0.7" fill="#ffffdb" filter="url(#pencil2)" transform="matrix(1,0,0,1,0,0)" opacity="1"/><polyline id="SvgjsPolyline2754" points="-209,-279 -228,-274 -235,-270 -234,-259 -215,-240 -205,-236 -192,-237 -186,-246 -183,-261 -185,-270 -189,-274 -209,-284 -220,-285 -225,-282 -234,-267 -236,-254 -235,-243 -222,-239 -215,-239 -210,-241 -200,-256 -198,-264" fill-opacity="0.7" fill="#ffffdb" filter="url(#pencil2)" transform="matrix(1,0,0,1,0,0)" opacity="1"/><polyline id="SvgjsPolyline2762" points="-700,-223 -705,-221 -708,-214 -707,-209 -696,-206 -690,-206 -688,-209 -688,-215 -689,-220 -693,-224 -707,-225 -710,-217 -709,-215 -698,-211 -693,-211 -691,-215 -691,-227 -698,-230 -707,-230 -712,-225 -714,-211 -711,-202 -697,-200 -692,-208 -693,-216 -700,-222 -708,-224 -711,-223" fill-opacity="0.7" fill="#fffff6" filter="url(#pencil2)" transform="matrix(1,0,0,1,0,0)" opacity="1"/><polyline id="SvgjsPolyline2770" points="-612,-168 -622,-168 -630,-162 -633,-154 -633,-148 -631,-146 -627,-145 -617,-146 -614,-163 -615,-170 -619,-171 -631,-168 -636,-159 -636,-153 -629,-148 -615,-146 -610,-149 -607,-155 -608,-162 -619,-170 -627,-166 -630,-151 -626,-143 -622,-140 -612,-139 -604,-142 -603,-156 -607,-162 -611,-166 -625,-170 -634,-170 -643,-163 -647,-155 -648,-146 -646,-142 -632,-136 -623,-136 -616,-140 -612,-149 -611,-162 -615,-178 -619,-183 -629,-183 -637,-181 -644,-170 -644,-162 -640,-155 -620,-149 -614,-149 -610,-154 -609,-159" fill-opacity="0.7" fill="#fffff6" filter="url(#pencil2)" transform="matrix(1,0,0,1,0,0)" opacity="1"/><polyline id="SvgjsPolyline2778" points="-462,-246 -469,-235 -469,-228 -462,-221 -444,-218 -432,-227 -431,-233 -432,-249 -439,-254 -456,-257 -466,-250 -471,-239 -470,-231 -467,-225" fill-opacity="0.9" fill="#ffff91" filter="url(#pencil2)" transform="matrix(1,0,0,1,0,0)" opacity="1"/><polyline id="SvgjsPolyline2810" points="-679,-352 -682,-339 -681,-330 -674,-320 -664,-318 -655,-319 -647,-324 -644,-330 -642,-339 -643,-351 -647,-357 -656,-367 -665,-372 -680,-373 -690,-371 -696,-367 -702,-353 -701,-333 -686,-316 -677,-312 -664,-310 -648,-313 -635,-322 -627,-337 -627,-348 -631,-359 -643,-371 -651,-377 -662,-379 -674,-378 -682,-365" fill-opacity="0.9" fill="#ffff91" filter="url(#pencil2)" transform="matrix(1,0,0,1,0,0)" opacity="1"/><polyline id="SvgjsPolyline2826" points="-207,-271 -205,-274 -206,-277 -220,-279 -224,-269 -227,-256 -227,-248 -217,-240 -210,-239 -201,-239 -187,-244 -183,-249 -179,-260 -179,-275 -182,-281 -186,-284 -199,-291 -219,-292 -227,-289 -235,-282 -236,-277" fill-opacity="0.5" fill="#ffff91" filter="url(#pencil2)" transform="matrix(1,0,0,1,0,0)" opacity="1"/><polyline id="SvgjsPolyline2834" points="-166,-411 -182,-396 -189,-377 -192,-365 -193,-350 -192,-344 -187,-339 -185,-359 -182,-369 -172,-389 -165,-399" fill-opacity="0.5" fill="#ffff91" filter="url(#pencil2)" transform="matrix(1,0,0,1,0,0)" opacity="1"/><polyline id="SvgjsPolyline2842" points="-175,-349 -177,-332 -176,-320 -173,-310 -166,-301 -148,-283 -124,-269 -112,-267 -122,-269 -140,-282" fill-opacity="0.5" fill="#ffff91" filter="url(#pencil2)" transform="matrix(1,0,0,1,0,0)" opacity="1"/><polyline id="SvgjsPolyline2850" points="-85,-275 -76,-272 -62,-270 -17,-271 -6,-277 -4,-282 -34,-272 -59,-270" fill-opacity="0.5" fill="#ffff91" filter="url(#pencil2)" transform="matrix(1,0,0,1,0,0)" opacity="1"/><polyline id="SvgjsPolyline2858" points="-13,-336 -14,-330 -30,-318 -53,-312 -74,-312 -101,-316 -116,-316 -116,-317 -109,-312 -89,-302 -69,-299 -62,-300 -60,-304" fill-opacity="0.5" fill="#ffff91" filter="url(#pencil2)" transform="matrix(1,0,0,1,0,0)" opacity="1"/><polyline id="SvgjsPolyline2866" points="-85,-289 -96,-288 -111,-290 -130,-297 -135,-303 -142,-328 -148,-355 -148,-366 -145,-373 -137,-387 -144,-377 -151,-362 -152,-352 -152,-339 -148,-318 -144,-315 -139,-304 -120,-287 -106,-283 -67,-282 -62,-287" fill-opacity="0.5" fill="#ffff91" filter="url(#pencil2)" transform="matrix(1,0,0,1,0,0)" opacity="1"/><polyline id="SvgjsPolyline2874" points="-17,-382 -15,-383 -17,-389 -23,-398 -36,-406 -45,-410 -91,-418 -106,-417 -72,-418 -53,-415 -32,-405 -17,-382 -10,-355 -10,-340" fill-opacity="0.5" fill="#ffff91" filter="url(#pencil2)" transform="matrix(1,0,0,1,0,0)" opacity="1"/><polyline id="SvgjsPolyline2882" points="-1,-310 -1,-307 -12,-281 -21,-272 -44,-266 -58,-266 -44,-268 -28,-274 -21,-280 -9,-292 -6,-312 -8,-334" fill-opacity="0.5" fill="#ffff91" filter="url(#pencil2)" transform="matrix(1,0,0,1,0,0)" opacity="1"/><polyline id="SvgjsPolyline2890" points="-92,-403 -100,-403 -111,-394 -119,-381 -120,-353 -120,-374 -115,-383 -103,-391 -90,-397 -75,-399 -66,-397 -61,-394" fill-opacity="0.5" fill="#ffff91" filter="url(#pencil2)" transform="matrix(1,0,0,1,0,0)" opacity="1"/><polyline id="SvgjsPolyline2898" points="-476,-379 -479,-389 -490,-401 -497,-405 -511,-405 -519,-403 -500,-401 -484,-396 -477,-389 -473,-379 -472,-367 -469,-369" fill-opacity="0.5" fill="#ffff91" filter="url(#pencil2)" transform="matrix(1,0,0,1,0,0)" opacity="1"/><polyline id="SvgjsPolyline2906" points="-454,-363 -451,-353 -451,-340 -454,-332 -461,-321 -477,-315 -451,-320 -441,-326 -437,-335 -437,-349 -439,-349" fill-opacity="0.5" fill="#ffff91" filter="url(#pencil2)" transform="matrix(1,0,0,1,0,0)" opacity="1"/><polyline id="SvgjsPolyline2914" points="-494,-313 -499,-305 -531,-304 -547,-308 -553,-313 -554,-317 -554,-314 -545,-306 -533,-303 -510,-300 -495,-300 -498,-302" fill-opacity="0.5" fill="#ffff91" filter="url(#pencil2)" transform="matrix(1,0,0,1,0,0)" opacity="1"/><polyline id="SvgjsPolyline2922" points="-526,-325 -532,-341 -534,-352 -535,-373 -526,-382 -514,-388 -519,-386 -525,-381 -529,-365 -528,-355 -526,-354" fill-opacity="0.5" fill="#ffff91" filter="url(#pencil2)" transform="matrix(1,0,0,1,0,0)" opacity="1"/><polyline id="SvgjsPolyline2930" points="-545,-394 -549,-391 -561,-377 -562,-352 -561,-348 -554,-342 -557,-353 -555,-370 -548,-381 -541,-386 -536,-386" fill-opacity="0.5" fill="#ffff91" filter="url(#pencil2)" transform="matrix(1,0,0,1,0,0)" opacity="1"/><polyline id="SvgjsPolyline2938" points="-488,-370 -506,-359 -509,-353 -509,-346 -505,-328 -508,-336 -508,-349 -502,-357 -496,-361" fill-opacity="0.5" fill="#ffff91" filter="url(#pencil2)" transform="matrix(1,0,0,1,0,0)" opacity="1"/><polyline id="SvgjsPolyline2946" points="-658,-146 -661,-141 -661,-134 -658,-128 -634,-125 -627,-125 -625,-127 -648,-127 -664,-129 -664,-138 -660,-145 -658,-146" fill-opacity="0.5" fill="#ffff91" filter="url(#pencil2)" transform="matrix(1,0,0,1,0,0)" opacity="1"/><polyline id="SvgjsPolyline2954" points="-611,-183 -640,-182 -648,-169 -648,-161 -651,-173 -650,-185 -641,-191 -629,-193 -629,-190" fill-opacity="0.5" fill="#ffff91" filter="url(#pencil2)" transform="matrix(1,0,0,1,0,0)" opacity="1"/><polyline id="SvgjsPolyline2962" points="-601,-149 -600,-140 -610,-135 -624,-134 -607,-137 -600,-141 -599,-151 -602,-154 -603,-144 -601,-141" fill-opacity="0.5" fill="#ffff91" filter="url(#pencil2)" transform="matrix(1,0,0,1,0,0)" opacity="1"/><polyline id="SvgjsPolyline2970" points="-597,-123 -611,-112 -633,-111 -622,-111 -613,-115 -607,-121 -604,-135 -604,-120 -610,-116 -625,-116 -633,-118" fill-opacity="0.5" fill="#ffff91" filter="url(#pencil2)" transform="matrix(1,0,0,1,0,0)" opacity="1"/><polyline id="SvgjsPolyline2978" points="-624,-166 -634,-168 -641,-171 -639,-179 -632,-183 -625,-183 -636,-175 -640,-163" fill-opacity="0.5" fill="#ffff91" filter="url(#pencil2)" transform="matrix(1,0,0,1,0,0)" opacity="1"/><polyline id="SvgjsPolyline2986" points="-718,-211 -718,-205 -711,-193 -704,-188 -686,-187 -708,-185 -720,-188 -722,-192 -722,-197" fill-opacity="0.5" fill="#ffff91" filter="url(#pencil2)" transform="matrix(1,0,0,1,0,0)" opacity="1"/><polyline id="SvgjsPolyline2994" points="-683,-198 -669,-200 -658,-210 -657,-205 -658,-188 -666,-183 -674,-181 -669,-202" fill-opacity="0.5" fill="#ffff91" filter="url(#pencil2)" transform="matrix(1,0,0,1,0,0)" opacity="1"/><polyline id="SvgjsPolyline3002" points="-659,-194 -664,-179 -685,-167 -704,-165 -714,-166 -722,-175 -717,-166 -705,-160 -689,-158 -681,-163 -678,-171" fill-opacity="0.5" fill="#ffff91" filter="url(#pencil2)" transform="matrix(1,0,0,1,0,0)" opacity="1"/><polyline id="SvgjsPolyline3010" points="-625,-307 -619,-310 -609,-324 -606,-333 -606,-344 -609,-318 -619,-305 -637,-298 -647,-298 -642,-300" fill-opacity="0.5" fill="#ffff91" filter="url(#pencil2)" transform="matrix(1,0,0,1,0,0)" opacity="1"/><polyline id="SvgjsPolyline3018" points="-661,-293 -664,-292 -697,-296 -707,-305 -708,-319 -708,-314 -698,-303 -678,-301 -657,-302 -651,-310" fill-opacity="0.5" fill="#ffff91" filter="url(#pencil2)" transform="matrix(1,0,0,1,0,0)" opacity="1"/><polyline id="SvgjsPolyline3026" points="-597,-353 -595,-355 -594,-373 -610,-393 -628,-397 -637,-397 -616,-393 -609,-383 -609,-369 -611,-365" fill-opacity="0.5" fill="#ffff91" filter="url(#pencil2)" transform="matrix(1,0,0,1,0,0)" opacity="1"/><polyline id="SvgjsPolyline3034" points="-671,-410 -697,-405 -712,-395 -718,-386 -725,-371 -720,-381 -710,-390 -692,-398 -658,-400 -647,-395 -645,-387" fill-opacity="0.5" fill="#ffff91" filter="url(#pencil2)" transform="matrix(1,0,0,1,0,0)" opacity="1"/><polyline id="SvgjsPolyline3042" points="-421,-236 -419,-247 -419,-257 -430,-267 -440,-269 -419,-264 -420,-244 -426,-234" fill-opacity="0.5" fill="#ffff91" filter="url(#pencil2)" transform="matrix(1,0,0,1,0,0)" opacity="1"/><polyline id="SvgjsPolyline3050" points="-459,-263 -467,-261 -478,-254 -485,-247 -490,-234 -490,-228 -488,-224 -490,-225 -496,-235 -490,-256" fill-opacity="0.5" fill="#ffff91" filter="url(#pencil2)" transform="matrix(1,0,0,1,0,0)" opacity="1"/><polyline id="SvgjsPolyline3058" points="-475,-224 -476,-217 -473,-207 -463,-200 -445,-199 -435,-201 -433,-204 -449,-200 -464,-199 -479,-201 -485,-204 -485,-210 -482,-212" fill-opacity="0.5" fill="#ffff91" filter="url(#pencil2)" transform="matrix(1,0,0,1,0,0)" opacity="1"/><polyline id="SvgjsPolyline3066" points="-435,-183 -436,-184 -454,-183 -462,-177 -465,-172 -468,-159 -468,-155 -462,-149 -471,-166 -469,-178 -455,-188 -444,-188 -439,-186" fill-opacity="0.5" fill="#ffff91" filter="url(#pencil2)" transform="matrix(1,0,0,1,0,0)" opacity="1"/><polyline id="SvgjsPolyline3074" points="-405,-178 -383,-175 -379,-167 -375,-151 -381,-145 -377,-156 -378,-160 -383,-167 -391,-174 -406,-181 -413,-181 -412,-175" fill-opacity="0.5" fill="#ffff91" filter="url(#pencil2)" transform="matrix(1,0,0,1,0,0)" opacity="1"/><polyline id="SvgjsPolyline3082" points="-400,-135 -417,-122 -446,-123 -462,-135 -465,-145 -455,-140 -436,-136 -402,-134 -395,-142 -395,-146 -396,-129 -404,-124 -422,-123 -439,-120" fill-opacity="0.5" fill="#ffff91" filter="url(#pencil2)" transform="matrix(1,0,0,1,0,0)" opacity="1"/><polyline id="SvgjsPolyline3090" points="-463,-152 -463,-146 -467,-130 -466,-119 -452,-99 -444,-92 -422,-89 -434,-88 -450,-92 -455,-99 -459,-108 -456,-120 -453,-124 -452,-124 -452,-121" fill-opacity="0.5" fill="#ffff91" filter="url(#pencil2)" transform="matrix(1,0,0,1,0,0)" opacity="1"/><polyline id="SvgjsPolyline3098" points="-431,-97 -419,-93 -396,-97 -382,-107 -372,-121 -369,-132 -369,-138 -369,-129 -375,-113 -398,-105 -412,-106 -412,-108" fill-opacity="0.5" fill="#ffff91" filter="url(#pencil2)" transform="matrix(1,0,0,1,0,0)" opacity="1"/><polyline id="SvgjsPolyline3106" points="-285,-387 -292,-366 -292,-352 -289,-342 -284,-338 -279,-338 -281,-337 -297,-336 -307,-341 -310,-347 -310,-357 -303,-368 -293,-377 -291,-367" fill-opacity="0.5" fill="#ffff91" filter="url(#pencil2)" transform="matrix(1,0,0,1,0,0)" opacity="1"/><polyline id="SvgjsPolyline3114" points="-269,-331 -253,-333 -238,-344 -236,-355 -240,-368 -246,-373 -237,-358 -237,-348 -242,-334 -250,-326 -263,-326 -268,-323 -271,-323 -268,-329" fill-opacity="0.5" fill="#ffff91" filter="url(#pencil2)" transform="matrix(1,0,0,1,0,0)" opacity="1"/><polyline id="SvgjsPolyline3122" points="-225,-365 -224,-383 -238,-397 -269,-403 -244,-399 -241,-397 -238,-389 -237,-377 -239,-368 -248,-367" fill-opacity="0.5" fill="#ffff91" filter="url(#pencil2)" transform="matrix(1,0,0,1,0,0)" opacity="1"/><polyline id="SvgjsPolyline3130" points="-269,-400 -277,-406 -287,-408 -307,-410 -320,-404 -329,-397 -335,-387 -337,-379 -333,-397 -325,-407 -316,-413 -304,-415 -291,-414" fill-opacity="0.5" fill="#ffff91" filter="url(#pencil2)" transform="matrix(1,0,0,1,0,0)" opacity="1"/><polyline id="SvgjsPolyline3138" points="-195,-340 -195,-336 -204,-322 -225,-310 -252,-305 -236,-313 -225,-326 -224,-340 -233,-356 -237,-361" fill-opacity="0.5" fill="#ffff91" filter="url(#pencil2)" transform="matrix(1,0,0,1,0,0)" opacity="1"/><polyline id="SvgjsPolyline3146" points="-286,-399 -290,-399 -307,-386 -317,-370 -320,-352 -321,-331 -315,-317 -304,-309 -296,-307 -337,-333 -338,-336 -335,-346 -313,-357" fill-opacity="0.5" fill="#ffff91" filter="url(#pencil2)" transform="matrix(1,0,0,1,0,0)" opacity="1"/><polyline id="SvgjsPolyline3154" points="-659,-344 -662,-349 -674,-347 -677,-341 -676,-335 -664,-335 -660,-338 -660,-349 -663,-355 -667,-357 -674,-354 -674,-342 -671,-340 -661,-339 -658,-345 -662,-350 -675,-351 -680,-346 -680,-341 -666,-338 -663,-339 -660,-345 -661,-352 -666,-354 -676,-352 -678,-348 -678,-338 -671,-337 -664,-339 -660,-348 -661,-350 -669,-353 -675,-352 -681,-346 -680,-338 -673,-335 -662,-336 -659,-345 -659,-349 -662,-351 -671,-350 -675,-344 -675,-338 -667,-336" fill-opacity="0.5" fill="#ffa713" filter="url(#pencil2)" transform="matrix(1,0,0,1,0,0)" opacity="1"/><polyline id="SvgjsPolyline3170" points="-477,-355 -487,-355 -489,-341 -486,-340 -482,-340 -480,-344 -481,-352 -488,-353 -492,-351 -492,-347 -482,-346 -480,-348 -480,-354 -483,-357 -489,-358 -497,-357 -500,-346 -499,-344 -493,-342 -483,-344 -479,-350 -479,-354 -485,-358 -489,-357 -492,-349 -488,-348" fill-opacity="1" fill="#ffa713" filter="url(#pencil2)" transform="matrix(1,0,0,1,0,0)" opacity="1"/><polyline id="SvgjsPolyline3178" points="-622,-156 -624,-162 -630,-163 -632,-161 -631,-157 -626,-157 -620,-159 -620,-162 -627,-162 -631,-155 -630,-149 -626,-148 -620,-151 -619,-157 -627,-160 -631,-160 -632,-158 -631,-155 -626,-157" fill-opacity="1" fill="#ffa713" filter="url(#pencil2)" transform="matrix(1,0,0,1,0,0)" opacity="1"/><polyline id="SvgjsPolyline3218" points="-704,-215 -701,-215 -702,-208 -707,-209 -707,-216 -700,-218 -699,-211 -704,-210" fill="none" stroke-linejoin="round" stroke-linecap="round" stroke="#ffa713" stroke-width="4" filter="url(#pencil2)" transform="matrix(1,0,0,1,0,0)"/><polyline id="SvgjsPolyline3234" points="-426,-153 -424,-155 -427,-156 -428,-151 -427,-148 -418,-146 -414,-155 -417,-155 -419,-157 -428,-157 -430,-156 -431,-151 -423,-151 -420,-157 -420,-159 -428,-158 -428,-148 -422,-146" fill-opacity="1" fill="#ffa713" filter="url(#pencil2)" transform="matrix(1,0,0,1,0,0)" opacity="1"/><polyline id="SvgjsPolyline3242" points="-263,-365 -261,-367 -264,-365 -263,-358 -259,-357 -254,-359 -252,-365 -252,-370 -255,-373 -261,-371 -264,-368 -263,-363 -252,-362 -251,-364 -252,-372 -260,-374 -270,-373 -273,-371 -277,-364 -271,-359 -263,-359 -258,-362 -257,-368 -265,-368 -273,-354 -269,-352 -261,-352 -256,-356 -255,-364 -266,-363" fill-opacity="1" fill="#ffa713" filter="url(#pencil2)" transform="matrix(1,0,0,1,0,0)" opacity="1"/><polyline id="SvgjsPolyline3250" points="-210,-256 -209,-265 -217,-266 -217,-264 -206,-260 -203,-261 -200,-271 -204,-273 -209,-273 -216,-269 -217,-256 -210,-256 -205,-260 -205,-270 -205,-265 -203,-263 -204,-258 -212,-258 -215,-263 -215,-270 -210,-273 -206,-273 -202,-271 -201,-266 -204,-263 -208,-261" fill-opacity="1" fill="#ffa713" filter="url(#pencil2)" transform="matrix(1,0,0,1,0,0)" opacity="1"/><polyline id="SvgjsPolyline3258" points="-453,-231 -450,-233 -447,-238 -456,-239 -454,-235 -440,-233 -438,-240 -438,-241 -445,-241 -448,-237 -448,-234 -446,-241 -450,-244 -453,-244 -456,-242 -457,-238 -453,-234 -449,-234 -445,-239 -445,-244 -448,-246 -449,-240 -446,-238 -440,-238" fill-opacity="1" fill="#ffa713" filter="url(#pencil2)" transform="matrix(1,0,0,1,0,0)" opacity="1"/><polyline id="SvgjsPolyline3274" points="-680,-261 -673,-259 -656,-244 -644,-238 -634,-236 -623,-227 -623,-224 -628,-216 -647,-226 -650,-244 -656,-252 -669,-260 -682,-265 -688,-265 -688,-264" fill-opacity="0.7" fill="#242f61" filter="url(#pencil2)" transform="matrix(1,0,0,1,0,0)" opacity="1"/><polyline id="SvgjsPolyline3282" points="-559,-230 -599,-249 -592,-232 -585,-223 -579,-198 -576,-197 -571,-203 -569,-214 -570,-223 -575,-232 -576,-240" fill-opacity="0.7" fill="#242f61" filter="url(#pencil2)" transform="matrix(1,0,0,1,0,0)" opacity="1"/><polyline id="SvgjsPolyline3290" points="-521,-233 -509,-208 -500,-202 -505,-220 -500,-223 -476,-230 -470,-247 -467,-250 -462,-251" fill-opacity="0.7" fill="#242f61" filter="url(#pencil2)" transform="matrix(1,0,0,1,0,0)" opacity="1"/><polyline id="SvgjsPolyline3295" points="-729,-299 -730,-298 -726,-293 -712,-285 -698,-280 -668,-276 -664,-274 -663,-257 -661,-249 -652,-231 -651,-217 -655,-222 -675,-234 -682,-243 -688,-254 -694,-274 -698,-281 -707,-289 -721,-291 -721,-289 -678,-267 -668,-257 -653,-234 -646,-225 -637,-220 -633,-210 -633,-203 -631,-198 -618,-195 -606,-199" fill-opacity="0.7" fill="#242f61" filter="url(#rain)" transform="matrix(1,0,0,1,0,0)" opacity="1"/><polyline id="SvgjsPolyline3300" points="-513,-246 -496,-247 -472,-251 -456,-259 -435,-274 -411,-297 -405,-300 -416,-288 -439,-270 -446,-263" fill-opacity="0.7" fill="#242f61" filter="url(#rain)" transform="matrix(1,0,0,1,0,0)" opacity="1"/><polyline id="SvgjsPolyline3315" points="-734,-364 -731,-364 -715,-346 -711,-329 -708,-322 -694,-309 -685,-298 -671,-293 -690,-298 -701,-305 -706,-313" fill-opacity="1" fill="#c2d7e2" filter="url(#rain)" transform="matrix(1,0,0,1,0,0)" opacity="1"/><polyline id="SvgjsPolyline3320" points="-706,-383 -728,-378 -689,-373 -673,-383 -667,-383 -668,-380 -692,-379 -710,-361 -712,-351" fill-opacity="1" fill="#c2d7e2" filter="url(#rain)" transform="matrix(1,0,0,1,0,0)" opacity="1"/><polyline id="SvgjsPolyline3325" points="-503,-257 -488,-270 -485,-271" fill-opacity="1" fill="#c2d7e2" filter="url(#rain)" transform="matrix(1,0,0,1,0,0)" opacity="1"/><polyline id="SvgjsPolyline3330" points="-459,-288 -439,-303 -423,-309 -407,-309 -419,-300 -436,-296 -449,-290 -469,-288 -501,-288 -526,-286 -446,-284 -406,-279 -391,-280 -411,-273 -434,-271 -461,-264" fill-opacity="1" fill="#c2d7e2" filter="url(#rain)" transform="matrix(1,0,0,1,0,0)" opacity="1"/><polyline id="SvgjsPolyline3335" points="-366,-255 -341,-265 -328,-273 -307,-279 -295,-280 -289,-284 -288,-290 -292,-293 -316,-293 -338,-282 -358,-275 -355,-273 -299,-265 -272,-257 -287,-253 -408,-253 -296,-251" fill-opacity="1" fill="#c2d7e2" filter="url(#rain)" transform="matrix(1,0,0,1,0,0)" opacity="1"/><polyline id="SvgjsPolyline3350" points="-212,-211 -200,-216 -136,-228 -107,-231 -55,-231 -10,-218 -18,-218 -50,-211 -127,-191 -161,-185" fill-opacity="1" fill="#c2d7e2" filter="url(#rain)" transform="matrix(1,0,0,1,0,0)" opacity="1"/><polyline id="SvgjsPolyline3355" points="-141,-156 -155,-155 -222,-156 -125,-151 -121,-149 -128,-143 -160,-140 -197,-140 -268,-149 -233,-144 -151,-142 -111,-143" fill-opacity="1" fill="#c2d7e2" filter="url(#rain)" transform="matrix(1,0,0,1,0,0)" opacity="1"/><polyline id="SvgjsPolyline3360" points="-139,-142 -349,-142 -193,-143 -83,-139 -107,-100 -153,-92 -217,-91" fill-opacity="1" fill="#c2d7e2" filter="url(#rain)" transform="matrix(1,0,0,1,0,0)" opacity="1"/><polyline id="SvgjsPolyline3380" points="-269,-236 -310,-226 -342,-231 -358,-251 -361,-273 -361,-302 -364,-287 -367,-255 -365,-231 -357,-207 -350,-194 -342,-186 -335,-179 -322,-173 -299,-166 -289,-165 -281,-165 -273,-169 -271,-179 -275,-174 -302,-171 -281,-171 -264,-174 -219,-177 -244,-177 -306,-173 -346,-173 -344,-183 -337,-191" fill-opacity="1" fill="#c2d7e2" filter="url(#rain)" transform="matrix(1,0,0,1,0,0)" opacity="1"/><polyline id="SvgjsPolyline3385" points="-677,-153 -677,-150 -691,-142 -711,-141 -720,-142 -726,-157 -734,-166 -733,-155 -728,-151 -709,-148 -685,-140 -669,-140 -651,-143 -631,-155 -618,-160 -614,-168 -618,-176 -626,-182 -629,-182 -634,-178 -637,-173 -639,-167 -643,-160 -648,-156 -655,-155 -657,-148" fill-opacity="1" fill="#c2d7e2" filter="url(#rain)" transform="matrix(1,0,0,1,0,0)" opacity="1"/></g></g><filter xmlns="http://www.w3.org/2000/svg" id="canvas"><feTurbulence id="SvgjsFeTurbulence1060" baseFrequency="0.0621216354661451 0.7" filtername="feTurbulence" numOctaves="3" result="n" seed="20"/><feTurbulence id="SvgjsFeTurbulence1061" baseFrequency="0.7 0.06389500910048855" filtername="feTurbulence" numOctaves="3" seed="20"/><feBlend id="SvgjsFeBlend1062" filtername="feBlend" in="n" result="noise"/><feDiffuseLighting id="SvgjsFeDiffuseLighting1063" filtername="feDiffuseLighting" in="noise" lighting-color="white" surfaceScale="2"><feDistantLight id="SvgjsFeDistantLight1064" azimuth="45" elevation="60" filtername="feDistantLight"/></feDiffuseLighting></filter><filter xmlns="http://www.w3.org/2000/svg" id="squiggly-animated"><feTurbulence id="SvgjsFeTurbulence1529" baseFrequency="0.03 0.03" filtername="feTurbulence" numOctaves="3" result="noise" seed="0"><animate id="SvgjsAnimate1530" attributeName="numOctaves" dur="1.25" values="1;10;20;10;1" attributeType="XML" repeatCount="indefinite"/></feTurbulence><feDisplacementMap id="SvgjsFeDisplacementMap1531" filtername="feDisplacementMap" in="SourceGraphic" in2="noise" scale="6"><animate id="SvgjsAnimate1532" attributeName="scale" dur="2.25" values="6;8;10;8" attributeType="XML" repeatCount="indefinite"/></feDisplacementMap></filter><filter xmlns="http://www.w3.org/2000/svg" id="squiggly-animated2"><feTurbulence id="SvgjsFeTurbulence1970" baseFrequency="0.02" filtername="feTurbulence" numOctaves="3" result="noise" seed="0"><animate id="SvgjsAnimate1971" attributeName="seed" dur="0.25" values="0;1;2;4;2;1;0" attributeType="XML" repeatCount="indefinite"/></feTurbulence><feDisplacementMap id="SvgjsFeDisplacementMap1972" filtername="feDisplacementMap" in="SourceGraphic" in2="noise" scale="6"><animate id="SvgjsAnimate1973" attributeName="scale" dur="0.25" values="6;9;12;9;6" attributeType="XML" repeatCount="indefinite"/></feDisplacementMap></filter><filter xmlns="http://www.w3.org/2000/svg" id="watercolour"><feTurbulence id="SvgjsFeTurbulence2048" baseFrequency=".0025" filtername="feTurbulence" numOctaves="5" result="cloudbase" seed="24" type="fractalNoise"/><feColorMatrix id="SvgjsFeColorMatrix2049" filtername="feColorMatrix" in="cloudbase" result="cloud" type="hueRotate" values="0"/><feColorMatrix id="SvgjsFeColorMatrix2050" filtername="feColorMatrix" in="cloud" result="wispy" type="matrix" values="4 0 0 0 -1 4 0 0 0 -1 4 0 0 0 -1 1 0 0 0 0"/><feFlood id="SvgjsFeFlood2051" filtername="feFlood" flood-color="#282a35" result="color"/><feBlend id="SvgjsFeBlend2052" filtername="feBlend" in="wispy" in2="color" mode="screen" result="fill"/><feGaussianBlur id="SvgjsFeGaussianBlur2053" filtername="feGaussianBlur" stdDeviation="4"/><feComposite id="SvgjsFeComposite2054" filtername="feComposite" in2="SourceGraphic" operator="in"/></filter><filter xmlns="http://www.w3.org/2000/svg" id="pencil"><feTurbulence id="SvgjsFeTurbulence2693" baseFrequency="1.2" filtername="feTurbulence" in="SourceGraphic" numOctaves="1" result="f1" seed="0" stitchTiles="noStitch" type="fractalNoise"/><feColorMatrix id="SvgjsFeColorMatrix2694" filtername="feColorMatrix" in="SourceGraphic" result="f2" type="matrix" values="0 0 0 0 0, 0 0 0 0 0, 0 0 0 0 0, 0 0 0 -1.5 2.8"/><feComposite id="SvgjsFeComposite2695" filtername="feComposite" in="SourceGraphic" in2="f2" operator="in" result="f3"/><feTurbulence id="SvgjsFeTurbulence2696" baseFrequency="1.8" filtername="feTurbulence" in="SourceGraphic" numOctaves="3" result="noise" seed="0" stitchTiles="noStitch" type="fractalNoise"/><feDisplacementMap id="SvgjsFeDisplacementMap2697" filtername="feDisplacementMap" in="SourceGraphic" result="f4" scale="4"/></filter><filter xmlns="http://www.w3.org/2000/svg" id="pencil2"><feTurbulence id="SvgjsFeTurbulence3284" baseFrequency="1.2" filtername="feTurbulence" in="SourceGraphic" numOctaves="1" result="f1" seed="0" stitchTiles="noStitch" type="fractalNoise"/><feColorMatrix id="SvgjsFeColorMatrix3285" filtername="feColorMatrix" in="SourceGraphic" result="f2" type="matrix" values="0 0 0 0 0, 0 0 0 0 0, 0 0 0 0 0, 0 0 0 -1.5 2.8"/><feComposite id="SvgjsFeComposite3286" filtername="feComposite" in="SourceGraphic" in2="f2" operator="in" result="f3"/><feTurbulence id="SvgjsFeTurbulence3287" baseFrequency="1.8" filtername="feTurbulence" in="SourceGraphic" numOctaves="3" result="noise" seed="0" stitchTiles="noStitch" type="fractalNoise"/><feDisplacementMap id="SvgjsFeDisplacementMap3288" filtername="feDisplacementMap" in="SourceGraphic" result="f4" scale="10"><animate id="SvgjsAnimate3289" attributeName="scale" dur="1" values="10;30;10" attributeType="XML" repeatCount="indefinite"/></feDisplacementMap></filter><filter xmlns="http://www.w3.org/2000/svg" id="rain"><feTurbulence id="SvgjsFeTurbulence3382" baseFrequency="0.005 0.1" filtername="feTurbulence" numOctaves="1" result="turbulence" seed="6" stitchTiles="noStitch"/><feDisplacementMap id="SvgjsFeDisplacementMap3383" filtername="feDisplacementMap" in="SourceGraphic" in2="turbulence" result="displacementMap" scale="100"><animate id="SvgjsAnimate3384" attributeName="scale" dur="3" values="100;50;100" attributeType="XML" repeatCount="indefinite"/></feDisplacementMap></filter><g id="[[filtered.ink-color-palette-data]]"><g id="0-0-none"/><g id="0-1-none"/><g id="0-2-none"/><g id="1-0-none"/><g id="1-1-none"/><g id="1-2-none"/><g id="2-0-none"/><g id="2-1-none"/><g id="2-2-none"/><g id="3-0-none"/><g id="3-1-none"/><g id="3-2-none"/><g id="4-0-none"/><g id="4-1-none"/><g id="4-2-none"/><g id="5-0-none"/><g id="5-1-none"/><g id="5-2-none"/><g id="6-0-none"/><g id="6-1-none"/><g id="6-2-none"/><g id="7-0-none"/><g id="7-1-none"/><g id="7-2-none"/><g id="8-0-none"/><g id="8-1-none"/><g id="8-2-none"/><g id="9-0-none"/><g id="9-1-none"/><g id="9-2-none"/></g><g id="[[filtered.ink-waypoint-data]]"/></svg>