<svg xmlns="http://www.w3.org/2000/svg" xmlnsXlink="http://www.w3.org/1999/xlink" xmlnsSvgjs="http://svgjs.com/svgjs" id="main-canvas" version="1.1" viewBox="-51.94 267.77 475.91 399.42"><defs id="SvgjsDefs1007"><script xmlns="http://www.w3.org/1999/xhtml">function $(id) { return document.getElementById(id) }</script></defs><g id="sketchGroup" transform="matrix(1,0,0,1,607.5,487)"><g id="layer1" depth="2"><path id="SvgjsPath1155" d="M-594.54 -184.09 C -592.19 -177.87,-588.40 -171.61,-573.16 -148.80 C -530.82 -85.44,-483.94 -35.59,-427.07 6.57 C -413.30 16.78,-395.69 31.53,-389.94 37.70 C -388.29 39.46,-384.24 42.74,-380.94 44.98 C -377.64 47.22,-367.41 56.34,-358.22 65.24 C -334.23 88.48,-312.77 103.15,-290.94 111.26 C -287.62 112.49,-283.79 115.21,-279.55 119.36 C -269.74 128.97,-238.75 145.67,-232.85 144.54 C -231.52 144.28,-281.82 98.08,-409.46 -17.71 C -507.62 -106.75,-589.65 -181.22,-591.75 -183.20 C -595.43 -186.68,-595.53 -186.71,-594.54 -184.09 " fill-opacity="0.58" fill="#61180f" potraced="yes" filter="url(#canvas)" transform="matrix(1,0,0,1,0,0)" opacity="0.58"/><path id="SvgjsPath1232" d="M-386.24 -8.27 C -417.87 -3.74,-425.30 -2.48,-430.24 -0.83 C -433.27 0.18,-438.13 1.48,-441.04 2.06 C -443.96 2.64,-447.78 3.87,-449.54 4.79 C -452.96 6.58,-474.78 7.22,-585.46 8.73 C -629.23 9.33,-631.14 9.43,-630.21 11.17 C -629.65 12.22,-629.24 24.90,-629.24 41.35 C -629.24 57.76,-628.84 70.12,-628.30 70.67 C -627.78 71.19,-626.91 74.40,-626.37 77.80 C -625.28 84.56,-623.42 88.12,-619.67 90.57 C -616.96 92.35,-616.17 108.20,-618.29 118.12 C -618.82 120.59,-619.68 124.64,-620.20 127.12 C -622.48 138.00,-623.07 140.08,-626.18 148.12 C -628.42 153.91,-629.63 159.01,-629.98 164.12 C -630.49 171.62,-630.49 171.62,-512.12 171.62 C -447.01 171.62,-351.59 171.99,-300.07 172.44 C -206.40 173.26,-206.40 173.26,-205.84 164.94 C -205.54 160.36,-204.88 140.42,-204.38 120.62 C -203.88 100.80,-202.99 83.05,-202.40 81.12 C -201.81 79.19,-200.82 73.79,-200.21 69.12 C -198.32 54.87,-197.39 48.88,-196.07 42.62 C -194.63 35.82,-194.22 -7.20,-195.57 -8.55 C -197.11 -10.08,-375.44 -9.82,-386.24 -8.27 " fill-opacity="0.58" fill="#012b5c" filter="url(#pencil)" transform="matrix(1,0,0,1,0,0)" potraced="yes" opacity="0.58"/><path id="SvgjsPath1157" d="M-245.98 67.92 C -250.23 68.37,-258.33 70.17,-263.98 71.91 C -269.63 73.66,-278.75 75.68,-284.25 76.41 C -289.75 77.13,-297.40 78.85,-301.25 80.22 C -319.98 86.89,-325.41 88.93,-327.25 90.00 C -328.35 90.65,-333.97 93.57,-339.75 96.50 C -359.94 106.75,-376.59 121.33,-383.15 134.50 C -385.73 139.67,-389.14 155.64,-388.20 158.10 C -387.43 160.10,-374.99 163.56,-365.75 164.36 C -359.16 164.92,-351.56 166.38,-337.25 169.83 C -330.15 171.54,-309.47 174.69,-301.25 175.30 C -296.85 175.63,-289.87 176.33,-285.75 176.85 C -246.96 181.76,-222.82 181.23,-221.36 175.45 C -220.77 173.09,-211.90 167.84,-208.50 167.84 C -207.65 167.84,-206.70 167.16,-206.38 166.34 C -206.07 165.51,-205.18 164.84,-204.40 164.84 C -197.25 164.84,-195.83 121.62,-202.35 102.17 C -205.30 93.34,-205.66 81.20,-203.10 76.86 C -200.97 73.26,-201.91 70.85,-205.47 70.80 C -208.25 70.76,-208.25 70.76,-204.75 68.84 C -200.83 66.70,-228.55 66.08,-245.98 67.92 " fill-opacity="0.58" fill="#4b3c3a" potraced="yes" filter="url(#pencil)" transform="matrix(1,0,0,1,0,0)" opacity="0.58"/><path id="SvgjsPath1158" d="M-583.15 2.65 C -593.25 6.91,-602.31 16.09,-603.77 23.52 C -604.28 26.17,-605.31 27.24,-609.14 29.15 C -613.99 31.56,-615.06 34.06,-613.26 38.75 C -610.98 44.70,-579.49 45.40,-572.80 39.65 C -571.70 38.70,-567.96 38.27,-560.30 38.21 C -536.63 38.02,-531.70 35.94,-535.75 27.84 C -536.99 25.37,-538.47 23.04,-539.05 22.68 C -539.63 22.33,-541.07 19.88,-542.25 17.25 C -548.18 3.96,-568.81 -3.40,-583.15 2.65 " fill-opacity="1" fill="#4b3c3a" potraced="yes" filter="url(#pencil)" transform="matrix(1,0,0,1,0,0)" opacity="1"/><path id="SvgjsPath1159" d="M-399.10 90.11 C -403.51 90.83,-408.68 91.90,-410.60 92.49 C -412.51 93.07,-417.23 93.78,-421.08 94.07 C -431.98 94.87,-439.56 99.00,-453.58 111.77 C -456.61 114.53,-461.51 118.91,-464.47 121.51 C -467.44 124.11,-471.67 128.68,-473.89 131.66 C -479.43 139.14,-487.16 146.31,-492.27 148.71 C -496.94 150.91,-497.92 152.94,-497.40 159.33 C -497.03 163.82,-499.21 163.66,-451.42 162.72 C -427.22 162.24,-426.71 162.27,-424.42 164.39 C -419.79 168.66,-415.09 169.73,-397.93 170.40 C -388.94 170.76,-381.58 170.73,-381.58 170.34 C -381.58 168.77,-384.70 164.06,-387.56 161.31 C -393.73 155.37,-393.93 145.11,-387.99 139.34 C -386.11 137.52,-384.58 135.61,-384.58 135.10 C -384.58 134.59,-383.65 133.51,-382.51 132.70 C -381.37 131.89,-379.52 129.21,-378.40 126.73 C -375.81 120.98,-371.07 116.00,-367.43 115.20 C -365.86 114.86,-364.58 114.25,-364.58 113.85 C -364.58 113.46,-362.89 112.53,-360.83 111.79 C -354.77 109.62,-345.33 101.41,-345.83 98.73 C -346.96 92.67,-381.05 87.15,-399.10 90.11 " fill-opacity="1" fill="#4b3c3a" potraced="yes" filter="url(#pencil)" transform="matrix(1,0,0,1,0,0)" opacity="1"/><path id="SvgjsPath1160" d="M-364.30 123.51 C -366.80 125.47,-366.80 125.47,-364.17 125.49 C -362.37 125.50,-361.37 124.88,-361.01 123.51 C -360.36 121.02,-361.12 121.02,-364.30 123.51 M-376.10 126.71 C -377.24 127.84,-377.79 130.51,-376.89 130.51 C -375.86 130.51,-367.30 126.53,-367.30 126.05 C -367.30 124.97,-374.94 125.55,-376.10 126.71 M-380.06 135.73 C -380.74 137.61,-381.30 140.30,-381.30 141.71 C -381.30 143.12,-381.98 145.88,-382.80 147.86 C -388.46 161.39,-383.20 166.49,-363.60 166.50 C -351.91 166.51,-349.13 165.58,-346.25 160.70 C -343.59 156.19,-343.56 156.20,-360.09 154.11 C -378.87 151.74,-377.28 152.65,-377.40 144.19 C -377.54 133.95,-378.42 131.17,-380.06 135.73 M-334.91 133.49 C -341.93 136.33,-343.07 147.46,-336.59 149.96 C -330.64 152.25,-313.98 151.84,-314.68 149.42 C -315.07 148.09,-315.66 145.44,-316.00 143.51 C -317.67 134.06,-325.74 129.78,-334.91 133.49 M-312.56 155.77 C -311.88 160.94,-311.60 161.14,-303.67 161.99 C -298.16 162.58,-297.05 163.06,-295.22 165.63 C -285.55 179.21,-260.84 184.18,-247.56 175.20 C -240.92 170.72,-242.13 170.26,-270.42 166.49 C -296.54 163.02,-296.54 163.02,-299.37 158.91 C -304.42 151.57,-313.38 149.44,-312.56 155.77 M-341.20 154.57 C -344.80 156.05,-343.80 156.36,-328.76 158.48 C -312.41 160.78,-311.15 160.52,-322.45 157.15 C -332.90 154.03,-338.13 153.32,-341.20 154.57 M-312.30 163.76 C -312.29 169.03,-306.17 174.94,-304.70 171.10 C -303.98 169.22,-306.84 163.83,-309.25 162.54 C -311.96 161.09,-312.30 161.22,-312.30 163.76 M-242.18 167.14 C -243.61 170.29,-243.82 170.08,-238.55 170.88 C -233.63 171.64,-233.34 171.02,-236.84 167.25 C -240.00 163.85,-240.67 163.84,-242.18 167.14 " fill-opacity="0.6" fill="#4b3c3a" potraced="yes" filter="url(#moss)" transform="matrix(1,0,0,1,0,0)" opacity="0.6"/><path id="SvgjsPath1161" d="M-470.65 133.65 C -477.05 136.80,-484.23 143.07,-487.82 148.66 C -491.50 154.38,-492.04 153.80,-481.74 155.21 C -475.30 156.09,-473.00 156.83,-471.93 158.37 C -470.42 160.52,-462.33 161.30,-461.16 159.40 C -460.56 158.43,-461.82 158.02,-468.89 156.88 C -472.75 156.26,-474.06 153.85,-471.14 152.73 C -470.31 152.41,-469.64 151.69,-469.64 151.12 C -469.64 150.54,-467.61 147.91,-465.14 145.27 C -456.03 135.52,-459.52 128.18,-470.65 133.65 M-449.06 148.83 C -451.22 151.05,-454.49 154.06,-456.34 155.51 C -459.69 158.14,-459.69 158.14,-448.26 159.87 C -436.82 161.60,-436.82 161.60,-436.21 164.85 C -435.20 170.23,-416.64 171.67,-416.64 166.36 C -416.64 164.87,-418.09 164.38,-425.39 163.40 C -436.34 161.94,-436.64 161.84,-436.64 159.56 C -436.64 158.54,-438.55 154.79,-440.89 151.24 C -445.14 144.79,-445.14 144.79,-449.06 148.83 " fill-opacity="0.6" fill="#4b3c3a" potraced="yes" filter="url(#moss)" transform="matrix(1,0,0,1,0,0)" opacity="0.6"/><path id="SvgjsPath1162" d="M-415.28 140.51 C -416.23 142.67,-417.09 147.87,-417.32 152.80 C -417.71 161.35,-417.71 161.35,-410.00 163.17 C -405.77 164.17,-401.56 165.60,-400.66 166.35 C -399.76 167.10,-396.77 169.68,-394.02 172.08 C -384.46 180.41,-381.19 178.37,-389.16 169.05 C -394.02 163.36,-394.02 163.36,-394.37 153.98 C -394.72 144.59,-394.72 144.59,-402.82 140.68 C -412.78 135.86,-413.23 135.86,-415.28 140.51 " fill-opacity="0.6" fill="#4b3c3a" potraced="yes" filter="url(#moss)" transform="matrix(1,0,0,1,0,0)" opacity="0.6"/><path id="SvgjsPath1163" d="M-554.43 18.01 C -555.84 19.68,-556.99 21.93,-556.99 23.02 C -556.99 28.69,-559.43 30.56,-567.61 31.18 C -576.44 31.84,-579.95 33.78,-581.38 38.74 C -583.74 46.99,-591.58 39.67,-591.21 29.56 C -590.93 22.08,-591.00 21.84,-593.52 20.88 C -602.45 17.48,-605.44 20.73,-605.62 34.04 C -605.73 41.64,-606.14 44.40,-607.37 45.76 C -609.98 48.65,-609.30 49.72,-603.81 51.35 C -591.16 55.11,-582.02 52.45,-581.97 45.00 C -581.96 42.06,-561.38 35.64,-559.85 38.11 C -558.89 39.67,-540.32 38.47,-535.71 36.55 C -530.83 34.51,-530.72 31.89,-535.52 31.89 C -538.00 31.89,-539.22 31.37,-539.61 30.14 C -539.92 29.18,-540.55 27.49,-541.00 26.39 C -541.46 25.29,-542.08 23.25,-542.38 21.86 C -543.45 16.84,-551.34 14.33,-554.43 18.01 " fill-opacity="0.6" fill="#4b3c3a" potraced="yes" filter="url(#moss)" transform="matrix(1,0,0,1,0,0)" opacity="0.6"/><path id="SvgjsPath1164" d="M-613.32 -6.96 C -613.34 -6.06,-614.49 5.64,-615.88 19.04 C -618.40 43.45,-619.02 45.92,-622.61 45.92 C -624.25 45.92,-622.93 52.39,-621.23 52.72 C -619.99 52.95,-619.44 51.94,-618.92 48.52 C -618.44 45.28,-617.70 43.85,-616.28 43.40 C -613.48 42.51,-611.69 39.19,-610.98 33.52 C -610.63 30.83,-609.95 28.13,-609.44 27.52 C -607.90 25.66,-609.75 -2.09,-611.64 -5.58 C -612.62 -7.37,-613.29 -7.92,-613.32 -6.96 " fill-opacity="0.6" fill="#4b3c3a" potraced="yes" filter="url(#moss)" transform="matrix(1,0,0,1,0,0)" opacity="0.6"/><path id="SvgjsPath1165" d="M-521.82 -4.71 C -522.18 -4.35,-522.02 -3.51,-521.47 -2.84 C -520.92 -2.17,-520.37 0.40,-520.27 2.88 C -520.06 7.69,-516.54 7.48,-514.98 2.58 C -513.81 -1.10,-519.44 -7.09,-521.82 -4.71 M-521.48 10.88 C -521.49 12.40,-520.99 13.52,-520.37 13.38 C -519.76 13.24,-518.68 14.93,-517.98 17.13 C -517.28 19.33,-516.67 20.68,-516.62 20.13 C -516.50 18.79,-519.29 8.85,-519.42 10.13 C -519.48 10.68,-519.96 10.45,-520.49 9.63 C -521.25 8.46,-521.47 8.74,-521.48 10.88 M-527.22 17.43 C -532.45 20.14,-532.45 20.14,-530.00 25.13 C -525.89 33.54,-526.84 40.08,-532.30 40.92 C -535.86 41.46,-535.79 42.35,-532.14 43.03 C -530.25 43.39,-528.15 44.34,-527.47 45.15 C -525.11 48.00,-524.49 46.55,-524.49 38.13 C -524.49 29.63,-524.49 29.63,-521.07 29.63 C -519.18 29.63,-516.98 28.97,-516.17 28.17 C -514.89 26.88,-514.62 27.28,-513.94 31.42 C -513.51 34.01,-512.98 35.37,-512.77 34.45 C -512.17 31.90,-514.25 25.21,-516.43 22.70 C -517.50 21.47,-518.66 19.15,-519.01 17.55 C -519.79 13.99,-520.57 13.98,-527.22 17.43 M-512.49 39.63 C -512.49 40.36,-512.19 40.66,-511.83 40.30 C -511.46 39.93,-511.46 39.33,-511.83 38.96 C -512.19 38.60,-512.49 38.90,-512.49 39.63 M-511.39 42.82 C -511.10 46.74,-509.70 49.17,-509.59 45.94 C -509.54 44.18,-509.94 42.47,-510.49 42.13 C -511.04 41.79,-511.45 42.10,-511.39 42.82 M-509.42 54.21 C -509.37 55.38,-509.13 55.61,-508.81 54.82 C -508.52 54.09,-508.56 53.23,-508.89 52.90 C -509.22 52.57,-509.46 53.16,-509.42 54.21 " fill-opacity="0.6" fill="#4b3c3a" potraced="yes" filter="url(#moss)" transform="matrix(1,0,0,1,0,0)" opacity="0.6"/><path id="SvgjsPath1166" d="M-467.76 13.75 C -468.42 15.48,-466.46 23.05,-465.13 23.87 C -464.58 24.21,-464.16 23.01,-464.16 21.03 C -464.16 19.14,-463.49 17.04,-462.66 16.35 C -461.84 15.67,-461.16 14.49,-461.16 13.73 C -461.16 11.89,-467.05 11.90,-467.76 13.75 M-463.93 29.35 C -463.93 31.28,-463.72 32.06,-463.47 31.10 C -463.22 30.14,-463.22 28.56,-463.47 27.60 C -463.72 26.64,-463.93 27.43,-463.93 29.35 M-470.49 34.92 C -479.15 37.28,-480.28 39.84,-474.43 43.82 C -470.02 46.82,-469.17 46.94,-469.13 44.60 C -469.11 43.64,-467.99 41.05,-466.64 38.85 C -465.28 36.65,-464.17 34.52,-464.17 34.10 C -464.16 33.21,-464.30 33.23,-470.49 34.92 M-469.16 51.01 C -469.16 54.60,-469.13 54.63,-467.16 52.85 C -464.76 50.67,-464.59 48.78,-466.74 47.96 C -469.13 47.04,-469.16 47.08,-469.16 51.01 M-471.50 58.05 C -473.61 62.12,-473.61 65.20,-471.50 67.53 C -470.59 68.54,-470.03 69.52,-470.25 69.71 C -470.48 69.90,-473.92 71.97,-477.91 74.32 C -485.16 78.58,-485.16 78.58,-485.16 85.34 C -485.16 93.13,-485.86 94.08,-492.96 95.88 C -497.64 97.07,-497.64 97.07,-494.08 100.63 C -490.04 104.68,-481.51 107.67,-475.44 107.16 C -471.23 106.82,-471.04 106.06,-472.63 96.31 C -473.33 92.06,-473.21 91.70,-470.75 90.57 C -468.12 89.38,-468.12 89.38,-469.64 92.32 C -472.39 97.63,-470.62 104.35,-466.47 104.35 C -465.58 104.35,-461.24 112.98,-459.97 117.28 C -459.41 119.15,-455.72 113.95,-454.74 109.93 C -453.80 106.03,-448.21 98.35,-446.32 98.35 C -445.17 98.35,-445.33 97.80,-446.99 96.04 C -448.61 94.31,-449.16 92.48,-449.16 88.84 C -449.16 83.86,-453.01 76.35,-455.55 76.36 C -458.08 76.36,-469.16 70.95,-469.16 69.70 C -469.16 68.96,-468.71 68.35,-468.16 68.35 C -466.80 68.35,-467.04 62.62,-468.58 58.35 C -469.85 54.85,-469.85 54.85,-471.50 58.05 M-442.35 99.04 C -441.63 99.32,-440.76 99.29,-440.43 98.96 C -440.10 98.62,-440.69 98.39,-441.74 98.43 C -442.91 98.48,-443.15 98.72,-442.35 99.04 " fill-opacity="0.6" fill="#4b3c3a" potraced="yes" filter="url(#moss)" transform="matrix(1,0,0,1,0,0)" opacity="0.6"/><path id="SvgjsPath1167" d="M-422.20 47.62 C -421.96 50.92,-421.46 55.96,-421.09 58.82 C -420.10 66.62,-420.98 68.62,-427.19 72.59 C -430.21 74.52,-432.67 76.74,-432.67 77.52 C -432.67 79.01,-427.19 84.12,-425.60 84.12 C -424.13 84.12,-424.53 89.47,-426.16 91.80 C -428.12 94.60,-427.28 94.90,-415.23 95.75 C -401.09 96.74,-400.11 95.34,-410.39 88.78 C -417.46 84.27,-418.97 81.90,-418.25 76.45 C -417.19 68.36,-417.24 66.96,-419.04 57.02 C -421.42 43.79,-422.78 39.75,-422.20 47.62 M-448.64 95.61 C -457.10 97.66,-466.43 109.12,-459.63 109.12 C -455.25 109.12,-441.92 105.83,-437.21 103.58 C -431.71 100.95,-431.01 101.01,-432.59 103.97 C -433.58 105.81,-420.32 102.25,-409.67 97.82 C -406.99 96.70,-424.07 97.74,-427.51 98.91 C -430.34 99.86,-430.76 99.81,-430.26 98.58 C -429.94 97.78,-429.40 96.45,-429.07 95.62 C -428.28 93.67,-440.57 93.66,-448.64 95.61 " fill-opacity="0.6" fill="#4b3c3a" potraced="yes" filter="url(#moss)" transform="matrix(1,0,0,1,0,0)" opacity="0.6"/><path id="SvgjsPath1168" d="M-379.04 97.12 C -380.07 97.79,-377.79 98.10,-371.73 98.11 C -366.11 98.12,-363.14 97.76,-363.54 97.12 C -364.33 95.84,-377.06 95.84,-379.04 97.12 M-360.04 100.00 C -360.04 100.86,-347.35 103.12,-342.53 103.12 C -341.13 103.12,-339.66 102.28,-339.04 101.12 C -338.00 99.18,-338.28 99.12,-349.00 99.12 C -355.07 99.12,-360.04 99.52,-360.04 100.00 " fill-opacity="0.6" fill="#4b3c3a" potraced="yes" filter="url(#moss)" transform="matrix(1,0,0,1,0,0)" opacity="0.6"/><path id="SvgjsPath1169" d="M-232.72 22.22 C -233.45 23.10,-233.35 24.21,-232.38 25.97 C -231.00 28.45,-231.00 28.45,-230.96 24.71 C -230.92 20.64,-231.15 20.32,-232.72 22.22 M-230.92 32.40 C -230.93 35.92,-231.56 36.92,-236.93 41.90 C -243.74 48.21,-244.19 50.01,-240.37 55.64 C -237.44 59.96,-238.35 60.47,-258.34 65.56 C -267.45 67.88,-279.36 72.80,-272.93 71.59 C -262.39 69.60,-241.93 69.76,-241.93 71.83 C -241.93 75.92,-224.10 74.14,-219.03 69.56 C -218.06 68.68,-216.40 67.96,-215.35 67.95 C -213.78 67.93,-213.69 67.76,-214.89 67.00 C -215.82 66.42,-216.83 66.46,-217.63 67.13 C -218.33 67.72,-221.95 68.38,-225.67 68.60 C -229.38 68.83,-234.33 69.17,-236.65 69.36 C -240.87 69.71,-240.87 69.71,-238.90 67.20 C -237.81 65.82,-236.93 63.40,-236.93 61.83 C -236.93 58.56,-234.73 58.09,-228.92 60.11 C -224.09 61.80,-222.65 59.47,-223.29 50.96 C -224.10 40.18,-225.29 35.55,-228.17 31.92 C -230.90 28.46,-230.90 28.46,-230.92 32.40 M-221.93 58.79 C -221.93 59.79,-220.80 61.67,-219.43 62.96 C -216.93 65.31,-216.93 65.31,-216.93 62.34 C -216.93 59.19,-218.46 56.96,-220.63 56.96 C -221.34 56.96,-221.93 57.78,-221.93 58.79 " fill-opacity="0.6" fill="#4b3c3a" potraced="yes" filter="url(#moss)" transform="matrix(1,0,0,1,0,0)" opacity="0.6"/><path id="SvgjsPath1170" d="M-595.43 38.58 C -609.17 40.45,-608.56 41.03,-592.86 41.03 C -585.41 41.03,-577.80 41.27,-575.94 41.58 C -572.60 42.12,-572.61 42.10,-577.07 39.62 C -582.20 36.77,-582.15 36.77,-595.43 38.58 M-570.47 43.08 C -568.92 43.90,-568.50 44.87,-568.86 46.76 C -569.32 49.13,-569.15 49.27,-566.46 48.65 C -564.87 48.28,-560.42 47.53,-556.57 46.98 C -540.94 44.76,-540.81 44.46,-555.20 43.74 C -562.70 43.36,-569.67 42.81,-570.70 42.51 C -572.13 42.09,-572.08 42.23,-570.47 43.08 M-582.14 51.05 C -590.83 52.81,-608.60 59.94,-607.29 61.14 C -606.89 61.51,-600.49 63.48,-593.07 65.52 C -570.60 71.71,-572.71 69.78,-570.63 86.09 C -568.08 106.10,-569.00 107.22,-591.49 111.45 C -596.40 112.37,-601.03 113.47,-601.78 113.89 C -605.06 115.72,-583.45 113.60,-571.57 110.92 C -526.50 100.75,-523.28 93.72,-556.92 78.94 C -571.27 72.64,-571.27 72.64,-570.91 61.38 C -570.49 48.09,-569.96 48.58,-582.14 51.05 " fill-opacity="0.6" fill="#4b3c3a" potraced="yes" filter="url(#water)" transform="matrix(1,0,0,1,0,0)" opacity="0.6"/><path id="SvgjsPath1171" d="M-499.81 76.42 C -502.39 76.82,-495.97 77.13,-484.81 77.15 C -474.08 77.17,-463.96 76.84,-462.31 76.42 C -458.54 75.46,-493.64 75.46,-499.81 76.42 M-543.41 78.81 C -546.22 79.42,-549.15 80.39,-549.91 80.96 C -550.68 81.54,-553.67 83.08,-556.56 84.38 C -559.44 85.69,-561.65 86.91,-561.45 87.10 C -560.43 88.13,-526.68 83.38,-524.40 81.89 C -523.01 80.97,-519.72 79.63,-517.09 78.91 C -510.72 77.16,-535.40 77.06,-543.41 78.81 " fill-opacity="0.6" fill="#4b3c3a" potraced="yes" filter="url(#water)" transform="matrix(1,0,0,1,0,0)" opacity="0.6"/><path id="SvgjsPath1172" d="M-578.17 70.16 C -578.17 70.92,-579.40 74.18,-580.92 77.41 C -585.12 86.38,-585.10 118.62,-580.89 129.04 C -577.59 137.23,-577.59 136.52,-580.92 137.14 C -617.27 143.91,-622.13 145.77,-603.64 145.80 C -577.08 145.85,-571.81 147.82,-570.64 158.10 C -569.62 167.10,-569.92 166.94,-559.67 163.78 C -552.41 161.54,-551.25 160.93,-553.67 160.64 C -556.38 160.32,-542.13 153.78,-538.71 153.78 C -536.92 153.78,-541.84 158.13,-545.67 159.93 C -549.67 161.81,-549.67 161.81,-532.17 161.39 C -508.47 160.83,-506.68 159.91,-523.24 156.85 C -539.66 153.80,-539.66 153.84,-525.49 147.16 C -501.57 135.87,-503.35 136.37,-502.18 140.73 C -500.72 146.15,-499.93 146.49,-487.71 147.01 C -476.75 147.47,-476.75 147.47,-485.02 139.63 C -494.40 130.73,-493.86 130.93,-499.19 134.30 C -503.17 136.81,-503.17 136.81,-506.92 133.32 C -510.67 129.84,-510.67 129.84,-503.33 129.81 C -494.94 129.78,-495.11 129.55,-518.27 110.45 C -529.67 101.05,-529.67 101.05,-529.97 105.42 C -530.14 107.82,-530.50 109.78,-530.78 109.78 C -532.60 109.78,-543.87 100.83,-547.85 96.22 C -551.43 92.07,-554.52 89.76,-559.87 87.22 C -569.58 82.61,-573.92 78.66,-575.30 73.17 C -576.34 69.04,-578.17 67.13,-578.17 70.16 M-520.36 120.29 C -511.06 129.78,-511.06 129.78,-521.92 129.78 C -532.78 129.78,-532.78 129.78,-531.94 121.53 C -530.61 108.41,-531.86 108.55,-520.36 120.29 M-494.83 130.45 C -494.47 130.82,-493.87 130.82,-493.50 130.45 C -493.13 130.08,-493.43 129.78,-494.17 129.78 C -494.90 129.78,-495.20 130.08,-494.83 130.45 M-474.42 150.01 C -473.18 151.33,-472.17 153.68,-472.17 155.24 C -472.17 158.06,-472.17 158.06,-454.92 157.40 C -430.64 156.46,-428.03 156.08,-425.87 153.19 C -424.07 150.78,-424.07 150.78,-438.07 150.78 C -445.77 150.78,-454.23 150.36,-456.87 149.85 C -469.65 147.35,-476.85 147.42,-474.42 150.01 M-497.90 159.48 C -496.92 159.73,-495.57 159.71,-494.90 159.44 C -494.22 159.16,-495.02 158.96,-496.67 158.98 C -498.32 159.00,-498.87 159.22,-497.90 159.48 M-480.90 159.48 C -479.92 159.73,-478.57 159.71,-477.90 159.44 C -477.22 159.16,-478.02 158.96,-479.67 158.98 C -481.32 159.00,-481.87 159.22,-480.90 159.48 " fill-opacity="0.6" fill="#4b3c3a" potraced="yes" filter="url(#water)" transform="matrix(1,0,0,1,0,0)" opacity="0.6"/><path id="SvgjsPath1173" d="M-557.74 41.05 C -561.74 42.41,-561.74 42.41,-557.74 41.85 C -555.54 41.54,-553.31 40.89,-552.79 40.41 C -551.50 39.21,-552.88 39.39,-557.74 41.05 M-550.42 40.21 C -548.27 41.07,-562.26 45.79,-568.24 46.22 C -572.23 46.51,-573.33 46.34,-572.24 45.59 C -571.04 44.77,-571.30 44.56,-573.49 44.54 C -575.00 44.54,-576.24 44.98,-576.24 45.53 C -576.24 46.13,-580.54 46.56,-586.99 46.60 C -593.27 46.64,-596.91 46.99,-595.74 47.45 C -593.80 48.21,-593.81 48.25,-595.97 48.94 C -597.44 49.41,-598.52 50.90,-599.16 53.34 C -601.61 62.75,-603.24 69.37,-603.24 69.92 C -603.24 70.26,-600.78 70.53,-597.77 70.53 C -594.24 70.53,-590.75 71.28,-587.95 72.64 C -579.96 76.52,-563.38 68.53,-558.04 58.24 C -556.14 54.58,-555.32 53.68,-555.29 55.20 C -555.25 56.82,-554.42 57.55,-551.99 58.07 C -550.20 58.45,-545.87 60.06,-542.35 61.65 C -534.24 65.31,-533.58 65.27,-531.80 61.01 C -530.99 59.08,-529.64 57.23,-528.79 56.91 C -521.24 54.01,-535.82 51.24,-548.99 53.06 C -555.15 53.91,-555.12 54.00,-551.20 46.95 C -548.26 41.66,-548.06 39.44,-550.55 39.61 C -551.34 39.66,-551.30 39.86,-550.42 40.21 M-564.91 43.20 C -564.54 43.56,-563.94 43.56,-563.57 43.20 C -563.21 42.83,-563.51 42.53,-564.24 42.53 C -564.97 42.53,-565.27 42.83,-564.91 43.20 M-578.45 48.38 C -577.73 48.84,-579.71 49.02,-582.95 48.79 C -590.85 48.23,-591.89 47.70,-585.24 47.62 C -582.22 47.59,-579.16 47.93,-578.45 48.38 M-569.73 50.54 C -569.39 51.10,-568.69 51.30,-568.18 50.99 C -567.67 50.68,-566.47 50.90,-565.50 51.48 C -564.10 52.32,-564.67 52.51,-568.24 52.41 C -570.72 52.34,-573.53 52.61,-574.49 53.01 C -576.66 53.92,-576.73 53.16,-574.67 51.10 C -572.87 49.30,-570.65 49.05,-569.73 50.54 M-555.49 51.28 C -555.23 52.07,-556.05 52.53,-557.72 52.53 C -559.17 52.53,-560.11 52.12,-559.79 51.61 C -559.48 51.11,-559.79 50.45,-560.49 50.15 C -561.18 49.84,-560.43 49.69,-558.82 49.81 C -557.21 49.93,-555.71 50.59,-555.49 51.28 M-573.74 60.53 C -571.98 62.47,-571.99 62.53,-574.09 62.53 C -575.57 62.53,-576.24 61.91,-576.24 60.53 C -576.24 59.43,-576.09 58.53,-575.90 58.53 C -575.71 58.53,-574.74 59.43,-573.74 60.53 " fill-opacity="0.6" fill="#382d2b" potraced="yes" filter="url(#pencil)" transform="matrix(1,0,0,1,0,0)" opacity="0.6"/><path id="SvgjsPath1174" d="M-588.08 70.43 C -596.43 71.44,-597.58 71.85,-597.58 73.81 C -597.58 74.89,-597.02 75.76,-596.33 75.75 C -593.31 75.71,-571.68 82.21,-572.70 82.84 C -574.21 83.78,-571.65 84.46,-564.08 85.15 C -558.08 85.69,-558.08 85.69,-562.91 84.31 C -569.45 82.44,-569.49 82.15,-563.36 81.33 C -560.46 80.95,-556.28 80.39,-554.08 80.10 C -551.88 79.81,-549.63 79.10,-549.08 78.52 C -548.39 77.80,-548.62 77.66,-549.80 78.08 C -552.12 78.89,-552.92 77.28,-551.51 74.64 C -550.52 72.78,-550.58 72.55,-551.96 73.08 C -552.96 73.47,-553.58 73.19,-553.58 72.35 C -553.58 70.01,-574.83 68.82,-588.08 70.43 M-553.65 75.52 C -553.80 77.11,-555.44 80.20,-555.51 79.02 C -555.55 78.33,-556.82 77.75,-558.33 77.73 C -561.08 77.70,-561.08 77.70,-558.58 76.27 C -555.83 74.70,-553.54 74.35,-553.65 75.52 M-554.77 86.45 C -554.05 86.74,-553.18 86.70,-552.85 86.37 C -552.52 86.04,-553.11 85.80,-554.16 85.85 C -555.33 85.89,-555.56 86.13,-554.77 86.45 " fill-opacity="0.6" fill="#382d2b" potraced="yes" filter="url(#pencil)" transform="matrix(1,0,0,1,0,0)" opacity="0.6"/><path id="SvgjsPath1175" d="M-573.75 100.98 C -578.90 101.59,-579.95 103.25,-575.20 103.27 C -573.03 103.27,-570.13 103.50,-568.75 103.78 C -567.38 104.05,-566.81 104.01,-567.50 103.68 C -568.19 103.35,-568.75 102.45,-568.75 101.67 C -568.75 100.89,-569.09 100.33,-569.50 100.41 C -569.91 100.50,-571.83 100.76,-573.75 100.98 M-585.75 105.18 C -593.25 105.75,-593.25 105.75,-582.60 107.63 C -566.90 110.40,-566.58 110.98,-579.50 113.28 C -583.49 113.99,-586.75 114.87,-586.75 115.24 C -586.75 116.05,-577.56 118.25,-574.18 118.25 C -568.88 118.25,-572.15 120.18,-578.00 120.51 C -584.25 120.87,-584.25 120.87,-577.58 121.06 C -570.90 121.25,-570.90 121.25,-570.06 116.00 C -568.09 103.66,-567.84 103.82,-585.75 105.18 " fill-opacity="0.6" fill="#382d2b" potraced="yes" filter="url(#pencil)" transform="matrix(1,0,0,1,0,0)" opacity="0.6"/><path id="SvgjsPath1176" d="M-517.77 123.18 C -520.52 123.94,-526.59 125.06,-531.27 125.66 C -535.94 126.26,-544.04 127.90,-549.27 129.30 C -554.71 130.76,-561.55 131.87,-565.27 131.88 C -569.72 131.91,-570.43 132.04,-567.52 132.32 C -559.38 133.10,-565.33 142.08,-575.27 144.02 C -577.19 144.39,-593.17 145.14,-610.77 145.68 C -661.64 147.23,-662.66 147.36,-657.25 151.73 C -646.75 160.20,-629.03 163.21,-620.75 157.94 C -615.12 154.35,-609.22 152.67,-591.27 149.54 C -571.61 146.11,-567.79 145.79,-532.54 144.65 C -497.50 143.52,-495.91 143.30,-491.99 139.07 C -489.23 136.08,-487.15 136.56,-482.38 141.26 C -478.18 145.40,-475.60 143.21,-474.59 134.67 C -474.02 129.88,-474.03 129.87,-478.64 126.69 C -481.19 124.94,-483.27 123.09,-483.27 122.56 C -483.27 121.05,-511.94 121.56,-517.77 123.18 M-590.02 133.34 C -587.41 133.55,-583.13 133.55,-580.52 133.34 C -577.91 133.14,-580.04 132.97,-585.27 132.97 C -590.49 132.97,-592.63 133.14,-590.02 133.34 " fill-opacity="0.6" fill="#382d2b" potraced="yes" filter="url(#pencil)" transform="matrix(1,0,0,1,0,0)" opacity="0.6"/><path id="SvgjsPath1177" d="M-408.24 90.72 C -416.35 92.31,-414.92 92.61,-401.79 92.06 C -391.81 91.65,-387.45 91.88,-383.00 93.08 C -379.81 93.93,-375.04 94.63,-372.39 94.63 C -368.13 94.63,-360.69 96.36,-361.50 97.17 C -361.67 97.34,-375.08 99.34,-391.30 101.61 C -407.52 103.88,-421.83 105.95,-423.10 106.22 C -425.17 106.65,-424.39 107.69,-415.60 116.26 C -404.90 126.68,-397.05 128.39,-385.10 122.88 C -382.73 121.79,-379.36 120.34,-377.61 119.67 C -374.45 118.45,-362.29 106.68,-362.29 104.84 C -362.29 104.30,-361.40 103.63,-360.30 103.34 C -357.87 102.71,-356.54 99.72,-358.23 98.67 C -359.70 97.76,-357.35 96.63,-353.99 96.63 C -351.85 96.63,-351.85 96.63,-354.04 94.44 C -355.93 92.55,-357.54 92.21,-366.01 91.91 C -371.39 91.73,-377.37 91.14,-379.29 90.61 C -383.53 89.44,-402.07 89.51,-408.24 90.72 M-430.74 106.54 C -431.05 107.04,-430.40 107.21,-429.30 106.92 C -426.96 106.31,-426.67 105.63,-428.74 105.63 C -429.53 105.63,-430.43 106.04,-430.74 106.54 M-437.74 108.54 C -438.05 109.04,-437.40 109.21,-436.30 108.92 C -433.96 108.31,-433.67 107.63,-435.74 107.63 C -436.53 107.63,-437.43 108.04,-437.74 108.54 M-445.29 112.21 C -450.45 115.14,-456.80 120.98,-462.41 127.97 C -466.71 133.33,-467.73 136.48,-463.79 132.23 C -462.42 130.74,-461.29 129.16,-461.29 128.71 C -461.29 127.34,-452.44 119.63,-450.87 119.63 C -450.07 119.63,-448.70 118.62,-447.84 117.38 C -446.98 116.14,-444.63 113.89,-442.61 112.38 C -438.01 108.94,-439.37 108.85,-445.29 112.21 " fill-opacity="0.6" fill="#645744" potraced="yes" filter="url(#pencil)" transform="matrix(1,0,0,1,0,0)" opacity="0.6"/><path id="SvgjsPath1178" d="M-579.98 1.26 C -588.72 11.05,-587.98 13.98,-575.29 19.97 C -573.43 20.85,-570.79 22.22,-569.41 23.02 C -566.28 24.85,-561.01 24.93,-559.55 23.17 C -558.66 22.10,-561.07 21.01,-571.98 17.56 C -579.43 15.21,-585.28 13.05,-584.99 12.76 C -583.94 11.70,-568.78 14.79,-561.12 17.62 C -548.31 22.34,-544.58 20.90,-547.08 12.19 C -549.40 4.08,-574.92 -4.40,-579.98 1.26 " fill-opacity="0.6" fill="#645744" potraced="yes" filter="url(#pencil)" transform="matrix(1,0,0,1,0,0)" opacity="0.6"/><path id="SvgjsPath1179" d="M-290.75 74.86 C -292.16 77.26,-294.30 80.01,-295.51 80.97 C -296.71 81.93,-299.61 85.25,-301.94 88.35 C -307.52 95.77,-314.46 97.40,-322.14 93.09 C -325.93 90.95,-325.93 90.95,-329.73 95.09 C -331.82 97.36,-334.13 99.22,-334.85 99.22 C -335.58 99.22,-336.44 99.89,-336.75 100.72 C -337.07 101.54,-338.13 102.22,-339.10 102.22 C -340.07 102.22,-342.93 104.63,-345.45 107.58 C -350.04 112.95,-350.04 112.95,-343.83 109.70 C -332.43 103.75,-293.98 101.54,-289.26 106.57 C -287.93 107.98,-284.82 109.41,-281.45 110.17 C -274.71 111.68,-273.92 110.99,-274.33 104.02 C -274.61 99.39,-274.58 99.34,-272.43 100.75 C -271.23 101.54,-268.15 102.65,-265.61 103.22 C -263.06 103.79,-255.95 106.55,-249.82 109.35 C -231.14 117.89,-232.07 117.80,-220.19 112.02 C -208.17 106.16,-202.11 100.96,-202.11 96.50 C -202.11 94.83,-201.44 91.85,-200.61 89.87 C -198.29 84.30,-198.72 80.50,-202.18 76.13 C -206.76 70.35,-208.35 70.16,-250.59 70.33 C -288.19 70.49,-288.19 70.49,-290.75 74.86 M-356.71 119.47 C -358.61 121.72,-358.61 121.72,-356.36 119.81 C -354.25 118.02,-353.66 117.22,-354.46 117.22 C -354.65 117.22,-355.66 118.23,-356.71 119.47 " fill-opacity="0.6" fill="#9c9492" potraced="yes" filter="url(#pencil)" transform="matrix(1,0,0,1,0,0)" opacity="0.6"/><path id="SvgjsPath1180" d="M-289.64 106.95 C -290.00 115.15,-293.16 115.71,-304.74 109.67 C -316.41 103.57,-332.12 105.26,-341.39 113.60 C -345.12 116.95,-351.08 122.24,-354.63 125.35 C -359.92 129.99,-367.37 140.63,-366.14 141.82 C -365.98 141.98,-308.99 129.24,-255.64 117.12 C -247.19 115.20,-243.70 112.20,-249.93 112.20 C -250.61 112.20,-252.42 111.22,-253.94 110.02 C -256.18 108.26,-258.17 107.81,-264.33 107.68 C -272.28 107.52,-279.23 105.42,-283.00 102.04 C -287.43 98.08,-289.32 99.47,-289.64 106.95 M-226.69 110.47 C -246.84 115.07,-247.34 115.39,-236.75 117.03 C -229.06 118.23,-229.06 118.23,-226.50 115.43 C -223.82 112.50,-220.74 111.00,-213.73 109.22 C -211.42 108.63,-209.25 107.70,-208.92 107.17 C -208.59 106.63,-208.46 106.25,-208.63 106.31 C -208.80 106.37,-216.93 108.24,-226.69 110.47 " fill="none" potraced="yes" filter="url(#pencil)" transform="matrix(1,0,0,1,0,0)"/><path id="SvgjsPath1181" d="M-430.60 110.99 C -441.47 113.37,-455.36 121.25,-460.81 128.13 C -463.69 131.76,-463.69 131.76,-459.81 131.20 C -455.95 130.63,-443.69 129.53,-418.93 127.53 C -399.50 125.95,-398.56 125.76,-399.16 123.48 C -399.44 122.41,-399.98 121.54,-400.36 121.54 C -400.74 121.54,-402.38 120.28,-403.99 118.72 C -413.34 109.76,-418.34 108.30,-430.60 110.99 M-385.93 124.30 C -392.75 124.74,-396.43 125.59,-396.43 126.73 C -396.43 128.12,-383.14 127.17,-382.67 125.75 C -382.49 125.20,-381.46 124.99,-380.39 125.27 C -379.31 125.55,-378.43 125.55,-378.43 125.28 C -378.43 124.45,-381.69 124.03,-385.93 124.30 " fill="none" potraced="yes" filter="url(#pencil)" transform="matrix(1,0,0,1,0,0)"/><path id="SvgjsPath1182" d="M-579.87 18.16 C -576.36 20.10,-572.72 22.38,-571.79 23.23 C -570.85 24.08,-569.43 24.77,-568.63 24.77 C -567.84 24.77,-566.24 25.43,-565.08 26.24 C -563.18 27.57,-562.22 27.44,-555.11 24.83 C -545.98 21.48,-545.60 21.71,-565.74 18.28 C -574.27 16.83,-582.37 15.41,-583.74 15.14 C -585.12 14.86,-583.37 16.22,-579.87 18.16 " fill="none" potraced="yes" filter="url(#pencil)" transform="matrix(1,0,0,1,0,0)"/><path id="SvgjsPath1183" d="M-210.94 25.52 C -211.57 26.49,-256.29 165.23,-257.44 169.77 C -258.16 172.60,-254.56 172.78,-244.80 170.42 C -241.22 169.55,-235.15 168.23,-231.30 167.49 C -227.45 166.74,-218.68 164.11,-211.81 161.64 C -200.29 157.50,-199.18 157.27,-197.56 158.74 C -195.91 160.23,-195.80 160.12,-195.80 157.05 C -195.80 154.30,-196.03 153.97,-197.25 154.98 C -199.22 156.62,-200.42 155.68,-201.83 151.42 C -202.81 148.45,-203.38 147.94,-205.15 148.42 C -206.33 148.74,-211.12 149.31,-215.80 149.68 C -224.30 150.35,-224.30 150.35,-221.30 146.77 C -216.30 140.81,-212.26 133.70,-213.60 133.25 C -214.26 133.03,-214.80 131.81,-214.80 130.53 C -214.80 127.97,-218.77 126.02,-224.00 126.02 C -225.69 126.02,-226.65 125.60,-226.30 125.02 C -225.96 124.47,-224.61 124.02,-223.31 124.02 C -215.80 124.02,-211.19 100.07,-216.30 87.61 C -217.89 83.72,-217.68 65.38,-216.00 62.34 C -215.34 61.13,-214.80 58.50,-214.80 56.48 C -214.80 53.90,-213.89 51.67,-211.76 48.98 C -208.73 45.14,-208.73 45.14,-209.51 34.83 C -209.94 29.16,-210.59 24.97,-210.94 25.52 " fill="none" potraced="yes" filter="url(#moss)" transform="matrix(1,0,0,1,0,0)"/><path id="SvgjsPath1184" d="M-619.03 104.03 C -618.72 112.01,-618.07 118.96,-617.59 119.48 C -616.30 120.87,-616.51 128.75,-617.90 130.97 C -619.53 133.59,-617.40 136.03,-613.49 136.03 C -611.85 136.03,-609.22 136.80,-607.64 137.73 C -602.87 140.55,-603.12 139.01,-611.51 113.81 C -619.59 89.53,-619.59 89.53,-619.03 104.03 M-603.48 142.24 C -604.81 145.77,-583.56 146.35,-581.35 142.83 C -579.82 140.40,-580.08 140.33,-591.80 139.83 C -602.40 139.38,-602.40 139.38,-603.48 142.24 " fill="none" potraced="yes" filter="url(#moss)" transform="matrix(1,0,0,1,0,0)"/><path id="SvgjsPath1229" d="M-415.20 -218.68 C -424.66 -217.47,-444.12 -214.40,-452.70 -212.78 C -459.51 -211.50,-484.32 -211.49,-491.70 -212.78 C -519.75 -217.66,-523.74 -217.94,-572.28 -218.37 C -629.05 -218.89,-624.54 -221.18,-624.47 -191.94 C -624.45 -180.49,-623.99 -172.12,-623.30 -170.38 C -619.58 -160.98,-619.18 -151.11,-619.84 -83.22 C -620.33 -32.28,-620.77 -16.63,-621.77 -14.65 C -622.48 -13.24,-623.16 -8.29,-623.28 -3.65 C -623.51 4.78,-623.51 4.78,-613.35 5.06 C -607.77 5.22,-603.20 5.16,-603.20 4.93 C -603.20 4.70,-603.87 3.22,-604.69 1.64 C -606.53 -1.89,-606.68 -6.05,-604.95 -5.47 C -604.26 -5.24,-602.99 -3.14,-602.13 -0.81 C -598.81 8.16,-588.54 7.55,-578.07 -2.24 C -570.91 -8.94,-561.17 -9.05,-558.21 -2.47 C -554.20 6.46,-551.76 8.18,-542.10 8.91 C -525.58 10.15,-520.19 6.96,-520.19 -4.04 C -520.20 -10.38,-515.99 -8.95,-514.84 -2.22 C -514.37 0.53,-513.81 3.37,-513.60 4.09 C -513.29 5.14,-506.05 5.33,-476.46 5.09 C -439.70 4.78,-439.70 4.78,-433.57 0.05 C -425.44 -6.22,-423.83 -6.72,-411.76 -6.72 C -402.60 -6.72,-400.79 -7.03,-395.57 -9.47 C -389.11 -12.49,-326.25 -14.42,-321.26 -11.75 C -318.70 -10.38,-283.31 -6.72,-272.65 -6.72 C -265.71 -6.72,-263.65 -7.15,-258.61 -9.61 C -249.89 -13.87,-248.72 -14.03,-223.77 -14.43 C -191.42 -14.94,-193.88 -9.77,-194.47 -76.04 C -194.87 -120.39,-194.92 -121.36,-197.27 -128.72 C -200.43 -138.59,-200.83 -173.79,-197.91 -184.55 C -195.54 -193.32,-195.49 -212.87,-197.84 -215.22 C -199.71 -217.09,-208.87 -216.89,-219.70 -214.75 C -226.05 -213.50,-243.70 -213.80,-276.70 -215.71 C -292.55 -216.62,-339.92 -218.04,-391.70 -219.15 C -401.05 -219.35,-411.62 -219.14,-415.20 -218.68 " fill-opacity="0.8" fill="#d82800" filter="url(#pencil)" transform="matrix(1,0,0,1,0,0)" potraced="yes" opacity="0.8"/><path id="SvgjsPath1186" d="M-405.75 -36.92 C -408.21 -35.57,-410.94 -34.46,-411.81 -34.46 C -412.68 -34.46,-414.51 -33.22,-415.88 -31.71 C -425.52 -21.08,-428.69 -7.78,-421.39 -8.63 C -418.14 -9.01,-417.76 -8.81,-417.76 -6.74 C -417.76 -4.86,-417.33 -4.51,-415.51 -4.89 C -412.69 -5.48,-381.99 -8.40,-375.27 -8.72 C -371.17 -8.91,-370.21 -9.31,-369.91 -10.96 C -369.70 -12.06,-369.03 -13.27,-368.43 -13.65 C -366.97 -14.57,-369.12 -25.09,-371.24 -27.43 C -372.08 -28.36,-372.78 -29.53,-372.81 -30.03 C -373.19 -37.84,-395.56 -42.52,-405.75 -36.92 " fill-opacity="0.8" fill="#fffee8" potraced="yes" filter="url(#pencil)" transform="matrix(1,0,0,1,0,0)" opacity="0.8"/><path id="SvgjsPath1187" d="M-411.98 -34.57 C -414.47 -32.85,-416.14 -30.05,-419.28 -22.34 C -421.52 -16.84,-423.60 -11.77,-423.91 -11.09 C -424.31 -10.20,-423.26 -9.84,-420.27 -9.84 C -416.91 -9.84,-415.96 -9.44,-415.54 -7.84 C -415.17 -6.42,-414.18 -5.84,-412.14 -5.84 C -409.92 -5.84,-409.25 -6.30,-409.25 -7.84 C -409.25 -9.46,-409.92 -9.84,-412.84 -9.84 C -417.18 -9.84,-417.00 -11.49,-412.38 -14.20 C -408.73 -16.33,-407.86 -15.92,-407.80 -12.05 C -407.75 -9.34,-407.75 -9.34,-398.47 -9.34 C -388.61 -9.34,-387.30 -9.94,-387.27 -14.48 C -387.26 -15.66,-386.46 -16.96,-385.50 -17.37 C -384.17 -17.94,-384.70 -18.32,-387.75 -19.01 C -393.40 -20.28,-399.43 -17.48,-398.92 -13.84 C -398.72 -12.46,-398.75 -11.90,-398.98 -12.59 C -399.22 -13.29,-401.05 -13.84,-403.22 -13.84 C -407.66 -13.84,-409.84 -17.87,-406.81 -20.50 C -405.96 -21.24,-405.71 -21.30,-406.26 -20.64 C -408.59 -17.82,-406.97 -17.87,-403.73 -20.72 C -399.59 -24.36,-398.30 -24.71,-387.75 -25.06 C -379.75 -25.34,-379.75 -25.34,-380.09 -20.18 C -380.45 -14.68,-379.08 -10.84,-376.76 -10.84 C -374.82 -10.84,-373.77 -17.06,-375.24 -19.82 C -377.38 -23.81,-375.60 -22.94,-371.75 -18.10 C -367.21 -12.40,-367.92 -15.09,-373.06 -23.06 C -379.34 -32.81,-403.99 -40.10,-411.98 -34.57 " fill-opacity="1" fill="#fffdec" potraced="yes" filter="url(#pencil)" transform="matrix(1,0,0,1,0,0)" opacity="1"/><path id="SvgjsPath1188" d="M-404.96 5.47 C -405.42 6.22,-403.34 6.45,-398.17 6.22 C -391.44 5.92,-390.76 6.06,-391.18 7.66 C -391.59 9.22,-391.31 9.30,-388.88 8.38 C -384.00 6.52,-383.82 5.96,-387.91 5.22 C -394.08 4.12,-404.21 4.26,-404.96 5.47 M-402.41 12.46 C -408.91 14.25,-408.91 14.25,-401.76 14.32 C -396.13 14.38,-394.49 14.06,-394.01 12.81 C -392.88 9.84,-392.91 9.84,-402.41 12.46 " fill-opacity="1" fill="#fffdec" potraced="yes" filter="url(#squiggly-animated)" transform="matrix(1,0,0,1,0,0)" opacity="1"/><path id="SvgjsPath1189" d="M-404.89 17.89 C -405.17 19.85,-405.69 22.16,-406.03 23.00 C -406.57 24.35,-405.79 24.42,-399.69 23.58 C -395.85 23.05,-392.79 22.35,-392.87 22.04 C -392.96 21.72,-392.46 20.45,-391.77 19.20 C -390.30 16.56,-390.32 16.55,-398.74 15.21 C -404.38 14.31,-404.38 14.31,-404.89 17.89 M-390.10 23.97 C -387.37 25.14,-386.60 25.14,-386.60 23.97 C -386.60 23.42,-387.84 23.00,-389.35 23.04 C -391.79 23.10,-391.87 23.20,-390.10 23.97 M-386.78 28.18 C -387.00 29.70,-388.12 30.69,-390.35 31.33 C -394.57 32.53,-394.48 33.71,-390.10 34.53 C -388.18 34.89,-386.60 35.59,-386.60 36.08 C -386.60 36.57,-385.81 36.93,-384.85 36.89 C -383.81 36.84,-383.60 36.60,-384.35 36.30 C -386.30 35.52,-385.92 29.30,-383.88 28.52 C -382.40 27.95,-382.37 27.72,-383.63 26.93 C -385.85 25.52,-386.43 25.75,-386.78 28.18 " fill-opacity="1" fill="#fffdec" potraced="yes" filter="url(#squiggly-animated)" transform="matrix(1,0,0,1,0,0)" opacity="1"/><path id="SvgjsPath1190" d="M-381.06 41.66 C -381.88 42.19,-387.06 42.67,-392.56 42.72 C -398.06 42.77,-401.88 43.06,-401.06 43.35 C -400.23 43.65,-399.08 44.49,-398.49 45.21 C -397.41 46.56,-374.22 43.15,-372.45 41.38 C -371.35 40.29,-379.34 40.55,-381.06 41.66 M-413.06 43.66 C -416.07 44.29,-415.70 44.41,-410.37 44.53 C -406.96 44.60,-403.90 44.21,-403.56 43.66 C -402.86 42.52,-407.66 42.52,-413.06 43.66 M-432.24 45.34 C -431.52 45.63,-430.66 45.60,-430.33 45.26 C -430.00 44.93,-430.59 44.70,-431.64 44.74 C -432.81 44.79,-433.04 45.02,-432.24 45.34 M-400.81 48.33 C -401.57 48.63,-402.06 50.74,-402.06 53.74 C -402.06 58.66,-402.06 58.66,-406.72 58.66 C -414.08 58.66,-411.08 59.74,-402.29 60.26 C -394.32 60.73,-394.32 60.73,-396.03 54.50 C -397.73 48.29,-398.43 47.38,-400.81 48.33 " fill-opacity="1" fill="#fffdec" potraced="yes" filter="url(#squiggly-animated)" transform="matrix(1,0,0,1,0,0)" opacity="1"/><path id="SvgjsPath1191" d="M-413.39 -3.96 C -412.24 -3.50,-408.71 -2.79,-405.54 -2.40 C -401.91 -1.95,-400.27 -1.38,-401.10 -0.86 C -401.83 -0.41,-402.21 0.16,-401.95 0.41 C -401.69 0.66,-399.92 -0.44,-398.02 -2.03 C -394.56 -4.93,-394.56 -4.93,-405.02 -4.87 C -411.75 -4.83,-414.74 -4.51,-413.39 -3.96 M-396.54 3.39 C -398.23 5.34,-398.47 5.38,-398.78 3.82 C -398.97 2.85,-399.98 2.07,-401.02 2.07 C -402.58 2.07,-402.76 2.47,-402.04 4.32 C -401.56 5.55,-400.57 6.39,-399.83 6.18 C -399.09 5.96,-395.64 5.00,-392.18 4.04 C -384.21 1.83,-383.90 1.47,-389.84 1.33 C -393.64 1.24,-395.06 1.67,-396.54 3.39 M-406.98 8.07 C -410.48 8.80,-410.48 8.80,-406.23 8.93 C -403.89 9.01,-401.98 8.62,-401.98 8.07 C -401.98 7.52,-402.32 7.12,-402.73 7.20 C -403.14 7.27,-405.06 7.66,-406.98 8.07 " fill="none" potraced="yes" filter="url(#squiggly-animated)" transform="matrix(1,0,0,1,0,0)"/><path id="SvgjsPath1192" d="M-414.99 19.37 C -420.49 23.00,-420.49 23.00,-414.13 23.30 C -406.53 23.66,-406.36 23.54,-408.12 19.16 C -409.49 15.73,-409.49 15.73,-414.99 19.37 M-408.99 24.50 C -411.49 25.30,-411.49 25.30,-408.80 25.40 C -407.32 25.45,-405.83 25.95,-405.49 26.50 C -404.71 27.77,-399.96 27.77,-397.99 26.50 C -396.90 25.80,-397.87 25.49,-401.49 25.40 C -405.87 25.28,-406.12 25.17,-403.49 24.50 C -400.49 23.74,-400.49 23.74,-403.49 23.72 C -405.14 23.71,-407.62 24.06,-408.99 24.50 M-431.99 28.50 C -431.99 29.05,-431.50 29.50,-430.91 29.50 C -430.31 29.50,-424.18 30.19,-417.28 31.04 C -403.76 32.71,-403.48 32.68,-404.47 29.57 C -405.20 27.27,-431.99 26.23,-431.99 28.50 M-401.74 33.19 C -400.78 33.44,-399.20 33.44,-398.24 33.19 C -397.28 32.94,-398.07 32.73,-399.99 32.73 C -401.92 32.73,-402.70 32.94,-401.74 33.19 " fill="none" potraced="yes" filter="url(#squiggly-animated)" transform="matrix(1,0,0,1,0,0)"/><path id="SvgjsPath1193" d="M-374.84 16.12 C -374.84 19.15,-365.72 20.50,-358.84 18.49 C -356.34 17.76,-356.34 17.76,-359.34 17.14 C -365.56 15.87,-374.84 15.25,-374.84 16.12 M-383.84 21.42 C -385.09 22.23,-385.01 22.41,-383.34 22.49 C -382.24 22.54,-384.04 23.41,-387.34 24.42 C -393.34 26.26,-393.34 26.26,-387.09 26.34 C -380.06 26.43,-379.23 27.55,-383.34 31.42 C -386.88 34.74,-386.76 34.84,-377.59 36.27 C -366.59 37.99,-366.45 38.46,-375.54 43.25 C -383.34 47.36,-383.34 47.36,-369.51 47.39 C -361.90 47.41,-355.83 47.06,-356.01 46.61 C -356.19 46.16,-359.90 40.09,-364.24 33.11 C -372.43 19.97,-377.19 17.12,-383.84 21.42 " fill="none" potraced="yes" filter="url(#squiggly-animated)" transform="matrix(1,0,0,1,0,0)"/><path id="SvgjsPath1194" d="M-387.65 57.05 C -387.89 58.69,-389.31 59.46,-394.45 60.77 C -400.95 62.42,-400.95 62.42,-396.95 63.11 C -394.75 63.49,-389.03 64.51,-384.23 65.37 C -379.43 66.24,-374.80 66.68,-373.93 66.34 C -373.02 65.99,-372.61 66.15,-372.96 66.72 C -373.35 67.36,-366.96 67.63,-354.76 67.49 C -335.95 67.26,-335.95 67.26,-353.70 66.96 C -363.46 66.80,-371.45 66.32,-371.45 65.90 C -371.45 65.48,-370.66 65.09,-369.70 65.02 C -368.74 64.96,-364.48 63.98,-360.24 62.85 C -356.00 61.72,-347.52 60.36,-341.41 59.84 C -335.29 59.31,-330.10 58.69,-329.86 58.45 C -329.19 57.78,-357.33 55.77,-373.15 55.36 C -386.87 55.00,-387.36 55.06,-387.65 57.05 " fill="none" potraced="yes" filter="url(#squiggly-animated)" transform="matrix(1,0,0,1,0,0)"/><path id="SvgjsPath1195" d="M-424.20 34.15 C -425.85 36.82,-425.02 50.65,-422.85 56.78 C -421.49 60.61,-420.64 65.36,-420.64 69.15 C -420.64 75.30,-420.64 75.30,-416.23 71.68 C -412.57 68.68,-410.98 68.05,-406.98 67.97 C -402.18 67.88,-402.17 67.87,-405.50 66.92 C -408.75 65.98,-408.80 65.89,-407.09 64.01 C -405.10 61.81,-405.43 61.65,-409.08 63.04 C -411.53 63.97,-411.64 63.86,-411.64 60.48 C -411.64 58.38,-412.05 57.19,-412.64 57.56 C -413.23 57.92,-413.64 56.89,-413.64 55.09 C -413.64 48.87,-418.23 44.72,-418.92 50.31 C -419.21 52.68,-419.37 52.21,-419.49 48.56 C -419.93 35.55,-421.70 30.11,-424.20 34.15 M-409.98 65.73 C -410.34 66.09,-410.94 66.09,-411.31 65.73 C -411.68 65.36,-411.38 65.06,-410.64 65.06 C -409.91 65.06,-409.61 65.36,-409.98 65.73 " fill="none" potraced="yes" filter="url(#squiggly-animated)" transform="matrix(1,0,0,1,0,0)"/><path id="SvgjsPath1196" d="M-416.80 76.74 C -416.52 84.78,-416.52 84.78,-408.02 87.21 C -403.34 88.54,-399.12 90.02,-398.64 90.49 C -397.83 91.27,-399.03 91.60,-407.02 92.83 C -412.71 93.70,-397.29 93.42,-380.62 92.34 C -366.53 91.43,-362.00 91.45,-359.30 92.43 C -357.41 93.11,-355.71 93.51,-355.53 93.33 C -355.34 93.14,-369.12 87.52,-386.14 80.85 C -417.09 68.71,-417.09 68.71,-416.80 76.74 " fill="none" potraced="yes" filter="url(#squiggly-animated)" transform="matrix(1,0,0,1,0,0)"/><path id="SvgjsPath1197" d="M-426.39 95.70 C -429.61 98.68,-429.72 98.69,-419.35 95.00 C -414.35 93.22,-414.35 93.22,-418.95 93.14 C -422.60 93.08,-424.15 93.62,-426.39 95.70 " fill="none" potraced="yes" filter="url(#squiggly-animated)" transform="matrix(1,0,0,1,0,0)"/><path id="SvgjsPath1198" d="M-242.38 71.32 C -244.31 71.82,-250.88 72.66,-256.99 73.20 C -265.76 73.97,-269.49 74.81,-274.75 77.16 C -278.41 78.81,-283.20 80.69,-285.39 81.34 C -287.59 82.00,-289.38 83.11,-289.38 83.81 C -289.38 84.51,-290.17 85.31,-291.13 85.59 C -292.09 85.87,-288.83 86.01,-283.88 85.91 C -276.74 85.75,-273.90 85.23,-270.13 83.38 C -265.11 80.91,-257.56 78.53,-250.88 77.32 C -248.68 76.92,-245.08 75.78,-242.88 74.80 C -235.50 71.51,-234.89 71.29,-231.88 70.91 C -230.23 70.70,-231.13 70.50,-233.88 70.47 C -236.63 70.45,-240.46 70.83,-242.38 71.32 M-280.33 74.80 C -282.23 75.62,-286.51 76.54,-289.83 76.83 C -300.42 77.76,-305.22 80.03,-301.46 82.32 C -299.77 83.35,-298.38 84.65,-298.38 85.21 C -298.38 85.77,-297.37 86.22,-296.13 86.21 C -294.35 86.20,-294.19 86.00,-295.35 85.26 C -296.59 84.48,-296.51 84.21,-294.85 83.58 C -279.77 77.86,-270.22 73.28,-273.38 73.29 C -275.31 73.30,-278.44 73.97,-280.33 74.80 M-314.50 84.07 C -316.88 85.93,-322.58 89.37,-329.63 93.22 C -333.16 95.14,-335.38 100.22,-332.13 98.94 C -326.51 96.73,-302.80 86.85,-302.49 86.60 C -299.22 83.90,-311.07 81.41,-314.50 84.07 " fill="none" potraced="yes" filter="url(#pencil)" transform="matrix(1,0,0,1,0,0)"/><path id="SvgjsPath1199" d="M-268.16 71.96 C -274.62 74.13,-279.12 79.55,-274.65 79.77 C -273.71 79.82,-275.42 80.40,-278.45 81.06 C -288.39 83.24,-289.05 84.62,-280.16 84.66 C -268.46 84.70,-260.76 80.46,-267.48 77.68 C -270.51 76.42,-270.51 76.42,-267.03 74.05 C -265.12 72.75,-262.74 71.68,-261.75 71.67 C -260.76 71.67,-259.27 71.22,-258.45 70.69 C -255.77 68.96,-261.44 69.70,-268.16 71.96 " fill="none" potraced="yes" filter="url(#pencil)" transform="matrix(1,0,0,1,0,0)"/><path id="SvgjsPath1200" d="M-391.96 96.70 C -392.47 97.99,-393.78 98.45,-396.98 98.45 C -405.84 98.45,-434.98 106.00,-444.21 110.69 C -451.27 114.28,-457.00 120.45,-453.27 120.45 C -452.41 120.45,-451.71 120.00,-451.71 119.45 C -451.71 118.90,-449.80 118.45,-447.46 118.44 C -445.12 118.44,-441.87 117.74,-440.23 116.88 C -427.86 110.43,-414.49 106.45,-405.23 106.45 C -395.93 106.45,-395.93 106.45,-394.33 102.45 C -392.62 98.19,-390.71 97.13,-390.71 100.45 C -390.71 101.55,-390.35 102.45,-389.92 102.45 C -389.49 102.45,-387.37 101.55,-385.21 100.45 C -381.29 98.45,-381.29 98.45,-385.92 98.45 C -389.54 98.45,-390.64 98.06,-390.91 96.70 C -391.25 95.03,-391.30 95.03,-391.96 96.70 " fill="none" potraced="yes" filter="url(#pencil)" transform="matrix(1,0,0,1,0,0)"/><path id="SvgjsPath1201" d="M-403.78 96.70 C -409.46 97.71,-418.41 103.24,-416.82 104.77 C -415.53 106.00,-399.83 101.27,-395.98 98.47 C -390.92 94.81,-391.89 94.59,-403.78 96.70 " fill="none" potraced="yes" filter="url(#pencil)" transform="matrix(1,0,0,1,0,0)"/><path id="SvgjsPath1202" d="M-575.43 4.92 C -578.68 5.61,-578.56 5.67,-573.68 5.79 C -570.01 5.88,-568.43 6.33,-568.43 7.27 C -568.43 9.71,-565.31 14.92,-563.85 14.92 C -561.85 14.92,-562.03 10.02,-564.12 7.71 C -565.72 5.94,-565.71 5.87,-563.87 6.45 C -562.60 6.85,-562.79 6.53,-564.43 5.53 C -567.09 3.89,-569.81 3.74,-575.43 4.92 M-561.09 8.42 C -561.09 9.25,-560.49 9.92,-559.76 9.92 C -559.03 9.92,-558.41 10.49,-558.39 11.17 C -558.37 12.03,-557.97 11.93,-557.14 10.89 C -556.47 10.04,-555.08 9.52,-554.06 9.73 C -552.89 9.97,-552.44 9.70,-552.87 9.02 C -553.80 7.51,-557.42 7.63,-557.46 9.17 C -557.48 9.94,-558.01 9.74,-558.82 8.67 C -560.45 6.53,-561.09 6.46,-561.09 8.42 " fill="none" potraced="yes" filter="url(#pencil)" transform="matrix(1,0,0,1,0,0)"/><path id="SvgjsPath1203" d="M-571.06 2.55 C -571.79 2.84,-568.67 4.60,-564.13 6.46 C -554.59 10.36,-553.14 10.04,-558.65 5.26 C -562.46 1.95,-567.05 0.94,-571.06 2.55 " fill="none" potraced="yes" filter="url(#pencil)" transform="matrix(1,0,0,1,0,0)"/><path id="SvgjsPath1204" d="M-357.40 4.43 C -357.40 4.71,-356.05 6.80,-354.40 9.08 C -350.80 14.04,-350.77 14.32,-353.65 15.70 C -355.69 16.69,-355.54 16.79,-352.03 16.86 C -348.93 16.91,-348.37 16.66,-349.25 15.61 C -350.10 14.58,-349.29 13.76,-345.62 11.87 C -340.90 9.45,-340.90 9.45,-346.90 8.92 C -352.90 8.40,-352.90 8.40,-349.15 6.71 C -344.02 4.41,-344.41 3.92,-351.40 3.92 C -354.70 3.92,-357.40 4.15,-357.40 4.43 " fill="none" potraced="yes" filter="url(#squiggly-animated)" transform="matrix(1,0,0,1,0,0)"/><path id="SvgjsPath1205" d="M-382.63 18.50 C -382.26 18.87,-382.70 20.00,-383.61 21.00 C -385.20 22.76,-385.03 22.83,-379.37 22.76 C -373.46 22.69,-373.46 22.69,-377.45 20.93 C -380.18 19.72,-380.97 18.98,-379.95 18.58 C -379.00 18.20,-379.33 17.97,-380.88 17.91 C -382.21 17.87,-382.99 18.14,-382.63 18.50 M-374.16 23.36 C -374.45 23.65,-376.66 24.28,-379.07 24.75 C -382.99 25.52,-382.56 25.62,-374.96 25.69 C -367.11 25.76,-366.65 25.66,-368.96 24.34 C -371.62 22.82,-373.30 22.50,-374.16 23.36 " fill="none" potraced="yes" filter="url(#squiggly-animated)" transform="matrix(1,0,0,1,0,0)"/><path id="SvgjsPath1206" d="M-340.54 43.03 C -339.57 43.28,-338.22 43.26,-337.54 42.99 C -336.87 42.72,-337.66 42.51,-339.31 42.53 C -340.96 42.55,-341.52 42.77,-340.54 43.03 M-343.31 45.13 C -341.74 45.54,-342.17 45.92,-345.31 46.92 C -349.31 48.18,-349.31 48.18,-342.62 48.26 C -335.74 48.34,-332.71 46.99,-337.57 46.01 C -342.23 45.07,-345.41 44.58,-343.31 45.13 " fill="none" potraced="yes" filter="url(#squiggly-animated)" transform="matrix(1,0,0,1,0,0)"/><path id="SvgjsPath1207" d="M-324.66 63.76 C -326.18 63.99,-327.17 64.59,-326.85 65.11 C -325.98 66.51,-323.44 66.23,-321.75 64.54 C -320.92 63.71,-320.62 63.11,-321.07 63.19 C -321.52 63.27,-323.14 63.53,-324.66 63.76 M-310.16 65.75 C -313.38 66.37,-311.88 68.04,-308.08 68.05 C -305.86 68.06,-305.31 68.34,-306.28 68.95 C -307.94 70.00,-298.85 69.14,-295.89 67.96 C -294.08 67.24,-294.12 67.16,-296.39 67.09 C -298.38 67.02,-298.58 66.81,-297.39 66.04 C -295.85 65.05,-305.37 64.83,-310.16 65.75 M-301.14 67.70 C -301.83 67.98,-302.95 67.98,-303.64 67.70 C -304.33 67.42,-303.77 67.20,-302.39 67.20 C -301.02 67.20,-300.45 67.42,-301.14 67.70 " fill="none" potraced="yes" filter="url(#squiggly-animated)" transform="matrix(1,0,0,1,0,0)"/><path id="SvgjsPath1208" d="M-434.06 22.43 C -432.41 22.85,-428.92 23.25,-426.31 23.32 C -421.82 23.43,-420.06 24.66,-422.81 25.77 C -423.49 26.05,-422.79 26.31,-421.25 26.35 C -419.36 26.41,-418.67 26.05,-419.15 25.28 C -419.67 24.44,-418.79 24.29,-415.96 24.74 C -412.06 25.36,-412.06 25.36,-414.56 23.42 C -416.67 21.78,-418.59 21.49,-427.06 21.57 C -433.77 21.64,-436.07 21.92,-434.06 22.43 " fill="none" potraced="yes" filter="url(#squiggly-animated)" transform="matrix(1,0,0,1,0,0)"/><path id="SvgjsPath1209" d="M-435.58 56.43 C -435.26 56.94,-435.58 57.55,-436.27 57.80 C -436.96 58.05,-435.41 58.59,-432.84 58.99 C -430.26 59.39,-427.56 59.49,-426.84 59.20 C -426.11 58.91,-427.32 58.60,-429.52 58.52 C -431.72 58.43,-432.96 58.13,-432.27 57.86 C -430.10 56.98,-430.92 55.52,-433.58 55.52 C -434.99 55.52,-435.89 55.93,-435.58 56.43 " fill="none" potraced="yes" filter="url(#squiggly-animated)" transform="matrix(1,0,0,1,0,0)"/><path id="SvgjsPath1210" d="M-457.77 62.91 C -457.36 63.32,-455.60 64.17,-453.85 64.79 C -452.10 65.41,-450.78 66.42,-450.92 67.04 C -451.06 67.65,-450.47 68.16,-449.61 68.16 C -448.76 68.16,-448.35 67.68,-448.71 67.09 C -449.07 66.51,-448.58 65.16,-447.62 64.09 C -445.90 62.20,-445.99 62.16,-452.18 62.16 C -455.66 62.16,-458.17 62.49,-457.77 62.91 M-457.29 68.34 C -453.90 69.28,-453.90 69.28,-457.29 72.85 C -460.67 76.42,-460.67 76.42,-455.78 75.79 C -453.09 75.44,-450.17 75.10,-449.28 75.04 C -448.40 74.97,-449.02 74.58,-450.67 74.16 C -453.67 73.39,-453.67 73.39,-450.42 73.28 C -446.37 73.13,-446.18 71.53,-450.12 70.67 C -451.98 70.26,-452.87 69.54,-452.55 68.71 C -452.19 67.75,-453.21 67.40,-456.36 67.40 C -460.67 67.40,-460.67 67.40,-457.29 68.34 " fill="none" potraced="yes" filter="url(#squiggly-animated)" transform="matrix(1,0,0,1,0,0)"/><path id="SvgjsPath1211" d="M-619.88 -178.37 C -621.20 -167.32,-620.66 -158.96,-618.29 -153.86 C -616.10 -149.16,-616.04 -148.13,-616.02 -116.03 C -616.01 -87.30,-615.79 -82.51,-614.32 -79.03 C -611.99 -73.53,-612.12 -65.39,-614.66 -57.89 C -618.93 -45.23,-614.48 -40.53,-598.18 -40.53 C -583.41 -40.53,-568.33 -37.22,-562.16 -32.63 C -550.63 -24.06,-550.70 -24.08,-532.04 -23.49 C -522.57 -23.18,-513.93 -22.44,-512.54 -21.80 C -507.65 -19.55,-496.89 -18.07,-487.13 -18.31 C -478.94 -18.51,-475.81 -18.12,-468.99 -16.04 C -461.38 -13.72,-445.54 -12.40,-445.54 -14.09 C -445.54 -16.14,-448.20 -18.68,-452.28 -20.54 C -454.90 -21.73,-459.29 -23.76,-462.04 -25.05 C -464.79 -26.34,-469.29 -27.58,-472.04 -27.81 C -474.79 -28.03,-480.64 -28.77,-485.04 -29.45 C -489.44 -30.12,-496.87 -31.25,-501.55 -31.96 C -508.22 -32.97,-511.03 -33.94,-514.55 -36.42 C -517.02 -38.16,-521.59 -41.36,-524.70 -43.53 C -529.00 -46.53,-531.03 -48.83,-533.09 -53.05 C -536.65 -60.32,-544.93 -64.46,-556.04 -64.53 C -565.47 -64.59,-566.39 -66.23,-561.04 -73.53 C -557.11 -78.88,-556.94 -79.99,-559.05 -86.93 C -561.11 -93.74,-560.91 -99.79,-558.43 -105.56 C -555.45 -112.48,-557.33 -136.62,-561.59 -146.21 C -566.11 -156.39,-601.81 -181.09,-614.81 -183.04 C -619.24 -183.71,-619.24 -183.71,-619.88 -178.37 " fill-opacity="0.7" fill="#64453c" potraced="yes" filter="url(#pencil)" transform="matrix(1,0,0,1,0,0)" opacity="0.7"/><path id="SvgjsPath1212" d="M-219.47 -131.43 C -223.60 -130.71,-229.48 -130.09,-232.55 -130.06 C -242.74 -129.94,-245.04 -122.94,-242.04 -101.17 C -240.97 -93.33,-247.33 -85.66,-260.47 -78.99 C -264.60 -76.90,-270.13 -74.04,-272.77 -72.65 C -275.41 -71.25,-280.14 -69.62,-283.27 -69.01 C -286.41 -68.41,-290.89 -67.48,-293.24 -66.95 C -295.58 -66.42,-299.48 -65.99,-301.91 -65.99 C -309.54 -65.99,-309.47 -66.10,-309.47 -53.97 C -309.47 -39.13,-308.77 -40.00,-320.83 -39.97 C -330.97 -39.95,-330.97 -39.95,-333.64 -36.18 C -335.73 -33.22,-337.56 -32.02,-342.14 -30.58 C -345.35 -29.58,-349.55 -27.89,-351.47 -26.82 C -353.76 -25.56,-354.11 -25.16,-352.47 -25.66 C -349.19 -26.69,-302.32 -26.60,-296.29 -25.56 C -285.83 -23.75,-282.47 -26.40,-282.47 -36.47 C -282.47 -44.56,-281.20 -45.40,-270.02 -44.69 C -265.04 -44.37,-258.55 -43.37,-255.58 -42.47 C -245.32 -39.35,-233.50 -42.68,-228.80 -50.01 C -221.07 -62.08,-221.18 -61.99,-212.44 -61.99 C -205.24 -61.99,-204.26 -62.23,-202.35 -64.42 C -201.19 -65.75,-198.83 -67.42,-197.11 -68.11 C -190.03 -70.97,-190.11 -86.18,-197.29 -100.24 C -201.71 -108.88,-202.23 -110.66,-203.46 -121.33 C -204.99 -134.65,-204.13 -134.11,-219.47 -131.43 " fill-opacity="0.7" fill="#64453c" potraced="yes" filter="url(#pencil)" transform="matrix(1,0,0,1,0,0)" opacity="0.7"/><path id="SvgjsPath1213" d="M-428.38 -209.70 C -430.86 -209.38,-435.43 -207.64,-438.54 -205.84 C -445.90 -201.59,-469.67 -199.38,-486.17 -201.43 C -514.28 -204.91,-524.11 -201.21,-525.14 -186.78 C -525.70 -178.87,-524.01 -177.78,-497.38 -169.08 C -480.56 -163.57,-451.09 -153.06,-448.30 -151.56 C -446.74 -150.73,-446.38 -149.43,-446.38 -144.52 C -446.38 -137.02,-445.17 -134.72,-436.96 -126.64 C -433.34 -123.08,-430.38 -119.50,-430.38 -118.69 C -430.38 -117.88,-428.02 -115.00,-425.14 -112.29 C -419.90 -107.37,-419.90 -107.37,-423.64 -104.13 C -427.92 -100.44,-428.38 -97.57,-425.13 -94.91 C -422.96 -93.12,-419.56 -87.12,-417.41 -81.28 C -416.71 -79.37,-415.06 -77.92,-412.29 -76.78 C -408.22 -75.11,-408.21 -75.10,-408.73 -70.52 C -409.25 -65.93,-409.25 -65.93,-402.82 -62.52 C -396.00 -58.90,-394.99 -57.68,-398.63 -57.49 C -400.94 -57.37,-392.36 -54.88,-389.04 -54.71 C -387.45 -54.62,-387.55 -55.03,-389.85 -57.76 C -392.45 -60.85,-392.49 -61.11,-391.93 -71.51 C -391.23 -84.44,-391.14 -93.95,-391.68 -98.61 C -392.33 -104.17,-393.48 -108.61,-394.27 -108.61 C -396.02 -108.61,-402.38 -115.58,-402.38 -117.51 C -402.38 -124.19,-388.96 -139.70,-365.58 -160.05 C -358.75 -165.98,-352.64 -172.30,-350.16 -176.00 C -347.90 -179.36,-345.00 -183.38,-343.71 -184.94 C -337.28 -192.73,-346.56 -205.15,-361.88 -209.25 C -367.04 -210.63,-418.68 -210.98,-428.38 -209.70 " fill-opacity="0.7" fill="#64453c" potraced="yes" filter="url(#pencil)" transform="matrix(1,0,0,1,0,0)" opacity="0.7"/><path id="SvgjsPath1214" d="M-616.81 -140.45 C -618.00 -140.10,-618.40 -139.24,-618.07 -137.76 C -617.14 -133.57,-614.56 -112.98,-614.57 -109.80 C -614.57 -107.43,-613.78 -105.92,-611.54 -104.08 C -608.51 -101.58,-608.51 -101.58,-609.64 -95.08 C -611.87 -82.21,-611.86 -73.81,-609.61 -65.41 C -605.85 -51.41,-602.99 -48.38,-592.56 -47.33 C -583.04 -46.38,-565.83 -38.93,-558.19 -32.46 C -551.83 -27.08,-547.06 -25.96,-528.06 -25.36 C -518.71 -25.07,-511.30 -25.09,-511.60 -25.41 C -512.14 -26.00,-534.03 -29.39,-545.06 -30.60 C -552.42 -31.41,-559.55 -35.44,-559.55 -38.81 C -559.56 -40.42,-560.33 -41.23,-562.31 -41.70 C -565.67 -42.51,-572.25 -45.74,-572.71 -46.81 C -572.90 -47.24,-574.97 -49.09,-577.31 -50.92 C -580.22 -53.20,-581.56 -55.01,-581.56 -56.66 C -581.56 -58.15,-582.14 -59.08,-583.06 -59.08 C -583.88 -59.08,-584.56 -59.82,-584.56 -60.72 C -584.56 -61.62,-585.57 -63.37,-586.81 -64.62 C -591.25 -69.10,-591.40 -69.66,-591.84 -83.71 C -592.08 -91.34,-592.77 -99.38,-593.37 -101.58 C -594.92 -107.29,-596.38 -117.24,-597.09 -127.08 C -597.98 -139.32,-604.85 -143.98,-616.81 -140.45 " fill-opacity="0.7" fill="#3d3735" potraced="yes" filter="url(#pencil)" transform="matrix(1,0,0,1,0,0)" opacity="0.7"/><path id="SvgjsPath1215" d="M-213.61 -88.27 C -215.03 -87.05,-218.32 -84.58,-220.91 -82.79 C -225.73 -79.46,-232.53 -67.92,-232.53 -63.08 C -232.54 -56.95,-237.56 -54.24,-250.43 -53.44 C -273.14 -52.02,-265.29 -49.15,-238.53 -49.08 C -226.03 -49.05,-226.03 -49.05,-225.74 -55.80 C -225.44 -62.55,-225.44 -62.55,-219.57 -62.55 C -216.05 -62.55,-211.94 -61.80,-209.33 -60.68 C -204.75 -58.72,-188.97 -56.16,-187.41 -57.13 C -185.48 -58.32,-183.53 -65.05,-183.53 -70.56 C -183.53 -83.14,-204.92 -95.74,-213.61 -88.27 M-285.61 -47.63 C -289.85 -43.39,-289.19 -41.92,-284.68 -45.55 C -282.57 -47.25,-279.53 -49.03,-277.93 -49.51 C -275.08 -50.36,-275.10 -50.38,-278.86 -50.47 C -281.82 -50.53,-283.34 -49.89,-285.61 -47.63 M-296.53 -37.52 C -303.03 -33.48,-303.03 -33.48,-297.68 -33.77 C -292.48 -34.04,-292.30 -34.16,-291.05 -37.80 C -290.35 -39.86,-289.83 -41.55,-289.90 -41.55 C -289.97 -41.55,-292.96 -39.74,-296.53 -37.52 " fill-opacity="0.7" fill="#3d3735" potraced="yes" filter="url(#pencil)" transform="matrix(1,0,0,1,0,0)" opacity="0.7"/><path id="SvgjsPath1216" d="M-452.14 -192.04 C -466.50 -189.12,-475.32 -183.13,-476.33 -175.61 C -477.03 -170.40,-475.38 -169.28,-460.63 -164.91 C -430.45 -155.97,-433.17 -157.12,-432.83 -153.15 C -432.56 -150.06,-431.69 -149.03,-425.77 -144.85 C -417.94 -139.31,-416.63 -136.53,-416.63 -125.47 C -416.63 -118.52,-416.63 -118.52,-412.60 -115.71 C -408.57 -112.89,-408.57 -112.89,-409.19 -107.19 C -410.36 -96.49,-407.17 -99.02,-403.71 -111.54 C -402.45 -116.11,-402.50 -116.33,-406.21 -122.96 C -410.23 -130.15,-410.82 -134.47,-409.16 -144.52 C -408.51 -148.48,-408.73 -149.60,-410.64 -152.19 C -413.53 -156.10,-412.75 -159.54,-408.37 -162.25 C -402.81 -165.68,-400.94 -168.47,-400.24 -174.39 C -399.89 -177.42,-399.34 -181.28,-399.02 -182.98 C -398.52 -185.70,-398.80 -186.20,-401.29 -187.10 C -414.53 -191.87,-440.54 -194.40,-452.14 -192.04 M-408.94 -94.00 C -409.34 -92.96,-409.44 -91.87,-409.16 -91.58 C -408.24 -90.67,-407.44 -92.16,-407.82 -94.06 C -408.17 -95.80,-408.23 -95.80,-408.94 -94.00 " fill-opacity="0.7" fill="#3d3735" potraced="yes" filter="url(#pencil)" transform="matrix(1,0,0,1,0,0)" opacity="0.7"/><path id="SvgjsPath1217" d="M-443.04 8.94 C -506.67 15.67,-599.54 41.91,-599.54 53.15 C -599.54 54.74,-583.69 53.89,-558.04 50.93 C -518.46 46.36,-415.54 40.88,-415.54 43.34 C -415.54 43.55,-416.21 45.34,-417.04 47.31 C -419.04 52.10,-419.02 52.14,-415.29 51.51 C -408.30 50.34,-309.96 35.96,-291.75 33.44 C -263.50 29.53,-263.83 29.15,-295.54 29.06 C -327.21 28.97,-336.61 30.01,-356.63 35.85 C -374.16 40.95,-413.54 44.49,-413.54 40.95 C -413.54 40.40,-409.71 32.30,-405.03 22.95 C -395.20 3.32,-394.03 3.76,-443.04 8.94 M-464.04 56.94 C -503.64 61.64,-555.05 72.20,-568.94 78.49 C -572.30 80.01,-440.01 80.03,-434.48 78.51 C -432.33 77.92,-419.54 55.61,-419.54 52.46 C -419.54 51.69,-421.50 51.89,-464.04 56.94 " fill="none" potraced="yes" filter="url(#water)" transform="matrix(1,0,0,1,0,0)"/><path id="SvgjsPath1218" d="M-465.81 60.10 C -466.29 61.35,-466.98 67.31,-467.35 73.35 C -468.21 87.19,-469.08 89.52,-474.16 91.55 C -477.34 92.82,-477.80 93.31,-476.51 94.03 C -475.45 94.63,-474.90 96.30,-474.90 98.97 C -474.90 106.97,-485.87 114.65,-499.60 116.27 C -502.46 116.61,-508.27 117.77,-512.51 118.86 C -517.86 120.23,-523.62 120.84,-531.31 120.86 C -543.09 120.89,-543.22 123.17,-531.72 128.40 C -521.87 132.88,-525.91 144.24,-539.86 151.31 C -544.19 153.50,-547.90 158.16,-547.90 161.39 C -547.90 163.48,-516.75 158.74,-513.82 156.20 C -512.65 155.18,-508.64 154.83,-498.19 154.83 C -481.91 154.83,-483.76 156.00,-477.61 141.83 C -465.44 113.83,-465.02 112.59,-464.38 102.69 C -464.05 97.55,-463.56 92.28,-463.30 91.00 C -463.00 89.54,-463.21 88.91,-463.86 89.31 C -465.94 90.59,-464.94 79.08,-462.26 70.94 C -459.74 63.32,-459.70 62.79,-461.28 60.38 C -463.34 57.23,-464.69 57.15,-465.81 60.10 M-481.15 76.57 C -487.34 82.86,-487.72 87.13,-482.41 90.58 C -477.33 93.87,-475.71 91.11,-476.11 79.90 C -476.40 71.74,-476.40 71.74,-481.15 76.57 M-553.57 162.50 C -553.20 162.86,-552.60 162.86,-552.23 162.50 C -551.87 162.13,-552.17 161.83,-552.90 161.83 C -553.63 161.83,-553.93 162.13,-553.57 162.50 M-566.40 163.83 C -571.20 164.49,-571.24 164.52,-567.40 164.60 C -565.20 164.65,-561.38 164.32,-558.90 163.88 C -552.98 162.83,-558.80 162.79,-566.40 163.83 " fill="none" potraced="yes" filter="url(#moss)" transform="matrix(1,0,0,1,0,0)"/><path id="SvgjsPath1219" d="M-392.62 57.95 C -392.98 59.46,-393.72 61.26,-394.26 61.95 C -396.08 64.25,-393.55 63.23,-387.50 59.20 C -381.50 55.21,-381.50 55.21,-386.73 55.20 C -391.61 55.20,-392.01 55.38,-392.62 57.95 M-414.00 75.80 C -423.08 81.60,-432.84 87.77,-435.70 89.52 C -441.76 93.23,-428.93 93.56,-391.28 90.67 C -380.70 89.86,-367.82 89.20,-362.65 89.20 C -353.02 89.20,-347.00 88.46,-347.00 87.29 C -347.00 86.92,-359.74 85.88,-375.30 84.96 C -407.57 83.07,-409.00 82.76,-409.00 77.81 C -409.00 74.80,-408.34 73.90,-403.75 70.61 C -398.00 66.50,-396.36 65.18,-397.05 65.24 C -397.30 65.26,-404.93 70.01,-414.00 75.80 " fill="none" potraced="yes" filter="url(#moss)" transform="matrix(1,0,0,1,0,0)"/><path id="SvgjsPath1220" d="M-278.54 74.31 C -331.54 83.01,-331.54 83.01,-335.29 90.11 C -339.04 97.21,-339.04 97.21,-333.79 95.19 C -329.14 93.41,-327.12 93.25,-316.04 93.80 C -306.73 94.27,-301.76 94.05,-296.54 92.94 C -292.50 92.07,-284.28 91.43,-277.11 91.42 C -270.28 91.41,-263.30 90.97,-261.61 90.44 C -259.92 89.91,-257.38 89.25,-255.96 88.96 C -254.54 88.68,-251.39 86.71,-248.96 84.58 C -244.18 80.38,-239.05 77.41,-236.60 77.41 C -234.41 77.41,-223.04 68.55,-223.04 66.83 C -223.04 65.03,-217.16 64.24,-278.54 74.31 M-345.04 102.91 C -346.79 104.77,-347.01 105.41,-345.88 105.41 C -345.04 105.41,-343.85 104.28,-343.22 102.91 C -342.60 101.53,-342.22 100.41,-342.39 100.41 C -342.56 100.41,-343.75 101.53,-345.04 102.91 " fill="none" potraced="yes" filter="url(#moss)" transform="matrix(1,0,0,1,0,0)"/><path id="SvgjsPath1221" d="M-213.06 56.65 C -212.70 57.02,-212.10 57.02,-211.73 56.65 C -211.36 56.28,-211.66 55.98,-212.40 55.98 C -213.13 55.98,-213.43 56.28,-213.06 56.65 " fill="none" potraced="yes" filter="url(#moss)" transform="matrix(1,0,0,1,0,0)"/><path id="SvgjsPath1222" d="M-563.39 -125.28 C -563.33 -98.40,-560.64 -102.14,-557.82 -133.03 C -557.42 -137.43,-557.72 -139.18,-559.36 -141.78 C -563.04 -147.64,-563.43 -146.04,-563.39 -125.28 M-563.41 -86.78 C -563.42 -78.66,-563.21 -72.03,-562.95 -72.03 C -558.93 -72.03,-556.75 -92.20,-560.40 -95.51 C -561.49 -96.49,-562.19 -97.59,-561.97 -97.96 C -561.74 -98.32,-561.97 -99.28,-562.48 -100.08 C -563.06 -101.00,-563.40 -96.13,-563.41 -86.78 " fill="none" potraced="yes" filter="url(#pencil)" transform="matrix(1,0,0,1,0,0)"/><path id="SvgjsPath1223" d="M-562.59 -65.81 C -562.59 -65.41,-547.12 -56.13,-541.79 -53.34 C -539.50 -52.14,-539.49 -52.17,-539.79 -57.84 C -540.09 -63.54,-540.09 -63.54,-544.59 -64.89 C -548.73 -66.12,-562.59 -66.83,-562.59 -65.81 M-539.59 -49.91 C -539.59 -47.63,-536.32 -45.53,-531.10 -44.44 C -524.51 -43.06,-524.56 -43.24,-532.08 -47.56 C -539.27 -51.70,-539.59 -51.80,-539.59 -49.91 M-521.09 -41.26 C -520.75 -40.71,-520.25 -40.26,-519.97 -40.26 C -519.70 -40.26,-519.75 -40.71,-520.09 -41.26 C -520.43 -41.81,-520.93 -42.26,-521.21 -42.26 C -521.48 -42.26,-521.43 -41.81,-521.09 -41.26 " fill="none" potraced="yes" filter="url(#pencil)" transform="matrix(1,0,0,1,0,0)"/><path id="SvgjsPath1224" d="M-423.89 -97.04 C -425.43 -91.92,-424.06 -88.50,-419.53 -86.16 C -415.68 -84.17,-415.68 -84.17,-419.38 -93.30 C -422.62 -101.28,-422.62 -101.28,-423.89 -97.04 M-414.76 -82.78 C -414.72 -81.98,-413.82 -79.52,-412.75 -77.32 C -410.81 -73.32,-410.81 -73.32,-411.29 -77.25 C -411.76 -81.08,-414.93 -86.13,-414.76 -82.78 M-410.81 -67.07 C -410.83 -62.50,-410.58 -61.82,-408.87 -61.82 C -407.72 -61.82,-407.09 -61.30,-407.36 -60.57 C -407.92 -59.03,-406.20 -56.12,-405.28 -57.05 C -404.91 -57.42,-405.99 -61.01,-407.69 -65.02 C -410.77 -72.32,-410.77 -72.32,-410.81 -67.07 " fill="none" potraced="yes" filter="url(#pencil)" transform="matrix(1,0,0,1,0,0)"/><path id="SvgjsPath1225" d="M-229.35 -133.93 C -233.64 -131.79,-237.62 -125.02,-237.17 -120.63 C -236.86 -117.54,-236.86 -117.54,-226.61 -126.20 C -220.97 -130.97,-216.36 -135.05,-216.36 -135.27 C -216.36 -136.46,-226.35 -135.43,-229.35 -133.93 M-269.68 -89.59 C -287.18 -74.69,-301.31 -62.30,-301.08 -62.08 C -300.85 -61.85,-298.68 -62.37,-296.26 -63.23 C -293.84 -64.09,-288.09 -65.06,-283.50 -65.39 C -276.73 -65.88,-274.61 -66.44,-272.35 -68.34 C -270.82 -69.63,-269.05 -70.68,-268.42 -70.68 C -267.79 -70.68,-265.15 -72.65,-262.56 -75.05 C -259.97 -77.46,-256.73 -79.77,-255.36 -80.19 C -250.99 -81.51,-240.53 -93.14,-239.85 -97.43 C -239.52 -99.49,-238.79 -103.00,-238.23 -105.23 C -234.67 -119.34,-234.86 -119.25,-269.68 -89.59 M-306.90 -59.62 C -307.97 -57.87,-306.75 -57.51,-305.38 -59.16 C -304.59 -60.11,-304.51 -60.68,-305.17 -60.68 C -305.76 -60.68,-306.53 -60.20,-306.90 -59.62 M-320.21 -46.60 C -333.37 -35.67,-335.29 -33.63,-327.14 -39.24 C -322.16 -42.67,-321.60 -42.81,-314.64 -42.50 C -307.35 -42.18,-307.35 -42.18,-307.35 -49.43 C -307.35 -53.42,-307.52 -56.68,-307.71 -56.68 C -307.91 -56.68,-313.53 -52.14,-320.21 -46.60 " fill="none" potraced="yes" filter="url(#pencil)" transform="matrix(1,0,0,1,0,0)"/></g><g id="layer2" depth="1"><path id="SvgjsPolyline1238" d="M-665.41 -187.94 C -666.63 -186.71,-666.09 -184.61,-664.55 -184.61 C -660.13 -184.61,-652.41 -176.87,-650.57 -170.61 C -650.17 -169.23,-649.27 -167.43,-648.58 -166.61 C -647.89 -165.78,-646.77 -163.31,-646.09 -161.11 C -645.41 -158.91,-644.24 -156.12,-643.48 -154.92 C -638.50 -146.97,-638.07 -145.57,-638.12 -137.33 C -638.14 -132.81,-638.61 -127.08,-639.15 -124.61 C -641.26 -115.01,-641.37 -111.87,-639.69 -109.47 C -636.82 -105.37,-637.58 -99.41,-641.51 -95.24 C -651.57 -84.58,-645.81 -73.75,-630.02 -73.65 C -625.55 -73.63,-621.99 -73.12,-621.27 -72.41 C -619.34 -70.47,-617.60 -72.85,-619.02 -75.50 C -620.02 -77.36,-621.04 -77.61,-627.91 -77.61 C -641.82 -77.61,-646.34 -85.11,-637.57 -93.61 C -633.61 -97.45,-632.53 -106.19,-635.54 -110.17 C -637.42 -112.65,-637.43 -115.15,-635.57 -122.27 C -633.64 -129.71,-633.54 -147.33,-635.43 -149.53 C -637.02 -151.38,-641.15 -159.21,-643.91 -165.61 C -650.22 -180.22,-650.92 -181.31,-656.47 -184.99 C -661.80 -188.53,-664.07 -189.28,-665.41 -187.94 " opacity="1" transform="matrix(0.8771042258542698,0,0,0.8771042258542698,0,0)" filter="url(#pencil)" fill="#f2f8ff" fill-opacity="1" potraced="yes"/><path id="SvgjsPolyline1240" d="M-343.40 -80.60 C -349.91 -79.77,-350.24 -79.54,-352.02 -74.61 C -352.71 -72.68,-353.63 -70.21,-354.07 -69.11 C -356.98 -61.71,-357.83 -53.90,-356.08 -50.62 C -354.66 -47.96,-363.28 -45.13,-371.74 -45.48 C -378.21 -45.74,-380.03 -45.09,-386.07 -40.37 C -392.80 -35.12,-393.35 -34.48,-392.16 -33.30 C -390.88 -32.02,-386.65 -34.15,-381.29 -38.77 C -378.39 -41.27,-377.21 -41.61,-371.29 -41.62 C -357.87 -41.65,-349.71 -45.89,-352.07 -51.60 C -353.36 -54.71,-352.35 -61.58,-349.51 -69.11 C -348.68 -71.31,-347.75 -73.85,-347.45 -74.76 C -347.01 -76.05,-344.86 -76.60,-337.74 -77.26 C -330.23 -77.96,-328.54 -78.42,-328.26 -79.86 C -327.89 -81.82,-332.22 -82.03,-343.40 -80.60 " opacity="1" transform="matrix(0.8771042258542698,0,0,0.8771042258542698,0,0)" filter="url(#pencil)" fill="#f2f8ff" fill-opacity="1" potraced="yes"/><path id="SvgjsPolyline1242" d="M-270.57 -149.80 C -279.26 -149.06,-283.86 -138.43,-279.35 -129.51 C -278.17 -127.17,-277.73 -124.33,-277.94 -120.42 C -278.30 -113.90,-277.52 -110.61,-275.61 -110.61 C -272.92 -110.61,-271.88 -124.33,-274.23 -128.87 C -276.78 -133.80,-277.07 -134.69,-277.05 -137.34 C -277.03 -140.18,-274.02 -145.01,-272.13 -145.23 C -271.55 -145.30,-269.02 -145.41,-266.50 -145.48 C -262.84 -145.58,-261.99 -145.93,-262.25 -147.24 C -262.67 -149.34,-265.53 -150.22,-270.57 -149.80 " opacity="1" transform="matrix(0.8771042258542698,0,0,0.8771042258542698,0,0)" filter="url(#pencil)" fill="#f2f8ff" fill-opacity="1" potraced="yes"/><path id="SvgjsPolyline1246" d="M-504.07 -150.58 C -504.07 -150.01,-503.29 -149.26,-502.32 -148.92 C -500.46 -148.25,-496.17 -143.67,-496.11 -142.27 C -496.09 -141.80,-494.13 -139.10,-491.75 -136.27 C -489.37 -133.43,-486.40 -129.42,-485.17 -127.36 C -483.93 -125.29,-482.50 -123.61,-481.99 -123.61 C -480.48 -123.61,-480.99 -121.27,-483.07 -118.61 C -484.15 -117.23,-485.04 -115.12,-485.05 -113.92 C -485.06 -112.71,-485.52 -111.45,-486.07 -111.11 C -488.33 -109.71,-487.15 -104.70,-484.20 -103.17 C -482.62 -102.36,-481.09 -100.76,-480.79 -99.63 C -480.49 -98.49,-478.97 -97.12,-477.41 -96.58 C -474.98 -95.73,-474.57 -95.06,-474.57 -91.85 C -474.57 -88.76,-474.19 -88.05,-472.38 -87.79 C -470.68 -87.55,-470.12 -86.70,-469.88 -84.02 C -469.55 -80.27,-468.23 -79.41,-466.65 -81.92 C -465.31 -84.04,-467.01 -88.76,-469.59 -90.09 C -470.98 -90.80,-471.48 -91.92,-471.26 -93.79 C -471.03 -95.83,-471.63 -96.92,-473.75 -98.29 C -475.28 -99.29,-478.23 -101.79,-480.29 -103.84 C -484.48 -108.01,-484.51 -107.67,-479.27 -118.29 C -476.63 -123.65,-477.14 -126.61,-480.70 -126.61 C -481.45 -126.61,-482.07 -127.19,-482.07 -127.89 C -482.07 -128.60,-483.41 -130.74,-485.03 -132.64 C -486.66 -134.55,-488.01 -136.58,-488.03 -137.17 C -488.06 -137.75,-489.42 -139.53,-491.07 -141.11 C -492.72 -142.69,-494.07 -144.43,-494.07 -144.99 C -494.07 -146.95,-499.48 -151.61,-501.76 -151.61 C -503.03 -151.61,-504.07 -151.14,-504.07 -150.58 " opacity="1" transform="matrix(0.8771042258542698,0,0,0.8771042258542698,0,0)" filter="url(#pencil)" fill="#f2f8ff" fill-opacity="1" potraced="yes"/><path id="SvgjsPolyline1258" d="M-484.07 -2.09 C -488.20 0.83,-499.53 11.03,-509.25 20.56 C -518.98 30.09,-531.13 40.95,-536.25 44.70 C -552.28 56.39,-559.17 61.72,-565.03 66.98 C -570.35 71.75,-582.27 80.39,-583.54 80.39 C -583.85 80.39,-586.46 81.91,-589.34 83.76 C -607.18 95.22,-623.86 103.95,-629.57 104.82 C -633.73 105.45,-640.07 108.32,-640.07 109.56 C -640.07 111.19,-637.84 111.47,-635.76 110.11 C -634.53 109.30,-631.52 108.31,-629.05 107.91 C -626.59 107.50,-622.55 106.31,-620.07 105.25 C -615.06 103.11,-615.63 103.42,-604.57 96.59 C -600.17 93.87,-594.32 90.44,-591.57 88.95 C -581.43 83.49,-568.63 74.77,-561.42 68.43 C -552.19 60.31,-546.63 55.76,-543.57 53.84 C -531.61 46.34,-523.00 38.91,-499.32 15.66 C -492.59 9.04,-484.15 1.72,-480.57 -0.61 C -477.00 -2.94,-474.07 -5.46,-474.07 -6.22 C -474.07 -8.54,-476.25 -7.65,-484.07 -2.09 " opacity="1" transform="matrix(0.8771042258542698,0,0,0.8771042258542698,0,0)" filter="url(#water)" fill="#f2f8ff" fill-opacity="1" potraced="yes"/><path id="SvgjsPolyline1260" d="M-433.08 -9.86 C -433.09 -7.98,-417.60 7.47,-413.57 9.60 C -412.24 10.31,-407.86 13.08,-403.86 15.75 C -399.85 18.41,-391.38 23.81,-385.02 27.75 C -378.67 31.68,-372.59 35.46,-371.52 36.15 C -370.45 36.84,-368.45 37.96,-367.07 38.63 C -365.70 39.30,-364.35 40.15,-364.07 40.51 C -363.80 40.87,-360.42 42.65,-356.57 44.46 C -352.72 46.27,-345.89 50.72,-341.38 54.34 C -336.87 57.96,-330.80 62.19,-327.88 63.75 C -324.96 65.31,-320.77 67.66,-318.57 68.97 C -312.80 72.41,-312.06 72.72,-311.32 71.97 C -310.47 71.12,-312.24 68.24,-314.14 67.37 C -314.93 67.01,-316.47 66.19,-317.57 65.54 C -318.67 64.90,-320.25 64.09,-321.07 63.73 C -326.04 61.57,-336.45 54.70,-341.31 50.37 C -344.42 47.60,-350.25 43.76,-354.27 41.84 C -358.29 39.93,-363.37 37.26,-365.57 35.92 C -367.77 34.58,-370.25 33.16,-371.07 32.76 C -371.90 32.36,-373.70 31.29,-375.07 30.39 C -384.60 24.14,-392.28 19.31,-396.57 16.87 C -399.32 15.31,-403.68 12.42,-406.25 10.46 C -408.82 8.50,-412.80 5.54,-415.08 3.89 C -417.37 2.24,-421.94 -1.92,-425.24 -5.36 C -431.51 -11.88,-433.07 -12.78,-433.08 -9.86 " opacity="1" transform="matrix(0.8771042258542698,0,0,0.8771042258542698,0,0)" filter="url(#water)" fill="#f2f8ff" fill-opacity="1" potraced="yes"/><path id="SvgjsPolyline1274" d="M-585.07 37.92 C -591.95 38.62,-598.84 39.68,-600.39 40.29 C -601.94 40.90,-604.87 41.39,-606.90 41.39 C -608.93 41.39,-612.16 41.86,-614.08 42.43 C -616.00 43.00,-621.85 44.32,-627.07 45.38 C -640.32 48.05,-646.43 50.17,-659.57 56.65 C -677.05 65.27,-685.14 73.77,-694.80 93.63 C -702.64 109.76,-699.50 109.96,-691.18 93.86 C -684.09 80.14,-677.02 70.94,-670.01 66.31 C -657.84 58.28,-642.01 51.47,-630.57 49.33 C -627.82 48.82,-623.55 47.94,-621.07 47.39 C -618.60 46.83,-613.65 45.91,-610.07 45.35 C -606.50 44.78,-600.87 43.68,-597.57 42.91 C -591.84 41.57,-569.79 39.54,-556.15 39.10 C -552.06 38.97,-549.58 38.44,-549.32 37.64 C -548.78 36.01,-567.65 36.15,-585.07 37.92 " opacity="1" transform="matrix(0.8771042258542698,0,0,0.8771042258542698,0,0)" filter="url(#water)" fill="#f2f8ff" fill-opacity="1" potraced="yes"/><path id="SvgjsPolyline1284" d="M-446.07 -19.44 C -448.00 -18.91,-452.27 -17.79,-455.57 -16.95 C -458.87 -16.11,-464.40 -14.57,-467.85 -13.52 C -471.29 -12.47,-474.89 -11.60,-475.85 -11.60 C -476.80 -11.60,-478.78 -10.96,-480.26 -10.19 C -481.73 -9.42,-484.43 -8.48,-486.26 -8.09 C -488.08 -7.70,-491.46 -6.53,-493.77 -5.49 C -496.08 -4.46,-498.55 -3.60,-499.27 -3.58 C -501.20 -3.55,-505.66 0.14,-504.81 1.00 C -504.40 1.40,-494.96 1.17,-483.82 0.48 C -460.22 -0.98,-349.73 -2.24,-342.50 -1.13 C -333.13 0.31,-344.95 2.31,-378.07 4.89 C -388.80 5.73,-400.72 6.86,-404.57 7.40 C -412.64 8.54,-434.79 11.00,-450.07 12.47 C -455.85 13.02,-464.17 14.13,-468.57 14.94 C -472.97 15.74,-478.51 16.40,-480.88 16.40 C -483.25 16.40,-489.33 16.83,-494.38 17.36 C -499.44 17.89,-510.77 18.99,-519.57 19.82 C -528.37 20.64,-542.32 22.07,-550.57 22.99 C -558.82 23.91,-569.17 24.98,-573.57 25.38 C -588.03 26.69,-589.59 28.63,-576.87 29.49 C -570.98 29.89,-565.77 30.47,-565.28 30.76 C -563.08 32.13,-535.12 34.46,-510.07 35.37 C -463.63 37.07,-436.09 38.36,-424.07 39.40 C -417.75 39.94,-403.24 40.82,-391.82 41.34 C -363.51 42.64,-361.60 45.44,-387.07 48.28 C -409.41 50.78,-415.85 51.56,-420.57 52.37 C -435.51 54.91,-449.85 57.67,-460.07 59.97 C -466.40 61.40,-472.70 62.79,-474.07 63.06 C -475.45 63.34,-479.27 64.60,-482.57 65.87 C -485.87 67.13,-491.50 68.86,-495.07 69.71 C -507.61 72.67,-516.43 76.37,-514.82 77.98 C -513.30 79.50,-455.25 69.39,-452.30 67.10 C -450.14 65.42,-451.52 65.34,-456.65 66.85 C -459.36 67.64,-464.27 68.77,-467.57 69.34 C -470.87 69.92,-475.60 70.85,-478.07 71.43 C -480.55 72.00,-485.72 72.85,-489.57 73.32 C -493.42 73.80,-498.60 74.50,-501.07 74.90 C -508.18 76.02,-503.27 73.02,-494.55 70.91 C -490.72 69.98,-484.87 68.35,-481.57 67.28 C -472.48 64.35,-469.89 63.62,-466.07 62.89 C -464.15 62.52,-458.07 61.18,-452.57 59.90 C -447.07 58.62,-439.65 57.26,-436.07 56.86 C -432.50 56.47,-428.47 55.73,-427.13 55.22 C -423.99 54.03,-417.09 53.13,-382.43 49.41 C -377.94 48.93,-373.22 47.99,-371.93 47.31 C -370.63 46.63,-368.90 45.77,-368.07 45.38 C -363.77 43.36,-366.75 41.88,-376.57 41.14 C -382.07 40.73,-391.99 39.94,-398.62 39.37 C -405.24 38.81,-420.54 37.91,-432.62 37.38 C -444.69 36.84,-460.78 35.92,-468.38 35.34 C -475.97 34.76,-496.26 33.92,-513.47 33.49 C -530.69 33.06,-545.21 32.43,-545.75 32.09 C -546.83 31.43,-571.04 28.46,-576.92 28.28 C -578.93 28.21,-579.90 27.99,-579.07 27.79 C -576.17 27.07,-532.41 22.50,-518.07 21.42 C -510.10 20.81,-500.65 19.88,-497.07 19.35 C -493.50 18.81,-485.23 17.92,-478.71 17.37 C -472.18 16.82,-466.55 16.18,-466.19 15.96 C -465.83 15.74,-459.25 15.04,-451.56 14.40 C -443.87 13.76,-433.97 12.62,-429.57 11.87 C -425.17 11.11,-415.95 9.99,-409.07 9.37 C -402.20 8.74,-392.30 7.83,-387.07 7.33 C -381.85 6.83,-371.72 5.99,-364.57 5.45 C -348.35 4.23,-334.07 1.39,-334.07 -0.61 C -334.07 -2.43,-340.21 -2.60,-401.41 -2.56 C -458.37 -2.52,-477.42 -2.02,-497.07 -0.05 C -505.98 0.85,-500.95 -1.72,-482.07 -7.70 C -476.85 -9.36,-470.55 -11.40,-468.07 -12.24 C -465.60 -13.08,-461.55 -14.15,-459.07 -14.60 C -456.60 -15.06,-453.34 -15.91,-451.84 -16.49 C -450.33 -17.07,-446.15 -17.85,-442.56 -18.22 C -438.96 -18.59,-435.78 -19.28,-435.49 -19.75 C -434.79 -20.87,-441.60 -20.67,-446.07 -19.44 M-508.41 76.06 C -508.77 76.43,-509.37 76.43,-509.74 76.06 C -510.11 75.69,-509.81 75.39,-509.07 75.39 C -508.34 75.39,-508.04 75.69,-508.41 76.06 " opacity="1" transform="matrix(0.8771042258542698,0,0,0.8771042258542698,0,0)" filter="url(#water)" fill="#f2f8ff" fill-opacity="1" potraced="yes"/><path id="SvgjsPolyline1286" d="M-304.35 38.13 C -307.11 38.35,-308.87 38.92,-308.52 39.48 C -308.16 40.07,-304.51 40.21,-299.25 39.82 C -288.39 39.04,-285.07 40.09,-285.07 44.33 C -285.07 48.47,-287.97 49.93,-293.44 48.54 C -300.23 46.82,-307.07 46.17,-307.07 47.26 C -307.07 47.80,-304.49 48.54,-301.32 48.90 C -290.26 50.15,-290.06 50.54,-298.50 54.42 C -303.71 56.81,-306.07 58.44,-306.07 59.64 C -306.08 62.68,-272.67 62.19,-260.05 58.98 C -240.81 54.07,-241.10 52.77,-261.62 52.08 C -281.13 51.41,-284.18 50.41,-283.42 44.90 C -282.53 38.43,-287.54 36.81,-304.35 38.13 M-280.07 51.89 C -277.11 52.94,-271.68 53.40,-262.20 53.42 C -247.73 53.46,-247.05 54.00,-257.70 57.02 C -262.51 58.38,-303.00 60.70,-304.91 59.72 C -305.10 59.63,-301.84 57.92,-297.68 55.91 C -293.52 53.91,-289.86 51.85,-289.54 51.33 C -288.69 49.96,-284.92 50.18,-280.07 51.89 " opacity="1" transform="matrix(0.8771042258542698,0,0,0.8771042258542698,0,0)" filter="url(#water)" fill="#f2f8ff" fill-opacity="1" potraced="yes"/><path id="SvgjsPolyline1304" d="M-457.43 -9.19 C -460.53 -4.45,-459.69 -2.26,-455.00 -2.89 C -451.09 -3.41,-450.99 -3.36,-452.58 -1.60 C -454.14 0.12,-454.11 0.30,-452.22 1.31 C -447.88 3.64,-438.07 2.27,-438.07 -0.66 C -438.07 -1.83,-436.83 -2.93,-434.58 -3.74 C -428.55 -5.92,-434.72 -8.87,-444.40 -8.44 C -450.47 -8.16,-451.76 -8.37,-451.67 -9.61 C -451.50 -12.23,-455.63 -11.93,-457.43 -9.19 " opacity="0.51" transform="matrix(0.8771042258542698,0,0,0.8771042258542698,0,0)" filter="url(#squiggly-animated2)" fill="#fff483" fill-opacity="0.51" potraced="yes"/><path id="SvgjsPolyline1306" d="M-439.38 20.63 C -442.98 21.38,-444.10 22.03,-443.86 23.26 C -443.58 24.70,-441.94 24.85,-430.37 24.52 C -417.51 24.16,-417.21 24.20,-417.73 26.20 C -418.35 28.56,-413.93 31.39,-409.62 31.39 C -405.62 31.39,-406.63 33.06,-411.82 35.03 C -427.12 40.83,-431.57 45.36,-424.94 48.37 C -420.57 50.35,-420.57 50.35,-424.58 50.37 C -429.34 50.40,-431.83 53.12,-430.09 56.37 C -428.84 58.71,-426.30 59.15,-410.07 59.85 C -388.54 60.79,-384.92 61.33,-385.61 63.52 C -386.99 67.86,-385.49 68.94,-376.18 70.32 C -366.87 71.70,-364.07 72.65,-365.92 73.80 C -367.27 74.63,-366.27 77.39,-364.62 77.39 C -362.98 77.39,-360.07 74.11,-360.07 72.25 C -360.07 69.42,-365.36 66.70,-372.34 65.96 C -379.63 65.17,-379.91 64.97,-377.41 62.21 C -374.56 59.06,-377.96 57.89,-395.45 55.99 C -415.39 53.81,-416.14 53.66,-408.07 53.46 C -404.50 53.37,-399.55 53.10,-397.07 52.87 C -394.60 52.63,-388.39 52.03,-383.28 51.55 C -376.04 50.86,-373.67 50.24,-372.56 48.78 C -368.82 43.84,-371.93 43.18,-397.03 43.56 C -420.79 43.92,-421.07 43.81,-408.57 38.89 C -401.67 36.17,-398.07 33.89,-398.07 32.24 C -398.07 30.18,-402.20 27.60,-406.55 26.95 C -411.11 26.27,-411.27 26.13,-410.73 23.41 C -410.33 21.40,-410.61 20.40,-411.70 19.98 C -414.12 19.06,-434.05 19.52,-439.38 20.63 M-405.81 49.10 C -407.04 49.33,-409.29 49.34,-410.81 49.11 C -412.33 48.88,-411.32 48.69,-408.57 48.68 C -405.82 48.67,-404.58 48.86,-405.81 49.10 " opacity="0.51" transform="matrix(0.8771042258542698,0,0,0.8771042258542698,0,0)" filter="url(#squiggly-animated2)" fill="#fff483" fill-opacity="0.51" potraced="yes"/><path id="SvgjsPolyline1322" d="M-479.57 -0.61 C -479.91 -0.06,-481.05 0.39,-482.11 0.39 C -485.50 0.39,-487.56 5.91,-485.09 8.38 C -482.08 11.38,-475.07 10.70,-475.07 7.40 C -475.07 6.43,-474.10 4.99,-472.90 4.20 C -470.44 2.56,-471.15 0.39,-474.13 0.39 C -475.20 0.39,-476.07 -0.06,-476.07 -0.61 C -476.07 -1.16,-476.72 -1.61,-477.52 -1.61 C -478.31 -1.61,-479.23 -1.16,-479.57 -0.61 " opacity="0.51" transform="matrix(0.8771042258542698,0,0,0.8771042258542698,0,0)" filter="url(#squiggly-animated2)" fill="#fff483" fill-opacity="0.51" potraced="yes"/><path id="SvgjsPolyline1324" d="M-497.87 18.32 C -500.99 20.99,-499.08 21.95,-488.66 22.92 C -481.09 23.63,-480.85 23.72,-483.41 25.06 C -486.31 26.58,-486.93 29.13,-484.62 30.01 C -482.29 30.91,-473.11 25.39,-472.43 22.67 C -471.61 19.41,-472.27 19.01,-479.90 18.17 C -483.57 17.76,-488.60 17.19,-491.07 16.89 C -494.62 16.47,-496.06 16.78,-497.87 18.32 " opacity="0.51" transform="matrix(0.8771042258542698,0,0,0.8771042258542698,0,0)" filter="url(#squiggly-animated2)" fill="#fff483" fill-opacity="0.51" potraced="yes"/><path id="SvgjsPolyline1326" d="M-505.57 58.06 C -506.67 58.30,-508.47 58.91,-509.57 59.41 C -510.67 59.92,-512.92 60.49,-514.57 60.68 C -522.49 61.59,-527.02 65.53,-523.51 68.44 C -520.31 71.10,-480.07 66.35,-480.07 63.32 C -480.07 60.57,-481.44 60.23,-488.29 61.31 C -494.84 62.33,-505.92 63.36,-502.76 62.65 C -499.53 61.92,-499.84 56.87,-503.07 57.52 C -503.35 57.58,-504.47 57.82,-505.57 58.06 " opacity="0.51" transform="matrix(0.8771042258542698,0,0,0.8771042258542698,0,0)" filter="url(#squiggly-animated2)" fill="#fff483" fill-opacity="0.51" potraced="yes"/></g></g><filter xmlns="http://www.w3.org/2000/svg" id="canvas"><feTurbulence id="SvgjsFeTurbulence1604" baseFrequency="0.0621216354661451 0.7" filtername="feTurbulence" numOctaves="3" result="n" seed="20"/><feTurbulence id="SvgjsFeTurbulence1605" baseFrequency="0.7 0.06389500910048855" filtername="feTurbulence" numOctaves="3" seed="20"/><feBlend id="SvgjsFeBlend1606" filtername="feBlend" in="n" result="noise"/><feDiffuseLighting id="SvgjsFeDiffuseLighting1607" filtername="feDiffuseLighting" in="noise" lighting-color="white" surfaceScale="2"><feDistantLight id="SvgjsFeDistantLight1608" azimuth="45" elevation="60" filtername="feDistantLight"/></feDiffuseLighting></filter><filter xmlns="http://www.w3.org/2000/svg" id="squiggly-animated"><feTurbulence id="SvgjsFeTurbulence2154" baseFrequency="0.02" filtername="feTurbulence" numOctaves="3" result="noise" seed="0"><animate id="SvgjsAnimate2155" attributeName="seed" dur="0.25" values="0;1;2;4" attributeType="XML" repeatCount="indefinite"/></feTurbulence><feDisplacementMap id="SvgjsFeDisplacementMap2156" filtername="feDisplacementMap" in="SourceGraphic" in2="noise" scale="6"><animate id="SvgjsAnimate2157" attributeName="scale" dur="0.25" values="6;9;12;15" attributeType="XML" repeatCount="indefinite"/></feDisplacementMap></filter><filter xmlns="http://www.w3.org/2000/svg" id="water"><feTurbulence id="SvgjsFeTurbulence2227" baseFrequency="0.01 0.05" filtername="feTurbulence" numOctaves="1" result="turbulence" stitchTiles="noStitch"/><feDisplacementMap id="SvgjsFeDisplacementMap2228" filtername="feDisplacementMap" in="SourceGraphic" in2="turbulence" result="displacementMap" scale="200"><animate id="SvgjsAnimate2229" attributeName="scale" dur="3" values="200;100;50;100;200" attributeType="XML" repeatCount="indefinite"/></feDisplacementMap></filter><filter xmlns="http://www.w3.org/2000/svg" id="moss"><feTurbulence id="SvgjsFeTurbulence2264" baseFrequency=".02" filtername="feTurbulence" numOctaves="4" type="fractalNoise"><animate id="SvgjsAnimate2265" attributeName="numOctaves" dur="0.5" values="4;6;7" attributeType="XML" repeatCount="indefinite"/></feTurbulence><feMorphology id="SvgjsFeMorphology2266" filtername="feMorphology" operator="dilate" radius="1"/><feConvolveMatrix id="SvgjsFeConvolveMatrix2267" filtername="feConvolveMatrix" kernelMatrix="1 1 1 1 2 1 1 -9 1" preserveAlpha="true"/><feColorMatrix id="SvgjsFeColorMatrix2268" filtername="feColorMatrix" values=".4 .8 .6 0 0 1 1 1 0 0 .1 .2 .3 0 0 0 0 0 0 1"/><feComposite id="SvgjsFeComposite2269" filtername="feComposite" in2="SourceGraphic" operator="in"/></filter><filter xmlns="http://www.w3.org/2000/svg" id="pencil"><feTurbulence id="SvgjsFeTurbulence2293" baseFrequency="1.2" filtername="feTurbulence" in="SourceGraphic" numOctaves="1" result="f1" seed="0" stitchTiles="noStitch" type="fractalNoise" animation="{&quot;attributeName&quot;:&quot;None&quot;,&quot;dur&quot;:0,&quot;values&quot;:&quot;;&quot;}"/><feColorMatrix id="SvgjsFeColorMatrix2294" filtername="feColorMatrix" in="SourceGraphic" result="f2" type="matrix" values="0 0 0 0 0, 0 0 0 0 0, 0 0 0 0 0, 0 0 0 -1.5 2.8"/><feComposite id="SvgjsFeComposite2295" filtername="feComposite" in="SourceGraphic" in2="f2" operator="in" result="f3"/><feTurbulence id="SvgjsFeTurbulence2296" baseFrequency="1.8" filtername="feTurbulence" in="SourceGraphic" numOctaves="3" result="noise" seed="0" stitchTiles="noStitch" type="fractalNoise"/><feDisplacementMap id="SvgjsFeDisplacementMap2297" filtername="feDisplacementMap" in="SourceGraphic" result="f4" scale="4" animation="{&quot;attributeName&quot;:&quot;None&quot;,&quot;dur&quot;:0,&quot;values&quot;:&quot;;&quot;}"/></filter><filter id="squiggly-animated2"><feTurbulence id="SvgjsFeTurbulence1597" baseFrequency="0.02 0.02" filtername="feTurbulence" numOctaves="3" result="noise" seed="0" animation="{&quot;seed&quot;:&quot;{\&quot;attributeName\&quot;:\&quot;seed\&quot;,\&quot;dur\&quot;:\&quot;0.25\&quot;,\&quot;values\&quot;:\&quot;7;8;9;10\&quot;}&quot;}"><animate attributeName="seed" dur="0.25" values="7;8;9;10" attributeType="XML" repeatCount="indefinite"/></feTurbulence><feDisplacementMap id="SvgjsFeDisplacementMap1599" filtername="feDisplacementMap" in="SourceGraphic" in2="noise" scale="6" result="26f9Ay" animation="{&quot;scale&quot;:&quot;{\&quot;attributeName\&quot;:\&quot;scale\&quot;,\&quot;dur\&quot;:\&quot;0.25\&quot;,\&quot;values\&quot;:\&quot;6;9;12;15\&quot;}&quot;}"><animate attributeName="scale" dur="0.25" values="6;9;12;15" attributeType="XML" repeatCount="indefinite"/></feDisplacementMap></filter></svg>