<svg width="44" height="54" viewBox="0 0 44 54" fill="none" xmlns="http://www.w3.org/2000/svg">
<path d="M8.5 7.5L10.5 2.5L12 7.5L17 9.5L12 11.5L10.5 16.5L8.5 11.5L4 9.5L8.5 7.5Z" fill="#F50057" stroke="#F50057"/>
<path d="M3.57143 34.8571L4.71429 32L5.57143 34.8571L8.42857 36L5.57143 37.1429L4.71429 40L3.57143 37.1429L1 36L3.57143 34.8571Z" fill="#F50057" stroke="#F50057" stroke-width="0.571429"/>
<path d="M16.9997 34.0001C16.9997 34.0001 34.5003 51.9999 36 52C37.4997 52.0001 42.4997 46.5001 42.5 45C42.5003 43.4999 31.7247 33.7247 24.5 26.5M16.9997 34.0001C16.9997 34.0001 21.5711 29.4289 24.5 26.5M16.9997 34.0001C16.9997 34.0001 11.9994 24.0004 12.9997 23.0001C14 21.9998 21.0003 24.9999 24.5 26.5" stroke="#F50057" stroke-width="3"/>
</svg>
