<svg width="163" height="163" viewBox="0 0 163 163" fill="none" xmlns="http://www.w3.org/2000/svg">
<path fill-rule="evenodd" clip-rule="evenodd" d="M37.8629 27C37.3026 28.7401 37 30.5958 37 32.5223V108.522C37 118.463 45.0589 126.522 55 126.522H131C132.424 126.522 133.809 126.357 135.137 126.045C132.806 133.284 126.015 138.522 118 138.522H42C32.0589 138.522 24 130.463 24 120.522V44.5223C24 36.0048 29.9159 28.8691 37.8629 27Z" fill="#F50057"/>
<path fill-rule="evenodd" clip-rule="evenodd" d="M12.5985 61C12.0893 62.5814 11.8142 64.2679 11.8142 66.0186V135.086C11.8142 144.121 19.1381 151.445 28.1724 151.445H97.2403C98.5341 151.445 99.7928 151.294 101 151.011C98.8815 157.59 92.7097 162.35 85.426 162.35H16.3582C7.32381 162.35 0 155.026 0 145.992V76.9241C0 69.1835 5.37632 62.6986 12.5985 61Z" fill="#F50057"/>
<path fill-rule="evenodd" clip-rule="evenodd" d="M69 0C59.0589 0 51 8.05887 51 18V94C51 103.941 59.0589 112 69 112H145C154.941 112 163 103.941 163 94V18C163 8.05887 154.941 0 145 0H69ZM135.3 56.4742L87.5615 28.9127L87.5615 84.0357L135.3 56.4742Z" fill="#F50057"/>
</svg>
