<?xml version="1.0" encoding="utf-8"?>
<!-- Generator: Adobe Illustrator 26.1.0, SVG Export Plug-In . SVG Version: 6.00 Build 0)  -->
<svg version="1.1" id="Layer_1" xmlns="http://www.w3.org/2000/svg" xmlns:xlink="http://www.w3.org/1999/xlink" x="0px" y="0px"
	 viewBox="0 0 24 24" style="enable-background:new 0 0 24 24;" xml:space="preserve">
<path fill-rule="evenodd" clip-rule="evenodd" d="M5.6,3.7C5.5,3.9,5.4,4.2,5.4,4.5v11.2c0,1.5,1.2,2.7,2.7,2.7h11.2c0.2,0,0.4,0,0.6-0.1
	c-0.3,1.1-1.3,1.8-2.5,1.8H6.2c-1.5,0-2.7-1.2-2.7-2.7V6.3C3.5,5,4.4,3.9,5.6,3.7z"/>
<path fill-rule="evenodd" clip-rule="evenodd" d="M1.9,8.7C1.8,8.9,1.7,9.2,1.7,9.4v10.2c0,1.3,1.1,2.4,2.4,2.4h10.2c0.2,0,0.4,0,0.6-0.1c-0.3,1-1.2,1.7-2.3,1.7
	H2.4c-1.3,0-2.4-1.1-2.4-2.4V11C0,9.9,0.8,8.9,1.9,8.7z"/>
<path fill-rule="evenodd" clip-rule="evenodd" d="M10.2,0C8.7,0,7.5,1.2,7.5,2.7v11.2c0,1.5,1.2,2.7,2.7,2.7h11.2c1.5,0,2.7-1.2,2.7-2.7V2.7
	C24,1.2,22.8,0,21.3,0H10.2z M19.9,8.3l-7-4.1v8.1L19.9,8.3z"/>
</svg>
